<svg width="120" height="120" viewBox="0 0 120 120" fill="none" xmlns="http://www.w3.org/2000/svg">
<path opacity="0.5" d="M103.83 59.5928C103.83 83.4328 84.2101 103.053 60.3701 103.053C36.5301 103.053 16.9102 83.4328 16.9102 59.5928C31.4002 68.5528 45.8801 77.5228 60.3701 86.4828C74.8601 77.5228 89.3402 68.5628 103.83 59.5928Z" fill="#3DCE94"/>
<path d="M60.3701 103.043C84.3724 103.043 103.83 83.5854 103.83 59.5831C103.83 35.5808 84.3724 16.123 60.3701 16.123C36.3679 16.123 16.9102 35.5808 16.9102 59.5831C16.9102 83.5854 36.3679 103.043 60.3701 103.043Z" stroke="#2A2324" stroke-width="7" stroke-miterlimit="10" stroke-linecap="round" stroke-linejoin="round"/>
<path d="M60.3701 39.9331V83.2331" stroke="#2A2324" stroke-width="7" stroke-miterlimit="10" stroke-linecap="round" stroke-linejoin="round"/>
<path d="M60.3701 39.9331L41.2902 60.5031" stroke="#2A2324" stroke-width="7" stroke-miterlimit="10" stroke-linecap="round" stroke-linejoin="round"/>
<path d="M60.3701 39.9331L79.4501 60.5031" stroke="#2A2324" stroke-width="7" stroke-miterlimit="10" stroke-linecap="round" stroke-linejoin="round"/>
</svg>
