<svg width="120" height="120" viewBox="0 0 120 120" fill="none" xmlns="http://www.w3.org/2000/svg">
<g opacity="0.5">
<path d="M9.9552 71.7741C9.9552 71.3841 9.9552 70.9942 9.9552 70.6042C10.0052 70.0642 10.0952 69.524 10.0952 68.984C10.1052 62.704 10.1152 56.4241 10.1052 50.1441C10.1052 48.3841 10.1552 46.6341 10.4652 44.9041C12.0152 36.3641 16.7352 30.0141 24.5452 25.8241C31.7952 21.9341 39.0352 18.054 46.3252 14.234C55.4352 9.46405 64.5452 9.59406 73.5752 14.4941C80.5152 18.2641 87.4452 22.0742 94.3852 25.8442C104.325 31.2242 109.185 39.4741 109.155 50.4641C109.135 57.6741 109.105 64.8942 108.935 72.1042C108.705 81.6842 104.405 89.1841 95.9552 94.1241C89.4252 97.9441 82.5852 101.274 75.9452 104.934C71.6452 107.304 67.2752 109.354 62.3052 109.954C60.3752 109.954 58.4452 109.954 56.5152 109.954C52.6252 109.384 48.9652 108.224 45.5352 106.324C38.3852 102.374 31.1852 98.4941 24.0252 94.5541C17.7052 91.0741 13.3952 86.0041 11.1952 79.2541C10.4052 76.8141 10.1552 74.3041 9.9552 71.7741Z" fill="#3DCE94"/>
</g>
</svg>
