<svg width="120" height="120" viewBox="0 0 120 120" fill="none" xmlns="http://www.w3.org/2000/svg">
<path d="M70.9402 105.734H48.2602C23.2502 105.734 2.91016 85.3842 2.91016 60.3842C2.91016 35.3742 23.2602 15.0342 48.2602 15.0342H70.9402C95.9502 15.0342 116.29 35.3842 116.29 60.3842C116.3 85.3942 95.9502 105.734 70.9402 105.734ZM48.2602 22.0342C27.1102 22.0342 9.91016 39.2442 9.91016 60.3842C9.91016 81.5242 27.1202 98.7341 48.2602 98.7341H70.9402C92.0902 98.7341 109.29 81.5242 109.29 60.3842C109.29 39.2442 92.0802 22.0342 70.9402 22.0342H48.2602Z" fill="url(#paint0_linear_1896_142)"/>
<path d="M35.4001 51.4941C30.8301 51.4941 27.1301 55.1942 27.1301 59.7642C27.1301 64.3342 30.8301 68.0342 35.4001 68.0342C39.9701 68.0342 43.6701 64.3342 43.6701 59.7642C43.6701 55.1942 39.9701 51.4941 35.4001 51.4941ZM35.4001 66.5142C31.6701 66.5142 28.6501 63.4942 28.6501 59.7642C28.6501 56.0342 31.6701 53.0142 35.4001 53.0142V66.5142Z" fill="url(#paint1_linear_1896_142)"/>
<path d="M83.8001 51.4941C79.2301 51.4941 75.5302 55.1942 75.5302 59.7642C75.5302 64.3342 79.2301 68.0342 83.8001 68.0342C88.3701 68.0342 92.0702 64.3342 92.0702 59.7642C92.0802 55.1942 88.3701 51.4941 83.8001 51.4941ZM83.8001 66.5142C80.0701 66.5142 77.0501 63.4942 77.0501 59.7642C77.0501 56.0342 80.0701 53.0142 83.8001 53.0142V66.5142Z" fill="url(#paint2_linear_1896_142)"/>
<path d="M59.2902 69.2743C54.4602 69.2743 51.3602 64.6342 50.9902 64.0442C50.3502 63.0442 50.6502 61.7142 51.6602 61.0742C52.6702 60.4342 53.9902 60.7343 54.6302 61.7443C54.7302 61.9043 57.1002 65.6143 60.1302 64.8743C62.0502 64.4143 63.6302 62.3542 64.4702 60.5742C64.9802 59.5042 66.2502 59.0342 67.3402 59.5442C68.4102 60.0542 68.8702 61.3343 68.3702 62.4143C67.5802 64.0743 65.3002 68.0542 61.1402 69.0542C60.4902 69.2042 59.8702 69.2743 59.2902 69.2743Z" fill="url(#paint3_linear_1896_142)"/>
<defs>
<linearGradient id="paint0_linear_1896_142" x1="126.545" y1="126.528" x2="27.9368" y2="29.0936" gradientUnits="userSpaceOnUse">
<stop stop-color="#BBA335"/>
<stop offset="0.1301" stop-color="#BCA436"/>
<stop offset="0.1769" stop-color="#BEA73C"/>
<stop offset="0.2103" stop-color="#C2AB47"/>
<stop offset="0.2373" stop-color="#C7B255"/>
<stop offset="0.2604" stop-color="#CFBB69"/>
<stop offset="0.2806" stop-color="#D7C681"/>
<stop offset="0.297" stop-color="#E1D29B"/>
<stop offset="0.3134" stop-color="#D7C681"/>
<stop offset="0.3335" stop-color="#CFBB69"/>
<stop offset="0.3566" stop-color="#C7B255"/>
<stop offset="0.3836" stop-color="#C2AB47"/>
<stop offset="0.417" stop-color="#BEA73C"/>
<stop offset="0.4638" stop-color="#BCA436"/>
<stop offset="0.5939" stop-color="#BBA335"/>
<stop offset="0.6886" stop-color="#BCA536"/>
<stop offset="0.7227" stop-color="#C0A93C"/>
<stop offset="0.747" stop-color="#C6B146"/>
<stop offset="0.7666" stop-color="#CFBD56"/>
<stop offset="0.7832" stop-color="#DBCC6B"/>
<stop offset="0.7944" stop-color="#E6DA7F"/>
<stop offset="0.8216" stop-color="#DFCE7F"/>
<stop offset="0.8553" stop-color="#D3BB7D"/>
<stop offset="0.8655" stop-color="#CDB56A"/>
<stop offset="0.8795" stop-color="#C6AE57"/>
<stop offset="0.8956" stop-color="#C1A948"/>
<stop offset="0.9149" stop-color="#BEA63D"/>
<stop offset="0.9407" stop-color="#BCA436"/>
<stop offset="1" stop-color="#BBA335"/>
</linearGradient>
<linearGradient id="paint1_linear_1896_142" x1="114.898" y1="138.316" x2="16.2894" y2="40.8813" gradientUnits="userSpaceOnUse">
<stop stop-color="#BBA335"/>
<stop offset="0.1301" stop-color="#BCA436"/>
<stop offset="0.1769" stop-color="#BEA73C"/>
<stop offset="0.2103" stop-color="#C2AB47"/>
<stop offset="0.2373" stop-color="#C7B255"/>
<stop offset="0.2604" stop-color="#CFBB69"/>
<stop offset="0.2806" stop-color="#D7C681"/>
<stop offset="0.297" stop-color="#E1D29B"/>
<stop offset="0.3134" stop-color="#D7C681"/>
<stop offset="0.3335" stop-color="#CFBB69"/>
<stop offset="0.3566" stop-color="#C7B255"/>
<stop offset="0.3836" stop-color="#C2AB47"/>
<stop offset="0.417" stop-color="#BEA73C"/>
<stop offset="0.4638" stop-color="#BCA436"/>
<stop offset="0.5939" stop-color="#BBA335"/>
<stop offset="0.6886" stop-color="#BCA536"/>
<stop offset="0.7227" stop-color="#C0A93C"/>
<stop offset="0.747" stop-color="#C6B146"/>
<stop offset="0.7666" stop-color="#CFBD56"/>
<stop offset="0.7832" stop-color="#DBCC6B"/>
<stop offset="0.7944" stop-color="#E6DA7F"/>
<stop offset="0.8216" stop-color="#DFCE7F"/>
<stop offset="0.8553" stop-color="#D3BB7D"/>
<stop offset="0.8655" stop-color="#CDB56A"/>
<stop offset="0.8795" stop-color="#C6AE57"/>
<stop offset="0.8956" stop-color="#C1A948"/>
<stop offset="0.9149" stop-color="#BEA63D"/>
<stop offset="0.9407" stop-color="#BCA436"/>
<stop offset="1" stop-color="#BBA335"/>
</linearGradient>
<linearGradient id="paint2_linear_1896_142" x1="138.81" y1="114.116" x2="40.201" y2="16.6814" gradientUnits="userSpaceOnUse">
<stop stop-color="#BBA335"/>
<stop offset="0.1301" stop-color="#BCA436"/>
<stop offset="0.1769" stop-color="#BEA73C"/>
<stop offset="0.2103" stop-color="#C2AB47"/>
<stop offset="0.2373" stop-color="#C7B255"/>
<stop offset="0.2604" stop-color="#CFBB69"/>
<stop offset="0.2806" stop-color="#D7C681"/>
<stop offset="0.297" stop-color="#E1D29B"/>
<stop offset="0.3134" stop-color="#D7C681"/>
<stop offset="0.3335" stop-color="#CFBB69"/>
<stop offset="0.3566" stop-color="#C7B255"/>
<stop offset="0.3836" stop-color="#C2AB47"/>
<stop offset="0.417" stop-color="#BEA73C"/>
<stop offset="0.4638" stop-color="#BCA436"/>
<stop offset="0.5939" stop-color="#BBA335"/>
<stop offset="0.6886" stop-color="#BCA536"/>
<stop offset="0.7227" stop-color="#C0A93C"/>
<stop offset="0.747" stop-color="#C6B146"/>
<stop offset="0.7666" stop-color="#CFBD56"/>
<stop offset="0.7832" stop-color="#DBCC6B"/>
<stop offset="0.7944" stop-color="#E6DA7F"/>
<stop offset="0.8216" stop-color="#DFCE7F"/>
<stop offset="0.8553" stop-color="#D3BB7D"/>
<stop offset="0.8655" stop-color="#CDB56A"/>
<stop offset="0.8795" stop-color="#C6AE57"/>
<stop offset="0.8956" stop-color="#C1A948"/>
<stop offset="0.9149" stop-color="#BEA63D"/>
<stop offset="0.9407" stop-color="#BCA436"/>
<stop offset="1" stop-color="#BBA335"/>
</linearGradient>
<linearGradient id="paint3_linear_1896_142" x1="125.555" y1="127.531" x2="26.9458" y2="30.0962" gradientUnits="userSpaceOnUse">
<stop stop-color="#BBA335"/>
<stop offset="0.1301" stop-color="#BCA436"/>
<stop offset="0.1769" stop-color="#BEA73C"/>
<stop offset="0.2103" stop-color="#C2AB47"/>
<stop offset="0.2373" stop-color="#C7B255"/>
<stop offset="0.2604" stop-color="#CFBB69"/>
<stop offset="0.2806" stop-color="#D7C681"/>
<stop offset="0.297" stop-color="#E1D29B"/>
<stop offset="0.3134" stop-color="#D7C681"/>
<stop offset="0.3335" stop-color="#CFBB69"/>
<stop offset="0.3566" stop-color="#C7B255"/>
<stop offset="0.3836" stop-color="#C2AB47"/>
<stop offset="0.417" stop-color="#BEA73C"/>
<stop offset="0.4638" stop-color="#BCA436"/>
<stop offset="0.5939" stop-color="#BBA335"/>
<stop offset="0.6886" stop-color="#BCA536"/>
<stop offset="0.7227" stop-color="#C0A93C"/>
<stop offset="0.747" stop-color="#C6B146"/>
<stop offset="0.7666" stop-color="#CFBD56"/>
<stop offset="0.7832" stop-color="#DBCC6B"/>
<stop offset="0.7944" stop-color="#E6DA7F"/>
<stop offset="0.8216" stop-color="#DFCE7F"/>
<stop offset="0.8553" stop-color="#D3BB7D"/>
<stop offset="0.8655" stop-color="#CDB56A"/>
<stop offset="0.8795" stop-color="#C6AE57"/>
<stop offset="0.8956" stop-color="#C1A948"/>
<stop offset="0.9149" stop-color="#BEA63D"/>
<stop offset="0.9407" stop-color="#BCA436"/>
<stop offset="1" stop-color="#BBA335"/>
</linearGradient>
</defs>
</svg>
