<svg xmlns="http://www.w3.org/2000/svg" width="78" height="78" fill="none" viewBox="0 0 78 78"><g filter="url(#filter0_di_3390_1209)"><path fill="url(#paint0_linear_3390_1209)" fill-opacity=".77" d="M4 38C4 18.67 19.67 3 39 3s35 15.67 35 35-15.67 35-35 35S4 57.33 4 38" shape-rendering="crispEdges"/><path stroke="#fff" stroke-opacity=".03" d="M39 3.5c19.054 0 34.5 15.446 34.5 34.5S58.054 72.5 39 72.5 4.5 57.054 4.5 38 19.946 3.5 39 3.5Z" shape-rendering="crispEdges"/><path fill="#fff" d="M52.49 43.256a2.285 2.285 0 0 1-3.414 3.037L39 35 28.93 46.294a2.287 2.287 0 0 1-3.423-3.035l11.21-12.714a3 3 0 0 1 4.495-.007Z"/></g><defs><linearGradient id="paint0_linear_3390_1209" x1="39" x2="39" y1="3" y2="73" gradientUnits="userSpaceOnUse"><stop stop-color="#3dce94"/><stop offset="1" stop-color="#67ebb6"/></linearGradient><filter id="filter0_di_3390_1209" width="77" height="77" x=".5" y=".5" color-interpolation-filters="sRGB" filterUnits="userSpaceOnUse"><feFlood flood-opacity="0" result="BackgroundImageFix"/><feColorMatrix in="SourceAlpha" result="hardAlpha" values="0 0 0 0 0 0 0 0 0 0 0 0 0 0 0 0 0 0 127 0"/><feOffset dy="1"/><feGaussianBlur stdDeviation="1.75"/><feComposite in2="hardAlpha" operator="out"/><feColorMatrix values="0 0 0 0 0 0 0 0 0 0 0 0 0 0 0 0 0 0 0.14 0"/><feBlend in2="BackgroundImageFix" result="effect1_dropShadow_3390_1209"/><feBlend in="SourceGraphic" in2="effect1_dropShadow_3390_1209" result="shape"/><feColorMatrix in="SourceAlpha" result="hardAlpha" values="0 0 0 0 0 0 0 0 0 0 0 0 0 0 0 0 0 0 127 0"/><feOffset dx="2" dy="-1"/><feGaussianBlur stdDeviation="1"/><feComposite in2="hardAlpha" k2="-1" k3="1" operator="arithmetic"/><feColorMatrix values="0 0 0 0 1 0 0 0 0 1 0 0 0 0 1 0 0 0 0.43 0"/><feBlend in2="shape" result="effect2_innerShadow_3390_1209"/></filter></defs></svg>