<svg xmlns="http://www.w3.org/2000/svg" width="120" height="120" fill="none" viewBox="0 0 120 120"><path fill="#fff" d="M44.705 73.767v27.98h15.79v-27.98h11.79l2.45-13.33h-14.23v-4.74c0-7.04 2.76-9.75 9.91-9.75 2.23 0 4.02.07 5.04.17v-12.07c-1.96-.55-6.72-1.09-9.48-1.09-14.57 0-21.27 6.89-21.27 21.73v5.74h-8.99v13.33h8.99Z"/><path stroke="#fff" stroke-linecap="round" stroke-linejoin="round" stroke-miterlimit="10" stroke-width="7" d="M84.505 104.747h-49.71c-10.95 0-19.84-8.88-19.84-19.84v-49.71c0-10.95 8.88-19.84 19.84-19.84h49.71c10.95 0 19.84 8.88 19.84 19.84v49.71c-.01 10.96-8.89 19.84-19.84 19.84"/></svg>