<svg xmlns="http://www.w3.org/2000/svg" width="120" height="120" fill="none" viewBox="0 0 120 120"><path fill="#3dce94" d="M44.106 38.095c-.99-1.31-2.37-3.44-3.28-6.37 0 0-.93-3.03-.93-6.17 0-11.45 9.28-20.73 20.73-20.73s20.73 9.28 20.73 20.73c0 3.13-.93 6.17-.93 6.17a20.9 20.9 0 0 1-3.28 6.37Z" opacity=".5"/><path stroke="#2a2324" stroke-linecap="round" stroke-linejoin="round" stroke-miterlimit="10" stroke-width="7" d="M98.966 104.905h-76.99c-1.61 0-3.16-1.76-3.11-3.55.48-18.94 2.04-37.98 4.61-56.75.17-1.26 1.35-2.15 2.83-2.15h68.33c1.48 0 2.66.89 2.83 2.15 2.58 18.77 4.13 37.81 4.61 56.75.05 1.79-1.5 3.55-3.11 3.55M60.476 44.385v59.75M99.776 68.504h-78.61M60.616 42.385l-3.32-13.59c-1.44-5.88-6.91-10.09-12.94-9.47-1.7.17-3.31.7-4.74 1.57-.04.03-.09.05-.13.08-4.33 2.75-3.81 9.26.8 11.51 6.78 3.31 13.56 6.6 20.33 9.9"/><path stroke="#2a2324" stroke-linecap="round" stroke-linejoin="round" stroke-miterlimit="10" stroke-width="7" d="m60.476 42.385 3.32-13.59c1.44-5.88 6.91-10.09 12.94-9.47 1.7.17 3.31.7 4.74 1.57.04.03.09.05.13.08 4.33 2.75 3.81 9.26-.8 11.51-6.78 3.31-13.56 6.6-20.33 9.9"/></svg>