<svg xmlns="http://www.w3.org/2000/svg" width="120" height="120" fill="none" viewBox="0 0 120 120"><path fill="#3dce94" d="M53.72 19.059H29.75c-10.95 0-19.84 8.88-19.84 19.84v31.88h61.47v-34.04c.01-9.77-7.9-17.68-17.66-17.68" opacity=".5"/><path stroke="#2a2324" stroke-linecap="round" stroke-linejoin="round" stroke-miterlimit="10" stroke-width="7" d="M39.35 101.409c4.855 0 8.79-3.833 8.79-8.56s-3.935-8.56-8.79-8.56-8.79 3.832-8.79 8.56 3.936 8.56 8.79 8.56M88.44 101.409c4.855 0 8.79-3.833 8.79-8.56s-3.935-8.56-8.79-8.56-8.79 3.832-8.79 8.56 3.936 8.56 8.79 8.56"/><path stroke="#2a2324" stroke-miterlimit="10" stroke-width="7" d="M96.6 93.429h4.81c4.97 0 9.01-4.03 9.01-9.01v-28.17c0-11.71-9.49-21.2-21.2-21.2H71.41v58.37h7.86M53.72 19.059H29.75c-10.95 0-19.84 8.88-19.84 19.84v31.88h61.47v-34.04c.01-9.77-7.9-17.68-17.66-17.68Z"/><path stroke="#2a2324" stroke-miterlimit="10" stroke-width="7" d="M48.77 93.429h22.62v-22.66H9.92v13.66a9 9 0 0 0 9 9h12.5"/></svg>