<svg width="41" height="10" viewBox="0 0 41 10" fill="none" xmlns="http://www.w3.org/2000/svg">
<path d="M5.22218 0C2.33838 0 0 2.08322 0 4.65235C0 7.22147 2.33838 9.30469 5.22218 9.30469C8.10598 9.30469 10.4444 7.22147 10.4444 4.65235C10.4444 2.08322 8.10598 0 5.22218 0ZM5.22218 8.44832C2.86873 8.44832 0.961267 6.74899 0.961267 4.65235C0.961267 2.5557 2.86873 0.856376 5.22218 0.856376V8.44832Z" fill="black"/>
<path d="M35.7778 0C32.894 0 30.5557 2.08322 30.5557 4.65235C30.5557 7.22147 32.894 9.30469 35.7778 9.30469C38.6616 9.30469 41 7.22147 41 4.65235C41 2.08322 38.6616 0 35.7778 0ZM35.7778 8.44832C33.4244 8.44832 31.5169 6.74899 31.5169 4.65235C31.5169 2.5557 33.4244 0.856376 35.7778 0.856376V8.44832Z" fill="black"/>
<path d="M20.3011 9.99998C17.2516 9.99998 15.2959 7.39059 15.0608 7.0577C14.6601 6.49394 14.8469 5.74495 15.4827 5.3879C16.1185 5.03086 16.9563 5.1973 17.357 5.76374C17.4203 5.85233 18.918 7.94092 20.8254 7.52213C22.0368 7.26441 23.0342 6.102 23.5646 5.10334C23.887 4.49931 24.6916 4.23891 25.3726 4.52616C26.0506 4.81341 26.3399 5.53287 26.0205 6.1369C25.5233 7.07381 24.0829 9.31273 21.4582 9.87381C21.0575 9.95971 20.6718 9.99998 20.3011 9.99998Z" fill="black"/>
</svg>
