<?xml version='1.0' encoding='utf-8'?>
<svg xmlns="http://www.w3.org/2000/svg" width="215" height="171" viewBox="0 0 215 171" fill="none">
<path d="M129.566 167.454H85.4338C40.4652 167.454 4 130.862 4 85.7173C4 40.5922 40.4652 4 85.4338 4H129.566C174.554 4 210.999 40.5922 210.999 85.7173C211.019 130.862 174.554 167.454 129.566 167.454Z" stroke="#3DCE94" stroke-width="7" stroke-miterlimit="10" stroke-linecap="round" stroke-linejoin="round" />
<path d="M60.4096 68.3594C51.517 68.3594 44.3174 75.5841 44.3174 84.5076C44.3174 93.4311 51.517 100.656 60.4096 100.656C69.3021 100.656 76.5017 93.4311 76.5017 84.5076C76.5017 75.6036 69.3021 68.3594 60.4096 68.3594ZM60.4096 97.7073C53.1515 97.7073 47.2751 91.8104 47.2751 84.5271C47.2751 77.2438 53.1515 71.3469 60.4096 71.3469V97.7073Z" fill="#3DCE94" />
<path d="M154.589 68.3594C145.697 68.3594 138.497 75.5841 138.497 84.5076C138.497 93.4311 145.697 100.656 154.589 100.656C163.482 100.656 170.681 93.4311 170.681 84.5076C170.701 75.6036 163.482 68.3594 154.589 68.3594ZM154.589 97.7073C147.331 97.7073 141.455 91.8104 141.455 84.5271C141.455 77.2438 147.331 71.3469 154.589 71.3469V97.7073Z" fill="#3DCE94" />
<path d="M106.896 103.077C97.4977 103.077 91.4656 94.017 90.7456 92.865C89.5003 90.9123 90.084 88.3154 92.0493 87.0657C94.0146 85.816 96.5831 86.4018 97.8285 88.3739C98.0231 88.6863 102.635 95.9306 108.531 94.4856C112.267 93.5874 115.341 89.565 116.976 86.0894C117.968 84 120.439 83.0823 122.56 84.0781C124.642 85.074 125.537 87.5734 124.564 89.6822C123.027 92.9235 118.591 100.695 110.496 102.648C109.231 102.96 108.025 103.077 106.896 103.077Z" fill="#3DCE94" />
</svg>