<svg width="157" height="100" viewBox="0 0 157 100" fill="none" xmlns="http://www.w3.org/2000/svg">
<path d="M123.772 38.1376C119.865 27.0643 109.328 19.1195 96.8922 19.1195C92.2425 19.1195 87.8543 20.2584 83.975 22.2206C79.6142 12.0941 69.5309 5 57.7692 5C42.0182 5 29.2524 17.7336 29.2524 33.4449C29.2524 35.1326 29.4312 36.7792 29.7063 38.3984C15.7712 40.2645 5 52.1474 5 66.5551C5 82.2664 17.7659 95 33.5168 95C63.5056 95 93.4944 95 123.483 95C139.234 95 152 82.2664 152 66.5551C152.014 50.9399 139.385 38.2749 123.772 38.1376Z" stroke="#3DCE94" stroke-width="10" stroke-miterlimit="10" stroke-linecap="round" stroke-linejoin="round"/>
<path d="M78.5137 76.3521V44.9434" stroke="#3DCE94" stroke-width="10" stroke-miterlimit="10" stroke-linecap="round" stroke-linejoin="round"/>
<path d="M78.5137 76.352L93.1917 61.4229" stroke="#3DCE94" stroke-width="10" stroke-miterlimit="10" stroke-linecap="round" stroke-linejoin="round"/>
<path d="M78.5139 76.352L63.8359 61.4229" stroke="#3DCE94" stroke-width="10" stroke-miterlimit="10" stroke-linecap="round" stroke-linejoin="round"/>
</svg>
