<svg width="100" height="101" viewBox="0 0 100 101" fill="none" xmlns="http://www.w3.org/2000/svg">
<path d="M65.1616 75.3373L50.6002 79.7016C35.7628 84.1487 20.1129 75.6832 15.6492 60.7902C11.1874 45.9036 19.6011 30.2259 34.4385 25.7788L48.9999 21.4145C63.8438 16.9655 79.4872 25.4329 83.949 40.3195C88.4191 55.2106 80.0054 70.8883 65.1616 75.3373Z" stroke="#3DCE94" stroke-width="7" stroke-miterlimit="10" stroke-linecap="round" stroke-linejoin="round"/>
<path d="M32.545 49.4853C29.6109 50.3647 27.9497 53.4601 28.832 56.4039C29.7143 59.3477 32.8042 61.0191 35.7383 60.1397C38.6724 59.2603 40.3336 56.1649 39.4513 53.2211C38.5709 50.2837 35.4791 48.6059 32.545 49.4853ZM35.4468 59.167C33.052 59.8848 30.53 58.5206 29.8098 56.1178C29.0897 53.7151 30.4456 51.1886 32.8404 50.4708L35.4468 59.167Z" fill="#3DCE94"/>
<path d="M63.6192 40.1718C60.6851 41.0512 59.0239 44.1466 59.9062 47.0904C60.7886 50.0342 63.8784 51.7056 66.8125 50.8262C69.7466 49.9468 71.4078 46.8514 70.5255 43.9076C69.6515 40.9683 66.5533 39.2924 63.6192 40.1718ZM66.521 49.8535C64.1262 50.5713 61.6042 49.2071 60.8841 46.8044C60.1639 44.4016 61.5198 41.8751 63.9146 41.1574L66.521 49.8535Z" fill="#3DCE94"/>
<path d="M51.3159 56.3412C48.2148 57.2707 45.3287 54.8783 44.9772 54.5694C44.3733 54.0484 44.3091 53.1339 44.834 52.5273C45.3589 51.9207 46.2643 51.8599 46.8702 52.3874C46.9653 52.4712 49.2032 54.405 51.0057 53.3453C52.1496 52.6795 52.7663 51.0485 52.9619 49.7402C53.0828 48.9528 53.8074 48.4057 54.6057 48.5245C55.3911 48.6471 55.9336 49.3831 55.8211 50.175C55.6344 51.3963 54.939 54.3988 52.4612 55.8435C52.0747 56.0716 51.6882 56.2296 51.3159 56.3412Z" fill="#3DCE94"/>
</svg>
