<svg width="120" height="120" viewBox="0 0 120 120" fill="none" xmlns="http://www.w3.org/2000/svg">
<g opacity="0.5">
<path d="M101.506 81.2052C101.506 82.4152 101.506 83.6152 101.506 84.8252C101.446 85.2052 101.386 85.5852 101.336 85.9652C99.9865 98.3052 94.2265 107.605 83.6365 113.535C79.9765 115.585 75.9965 116.555 71.9065 117.115C70.1665 117.115 68.4265 117.115 66.6865 117.115C66.4065 117.055 66.1265 116.975 65.8365 116.955C61.9965 116.595 58.3565 115.395 54.8965 113.755C47.3765 110.195 40.8565 105.115 35.3465 98.7352C22.9065 84.3352 17.2165 67.3952 18.0865 48.0752C18.4565 39.8652 20.3065 32.0252 23.3865 24.4652C29.2765 9.9852 43.9165 1.51522 58.3765 4.24522C75.9965 7.57522 87.8565 25.2052 84.7165 43.5852C83.8265 48.7752 85.1965 52.8252 89.2165 56.0852C94.1765 60.1052 97.5265 65.3652 99.6265 71.5152C100.696 74.6452 101.176 77.9052 101.506 81.2052Z" fill="#3DCE94"/>
</g>
</svg>
