<svg width="120" height="120" viewBox="0 0 120 120" fill="none" xmlns="http://www.w3.org/2000/svg">
<path opacity="0.5" d="M84.4602 104.747H34.7502C30.0702 102.807 25.4002 100.877 20.7202 98.9373C46.6402 73.0173 72.5602 47.0972 98.4802 21.1772C100.42 25.8572 102.35 30.5272 104.29 35.2072V84.9173C104.29 95.8673 95.4102 104.747 84.4602 104.747Z" fill="#3DCE94"/>
<path d="M85.8702 34.2368L67.9902 52.1068" stroke="#2A2324" stroke-width="7" stroke-miterlimit="10" stroke-linecap="round" stroke-linejoin="round"/>
<path d="M85.8702 34.2368L69.5002 34.8468" stroke="#2A2324" stroke-width="7" stroke-miterlimit="10" stroke-linecap="round" stroke-linejoin="round"/>
<path d="M85.8702 34.2368L85.2502 50.6068" stroke="#2A2324" stroke-width="7" stroke-miterlimit="10" stroke-linecap="round" stroke-linejoin="round"/>
<path d="M33.3401 85.8871L51.2101 68.0171" stroke="#2A2324" stroke-width="7" stroke-miterlimit="10" stroke-linecap="round" stroke-linejoin="round"/>
<path d="M33.3401 85.8869L49.7101 85.2769" stroke="#2A2324" stroke-width="7" stroke-miterlimit="10" stroke-linecap="round" stroke-linejoin="round"/>
<path d="M33.3401 85.8871L33.9601 69.5171" stroke="#2A2324" stroke-width="7" stroke-miterlimit="10" stroke-linecap="round" stroke-linejoin="round"/>
<path d="M84.4601 104.747H34.7502C23.8002 104.747 14.9102 95.8669 14.9102 84.9069V35.1969C14.9102 24.2469 23.7902 15.3569 34.7502 15.3569H84.4601C95.4101 15.3569 104.3 24.2369 104.3 35.1969V84.9069C104.29 95.8669 95.4101 104.747 84.4601 104.747Z" stroke="#2A2324" stroke-width="7" stroke-miterlimit="10" stroke-linecap="round" stroke-linejoin="round"/>
</svg>
