<svg width="120" height="120" viewBox="0 0 120 120" fill="none" xmlns="http://www.w3.org/2000/svg">
<path opacity="0.5" d="M27.9102 70.1021V90.952V101.112C27.9102 103.182 30.1002 104.522 31.9402 103.572C40.7802 99.032 49.6302 94.502 58.4702 89.962C59.2602 89.552 60.2002 89.552 61.0002 89.962C69.8402 94.502 78.6902 99.032 87.5302 103.572C89.3702 104.512 91.5602 103.182 91.5602 101.112V90.952V70.1021H27.9102Z" fill="#3DCE94"/>
<path d="M77.4302 20.2925H42.0402C34.2402 20.2925 27.9202 27.3824 27.9202 36.1224V50.8124V90.9525V101.112C27.9202 103.182 30.1102 104.522 31.9502 103.572C40.7902 99.0324 49.6402 94.5025 58.4802 89.9625C59.2702 89.5525 60.2102 89.5525 61.0102 89.9625C69.8502 94.5025 78.7002 99.0324 87.5402 103.572C89.3802 104.512 91.5702 103.182 91.5702 101.112V90.9525V50.8124V36.1224C91.5502 27.3724 85.2302 20.2925 77.4302 20.2925Z" stroke="#2A2324" stroke-width="7" stroke-miterlimit="10" stroke-linecap="round" stroke-linejoin="round"/>
</svg>
