<svg width="120" height="120" viewBox="0 0 120 120" fill="none" xmlns="http://www.w3.org/2000/svg">
<path d="M84.4601 104.981H34.7502C23.8002 104.981 14.9102 96.1008 14.9102 85.1408V35.4308C14.9102 24.4808 23.7902 15.5908 34.7502 15.5908H84.4601C95.4101 15.5908 104.3 24.4708 104.3 35.4308V85.1408C104.29 96.1008 95.4101 104.981 84.4601 104.981Z" stroke="#2A2324" stroke-width="7" stroke-miterlimit="10" stroke-linecap="round" stroke-linejoin="round"/>
<path d="M55.2202 81.6009C58.4902 74.2709 63.2501 65.4009 70.2101 56.1909C75.1001 49.7309 80.0601 44.4209 84.5901 40.1509" stroke="#2A2324" stroke-width="7" stroke-miterlimit="10" stroke-linecap="round" stroke-linejoin="round"/>
<path d="M55.2202 81.601C53.9002 78.291 51.2302 72.861 45.9502 67.831C42.4002 64.451 38.8202 62.331 36.1302 61.021" stroke="#2A2324" stroke-width="7" stroke-miterlimit="10" stroke-linecap="round" stroke-linejoin="round"/>
</svg>
