<svg width="120" height="120" viewBox="0 0 120 120" fill="none" xmlns="http://www.w3.org/2000/svg">
<path opacity="0.5" d="M60.4652 109.583C71.9141 109.583 81.1952 100.301 81.1952 88.8525C81.1952 77.4037 71.9141 68.1226 60.4652 68.1226C49.0164 68.1226 39.7352 77.4037 39.7352 88.8525C39.7352 100.301 49.0164 109.583 60.4652 109.583Z" fill="#3DCE94"/>
<path d="M93.1952 36.6225C92.0052 33.6425 89.8352 31.3325 87.1252 29.4325C81.8652 25.7425 75.7752 23.9025 69.3252 22.9025C67.4252 22.6025 65.5152 22.4825 63.6052 22.2925C61.3752 22.3125 59.1552 22.3225 56.9252 22.3425C55.4952 22.4825 54.0452 22.5725 52.6152 22.7625C47.2352 23.4725 42.0852 24.8225 37.3352 27.2625C34.2052 28.8725 31.4352 30.8725 29.3752 33.5925C27.9652 35.4625 27.1652 37.5325 26.9552 39.7825C26.9652 40.1825 26.9752 40.5825 26.9852 40.9825C27.0252 41.3025 27.0552 41.6225 27.1052 41.9325C27.5952 44.8425 29.1352 47.2725 31.4052 49.3025C34.8152 52.3525 38.1352 55.4825 41.4752 58.6025C44.7852 61.6825 48.0652 64.7925 51.3952 67.8625C52.1852 68.5925 52.6452 69.6225 52.6452 70.7025V94.3625C52.6452 97.3325 55.8552 99.1925 58.4352 97.7225L66.2552 93.2425C67.4552 92.5525 68.1952 91.2725 68.1952 89.8825V70.7325C68.1952 69.6525 68.6552 68.6225 69.4452 67.8925C71.8352 65.6825 74.1952 63.4525 76.5752 61.2325C80.3952 57.6825 84.1552 54.0625 88.0752 50.6025C91.4652 47.6225 94.0452 44.3425 93.9552 39.6125C93.7352 38.6025 93.5852 37.5925 93.1952 36.6225Z" stroke="#2A2324" stroke-width="7" stroke-miterlimit="10" stroke-linecap="round" stroke-linejoin="round"/>
</svg>
