<svg width="120" height="120" viewBox="0 0 120 120" fill="none" xmlns="http://www.w3.org/2000/svg">
<path opacity="0.5" d="M59.5851 81.0347C71.0339 81.0347 80.3151 71.7536 80.3151 60.3047C80.3151 48.8558 71.0339 39.5747 59.5851 39.5747C48.1362 39.5747 38.8551 48.8558 38.8551 60.3047C38.8551 71.7536 48.1362 81.0347 59.5851 81.0347Z" fill="#3DCE94"/>
<path d="M59.5851 77.1646C68.9739 77.1646 76.5851 69.5534 76.5851 60.1646C76.5851 50.7757 68.9739 43.1646 59.5851 43.1646C50.1962 43.1646 42.5851 50.7757 42.5851 60.1646C42.5851 69.5534 50.1962 77.1646 59.5851 77.1646Z" stroke="#2A2324" stroke-width="7" stroke-miterlimit="10" stroke-linecap="round" stroke-linejoin="round"/>
<path d="M98.3451 72.8647L92.635 69.5847C93.475 66.6347 93.935 63.5147 93.935 60.2947C93.935 57.0747 93.475 53.9647 92.635 51.0047L98.3451 47.7247C100.175 46.6747 100.805 44.3447 99.7451 42.5247L95.135 34.5847C94.075 32.7647 91.7351 32.1447 89.9051 33.1947L84.195 36.4747C79.835 32.0247 74.2751 28.7447 68.0251 27.1747V20.6247C68.0251 18.5247 66.315 16.8247 64.195 16.8247H54.9751C52.8651 16.8247 51.145 18.5247 51.145 20.6247V27.1747C44.895 28.7447 39.3251 32.0147 34.9751 36.4747L29.265 33.1947C27.435 32.1447 25.0951 32.7647 24.0351 34.5847L19.425 42.5247C18.365 44.3447 18.995 46.6747 20.825 47.7247L26.5351 51.0047C25.6951 53.9547 25.235 57.0747 25.235 60.2947C25.235 63.5147 25.6951 66.6247 26.5351 69.5847L20.825 72.8647C18.995 73.9147 18.365 76.2447 19.425 78.0647L24.0351 86.0047C25.0951 87.8247 27.435 88.4447 29.265 87.3947L34.9751 84.1147C39.3351 88.5647 44.895 91.8447 51.145 93.4147V99.9647C51.145 102.065 52.8551 103.765 54.9751 103.765H64.195C66.305 103.765 68.0251 102.065 68.0251 99.9647V93.4147C74.2751 91.8447 79.845 88.5747 84.195 84.1147L89.9051 87.3947C91.7351 88.4447 94.075 87.8247 95.135 86.0047L99.7451 78.0647C100.805 76.2447 100.175 73.9147 98.3451 72.8647Z" stroke="#2A2324" stroke-width="7" stroke-miterlimit="10" stroke-linecap="round" stroke-linejoin="round"/>
</svg>
