<svg width="114" height="92" viewBox="0 0 114 92" fill="none" xmlns="http://www.w3.org/2000/svg">
<path d="M68.5301 87.6942H45.8501C22.7301 87.6942 4.00012 68.9542 4.00012 45.8442C4.00012 22.7242 22.7401 3.99414 45.8501 3.99414H68.5301C91.6501 3.99414 110.38 22.7342 110.38 45.8442C110.38 68.9542 91.6401 87.6942 68.5301 87.6942Z" stroke="#2A2324" stroke-width="7" stroke-miterlimit="10" stroke-linecap="round" stroke-linejoin="round"/>
<path d="M32.9901 36.9541C28.4201 36.9541 24.7201 40.654 24.7201 45.224C24.7201 49.794 28.4201 53.494 32.9901 53.494C37.5601 53.494 41.2601 49.794 41.2601 45.224C41.2601 40.654 37.5601 36.9541 32.9901 36.9541ZM32.9901 51.974C29.2601 51.974 26.2401 48.954 26.2401 45.224C26.2401 41.494 29.2601 38.474 32.9901 38.474V51.974Z" fill="#2A2324"/>
<path d="M81.3901 36.9541C76.8201 36.9541 73.1201 40.654 73.1201 45.224C73.1201 49.794 76.8201 53.494 81.3901 53.494C85.9601 53.494 89.6601 49.794 89.6601 45.224C89.6601 40.654 85.9601 36.9541 81.3901 36.9541ZM81.3901 51.974C77.6601 51.974 74.6401 48.954 74.6401 45.224C74.6401 41.494 77.6601 38.474 81.3901 38.474V51.974Z" fill="#2A2324"/>
<path d="M56.8701 54.7341C52.0401 54.7341 48.9401 50.0942 48.5701 49.5042C47.9301 48.5042 48.2301 47.1742 49.2401 46.5342C50.2501 45.8942 51.5701 46.1942 52.2101 47.2042C52.3101 47.3642 54.6801 51.0742 57.7101 50.3342C59.6301 49.8742 61.2101 47.8142 62.0501 46.0342C62.5601 44.9642 63.8302 44.4942 64.9202 45.0042C65.9902 45.5142 66.4501 46.7942 65.9501 47.8742C65.1601 49.5342 62.8801 53.5142 58.7201 54.5142C58.0701 54.6642 57.4601 54.7341 56.8701 54.7341Z" fill="#2A2324"/>
</svg>
