<svg width="120" height="120" viewBox="0 0 120 120" fill="none" xmlns="http://www.w3.org/2000/svg">
<path opacity="0.5" d="M60.1901 17.8892C63.9701 17.8892 67.7501 17.8892 71.5301 17.8892C94.6501 17.8892 113.38 36.6292 113.38 59.7392C113.38 82.8592 94.6401 101.589 71.5301 101.589C67.7501 101.589 63.9701 101.589 60.1901 101.589C60.1901 73.6892 60.1901 45.7892 60.1901 17.8892Z" fill="#3DCE94"/>
<path d="M60.1899 40.5693V78.9193" stroke="#2A2324" stroke-width="7" stroke-miterlimit="10" stroke-linecap="round" stroke-linejoin="round"/>
<path d="M79.37 59.7393H41.01" stroke="#2A2324" stroke-width="7" stroke-miterlimit="10" stroke-linecap="round" stroke-linejoin="round"/>
<path d="M71.53 101.599H48.85C25.73 101.599 7 82.8594 7 59.7494C7 36.6294 25.74 17.8994 48.85 17.8994H71.53C94.65 17.8994 113.38 36.6394 113.38 59.7494C113.38 82.8594 94.64 101.599 71.53 101.599Z" stroke="#2A2324" stroke-width="7" stroke-miterlimit="10" stroke-linecap="round" stroke-linejoin="round"/>
</svg>
