<svg width="120" height="120" viewBox="0 0 120 120" fill="none" xmlns="http://www.w3.org/2000/svg">
<path opacity="0.5" d="M113.345 59.749C113.345 62.539 113.065 77.369 101.085 89.349C89.1051 101.329 74.2751 101.609 71.4851 101.609H48.8051C25.6851 101.609 6.95508 82.869 6.95508 59.759C42.4151 59.749 77.8851 59.749 113.345 59.749Z" fill="#3DCE94"/>
<path d="M79.325 59.729H40.975" stroke="#2A2324" stroke-width="7" stroke-miterlimit="10" stroke-linecap="round" stroke-linejoin="round"/>
<path d="M71.4851 101.589H48.8051C25.6851 101.589 6.95508 82.8492 6.95508 59.7392C6.95508 36.6192 25.6951 17.8892 48.8051 17.8892H71.4851C94.6051 17.8892 113.335 36.6292 113.335 59.7392C113.345 82.8492 94.6051 101.589 71.4851 101.589Z" stroke="#2A2324" stroke-width="7" stroke-miterlimit="10" stroke-linecap="round" stroke-linejoin="round"/>
</svg>
