<svg width="120" height="120" viewBox="0 0 120 120" fill="none" xmlns="http://www.w3.org/2000/svg">
<path opacity="0.5" d="M43.1524 35.26C42.1624 33.95 40.7824 31.82 39.8724 28.89C39.8724 28.89 38.9425 25.86 38.9425 22.72C38.9325 11.28 48.2125 2 59.6625 2C71.1125 2 80.3925 11.28 80.3925 22.73C80.3925 25.86 79.4624 28.9 79.4624 28.9C78.5524 31.82 77.1724 33.96 76.1824 35.27C65.1624 35.26 54.1624 35.26 43.1524 35.26Z" fill="#3DCE94"/>
<path d="M96.2824 35.2598C71.7724 35.2598 47.2624 35.2598 22.7524 35.2598C21.0924 35.2598 19.6924 36.9098 19.8824 38.6598C22.1124 59.9398 24.8724 81.2798 28.1224 102.43C28.3224 103.74 29.5124 104.69 30.9524 104.69C49.9924 104.69 69.0324 104.69 88.0724 104.69C89.5124 104.69 90.7024 103.74 90.9024 102.43C94.1524 81.2898 96.9124 59.9398 99.1424 38.6598C99.3424 36.9098 97.9424 35.2598 96.2824 35.2598Z" stroke="#2A2324" stroke-width="7" stroke-miterlimit="10" stroke-linecap="round" stroke-linejoin="round"/>
<path d="M68.6925 22.73H50.3425" stroke="#2A2324" stroke-width="7" stroke-miterlimit="10" stroke-linecap="round" stroke-linejoin="round"/>
<path d="M73.0825 57.7002L45.9625 84.8202" stroke="#2A2324" stroke-width="7" stroke-miterlimit="10" stroke-linecap="round" stroke-linejoin="round"/>
<path d="M73.0825 84.8202L45.9625 57.7002" stroke="#2A2324" stroke-width="7" stroke-miterlimit="10" stroke-linecap="round" stroke-linejoin="round"/>
</svg>
