<svg width="120" height="120" viewBox="0 0 120 120" fill="none" xmlns="http://www.w3.org/2000/svg">
<path opacity="0.5" d="M53.7202 19.0586H51.7202H48.7702H43.2502H29.7502C18.8002 19.0586 9.91016 27.9386 9.91016 38.8986V48.6086V63.6086V70.7786H48.7602H51.7102H53.7102H71.3802V36.7386C71.3902 26.9686 63.4802 19.0586 53.7202 19.0586Z" fill="#3DCE94"/>
<path d="M39.3501 101.409C44.2047 101.409 48.1401 97.5761 48.1401 92.8486C48.1401 88.121 44.2047 84.2886 39.3501 84.2886C34.4955 84.2886 30.5601 88.121 30.5601 92.8486C30.5601 97.5761 34.4955 101.409 39.3501 101.409Z" stroke="#2A2324" stroke-width="7" stroke-miterlimit="10" stroke-linecap="round" stroke-linejoin="round"/>
<path d="M88.4402 101.409C93.2948 101.409 97.2302 97.5761 97.2302 92.8486C97.2302 88.121 93.2948 84.2886 88.4402 84.2886C83.5856 84.2886 79.6501 88.121 79.6501 92.8486C79.6501 97.5761 83.5856 101.409 88.4402 101.409Z" stroke="#2A2324" stroke-width="7" stroke-miterlimit="10" stroke-linecap="round" stroke-linejoin="round"/>
<path d="M96.6002 93.4288H101.41C106.38 93.4288 110.42 89.3988 110.42 84.4188V72.2488V64.7488V63.7488V56.2488C110.42 44.5388 100.93 35.0488 89.2202 35.0488H83.4802H81.9202H79.2701H71.4102V56.2488V72.2488V93.4188H79.2701" stroke="#2A2324" stroke-width="7" stroke-miterlimit="10"/>
<path d="M53.7202 19.0586H51.7202H48.7702H43.2502H29.7502C18.8002 19.0586 9.91016 27.9386 9.91016 38.8986V48.6086V63.6086V70.7786H48.7602H51.7102H53.7102H71.3802V36.7386C71.3902 26.9686 63.4802 19.0586 53.7202 19.0586Z" stroke="#2A2324" stroke-width="7" stroke-miterlimit="10"/>
<path d="M48.7702 93.4286H51.7202H53.7202H71.3901V70.7686H53.7202H51.7202H48.7702H9.92017V84.4286C9.92017 89.3986 13.9502 93.4286 18.9202 93.4286H31.4202" stroke="#2A2324" stroke-width="7" stroke-miterlimit="10"/>
</svg>
