<svg width="73" height="73" viewBox="0 0 73 73" fill="none" xmlns="http://www.w3.org/2000/svg">
<path d="M25.8102 53.864L32.5765 37.7554L16.5564 31.0262L18.9729 25.2732L34.993 32.0023L41.7594 15.8937L47.601 18.3474L40.8346 34.456L56.9432 41.2224L54.5267 46.9754L38.4181 40.2091L31.6517 56.3177L25.8102 53.864Z" fill="#3DCE94"/>
<path d="M47.6006 18.3475L41.7591 15.8938L34.9929 32.0021L18.9728 25.273L16.5562 31.0263L32.5762 37.7554L25.8097 53.8646L31.6512 56.3183L38.4178 40.2091L54.5261 46.9753L56.9427 41.222L40.8344 34.4558L47.6006 18.3475ZM49.9991 30.7129L66.1074 37.4791L58.269 56.1399L42.1607 49.3737L35.3941 65.483L16.645 57.6075L23.4116 41.4983L7.39152 34.7692L15.2299 16.1083L31.25 22.8375L38.0162 6.72914L56.7653 14.6046L49.9991 30.7129Z" fill="#3DCE94"/>
</svg>
