<svg width="120" height="120" viewBox="0 0 120 120" fill="none" xmlns="http://www.w3.org/2000/svg">
<path d="M71.0301 105.734H48.3501C23.3401 105.734 3.00012 85.3843 3.00012 60.3843C3.00012 35.3743 23.3501 15.0342 48.3501 15.0342H71.0301C96.0401 15.0342 116.38 35.3843 116.38 60.3843C116.39 85.3843 96.0401 105.734 71.0301 105.734ZM48.3501 22.0242C27.2001 22.0242 10.0001 39.2343 10.0001 60.3743C10.0001 81.5143 27.2101 98.7242 48.3501 98.7242H71.0301C92.1801 98.7242 109.38 81.5143 109.38 60.3743C109.38 39.2343 92.1701 22.0242 71.0301 22.0242H48.3501Z" fill="url(#paint0_linear_1896_144)"/>
<path d="M35.4901 51.4941C30.9201 51.4941 27.2201 55.194 27.2201 59.764C27.2201 64.334 30.9201 68.0341 35.4901 68.0341C40.0601 68.0341 43.7601 64.334 43.7601 59.764C43.7601 55.194 40.0601 51.4941 35.4901 51.4941ZM35.4901 66.514C31.7601 66.514 28.7401 63.494 28.7401 59.764C28.7401 56.034 31.7601 53.014 35.4901 53.014V66.514Z" fill="url(#paint1_linear_1896_144)"/>
<path d="M83.8901 51.4941C79.3201 51.4941 75.6201 55.194 75.6201 59.764C75.6201 64.334 79.3201 68.0341 83.8901 68.0341C88.4601 68.0341 92.1601 64.334 92.1601 59.764C92.1701 55.194 88.4601 51.4941 83.8901 51.4941ZM83.8901 66.514C80.1601 66.514 77.1401 63.494 77.1401 59.764C77.1401 56.034 80.1601 53.014 83.8901 53.014V66.514Z" fill="url(#paint2_linear_1896_144)"/>
<path d="M59.3802 69.2742C54.5502 69.2742 51.4502 64.6342 51.0802 64.0442C50.4402 63.0442 50.7402 61.7142 51.7502 61.0742C52.7602 60.4342 54.0802 60.7343 54.7202 61.7443C54.8202 61.9043 57.1902 65.6143 60.2202 64.8743C62.1402 64.4143 63.7202 62.3542 64.5602 60.5742C65.0702 59.5042 66.3402 59.0342 67.4302 59.5442C68.5002 60.0542 68.9602 61.3342 68.4602 62.4142C67.6702 64.0742 65.3902 68.0542 61.2302 69.0542C60.5802 69.2042 59.9602 69.2742 59.3802 69.2742Z" fill="url(#paint3_linear_1896_144)"/>
<defs>
<linearGradient id="paint0_linear_1896_144" x1="126.635" y1="126.526" x2="28.0266" y2="29.0914" gradientUnits="userSpaceOnUse">
<stop stop-color="#B28247"/>
<stop offset="0.1263" stop-color="#B38348"/>
<stop offset="0.1718" stop-color="#B5874E"/>
<stop offset="0.2042" stop-color="#BA8E58"/>
<stop offset="0.2304" stop-color="#C09966"/>
<stop offset="0.2529" stop-color="#C8A77B"/>
<stop offset="0.2728" stop-color="#D3B895"/>
<stop offset="0.2903" stop-color="#E0CEB6"/>
<stop offset="0.297" stop-color="#E5D7C4"/>
<stop offset="0.3036" stop-color="#E0CEB6"/>
<stop offset="0.3211" stop-color="#D3B895"/>
<stop offset="0.341" stop-color="#C8A77B"/>
<stop offset="0.3635" stop-color="#C09966"/>
<stop offset="0.3897" stop-color="#BA8E58"/>
<stop offset="0.4221" stop-color="#B5874E"/>
<stop offset="0.4676" stop-color="#B38348"/>
<stop offset="0.5939" stop-color="#B28247"/>
<stop offset="0.6848" stop-color="#B38348"/>
<stop offset="0.7176" stop-color="#B5874E"/>
<stop offset="0.741" stop-color="#BA8E58"/>
<stop offset="0.7598" stop-color="#C09967"/>
<stop offset="0.776" stop-color="#C8A77C"/>
<stop offset="0.7901" stop-color="#D3B896"/>
<stop offset="0.7944" stop-color="#D6BEA0"/>
<stop offset="0.8553" stop-color="#D9C6AB"/>
<stop offset="0.8609" stop-color="#D4BB9B"/>
<stop offset="0.8727" stop-color="#C9A97F"/>
<stop offset="0.886" stop-color="#C09A69"/>
<stop offset="0.9012" stop-color="#BA8F59"/>
<stop offset="0.9195" stop-color="#B5874E"/>
<stop offset="0.944" stop-color="#B38349"/>
<stop offset="1" stop-color="#B28247"/>
</linearGradient>
<linearGradient id="paint1_linear_1896_144" x1="114.988" y1="138.313" x2="16.3801" y2="40.8781" gradientUnits="userSpaceOnUse">
<stop stop-color="#B28247"/>
<stop offset="0.1263" stop-color="#B38348"/>
<stop offset="0.1718" stop-color="#B5874E"/>
<stop offset="0.2042" stop-color="#BA8E58"/>
<stop offset="0.2304" stop-color="#C09966"/>
<stop offset="0.2529" stop-color="#C8A77B"/>
<stop offset="0.2728" stop-color="#D3B895"/>
<stop offset="0.2903" stop-color="#E0CEB6"/>
<stop offset="0.297" stop-color="#E5D7C4"/>
<stop offset="0.3036" stop-color="#E0CEB6"/>
<stop offset="0.3211" stop-color="#D3B895"/>
<stop offset="0.341" stop-color="#C8A77B"/>
<stop offset="0.3635" stop-color="#C09966"/>
<stop offset="0.3897" stop-color="#BA8E58"/>
<stop offset="0.4221" stop-color="#B5874E"/>
<stop offset="0.4676" stop-color="#B38348"/>
<stop offset="0.5939" stop-color="#B28247"/>
<stop offset="0.6848" stop-color="#B38348"/>
<stop offset="0.7176" stop-color="#B5874E"/>
<stop offset="0.741" stop-color="#BA8E58"/>
<stop offset="0.7598" stop-color="#C09967"/>
<stop offset="0.776" stop-color="#C8A77C"/>
<stop offset="0.7901" stop-color="#D3B896"/>
<stop offset="0.7944" stop-color="#D6BEA0"/>
<stop offset="0.8553" stop-color="#D9C6AB"/>
<stop offset="0.8609" stop-color="#D4BB9B"/>
<stop offset="0.8727" stop-color="#C9A97F"/>
<stop offset="0.886" stop-color="#C09A69"/>
<stop offset="0.9012" stop-color="#BA8F59"/>
<stop offset="0.9195" stop-color="#B5874E"/>
<stop offset="0.944" stop-color="#B38349"/>
<stop offset="1" stop-color="#B28247"/>
</linearGradient>
<linearGradient id="paint2_linear_1896_144" x1="138.9" y1="114.113" x2="40.2917" y2="16.6785" gradientUnits="userSpaceOnUse">
<stop stop-color="#B28247"/>
<stop offset="0.1263" stop-color="#B38348"/>
<stop offset="0.1718" stop-color="#B5874E"/>
<stop offset="0.2042" stop-color="#BA8E58"/>
<stop offset="0.2304" stop-color="#C09966"/>
<stop offset="0.2529" stop-color="#C8A77B"/>
<stop offset="0.2728" stop-color="#D3B895"/>
<stop offset="0.2903" stop-color="#E0CEB6"/>
<stop offset="0.297" stop-color="#E5D7C4"/>
<stop offset="0.3036" stop-color="#E0CEB6"/>
<stop offset="0.3211" stop-color="#D3B895"/>
<stop offset="0.341" stop-color="#C8A77B"/>
<stop offset="0.3635" stop-color="#C09966"/>
<stop offset="0.3897" stop-color="#BA8E58"/>
<stop offset="0.4221" stop-color="#B5874E"/>
<stop offset="0.4676" stop-color="#B38348"/>
<stop offset="0.5939" stop-color="#B28247"/>
<stop offset="0.6848" stop-color="#B38348"/>
<stop offset="0.7176" stop-color="#B5874E"/>
<stop offset="0.741" stop-color="#BA8E58"/>
<stop offset="0.7598" stop-color="#C09967"/>
<stop offset="0.776" stop-color="#C8A77C"/>
<stop offset="0.7901" stop-color="#D3B896"/>
<stop offset="0.7944" stop-color="#D6BEA0"/>
<stop offset="0.8553" stop-color="#D9C6AB"/>
<stop offset="0.8609" stop-color="#D4BB9B"/>
<stop offset="0.8727" stop-color="#C9A97F"/>
<stop offset="0.886" stop-color="#C09A69"/>
<stop offset="0.9012" stop-color="#BA8F59"/>
<stop offset="0.9195" stop-color="#B5874E"/>
<stop offset="0.944" stop-color="#B38349"/>
<stop offset="1" stop-color="#B28247"/>
</linearGradient>
<linearGradient id="paint3_linear_1896_144" x1="125.645" y1="127.528" x2="27.037" y2="30.0929" gradientUnits="userSpaceOnUse">
<stop stop-color="#B28247"/>
<stop offset="0.1263" stop-color="#B38348"/>
<stop offset="0.1718" stop-color="#B5874E"/>
<stop offset="0.2042" stop-color="#BA8E58"/>
<stop offset="0.2304" stop-color="#C09966"/>
<stop offset="0.2529" stop-color="#C8A77B"/>
<stop offset="0.2728" stop-color="#D3B895"/>
<stop offset="0.2903" stop-color="#E0CEB6"/>
<stop offset="0.297" stop-color="#E5D7C4"/>
<stop offset="0.3036" stop-color="#E0CEB6"/>
<stop offset="0.3211" stop-color="#D3B895"/>
<stop offset="0.341" stop-color="#C8A77B"/>
<stop offset="0.3635" stop-color="#C09966"/>
<stop offset="0.3897" stop-color="#BA8E58"/>
<stop offset="0.4221" stop-color="#B5874E"/>
<stop offset="0.4676" stop-color="#B38348"/>
<stop offset="0.5939" stop-color="#B28247"/>
<stop offset="0.6848" stop-color="#B38348"/>
<stop offset="0.7176" stop-color="#B5874E"/>
<stop offset="0.741" stop-color="#BA8E58"/>
<stop offset="0.7598" stop-color="#C09967"/>
<stop offset="0.776" stop-color="#C8A77C"/>
<stop offset="0.7901" stop-color="#D3B896"/>
<stop offset="0.7944" stop-color="#D6BEA0"/>
<stop offset="0.8553" stop-color="#D9C6AB"/>
<stop offset="0.8609" stop-color="#D4BB9B"/>
<stop offset="0.8727" stop-color="#C9A97F"/>
<stop offset="0.886" stop-color="#C09A69"/>
<stop offset="0.9012" stop-color="#BA8F59"/>
<stop offset="0.9195" stop-color="#B5874E"/>
<stop offset="0.944" stop-color="#B38349"/>
<stop offset="1" stop-color="#B28247"/>
</linearGradient>
</defs>
</svg>
