<svg width="322" height="357" viewBox="0 0 322 357" fill="none" xmlns="http://www.w3.org/2000/svg">
<path d="M81.4874 0H14.8021V29.4122H81.4874V43.8043C81.4874 63.3776 81.4874 82.9508 81.4874 102.498V109.118C81.4874 133.088 72.3048 141.435 53.8872 141.435C42.3762 141.435 30.6297 134.815 20.95 122.254L0.596436 143.921C14.7497 164.201 36.3067 171.789 55.0121 171.789C100.742 171.789 116.622 144.732 116.622 112.023V46.6566V35.1429C116.622 15.7266 100.899 0 81.4874 0Z" fill="#AAA6A8"/>
<path d="M302.028 242.991C276.18 217.137 234.244 217.137 208.396 242.991C182.549 268.844 182.549 310.791 208.396 336.644C234.244 362.497 276.18 362.497 302.028 336.644C327.875 310.791 327.875 268.844 302.028 242.991ZM293.394 328.009C272.308 349.1 238.115 349.1 217.003 328.009L293.394 251.6C314.48 272.717 314.507 306.918 293.394 328.009Z" fill="#AAA6A8"/>
<path d="M173.785 216.039C182.549 216.039 191.47 219.911 199.501 227.317C207.35 220.304 216.192 215.07 225.532 211.512C211.379 192.802 190.711 185.71 172.66 185.71C126.93 185.71 111.05 212.768 111.05 245.477C111.154 261.439 111.233 277.427 111.337 293.39C111.337 317.359 102.155 325.706 83.7372 325.706C72.2262 325.706 60.4798 319.086 50.8001 306.526L30.4465 328.192C44.5998 348.472 66.1568 356.061 84.8622 356.061C130.592 356.061 146.472 329.003 146.472 296.294C146.368 280.332 146.289 264.344 146.184 248.381C146.184 224.386 155.367 216.039 173.785 216.039Z" fill="#AAA6A8"/>
<path d="M263.712 72.4314V91.3967H230.618V72.4314H211.012V39.3296H230.618V21.2681H263.712V39.3296H281.125V72.4314H263.712Z" fill="#3DCE94"/>
<path d="M174.099 82.1396C180.561 75.6763 189.037 72.4314 197.513 72.4314V39.3296C180.561 39.3296 163.634 45.793 150.684 58.7197C137.76 71.6465 131.299 88.603 131.299 105.533C131.299 122.49 137.76 139.42 150.684 152.373C163.601 165.293 180.543 171.756 197.487 171.763V171.789C213.928 171.789 230.345 165.71 243.133 153.551V171.765H263.722V105.535H243.133V105.559H230.607C230.607 114.038 227.363 122.516 220.901 128.979C214.446 135.436 205.98 138.681 197.513 138.687V138.661C189.037 138.661 180.561 135.417 174.099 128.953C167.637 122.49 164.393 114.011 164.393 105.533C164.393 97.0811 167.637 88.6028 174.099 82.1396Z" fill="#AAA6A8"/>
</svg>
