<svg width="1329" height="428" viewBox="0 0 1329 428" fill="none" xmlns="http://www.w3.org/2000/svg">
<g filter="url(#filter0_d_4574_2565)">
<g clip-path="url(#clip0_4574_2565)">
<rect x="20" y="16" width="1289" height="388" rx="50" fill="white"/>
<path d="M381.408 169.392H434.496V180.432H381.408V169.392ZM408 192.432H440.352V203.28H408V192.432ZM401.952 175.824H413.952V222.192L401.952 220.752V175.824ZM379.008 185.712L391.008 186.96C389.728 196.752 387.552 205.392 384.48 212.88C381.408 220.368 377.12 226.48 371.616 231.216C370.976 230.512 370.08 229.648 368.928 228.624C367.776 227.6 366.56 226.608 365.28 225.648C364.064 224.688 363.008 223.92 362.112 223.344C367.296 219.504 371.2 214.352 373.824 207.888C376.448 201.36 378.176 193.968 379.008 185.712ZM388.32 197.808C389.792 202.16 391.712 205.712 394.08 208.464C396.512 211.152 399.296 213.2 402.432 214.608C405.632 215.952 409.12 216.88 412.896 217.392C416.672 217.904 420.672 218.16 424.896 218.16C425.92 218.16 427.296 218.16 429.024 218.16C430.816 218.16 432.768 218.16 434.88 218.16C437.056 218.16 439.264 218.16 441.504 218.16C443.744 218.096 445.824 218.064 447.744 218.064C449.664 218 451.264 217.936 452.544 217.872C451.968 218.832 451.392 220.016 450.816 221.424C450.304 222.768 449.824 224.176 449.376 225.648C448.928 227.12 448.608 228.464 448.416 229.68H443.52H424.32C418.752 229.68 413.632 229.296 408.96 228.528C404.288 227.76 400.064 226.352 396.288 224.304C392.576 222.32 389.248 219.44 386.304 215.664C383.424 211.888 380.96 206.96 378.912 200.88L388.32 197.808ZM401.76 140.592H414.048V158.064H401.76V140.592ZM366.816 150.288H449.28V174.384H437.472V161.136H378.144V174.384H366.816V150.288ZM523.68 144.72H548.448V155.184H523.68V144.72ZM523.68 166.416H548.448V176.592H523.68V166.416ZM523.584 188.4H548.544V198.672H523.584V188.4ZM543.552 144.72H554.592V217.872C554.592 220.688 554.272 222.896 553.632 224.496C552.992 226.16 551.84 227.472 550.176 228.432C548.512 229.328 546.4 229.904 543.84 230.16C541.344 230.416 538.304 230.512 534.72 230.448C534.528 228.912 534.112 227.056 533.472 224.88C532.832 222.768 532.16 220.976 531.456 219.504C533.504 219.632 535.52 219.696 537.504 219.696C539.552 219.696 540.928 219.696 541.632 219.696C542.336 219.696 542.816 219.568 543.072 219.312C543.392 218.992 543.552 218.48 543.552 217.776V144.72ZM518.88 144.72H529.728V180.048C529.728 183.824 529.6 187.952 529.344 192.432C529.152 196.912 528.704 201.456 528 206.064C527.36 210.608 526.432 215.024 525.216 219.312C524 223.6 522.336 227.44 520.224 230.832C519.648 230.128 518.784 229.328 517.632 228.432C516.48 227.6 515.328 226.8 514.176 226.032C513.024 225.264 512 224.688 511.104 224.304C513.536 220.144 515.296 215.504 516.384 210.384C517.472 205.264 518.144 200.08 518.4 194.832C518.72 189.52 518.88 184.592 518.88 180.048V144.72ZM468.672 151.728H515.712V161.808H468.672V151.728ZM481.152 167.472H504.096V176.208H481.152V167.472ZM481.152 182.352H504.096V191.184H481.152V182.352ZM467.52 197.616H515.04V207.696H467.52V197.616ZM476.16 141.552H486.528V201.264H476.16V141.552ZM498.528 141.552H509.088V201.264H498.528V141.552ZM479.424 208.368L490.368 211.536C488.576 215.056 486.368 218.544 483.744 222C481.12 225.52 478.528 228.464 475.968 230.832C475.328 230.128 474.432 229.36 473.28 228.528C472.192 227.696 471.04 226.864 469.824 226.032C468.672 225.2 467.648 224.528 466.752 224.016C469.312 222.096 471.712 219.728 473.952 216.912C476.256 214.096 478.08 211.248 479.424 208.368ZM493.728 212.688L502.464 207.888C503.744 209.232 505.056 210.768 506.4 212.496C507.808 214.16 509.12 215.824 510.336 217.488C511.616 219.088 512.64 220.56 513.408 221.904L504.096 227.28C503.456 226 502.528 224.496 501.312 222.768C500.16 221.104 498.912 219.376 497.568 217.584C496.224 215.792 494.944 214.16 493.728 212.688ZM609.216 147.888H660.192V155.952H609.216V147.888ZM607.68 171.024H662.016V179.088H607.68V171.024ZM607.2 206.928H662.112V215.088H607.2V206.928ZM611.52 159.504H658.752V167.184H611.52V159.504ZM619.68 140.496H629.664V174.576H619.68V140.496ZM639.552 140.496H649.728V174.576H639.552V140.496ZM629.664 174.768H639.648V209.232H629.664V174.768ZM647.136 182.736H657.6V220.176C657.6 222.544 657.312 224.4 656.736 225.744C656.224 227.152 655.168 228.24 653.568 229.008C651.904 229.776 649.92 230.224 647.616 230.352C645.376 230.544 642.656 230.64 639.456 230.64C639.264 229.232 638.88 227.664 638.304 225.936C637.728 224.208 637.12 222.704 636.48 221.424C638.336 221.488 640.16 221.52 641.952 221.52C643.808 221.52 645.024 221.52 645.6 221.52C646.176 221.52 646.56 221.424 646.752 221.232C647.008 220.976 647.136 220.592 647.136 220.08V182.736ZM612.288 182.736H651.648V190.8H622.56V230.736H612.288V182.736ZM617.376 195.12H651.552V202.32H617.376V195.12ZM581.184 206.928L591.168 209.232C589.952 213.264 588.32 217.232 586.272 221.136C584.224 224.976 582.048 228.208 579.744 230.832C579.168 230.256 578.336 229.616 577.248 228.912C576.16 228.208 575.072 227.504 573.984 226.8C572.896 226.096 571.968 225.552 571.2 225.168C573.376 222.864 575.328 220.08 577.056 216.816C578.848 213.552 580.224 210.256 581.184 206.928ZM592.416 210.384L600.96 206.736C602.56 209.168 604.128 211.856 605.664 214.8C607.264 217.68 608.48 220.208 609.312 222.384L600.384 226.608C599.936 225.136 599.264 223.472 598.368 221.616C597.536 219.696 596.608 217.776 595.584 215.856C594.56 213.872 593.504 212.048 592.416 210.384ZM586.368 170.544V179.568H595.872V170.544H586.368ZM586.368 188.016V197.04H595.872V188.016H586.368ZM586.368 153.168V162H595.872V153.168H586.368ZM576.576 144.048H605.952V206.256H576.576V144.048Z" fill="#3DCE94"/>
<path d="M737.376 188.536L740.784 193.384C738.704 194.024 736.432 194.6 733.968 195.112C731.536 195.624 729.04 196.072 726.48 196.456C723.92 196.808 721.456 197.112 719.088 197.368C718.992 196.664 718.784 195.864 718.464 194.968C718.144 194.072 717.824 193.304 717.504 192.664C719.232 192.44 720.992 192.184 722.784 191.896C724.608 191.608 726.384 191.288 728.112 190.936C729.872 190.584 731.536 190.2 733.104 189.784C734.672 189.368 736.096 188.952 737.376 188.536ZM720.384 204.28H742.464V209.752H720.384V204.28ZM729.744 207.208H735.456V233.128H729.744V207.208ZM697.248 212.728C698.784 212.408 700.528 212.024 702.48 211.576C704.464 211.096 706.528 210.584 708.672 210.04C710.848 209.464 713.008 208.904 715.152 208.36L715.824 213.64C712.88 214.472 709.888 215.288 706.848 216.088C703.84 216.888 701.104 217.608 698.64 218.248L697.248 212.728ZM698.064 197.272H715.488V202.6H698.064V197.272ZM703.92 188.2H709.584V227.032C709.584 228.408 709.424 229.48 709.104 230.248C708.816 231.048 708.272 231.672 707.472 232.12C706.672 232.536 705.664 232.808 704.448 232.936C703.264 233.064 701.824 233.128 700.128 233.128C700.064 232.392 699.872 231.512 699.552 230.488C699.232 229.464 698.896 228.584 698.544 227.848C699.472 227.88 700.368 227.912 701.232 227.944C702.096 227.944 702.688 227.944 703.008 227.944C703.36 227.912 703.6 227.832 703.728 227.704C703.856 227.576 703.92 227.352 703.92 227.032V188.2ZM717.504 192.664H723.168V207.16C723.168 210.104 723.024 213.08 722.736 216.088C722.448 219.096 721.872 222.056 721.008 224.968C720.176 227.88 718.896 230.696 717.168 233.416C716.624 232.776 715.904 232.104 715.008 231.4C714.112 230.728 713.28 230.152 712.512 229.672C713.984 227.24 715.072 224.744 715.776 222.184C716.48 219.624 716.944 217.08 717.168 214.552C717.392 211.992 717.504 209.512 717.504 207.112V192.664ZM764.688 192.184H788.16V231.496H782.112V197.608H770.448V231.88H764.688V192.184ZM768.048 222.376H785.28V227.8H768.048V222.376ZM745.152 213.64C746.656 213.32 748.352 212.936 750.24 212.488C752.16 212.008 754.176 211.512 756.288 211C758.4 210.456 760.496 209.912 762.576 209.368L763.248 214.648C760.368 215.48 757.424 216.296 754.416 217.096C751.44 217.864 748.736 218.568 746.304 219.208L745.152 213.64ZM745.776 196.36H762.48V201.688H745.776V196.36ZM751.824 188.2H757.728V226.936C757.728 228.376 757.568 229.496 757.248 230.296C756.96 231.096 756.384 231.72 755.52 232.168C754.688 232.616 753.664 232.904 752.448 233.032C751.264 233.192 749.824 233.256 748.128 233.224C748.032 232.456 747.808 231.544 747.456 230.488C747.136 229.432 746.8 228.52 746.448 227.752C747.344 227.784 748.224 227.816 749.088 227.848C749.984 227.848 750.592 227.848 750.912 227.848C751.264 227.848 751.504 227.784 751.632 227.656C751.76 227.496 751.824 227.256 751.824 226.936V188.2Z" fill="#3DCE94"/>
<path d="M808.379 229V218.12C816.998 210.44 824.336 203.315 830.395 196.744C836.539 190.173 841.232 184.072 844.475 178.44C847.718 172.723 849.339 167.432 849.339 162.568C849.339 159.496 848.784 156.808 847.675 154.504C846.566 152.2 844.944 150.451 842.811 149.256C840.763 147.976 838.203 147.336 835.131 147.336C831.718 147.336 828.56 148.317 825.659 150.28C822.843 152.157 820.24 154.419 817.851 157.064L807.355 146.952C811.792 142.173 816.315 138.589 820.923 136.2C825.616 133.725 831.163 132.488 837.563 132.488C843.536 132.488 848.742 133.725 853.179 136.2C857.702 138.589 861.2 141.96 863.675 146.312C866.15 150.664 867.387 155.784 867.387 161.672C867.387 167.389 865.936 173.235 863.035 179.208C860.219 185.096 856.422 190.984 851.643 196.872C846.864 202.76 841.574 208.563 835.771 214.28C838.246 213.939 840.891 213.683 843.707 213.512C846.608 213.256 849.168 213.128 851.387 213.128H871.867V229H808.379ZM916.135 230.792C909.735 230.792 904.103 228.957 899.239 225.288C894.46 221.533 890.706 215.987 887.975 208.648C885.33 201.224 884.007 192.051 884.007 181.128C884.007 170.291 885.33 161.288 887.975 154.12C890.706 146.867 894.46 141.448 899.239 137.864C904.103 134.28 909.735 132.488 916.135 132.488C922.62 132.488 928.252 134.323 933.031 137.992C937.81 141.576 941.522 146.952 944.167 154.12C946.898 161.288 948.263 170.291 948.263 181.128C948.263 192.051 946.898 201.224 944.167 208.648C941.522 215.987 937.81 221.533 933.031 225.288C928.252 228.957 922.62 230.792 916.135 230.792ZM916.135 216.072C918.951 216.072 921.426 215.005 923.559 212.872C925.692 210.739 927.356 207.155 928.551 202.12C929.746 197 930.343 190.003 930.343 181.128C930.343 172.339 929.746 165.469 928.551 160.52C927.356 155.485 925.692 151.987 923.559 150.024C921.426 147.976 918.951 146.952 916.135 146.952C913.49 146.952 911.058 147.976 908.839 150.024C906.706 151.987 904.999 155.485 903.719 160.52C902.439 165.469 901.799 172.339 901.799 181.128C901.799 190.003 902.439 197 903.719 202.12C904.999 207.155 906.706 210.739 908.839 212.872C911.058 215.005 913.49 216.072 916.135 216.072ZM967.443 210.76C965.224 210.76 963.24 210.163 961.491 208.968C959.742 207.773 958.376 206.045 957.395 203.784C956.414 201.523 955.923 198.813 955.923 195.656C955.923 192.499 956.414 189.811 957.395 187.592C958.376 185.373 959.742 183.688 961.491 182.536C963.24 181.341 965.224 180.744 967.443 180.744C969.747 180.744 971.752 181.341 973.459 182.536C975.208 183.688 976.574 185.373 977.555 187.592C978.536 189.811 979.027 192.499 979.027 195.656C979.027 198.813 978.536 201.523 977.555 203.784C976.574 206.045 975.208 207.773 973.459 208.968C971.752 210.163 969.747 210.76 967.443 210.76ZM967.443 205.448C968.808 205.448 969.96 204.701 970.899 203.208C971.88 201.672 972.371 199.155 972.371 195.656C972.371 192.2 971.88 189.747 970.899 188.296C969.96 186.803 968.808 186.056 967.443 186.056C966.078 186.056 964.904 186.803 963.923 188.296C962.984 189.747 962.515 192.2 962.515 195.656C962.515 199.155 962.984 201.672 963.923 203.208C964.904 204.701 966.078 205.448 967.443 205.448ZM968.979 229.896L994.771 180.744H1000.34L974.611 229.896H968.979ZM1001.94 229.896C999.678 229.896 997.672 229.299 995.923 228.104C994.216 226.909 992.851 225.181 991.827 222.92C990.846 220.659 990.355 217.949 990.355 214.792C990.355 211.592 990.846 208.883 991.827 206.664C992.851 204.445 994.216 202.76 995.923 201.608C997.672 200.413 999.678 199.816 1001.94 199.816C1004.16 199.816 1006.12 200.413 1007.83 201.608C1009.58 202.76 1010.94 204.445 1011.92 206.664C1012.95 208.883 1013.46 211.592 1013.46 214.792C1013.46 217.949 1012.95 220.659 1011.92 222.92C1010.94 225.181 1009.58 226.909 1007.83 228.104C1006.12 229.299 1004.16 229.896 1001.94 229.896ZM1001.94 224.52C1003.3 224.52 1004.46 223.773 1005.4 222.28C1006.33 220.744 1006.8 218.248 1006.8 214.792C1006.8 211.251 1006.33 208.776 1005.4 207.368C1004.46 205.917 1003.3 205.192 1001.94 205.192C1000.53 205.192 999.358 205.917 998.419 207.368C997.48 208.776 997.011 211.251 997.011 214.792C997.011 218.248 997.48 220.744 998.419 222.28C999.358 223.773 1000.53 224.52 1001.94 224.52Z" fill="#FF9807"/>
<path d="M339.148 349.212C340.71 315.849 313.643 297.19 312.279 296.291C333.119 283.543 341.784 258.097 333.527 236.868C326.421 218.579 307.883 206.333 287.201 206.566C279.169 177.09 264.32 154.59 248.654 154.084C227.594 153.395 210.022 192.566 204.337 220.635C200.13 241.407 202.369 255.695 206.071 268.264C206.015 268.24 205.957 268.224 205.901 268.2C205.999 268.432 206.241 268.997 206.54 269.817C206.764 270.547 206.989 271.277 207.224 272C208.423 276.365 209.385 283.632 205.269 289.763C204.253 291.27 203.084 292.486 201.905 293.468C201.036 294.192 199.719 293.887 199.254 292.852C196.501 286.663 193.739 280.471 190.983 274.289C188.719 269.204 182.311 267.579 177.891 270.968C172.99 274.728 168.078 278.495 163.176 282.255C161.263 283.72 158.494 282.51 158.269 280.11C158.086 278.186 158.119 275.953 158.606 273.519C159.423 269.441 161.253 266.212 163.173 263.784C174.669 253.614 186.162 242.184 194.199 217.929C203.211 190.745 207.421 148.029 188.804 138.156C174.94 130.806 150.877 142.947 129.268 164.548C111.425 154.076 89.2626 155.487 74.0089 167.828C56.2955 182.15 51.1714 208.546 62.9256 229.955C61.2929 230.066 28.5434 232.805 13.3143 262.533C3.47225 281.753 4.71821 304.896 16.5635 323.016C-11.4391 341.361 -22.5187 374.944 -11.7858 401.432C-0.127972 430.202 31.8684 437.293 34.6557 437.865C46.3837 460.009 65.2435 473.859 83.3926 472.398C105.776 470.591 118.811 446.165 123.417 437.521C130.893 423.513 133.199 411.059 133.085 399.23C133.071 398.012 133.253 396.792 133.769 395.688C134.275 394.59 134.853 393.993 135.499 393.906C137.182 393.675 139.327 396.862 141.945 403.462C144.245 409.281 151.477 411.223 156.481 407.481C162.499 402.972 166.221 401.301 167.65 402.458C168.25 402.948 168.437 403.954 168.213 405.466C168.024 406.746 167.525 407.953 166.887 409.079C161.141 419.126 157.142 430.879 156.683 446.369C156.394 456.162 155.57 483.836 174.089 496.523C189.114 506.808 212.363 504.158 233.543 490.768C236.237 491.654 267.537 501.4 291.948 482.224C314.422 464.569 321.492 429.92 306.305 400.086C325.561 390.247 338.14 370.782 339.148 349.212Z" fill="url(#paint0_radial_4574_2565)"/>
<path d="M67.3062 420.461C57.851 415.221 56.2588 405.268 44.1803 402.055C43.4899 401.871 42.795 401.705 42.0935 401.563C42.0935 401.563 41.8772 401.505 41.6277 401.439C40.0804 401.027 26.3921 397.136 22.4651 387.455C18.679 378.114 22.9866 363.058 36.7622 354.031C44.9824 348.643 50.7361 340.206 52.7453 330.577C54.7628 320.949 52.8711 310.916 47.4972 302.69C42.9329 295.706 42.4354 286.794 46.2008 279.435C51.6096 268.879 64.4831 267.06 65.8074 266.904C78.2211 265.91 89.3346 258.719 95.3346 247.749C101.418 236.631 101.418 223.171 95.3205 212.072C92.0555 206.131 93.7534 199.446 97.203 196.657C99.6205 194.701 103.391 194.087 107.035 195.057C108.257 195.382 109.444 195.876 110.562 196.531C113.498 198.249 116.587 199.527 119.749 200.368C129.14 202.866 147.154 185.909 155.353 190.778C160.429 193.799 159.338 204.262 159.12 206.285C158.824 209.073 157.502 213.741 151.325 222.664C147.232 228.578 142.309 232.886 135.921 238.484C123.59 249.28 106.705 264.072 96.0064 293.041C83.3281 327.377 88.8545 355.758 92.8906 376.481C95.599 390.376 97.1147 399.21 95.3834 407.896C94.1164 414.266 93.4546 417.725 90.8324 420.082C85.3191 425.038 74.6724 424.546 67.3062 420.461Z" fill="url(#paint1_radial_4574_2565)"/>
<path d="M193.606 447.429C192.511 443.976 193.689 440.618 195.711 434.591C198.526 426.185 204.239 419.273 213.485 408.559C227.283 392.58 246.188 370.697 252.237 334.597C257.345 304.142 250.04 282.916 244.703 267.42C241.934 259.377 239.803 253.192 239.194 246.037C238.267 235.224 239.431 230.515 240.567 227.95C241.392 226.088 245.636 216.463 251.541 216.364C261.076 216.212 268.284 239.877 277.676 242.376C280.845 243.219 284.161 243.645 287.555 243.61C288.85 243.597 290.125 243.758 291.348 244.083C294.992 245.052 297.959 247.458 299.083 250.365C300.685 254.489 298.837 261.134 293.05 264.676C282.252 271.281 275.556 282.959 275.312 295.631C275.068 308.133 281.141 319.894 291.42 326.925C292.492 327.719 302.769 335.695 302.209 347.541C301.821 355.798 296.962 363.285 289.528 367.087C280.778 371.556 274.151 379.323 271.119 388.681C268.086 398.038 268.879 408.217 273.337 416.976C280.809 431.647 277.067 446.853 269.14 453.078C260.92 459.537 247.107 456.113 245.56 455.702C245.311 455.635 245.119 455.584 244.997 455.543C244.317 455.318 243.631 455.117 242.941 454.934C240.221 454.21 237.46 453.806 234.694 453.722C228.228 453.521 221.731 459.027 213.824 459.452C205.479 459.885 195.907 454.65 193.606 447.429Z" fill="url(#paint2_radial_4574_2565)"/>
<path d="M165.109 346.549C158.778 344.865 156.341 337.688 156.056 336.782C155.575 335.243 156.43 333.603 157.968 333.11C159.513 332.628 161.147 333.483 161.628 335.022C161.708 335.257 163.511 340.971 167.738 341.05C170.41 341.118 173.203 338.958 174.93 336.917C175.971 335.684 177.805 335.52 179.041 336.563C180.27 337.605 180.421 339.449 179.388 340.684C177.776 342.595 173.398 347.03 167.599 346.899C166.705 346.876 165.874 346.753 165.109 346.549Z" fill="#DCE7EA"/>
<path d="M134.124 337.03C140.113 338.623 146.259 335.042 147.854 329.045L126.176 323.278C124.58 329.276 128.134 335.437 134.124 337.03Z" fill="#DCE7EA"/>
<path d="M197.552 353.902C203.542 355.495 209.687 351.914 211.283 345.916L189.604 340.15C188.009 346.147 191.563 352.309 197.552 353.902Z" fill="#DCE7EA"/>
<path d="M1247.69 448.734C1229.12 451.87 1214.28 450.391 1200.98 444.073C1148.13 418.967 1129.64 370.033 1152.74 316.372C1159.09 301.633 1161.43 294.727 1173.31 269.736C1179.65 256.406 1187.88 238.433 1197.02 216.449C1200.78 207.395 1212.75 205.373 1219.28 212.689C1235.12 230.455 1248.8 244.729 1259.17 255.238C1278.59 274.933 1283.07 280.689 1293.91 292.534C1333.35 335.632 1331.96 387.916 1290.28 428.994C1279.79 439.328 1266.26 445.597 1247.69 448.734Z" fill="url(#paint3_radial_4574_2565)"/>
<path d="M1307.62 280.061C1278.05 247.758 1248.93 218.069 1219.12 184.373C1209.68 173.699 1193.28 176.469 1187.86 189.651C1170.78 231.265 1153.02 268.873 1135.69 309.094C1108.24 372.84 1131.78 431.705 1192.99 460.777C1211.39 469.513 1230.87 470.337 1250.78 466.974C1270.69 463.612 1288.81 456.44 1303.33 442.145C1351.59 394.589 1354.48 331.259 1307.62 280.061Z" stroke="url(#paint4_linear_4574_2565)" stroke-width="5" stroke-miterlimit="10"/>
<path d="M1199.13 327.301C1193.98 328.171 1190.51 333.039 1191.37 338.174C1192.24 343.31 1197.12 346.767 1202.27 345.897C1207.43 345.027 1210.9 340.159 1210.03 335.024C1209.16 329.89 1204.28 326.432 1199.13 327.301ZM1193.09 337.875C1192.39 333.688 1195.22 329.716 1199.42 329.007C1203.62 328.297 1207.6 331.118 1208.31 335.306L1193.09 337.875Z" fill="white"/>
<path d="M1253.68 318.09C1248.53 318.96 1245.05 323.828 1245.92 328.963C1246.79 334.099 1251.67 337.556 1256.82 336.686C1261.97 335.816 1265.45 330.948 1264.58 325.813C1263.71 320.677 1258.83 317.22 1253.68 318.09ZM1247.65 328.663C1246.94 324.475 1249.78 320.504 1253.98 319.795C1258.18 319.085 1262.16 321.906 1262.86 326.094L1247.65 328.663Z" fill="white"/>
<path d="M1224.66 339.277C1224.12 336.689 1225.87 331.231 1228.69 332.237C1230.84 333.001 1233.65 337.513 1233.86 339.919C1234.24 344.45 1225.58 343.734 1224.66 339.277Z" fill="white"/>
<rect x="519" y="272" width="308" height="66" rx="33" fill="#3DCE94"/>
<path d="M628.72 316.12H636.67V318.85H628.72V316.12ZM612.01 299.23H623.29V301.99H612.01V299.23ZM627.43 297.28H637.99V320.77H635.14V300.01H630.16V321.01H627.43V297.28ZM622.57 299.23H625.33C625.33 299.23 625.33 299.32 625.33 299.5C625.33 299.66 625.33 299.85 625.33 300.07C625.33 300.29 625.32 300.47 625.3 300.61C625.24 303.89 625.18 306.66 625.12 308.92C625.06 311.18 624.98 313.04 624.88 314.5C624.78 315.94 624.65 317.06 624.49 317.86C624.35 318.64 624.16 319.2 623.92 319.54C623.62 319.98 623.3 320.29 622.96 320.47C622.64 320.67 622.24 320.81 621.76 320.89C621.34 320.95 620.81 320.98 620.17 320.98C619.53 321 618.87 320.99 618.19 320.95C618.17 320.53 618.08 320.05 617.92 319.51C617.78 318.97 617.59 318.5 617.35 318.1C618.01 318.14 618.62 318.17 619.18 318.19C619.74 318.21 620.16 318.22 620.44 318.22C620.66 318.22 620.85 318.19 621.01 318.13C621.17 318.05 621.31 317.91 621.43 317.71C621.61 317.47 621.75 317 621.85 316.3C621.97 315.58 622.07 314.53 622.15 313.15C622.25 311.77 622.33 310 622.39 307.84C622.45 305.66 622.51 303 622.57 299.86V299.23ZM615.97 294.1H618.76C618.74 296.94 618.69 299.7 618.61 302.38C618.53 305.04 618.32 307.55 617.98 309.91C617.66 312.27 617.13 314.43 616.39 316.39C615.65 318.35 614.63 320.07 613.33 321.55C613.17 321.31 612.97 321.06 612.73 320.8C612.49 320.56 612.23 320.32 611.95 320.08C611.69 319.84 611.44 319.65 611.2 319.51C612.16 318.47 612.94 317.27 613.54 315.91C614.16 314.53 614.63 313.03 614.95 311.41C615.29 309.77 615.53 308.02 615.67 306.16C615.81 304.3 615.89 302.36 615.91 300.34C615.95 298.3 615.97 296.22 615.97 294.1ZM649.99 295.42H658.51V298.3H649.99V295.42ZM657.1 295.42H660.01C660.01 296.34 660.04 297.41 660.1 298.63C660.18 299.83 660.35 301.12 660.61 302.5C660.87 303.86 661.27 305.27 661.81 306.73C662.35 308.19 663.06 309.64 663.94 311.08C664.84 312.52 665.97 313.92 667.33 315.28C668.69 316.62 670.33 317.86 672.25 319C672.05 319.16 671.8 319.38 671.5 319.66C671.2 319.96 670.91 320.27 670.63 320.59C670.35 320.91 670.13 321.19 669.97 321.43C668.01 320.23 666.33 318.91 664.93 317.47C663.53 316.01 662.35 314.47 661.39 312.85C660.45 311.23 659.69 309.6 659.11 307.96C658.53 306.32 658.09 304.73 657.79 303.19C657.51 301.65 657.32 300.22 657.22 298.9C657.14 297.56 657.1 296.4 657.1 295.42ZM656.05 301.63L659.26 302.2C658.56 305.22 657.64 307.95 656.5 310.39C655.36 312.81 653.98 314.94 652.36 316.78C650.76 318.62 648.87 320.19 646.69 321.49C646.53 321.27 646.29 321.02 645.97 320.74C645.65 320.46 645.32 320.17 644.98 319.87C644.66 319.57 644.37 319.34 644.11 319.18C647.37 317.5 649.95 315.19 651.85 312.25C653.77 309.29 655.17 305.75 656.05 301.63ZM682.99 304.15V308.35H698.59V304.15H682.99ZM680.59 302.32H701.11V310.18H680.59V302.32ZM685.6 299.08H696.16V301H685.6V299.08ZM689.56 302.95H691.9V309.25H689.56V302.95ZM684.49 304.96L686.47 304.33C686.81 304.85 687.12 305.42 687.4 306.04C687.7 306.66 687.9 307.2 688 307.66L685.9 308.38C685.8 307.9 685.62 307.34 685.36 306.7C685.1 306.06 684.81 305.48 684.49 304.96ZM694.9 304.21L697.3 304.87C696.96 305.51 696.62 306.15 696.28 306.79C695.96 307.41 695.66 307.94 695.38 308.38L693.43 307.75C693.67 307.27 693.94 306.69 694.24 306.01C694.54 305.33 694.76 304.73 694.9 304.21ZM682.33 311.41H699.64V321.4H696.73V313.33H685.12V321.52H682.33V311.41ZM683.95 315.01H697.93V316.93H683.95V315.01ZM683.95 318.64H697.96V320.59H683.95V318.64ZM690.46 293.5L692.98 294.4C691.9 295.8 690.58 297.06 689.02 298.18C687.46 299.3 685.77 300.29 683.95 301.15C682.13 301.99 680.27 302.7 678.37 303.28C678.27 303.1 678.13 302.87 677.95 302.59C677.77 302.31 677.58 302.03 677.38 301.75C677.18 301.47 676.99 301.25 676.81 301.09C678.65 300.61 680.44 300.01 682.18 299.29C683.92 298.55 685.5 297.7 686.92 296.74C688.36 295.76 689.54 294.68 690.46 293.5ZM692.23 294.67C692.91 295.35 693.73 296.01 694.69 296.65C695.67 297.27 696.73 297.85 697.87 298.39C699.03 298.93 700.23 299.41 701.47 299.83C702.73 300.25 703.97 300.6 705.19 300.88C704.89 301.12 704.56 301.46 704.2 301.9C703.86 302.34 703.59 302.73 703.39 303.07C702.17 302.73 700.93 302.31 699.67 301.81C698.41 301.29 697.19 300.71 696.01 300.07C694.85 299.41 693.76 298.7 692.74 297.94C691.74 297.18 690.85 296.39 690.07 295.57L692.23 294.67ZM716.95 296.98V299.59H730.3V296.98H716.95ZM714.1 294.73H733.3V301.84H714.1V294.73ZM715.6 308.98V310.72H731.5V308.98H715.6ZM715.6 312.61V314.41H731.5V312.61H715.6ZM715.6 305.35V307.06H731.5V305.35H715.6ZM712.78 303.31H734.44V316.42H712.78V303.31ZM718.54 316.12L721.12 317.86C720.32 318.34 719.38 318.81 718.3 319.27C717.24 319.75 716.14 320.18 715 320.56C713.86 320.96 712.77 321.29 711.73 321.55C711.49 321.25 711.16 320.9 710.74 320.5C710.32 320.1 709.94 319.76 709.6 319.48C710.66 319.24 711.76 318.94 712.9 318.58C714.04 318.2 715.11 317.8 716.11 317.38C717.11 316.94 717.92 316.52 718.54 316.12ZM725.53 318.07L728.02 316.24C729.08 316.52 730.19 316.86 731.35 317.26C732.53 317.66 733.66 318.06 734.74 318.46C735.84 318.86 736.79 319.23 737.59 319.57L735.1 321.58C734.34 321.22 733.41 320.83 732.31 320.41C731.23 319.99 730.09 319.57 728.89 319.15C727.71 318.73 726.59 318.37 725.53 318.07Z" fill="white"/>
</g>
</g>
<defs>
<filter id="filter0_d_4574_2565" x="0.6" y="0.6" width="1327.8" height="426.8" filterUnits="userSpaceOnUse" color-interpolation-filters="sRGB">
<feFlood flood-opacity="0" result="BackgroundImageFix"/>
<feColorMatrix in="SourceAlpha" type="matrix" values="0 0 0 0 0 0 0 0 0 0 0 0 0 0 0 0 0 0 127 0" result="hardAlpha"/>
<feOffset dy="4"/>
<feGaussianBlur stdDeviation="9.7"/>
<feComposite in2="hardAlpha" operator="out"/>
<feColorMatrix type="matrix" values="0 0 0 0 0 0 0 0 0 0 0 0 0 0 0 0 0 0 0.25 0"/>
<feBlend mode="normal" in2="BackgroundImageFix" result="effect1_dropShadow_4574_2565"/>
<feBlend mode="normal" in="SourceGraphic" in2="effect1_dropShadow_4574_2565" result="shape"/>
</filter>
<radialGradient id="paint0_radial_4574_2565" cx="0" cy="0" r="1" gradientUnits="userSpaceOnUse" gradientTransform="translate(173.533 316.017) rotate(14.8955) scale(172.88 307.22)">
<stop stop-color="#A26336"/>
<stop offset="0.4822" stop-color="#B77340"/>
<stop offset="0.6354" stop-color="#AF6E3E"/>
<stop offset="0.876" stop-color="#985F3A"/>
<stop offset="1" stop-color="#8A5637"/>
</radialGradient>
<radialGradient id="paint1_radial_4574_2565" cx="0" cy="0" r="1" gradientUnits="userSpaceOnUse" gradientTransform="translate(87.4049 299.52) rotate(14.8955) scale(92.3674 92.6212)">
<stop stop-color="#C9B57F"/>
<stop offset="0.4268" stop-color="#CAB077"/>
<stop offset="1" stop-color="#CDA464"/>
</radialGradient>
<radialGradient id="paint2_radial_4574_2565" cx="0" cy="0" r="1" gradientUnits="userSpaceOnUse" gradientTransform="translate(256.442 344.613) rotate(14.8955) scale(92.4502 92.7044)">
<stop stop-color="#C9B57F"/>
<stop offset="0.4268" stop-color="#CAB077"/>
<stop offset="1" stop-color="#CDA464"/>
</radialGradient>
<radialGradient id="paint3_radial_4574_2565" cx="0" cy="0" r="1" gradientUnits="userSpaceOnUse" gradientTransform="translate(1227.4 328.586) rotate(-9.58479) scale(107.277 142.371)">
<stop stop-color="#605E5D"/>
<stop offset="0.346" stop-color="#706C69"/>
<stop offset="1" stop-color="#998E87"/>
</radialGradient>
<linearGradient id="paint4_linear_4574_2565" x1="1117.32" y1="340.939" x2="1335.43" y2="304.108" gradientUnits="userSpaceOnUse">
<stop stop-color="#9EA1A2"/>
<stop offset="0.3097" stop-color="#8E9497"/>
<stop offset="0.9148" stop-color="#63727C"/>
<stop offset="1" stop-color="#5D6D78"/>
</linearGradient>
<clipPath id="clip0_4574_2565">
<rect x="20" y="16" width="1289" height="388" rx="50" fill="white"/>
</clipPath>
</defs>
</svg>
