<svg width="569" height="430" viewBox="0 0 569 430" fill="none" xmlns="http://www.w3.org/2000/svg">
<rect width="569" height="430" fill="white"/>
<path d="M235.064 328.988H239.756V329.852H235.064V328.988ZM237.452 329.564H238.352V335.924H237.452V329.564ZM229.436 326.108H230.324V330.308C230.324 330.732 230.312 331.192 230.288 331.688C230.264 332.184 230.22 332.688 230.156 333.2C230.092 333.704 229.992 334.196 229.856 334.676C229.728 335.148 229.556 335.584 229.34 335.984C229.292 335.92 229.22 335.852 229.124 335.78C229.036 335.708 228.944 335.636 228.848 335.564C228.752 335.492 228.672 335.44 228.608 335.408C228.864 334.92 229.052 334.38 229.172 333.788C229.292 333.196 229.364 332.6 229.388 332C229.42 331.392 229.436 330.828 229.436 330.308V326.108ZM238.916 325.064L239.528 325.832C239.136 325.992 238.68 326.14 238.16 326.276C237.64 326.412 237.104 326.532 236.552 326.636C236 326.732 235.464 326.816 234.944 326.888C234.928 326.784 234.892 326.656 234.836 326.504C234.78 326.352 234.724 326.228 234.668 326.132C235.172 326.052 235.688 325.96 236.216 325.856C236.744 325.752 237.244 325.632 237.716 325.496C238.196 325.36 238.596 325.216 238.916 325.064ZM229.94 327.932H233.576V331.484H229.94V330.668H232.7V328.748H229.94V327.932ZM233.552 325.172L234.128 325.928C233.752 326.088 233.312 326.228 232.808 326.348C232.312 326.468 231.792 326.568 231.248 326.648C230.712 326.728 230.196 326.796 229.7 326.852C229.684 326.74 229.648 326.616 229.592 326.48C229.544 326.336 229.492 326.212 229.436 326.108C229.916 326.044 230.412 325.968 230.924 325.88C231.444 325.792 231.932 325.688 232.388 325.568C232.852 325.44 233.24 325.308 233.552 325.172ZM234.668 326.132H235.592V330.128C235.592 330.584 235.568 331.072 235.52 331.592C235.48 332.104 235.4 332.624 235.28 333.152C235.16 333.672 234.98 334.176 234.74 334.664C234.508 335.152 234.196 335.592 233.804 335.984C233.764 335.928 233.7 335.86 233.612 335.78C233.524 335.7 233.432 335.62 233.336 335.54C233.248 335.468 233.172 335.416 233.108 335.384C233.46 335.016 233.74 334.616 233.948 334.184C234.164 333.744 234.32 333.292 234.416 332.828C234.52 332.364 234.588 331.904 234.62 331.448C234.652 330.984 234.668 330.544 234.668 330.128V326.132ZM242.096 326.48H252.608V327.32H242.096V326.48ZM244.94 330.764H250.652V331.532H244.94V330.764ZM250.316 328.712H251.204V334.832C251.204 335.096 251.168 335.3 251.096 335.444C251.024 335.596 250.888 335.712 250.688 335.792C250.488 335.856 250.216 335.892 249.872 335.9C249.536 335.916 249.112 335.924 248.6 335.924C248.576 335.804 248.536 335.66 248.48 335.492C248.424 335.324 248.364 335.18 248.3 335.06C248.564 335.068 248.812 335.072 249.044 335.072C249.284 335.08 249.492 335.08 249.668 335.072C249.844 335.072 249.972 335.072 250.052 335.072C250.156 335.072 250.224 335.052 250.256 335.012C250.296 334.98 250.316 334.916 250.316 334.82V328.712ZM246.032 324.92L246.944 325.136C246.672 326 246.328 326.856 245.912 327.704C245.504 328.544 245.012 329.332 244.436 330.068C243.86 330.796 243.196 331.428 242.444 331.964C242.404 331.892 242.348 331.816 242.276 331.736C242.204 331.648 242.132 331.564 242.06 331.484C241.988 331.404 241.92 331.332 241.856 331.268C242.392 330.908 242.88 330.488 243.32 330.008C243.76 329.52 244.152 328.996 244.496 328.436C244.84 327.876 245.14 327.3 245.396 326.708C245.652 326.108 245.864 325.512 246.032 324.92ZM244.856 332.792H250.64V333.572H244.856V332.792ZM244.868 328.712H250.58V329.528H244.868V328.712ZM244.388 328.712H245.288V331.904C245.288 332.232 245.272 332.58 245.24 332.948C245.208 333.316 245.14 333.684 245.036 334.052C244.94 334.42 244.8 334.768 244.616 335.096C244.44 335.432 244.204 335.74 243.908 336.02C243.876 335.956 243.82 335.876 243.74 335.78C243.66 335.692 243.576 335.604 243.488 335.516C243.408 335.428 243.336 335.364 243.272 335.324C243.616 334.996 243.864 334.64 244.016 334.256C244.176 333.872 244.276 333.476 244.316 333.068C244.364 332.66 244.388 332.268 244.388 331.892V328.712ZM255.2 325.556H265.64V326.372H255.2V325.556ZM260.024 325.904H260.96V330.56C260.96 331.024 260.924 331.476 260.852 331.916C260.78 332.348 260.64 332.764 260.432 333.164C260.224 333.564 259.92 333.94 259.52 334.292C259.12 334.644 258.592 334.96 257.936 335.24C257.288 335.52 256.484 335.764 255.524 335.972C255.492 335.9 255.444 335.816 255.38 335.72C255.316 335.624 255.248 335.524 255.176 335.42C255.112 335.324 255.048 335.244 254.984 335.18C255.92 335.004 256.696 334.796 257.312 334.556C257.928 334.316 258.416 334.048 258.776 333.752C259.144 333.448 259.416 333.128 259.592 332.792C259.768 332.448 259.884 332.088 259.94 331.712C259.996 331.336 260.024 330.948 260.024 330.548V325.904ZM257.156 330.068V331.292H263.996V330.068H257.156ZM257.156 328.148V329.348H263.996V328.148H257.156ZM256.292 327.392H264.896V332.036H256.292V327.392ZM257.444 332.144C257.828 332.736 258.288 333.216 258.824 333.584C259.36 333.952 259.98 334.236 260.684 334.436C261.396 334.636 262.196 334.78 263.084 334.868C263.972 334.948 264.96 335.004 266.048 335.036C265.968 335.14 265.888 335.276 265.808 335.444C265.736 335.612 265.688 335.772 265.664 335.924C264.552 335.876 263.536 335.792 262.616 335.672C261.696 335.56 260.864 335.38 260.12 335.132C259.376 334.892 258.716 334.556 258.14 334.124C257.564 333.692 257.076 333.136 256.676 332.456L257.444 332.144ZM268.328 332.756H273.8V333.452H268.328V332.756ZM268.004 326.972H274.004V327.68H268.004V326.972ZM270.608 325.892H271.436V334.712H270.608V325.892ZM268.004 334.736C268.492 334.688 269.052 334.636 269.684 334.58C270.324 334.524 271 334.46 271.712 334.388C272.432 334.316 273.144 334.24 273.848 334.16L273.86 334.868C273.18 334.948 272.496 335.028 271.808 335.108C271.12 335.196 270.46 335.272 269.828 335.336C269.204 335.408 268.636 335.472 268.124 335.528L268.004 334.736ZM269.108 330.524V331.4H273.008V330.524H269.108ZM269.108 329.06V329.924H273.008V329.06H269.108ZM268.364 328.436H273.776V332.024H268.364V328.436ZM273.344 325.04L273.788 325.736C273.316 325.832 272.772 325.92 272.156 326C271.54 326.08 270.9 326.148 270.236 326.204C269.58 326.252 268.952 326.284 268.352 326.3C268.336 326.204 268.304 326.092 268.256 325.964C268.216 325.836 268.176 325.724 268.136 325.628C268.584 325.604 269.044 325.576 269.516 325.544C269.996 325.504 270.468 325.46 270.932 325.412C271.404 325.364 271.844 325.308 272.252 325.244C272.668 325.18 273.032 325.112 273.344 325.04ZM273.908 327.728H278.24V328.556H273.908V327.728ZM277.892 327.728H278.756C278.756 327.728 278.756 327.76 278.756 327.824C278.756 327.88 278.756 327.944 278.756 328.016C278.756 328.08 278.756 328.132 278.756 328.172C278.724 329.444 278.688 330.516 278.648 331.388C278.616 332.252 278.576 332.96 278.528 333.512C278.48 334.064 278.42 334.492 278.348 334.796C278.284 335.092 278.2 335.304 278.096 335.432C277.992 335.592 277.876 335.704 277.748 335.768C277.62 335.832 277.468 335.872 277.292 335.888C277.124 335.912 276.908 335.92 276.644 335.912C276.38 335.912 276.104 335.908 275.816 335.9C275.808 335.772 275.78 335.624 275.732 335.456C275.684 335.296 275.624 335.156 275.552 335.036C275.848 335.06 276.12 335.072 276.368 335.072C276.616 335.08 276.796 335.084 276.908 335.084C277.004 335.084 277.084 335.072 277.148 335.048C277.212 335.024 277.272 334.976 277.328 334.904C277.408 334.808 277.476 334.62 277.532 334.34C277.588 334.052 277.636 333.64 277.676 333.104C277.716 332.568 277.752 331.876 277.784 331.028C277.824 330.18 277.86 329.148 277.892 327.932V327.728ZM275.36 325.076H276.236C276.228 326.028 276.212 326.948 276.188 327.836C276.172 328.724 276.12 329.568 276.032 330.368C275.944 331.168 275.796 331.916 275.588 332.612C275.388 333.308 275.104 333.944 274.736 334.52C274.376 335.088 273.908 335.588 273.332 336.02C273.292 335.948 273.232 335.872 273.152 335.792C273.072 335.712 272.988 335.632 272.9 335.552C272.82 335.48 272.744 335.42 272.672 335.372C273.216 334.98 273.66 334.52 274.004 333.992C274.348 333.456 274.612 332.864 274.796 332.216C274.988 331.56 275.12 330.856 275.192 330.104C275.272 329.344 275.32 328.544 275.336 327.704C275.352 326.856 275.36 325.98 275.36 325.076ZM282.332 327.74H283.244V333.788C283.244 334.044 283.284 334.24 283.364 334.376C283.452 334.512 283.608 334.608 283.832 334.664C284.064 334.712 284.4 334.736 284.84 334.736C284.96 334.736 285.168 334.736 285.464 334.736C285.76 334.736 286.096 334.736 286.472 334.736C286.856 334.736 287.24 334.736 287.624 334.736C288.016 334.736 288.368 334.736 288.68 334.736C289 334.736 289.244 334.736 289.412 334.736C289.74 334.736 290.004 334.704 290.204 334.64C290.412 334.576 290.572 334.46 290.684 334.292C290.796 334.116 290.88 333.876 290.936 333.572C291 333.26 291.052 332.864 291.092 332.384C291.172 332.44 291.264 332.492 291.368 332.54C291.48 332.588 291.592 332.632 291.704 332.672C291.816 332.712 291.916 332.74 292.004 332.756C291.948 333.308 291.872 333.768 291.776 334.136C291.68 334.504 291.54 334.796 291.356 335.012C291.18 335.228 290.932 335.384 290.612 335.48C290.3 335.576 289.896 335.624 289.4 335.624C289.32 335.624 289.164 335.624 288.932 335.624C288.708 335.624 288.436 335.624 288.116 335.624C287.804 335.624 287.476 335.624 287.132 335.624C286.788 335.624 286.46 335.624 286.148 335.624C285.836 335.624 285.568 335.624 285.344 335.624C285.12 335.624 284.968 335.624 284.888 335.624C284.24 335.624 283.728 335.572 283.352 335.468C282.976 335.364 282.712 335.18 282.56 334.916C282.408 334.652 282.332 334.272 282.332 333.776V327.74ZM282.824 329.72H289.904V330.608H282.824V329.72ZM281.696 325.664H290.48V331.208H289.544V326.564H281.696V325.664ZM300.5 326.324H303.572V327.08H300.5V326.324ZM300.272 328.664H305.216V329.432H300.272V328.664ZM296.912 327.092H300.236V327.812H296.912V327.092ZM297.284 328.7H300.008V329.42H297.284V328.7ZM297.284 330.32H300.008V331.04H297.284V330.32ZM301.712 324.98H302.48V329.18H301.712V324.98ZM304.304 325.316L305.072 325.508C304.592 326.94 303.956 328.224 303.164 329.36C302.372 330.488 301.448 331.428 300.392 332.18C300.36 332.116 300.308 332.044 300.236 331.964C300.172 331.884 300.104 331.804 300.032 331.724C299.96 331.644 299.896 331.58 299.84 331.532C300.88 330.86 301.776 329.988 302.528 328.916C303.28 327.844 303.872 326.644 304.304 325.316ZM301.304 330.632H304.796V335.864H303.98V331.388H302.084V335.948H301.304V330.632ZM301.676 332.636H304.34V333.38H301.676V332.636ZM301.676 334.664H304.34V335.408H301.676V334.664ZM296.228 324.98L297.02 325.208C296.82 325.896 296.584 326.58 296.312 327.26C296.04 327.94 295.744 328.584 295.424 329.192C295.104 329.792 294.764 330.328 294.404 330.8C294.38 330.728 294.34 330.636 294.284 330.524C294.236 330.404 294.18 330.288 294.116 330.176C294.06 330.056 294.008 329.96 293.96 329.888C294.272 329.48 294.568 329.012 294.848 328.484C295.128 327.956 295.384 327.396 295.616 326.804C295.856 326.204 296.06 325.596 296.228 324.98ZM295.328 328.088L296.084 327.284L296.108 327.308V335.948H295.328V328.088ZM297.752 325.46L298.316 325.112C298.492 325.312 298.66 325.536 298.82 325.784C298.988 326.032 299.108 326.248 299.18 326.432L298.592 326.84C298.512 326.648 298.392 326.42 298.232 326.156C298.08 325.892 297.92 325.66 297.752 325.46ZM297.14 332.024H300.116V335.648H299.372V332.744H297.872V335.828H297.14V332.024ZM297.368 334.4H299.804V335.12H297.368V334.4ZM310.76 331.808H318.224V332.648H310.76V331.808ZM311.78 328.7H316.724V329.528H311.78V328.7ZM314.096 330.812H315.008V334.892C315.008 335.156 314.972 335.356 314.9 335.492C314.836 335.636 314.704 335.744 314.504 335.816C314.296 335.888 314.02 335.928 313.676 335.936C313.34 335.944 312.912 335.948 312.392 335.948C312.376 335.82 312.34 335.676 312.284 335.516C312.236 335.364 312.18 335.224 312.116 335.096C312.38 335.104 312.628 335.108 312.86 335.108C313.1 335.116 313.304 335.116 313.472 335.108C313.648 335.108 313.772 335.108 313.844 335.108C313.948 335.1 314.016 335.08 314.048 335.048C314.08 335.016 314.096 334.96 314.096 334.88V330.812ZM316.484 328.7H316.712L316.892 328.652L317.468 329.108C317.22 329.38 316.936 329.656 316.616 329.936C316.296 330.208 315.96 330.468 315.608 330.716C315.264 330.956 314.928 331.168 314.6 331.352C314.544 331.264 314.464 331.172 314.36 331.076C314.256 330.972 314.168 330.884 314.096 330.812C314.392 330.66 314.692 330.472 314.996 330.248C315.3 330.024 315.584 329.792 315.848 329.552C316.112 329.312 316.324 329.088 316.484 328.88V328.7ZM307.496 326.492H318.008V327.356H307.496V326.492ZM311.36 324.92L312.284 325.148C312.004 326.06 311.648 326.968 311.216 327.872C310.792 328.768 310.28 329.608 309.68 330.392C309.08 331.168 308.376 331.84 307.568 332.408C307.536 332.336 307.492 332.252 307.436 332.156C307.388 332.052 307.332 331.948 307.268 331.844C307.212 331.74 307.16 331.656 307.112 331.592C307.656 331.208 308.152 330.764 308.6 330.26C309.048 329.748 309.448 329.2 309.8 328.616C310.152 328.024 310.456 327.416 310.712 326.792C310.976 326.168 311.192 325.544 311.36 324.92ZM308.996 329.828H309.908V335.936H308.996V329.828Z" fill="#AAA6A8"/>
<path d="M215.578 280.64H236.338V285.04H215.578V280.64ZM208.178 288H244.018V292.52H208.178V288ZM218.178 291.28H223.058C222.978 293.413 222.764 295.307 222.418 296.96C222.071 298.613 221.458 300.067 220.578 301.32C219.698 302.573 218.404 303.627 216.698 304.48C215.018 305.36 212.778 306.067 209.978 306.6C209.871 306.173 209.671 305.707 209.378 305.2C209.111 304.72 208.804 304.227 208.458 303.72C208.111 303.24 207.778 302.84 207.458 302.52C209.884 302.12 211.791 301.627 213.178 301.04C214.591 300.427 215.631 299.68 216.298 298.8C216.991 297.92 217.458 296.867 217.698 295.64C217.938 294.387 218.098 292.933 218.178 291.28ZM228.418 290.68H233.298V300.2C233.298 300.84 233.391 301.24 233.578 301.4C233.764 301.56 234.204 301.64 234.898 301.64C235.058 301.64 235.298 301.64 235.618 301.64C235.964 301.64 236.338 301.64 236.738 301.64C237.164 301.64 237.564 301.64 237.938 301.64C238.311 301.64 238.591 301.64 238.778 301.64C239.204 301.64 239.524 301.533 239.738 301.32C239.978 301.08 240.138 300.613 240.218 299.92C240.324 299.227 240.404 298.187 240.458 296.8C240.804 297.04 241.231 297.28 241.738 297.52C242.244 297.76 242.764 297.973 243.298 298.16C243.858 298.347 244.351 298.507 244.778 298.64C244.618 300.56 244.338 302.053 243.938 303.12C243.538 304.213 242.964 304.973 242.218 305.4C241.498 305.827 240.511 306.04 239.258 306.04C238.991 306.04 238.631 306.04 238.178 306.04C237.724 306.04 237.231 306.04 236.698 306.04C236.164 306.04 235.671 306.04 235.218 306.04C234.764 306.04 234.418 306.04 234.178 306.04C232.631 306.04 231.444 305.853 230.618 305.48C229.791 305.133 229.218 304.533 228.898 303.68C228.578 302.827 228.418 301.68 228.418 300.24V290.68ZM208.898 273.12H243.178V283.12H238.178V277.72H213.698V283.12H208.898V273.12ZM222.258 270L227.178 268.56C227.711 269.467 228.204 270.453 228.658 271.52C229.138 272.587 229.484 273.533 229.698 274.36L224.458 275.92C224.298 275.147 224.004 274.2 223.578 273.08C223.178 271.933 222.738 270.907 222.258 270ZM253.378 284.08H262.618V288.44H253.378V284.08ZM260.778 284.08H265.418C265.418 284.08 265.418 284.187 265.418 284.4C265.418 284.613 265.418 284.867 265.418 285.16C265.418 285.427 265.418 285.653 265.418 285.84C265.364 288.667 265.298 290.987 265.218 292.8C265.138 294.587 265.004 295.987 264.818 297C264.658 297.987 264.431 298.68 264.138 299.08C263.738 299.587 263.311 299.947 262.858 300.16C262.431 300.373 261.924 300.533 261.338 300.64C260.804 300.747 260.124 300.813 259.298 300.84C258.498 300.84 257.618 300.827 256.658 300.8C256.631 300.107 256.498 299.333 256.258 298.48C256.018 297.627 255.724 296.907 255.378 296.32C256.098 296.373 256.764 296.413 257.378 296.44C258.018 296.467 258.498 296.48 258.818 296.48C259.084 296.48 259.311 296.453 259.498 296.4C259.711 296.32 259.884 296.187 260.018 296C260.204 295.76 260.338 295.267 260.418 294.52C260.524 293.747 260.604 292.587 260.658 291.04C260.711 289.467 260.751 287.387 260.778 284.8V284.08ZM272.778 271.52L275.698 268.64C276.444 269.013 277.231 269.453 278.058 269.96C278.884 270.467 279.671 270.973 280.418 271.48C281.191 271.987 281.818 272.48 282.298 272.96L279.218 276.16C278.764 275.707 278.178 275.2 277.458 274.64C276.738 274.08 275.964 273.533 275.138 273C274.311 272.44 273.524 271.947 272.778 271.52ZM277.498 281.84L282.378 283C280.698 288.2 278.404 292.8 275.498 296.8C272.591 300.773 269.151 303.987 265.178 306.44C264.964 306.093 264.644 305.667 264.218 305.16C263.791 304.68 263.351 304.187 262.898 303.68C262.444 303.2 262.044 302.8 261.698 302.48C265.538 300.4 268.791 297.6 271.458 294.08C274.124 290.533 276.138 286.453 277.498 281.84ZM253.618 275H284.498V279.72H253.618V275ZM250.418 275H255.458V286.8C255.458 288.293 255.404 289.933 255.298 291.72C255.191 293.48 254.991 295.293 254.698 297.16C254.404 299 253.964 300.773 253.378 302.48C252.818 304.187 252.084 305.72 251.178 307.08C250.911 306.733 250.511 306.347 249.978 305.92C249.471 305.493 248.951 305.067 248.418 304.64C247.911 304.24 247.471 303.96 247.098 303.8C248.111 302.2 248.844 300.413 249.298 298.44C249.778 296.44 250.084 294.427 250.218 292.4C250.351 290.373 250.418 288.493 250.418 286.76V275ZM266.658 269.04H271.698C271.644 272.32 271.738 275.533 271.978 278.68C272.218 281.827 272.564 284.773 273.018 287.52C273.498 290.24 274.058 292.653 274.698 294.76C275.338 296.84 276.044 298.467 276.818 299.64C277.591 300.813 278.378 301.4 279.178 301.4C279.631 301.4 279.978 300.853 280.218 299.76C280.484 298.667 280.671 296.867 280.778 294.36C281.338 294.893 281.991 295.413 282.738 295.92C283.511 296.427 284.218 296.8 284.858 297.04C284.618 299.52 284.258 301.44 283.778 302.8C283.298 304.133 282.658 305.053 281.858 305.56C281.058 306.067 280.031 306.32 278.778 306.32C277.338 306.32 276.031 305.827 274.858 304.84C273.711 303.853 272.684 302.48 271.778 300.72C270.898 298.96 270.138 296.893 269.498 294.52C268.858 292.147 268.324 289.573 267.898 286.8C267.498 284.027 267.191 281.147 266.978 278.16C266.791 275.147 266.684 272.107 266.658 269.04ZM290.658 272.48H298.218V296.12H290.658V291.68H294.538V276.88H290.658V272.48ZM288.498 272.48H292.138V299.64H288.498V272.48ZM313.738 269.52L317.778 268.48C318.178 269.467 318.538 270.533 318.858 271.68C319.204 272.827 319.458 273.827 319.618 274.68L315.338 275.92C315.258 275.04 315.058 274.013 314.738 272.84C314.444 271.64 314.111 270.533 313.738 269.52ZM309.618 275.76H324.338V279.92H309.618V275.76ZM310.218 282.04L313.938 281.36C314.204 282.827 314.444 284.36 314.658 285.96C314.898 287.56 315.084 289.16 315.218 290.76C315.378 292.333 315.498 293.84 315.578 295.28C315.684 296.693 315.738 297.947 315.738 299.04L311.658 299.96C311.684 298.867 311.658 297.6 311.578 296.16C311.524 294.693 311.431 293.16 311.298 291.56C311.191 289.933 311.044 288.32 310.858 286.72C310.671 285.093 310.458 283.533 310.218 282.04ZM319.258 280.96L323.738 281.72C323.524 283.507 323.271 285.373 322.978 287.32C322.684 289.24 322.378 291.147 322.058 293.04C321.738 294.933 321.404 296.747 321.058 298.48C320.711 300.187 320.378 301.707 320.058 303.04L316.378 302.28C316.671 300.893 316.964 299.32 317.258 297.56C317.551 295.8 317.831 293.96 318.098 292.04C318.364 290.12 318.591 288.213 318.778 286.32C318.991 284.427 319.151 282.64 319.258 280.96ZM308.178 301.08H324.898V305.28H308.178V301.08ZM299.298 276.88H308.858V281.08H299.298V276.88ZM298.578 289.28C299.884 288.907 301.431 288.427 303.218 287.84C305.031 287.227 306.871 286.613 308.738 286L309.458 289.88C307.858 290.547 306.218 291.213 304.538 291.88C302.884 292.547 301.324 293.16 299.858 293.72L298.578 289.28ZM302.098 269.12H306.218V301.76C306.218 302.747 306.111 303.547 305.898 304.16C305.684 304.8 305.298 305.307 304.738 305.68C304.178 306.027 303.498 306.267 302.698 306.4C301.898 306.533 300.938 306.587 299.818 306.56C299.764 306 299.604 305.293 299.338 304.44C299.098 303.613 298.844 302.92 298.578 302.36C299.218 302.387 299.804 302.4 300.338 302.4C300.898 302.4 301.284 302.4 301.498 302.4C301.711 302.373 301.858 302.32 301.938 302.24C302.044 302.16 302.098 302 302.098 301.76V269.12ZM331.578 292.92L330.738 278.16L330.538 272.56H336.458L336.258 278.16L335.418 292.92H331.578ZM333.498 303.56C332.431 303.56 331.551 303.187 330.858 302.44C330.191 301.693 329.858 300.787 329.858 299.72C329.858 298.6 330.191 297.68 330.858 296.96C331.551 296.24 332.431 295.88 333.498 295.88C334.564 295.88 335.431 296.24 336.098 296.96C336.791 297.68 337.138 298.6 337.138 299.72C337.138 300.787 336.791 301.693 336.098 302.44C335.431 303.187 334.564 303.56 333.498 303.56Z" fill="#3DCE94"/>
<circle cx="267.5" cy="182.5" r="58" stroke="#3DCE94" stroke-width="11"/>
<path d="M246 174.5L260.324 206.491C260.632 207.177 261.558 207.292 262.023 206.701L324 128" stroke="#3DCE94" stroke-width="17" stroke-linecap="round"/>
</svg>
