<svg width="446" height="218" viewBox="0 0 446 218" fill="none" xmlns="http://www.w3.org/2000/svg">
<path d="M68.331 93L61.675 71.24H28.395L21.739 93H0.875L33.131 1.224H56.811L89.195 93H68.331ZM50.411 33.736C49.9843 32.2853 49.4297 30.4507 48.747 28.232C48.0643 26.0133 47.3817 23.752 46.699 21.448C46.0163 19.144 45.4617 17.1387 45.035 15.432C44.6083 17.1387 44.011 19.272 43.243 21.832C42.5603 24.3067 41.8777 26.696 41.195 29C40.5977 31.2187 40.1283 32.7973 39.787 33.736L33.259 54.984H57.067L50.411 33.736ZM129.186 1.60799C137.293 1.60799 144.077 2.37599 149.538 3.91199C155.085 5.36266 159.223 7.79466 161.954 11.208C164.77 14.536 166.178 19.0587 166.178 24.776C166.178 28.1893 165.623 31.304 164.514 34.12C163.405 36.936 161.783 39.24 159.65 41.032C157.602 42.824 155.085 43.976 152.098 44.488V45.128C155.17 45.7253 157.943 46.792 160.418 48.328C162.893 49.864 164.855 52.0827 166.306 54.984C167.757 57.8853 168.482 61.7253 168.482 66.504C168.482 72.0507 167.117 76.8293 164.386 80.84C161.741 84.7653 157.901 87.7947 152.866 89.928C147.831 91.976 141.858 93 134.946 93H100.77V1.60799H129.186ZM131.362 37.832C136.994 37.832 140.877 36.936 143.01 35.144C145.229 33.352 146.338 30.7493 146.338 27.336C146.338 23.8373 145.058 21.32 142.498 19.784C139.938 18.248 135.885 17.48 130.338 17.48H120.098V37.832H131.362ZM120.098 53.192V77H132.77C138.573 77 142.626 75.8907 144.93 73.672C147.234 71.368 148.386 68.3387 148.386 64.584C148.386 62.28 147.874 60.2747 146.85 58.568C145.911 56.8613 144.247 55.5387 141.858 54.6C139.469 53.6613 136.226 53.192 132.13 53.192H120.098ZM269.714 47.176C269.714 54.2587 268.818 60.7013 267.026 66.504C265.319 72.2213 262.674 77.1707 259.09 81.352C255.591 85.5333 251.069 88.7333 245.522 90.952C240.061 93.1707 233.618 94.28 226.194 94.28C218.77 94.28 212.285 93.1707 206.738 90.952C201.277 88.648 196.754 85.448 193.17 81.352C189.671 77.1707 187.026 72.1787 185.234 66.376C183.527 60.5733 182.674 54.1307 182.674 47.048C182.674 37.576 184.21 29.3413 187.282 22.344C190.439 15.3467 195.218 9.928 201.618 6.088C208.103 2.16266 216.338 0.199997 226.322 0.199997C236.221 0.199997 244.37 2.16266 250.77 6.088C257.17 9.928 261.906 15.3893 264.978 22.472C268.135 29.4693 269.714 37.704 269.714 47.176ZM203.026 47.176C203.026 53.576 203.837 59.08 205.458 63.688C207.079 68.296 209.597 71.8373 213.01 74.312C216.423 76.7867 220.818 78.024 226.194 78.024C231.741 78.024 236.178 76.7867 239.506 74.312C242.919 71.8373 245.394 68.296 246.93 63.688C248.551 59.08 249.362 53.576 249.362 47.176C249.362 37.5333 247.57 29.9813 243.986 24.52C240.402 19.0587 234.514 16.328 226.322 16.328C220.861 16.328 216.423 17.5653 213.01 20.04C209.597 22.5147 207.079 26.056 205.458 30.664C203.837 35.272 203.026 40.776 203.026 47.176ZM363.013 60.744C363.013 67.0587 361.605 72.776 358.789 77.896C356.058 82.9307 351.877 86.9413 346.245 89.928C340.698 92.8293 333.658 94.28 325.125 94.28C313.008 94.28 303.792 91.208 297.477 85.064C291.162 78.8347 288.005 70.6427 288.005 60.488V1.60799H307.333V57.544C307.333 65.0533 308.869 70.344 311.941 73.416C315.013 76.488 319.578 78.024 325.637 78.024C329.904 78.024 333.36 77.2987 336.005 75.848C338.65 74.3973 340.57 72.136 341.765 69.064C343.045 65.992 343.685 62.1093 343.685 57.416V1.60799H363.013V60.744ZM420.595 93H401.267V17.736H376.435V1.60799H445.427V17.736H420.595V93ZM366.638 183.744C366.638 190.059 365.23 195.776 362.414 200.896C359.683 205.931 355.502 209.941 349.87 212.928C344.323 215.829 337.283 217.28 328.75 217.28C316.633 217.28 307.417 214.208 301.102 208.064C294.787 201.835 291.63 193.643 291.63 183.488V124.608H310.958V180.544C310.958 188.053 312.494 193.344 315.566 196.416C318.638 199.488 323.203 201.024 329.262 201.024C333.529 201.024 336.985 200.299 339.63 198.848C342.275 197.397 344.195 195.136 345.39 192.064C346.67 188.992 347.31 185.109 347.31 180.416V124.608H366.638V183.744ZM442.908 190.656C442.908 196.032 441.585 200.725 438.94 204.736C436.295 208.747 432.455 211.861 427.42 214.08C422.471 216.213 416.412 217.28 409.244 217.28C406.087 217.28 402.972 217.067 399.9 216.64C396.913 216.213 394.012 215.616 391.196 214.848C388.465 213.995 385.863 212.971 383.388 211.776V193.728C387.74 195.605 392.22 197.355 396.828 198.976C401.521 200.512 406.172 201.28 410.78 201.28C413.937 201.28 416.455 200.853 418.332 200C420.295 199.147 421.703 197.995 422.556 196.544C423.495 195.093 423.964 193.429 423.964 191.552C423.964 189.248 423.153 187.285 421.532 185.664C419.996 184.043 417.905 182.549 415.26 181.184C412.615 179.733 409.585 178.197 406.172 176.576C404.039 175.552 401.735 174.357 399.26 172.992C396.785 171.541 394.396 169.792 392.092 167.744C389.873 165.611 388.039 163.051 386.588 160.064C385.137 157.077 384.412 153.493 384.412 149.312C384.412 143.851 385.649 139.2 388.124 135.36C390.684 131.435 394.268 128.448 398.876 126.4C403.569 124.352 409.073 123.328 415.388 123.328C420.167 123.328 424.689 123.883 428.956 124.992C433.308 126.101 437.831 127.68 442.524 129.728L436.252 144.832C432.071 143.125 428.316 141.803 424.988 140.864C421.66 139.925 418.247 139.456 414.748 139.456C412.359 139.456 410.311 139.84 408.604 140.608C406.897 141.376 405.575 142.443 404.636 143.808C403.783 145.173 403.356 146.795 403.356 148.672C403.356 150.805 403.996 152.64 405.276 154.176C406.556 155.627 408.476 157.035 411.036 158.4C413.596 159.765 416.796 161.387 420.636 163.264C425.329 165.483 429.297 167.787 432.54 170.176C435.868 172.565 438.428 175.381 440.22 178.624C442.012 181.867 442.908 185.877 442.908 190.656Z" fill="#3DCE94" fill-opacity="0.35"/>
</svg>
