<svg width="311" height="345" viewBox="0 0 311 345" fill="none" xmlns="http://www.w3.org/2000/svg">
<g clip-path="url(#clip0_1396_253)">
<path d="M78.4157 0H13.7709V28.5007H78.4157V42.4467C78.4157 61.4133 78.4157 80.38 78.4157 99.3213V105.736C78.4157 128.963 69.5141 137.052 51.66 137.052C40.5013 137.052 29.1142 130.636 19.7307 118.465L0 139.461C13.7202 159.112 34.6175 166.465 52.7505 166.465C97.0813 166.465 112.475 140.247 112.475 108.551V45.2106V34.0537C112.475 15.2392 97.2335 0 78.4157 0Z" fill="#AAA6A8"/>
<path d="M292.208 235.46C267.151 210.408 226.498 210.408 201.441 235.46C176.385 260.512 176.385 301.159 201.441 326.211C226.498 351.263 267.151 351.263 292.208 326.211C317.264 301.159 317.264 260.512 292.208 235.46ZM283.839 317.843C263.398 338.28 230.251 338.28 209.785 317.843L283.839 243.802C304.279 264.265 304.279 297.406 283.839 317.843Z" fill="#AAA6A8"/>
<path d="M167.863 209.343C176.359 209.343 185.007 213.096 192.793 220.272C200.401 213.476 208.973 208.405 218.027 204.956C204.307 186.826 184.272 179.955 166.773 179.955C122.442 179.955 107.048 206.173 107.048 237.869C107.15 253.336 107.226 268.829 107.327 284.297C107.327 307.523 98.4254 315.612 80.5714 315.612C69.4126 315.612 58.0256 309.197 48.6421 297.026L28.9113 318.021C42.6316 337.672 63.5289 345.025 81.6619 345.025C125.993 345.025 141.387 318.807 141.387 287.111C141.285 271.644 141.209 256.151 141.108 240.684C141.133 217.432 150.035 209.343 167.863 209.343Z" fill="#AAA6A8"/>
<path d="M168.193 79.5938C174.457 73.3307 182.674 70.1865 190.891 70.1865V38.1106C174.457 38.1106 158.049 44.3736 145.495 56.8997C132.967 69.4258 126.703 85.8568 126.703 102.262H158.784C158.784 94.0723 161.929 85.8568 168.193 79.5938Z" fill="#AAA6A8"/>
<path d="M168.193 124.956C161.929 118.693 158.784 110.478 158.784 102.262H126.703C126.703 118.693 132.967 135.099 145.495 147.651C158.023 160.177 174.457 166.44 190.891 166.44V134.364C182.674 134.364 174.457 131.22 168.193 124.956Z" fill="#AAA6A8"/>
<path d="M222.973 102.288C222.973 110.503 219.828 118.719 213.564 124.982C207.3 131.245 199.083 134.389 190.866 134.389V166.465C207.3 166.465 223.708 160.202 236.262 147.676C248.79 135.15 255.054 118.719 255.054 102.288H222.973Z" fill="#AAA6A8"/>
<path d="M271.944 38.1106H203.977V70.1865H271.944V38.1106Z" fill="#3DCE94"/>
<path d="M255.058 88.571V20.6157L222.977 20.6157V88.571H255.058Z" fill="#3DCE94"/>
<path d="M255.065 140.584V102.27H222.983V140.584H255.065Z" fill="#AAA6A8"/>
<path d="M255.068 166.448V102.271H235.109V166.448H255.068Z" fill="#AAA6A8"/>
</g>
<defs>
<clipPath id="clip0_1396_253">
<rect width="311" height="345" fill="white"/>
</clipPath>
</defs>
</svg>
