<svg width="553" height="595" viewBox="0 0 553 595" fill="none" xmlns="http://www.w3.org/2000/svg">
<path d="M545.036 81.6458C542.626 79.4358 540.216 77.2358 537.806 75.0258C532.526 76.4158 524.326 77.7758 514.716 76.0458C492.416 72.0358 480.286 54.6158 477.646 50.6258C475.476 54.8858 470.046 64.0658 459.106 70.1258C439.456 81.0258 419.066 72.4458 416.446 71.2958C415.196 74.9358 409.756 89.3458 394.146 98.2658C377.676 107.666 361.596 104.256 358.066 103.416C356.856 107.966 352.696 121.266 339.716 131.276C322.356 144.676 302.666 141.806 299.226 141.246C309.896 164.116 302.306 189.116 285.386 198.806C268.326 208.566 248.596 198.866 246.906 198.006C244.656 200.706 232.306 214.976 212.106 215.916C201.146 216.426 192.656 212.786 188.376 210.556C183.676 214.206 178.966 217.856 174.266 221.496C172.666 219.216 158.296 198.076 166.946 176.616C169.656 169.896 173.836 165.096 177.336 161.926C175.306 139.666 184.536 118.836 201.496 108.366C214.366 100.416 227.696 100.886 233.406 101.446C234.486 98.0858 240.916 79.2958 261.006 69.4458C279.386 60.4358 296.526 65.1258 300.376 66.2858C301.096 63.4358 305.556 46.8358 322.246 37.5558C341.536 26.8258 360.766 34.9758 362.926 35.9358C363.056 34.8358 365.096 20.1658 378.836 13.3458C393.066 6.27576 406.436 14.2858 407.196 14.7658C408.456 13.1458 416.366 3.25576 429.446 2.75576C435.696 2.51576 440.616 4.51576 443.286 5.88576C444.216 5.17576 455.516 -3.21424 469.246 1.35576C481.256 5.35576 485.726 16.1458 486.336 17.6858C497.886 12.4658 511.256 14.8858 519.516 23.5158C530.156 34.6258 526.466 49.9058 526.236 50.8058C533.666 49.9158 540.976 53.1658 545.116 59.2258C549.656 65.8758 549.636 74.7958 545.036 81.6458Z" fill="url(#paint0_radial_2030_254)"/>
<path d="M12.2357 563.726C27.1157 495.326 49.5657 428.916 81.1757 367.086C96.0157 338.066 112.996 309.506 131.546 282.736C149.366 257.016 169.256 231.986 190.346 208.886C210.626 186.676 232.826 165.386 255.906 146.146C278.136 127.616 302.016 110.266 326.576 94.9458C373.106 65.9158 423.756 43.2458 476.686 27.8758C477.486 27.6458 477.986 26.8058 477.796 26.0058C477.606 25.2058 476.796 24.7358 475.996 24.9558C422.646 39.5458 371.456 61.5258 324.316 89.9358C299.406 104.946 275.136 122.006 252.506 140.276C228.986 159.266 206.336 180.336 185.596 202.356C163.996 225.286 143.596 250.176 125.256 275.786C106.156 302.476 88.5957 330.996 73.1957 360.006C40.3257 421.936 16.3257 488.826 0.585699 557.436C-0.474301 562.066 1.3257 567.316 4.5557 569.076C7.7757 570.836 11.1857 568.476 12.2057 563.866C12.2157 563.836 12.2157 563.816 12.2257 563.786C12.2257 563.756 12.2257 563.746 12.2357 563.726Z" fill="url(#paint1_radial_2030_254)"/>
<path d="M306.216 99.0058C301.086 93.2758 292.866 93.8358 287.916 96.1858C285.096 97.5258 283.256 99.4858 282.206 100.836C279.896 100.206 275.726 99.4258 270.866 100.626C260.716 103.136 256.116 112.156 255.396 113.626C254.726 113.376 242.966 109.266 232.966 117.106C223.316 124.666 224.096 136.476 224.166 137.366C223.226 137.366 209.076 137.556 202.246 148.636C195.596 159.426 198.736 175.936 210.066 181.836C217.376 185.646 226.836 184.386 234.426 179.046C241.696 184.056 251.006 184.886 258.696 181.116C267.666 176.716 272.976 166.786 271.786 156.396C284.516 162.276 298.536 160.646 306.856 152.506C310.496 148.946 314.956 142.266 314.656 133.526C314.336 124.356 308.966 118.386 307.506 116.866C311.046 111.046 310.446 103.736 306.216 99.0058Z" fill="url(#paint2_radial_2030_254)"/>
<path d="M484.496 15.1358C479.536 12.7958 472.696 15.4158 470.396 21.5558C470.006 20.9758 463.256 11.3258 451.736 11.7858C442.786 12.1458 434.786 18.4458 431.986 27.5258C424.706 25.5858 417.146 27.5258 412.436 32.6358C405.826 39.8058 406.906 50.9858 412.266 57.8658C417.776 64.9458 429.396 69.5158 436.776 63.7958C441.776 59.9258 443.656 52.2558 441.386 44.7358C442.826 46.1458 451.576 54.4658 463.716 53.3658C476.216 52.2358 487.176 41.5958 489.746 27.1058C490.916 22.0458 488.536 17.0458 484.496 15.1358Z" fill="url(#paint3_radial_2030_254)"/>
<path d="M418.396 26.9457C424.504 26.9457 429.456 21.994 429.456 15.8857C429.456 9.77747 424.504 4.82574 418.396 4.82574C412.288 4.82574 407.336 9.77747 407.336 15.8857C407.336 21.994 412.288 26.9457 418.396 26.9457Z" fill="url(#paint4_radial_2030_254)"/>
<path d="M414.736 57.6157C420.844 57.6157 425.796 52.664 425.796 46.5557C425.796 40.4475 420.844 35.4957 414.736 35.4957C408.628 35.4957 403.676 40.4475 403.676 46.5557C403.676 52.664 408.628 57.6157 414.736 57.6157Z" fill="url(#paint5_radial_2030_254)"/>
<path d="M373.396 49.3157C379.504 49.3157 384.456 44.364 384.456 38.2557C384.456 32.1475 379.504 27.1957 373.396 27.1957C367.288 27.1957 362.336 32.1475 362.336 38.2557C362.336 44.364 367.288 49.3157 373.396 49.3157Z" fill="url(#paint6_radial_2030_254)"/>
<path d="M328.636 96.9357C334.744 96.9357 339.696 91.984 339.696 85.8757C339.696 79.7675 334.744 74.8157 328.636 74.8157C322.528 74.8157 317.576 79.7675 317.576 85.8757C317.576 91.984 322.528 96.9357 328.636 96.9357Z" fill="url(#paint7_radial_2030_254)"/>
<path d="M311.716 136.666C317.825 136.666 322.776 131.714 322.776 125.606C322.776 119.498 317.825 114.546 311.716 114.546C305.608 114.546 300.656 119.498 300.656 125.606C300.656 131.714 305.608 136.666 311.716 136.666Z" fill="url(#paint8_radial_2030_254)"/>
<path d="M203.136 114.556C209.244 114.556 214.196 109.604 214.196 103.496C214.196 97.3875 209.244 92.4357 203.136 92.4357C197.028 92.4357 192.076 97.3875 192.076 103.496C192.076 109.604 197.028 114.556 203.136 114.556Z" fill="url(#paint9_radial_2030_254)"/>
<path d="M215.015 184.336C221.123 184.336 226.075 179.384 226.075 173.276C226.075 167.167 221.123 162.216 215.015 162.216C208.907 162.216 203.955 167.167 203.955 173.276C203.955 179.384 208.907 184.336 215.015 184.336Z" fill="url(#paint10_radial_2030_254)"/>
<path d="M264.436 178.106C267.954 178.106 270.806 175.254 270.806 171.736C270.806 168.218 267.954 165.366 264.436 165.366C260.918 165.366 258.066 168.218 258.066 171.736C258.066 175.254 260.918 178.106 264.436 178.106Z" fill="url(#paint11_radial_2030_254)"/>
<path d="M330.106 161.886C333.624 161.886 336.476 159.034 336.476 155.516C336.476 151.998 333.624 149.146 330.106 149.146C326.588 149.146 323.736 151.998 323.736 155.516C323.736 159.034 326.588 161.886 330.106 161.886Z" fill="url(#paint12_radial_2030_254)"/>
<path d="M279.926 107.836C283.444 107.836 286.296 104.984 286.296 101.466C286.296 97.9477 283.444 95.0958 279.926 95.0958C276.408 95.0958 273.556 97.9477 273.556 101.466C273.556 104.984 276.408 107.836 279.926 107.836Z" fill="url(#paint13_radial_2030_254)"/>
<path d="M342.886 121.716C346.404 121.716 349.256 118.864 349.256 115.346C349.256 111.828 346.404 108.976 342.886 108.976C339.368 108.976 336.516 111.828 336.516 115.346C336.516 118.864 339.368 121.716 342.886 121.716Z" fill="url(#paint14_radial_2030_254)"/>
<path d="M340.606 63.7958C344.124 63.7958 346.976 60.9438 346.976 57.4258C346.976 53.9077 344.124 51.0558 340.606 51.0558C337.088 51.0558 334.236 53.9077 334.236 57.4258C334.236 60.9438 337.088 63.7958 340.606 63.7958Z" fill="url(#paint15_radial_2030_254)"/>
<path d="M529.246 63.6458C535.354 63.6458 540.306 58.694 540.306 52.5858C540.306 46.4775 535.354 41.5258 529.246 41.5258C523.137 41.5258 518.186 46.4775 518.186 52.5858C518.186 58.694 523.137 63.6458 529.246 63.6458Z" fill="url(#paint16_radial_2030_254)"/>
<path d="M452.226 53.3757C458.334 53.3757 463.286 48.424 463.286 42.3157C463.286 36.2075 458.334 31.2557 452.226 31.2557C446.118 31.2557 441.166 36.2075 441.166 42.3157C441.166 48.424 446.118 53.3757 452.226 53.3757Z" fill="url(#paint17_radial_2030_254)"/>
<path d="M482.636 32.8057C488.744 32.8057 493.696 27.854 493.696 21.7457C493.696 15.6375 488.744 10.6857 482.636 10.6857C476.528 10.6857 471.576 15.6375 471.576 21.7457C471.576 27.854 476.528 32.8057 482.636 32.8057Z" fill="url(#paint18_radial_2030_254)"/>
<path d="M398.216 114.936C404.325 114.936 409.276 109.984 409.276 103.876C409.276 97.7675 404.325 92.8157 398.216 92.8157C392.108 92.8157 387.156 97.7675 387.156 103.876C387.156 109.984 392.108 114.936 398.216 114.936Z" fill="url(#paint19_radial_2030_254)"/>
<path d="M284.396 158.536C290.504 158.536 295.456 153.584 295.456 147.476C295.456 141.368 290.504 136.416 284.396 136.416C278.288 136.416 273.336 141.368 273.336 147.476C273.336 153.584 278.288 158.536 284.396 158.536Z" fill="url(#paint20_radial_2030_254)"/>
<path d="M251.576 138.526C257.684 138.526 262.636 133.574 262.636 127.466C262.636 121.357 257.684 116.406 251.576 116.406C245.467 116.406 240.516 121.357 240.516 127.466C240.516 133.574 245.467 138.526 251.576 138.526Z" fill="url(#paint21_radial_2030_254)"/>
<path d="M262.246 99.9857C268.354 99.9857 273.306 95.034 273.306 88.9257C273.306 82.8175 268.354 77.8657 262.246 77.8657C256.137 77.8657 251.186 82.8175 251.186 88.9257C251.186 95.034 256.137 99.9857 262.246 99.9857Z" fill="url(#paint22_radial_2030_254)"/>
<path d="M168.966 180.436C175.075 180.436 180.026 175.484 180.026 169.376C180.026 163.268 175.075 158.316 168.966 158.316C162.858 158.316 157.906 163.268 157.906 169.376C157.906 175.484 162.858 180.436 168.966 180.436Z" fill="url(#paint23_radial_2030_254)"/>
<path d="M201.145 146.326C204.663 146.326 207.515 143.474 207.515 139.956C207.515 136.438 204.663 133.586 201.145 133.586C197.627 133.586 194.775 136.438 194.775 139.956C194.775 143.474 197.627 146.326 201.145 146.326Z" fill="url(#paint24_radial_2030_254)"/>
<path d="M406.395 84.0057C409.913 84.0057 412.765 81.1538 412.765 77.6357C412.765 74.1177 409.913 71.2657 406.395 71.2657C402.877 71.2657 400.025 74.1177 400.025 77.6357C400.025 81.1538 402.877 84.0057 406.395 84.0057Z" fill="url(#paint25_radial_2030_254)"/>
<path d="M301.516 74.0458C305.034 74.0458 307.886 71.1938 307.886 67.6758C307.886 64.1577 305.034 61.3058 301.516 61.3058C297.997 61.3058 295.146 64.1577 295.146 67.6758C295.146 71.1938 297.997 74.0458 301.516 74.0458Z" fill="url(#paint26_radial_2030_254)"/>
<path d="M303.966 99.7058C307.484 99.7058 310.336 96.8538 310.336 93.3358C310.336 89.8177 307.484 86.9658 303.966 86.9658C300.448 86.9658 297.596 89.8177 297.596 93.3358C297.596 96.8538 300.448 99.7058 303.966 99.7058Z" fill="url(#paint27_radial_2030_254)"/>
<path d="M362.495 98.0158C366.013 98.0158 368.865 95.1638 368.865 91.6458C368.865 88.1277 366.013 85.2758 362.495 85.2758C358.977 85.2758 356.125 88.1277 356.125 91.6458C356.125 95.1638 358.977 98.0158 362.495 98.0158Z" fill="url(#paint28_radial_2030_254)"/>
<path d="M495.336 54.4758C498.854 54.4758 501.706 51.6238 501.706 48.1058C501.706 44.5877 498.854 41.7358 495.336 41.7358C491.818 41.7358 488.966 44.5877 488.966 48.1058C488.966 51.6238 491.818 54.4758 495.336 54.4758Z" fill="url(#paint29_radial_2030_254)"/>
<path d="M546.245 83.0258C549.763 83.0258 552.615 80.1738 552.615 76.6558C552.615 73.1377 549.763 70.2858 546.245 70.2858C542.727 70.2858 539.875 73.1377 539.875 76.6558C539.875 80.1738 542.727 83.0258 546.245 83.0258Z" fill="url(#paint30_radial_2030_254)"/>
<path d="M194.585 192.686C191.825 190.476 188.135 191.346 186.065 192.786C184.885 193.606 184.195 194.636 183.825 195.326C182.725 195.216 180.775 195.176 178.665 196.086C174.245 197.986 172.835 202.436 172.625 203.156C172.305 203.096 166.655 202.116 162.705 206.426C158.895 210.586 160.135 215.886 160.235 216.286C159.805 216.356 153.395 217.516 151.135 223.056C148.925 228.456 151.605 235.716 157.185 237.536C160.795 238.716 164.995 237.436 168.035 234.426C171.715 236.156 176.005 235.826 179.205 233.536C182.945 230.866 184.605 225.956 183.285 221.326C189.505 223.036 195.755 221.236 198.915 216.916C200.295 215.026 201.825 211.656 201.025 207.716C200.195 203.576 197.295 201.276 196.525 200.696C197.685 197.796 196.865 194.516 194.585 192.686Z" fill="url(#paint31_radial_2030_254)"/>
<path d="M329.556 264.656C327.566 266.246 322.846 269.426 316.336 270.236C308.906 271.166 300.266 267.686 294.926 262.456C293.546 264.036 287.936 270.146 278.316 271.936C268.166 273.826 260.526 269.596 258.856 268.616C257.396 270.756 252.676 276.796 244.406 280.176C237.346 283.066 228.586 282.706 221.476 279.976C223.226 291.766 217.186 304.496 205.856 308.656C199.136 311.126 191.086 308.496 185.426 304.556C179.506 309.266 172.026 312.026 164.466 311.506C158.486 311.096 154.186 308.576 152.076 307.106C149.076 308.836 146.096 310.586 143.116 312.366C139.496 304.376 139.296 294.726 144.256 287.216C146.616 283.646 149.606 281.236 151.996 279.696C154.116 267.986 162.136 256.216 173.616 252.026C182.066 248.946 189.466 250.406 192.516 251.306C197.916 243.666 205.506 239.456 213.586 237.236C220.436 235.356 228.896 236.846 235.566 240.776C239.766 234.826 246.196 230.376 253.256 229.056C260.976 227.616 269.006 229.756 275.076 234.976C275.386 234.436 279.766 227.286 288.486 226.406C297.516 225.496 302.456 232.166 302.726 232.546C303.746 231.986 310.166 228.636 316.866 231.116C320.076 232.306 322.036 234.326 323.036 235.566C323.666 235.416 331.366 233.756 336.976 239.036C341.876 243.646 341.416 249.846 341.346 250.726C343.706 256.676 341.596 262.676 337.576 264.766C334.116 266.536 330.256 264.956 329.556 264.656Z" fill="url(#paint32_radial_2030_254)"/>
<path d="M324.426 248.116C270.346 252.336 218.496 267.066 169.966 292.206C148.096 304.256 127.706 317.956 108.326 333.706C94.9257 345.256 82.4957 357.386 70.8057 370.406C71.2557 372.406 71.7157 374.406 72.1757 376.396C84.4957 362.116 97.6457 348.906 111.956 336.366C130.966 320.656 150.986 306.986 172.486 294.906C220.366 269.626 271.286 255.056 325.156 250.066C326.056 249.996 326.626 249.506 326.416 248.966C326.206 248.436 325.316 248.046 324.426 248.116Z" fill="url(#paint33_radial_2030_254)"/>
<path d="M211.896 271.236C208.636 269.356 203.816 270.766 201.896 274.836C201.666 274.416 197.596 267.436 189.686 267.106C183.546 266.846 177.726 270.706 175.296 276.756C170.426 275.026 165.146 275.926 161.636 279.146C156.716 283.676 156.826 291.376 160.106 296.386C163.456 301.506 170.716 304.786 176.536 301.816C182.356 298.846 182.976 291.536 183.006 291.076C183.686 292.196 185.266 294.406 188.116 295.656C189.116 296.096 191.466 296.936 195.546 296.196C202.836 294.866 212.046 288.386 214.816 279.706C215.896 276.326 214.546 272.776 211.896 271.236Z" fill="url(#paint34_radial_2030_254)"/>
<path d="M330.336 257.986C334.378 257.986 337.656 254.708 337.656 250.666C337.656 246.623 334.378 243.346 330.336 243.346C326.293 243.346 323.016 246.623 323.016 250.666C323.016 254.708 326.293 257.986 330.336 257.986Z" fill="url(#paint35_radial_2030_254)"/>
<path d="M311.126 237.786C315.168 237.786 318.446 234.508 318.446 230.466C318.446 226.423 315.168 223.146 311.126 223.146C307.083 223.146 303.806 226.423 303.806 230.466C303.806 234.508 307.083 237.786 311.126 237.786Z" fill="url(#paint36_radial_2030_254)"/>
<path d="M269.496 258.256C273.538 258.256 276.816 254.979 276.816 250.936C276.816 246.893 273.538 243.616 269.496 243.616C265.453 243.616 262.176 246.893 262.176 250.936C262.176 254.979 265.453 258.256 269.496 258.256Z" fill="url(#paint37_radial_2030_254)"/>
<path d="M245.406 274.966C249.449 274.966 252.726 271.688 252.726 267.646C252.726 263.603 249.449 260.326 245.406 260.326C241.363 260.326 238.086 263.603 238.086 267.646C238.086 271.688 241.363 274.966 245.406 274.966Z" fill="url(#paint38_radial_2030_254)"/>
<path d="M209.945 265.906C213.988 265.906 217.265 262.628 217.265 258.586C217.265 254.543 213.988 251.266 209.945 251.266C205.902 251.266 202.625 254.543 202.625 258.586C202.625 262.628 205.902 265.906 209.945 265.906Z" fill="url(#paint39_radial_2030_254)"/>
<path d="M153.215 299.186C157.258 299.186 160.536 295.909 160.536 291.866C160.536 287.823 157.258 284.546 153.215 284.546C149.173 284.546 145.896 287.823 145.896 291.866C145.896 295.909 149.173 299.186 153.215 299.186Z" fill="url(#paint40_radial_2030_254)"/>
<path d="M181.515 305.756C185.558 305.756 188.835 302.478 188.835 298.436C188.835 294.393 185.558 291.116 181.515 291.116C177.473 291.116 174.195 294.393 174.195 298.436C174.195 302.478 177.473 305.756 181.515 305.756Z" fill="url(#paint41_radial_2030_254)"/>
<path d="M205.186 285.936C207.511 285.936 209.396 284.051 209.396 281.726C209.396 279.401 207.511 277.516 205.186 277.516C202.86 277.516 200.976 279.401 200.976 281.726C200.976 284.051 202.86 285.936 205.186 285.936Z" fill="url(#paint42_radial_2030_254)"/>
<path d="M225.476 290.216C227.801 290.216 229.686 288.331 229.686 286.006C229.686 283.681 227.801 281.796 225.476 281.796C223.151 281.796 221.266 283.681 221.266 286.006C221.266 288.331 223.151 290.216 225.476 290.216Z" fill="url(#paint43_radial_2030_254)"/>
<path d="M236.495 250.116C238.82 250.116 240.705 248.231 240.705 245.906C240.705 243.581 238.82 241.696 236.495 241.696C234.17 241.696 232.285 243.581 232.285 245.906C232.285 248.231 234.17 250.116 236.495 250.116Z" fill="url(#paint44_radial_2030_254)"/>
<path d="M290.126 267.326C292.451 267.326 294.336 265.441 294.336 263.116C294.336 260.791 292.451 258.906 290.126 258.906C287.801 258.906 285.916 260.791 285.916 263.116C285.916 265.441 287.801 267.326 290.126 267.326Z" fill="url(#paint45_radial_2030_254)"/>
<path d="M295.376 249.726C297.701 249.726 299.586 247.841 299.586 245.516C299.586 243.191 297.701 241.306 295.376 241.306C293.051 241.306 291.166 243.191 291.166 245.516C291.166 247.841 293.051 249.726 295.376 249.726Z" fill="url(#paint46_radial_2030_254)"/>
<path d="M492.105 442.086C492.135 385.526 447.745 345.496 424.075 324.786C355.715 264.976 272.225 262.676 242.455 263.336C242.455 263.336 232.205 262.166 213.855 264.866C206.585 265.936 203.295 268.236 199.075 270.486C193.025 273.716 190.615 281.426 194.235 287.256C194.265 287.306 194.295 287.356 194.325 287.406C194.345 287.436 194.365 287.466 194.385 287.496C196.835 291.306 201.345 293.226 205.855 292.836C214.365 292.106 224.755 291.956 236.435 293.416C252.565 295.426 265.665 299.806 275.005 303.736C266.925 303.736 258.845 303.736 250.765 303.736C173.655 303.736 109.105 366.836 110.115 443.946C111.205 527.376 200.035 570.006 210.665 575.196C249.365 594.086 285.625 594.286 302.605 594.196C319.325 594.106 355.485 593.546 393.235 574.726C406.065 568.336 492.065 525.466 492.105 442.086Z" fill="url(#paint47_radial_2030_254)"/>
<path d="M300.416 477.366C289.846 477.366 283.076 467.216 282.256 465.926C280.866 463.736 281.516 460.826 283.716 459.436C285.916 458.046 288.826 458.696 290.206 460.896C290.426 461.236 295.606 469.366 302.226 467.736C306.426 466.726 309.886 462.216 311.716 458.326C312.826 455.976 315.616 454.966 317.986 456.086C320.336 457.196 321.336 460.006 320.226 462.356C318.506 465.996 313.516 474.706 304.416 476.896C303.046 477.216 301.706 477.366 300.416 477.366Z" fill="white"/>
<path d="M248.166 475.376C258.156 475.376 266.266 467.276 266.266 457.276H230.076C230.076 467.276 238.176 475.376 248.166 475.376Z" fill="white"/>
<path d="M354.045 475.376C364.035 475.376 372.145 467.276 372.145 457.276H335.955C335.955 467.276 344.055 475.376 354.045 475.376Z" fill="white"/>
<defs>
<radialGradient id="paint0_radial_2030_254" cx="0" cy="0" r="1" gradientUnits="userSpaceOnUse" gradientTransform="translate(348.965 102.205) rotate(-13.8334) scale(153.557 204.447)">
<stop stop-color="#E16E39"/>
<stop offset="0.6705" stop-color="#D16F45"/>
<stop offset="1" stop-color="#C76F4D"/>
</radialGradient>
<radialGradient id="paint1_radial_2030_254" cx="0" cy="0" r="1" gradientUnits="userSpaceOnUse" gradientTransform="translate(209.607 268.422) rotate(-50.9993) scale(260.077 346.289)">
<stop stop-color="#E1CD51"/>
<stop offset="0.3621" stop-color="#D4BF41"/>
<stop offset="1" stop-color="#B5A01B"/>
</radialGradient>
<radialGradient id="paint2_radial_2030_254" cx="0" cy="0" r="1" gradientUnits="userSpaceOnUse" gradientTransform="translate(429.854 150.16) rotate(-13.8334) scale(123.184 123.184)">
<stop stop-color="#E1672F"/>
<stop offset="0.6705" stop-color="#D1693D"/>
<stop offset="1" stop-color="#C76B46"/>
</radialGradient>
<radialGradient id="paint3_radial_2030_254" cx="0" cy="0" r="1" gradientUnits="userSpaceOnUse" gradientTransform="translate(429.853 150.16) rotate(-13.8334) scale(123.184 123.184)">
<stop stop-color="#E1672F"/>
<stop offset="0.6705" stop-color="#D1693D"/>
<stop offset="1" stop-color="#C76B46"/>
</radialGradient>
<radialGradient id="paint4_radial_2030_254" cx="0" cy="0" r="1" gradientUnits="userSpaceOnUse" gradientTransform="translate(418.363 15.942) rotate(-50.9992) scale(11.0621 14.729)">
<stop stop-color="#E15329"/>
<stop offset="0.4305" stop-color="#D15132"/>
<stop offset="1" stop-color="#B54D41"/>
</radialGradient>
<radialGradient id="paint5_radial_2030_254" cx="0" cy="0" r="1" gradientUnits="userSpaceOnUse" gradientTransform="translate(414.709 46.6099) rotate(-50.9993) scale(11.0621 14.729)">
<stop stop-color="#E15329"/>
<stop offset="0.4305" stop-color="#D15132"/>
<stop offset="1" stop-color="#B54D41"/>
</radialGradient>
<radialGradient id="paint6_radial_2030_254" cx="0" cy="0" r="1" gradientUnits="userSpaceOnUse" gradientTransform="translate(373.362 38.3027) rotate(-50.9992) scale(11.0621 14.729)">
<stop stop-color="#E15329"/>
<stop offset="0.4305" stop-color="#D15132"/>
<stop offset="1" stop-color="#B54D41"/>
</radialGradient>
<radialGradient id="paint7_radial_2030_254" cx="0" cy="0" r="1" gradientUnits="userSpaceOnUse" gradientTransform="translate(328.611 85.9275) rotate(-50.9993) scale(11.0621 14.729)">
<stop stop-color="#E15329"/>
<stop offset="0.4305" stop-color="#D15132"/>
<stop offset="1" stop-color="#B54D41"/>
</radialGradient>
<radialGradient id="paint8_radial_2030_254" cx="0" cy="0" r="1" gradientUnits="userSpaceOnUse" gradientTransform="translate(311.688 125.648) rotate(-50.9993) scale(11.0621 14.729)">
<stop stop-color="#E15329"/>
<stop offset="0.4305" stop-color="#D15132"/>
<stop offset="1" stop-color="#B54D41"/>
</radialGradient>
<radialGradient id="paint9_radial_2030_254" cx="0" cy="0" r="1" gradientUnits="userSpaceOnUse" gradientTransform="translate(203.107 103.535) rotate(-50.9992) scale(11.0621 14.729)">
<stop stop-color="#E15329"/>
<stop offset="0.4305" stop-color="#D15132"/>
<stop offset="1" stop-color="#B54D41"/>
</radialGradient>
<radialGradient id="paint10_radial_2030_254" cx="0" cy="0" r="1" gradientUnits="userSpaceOnUse" gradientTransform="translate(214.992 173.32) rotate(-50.9993) scale(11.0621 14.729)">
<stop stop-color="#E15329"/>
<stop offset="0.4305" stop-color="#D15132"/>
<stop offset="1" stop-color="#B54D41"/>
</radialGradient>
<radialGradient id="paint11_radial_2030_254" cx="0" cy="0" r="1" gradientUnits="userSpaceOnUse" gradientTransform="translate(264.407 171.782) rotate(-50.9993) scale(6.36909 8.48034)">
<stop stop-color="#E15329"/>
<stop offset="0.4305" stop-color="#D15132"/>
<stop offset="1" stop-color="#B54D41"/>
</radialGradient>
<radialGradient id="paint12_radial_2030_254" cx="0" cy="0" r="1" gradientUnits="userSpaceOnUse" gradientTransform="translate(330.081 155.565) rotate(-50.9993) scale(6.36909 8.48034)">
<stop stop-color="#E15329"/>
<stop offset="0.4305" stop-color="#D15132"/>
<stop offset="1" stop-color="#B54D41"/>
</radialGradient>
<radialGradient id="paint13_radial_2030_254" cx="0" cy="0" r="1" gradientUnits="userSpaceOnUse" gradientTransform="translate(279.901 101.511) rotate(-50.9992) scale(6.36909 8.48036)">
<stop stop-color="#E15329"/>
<stop offset="0.4305" stop-color="#D15132"/>
<stop offset="1" stop-color="#B54D41"/>
</radialGradient>
<radialGradient id="paint14_radial_2030_254" cx="0" cy="0" r="1" gradientUnits="userSpaceOnUse" gradientTransform="translate(342.853 115.395) rotate(-50.9993) scale(6.36909 8.48035)">
<stop stop-color="#E15329"/>
<stop offset="0.4305" stop-color="#D15132"/>
<stop offset="1" stop-color="#B54D41"/>
</radialGradient>
<radialGradient id="paint15_radial_2030_254" cx="0" cy="0" r="1" gradientUnits="userSpaceOnUse" gradientTransform="translate(340.579 57.4779) rotate(-50.9993) scale(6.36909 8.48035)">
<stop stop-color="#E15329"/>
<stop offset="0.4305" stop-color="#D15132"/>
<stop offset="1" stop-color="#B54D41"/>
</radialGradient>
<radialGradient id="paint16_radial_2030_254" cx="0" cy="0" r="1" gradientUnits="userSpaceOnUse" gradientTransform="translate(529.19 52.562) rotate(-30.4783) scale(11.0623 14.7285)">
<stop stop-color="#E15329"/>
<stop offset="0.4305" stop-color="#D15132"/>
<stop offset="1" stop-color="#B54D41"/>
</radialGradient>
<radialGradient id="paint17_radial_2030_254" cx="0" cy="0" r="1" gradientUnits="userSpaceOnUse" gradientTransform="translate(452.169 42.2928) rotate(-30.4783) scale(11.0623 14.7285)">
<stop stop-color="#E15329"/>
<stop offset="0.4305" stop-color="#D15132"/>
<stop offset="1" stop-color="#B54D41"/>
</radialGradient>
<radialGradient id="paint18_radial_2030_254" cx="0" cy="0" r="1" gradientUnits="userSpaceOnUse" gradientTransform="translate(482.584 21.7329) rotate(-30.4783) scale(11.0623 14.7285)">
<stop stop-color="#E15329"/>
<stop offset="0.4305" stop-color="#D15132"/>
<stop offset="1" stop-color="#B54D41"/>
</radialGradient>
<radialGradient id="paint19_radial_2030_254" cx="0" cy="0" r="1" gradientUnits="userSpaceOnUse" gradientTransform="translate(398.169 103.857) rotate(-30.4783) scale(11.0623 14.7285)">
<stop stop-color="#E15329"/>
<stop offset="0.4305" stop-color="#D15132"/>
<stop offset="1" stop-color="#B54D41"/>
</radialGradient>
<radialGradient id="paint20_radial_2030_254" cx="0" cy="0" r="1" gradientUnits="userSpaceOnUse" gradientTransform="translate(284.342 147.455) rotate(-30.4783) scale(11.0623 14.7285)">
<stop stop-color="#E15329"/>
<stop offset="0.4305" stop-color="#D15132"/>
<stop offset="1" stop-color="#B54D41"/>
</radialGradient>
<radialGradient id="paint21_radial_2030_254" cx="0" cy="0" r="1" gradientUnits="userSpaceOnUse" gradientTransform="translate(251.527 127.443) rotate(-30.4783) scale(11.0623 14.7285)">
<stop stop-color="#E15329"/>
<stop offset="0.4305" stop-color="#D15132"/>
<stop offset="1" stop-color="#B54D41"/>
</radialGradient>
<radialGradient id="paint22_radial_2030_254" cx="0" cy="0" r="1" gradientUnits="userSpaceOnUse" gradientTransform="translate(262.195 88.9033) rotate(-30.4783) scale(11.0623 14.7285)">
<stop stop-color="#E15329"/>
<stop offset="0.4305" stop-color="#D15132"/>
<stop offset="1" stop-color="#B54D41"/>
</radialGradient>
<radialGradient id="paint23_radial_2030_254" cx="0" cy="0" r="1" gradientUnits="userSpaceOnUse" gradientTransform="translate(168.924 169.353) rotate(-30.4783) scale(11.0623 14.7285)">
<stop stop-color="#E15329"/>
<stop offset="0.4305" stop-color="#D15132"/>
<stop offset="1" stop-color="#B54D41"/>
</radialGradient>
<radialGradient id="paint24_radial_2030_254" cx="0" cy="0" r="1" gradientUnits="userSpaceOnUse" gradientTransform="translate(201.098 139.933) rotate(-30.4783) scale(6.36924 8.48005)">
<stop stop-color="#E15329"/>
<stop offset="0.4305" stop-color="#D15132"/>
<stop offset="1" stop-color="#B54D41"/>
</radialGradient>
<radialGradient id="paint25_radial_2030_254" cx="0" cy="0" r="1" gradientUnits="userSpaceOnUse" gradientTransform="translate(406.347 77.6143) rotate(-30.4783) scale(6.36925 8.48006)">
<stop stop-color="#E15329"/>
<stop offset="0.4305" stop-color="#D15132"/>
<stop offset="1" stop-color="#B54D41"/>
</radialGradient>
<radialGradient id="paint26_radial_2030_254" cx="0" cy="0" r="1" gradientUnits="userSpaceOnUse" gradientTransform="translate(301.463 67.6563) rotate(-30.4783) scale(6.36925 8.48006)">
<stop stop-color="#E15329"/>
<stop offset="0.4305" stop-color="#D15132"/>
<stop offset="1" stop-color="#B54D41"/>
</radialGradient>
<radialGradient id="paint27_radial_2030_254" cx="0" cy="0" r="1" gradientUnits="userSpaceOnUse" gradientTransform="translate(303.918 93.318) rotate(-30.4783) scale(6.36924 8.48005)">
<stop stop-color="#E15329"/>
<stop offset="0.4305" stop-color="#D15132"/>
<stop offset="1" stop-color="#B54D41"/>
</radialGradient>
<radialGradient id="paint28_radial_2030_254" cx="0" cy="0" r="1" gradientUnits="userSpaceOnUse" gradientTransform="translate(362.442 91.6214) rotate(-30.4783) scale(6.36924 8.48005)">
<stop stop-color="#E15329"/>
<stop offset="0.4305" stop-color="#D15132"/>
<stop offset="1" stop-color="#B54D41"/>
</radialGradient>
<radialGradient id="paint29_radial_2030_254" cx="0" cy="0" r="1" gradientUnits="userSpaceOnUse" gradientTransform="translate(495.281 48.0879) rotate(-30.4783) scale(6.36925 8.48006)">
<stop stop-color="#E15329"/>
<stop offset="0.4305" stop-color="#D15132"/>
<stop offset="1" stop-color="#B54D41"/>
</radialGradient>
<radialGradient id="paint30_radial_2030_254" cx="0" cy="0" r="1" gradientUnits="userSpaceOnUse" gradientTransform="translate(546.189 76.6307) rotate(-30.4783) scale(6.36924 8.48005)">
<stop stop-color="#E15329"/>
<stop offset="0.4305" stop-color="#D15132"/>
<stop offset="1" stop-color="#B54D41"/>
</radialGradient>
<radialGradient id="paint31_radial_2030_254" cx="0" cy="0" r="1" gradientUnits="userSpaceOnUse" gradientTransform="translate(254.572 206.574) rotate(-23.2655) scale(56.6939 56.6939)">
<stop stop-color="#E1672F"/>
<stop offset="0.6705" stop-color="#D1693D"/>
<stop offset="1" stop-color="#C76B46"/>
</radialGradient>
<radialGradient id="paint32_radial_2030_254" cx="0" cy="0" r="1" gradientUnits="userSpaceOnUse" gradientTransform="translate(241.135 268.652) rotate(-1.58732) scale(77.4089 103.065)">
<stop stop-color="#E17239"/>
<stop offset="0.6705" stop-color="#D17345"/>
<stop offset="1" stop-color="#C7734D"/>
</radialGradient>
<radialGradient id="paint33_radial_2030_254" cx="0" cy="0" r="1" gradientUnits="userSpaceOnUse" gradientTransform="translate(142.083 425.446) rotate(-65.0648) scale(180.589 240.44)">
<stop stop-color="#E1CF51"/>
<stop offset="0.4305" stop-color="#D1BF41"/>
<stop offset="1" stop-color="#B5A427"/>
</radialGradient>
<radialGradient id="paint34_radial_2030_254" cx="0" cy="0" r="1" gradientUnits="userSpaceOnUse" gradientTransform="translate(166.831 359.917) rotate(-9.13169) scale(84.2643 84.2642)">
<stop stop-color="#E16C2F"/>
<stop offset="0.6705" stop-color="#D16E3D"/>
<stop offset="1" stop-color="#C76F46"/>
</radialGradient>
<radialGradient id="paint35_radial_2030_254" cx="0" cy="0" r="1" gradientUnits="userSpaceOnUse" gradientTransform="translate(330.263 250.768) rotate(-22.2792) scale(7.31492 9.73965)">
<stop stop-color="#E15329"/>
<stop offset="0.4305" stop-color="#D15132"/>
<stop offset="1" stop-color="#B54D41"/>
</radialGradient>
<radialGradient id="paint36_radial_2030_254" cx="0" cy="0" r="1" gradientUnits="userSpaceOnUse" gradientTransform="translate(311.054 230.563) rotate(-22.2791) scale(7.31493 9.73965)">
<stop stop-color="#E15329"/>
<stop offset="0.4305" stop-color="#D15132"/>
<stop offset="1" stop-color="#B54D41"/>
</radialGradient>
<radialGradient id="paint37_radial_2030_254" cx="0" cy="0" r="1" gradientUnits="userSpaceOnUse" gradientTransform="translate(269.425 251.036) rotate(-22.2792) scale(7.31492 9.73964)">
<stop stop-color="#E15329"/>
<stop offset="0.4305" stop-color="#D15132"/>
<stop offset="1" stop-color="#B54D41"/>
</radialGradient>
<radialGradient id="paint38_radial_2030_254" cx="0" cy="0" r="1" gradientUnits="userSpaceOnUse" gradientTransform="translate(245.342 267.743) rotate(-22.2792) scale(7.31492 9.73966)">
<stop stop-color="#E15329"/>
<stop offset="0.4305" stop-color="#D15132"/>
<stop offset="1" stop-color="#B54D41"/>
</radialGradient>
<radialGradient id="paint39_radial_2030_254" cx="0" cy="0" r="1" gradientUnits="userSpaceOnUse" gradientTransform="translate(209.881 258.685) rotate(-22.2792) scale(7.31492 9.73966)">
<stop stop-color="#E15329"/>
<stop offset="0.4305" stop-color="#D15132"/>
<stop offset="1" stop-color="#B54D41"/>
</radialGradient>
<radialGradient id="paint40_radial_2030_254" cx="0" cy="0" r="1" gradientUnits="userSpaceOnUse" gradientTransform="translate(153.156 291.958) rotate(-22.2792) scale(7.31492 9.73966)">
<stop stop-color="#E15329"/>
<stop offset="0.4305" stop-color="#D15132"/>
<stop offset="1" stop-color="#B54D41"/>
</radialGradient>
<radialGradient id="paint41_radial_2030_254" cx="0" cy="0" r="1" gradientUnits="userSpaceOnUse" gradientTransform="translate(181.451 298.531) rotate(-22.2791) scale(7.31492 9.73964)">
<stop stop-color="#E15329"/>
<stop offset="0.4305" stop-color="#D15132"/>
<stop offset="1" stop-color="#B54D41"/>
</radialGradient>
<radialGradient id="paint42_radial_2030_254" cx="0" cy="0" r="1" gradientUnits="userSpaceOnUse" gradientTransform="translate(205.119 281.826) rotate(-22.2792) scale(4.21158 5.60763)">
<stop stop-color="#E15329"/>
<stop offset="0.4305" stop-color="#D15132"/>
<stop offset="1" stop-color="#B54D41"/>
</radialGradient>
<radialGradient id="paint43_radial_2030_254" cx="0" cy="0" r="1" gradientUnits="userSpaceOnUse" gradientTransform="translate(225.409 286.104) rotate(-22.2792) scale(4.21158 5.60763)">
<stop stop-color="#E15329"/>
<stop offset="0.4305" stop-color="#D15132"/>
<stop offset="1" stop-color="#B54D41"/>
</radialGradient>
<radialGradient id="paint44_radial_2030_254" cx="0" cy="0" r="1" gradientUnits="userSpaceOnUse" gradientTransform="translate(236.432 246) rotate(-22.2792) scale(4.21158 5.60762)">
<stop stop-color="#E15329"/>
<stop offset="0.4305" stop-color="#D15132"/>
<stop offset="1" stop-color="#B54D41"/>
</radialGradient>
<radialGradient id="paint45_radial_2030_254" cx="0" cy="0" r="1" gradientUnits="userSpaceOnUse" gradientTransform="translate(290.062 263.22) rotate(-22.2792) scale(4.21157 5.60761)">
<stop stop-color="#E15329"/>
<stop offset="0.4305" stop-color="#D15132"/>
<stop offset="1" stop-color="#B54D41"/>
</radialGradient>
<radialGradient id="paint46_radial_2030_254" cx="0" cy="0" r="1" gradientUnits="userSpaceOnUse" gradientTransform="translate(295.308 245.62) rotate(-22.2792) scale(4.21158 5.60762)">
<stop stop-color="#E15329"/>
<stop offset="0.4305" stop-color="#D15132"/>
<stop offset="1" stop-color="#B54D41"/>
</radialGradient>
<radialGradient id="paint47_radial_2030_254" cx="0" cy="0" r="1" gradientUnits="userSpaceOnUse" gradientTransform="translate(301.109 428.642) scale(178.733 178.733)">
<stop stop-color="#BE6009"/>
<stop offset="0.6447" stop-color="#B93325"/>
<stop offset="0.807" stop-color="#BB2835"/>
<stop offset="1" stop-color="#BF184E"/>
</radialGradient>
</defs>
</svg>
