<svg width="172" height="286" viewBox="0 0 172 286" fill="none" xmlns="http://www.w3.org/2000/svg">
<path d="M170.852 106.563C170.19 98.8472 168.027 92.6891 166.174 88.5426C166.453 85.6458 166.652 79.5161 163.656 72.6858C160.217 64.8426 154.556 60.6015 152.147 58.9921C147.536 46.4865 141.304 41.365 136.499 38.9935C133.9 37.7108 125.263 32.4189 116.178 34.4874C99.2587 38.3403 100.223 62.7362 84.2483 71.1474C76.1077 75.4312 62.4722 76.1412 38.244 61.7801C25.2464 58.8596 12.8205 63.4841 7.45325 72.6858C3.80106 78.9481 4.44362 85.5795 4.93499 88.5426C3.08291 92.6844 0.923728 98.8472 0.257547 106.563C-0.748812 118.278 2.21357 127.565 4.21211 132.506C2.5443 151.075 7.68003 162.336 10.9353 167.817C18.5846 180.692 27.7647 188.427 27.7647 188.427C29.6262 191.399 32.2815 196.109 34.4974 202.291C37.0251 209.339 36.6188 211.71 38.6126 215.407C42.912 223.383 52.2669 226.161 57.6861 227.77C73.9769 232.608 80.6009 225.527 90.9716 231.893C97.9783 236.196 96.9341 240.641 102.566 242.009C114.628 244.938 128.136 226.649 129.492 224.774C134.769 217.471 137.037 210.247 138.096 205.666C144.606 198.144 153.867 185.549 160.16 167.822C165.126 153.844 166.567 141.396 166.883 132.511C168.896 127.565 171.858 118.278 170.852 106.563Z" fill="url(#paint0_radial_4373_2286)"/>
<path d="M51.7093 186.552C56.1741 180.688 60.9555 173.285 65.0896 164.263C66.885 160.343 68.3543 156.566 69.5544 153.011C68.7465 153.3 67.9386 153.589 67.1307 153.882C66.7196 154.999 66.2141 156.216 65.5999 157.494C64.9715 158.8 64.2439 160.149 63.3887 161.508C58.6971 168.958 52.3755 173.441 47.6035 176.063C48.969 179.561 50.3391 183.054 51.7093 186.552Z" fill="url(#paint1_radial_4373_2286)"/>
<path d="M44.6027 188.053C38.6543 184.039 29.5074 176.56 23.1621 164.267C21.1021 160.277 19.6847 156.453 18.6973 153.016C19.5052 153.305 20.3131 153.594 21.121 153.887C22.9022 158.104 26.0394 164.121 31.5106 170.071C35.4746 174.378 39.5001 177.388 42.7318 179.438C43.3554 182.306 43.9791 185.179 44.6027 188.053Z" fill="url(#paint2_radial_4373_2286)"/>
<path d="M37.1238 150.583C32.0023 142.929 26.309 132.795 21.7875 120.233C19.0755 112.697 17.2801 105.663 16.0801 99.4343C16.888 99.7231 17.6959 100.012 18.5038 100.305C20.0866 105.971 22.5907 113.01 26.6492 120.611C30.5849 127.981 34.8891 133.827 38.6168 138.22C38.1208 142.338 37.6199 146.461 37.1238 150.583Z" fill="url(#paint3_radial_4373_2286)"/>
<path d="M119.404 185.804C114.188 179.717 108.376 171.599 103.576 161.266C101.752 157.342 100.288 153.565 99.1113 150.015C99.9192 150.304 100.727 150.593 101.535 150.886C101.946 152.003 102.452 153.22 103.066 154.498C103.066 154.498 104.02 156.476 105.277 158.512C106.888 161.11 112.775 168.03 121.643 176.437C120.902 179.561 120.15 182.68 119.404 185.804Z" fill="url(#paint4_radial_4373_2286)"/>
<path d="M128.756 101.124C132.743 94.0429 136.891 84.8175 139.514 73.5899C140.421 69.6991 141.049 65.9976 141.47 62.5327C140.596 62.6558 139.726 62.7836 138.852 62.9067C138.758 65.297 138.46 67.9667 137.808 70.8351C135.644 80.3681 130.693 87.1369 127.258 91.0088C127.759 94.379 128.255 97.7491 128.756 101.124Z" fill="url(#paint5_radial_4373_2286)"/>
<path d="M133.243 143.838C137.217 139.64 142.915 132.582 147.082 122.481C152.033 110.477 152.506 99.7845 152.317 93.6311C151.57 93.7542 150.819 93.882 150.073 94.005C149.709 98.9609 148.485 106.979 144.086 115.736C140.505 122.874 136.111 127.92 132.865 131.101C132.993 135.346 133.116 139.592 133.243 143.838Z" fill="url(#paint6_radial_4373_2286)"/>
<path d="M125.387 185.804C130.315 182.51 139.31 175.495 145.585 163.321C149.298 156.112 150.867 149.414 151.571 144.586C150.697 144.96 149.828 145.334 148.953 145.708C148.07 149.291 146.379 154.308 142.967 159.572C137.817 167.524 131.368 171.992 127.631 174.184C126.884 178.06 126.138 181.932 125.387 185.804Z" fill="url(#paint7_radial_4373_2286)"/>
<path d="M125.386 141.59C125.859 129.894 125.179 121.591 124.267 110.491C122.386 87.6244 118.744 68.8944 115.663 55.7876C116.164 54.6658 116.66 53.5393 117.161 52.4175C127.744 83.1608 147.885 156.647 113.797 226.275C108.793 236.494 103.072 245.71 96.9675 254.003C94.4728 248.257 91.9829 242.51 89.4883 236.769C91.8837 234.241 94.865 230.885 98.2762 226.265C98.2762 226.265 104.579 217.864 109.615 208.198C115.441 197.022 122.967 173.27 125.386 141.59Z" fill="url(#paint8_radial_4373_2286)"/>
<path d="M59.9396 78.2664C57.5725 77.0168 55.2007 75.7672 52.8337 74.5176C48.7137 83.1465 17.5166 151.113 51.7139 207.535C59.8923 221.025 70.1544 231.126 80.1376 238.634C79.3911 231.889 78.6399 225.143 77.8934 218.398C69.8189 211.625 64.0784 204.582 59.9396 198.163C28.9504 150.148 55.6401 87.9036 59.9396 78.2664Z" fill="url(#paint9_radial_4373_2286)"/>
<path d="M76.3904 221.025C75.5399 221.025 74.7273 220.666 74.1603 220.022C65.7362 210.56 61.0777 200.894 60.3217 191.286C60.2319 190.169 60.1989 189.07 60.1658 188.01C60.0524 184.526 59.9485 181.237 58.0161 177.417C56.1451 173.715 53.6741 171.746 50.5416 169.252C49.7006 168.58 48.8265 167.884 47.9099 167.112C47.5178 166.786 38.248 158.9 30.4333 145.741C24.5842 135.896 22.1037 123.324 23.2376 109.346C19.9209 100.845 18.5744 91.6431 19.3398 82.6923C19.8784 76.4063 21.4328 70.2624 23.9511 64.4214C23.6487 60.2891 23.9605 54.292 26.7764 47.8687C29.9231 40.6977 34.7706 36.1252 38.5598 33.4414C42.4955 23.2267 48.1415 16.2497 55.3513 12.6902C59.1075 10.8347 61.9753 10.5554 65.0086 10.2572C67.834 9.97797 71.0373 9.66558 76.0644 8.0231C81.6017 6.21494 84.6964 4.33106 87.1816 2.82111C89.6667 1.30643 91.8165 0 94.8167 0C95.4403 0 96.0687 0.0567937 96.7396 0.170395C107.309 1.98328 112.525 16.0983 115.643 24.5332C118.79 33.0438 120.287 42.0514 120.108 51.3146C121.445 54.2115 122.447 57.2503 123.089 60.3554C124.148 65.4769 124.228 70.7073 123.335 75.9235C125.499 79.0239 127.2 82.3941 128.39 85.9583C130.365 91.8561 130.904 98.2509 129.968 104.542C135.08 111.741 142.21 124.952 138.709 139.162C138.629 139.488 138.492 139.801 138.307 140.085C133.162 147.966 127.323 154.663 120.939 159.998C117.042 163.259 113.985 165.91 107.899 171.197C102.164 176.177 101.582 176.787 101.171 177.682C99.9335 180.375 100.51 182.68 101.724 186.85C102.518 189.572 103.416 192.658 103.68 196.45C104.167 203.427 102.272 210.683 98.0531 218.015C97.5617 218.872 96.6782 219.43 95.6954 219.506L76.6219 221.007C76.551 221.021 76.4707 221.025 76.3904 221.025Z" fill="url(#paint10_radial_4373_2286)"/>
<path d="M58.4746 81.6934C62.7929 85.1677 67.0688 87.0942 70.1634 88.1782C70.2816 86.4363 70.4044 84.6944 70.5225 82.9525C67.9617 82.4555 63.7331 81.2911 59.3722 78.2664C53.7073 74.3425 50.8725 69.4008 49.6583 66.9158C48.5811 66.3762 47.4991 65.8366 46.4219 65.2922C47.896 68.9606 51.2694 75.895 58.4746 81.6934Z" fill="url(#paint11_radial_4373_2286)"/>
<path d="M82.0371 56.8291C85.3113 56.1665 89.8706 54.8648 94.8079 52.1431C99.1027 49.7764 102.306 47.0973 104.522 44.9341C103.681 44.7543 102.845 44.5744 102.004 44.3945C100.128 45.8571 97.7372 47.4618 94.8079 48.9007C90.1069 51.2059 85.7696 52.2188 82.5805 52.6827C82.3962 54.0648 82.2166 55.447 82.0371 56.8291Z" fill="url(#paint12_radial_4373_2286)"/>
<path d="M80.5957 119.532C80.8367 122.898 81.0776 126.258 81.3139 129.624C85.774 128.175 92.5492 125.383 99.4803 119.892C106.851 114.056 111.264 107.656 113.687 103.496C112.431 103.794 111.169 104.097 109.912 104.395C106.884 107.794 101.195 113.213 92.4688 116.645C87.9709 118.42 83.851 119.196 80.5957 119.532Z" fill="url(#paint13_radial_4373_2286)"/>
<path d="M78.8003 83.3172C78.6208 84.8792 78.4413 86.4412 78.2617 88.0032C81.654 87.0092 85.5992 85.5371 89.7711 83.3172C97.9589 78.9624 103.638 73.5285 107.215 69.4436C106.194 69.7418 105.178 70.0447 104.158 70.3429C100.449 73.4102 95.3178 76.9839 88.6891 79.8902C85.1314 81.4569 81.7816 82.5456 78.8003 83.3172Z" fill="url(#paint14_radial_4373_2286)"/>
<path d="M113.835 128.938C111.368 133.018 106.299 140.118 97.3406 145.485C92.3136 148.501 87.5558 150.072 83.9414 150.938C84.2674 154.28 84.5887 157.627 84.9147 160.968C89.4835 158.848 95.4177 155.482 101.404 150.181C110.329 142.271 115.276 133.661 117.893 128.119C116.542 128.393 115.186 128.668 113.835 128.938Z" fill="url(#paint15_radial_4373_2286)"/>
<path d="M63.8716 48.7209C67.7978 53.2507 72.4611 55.0541 74.6628 55.7499C75.0219 54.4293 75.381 53.1087 75.74 51.7881C73.8643 51.3479 69.8295 50.1267 66.2104 46.5624C61.2353 41.6681 60.4415 35.6946 60.2761 33.948C59.558 33.3468 58.8351 32.7457 58.117 32.1445C58.0555 34.1042 58.0319 41.9853 63.8716 48.7209Z" fill="url(#paint16_radial_4373_2286)"/>
<path d="M73.4056 130.163C72.9236 126.438 72.4465 122.718 71.9645 118.993C68.7328 117.838 64.8539 116.091 60.8143 113.407C52.8201 108.096 48.0009 101.64 45.3456 97.3705C44.207 97.309 43.0683 97.2522 41.9297 97.1907C44.9629 103.112 50.0845 111.325 58.4755 119.173C63.7719 124.124 69.0163 127.659 73.4056 130.163Z" fill="url(#paint17_radial_4373_2286)"/>
<path d="M76.1037 151.601C71.2609 149.556 65.7188 146.773 59.9169 142.953C50.5148 136.757 43.6403 129.95 38.8731 124.393C37.7959 124.332 36.7139 124.275 35.6367 124.213C39.4354 130.651 45.9649 139.886 56.5009 148.358C63.9234 154.327 71.1475 158.152 76.8218 160.608C76.5809 157.607 76.3446 154.606 76.1037 151.601Z" fill="url(#paint18_radial_4373_2286)"/>
<path d="M78.6396 86.1383C78.4458 64.6345 82.5799 46.2027 82.5799 46.2027C85.051 35.1787 88.2212 26.4314 90.4938 20.7986L88.3346 20.259C86.1376 25.1676 82.9674 32.741 79.8821 42.2409C79.8821 42.2409 73.414 62.159 70.4139 85.7691C67.3901 109.554 67.1302 178.345 74.1889 271.11C74.8645 279.956 82.5752 286.744 91.3962 285.935C91.6324 285.911 91.8687 285.887 92.1049 285.859C92.3412 285.83 92.5821 285.793 92.8136 285.755C103.066 284.079 109.634 273.855 107.285 263.716C81.5878 152.832 78.8191 106.307 78.6396 86.1383Z" fill="url(#paint19_radial_4373_2286)"/>
<path d="M73.3068 102.321C73.0989 104.366 78.3574 108.271 83.3609 106.567C87.1076 105.289 89.7298 101.204 88.7943 99.5051C87.1501 96.5278 73.628 99.1879 73.3068 102.321Z" fill="#534741"/>
<path d="M66.3888 96.4095C63.6532 94.2179 59.6609 94.6676 57.4733 97.4082C55.2858 100.149 55.7346 104.149 58.4702 106.34C61.2058 108.532 65.1982 108.082 67.3857 105.341C69.5732 102.601 69.1291 98.601 66.3888 96.4095ZM66.4739 104.612C64.6879 106.851 61.4326 107.211 59.2026 105.427L65.6612 97.3277C67.896 99.1122 68.2598 102.374 66.4739 104.612Z" fill="#534741"/>
<path d="M103.27 92.282C100.534 90.0905 96.5417 90.5401 94.3542 93.2808C92.1666 96.0214 92.6155 100.021 95.3511 102.213C98.0867 104.404 102.079 103.955 104.267 101.214C106.454 98.4686 106.005 94.4736 103.27 92.282ZM103.355 100.48C101.569 102.719 98.3135 103.079 96.0834 101.294L102.542 93.1956C104.772 94.9848 105.136 98.2461 103.355 100.48Z" fill="#534741"/>
<defs>
<radialGradient id="paint0_radial_4373_2286" cx="0" cy="0" r="1" gradientUnits="userSpaceOnUse" gradientTransform="translate(85.5569 138.161) scale(95.1796 126.955)">
<stop stop-color="#5AA668"/>
<stop offset="0.4873" stop-color="#56965F"/>
<stop offset="1" stop-color="#508054"/>
</radialGradient>
<radialGradient id="paint1_radial_4373_2286" cx="0" cy="0" r="1" gradientUnits="userSpaceOnUse" gradientTransform="translate(142.001 347.11) rotate(-128.402) scale(48.4962 84.7846)">
<stop stop-color="#C8DE90"/>
<stop offset="0.457" stop-color="#B8DE8E"/>
<stop offset="1" stop-color="#9FDE8C"/>
</radialGradient>
<radialGradient id="paint2_radial_4373_2286" cx="0" cy="0" r="1" gradientUnits="userSpaceOnUse" gradientTransform="translate(-0.259525 323.641) rotate(-51.5979) scale(38.1718 66.7348)">
<stop stop-color="#C8DE90"/>
<stop offset="0.457" stop-color="#B8DE8E"/>
<stop offset="1" stop-color="#9FDE8C"/>
</radialGradient>
<radialGradient id="paint3_radial_4373_2286" cx="0" cy="0" r="1" gradientUnits="userSpaceOnUse" gradientTransform="translate(-151.021 429.981) rotate(-51.5979) scale(87.8147 153.524)">
<stop stop-color="#C8DE90"/>
<stop offset="0.457" stop-color="#B8DE8E"/>
<stop offset="1" stop-color="#9FDE8C"/>
</radialGradient>
<radialGradient id="paint4_radial_4373_2286" cx="0" cy="0" r="1" gradientUnits="userSpaceOnUse" gradientTransform="translate(42.3294 342.296) rotate(-51.5979) scale(46.2326 80.8273)">
<stop stop-color="#C8DE90"/>
<stop offset="0.457" stop-color="#B8DE8E"/>
<stop offset="1" stop-color="#9FDE8C"/>
</radialGradient>
<radialGradient id="paint5_radial_4373_2286" cx="0" cy="0" r="1" gradientUnits="userSpaceOnUse" gradientTransform="translate(314.705 345.327) rotate(-128.402) scale(79.6241 139.205)">
<stop stop-color="#C8DE90"/>
<stop offset="0.457" stop-color="#B8DE8E"/>
<stop offset="1" stop-color="#9FDE8C"/>
</radialGradient>
<radialGradient id="paint6_radial_4373_2286" cx="0" cy="0" r="1" gradientUnits="userSpaceOnUse" gradientTransform="translate(338.57 433.635) rotate(-128.402) scale(92.3927 161.528)">
<stop stop-color="#C8DE90"/>
<stop offset="0.457" stop-color="#B8DE8E"/>
<stop offset="1" stop-color="#9FDE8C"/>
</radialGradient>
<radialGradient id="paint7_radial_4373_2286" cx="0" cy="0" r="1" gradientUnits="userSpaceOnUse" gradientTransform="translate(212.684 368.871) rotate(-128.402) scale(53.3741 93.3126)">
<stop stop-color="#C8DE90"/>
<stop offset="0.457" stop-color="#B8DE8E"/>
<stop offset="1" stop-color="#9FDE8C"/>
</radialGradient>
<radialGradient id="paint8_radial_4373_2286" cx="0" cy="0" r="1" gradientUnits="userSpaceOnUse" gradientTransform="translate(96.8958 238.242) rotate(-79.8927) scale(134.55 178.841)">
<stop stop-color="#C8DE90"/>
<stop offset="0.457" stop-color="#B8DE8E"/>
<stop offset="1" stop-color="#9FDE8C"/>
</radialGradient>
<radialGradient id="paint9_radial_4373_2286" cx="0" cy="0" r="1" gradientUnits="userSpaceOnUse" gradientTransform="translate(70.0795 228.937) rotate(-100.107) scale(126.759 168.486)">
<stop stop-color="#C8DE90"/>
<stop offset="0.457" stop-color="#B8DE8E"/>
<stop offset="1" stop-color="#9FDE8C"/>
</radialGradient>
<radialGradient id="paint10_radial_4373_2286" cx="0" cy="0" r="1" gradientUnits="userSpaceOnUse" gradientTransform="translate(79.3894 110.496) scale(80.0392 122.892)">
<stop stop-color="#4CCC4F"/>
<stop offset="0.4873" stop-color="#56BC5E"/>
<stop offset="1" stop-color="#64A671"/>
</radialGradient>
<radialGradient id="paint11_radial_4373_2286" cx="0" cy="0" r="1" gradientUnits="userSpaceOnUse" gradientTransform="translate(73.6641 171.095) rotate(-96.658) scale(30.2299 52.7826)">
<stop stop-color="#E6FFA6"/>
<stop offset="0.4072" stop-color="#D6FFA4"/>
<stop offset="1" stop-color="#B7FFA1"/>
</radialGradient>
<radialGradient id="paint12_radial_4373_2286" cx="0" cy="0" r="1" gradientUnits="userSpaceOnUse" gradientTransform="translate(73.6645 171.095) rotate(-96.658) scale(30.2299 52.7825)">
<stop stop-color="#E6FFA6"/>
<stop offset="0.4072" stop-color="#D6FFA4"/>
<stop offset="1" stop-color="#B7FFA1"/>
</radialGradient>
<radialGradient id="paint13_radial_4373_2286" cx="0" cy="0" r="1" gradientUnits="userSpaceOnUse" gradientTransform="translate(73.6642 171.095) rotate(-96.6581) scale(30.2299 52.7826)">
<stop stop-color="#E6FFA6"/>
<stop offset="0.4072" stop-color="#D6FFA4"/>
<stop offset="1" stop-color="#B7FFA1"/>
</radialGradient>
<radialGradient id="paint14_radial_4373_2286" cx="0" cy="0" r="1" gradientUnits="userSpaceOnUse" gradientTransform="translate(73.6642 171.095) rotate(-96.6581) scale(30.2299 52.7826)">
<stop stop-color="#E6FFA6"/>
<stop offset="0.4072" stop-color="#D6FFA4"/>
<stop offset="1" stop-color="#B7FFA1"/>
</radialGradient>
<radialGradient id="paint15_radial_4373_2286" cx="0" cy="0" r="1" gradientUnits="userSpaceOnUse" gradientTransform="translate(78.7071 176.556) rotate(-107.99) scale(30.2287 52.7924)">
<stop stop-color="#E6FFA6"/>
<stop offset="0.4072" stop-color="#D6FFA4"/>
<stop offset="1" stop-color="#B7FFA1"/>
</radialGradient>
<radialGradient id="paint16_radial_4373_2286" cx="0" cy="0" r="1" gradientUnits="userSpaceOnUse" gradientTransform="translate(73.6655 171.095) rotate(-96.658) scale(30.2299 52.7826)">
<stop stop-color="#E6FFA6"/>
<stop offset="0.4072" stop-color="#D6FFA4"/>
<stop offset="1" stop-color="#B7FFA1"/>
</radialGradient>
<radialGradient id="paint17_radial_4373_2286" cx="0" cy="0" r="1" gradientUnits="userSpaceOnUse" gradientTransform="translate(73.6651 171.095) rotate(-96.658) scale(30.2299 52.7826)">
<stop stop-color="#E6FFA6"/>
<stop offset="0.4072" stop-color="#D6FFA4"/>
<stop offset="1" stop-color="#B7FFA1"/>
</radialGradient>
<radialGradient id="paint18_radial_4373_2286" cx="0" cy="0" r="1" gradientUnits="userSpaceOnUse" gradientTransform="translate(73.6654 171.095) rotate(-96.658) scale(30.2299 52.7826)">
<stop stop-color="#E6FFA6"/>
<stop offset="0.4072" stop-color="#D6FFA4"/>
<stop offset="1" stop-color="#B7FFA1"/>
</radialGradient>
<radialGradient id="paint19_radial_4373_2286" cx="0" cy="0" r="1" gradientUnits="userSpaceOnUse" gradientTransform="translate(78.7496 265.967) rotate(-81.8854) scale(113.018 150.212)">
<stop stop-color="#E6FFA6"/>
<stop offset="0.4072" stop-color="#D6FFA4"/>
<stop offset="1" stop-color="#B7FFA1"/>
</radialGradient>
</defs>
</svg>
