<svg width="211" height="162" viewBox="0 0 211 162" fill="none" xmlns="http://www.w3.org/2000/svg">
<path d="M177.446 73.312C181.023 68.7862 183.435 63.6869 182.914 58.308C182.184 50.7634 176.024 45.8963 172.257 42.7022C150.626 24.3761 155.194 16.7272 141.244 7.87452C115.012 -8.77394 79.1744 5.77036 73.1613 8.211C60.8365 13.2155 50.8193 22.362 30.7898 40.6644C16.5696 53.659 8.78424 63.4831 3.86569 78.4729C3.27338 80.2832 -7.9663 116.139 11.1961 136.593C11.6605 137.091 12.2812 137.863 13.2716 138.806C23.6441 148.654 37.5421 149.981 46.1898 150.341C83.9935 151.901 92.2242 140.569 112.751 148.014C122.001 151.37 122.93 154.616 135.122 158.199C142.253 160.293 161.686 166.009 170.125 157.384C175.124 152.275 171.196 147.308 174.418 137.868C181.384 117.452 207.891 116.779 209.933 104.69C210.942 98.7183 206.156 89.0269 177.446 73.312Z" fill="url(#paint0_radial_4373_2273)"/>
<path d="M86.9887 74.3594C83.577 74.3594 80.8145 77.127 80.8145 80.5344C80.8145 83.9466 83.577 86.7095 86.9887 86.7095C90.4004 86.7095 93.1629 83.9418 93.1629 80.5344C93.1629 77.1223 90.4004 74.3594 86.9887 74.3594ZM86.9887 85.5721C84.2072 85.5721 81.9517 83.3163 81.9517 80.5344C81.9517 77.7526 84.2072 75.4968 86.9887 75.4968V85.5721Z" fill="white"/>
<path d="M123.12 74.3594C119.708 74.3594 116.945 77.127 116.945 80.5344C116.945 83.9466 119.708 86.7095 123.12 86.7095C126.531 86.7095 129.294 83.9418 129.294 80.5344C129.294 77.1223 126.531 74.3594 123.12 74.3594ZM123.12 85.5721C120.338 85.5721 118.083 83.3163 118.083 80.5344C118.083 77.7526 120.338 75.4968 123.12 75.4968V85.5721Z" fill="white"/>
<path d="M104.82 87.6335C101.214 87.6335 98.9015 84.1693 98.622 83.7285C98.1481 82.9797 98.3708 81.9893 99.1195 81.5106C99.8729 81.0367 100.863 81.2594 101.337 82.0082C101.413 82.122 103.18 84.8991 105.441 84.3446C106.872 84.0034 108.052 82.4632 108.682 81.1362C109.061 80.3353 110.013 79.9894 110.819 80.3685C111.62 80.7476 111.961 81.7049 111.586 82.5058C110.999 83.7475 109.298 86.7189 106.194 87.4677C105.715 87.5814 105.256 87.6335 104.82 87.6335Z" fill="white"/>
<path d="M178.712 53.9338C180.058 56.3129 181.778 60.5875 181.133 67.4735C182.507 64.5542 183.223 61.4785 182.92 58.308C182.19 50.7634 176.03 45.8963 172.263 42.7022C150.632 24.3761 155.2 16.7272 141.249 7.87452C115.017 -8.77394 79.1801 5.77036 73.167 8.211C60.8422 13.2155 50.825 22.362 30.7954 40.6644C16.5752 53.659 8.78991 63.4831 3.87136 78.4729C3.72921 78.8994 2.99948 81.2263 2.21289 84.7949C3.29326 83.558 4.4921 82.2452 5.81888 80.8709C10.9554 75.5299 13.3341 74.0466 18.3095 69.5492C28.6773 60.1847 29.8525 56.2323 41.3386 43.7874C45.0393 39.7781 52.1518 32.0676 58.9041 26.6129C83.2647 6.92197 122.163 1.00757 131.891 13.7321C135.364 18.2768 133.412 22.9638 139.193 29.2716C142.818 33.224 145.637 33.6173 154.854 38.0294C168.439 44.5409 175.239 47.7967 178.712 53.9338Z" fill="url(#paint1_radial_4373_2273)"/>
<path d="M170.124 157.379C171.465 156.009 172.162 154.645 172.527 153.204C170.868 154.512 168.906 155.588 166.608 156.204C157.918 158.54 150.289 152.768 147.095 150.346C136.457 142.294 139.267 134.456 131.482 128.878C124.009 123.523 112.869 126.144 90.8921 131.612C72.6205 136.157 67.8441 139.314 53.0316 142.934C43.4456 145.275 34.7884 146.555 27.5527 147.256C34.3904 149.588 41.1711 150.128 46.1845 150.332C83.9881 151.891 92.2188 140.56 112.746 148.005C121.995 151.36 122.924 154.607 135.116 158.189C142.248 160.289 161.685 165.999 170.124 157.379Z" fill="url(#paint2_radial_4373_2273)"/>
<defs>
<radialGradient id="paint0_radial_4373_2273" cx="0" cy="0" r="1" gradientUnits="userSpaceOnUse" gradientTransform="translate(101.242 17.7977) rotate(88.2466) scale(130.683 167.362)">
<stop stop-color="#412817"/>
<stop offset="0.124" stop-color="#593726"/>
<stop offset="0.2874" stop-color="#724735"/>
<stop offset="0.4368" stop-color="#81513E"/>
<stop offset="0.5584" stop-color="#865441"/>
<stop offset="0.6734" stop-color="#82523F"/>
<stop offset="0.7754" stop-color="#784B38"/>
<stop offset="0.8725" stop-color="#663F2D"/>
<stop offset="0.9659" stop-color="#4C2F1E"/>
<stop offset="1" stop-color="#412817"/>
</radialGradient>
<radialGradient id="paint1_radial_4373_2273" cx="0" cy="0" r="1" gradientUnits="userSpaceOnUse" gradientTransform="translate(91.2903 77.9155) scale(102.155 102.169)">
<stop stop-color="#DFBF98"/>
<stop offset="0.5161" stop-color="#B18D76"/>
<stop offset="0.7742" stop-color="#9F7968"/>
<stop offset="0.823" stop-color="#A8836F"/>
<stop offset="0.9052" stop-color="#BF9D83"/>
<stop offset="1" stop-color="#E0C3A0"/>
</radialGradient>
<radialGradient id="paint2_radial_4373_2273" cx="0" cy="0" r="1" gradientUnits="userSpaceOnUse" gradientTransform="translate(110.899 125.768) rotate(90.1632) scale(49.3373 96.802)">
<stop stop-color="#DFBF98"/>
<stop offset="0.443" stop-color="#B18D76"/>
<stop offset="0.6645" stop-color="#9F7968"/>
<stop offset="0.737" stop-color="#A8836F"/>
<stop offset="0.8592" stop-color="#BF9D83"/>
<stop offset="1" stop-color="#E0C3A0"/>
</radialGradient>
</defs>
</svg>
