<svg width="508" height="524" viewBox="0 0 508 524" fill="none" xmlns="http://www.w3.org/2000/svg">
<path d="M342.817 240.536C316.052 278.341 309.32 310.009 308.402 332.541C307.035 366.292 318.449 385.506 305.811 415.143C302.608 422.647 291.552 448.588 265.48 456.51C242.102 463.606 212.338 454.54 199.945 435.224C182.534 408.068 209.187 377.706 214.144 321.556C216.51 294.726 214.021 256.33 191 208C241.623 218.852 292.225 229.694 342.817 240.536Z" fill="url(#paint0_radial_1850_331)"/>
<path d="M458.918 208.971C430.111 173.368 417.758 142.15 399.513 101.332C391.807 84.0872 347.332 53.3412 299.015 42.1445C256.915 32.398 221.825 38.9069 207.847 42.1445C159.542 53.33 115.055 84.0759 107.35 101.332C89.1048 142.139 76.74 173.38 47.9447 208.971C32.4551 228.115 27.6503 247.957 31.0215 265.899C37.4503 300.051 85.5544 317.194 118.572 329.178C136.358 335.631 256.153 377.135 388.268 329.178C421.286 317.194 518.894 283.11 458.918 208.971Z" fill="url(#paint1_radial_1850_331)"/>
<path d="M160.576 232C153.079 232 147 238.085 147 245.588C147 253.092 153.079 259.177 160.576 259.177C168.073 259.177 174.152 253.092 174.152 245.588C174.142 238.085 168.073 232 160.576 232ZM149.499 245.588C149.499 239.463 154.456 234.501 160.576 234.501C166.696 234.501 171.653 239.463 171.653 245.588H149.499Z" fill="white"/>
<path d="M239.993 232C232.496 232 226.417 238.085 226.417 245.588C226.417 253.092 232.496 259.177 239.993 259.177C247.49 259.177 253.569 253.092 253.569 245.588C253.569 238.085 247.49 232 239.993 232ZM228.916 245.588C228.916 239.463 233.873 234.501 239.993 234.501C246.113 234.501 251.07 239.463 251.07 245.588H228.916Z" fill="white"/>
<path d="M193.838 255.144C193.695 251.336 197.469 243.996 201.233 246.109C204.089 247.712 206.986 254.797 206.71 258.258C206.18 264.802 194.083 261.708 193.838 255.144Z" fill="white"/>
<defs>
<radialGradient id="paint0_radial_1850_331" cx="0" cy="0" r="1" gradientUnits="userSpaceOnUse" gradientTransform="translate(256.251 251.201) rotate(-170.511) scale(187.764 187.922)">
<stop stop-color="#8D4531"/>
<stop offset="0.1432" stop-color="#A76953"/>
<stop offset="0.3272" stop-color="#C39078"/>
<stop offset="0.4961" stop-color="#D8AD93"/>
<stop offset="0.643" stop-color="#E5BEA3"/>
<stop offset="0.7513" stop-color="#E9C4A9"/>
<stop offset="1" stop-color="#E5D87A"/>
</radialGradient>
<radialGradient id="paint1_radial_1850_331" cx="0" cy="0" r="1" gradientUnits="userSpaceOnUse" gradientTransform="translate(258.769 50.6619) rotate(87.6246) scale(219.068 436.542)">
<stop stop-color="#FFB575"/>
<stop offset="0.048" stop-color="#F5AD70"/>
<stop offset="0.2367" stop-color="#D1925F"/>
<stop offset="0.4272" stop-color="#B57C51"/>
<stop offset="0.6177" stop-color="#A16D48"/>
<stop offset="0.8085" stop-color="#956442"/>
<stop offset="1" stop-color="#916140"/>
</radialGradient>
</defs>
</svg>
