<svg width="513" height="513" viewBox="0 0 513 513" fill="none" xmlns="http://www.w3.org/2000/svg">
<path d="M482.72 226.37H434.29C429.69 198.86 418.88 173.48 403.33 151.68L437.59 117.42C449.28 105.72 449.28 86.76 437.59 75.06C425.89 63.37 406.93 63.37 395.23 75.06L360.97 109.32C339.17 93.78 313.79 82.96 286.28 78.36V29.95C286.29 13.41 272.88 0 256.34 0C239.8 0 226.39 13.41 226.39 29.95V78.38C198.88 82.98 173.5 93.79 151.7 109.34L117.44 75.08C105.74 63.39 86.78 63.39 75.08 75.08C63.39 86.78 63.39 105.74 75.08 117.44L109.34 151.7C93.8 173.5 82.98 198.88 78.38 226.39H29.95C13.41 226.39 0 239.8 0 256.34C0 272.88 13.41 286.29 29.95 286.29H78.38C82.98 313.8 93.79 339.18 109.34 360.98L75.08 395.24C63.39 406.94 63.39 425.9 75.08 437.6C80.93 443.44 88.6 446.37 96.26 446.37C103.92 446.37 111.59 443.44 117.44 437.6L151.7 403.34C173.5 418.88 198.88 429.7 226.39 434.3V482.73C226.39 499.27 239.8 512.68 256.34 512.68C272.88 512.68 286.29 499.27 286.29 482.73V434.3C313.8 429.7 339.18 418.89 360.98 403.34L395.24 437.6C401.09 443.44 408.76 446.37 416.42 446.37C424.08 446.37 431.75 443.44 437.6 437.6C449.29 425.9 449.29 406.94 437.6 395.24L403.34 360.98C418.88 339.18 429.7 313.8 434.3 286.29H482.73C499.27 286.29 512.68 272.88 512.68 256.34C512.66 239.78 499.26 226.37 482.72 226.37Z" fill="url(#paint0_radial_3620_1514)"/>
<path d="M239.3 170C231.4 170 225 176.4 225 184.3C225 192.2 231.4 198.6 239.3 198.6C247.2 198.6 253.6 192.2 253.6 184.3C253.61 176.41 247.2 170 239.3 170ZM239.3 195.97C232.86 195.97 227.63 190.75 227.63 184.3C227.63 177.86 232.85 172.63 239.3 172.63V195.97Z" fill="#733E34"/>
<path d="M323.001 170C315.101 170 308.701 176.4 308.701 184.3C308.701 192.2 315.101 198.6 323.001 198.6C330.901 198.6 337.301 192.2 337.301 184.3C337.301 176.41 330.901 170 323.001 170ZM323.001 195.97C316.561 195.97 311.331 190.75 311.331 184.3C311.331 177.86 316.551 172.63 323.001 172.63V195.97Z" fill="#733E34"/>
<path d="M280.601 200.75C272.251 200.75 266.901 192.73 266.251 191.71C265.151 189.98 265.671 187.68 267.401 186.58C269.141 185.48 271.441 186 272.531 187.73C272.701 188 276.801 194.42 282.031 193.14C285.351 192.34 288.081 188.78 289.531 185.7C290.411 183.84 292.611 183.04 294.481 183.93C296.341 184.81 297.131 187.02 296.251 188.88C294.891 191.76 290.951 198.64 283.751 200.37C282.681 200.63 281.621 200.75 280.601 200.75Z" fill="#733E34"/>
<defs>
<radialGradient id="paint0_radial_3620_1514" cx="0" cy="0" r="1" gradientUnits="userSpaceOnUse" gradientTransform="translate(256.34 256.323) scale(256.323 256.323)">
<stop stop-color="#FFE642"/>
<stop offset="0.3865" stop-color="#FFE442"/>
<stop offset="0.5979" stop-color="#FFDC42"/>
<stop offset="0.767" stop-color="#FFCE42"/>
<stop offset="0.9128" stop-color="#FFBB42"/>
<stop offset="1" stop-color="#FFAB42"/>
</radialGradient>
</defs>
</svg>
