<svg width="513" height="513" viewBox="0 0 513 513" fill="none" xmlns="http://www.w3.org/2000/svg">
<path d="M482.72 226.37H434.29C429.69 198.86 418.88 173.48 403.33 151.68L437.59 117.42C449.28 105.72 449.28 86.76 437.59 75.06C425.89 63.37 406.93 63.37 395.23 75.06L360.97 109.32C339.17 93.78 313.79 82.96 286.28 78.36V29.95C286.29 13.41 272.88 0 256.34 0C239.8 0 226.39 13.41 226.39 29.95V78.38C198.88 82.98 173.5 93.79 151.7 109.34L117.44 75.08C105.74 63.39 86.78 63.39 75.08 75.08C63.39 86.78 63.39 105.74 75.08 117.44L109.34 151.7C93.8 173.5 82.98 198.88 78.38 226.39H29.95C13.41 226.39 0 239.8 0 256.34C0 272.88 13.41 286.29 29.95 286.29H78.38C82.98 313.8 93.79 339.18 109.34 360.98L75.08 395.24C63.39 406.94 63.39 425.9 75.08 437.6C80.93 443.44 88.6 446.37 96.26 446.37C103.92 446.37 111.59 443.44 117.44 437.6L151.7 403.34C173.5 418.88 198.88 429.7 226.39 434.3V482.73C226.39 499.27 239.8 512.68 256.34 512.68C272.88 512.68 286.29 499.27 286.29 482.73V434.3C313.8 429.7 339.18 418.89 360.98 403.34L395.24 437.6C401.09 443.44 408.76 446.37 416.42 446.37C424.08 446.37 431.75 443.44 437.6 437.6C449.29 425.9 449.29 406.94 437.6 395.24L403.34 360.98C418.88 339.18 429.7 313.8 434.3 286.29H482.73C499.27 286.29 512.68 272.88 512.68 256.34C512.66 239.78 499.26 226.37 482.72 226.37Z" fill="url(#paint0_radial_3620_1515)"/>
<path d="M169.3 225C161.4 225 155 231.4 155 239.3C155 247.2 161.4 253.6 169.3 253.6C177.2 253.6 183.6 247.2 183.6 239.3C183.61 231.41 177.2 225 169.3 225ZM169.3 250.97C162.86 250.97 157.63 245.75 157.63 239.3C157.63 232.86 162.85 227.63 169.3 227.63V250.97Z" fill="#733E34"/>
<path d="M253.001 225C245.101 225 238.701 231.4 238.701 239.3C238.701 247.2 245.101 253.6 253.001 253.6C260.901 253.6 267.301 247.2 267.301 239.3C267.301 231.41 260.901 225 253.001 225ZM253.001 250.97C246.561 250.97 241.331 245.75 241.331 239.3C241.331 232.86 246.551 227.63 253.001 227.63V250.97Z" fill="#733E34"/>
<path d="M210.601 255.75C202.251 255.75 196.901 247.73 196.251 246.71C195.151 244.98 195.671 242.68 197.401 241.58C199.141 240.48 201.441 241 202.531 242.73C202.701 243 206.801 249.42 212.031 248.14C215.351 247.34 218.081 243.78 219.531 240.7C220.411 238.84 222.611 238.04 224.481 238.93C226.341 239.81 227.131 242.02 226.251 243.88C224.891 246.76 220.951 253.64 213.751 255.37C212.681 255.63 211.621 255.75 210.601 255.75Z" fill="#733E34"/>
<defs>
<radialGradient id="paint0_radial_3620_1515" cx="0" cy="0" r="1" gradientUnits="userSpaceOnUse" gradientTransform="translate(256.34 256.323) scale(256.323 256.323)">
<stop stop-color="#FFE642"/>
<stop offset="0.3865" stop-color="#FFE442"/>
<stop offset="0.5979" stop-color="#FFDC42"/>
<stop offset="0.767" stop-color="#FFCE42"/>
<stop offset="0.9128" stop-color="#FFBB42"/>
<stop offset="1" stop-color="#FFAB42"/>
</radialGradient>
</defs>
</svg>
