<svg width="244" height="243" viewBox="0 0 244 243" fill="none" xmlns="http://www.w3.org/2000/svg">
<path d="M228.854 107.295H205.899C203.719 94.2556 198.595 82.226 191.225 71.8933L207.464 55.6547C213.004 50.1092 213.004 41.1225 207.464 35.5769C201.918 30.0361 192.931 30.0361 187.386 35.5769L171.147 51.8155C160.814 44.4498 148.785 39.3214 135.746 37.1411V14.1957C135.75 6.35607 129.394 0 121.555 0C113.715 0 107.359 6.35607 107.359 14.1957V37.1505C94.3198 39.3308 82.2902 44.4546 71.9574 51.825L55.7188 35.5864C50.1733 30.0456 41.1866 30.0456 35.6411 35.5864C30.1002 41.132 30.1002 50.1186 35.6411 55.6642L51.8796 71.9027C44.514 82.2355 39.3855 94.2651 37.2052 107.304H14.2504C6.41073 107.304 0.0546875 113.66 0.0546875 121.5C0.0546875 129.34 6.41073 135.696 14.2504 135.696H37.2052C39.3855 148.735 44.5092 160.765 51.8796 171.097L35.6411 187.336C30.1002 192.881 30.1002 201.868 35.6411 207.414C38.4139 210.182 42.0493 211.57 45.68 211.57C49.3107 211.57 52.9461 210.182 55.7188 207.414L71.9574 191.175C82.2902 198.541 94.3198 203.669 107.359 205.849V228.804C107.359 236.644 113.715 243 121.555 243C129.394 243 135.75 236.644 135.75 228.804V205.849C148.79 203.669 160.819 198.545 171.152 191.175L187.39 207.414C190.163 210.182 193.799 211.57 197.429 211.57C201.06 211.57 204.695 210.182 207.468 207.414C213.009 201.868 213.009 192.881 207.468 187.336L191.23 171.097C198.595 160.765 203.724 148.735 205.904 135.696H228.859C236.699 135.696 243.055 129.34 243.055 121.5C243.045 113.651 236.694 107.295 228.854 107.295Z" fill="url(#paint0_radial_4373_2262)"/>
<path d="M101.719 114.205C97.9749 114.205 94.9414 117.239 94.9414 120.983C94.9414 124.728 97.9749 127.761 101.719 127.761C105.464 127.761 108.497 124.728 108.497 120.983C108.502 117.244 105.464 114.205 101.719 114.205ZM101.719 126.515C98.6669 126.515 96.188 124.041 96.188 120.983C96.188 117.931 98.6622 115.452 101.719 115.452V126.515Z" fill="#733E34"/>
<path d="M141.391 114.205C137.647 114.205 134.613 117.239 134.613 120.983C134.613 124.728 137.647 127.761 141.391 127.761C145.136 127.761 148.169 124.728 148.169 120.983C148.169 117.244 145.136 114.205 141.391 114.205ZM141.391 126.515C138.339 126.515 135.86 124.041 135.86 120.983C135.86 117.931 138.334 115.452 141.391 115.452V126.515Z" fill="#733E34"/>
<path d="M121.294 128.78C117.336 128.78 114.8 124.979 114.492 124.496C113.971 123.676 114.218 122.585 115.037 122.064C115.862 121.543 116.952 121.789 117.469 122.609C117.55 122.737 119.493 125.78 121.972 125.173C123.545 124.794 124.839 123.107 125.527 121.647C125.944 120.765 126.987 120.386 127.873 120.808C128.754 121.225 129.129 122.273 128.712 123.154C128.067 124.519 126.2 127.78 122.787 128.6C122.28 128.723 121.777 128.78 121.294 128.78Z" fill="#733E34"/>
<defs>
<radialGradient id="paint0_radial_4373_2262" cx="0" cy="0" r="1" gradientUnits="userSpaceOnUse" gradientTransform="translate(121.555 121.492) scale(121.492)">
<stop stop-color="#FFE642"/>
<stop offset="0.3865" stop-color="#FFE442"/>
<stop offset="0.5979" stop-color="#FFDC42"/>
<stop offset="0.767" stop-color="#FFCE42"/>
<stop offset="0.9128" stop-color="#FFBB42"/>
<stop offset="1" stop-color="#FFAB42"/>
</radialGradient>
</defs>
</svg>
