<svg width="251" height="183" viewBox="0 0 251 183" fill="none" xmlns="http://www.w3.org/2000/svg">
<path d="M94.3083 102.422C94.8007 101.53 95.293 100.639 95.7854 99.7477C95.9463 99.5676 96.1262 99.4064 96.2635 99.212C101.116 92.3566 109.666 89.128 117.847 91.0291C121.355 91.8446 124.446 93.4423 127.244 95.6942C129.412 97.4389 131.841 97.5669 134.355 96.5665C141.645 93.6651 148.571 94.3715 155.048 98.7853C162.518 103.882 165.766 112.951 163.403 121.694C163.067 122.94 162.438 124.069 162.073 125.301C161.813 125.771 161.552 126.24 161.297 126.709C161.126 126.913 160.923 127.098 160.785 127.321C159.294 129.734 157.254 131.64 154.991 133.266C150.455 136.523 145.39 138.647 139.922 139.79C130.558 141.752 121.534 140.605 112.904 136.585C106.489 133.598 101.054 129.293 96.8316 123.576C92.5661 117.801 91.4679 111.429 93.5698 104.536C93.7876 103.825 94.0622 103.128 94.3083 102.422Z" fill="#262626"/>
<path d="M33.5273 45.6726C34.2847 44.9899 35.0422 44.3119 35.7949 43.6292C36.0033 43.5107 36.2258 43.4159 36.4199 43.2784C43.2418 38.3857 52.374 38.125 59.4847 42.5957C62.5335 44.511 64.9384 47.038 66.8463 50.0769C68.3281 52.4379 70.5815 53.3529 73.2848 53.2296C81.1245 52.8693 87.4399 55.804 92.1172 62.0905C97.5142 69.3488 97.6278 78.9824 92.548 86.4779C91.8237 87.5493 90.8627 88.4074 90.1147 89.4552C89.717 89.8155 89.3193 90.1711 88.9217 90.5314C88.6944 90.6641 88.4435 90.7732 88.24 90.9391C86.0433 92.7312 83.4916 93.869 80.8263 94.6608C75.4767 96.2585 69.9992 96.6093 64.4555 95.9029C54.9635 94.6939 46.8066 90.6641 39.961 84.041C34.8718 79.1247 31.1413 73.2743 29.0109 66.4901C26.8616 59.6394 27.8984 53.2533 32.1307 47.4267C32.5757 46.8246 33.0633 46.2557 33.5273 45.6726Z" fill="#262626"/>
<path d="M188.873 78.3945C189.725 77.8351 190.572 77.2756 191.424 76.7162C191.647 76.6308 191.884 76.5692 192.097 76.4649C199.577 72.6579 208.647 73.7815 215 79.2763C217.727 81.6325 219.72 84.4913 221.15 87.7863C222.258 90.3417 224.35 91.5885 227.039 91.873C234.841 92.7027 240.645 96.557 244.324 103.479C248.566 111.467 247.226 121.011 241.076 127.648C240.2 128.596 239.121 129.303 238.222 130.223C237.772 130.516 237.327 130.81 236.877 131.104C236.631 131.204 236.366 131.27 236.138 131.408C233.696 132.849 231.007 133.584 228.247 133.968C222.717 134.736 217.249 134.257 211.876 132.721C202.677 130.094 195.221 124.875 189.45 117.294C185.161 111.662 182.354 105.318 181.27 98.2922C180.176 91.195 182.164 85.0413 187.225 79.9211C187.76 79.3901 188.328 78.9018 188.873 78.3945Z" fill="#262626"/>
<path d="M59.6691 53.7795C58.1116 53.4429 56.5777 54.429 56.2416 55.9888C55.9054 57.5485 56.8901 59.0846 58.4477 59.4212C60.0052 59.7578 61.5391 58.7717 61.8752 57.2119C62.2113 55.6522 61.2219 54.1161 59.6691 53.7795ZM58.5565 58.8997C57.2878 58.6247 56.483 57.3684 56.7576 56.0978C57.0322 54.8272 58.2867 54.0213 59.5555 54.2963L58.5565 58.8997Z" fill="#C7B299"/>
<path d="M76.1437 57.359C74.5862 57.0224 73.0523 58.0085 72.7162 59.5683C72.38 61.128 73.3647 62.6641 74.9223 63.0007C76.4798 63.3373 78.0137 62.3512 78.3498 60.7914C78.6859 59.2364 77.6965 57.7003 76.1437 57.359ZM75.0359 62.4792C73.7671 62.2042 72.9623 60.9479 73.2369 59.6773C73.5115 58.4067 74.7661 57.6008 76.0348 57.8757L75.0359 62.4792Z" fill="#C7B299"/>
<path d="M66.4859 61.6068C64.8431 61.2513 64.1283 59.4402 64.0478 59.2079C63.9058 58.8192 64.1046 58.3877 64.4928 58.2455C64.881 58.1033 65.3118 58.3024 65.4538 58.6912C65.4775 58.7528 66.0077 60.194 67.0919 60.1656C67.7783 60.1514 68.4695 59.5635 68.8861 59.023C69.137 58.6959 69.6057 58.6295 69.9371 58.8855C70.2638 59.1368 70.3253 59.6109 70.0744 59.938C69.6814 60.4453 68.6115 61.6353 67.125 61.6685C66.8978 61.6732 66.6847 61.6495 66.4859 61.6068Z" fill="#C7B299"/>
<path d="M138.171 99.4918C139.682 99.2405 141.111 100.265 141.362 101.777C141.613 103.289 140.59 104.721 139.08 104.972C137.57 105.224 136.14 104.2 135.889 102.687C135.639 101.17 136.661 99.743 138.171 99.4918ZM138.995 104.465C140.226 104.261 141.064 103.095 140.86 101.858C140.657 100.62 139.492 99.7857 138.257 99.9896L138.995 104.465Z" fill="#C7B299"/>
<path d="M122.16 102.142C123.67 101.891 125.099 102.915 125.35 104.427C125.601 105.939 124.579 107.371 123.069 107.622C121.558 107.874 120.129 106.85 119.878 105.337C119.627 103.825 120.649 102.393 122.16 102.142ZM122.983 107.12C124.214 106.916 125.052 105.75 124.849 104.512C124.645 103.275 123.48 102.441 122.245 102.644L122.983 107.12Z" fill="#C7B299"/>
<path d="M131.244 106.688C132.839 106.423 133.611 104.716 133.701 104.503C133.857 104.138 133.687 103.711 133.318 103.555C132.948 103.398 132.527 103.569 132.371 103.939C132.347 103.996 131.765 105.356 130.723 105.276C130.065 105.228 129.426 104.631 129.052 104.09C128.825 103.763 128.38 103.678 128.048 103.906C127.722 104.133 127.641 104.583 127.864 104.911C128.214 105.418 129.189 106.613 130.619 106.717C130.842 106.731 131.05 106.722 131.244 106.688Z" fill="#C7B299"/>
<path d="M218.598 98.3871C218.139 99.1599 219.516 101.677 221.817 101.919C223.54 102.099 225.33 100.957 225.268 100.113C225.159 98.6289 219.298 97.2019 218.598 98.3871Z" fill="#C7B299"/>
<path d="M216.933 94.7698C216.246 93.3949 214.58 92.8402 213.207 93.5276C211.834 94.2151 211.28 95.8839 211.966 97.2588C212.653 98.6336 214.319 99.1883 215.692 98.5009C217.065 97.8135 217.619 96.1399 216.933 94.7698ZM215.465 98.041C214.348 98.6005 212.984 98.1501 212.426 97.0265L216.473 94.9973C217.032 96.1162 216.582 97.4816 215.465 98.041Z" fill="#C7B299"/>
<path d="M232.343 99.8994C231.656 98.5245 229.99 97.9698 228.617 98.6573C227.244 99.3447 226.69 101.014 227.377 102.388C228.063 103.763 229.729 104.318 231.102 103.631C232.475 102.943 233.029 101.274 232.343 99.8994ZM230.875 103.175C229.758 103.735 228.394 103.284 227.836 102.161L231.884 100.132C232.447 101.251 231.992 102.616 230.875 103.175Z" fill="#C7B299"/>
<path d="M250.043 168.198C249.92 166.842 248.736 165.837 247.382 165.936C241.062 166.396 234.108 166.557 226.623 166.216C211.46 165.524 198.341 162.954 187.803 160.053C181.791 159.014 173.222 156.767 164.132 151.519C154.342 145.868 147.492 138.78 142.895 132.759C138.748 127.321 133.275 123.035 127.035 120.252C122.808 118.365 118.192 115.895 113.472 112.643C106.612 107.921 101.239 102.735 97.1013 97.913C91.1221 90.9438 83.5569 85.5202 75.1159 81.9265C72.5547 80.8361 69.8562 79.5513 67.0773 78.039C48.3111 67.8175 38.1232 53.4951 26.3635 37.7409C20.0813 29.321 12.1847 17.3454 5.02195 1.79984C4.44912 0.557708 3.12356 -0.162921 1.76959 0.031458L1.7459 0.0362036L1.72223 0.0409419C0.51502 0.216357 -0.232971 1.44426 0.159964 2.59631C1.15887 5.52622 2.26194 8.53197 3.48809 11.5946C7.14286 20.7304 11.2616 28.8849 15.4655 36.0721C17.3118 39.2249 17.3307 43.1551 15.4466 46.2841C7.16651 60.0471 7.97131 77.2567 17.3686 88.9432C25.7528 99.3732 39.9221 104.095 53.8216 101.27C53.5565 103.266 51.2463 123.258 66.6039 137.775C83.4101 153.662 105.59 148.072 106.844 147.731C107.431 150.044 113.321 171.663 134.302 179.969C149.816 186.109 167.939 182.738 181.393 171.511C185.086 168.43 189.971 167.178 194.653 168.288C204.306 170.573 215.886 172.332 228.986 172.389C235.694 172.417 241.919 171.995 247.581 171.317C249.091 171.137 250.18 169.776 250.043 168.259V168.198Z" fill="url(#paint0_linear_4373_2327)"/>
<defs>
<linearGradient id="paint0_linear_4373_2327" x1="125.987" y1="84.0797" x2="83.9204" y2="143.44" gradientUnits="userSpaceOnUse">
<stop stop-color="#464646"/>
<stop offset="0.3216" stop-color="#444444"/>
<stop offset="0.4396" stop-color="#3D3D3D"/>
<stop offset="0.5178" stop-color="#333333"/>
<stop offset="0.7371" stop-color="#202020"/>
<stop offset="1" stop-color="#050505"/>
</linearGradient>
</defs>
</svg>
