<svg width="801" height="800" viewBox="0 0 801 800" fill="none" xmlns="http://www.w3.org/2000/svg">
<path d="M572.067 94.6091C569.289 92.8831 566.514 91.1669 563.737 89.441C558.805 91.7838 550.998 94.6374 541.234 94.7151C518.577 94.8999 503.434 80.0248 500.101 76.592C498.757 81.18 495.119 91.2061 485.489 99.1854C468.195 113.533 446.569 108.873 443.782 108.228C443.227 112.036 440.547 127.204 426.856 138.858C412.41 151.142 395.976 150.766 392.352 150.594C392.004 155.289 390.377 169.129 379.473 181.368C364.892 197.748 345.011 198.57 341.526 198.656C356.243 219.157 353.409 245.13 338.574 257.783C323.614 270.531 302.43 264.648 300.61 264.116C298.899 267.186 289.402 283.494 269.724 288.155C259.048 290.684 250.031 288.677 245.412 287.278C241.469 291.734 237.515 296.192 233.57 300.639C231.576 298.695 213.543 280.578 218.073 257.888C219.493 250.783 222.713 245.292 225.566 241.53C219.453 220.029 224.67 197.851 239.4 184.424C250.577 174.231 263.764 172.226 269.479 171.72C269.919 168.219 272.762 148.563 290.683 135.167C307.079 122.912 324.79 124.35 328.788 124.778C328.969 121.843 330.281 104.705 344.966 92.4974C361.938 78.3839 382.344 82.8356 384.644 83.3794C384.568 82.2743 383.859 67.4801 396.1 58.2359C408.776 48.6553 423.397 54.0535 424.233 54.3847C425.172 52.5595 431.115 41.3769 443.877 38.4656C449.975 37.0735 455.18 38.1287 458.057 38.9811C458.84 38.1113 468.393 27.7756 482.731 29.7266C495.274 31.4356 501.663 41.2124 502.547 42.613C512.932 35.3463 526.519 35.251 536.233 42.2039C548.745 51.1536 547.945 66.8525 547.886 67.7796C555.023 65.5303 562.808 67.3719 567.998 72.5613C573.689 78.2566 575.32 87.0263 572.067 94.6091Z" fill="url(#paint0_radial_4822_3203)"/>
<path d="M137.651 666.938C139.62 596.966 149.396 527.549 169.021 460.938C178.236 429.673 189.64 398.465 202.917 368.725C215.671 340.152 230.587 311.875 247.039 285.272C262.86 259.693 280.738 234.664 299.86 211.486C318.278 189.163 338.536 167.695 359.838 148.095C400.194 110.958 445.776 79.3092 494.949 54.4122C495.692 54.0382 496.028 53.1202 495.693 52.3691C495.359 51.6181 494.476 51.3061 493.73 51.6703C444 75.8784 397.761 106.949 356.69 143.59C334.987 162.949 314.292 184.205 295.433 206.346C275.832 229.36 257.471 254.256 241.163 279.733C224.178 306.264 208.735 334.498 195.45 363.059C181.617 392.822 169.637 424.098 159.869 455.456C139.024 522.398 127.813 592.574 125.038 662.912C124.853 667.658 127.593 672.484 131.093 673.616C134.583 674.75 137.498 671.8 137.647 667.081C137.652 667.049 137.648 667.03 137.652 666.998C137.647 666.969 137.645 666.959 137.651 666.938Z" fill="url(#paint1_radial_4822_3203)"/>
<path d="M340.581 155.853C334.48 151.171 326.505 153.242 322.075 156.467C319.552 158.305 318.106 160.572 317.324 162.093C314.938 161.901 310.695 161.906 306.141 163.985C296.631 168.329 293.779 178.044 293.343 179.622C292.639 179.5 280.321 177.637 271.944 187.192C263.86 196.407 266.811 207.868 267.044 208.73C266.121 208.904 252.25 211.709 247.588 223.861C243.049 235.695 249.189 251.339 261.415 255.041C269.304 257.433 278.367 254.444 284.838 247.792C292.91 251.371 302.213 250.464 309.072 245.337C317.073 239.353 320.455 228.612 317.363 218.622C330.961 222.045 344.438 217.849 351.108 208.311C354.027 204.139 357.174 196.749 355.262 188.215C353.251 179.263 346.869 174.389 345.153 173.166C347.555 166.791 345.613 159.718 340.581 155.853Z" fill="url(#paint2_radial_4822_3203)"/>
<path d="M500.266 40.4479C494.959 39.0659 488.722 42.9061 487.597 49.3656C487.107 48.8678 478.688 40.6331 467.452 43.2165C458.723 45.226 452.027 52.8973 450.955 62.3386C443.442 61.7789 436.371 65.0841 432.688 70.9772C427.518 79.2463 430.648 90.0335 437.188 95.8031C443.913 101.742 456.178 104.083 462.372 97.0963C466.57 92.3681 466.998 84.4827 463.376 77.5125C465.052 78.6317 475.191 85.1893 486.918 81.8623C498.993 78.4393 507.795 65.9553 507.64 51.24C507.854 46.0509 504.59 41.5775 500.266 40.4479Z" fill="url(#paint3_radial_4822_3203)"/>
<path d="M437.493 64.2823C443.495 63.1523 447.446 57.3699 446.316 51.3671C445.186 45.3643 439.403 41.4141 433.4 42.5442C427.397 43.6742 423.447 49.4566 424.577 55.4594C425.707 61.4622 431.49 65.4124 437.493 64.2823Z" fill="url(#paint4_radial_4822_3203)"/>
<path d="M439.57 95.1002C445.573 93.9702 449.523 88.1878 448.393 82.185C447.263 76.1822 441.48 72.232 435.477 73.3621C429.475 74.4921 425.524 80.2745 426.655 86.2773C427.785 92.2801 433.567 96.2303 439.57 95.1002Z" fill="url(#paint5_radial_4822_3203)"/>
<path d="M397.408 94.5914C403.41 93.4614 407.361 87.679 406.231 81.6762C405.101 75.6734 399.318 71.7232 393.315 72.8533C387.313 73.9833 383.362 79.7657 384.492 85.7685C385.622 91.7713 391.405 95.7215 397.408 94.5914Z" fill="url(#paint6_radial_4822_3203)"/>
<path d="M362.231 149.671C368.234 148.54 372.184 142.758 371.054 136.755C369.924 130.752 364.141 126.802 358.139 127.932C352.136 129.062 348.186 134.845 349.316 140.848C350.446 146.85 356.228 150.801 362.231 149.671Z" fill="url(#paint7_radial_4822_3203)"/>
<path d="M352.954 191.845C358.956 190.715 362.907 184.932 361.776 178.93C360.646 172.927 354.864 168.977 348.861 170.107C342.858 171.237 338.908 177.019 340.038 183.022C341.168 189.025 346.951 192.975 352.954 191.845Z" fill="url(#paint8_radial_4822_3203)"/>
<path d="M242.157 190.204C248.16 189.074 252.11 183.292 250.98 177.289C249.85 171.286 244.067 167.336 238.064 168.466C232.062 169.596 228.111 175.378 229.241 181.381C230.372 187.384 236.154 191.334 242.157 190.204Z" fill="url(#paint9_radial_4822_3203)"/>
<path d="M266.741 256.583C272.744 255.453 276.694 249.67 275.564 243.667C274.434 237.665 268.651 233.714 262.648 234.844C256.646 235.975 252.695 241.757 253.825 247.76C254.956 253.763 260.738 257.713 266.741 256.583Z" fill="url(#paint10_radial_4822_3203)"/>
<path d="M314.156 241.317C317.613 240.666 319.888 237.336 319.238 233.879C318.587 230.421 315.256 228.146 311.799 228.797C308.342 229.448 306.067 232.778 306.718 236.236C307.368 239.693 310.699 241.968 314.156 241.317Z" fill="url(#paint11_radial_4822_3203)"/>
<path d="M375.691 213.227C379.149 212.576 381.424 209.246 380.773 205.789C380.122 202.331 376.792 200.056 373.334 200.707C369.877 201.358 367.602 204.688 368.253 208.146C368.904 211.603 372.234 213.878 375.691 213.227Z" fill="url(#paint12_radial_4822_3203)"/>
<path d="M316.378 169.394C319.835 168.743 322.11 165.413 321.459 161.955C320.808 158.498 317.478 156.223 314.021 156.874C310.563 157.525 308.288 160.855 308.939 164.312C309.59 167.77 312.92 170.045 316.378 169.394Z" fill="url(#paint13_radial_4822_3203)"/>
<path d="M380.819 171.386C384.276 170.735 386.552 167.405 385.901 163.948C385.25 160.49 381.92 158.215 378.462 158.866C375.005 159.517 372.73 162.847 373.381 166.304C374.031 169.762 377.362 172.037 380.819 171.386Z" fill="url(#paint14_radial_4822_3203)"/>
<path d="M367.863 114.888C371.32 114.237 373.595 110.907 372.945 107.449C372.294 103.992 368.963 101.717 365.506 102.368C362.049 103.019 359.774 106.349 360.425 109.806C361.075 113.264 364.406 115.539 367.863 114.888Z" fill="url(#paint15_radial_4822_3203)"/>
<path d="M553.218 79.8414C559.221 78.7114 563.171 72.929 562.041 66.9262C560.911 60.9234 555.129 56.9732 549.126 58.1033C543.123 59.2333 539.173 65.0157 540.303 71.0185C541.433 77.0213 547.215 80.9715 553.218 79.8414Z" fill="url(#paint16_radial_4822_3203)"/>
<path d="M475.628 83.9977C481.631 82.8676 485.581 77.0853 484.451 71.0824C483.321 65.0796 477.539 61.1295 471.536 62.2595C465.533 63.3896 461.583 69.1719 462.713 75.1747C463.843 81.1776 469.626 85.1277 475.628 83.9977Z" fill="url(#paint17_radial_4822_3203)"/>
<path d="M501.708 58.1564C507.711 57.0263 511.661 51.244 510.531 45.2411C509.401 39.2383 503.619 35.2881 497.616 36.4182C491.613 37.5483 487.663 43.3306 488.793 49.3334C489.923 55.3363 495.706 59.2864 501.708 58.1564Z" fill="url(#paint18_radial_4822_3203)"/>
<path d="M433.94 154.486C439.943 153.356 443.893 147.574 442.763 141.571C441.633 135.568 435.85 131.618 429.848 132.748C423.845 133.878 419.895 139.661 421.025 145.664C422.155 151.666 427.937 155.616 433.94 154.486Z" fill="url(#paint19_radial_4822_3203)"/>
<path d="M330.151 218.392C336.154 217.262 340.104 211.48 338.974 205.477C337.844 199.474 332.061 195.524 326.059 196.654C320.056 197.784 316.106 203.566 317.236 209.569C318.366 215.572 324.148 219.522 330.151 218.392Z" fill="url(#paint20_radial_4822_3203)"/>
<path d="M294.195 204.799C300.198 203.669 304.148 197.887 303.018 191.884C301.888 185.881 296.105 181.931 290.102 183.061C284.1 184.191 280.149 189.974 281.28 195.977C282.41 201.979 288.192 205.929 294.195 204.799Z" fill="url(#paint21_radial_4822_3203)"/>
<path d="M297.55 164.95C303.553 163.82 307.503 158.038 306.373 152.035C305.243 146.032 299.461 142.082 293.458 143.212C287.455 144.342 283.505 150.125 284.635 156.127C285.765 162.13 291.547 166.08 297.55 164.95Z" fill="url(#paint22_radial_4822_3203)"/>
<path d="M220.765 261.269C226.768 260.139 230.718 254.357 229.588 248.354C228.458 242.351 222.676 238.401 216.673 239.531C210.67 240.661 206.72 246.443 207.85 252.446C208.98 258.449 214.762 262.399 220.765 261.269Z" fill="url(#paint23_radial_4822_3203)"/>
<path d="M246.078 221.795C249.535 221.144 251.81 217.814 251.159 214.356C250.509 210.899 247.178 208.624 243.721 209.275C240.264 209.926 237.989 213.256 238.639 216.713C239.29 220.17 242.621 222.446 246.078 221.795Z" fill="url(#paint24_radial_4822_3203)"/>
<path d="M436.256 122.577C439.713 121.927 441.988 118.596 441.337 115.139C440.686 111.682 437.356 109.407 433.899 110.057C430.441 110.708 428.166 114.039 428.817 117.496C429.468 120.953 432.798 123.228 436.256 122.577Z" fill="url(#paint25_radial_4822_3203)"/>
<path d="M331.344 132.193C334.801 131.542 337.076 128.211 336.425 124.754C335.774 121.297 332.444 119.022 328.987 119.673C325.529 120.323 323.254 123.654 323.905 127.111C324.556 130.568 327.886 132.844 331.344 132.193Z" fill="url(#paint26_radial_4822_3203)"/>
<path d="M338.499 156.956C341.956 156.305 344.231 152.975 343.58 149.518C342.93 146.06 339.599 143.785 336.142 144.436C332.685 145.087 330.409 148.417 331.06 151.875C331.711 155.332 335.042 157.607 338.499 156.956Z" fill="url(#paint27_radial_4822_3203)"/>
<path d="M395.705 144.467C399.162 143.816 401.437 140.486 400.786 137.029C400.136 133.571 396.805 131.296 393.348 131.947C389.891 132.598 387.616 135.928 388.266 139.386C388.917 142.843 392.248 145.118 395.705 144.467Z" fill="url(#paint28_radial_4822_3203)"/>
<path d="M518.198 77.1033C521.655 76.4525 523.93 73.1221 523.28 69.6648C522.629 66.2075 519.298 63.9324 515.841 64.5832C512.384 65.2341 510.109 68.5644 510.76 72.0218C511.41 75.4791 514.741 77.7542 518.198 77.1033Z" fill="url(#paint29_radial_4822_3203)"/>
<path d="M573.511 95.7415C576.968 95.0906 579.243 91.7603 578.592 88.303C577.941 84.8457 574.611 82.5706 571.154 83.2214C567.696 83.8723 565.421 87.2026 566.072 90.6599C566.723 94.1173 570.053 96.3924 573.511 95.7415Z" fill="url(#paint30_radial_4822_3203)"/>
<path d="M248.208 268.568C245.087 266.907 241.621 268.445 239.853 270.243C238.845 271.267 238.358 272.407 238.122 273.153C237.021 273.249 235.097 273.57 233.192 274.855C229.199 277.54 228.637 282.174 228.564 282.92C228.238 282.92 222.504 283.003 219.42 287.969C216.445 292.762 218.645 297.741 218.817 298.116C218.407 298.264 212.322 300.59 211.126 306.452C209.954 312.168 213.93 318.807 219.751 319.563C223.517 320.055 227.407 318.02 229.838 314.499C233.775 315.519 237.93 314.401 240.651 311.558C243.832 308.242 244.555 303.11 242.401 298.804C248.83 299.334 254.639 296.409 256.946 291.579C257.952 289.466 258.832 285.871 257.317 282.147C255.736 278.232 252.46 276.508 251.596 276.081C252.2 273.016 250.787 269.945 248.208 268.568Z" fill="url(#paint31_radial_4822_3203)"/>
<path d="M394.164 314.325C392.503 316.256 388.453 320.254 382.205 322.255C375.075 324.543 365.941 322.722 359.725 318.57C358.661 320.378 354.279 327.42 345.156 330.959C335.531 334.694 327.24 331.951 325.417 331.297C324.379 333.67 320.857 340.479 313.356 345.331C306.952 349.477 298.277 350.744 290.784 349.376C294.685 360.639 291.105 374.267 280.74 380.451C274.593 384.121 266.195 383.026 259.904 380.201C254.958 385.925 248.117 390.021 240.592 390.909C234.639 391.612 229.947 389.931 227.602 388.877C224.973 391.132 222.369 393.403 219.769 395.704C214.734 388.522 212.752 379.075 216.237 370.777C217.896 366.832 220.388 363.911 222.452 361.955C222.369 350.055 228.073 337.005 238.58 330.763C246.314 326.173 253.856 326.239 257.02 326.559C260.914 318.052 267.594 312.51 275.123 308.834C281.507 305.719 290.097 305.618 297.379 308.246C300.406 301.622 305.901 296.059 312.595 293.456C319.916 290.612 328.203 291.23 335.134 295.237C335.339 294.649 338.32 286.812 346.727 284.334C355.433 281.769 361.521 287.41 361.857 287.733C362.756 286.994 368.445 282.514 375.488 283.712C378.863 284.288 381.163 285.91 382.375 286.944C382.967 286.68 390.226 283.624 396.716 287.775C402.385 291.399 403.08 297.577 403.174 298.455C406.594 303.865 405.63 310.152 402.066 312.95C398.993 315.329 394.908 314.491 394.164 314.325Z" fill="url(#paint32_radial_4822_3203)"/>
<path d="M386.062 299.02C333.696 313.172 285.466 337.24 242.425 370.924C223.162 386.812 205.658 404.048 189.527 423.112C178.495 436.941 168.524 451.162 159.444 466.12C160.256 468.002 161.078 469.882 161.899 471.753C171.364 455.44 181.843 440.025 193.586 425.054C209.362 406.099 226.507 388.961 245.401 373.112C287.778 339.41 335.123 315.671 387.14 300.801C388.011 300.566 388.481 299.979 388.175 299.487C387.87 299.005 386.924 298.786 386.062 299.02Z" fill="url(#paint33_radial_4822_3203)"/>
<path d="M279.752 342.56C276.201 341.315 271.725 343.593 270.591 347.948C270.287 347.577 264.996 341.471 257.161 342.61C251.079 343.49 246.074 348.361 244.805 354.756C239.699 353.956 234.677 355.818 231.823 359.632C227.826 364.994 229.359 372.54 233.509 376.857C237.748 381.269 245.49 383.149 250.66 379.154C255.83 375.158 255.087 367.86 255.031 367.402C255.907 368.377 257.868 370.256 260.9 370.958C261.965 371.205 264.429 371.596 268.302 370.114C275.22 367.458 283.072 359.386 284.189 350.343C284.625 346.822 282.641 343.583 279.752 342.56Z" fill="url(#paint34_radial_4822_3203)"/>
<path d="M393.696 307.626C397.669 306.878 400.283 303.051 399.535 299.078C398.788 295.105 394.96 292.491 390.988 293.239C387.015 293.986 384.4 297.813 385.148 301.786C385.896 305.759 389.723 308.374 393.696 307.626Z" fill="url(#paint35_radial_4822_3203)"/>
<path d="M371.081 291.329C375.054 290.581 377.668 286.754 376.92 282.781C376.172 278.808 372.345 276.194 368.372 276.942C364.399 277.69 361.785 281.517 362.533 285.49C363.281 289.462 367.108 292.077 371.081 291.329Z" fill="url(#paint36_radial_4822_3203)"/>
<path d="M333.957 319.147C337.93 318.399 340.544 314.572 339.796 310.599C339.048 306.626 335.221 304.012 331.248 304.76C327.275 305.508 324.661 309.335 325.409 313.308C326.157 317.281 329.984 319.895 333.957 319.147Z" fill="url(#paint37_radial_4822_3203)"/>
<path d="M313.374 340.026C317.347 339.278 319.961 335.451 319.213 331.478C318.465 327.505 314.638 324.891 310.665 325.639C306.692 326.387 304.078 330.214 304.826 334.187C305.574 338.16 309.401 340.774 313.374 340.026Z" fill="url(#paint38_radial_4822_3203)"/>
<path d="M276.848 337.682C280.821 336.935 283.436 333.108 282.688 329.135C281.94 325.162 278.113 322.547 274.14 323.295C270.167 324.043 267.553 327.87 268.301 331.843C269.048 335.816 272.875 338.43 276.848 337.682Z" fill="url(#paint39_radial_4822_3203)"/>
<path d="M227.256 380.884C231.229 380.136 233.843 376.309 233.095 372.336C232.347 368.363 228.52 365.748 224.547 366.496C220.574 367.244 217.96 371.071 218.708 375.044C219.456 379.017 223.283 381.632 227.256 380.884Z" fill="url(#paint40_radial_4822_3203)"/>
<path d="M256.282 382.104C260.255 381.356 262.869 377.529 262.121 373.556C261.373 369.584 257.546 366.969 253.574 367.717C249.601 368.465 246.986 372.292 247.734 376.265C248.482 380.238 252.309 382.852 256.282 382.104Z" fill="url(#paint41_radial_4822_3203)"/>
<path d="M275.878 358.247C278.163 357.817 279.666 355.616 279.236 353.331C278.806 351.046 276.605 349.542 274.32 349.972C272.035 350.402 270.531 352.603 270.961 354.888C271.392 357.173 273.593 358.677 275.878 358.247Z" fill="url(#paint42_radial_4822_3203)"/>
<path d="M296.609 358.7C298.894 358.27 300.398 356.069 299.968 353.784C299.537 351.499 297.336 349.995 295.051 350.425C292.766 350.855 291.263 353.056 291.693 355.341C292.123 357.626 294.324 359.13 296.609 358.7Z" fill="url(#paint43_radial_4822_3203)"/>
<path d="M300.019 317.253C302.304 316.822 303.808 314.621 303.378 312.336C302.948 310.051 300.747 308.548 298.462 308.978C296.177 309.408 294.673 311.609 295.103 313.894C295.533 316.179 297.734 317.683 300.019 317.253Z" fill="url(#paint44_radial_4822_3203)"/>
<path d="M355.909 324.245C358.194 323.815 359.698 321.614 359.267 319.329C358.837 317.044 356.636 315.54 354.351 315.97C352.066 316.4 350.563 318.601 350.993 320.886C351.423 323.171 353.624 324.675 355.909 324.245Z" fill="url(#paint45_radial_4822_3203)"/>
<path d="M357.811 305.976C360.096 305.546 361.6 303.345 361.17 301.06C360.74 298.775 358.539 297.271 356.254 297.702C353.969 298.132 352.465 300.333 352.895 302.618C353.325 304.903 355.526 306.406 357.811 305.976Z" fill="url(#paint46_radial_4822_3203)"/>
<path d="M617.988 562.768C623.114 506.441 582.512 462.574 560.805 439.815C498.112 374.088 415.169 364.275 385.46 362.249C385.46 362.249 375.358 360.161 356.839 361.196C349.502 361.607 346.018 363.601 341.613 365.461C335.296 368.133 332.201 375.595 335.281 381.727C335.307 381.78 335.332 381.832 335.357 381.885C335.375 381.916 335.392 381.948 335.409 381.98C337.506 385.995 341.824 388.313 346.351 388.331C354.892 388.371 365.254 389.158 376.755 391.665C392.638 395.12 405.29 400.662 414.238 405.418C406.191 404.69 398.143 403.962 390.096 403.234C313.3 396.286 243.327 453.312 237.384 530.2C230.952 613.389 315.58 663.85 325.699 669.976C362.539 692.277 398.634 695.743 415.553 697.184C432.213 698.6 468.276 701.301 507.568 685.959C520.922 680.751 610.435 645.805 617.988 562.768Z" fill="url(#paint47_radial_4822_3203)"/>
<path d="M426.152 555.733C415.625 554.78 409.797 544.062 409.097 542.703C407.91 540.397 408.82 537.557 411.136 536.371C413.452 535.185 416.292 536.094 417.468 538.41C417.656 538.768 422.083 547.332 428.823 546.305C433.097 545.678 436.949 541.498 439.122 537.789C440.439 535.548 443.309 534.794 445.568 536.123C447.809 537.44 448.552 540.329 447.234 542.569C445.193 546.039 439.439 554.264 430.178 555.625C428.785 555.82 427.437 555.849 426.152 555.733Z" fill="white"/>
<path d="M374.295 549.042C384.244 549.942 393.051 542.606 393.952 532.647L357.909 529.386C357.008 539.345 364.345 548.142 374.295 549.042Z" fill="white"/>
<path d="M479.743 558.583C489.692 559.483 498.499 552.147 499.4 542.188L463.357 538.927C462.456 548.886 469.794 557.683 479.743 558.583Z" fill="white"/>
<defs>
<radialGradient id="paint0_radial_4822_3203" cx="0" cy="0" r="1" gradientUnits="userSpaceOnUse" gradientTransform="translate(383.184 151.087) rotate(-24.4948) scale(153.557 204.447)">
<stop stop-color="#E16E39"/>
<stop offset="0.6705" stop-color="#D16F45"/>
<stop offset="1" stop-color="#C76F4D"/>
</radialGradient>
<radialGradient id="paint1_radial_4822_3203" cx="0" cy="0" r="1" gradientUnits="userSpaceOnUse" gradientTransform="translate(276.983 340.217) rotate(-61.6607) scale(260.077 346.289)">
<stop stop-color="#E1CD51"/>
<stop offset="0.3621" stop-color="#D4BF41"/>
<stop offset="1" stop-color="#B5A01B"/>
</radialGradient>
<radialGradient id="paint2_radial_4822_3203" cx="0" cy="0" r="1" gradientUnits="userSpaceOnUse" gradientTransform="translate(471.548 183.25) rotate(-24.4948) scale(123.184 123.184)">
<stop stop-color="#E1672F"/>
<stop offset="0.6705" stop-color="#D1693D"/>
<stop offset="1" stop-color="#C76B46"/>
</radialGradient>
<radialGradient id="paint3_radial_4822_3203" cx="0" cy="0" r="1" gradientUnits="userSpaceOnUse" gradientTransform="translate(471.547 183.251) rotate(-24.4948) scale(123.184 123.184)">
<stop stop-color="#E1672F"/>
<stop offset="0.6705" stop-color="#D1693D"/>
<stop offset="1" stop-color="#C76B46"/>
</radialGradient>
<radialGradient id="paint4_radial_4822_3203" cx="0" cy="0" r="1" gradientUnits="userSpaceOnUse" gradientTransform="translate(435.425 53.4747) rotate(-61.6606) scale(11.0621 14.729)">
<stop stop-color="#E15329"/>
<stop offset="0.4305" stop-color="#D15132"/>
<stop offset="1" stop-color="#B54D41"/>
</radialGradient>
<radialGradient id="paint5_radial_4822_3203" cx="0" cy="0" r="1" gradientUnits="userSpaceOnUse" gradientTransform="translate(437.508 84.2893) rotate(-61.6607) scale(11.0621 14.729)">
<stop stop-color="#E15329"/>
<stop offset="0.4305" stop-color="#D15132"/>
<stop offset="1" stop-color="#B54D41"/>
</radialGradient>
<radialGradient id="paint6_radial_4822_3203" cx="0" cy="0" r="1" gradientUnits="userSpaceOnUse" gradientTransform="translate(395.337 83.7748) rotate(-61.6606) scale(11.0621 14.729)">
<stop stop-color="#E15329"/>
<stop offset="0.4305" stop-color="#D15132"/>
<stop offset="1" stop-color="#B54D41"/>
</radialGradient>
<radialGradient id="paint7_radial_4822_3203" cx="0" cy="0" r="1" gradientUnits="userSpaceOnUse" gradientTransform="translate(360.17 138.857) rotate(-61.6607) scale(11.0621 14.729)">
<stop stop-color="#E15329"/>
<stop offset="0.4305" stop-color="#D15132"/>
<stop offset="1" stop-color="#B54D41"/>
</radialGradient>
<radialGradient id="paint8_radial_4822_3203" cx="0" cy="0" r="1" gradientUnits="userSpaceOnUse" gradientTransform="translate(350.888 181.022) rotate(-61.6607) scale(11.0621 14.729)">
<stop stop-color="#E15329"/>
<stop offset="0.4305" stop-color="#D15132"/>
<stop offset="1" stop-color="#B54D41"/>
</radialGradient>
<radialGradient id="paint9_radial_4822_3203" cx="0" cy="0" r="1" gradientUnits="userSpaceOnUse" gradientTransform="translate(240.089 179.38) rotate(-61.6606) scale(11.0621 14.729)">
<stop stop-color="#E15329"/>
<stop offset="0.4305" stop-color="#D15132"/>
<stop offset="1" stop-color="#B54D41"/>
</radialGradient>
<radialGradient id="paint10_radial_4822_3203" cx="0" cy="0" r="1" gradientUnits="userSpaceOnUse" gradientTransform="translate(264.68 245.762) rotate(-61.6607) scale(11.0621 14.729)">
<stop stop-color="#E15329"/>
<stop offset="0.4305" stop-color="#D15132"/>
<stop offset="1" stop-color="#B54D41"/>
</radialGradient>
<radialGradient id="paint11_radial_4822_3203" cx="0" cy="0" r="1" gradientUnits="userSpaceOnUse" gradientTransform="translate(312.958 235.108) rotate(-61.6607) scale(6.36909 8.48034)">
<stop stop-color="#E15329"/>
<stop offset="0.4305" stop-color="#D15132"/>
<stop offset="1" stop-color="#B54D41"/>
</radialGradient>
<radialGradient id="paint12_radial_4822_3203" cx="0" cy="0" r="1" gradientUnits="userSpaceOnUse" gradientTransform="translate(374.497 207.02) rotate(-61.6607) scale(6.36909 8.48034)">
<stop stop-color="#E15329"/>
<stop offset="0.4305" stop-color="#D15132"/>
<stop offset="1" stop-color="#B54D41"/>
</radialGradient>
<radialGradient id="paint13_radial_4822_3203" cx="0" cy="0" r="1" gradientUnits="userSpaceOnUse" gradientTransform="translate(315.183 163.183) rotate(-61.6606) scale(6.36909 8.48036)">
<stop stop-color="#E15329"/>
<stop offset="0.4305" stop-color="#D15132"/>
<stop offset="1" stop-color="#B54D41"/>
</radialGradient>
<radialGradient id="paint14_radial_4822_3203" cx="0" cy="0" r="1" gradientUnits="userSpaceOnUse" gradientTransform="translate(379.618 165.18) rotate(-61.6607) scale(6.36909 8.48035)">
<stop stop-color="#E15329"/>
<stop offset="0.4305" stop-color="#D15132"/>
<stop offset="1" stop-color="#B54D41"/>
</radialGradient>
<radialGradient id="paint15_radial_4822_3203" cx="0" cy="0" r="1" gradientUnits="userSpaceOnUse" gradientTransform="translate(366.668 108.684) rotate(-61.6607) scale(6.36909 8.48035)">
<stop stop-color="#E15329"/>
<stop offset="0.4305" stop-color="#D15132"/>
<stop offset="1" stop-color="#B54D41"/>
</radialGradient>
<radialGradient id="paint16_radial_4822_3203" cx="0" cy="0" r="1" gradientUnits="userSpaceOnUse" gradientTransform="translate(551.113 68.9592) rotate(-41.1397) scale(11.0623 14.7285)">
<stop stop-color="#E15329"/>
<stop offset="0.4305" stop-color="#D15132"/>
<stop offset="1" stop-color="#B54D41"/>
</radialGradient>
<radialGradient id="paint17_radial_4822_3203" cx="0" cy="0" r="1" gradientUnits="userSpaceOnUse" gradientTransform="translate(473.522 73.1166) rotate(-41.1397) scale(11.0623 14.7285)">
<stop stop-color="#E15329"/>
<stop offset="0.4305" stop-color="#D15132"/>
<stop offset="1" stop-color="#B54D41"/>
</radialGradient>
<radialGradient id="paint18_radial_4822_3203" cx="0" cy="0" r="1" gradientUnits="userSpaceOnUse" gradientTransform="translate(499.609 47.2842) rotate(-41.1397) scale(11.0623 14.7285)">
<stop stop-color="#E15329"/>
<stop offset="0.4305" stop-color="#D15132"/>
<stop offset="1" stop-color="#B54D41"/>
</radialGradient>
<radialGradient id="paint19_radial_4822_3203" cx="0" cy="0" r="1" gradientUnits="userSpaceOnUse" gradientTransform="translate(431.844 143.608) rotate(-41.1397) scale(11.0623 14.7285)">
<stop stop-color="#E15329"/>
<stop offset="0.4305" stop-color="#D15132"/>
<stop offset="1" stop-color="#B54D41"/>
</radialGradient>
<radialGradient id="paint20_radial_4822_3203" cx="0" cy="0" r="1" gradientUnits="userSpaceOnUse" gradientTransform="translate(328.047 207.513) rotate(-41.1397) scale(11.0623 14.7285)">
<stop stop-color="#E15329"/>
<stop offset="0.4305" stop-color="#D15132"/>
<stop offset="1" stop-color="#B54D41"/>
</radialGradient>
<radialGradient id="paint21_radial_4822_3203" cx="0" cy="0" r="1" gradientUnits="userSpaceOnUse" gradientTransform="translate(292.096 193.917) rotate(-41.1397) scale(11.0623 14.7285)">
<stop stop-color="#E15329"/>
<stop offset="0.4305" stop-color="#D15132"/>
<stop offset="1" stop-color="#B54D41"/>
</radialGradient>
<radialGradient id="paint22_radial_4822_3203" cx="0" cy="0" r="1" gradientUnits="userSpaceOnUse" gradientTransform="translate(295.45 154.069) rotate(-41.1397) scale(11.0623 14.7285)">
<stop stop-color="#E15329"/>
<stop offset="0.4305" stop-color="#D15132"/>
<stop offset="1" stop-color="#B54D41"/>
</radialGradient>
<radialGradient id="paint23_radial_4822_3203" cx="0" cy="0" r="1" gradientUnits="userSpaceOnUse" gradientTransform="translate(218.673 250.385) rotate(-41.1397) scale(11.0623 14.7285)">
<stop stop-color="#E15329"/>
<stop offset="0.4305" stop-color="#D15132"/>
<stop offset="1" stop-color="#B54D41"/>
</radialGradient>
<radialGradient id="paint24_radial_4822_3203" cx="0" cy="0" r="1" gradientUnits="userSpaceOnUse" gradientTransform="translate(244.848 215.521) rotate(-41.1397) scale(6.36924 8.48005)">
<stop stop-color="#E15329"/>
<stop offset="0.4305" stop-color="#D15132"/>
<stop offset="1" stop-color="#B54D41"/>
</radialGradient>
<radialGradient id="paint25_radial_4822_3203" cx="0" cy="0" r="1" gradientUnits="userSpaceOnUse" gradientTransform="translate(435.025 116.305) rotate(-41.1397) scale(6.36925 8.48006)">
<stop stop-color="#E15329"/>
<stop offset="0.4305" stop-color="#D15132"/>
<stop offset="1" stop-color="#B54D41"/>
</radialGradient>
<radialGradient id="paint26_radial_4822_3203" cx="0" cy="0" r="1" gradientUnits="userSpaceOnUse" gradientTransform="translate(330.11 125.923) rotate(-41.1397) scale(6.36925 8.48006)">
<stop stop-color="#E15329"/>
<stop offset="0.4305" stop-color="#D15132"/>
<stop offset="1" stop-color="#B54D41"/>
</radialGradient>
<radialGradient id="paint27_radial_4822_3203" cx="0" cy="0" r="1" gradientUnits="userSpaceOnUse" gradientTransform="translate(337.271 150.688) rotate(-41.1397) scale(6.36924 8.48005)">
<stop stop-color="#E15329"/>
<stop offset="0.4305" stop-color="#D15132"/>
<stop offset="1" stop-color="#B54D41"/>
</radialGradient>
<radialGradient id="paint28_radial_4822_3203" cx="0" cy="0" r="1" gradientUnits="userSpaceOnUse" gradientTransform="translate(394.469 138.193) rotate(-41.1397) scale(6.36924 8.48005)">
<stop stop-color="#E15329"/>
<stop offset="0.4305" stop-color="#D15132"/>
<stop offset="1" stop-color="#B54D41"/>
</radialGradient>
<radialGradient id="paint29_radial_4822_3203" cx="0" cy="0" r="1" gradientUnits="userSpaceOnUse" gradientTransform="translate(516.962 70.8359) rotate(-41.1397) scale(6.36925 8.48006)">
<stop stop-color="#E15329"/>
<stop offset="0.4305" stop-color="#D15132"/>
<stop offset="1" stop-color="#B54D41"/>
</radialGradient>
<radialGradient id="paint30_radial_4822_3203" cx="0" cy="0" r="1" gradientUnits="userSpaceOnUse" gradientTransform="translate(572.272 89.4672) rotate(-41.1397) scale(6.36924 8.48005)">
<stop stop-color="#E15329"/>
<stop offset="0.4305" stop-color="#D15132"/>
<stop offset="1" stop-color="#B54D41"/>
</radialGradient>
<radialGradient id="paint31_radial_4822_3203" cx="0" cy="0" r="1" gradientUnits="userSpaceOnUse" gradientTransform="translate(309.728 271.119) rotate(-33.927) scale(56.6939 56.6939)">
<stop stop-color="#E1672F"/>
<stop offset="0.6705" stop-color="#D1693D"/>
<stop offset="1" stop-color="#C76B46"/>
</radialGradient>
<radialGradient id="paint32_radial_4822_3203" cx="0" cy="0" r="1" gradientUnits="userSpaceOnUse" gradientTransform="translate(308.008 334.611) rotate(-12.2487) scale(77.4089 103.065)">
<stop stop-color="#E17239"/>
<stop offset="0.6705" stop-color="#D17345"/>
<stop offset="1" stop-color="#C7734D"/>
</radialGradient>
<radialGradient id="paint33_radial_4822_3203" cx="0" cy="0" r="1" gradientUnits="userSpaceOnUse" gradientTransform="translate(239.674 507.023) rotate(-75.7262) scale(180.589 240.44)">
<stop stop-color="#E1CF51"/>
<stop offset="0.4305" stop-color="#D1BF41"/>
<stop offset="1" stop-color="#B5A427"/>
</radialGradient>
<radialGradient id="paint34_radial_4822_3203" cx="0" cy="0" r="1" gradientUnits="userSpaceOnUse" gradientTransform="translate(251.872 438.047) rotate(-19.7931) scale(84.2643 84.2642)">
<stop stop-color="#E16C2F"/>
<stop offset="0.6705" stop-color="#D16E3D"/>
<stop offset="1" stop-color="#C76F46"/>
</radialGradient>
<radialGradient id="paint35_radial_4822_3203" cx="0" cy="0" r="1" gradientUnits="userSpaceOnUse" gradientTransform="translate(392.29 300.546) rotate(-32.9406) scale(7.31492 9.73965)">
<stop stop-color="#E15329"/>
<stop offset="0.4305" stop-color="#D15132"/>
<stop offset="1" stop-color="#B54D41"/>
</radialGradient>
<radialGradient id="paint36_radial_4822_3203" cx="0" cy="0" r="1" gradientUnits="userSpaceOnUse" gradientTransform="translate(369.675 284.244) rotate(-32.9405) scale(7.31493 9.73965)">
<stop stop-color="#E15329"/>
<stop offset="0.4305" stop-color="#D15132"/>
<stop offset="1" stop-color="#B54D41"/>
</radialGradient>
<radialGradient id="paint37_radial_4822_3203" cx="0" cy="0" r="1" gradientUnits="userSpaceOnUse" gradientTransform="translate(332.551 312.065) rotate(-32.9406) scale(7.31492 9.73964)">
<stop stop-color="#E15329"/>
<stop offset="0.4305" stop-color="#D15132"/>
<stop offset="1" stop-color="#B54D41"/>
</radialGradient>
<radialGradient id="paint38_radial_4822_3203" cx="0" cy="0" r="1" gradientUnits="userSpaceOnUse" gradientTransform="translate(311.974 332.94) rotate(-32.9406) scale(7.31492 9.73966)">
<stop stop-color="#E15329"/>
<stop offset="0.4305" stop-color="#D15132"/>
<stop offset="1" stop-color="#B54D41"/>
</radialGradient>
<radialGradient id="paint39_radial_4822_3203" cx="0" cy="0" r="1" gradientUnits="userSpaceOnUse" gradientTransform="translate(275.449 330.598) rotate(-32.9406) scale(7.31492 9.73966)">
<stop stop-color="#E15329"/>
<stop offset="0.4305" stop-color="#D15132"/>
<stop offset="1" stop-color="#B54D41"/>
</radialGradient>
<radialGradient id="paint40_radial_4822_3203" cx="0" cy="0" r="1" gradientUnits="userSpaceOnUse" gradientTransform="translate(225.86 373.792) rotate(-32.9406) scale(7.31492 9.73966)">
<stop stop-color="#E15329"/>
<stop offset="0.4305" stop-color="#D15132"/>
<stop offset="1" stop-color="#B54D41"/>
</radialGradient>
<radialGradient id="paint41_radial_4822_3203" cx="0" cy="0" r="1" gradientUnits="userSpaceOnUse" gradientTransform="translate(254.882 375.016) rotate(-32.9405) scale(7.31492 9.73964)">
<stop stop-color="#E15329"/>
<stop offset="0.4305" stop-color="#D15132"/>
<stop offset="1" stop-color="#B54D41"/>
</radialGradient>
<radialGradient id="paint42_radial_4822_3203" cx="0" cy="0" r="1" gradientUnits="userSpaceOnUse" gradientTransform="translate(275.052 354.221) rotate(-32.9406) scale(4.21158 5.60763)">
<stop stop-color="#E15329"/>
<stop offset="0.4305" stop-color="#D15132"/>
<stop offset="1" stop-color="#B54D41"/>
</radialGradient>
<radialGradient id="paint43_radial_4822_3203" cx="0" cy="0" r="1" gradientUnits="userSpaceOnUse" gradientTransform="translate(295.782 354.671) rotate(-32.9406) scale(4.21158 5.60763)">
<stop stop-color="#E15329"/>
<stop offset="0.4305" stop-color="#D15132"/>
<stop offset="1" stop-color="#B54D41"/>
</radialGradient>
<radialGradient id="paint44_radial_4822_3203" cx="0" cy="0" r="1" gradientUnits="userSpaceOnUse" gradientTransform="translate(299.195 313.219) rotate(-32.9406) scale(4.21158 5.60762)">
<stop stop-color="#E15329"/>
<stop offset="0.4305" stop-color="#D15132"/>
<stop offset="1" stop-color="#B54D41"/>
</radialGradient>
<radialGradient id="paint45_radial_4822_3203" cx="0" cy="0" r="1" gradientUnits="userSpaceOnUse" gradientTransform="translate(355.087 320.222) rotate(-32.9406) scale(4.21157 5.60761)">
<stop stop-color="#E15329"/>
<stop offset="0.4305" stop-color="#D15132"/>
<stop offset="1" stop-color="#B54D41"/>
</radialGradient>
<radialGradient id="paint46_radial_4822_3203" cx="0" cy="0" r="1" gradientUnits="userSpaceOnUse" gradientTransform="translate(356.985 301.954) rotate(-32.9406) scale(4.21158 5.60762)">
<stop stop-color="#E15329"/>
<stop offset="0.4305" stop-color="#D15132"/>
<stop offset="1" stop-color="#B54D41"/>
</radialGradient>
<radialGradient id="paint47_radial_4822_3203" cx="0" cy="0" r="1" gradientUnits="userSpaceOnUse" gradientTransform="translate(428.981 532.168) rotate(5.16984) scale(178.733 178.733)">
<stop stop-color="#BE6009"/>
<stop offset="0.6447" stop-color="#B93325"/>
<stop offset="0.807" stop-color="#BB2835"/>
<stop offset="1" stop-color="#BF184E"/>
</radialGradient>
</defs>
</svg>
