<svg width="343" height="422" viewBox="0 0 343 422" fill="none" xmlns="http://www.w3.org/2000/svg">
<path d="M176.933 421.814C172.273 421.774 169.943 421.774 165.283 421.814C126.483 422.374 84.9028 412.444 55.1128 386.214C25.0228 359.714 12.8328 320.084 14.0828 280.704C15.3428 245.764 16.6128 210.824 17.8728 175.884C20.2928 95.4735 80.6828 13.2835 165.873 13.9335C170.063 13.9335 172.153 13.9335 176.343 13.9335C261.523 13.2835 321.923 95.4735 324.343 175.884C325.603 210.824 326.873 245.764 328.133 280.704C329.833 319.914 316.953 359.934 287.103 386.214C257.123 412.614 215.883 422.024 176.933 421.814Z" fill="url(#paint0_linear_2267_616)"/>
<path d="M176.274 2.69331L174.164 23.4133C174.144 23.5933 173.984 23.7233 173.804 23.7033C173.644 23.6833 173.524 23.5633 173.514 23.4133L171.404 2.69331C171.264 1.35331 172.244 0.153314 173.594 0.0133141C174.934 -0.126686 176.134 0.853316 176.274 2.20332C176.284 2.36332 176.284 2.54331 176.274 2.69331Z" fill="#F3C344"/>
<path d="M200.714 14.4231L184.624 27.6331C184.454 27.7731 184.204 27.7532 184.064 27.5732C183.944 27.4232 183.944 27.2131 184.064 27.0631L197.274 10.9732C198.134 9.93315 199.674 9.78315 200.714 10.6331C201.754 11.4931 201.904 13.0332 201.054 14.0732C200.954 14.2132 200.834 14.3331 200.714 14.4231Z" fill="#F3C344"/>
<path d="M150.404 10.9834L163.864 26.8134C164.134 27.1334 164.094 27.6134 163.774 27.8834C163.484 28.1334 163.064 28.1234 162.784 27.8834L146.964 14.4234C145.934 13.5534 145.814 12.0134 146.684 10.9834C147.554 9.95343 149.094 9.83343 150.124 10.7034C150.224 10.7934 150.324 10.8934 150.404 10.9834Z" fill="#F3C344"/>
<path d="M2.69331 197.513L23.4133 199.623C23.5933 199.643 23.7233 199.803 23.7033 199.983C23.6833 200.143 23.5633 200.263 23.4133 200.273L2.69331 202.383C1.35331 202.523 0.153314 201.543 0.0133141 200.193C-0.126686 198.853 0.853314 197.653 2.20331 197.513C2.36331 197.503 2.54331 197.503 2.69331 197.513Z" fill="#F3C344"/>
<path d="M14.4234 173.073L27.6334 189.163C27.7734 189.333 27.7534 189.583 27.5734 189.723C27.4234 189.843 27.2134 189.843 27.0634 189.723L10.9834 176.523C9.9434 175.663 9.7934 174.123 10.6434 173.083C11.5034 172.043 13.0434 171.893 14.0834 172.743C14.2134 172.843 14.3334 172.963 14.4234 173.073Z" fill="#F3C344"/>
<path d="M10.9834 223.383L26.8134 209.923C27.1334 209.653 27.6134 209.693 27.8834 210.013C28.1334 210.303 28.1234 210.723 27.8834 211.003L14.4234 226.823C13.5534 227.853 12.0134 227.973 10.9834 227.103C9.95343 226.233 9.83343 224.693 10.7034 223.663C10.7934 223.563 10.8934 223.463 10.9834 223.383Z" fill="#F3C344"/>
<path d="M339.663 197.513L318.943 199.623C318.763 199.643 318.633 199.803 318.653 199.983C318.673 200.143 318.793 200.263 318.943 200.273L339.663 202.383C341.003 202.523 342.203 201.543 342.343 200.193C342.483 198.853 341.503 197.653 340.153 197.513C339.993 197.503 339.823 197.503 339.663 197.513Z" fill="#F3C344"/>
<path d="M327.933 173.073L314.723 189.163C314.583 189.333 314.603 189.583 314.783 189.723C314.933 189.843 315.143 189.843 315.293 189.723L331.383 176.513C332.423 175.653 332.573 174.113 331.723 173.073C330.863 172.033 329.323 171.883 328.283 172.733C328.153 172.843 328.033 172.963 327.933 173.073Z" fill="#F3C344"/>
<path d="M331.373 223.383L315.543 209.923C315.223 209.653 314.743 209.693 314.473 210.013C314.223 210.303 314.233 210.723 314.473 211.003L327.933 226.833C328.803 227.863 330.343 227.983 331.373 227.113C332.403 226.243 332.523 224.703 331.653 223.673C331.573 223.563 331.473 223.463 331.373 223.383Z" fill="#F3C344"/>
<path d="M159.544 197.743C158.754 201.413 167.514 209.553 176.944 207.473C184.004 205.913 189.594 199.043 188.234 195.773C185.854 190.043 160.754 192.133 159.544 197.743Z" fill="#C4CF4D"/>
<path d="M148.184 185.623C143.654 181.093 136.324 181.093 131.794 185.623C127.264 190.153 127.264 197.483 131.794 202.013C136.324 206.543 143.654 206.543 148.184 202.013C152.704 197.493 152.704 190.153 148.184 185.623ZM146.674 200.503C142.984 204.193 136.994 204.193 133.304 200.503L146.674 187.133C150.364 190.823 150.364 196.813 146.674 200.503Z" fill="#C4CF4D"/>
<path d="M215.983 185.623C211.453 181.093 204.123 181.093 199.593 185.623C195.063 190.153 195.063 197.483 199.593 202.013C204.123 206.543 211.453 206.543 215.983 202.013C220.513 197.493 220.513 190.153 215.983 185.623ZM214.473 200.503C210.783 204.193 204.793 204.193 201.103 200.503L214.473 187.133C218.163 190.823 218.163 196.813 214.473 200.503Z" fill="#C4CF4D"/>
<defs>
<linearGradient id="paint0_linear_2267_616" x1="171.139" y1="383.294" x2="171.139" y2="70.1908" gradientUnits="userSpaceOnUse">
<stop stop-color="#6A4727"/>
<stop offset="0.1931" stop-color="#734D2A"/>
<stop offset="0.5059" stop-color="#8B5E31"/>
<stop offset="0.8973" stop-color="#B27A3D"/>
<stop offset="1" stop-color="#BD8240"/>
</linearGradient>
</defs>
</svg>
