<svg width="502" height="486" viewBox="0 0 502 486" fill="none" xmlns="http://www.w3.org/2000/svg">
<path d="M421.193 190.03C406.54 154.21 368.899 147.819 367.022 147.541C382.758 123.97 379.46 93.0025 360.387 74.7269C343.963 58.9796 318.443 55.1632 296.759 65.5056C273.895 38.4551 247.253 22.0623 230.495 29.1805C207.962 38.7384 208.578 88.477 216.299 120.747C222.013 144.627 231.352 158.547 241.394 169.946C241.323 169.949 241.254 169.961 241.184 169.963C241.401 170.158 241.932 170.633 242.647 171.35C243.24 172.007 243.833 172.664 244.434 173.31C247.831 177.311 252.394 184.477 251.052 192.929C250.718 195.008 250.079 196.857 249.316 198.464C248.754 199.65 247.216 199.972 246.222 199.111C240.296 193.952 234.36 188.794 228.436 183.645C223.566 179.406 216.018 180.828 213.015 186.546C209.687 192.891 206.35 199.247 203.021 205.591C201.72 208.065 198.211 208.145 196.801 205.734C195.668 203.801 194.612 201.438 193.936 198.643C192.806 193.959 193.157 189.672 193.994 186.184C201.142 169.885 207.671 152.264 204.293 122.854C200.511 89.8894 184.081 42.9494 159.636 41.6646C141.434 40.7109 122.004 65.2171 109.782 98.4646C85.8606 96.1737 63.1927 108.477 53.145 128.892C41.4726 152.589 48.9673 182.827 71.8142 199.584C70.1475 200.497 36.9698 219.365 35.4421 258.038C34.4584 283.038 47.0772 306.747 68.4133 320.004C47.8626 352.953 52.5914 393.65 76.8429 416.242C103.184 440.781 140.37 432.609 143.587 431.849C166.765 449.391 193.408 454.736 211.823 444.34C234.53 431.512 236.336 399.482 236.967 388.15C238.003 369.781 234.35 355.57 228.452 343.196C227.841 341.923 227.437 340.552 227.442 339.14C227.439 337.739 227.756 336.83 228.395 336.423C230.055 335.358 233.873 337.66 239.856 343.317C245.123 348.309 253.694 346.818 257.14 340.442C261.28 332.767 264.386 329.193 266.458 329.711C267.329 329.933 268.018 330.898 268.52 332.597C268.946 334.035 269.01 335.547 268.887 337.041C267.74 350.403 269.267 364.705 276.35 381.206C280.829 391.637 293.481 421.118 319.196 425.407C340.056 428.878 363.264 414.743 379.045 390.332C382.318 389.948 420.066 384.906 436.426 352.838C451.488 323.314 442.012 283.454 411.432 259.521C426.919 239.781 430.668 213.186 421.193 190.03Z" fill="url(#paint0_radial_4822_2783)"/>
<path d="M169.497 397.62C156.973 396.732 150.432 387.05 136.133 389.572C135.315 389.716 134.501 389.88 133.693 390.073C133.693 390.073 133.437 390.118 133.141 390.17C131.309 390.493 114.982 393.088 106.114 384.832C97.5604 376.867 94.7453 358.943 104.854 342.732C110.885 333.057 112.828 321.383 110.241 310.283C107.664 299.182 100.769 289.563 91.0866 283.543C82.8644 278.433 77.9863 269.312 78.3601 259.741C78.9037 246.008 91.5831 237.812 92.9022 237.001C105.5 229.895 113.7 216.914 114.664 202.457C115.645 187.804 109.069 173.661 97.221 164.976C90.8773 160.327 89.4012 152.474 91.6744 147.86C93.2667 144.624 96.9409 142.138 101.254 141.378C102.702 141.122 104.194 141.062 105.692 141.204C109.626 141.577 113.506 141.411 117.248 140.751C128.367 138.79 139.068 112.178 150.089 113.291C156.913 113.986 160.875 125.513 161.634 127.746C162.684 130.82 163.572 136.37 161.421 148.762C159.995 156.974 156.912 163.905 152.914 172.906C145.192 190.271 134.622 214.058 137.498 249.72C140.91 291.99 160.599 319.113 174.977 338.917C184.619 352.194 190.532 360.737 192.95 370.709C194.727 378.021 195.719 381.979 194.107 385.736C190.717 393.635 179.256 398.316 169.497 397.62Z" fill="url(#paint1_radial_4822_2783)"/>
<path d="M315.782 364.291C312.941 361.198 312.543 357.095 311.729 349.775C310.59 339.567 313.234 329.516 317.744 313.743C324.481 290.216 333.716 257.992 322.455 217.107C312.96 182.611 294.892 163.874 281.697 150.198C274.85 143.099 269.582 137.641 265.446 130.419C259.186 119.51 258.112 113.993 258.057 110.743C258.016 108.385 257.787 96.1992 263.962 93.2116C273.937 88.3962 293.095 109.744 304.214 107.783C307.966 107.122 311.669 105.951 315.229 104.257C316.587 103.611 318.01 103.157 319.458 102.902C323.771 102.141 328.074 103.221 330.679 105.726C334.382 109.277 335.68 117.162 331.311 123.71C323.158 135.921 321.806 151.462 327.739 164.896C333.589 178.151 345.735 187.545 360.003 189.913C361.52 190.225 376.248 193.588 381.446 206.309C385.07 215.174 383.606 225.414 377.629 233.038C370.59 242.006 367.4 253.403 368.776 264.716C370.151 276.029 375.959 286.337 384.936 293.365C399.978 305.132 403.463 322.938 398.15 333.348C392.642 344.149 376.411 347.295 374.58 347.618C374.284 347.67 374.058 347.71 373.908 347.726C373.082 347.821 372.261 347.946 371.444 348.09C368.224 348.658 365.117 349.581 362.161 350.843C355.248 353.789 351.09 362.747 342.964 367.053C334.38 371.583 321.735 370.756 315.782 364.291Z" fill="url(#paint2_radial_4822_2783)"/>
<path d="M236.467 272.205C228.972 273.527 222.897 267.175 222.155 266.362C220.895 264.979 220.995 262.84 222.376 261.571C223.768 260.31 225.908 260.41 227.167 261.792C227.366 262 232.057 267.124 236.552 265.143C239.401 263.91 241.289 260.277 242.112 257.288C242.607 255.485 244.459 254.417 246.272 254.91C248.076 255.404 249.135 257.268 248.651 259.07C247.885 261.865 245.438 268.664 239.262 271.357C238.309 271.769 237.373 272.045 236.467 272.205Z" fill="#DCE7EA"/>
<path d="M199.16 277.332C206.251 276.081 210.978 269.318 209.73 262.237L184.065 266.762C185.314 273.843 192.07 278.582 199.16 277.332Z" fill="#DCE7EA"/>
<path d="M274.252 264.091C281.343 262.841 286.07 256.077 284.821 248.996L259.157 253.521C260.406 260.602 267.161 265.341 274.252 264.091Z" fill="#DCE7EA"/>
<defs>
<radialGradient id="paint0_radial_4822_2783" cx="0" cy="0" r="1" gradientUnits="userSpaceOnUse" gradientTransform="translate(230.429 236.01) rotate(-10) scale(200.842 355.933)">
<stop stop-color="#A26336"/>
<stop offset="0.4822" stop-color="#B77340"/>
<stop offset="0.6354" stop-color="#AF6E3E"/>
<stop offset="0.876" stop-color="#985F3A"/>
<stop offset="1" stop-color="#8A5637"/>
</radialGradient>
<radialGradient id="paint1_radial_4822_2783" cx="0" cy="0" r="1" gradientUnits="userSpaceOnUse" gradientTransform="translate(131.598 260.727) rotate(-10) scale(107.307 107.307)">
<stop stop-color="#C9B57F"/>
<stop offset="0.4268" stop-color="#CAB077"/>
<stop offset="1" stop-color="#CDA464"/>
</radialGradient>
<radialGradient id="paint2_radial_4822_2783" cx="0" cy="0" r="1" gradientUnits="userSpaceOnUse" gradientTransform="translate(331.78 225.577) rotate(-10) scale(107.403 107.403)">
<stop stop-color="#C9B57F"/>
<stop offset="0.4268" stop-color="#CAB077"/>
<stop offset="1" stop-color="#CDA464"/>
</radialGradient>
</defs>
</svg>
