<svg width="129" height="171" viewBox="0 0 129 171" fill="none" xmlns="http://www.w3.org/2000/svg">
<path d="M64.0543 158.019C53.3773 158.019 45.2245 155.792 38.3885 151.009C11.2158 131.997 5.50177 102.916 23.4806 75.1186C28.4198 67.4836 30.3784 63.8461 39.3773 51.0059C44.1787 44.1572 50.4727 34.893 57.6557 23.4737C60.6126 18.7705 67.4961 18.7705 70.4529 23.4737C77.6312 34.893 83.9299 44.1572 88.7313 51.0059C97.7302 63.8414 99.6888 67.4789 104.628 75.1186C122.607 102.916 116.893 131.992 89.72 151.009C82.8841 155.792 74.7314 158.019 64.0543 158.019Z" fill="url(#paint0_radial_4373_2280)"/>
<path d="M113.47 69.4444C99.9925 48.6093 86.5155 29.2756 73.0384 7.6401C68.7695 0.786633 59.338 0.786633 55.0691 7.6401C41.5921 29.2756 28.1151 48.6093 14.638 69.4444C-6.72078 102.466 0.880543 137.572 32.3459 159.586C41.806 166.203 52.6114 168.5 64.0585 168.5C75.5057 168.5 86.3111 166.203 95.7711 159.586C127.232 137.572 134.828 102.466 113.47 69.4444Z" stroke="url(#paint1_linear_4373_2280)" stroke-width="5" stroke-miterlimit="10"/>
<path d="M48.3759 85.6001C45.4143 85.6001 43.0137 87.9919 43.0137 90.9427C43.0137 93.8934 45.4143 96.2853 48.3759 96.2853C51.3376 96.2853 53.7382 93.8934 53.7382 90.9427C53.7335 87.9919 51.3328 85.6001 48.3759 85.6001ZM44.0025 90.9379C44.0025 88.5319 45.961 86.5805 48.3759 86.5805C50.7909 86.5805 52.7494 88.5319 52.7494 90.9379H44.0025Z" fill="white"/>
<path d="M79.7314 85.6001C76.7698 85.6001 74.3691 87.9919 74.3691 90.9427C74.3691 93.8934 76.7698 96.2853 79.7314 96.2853C82.693 96.2853 85.0937 93.8934 85.0937 90.9427C85.0937 87.9919 82.693 85.6001 79.7314 85.6001ZM75.3627 90.9379C75.3627 88.5319 77.3212 86.5805 79.7362 86.5805C82.1511 86.5805 84.1097 88.5319 84.1097 90.9379H75.3627Z" fill="white"/>
<path d="M61.5114 94.6986C61.4543 93.2019 62.947 90.3175 64.4302 91.1463C65.5616 91.7763 66.7025 94.5612 66.5932 95.9253C66.3792 98.4924 61.6064 97.2751 61.5114 94.6986Z" fill="white"/>
<defs>
<radialGradient id="paint0_radial_4373_2280" cx="0" cy="0" r="1" gradientUnits="userSpaceOnUse" gradientTransform="translate(64.0541 88.9847) scale(60.8069 80.6607)">
<stop stop-color="#605E5D"/>
<stop offset="0.346" stop-color="#706C69"/>
<stop offset="1" stop-color="#998E87"/>
</radialGradient>
<linearGradient id="paint1_linear_4373_2280" x1="1.36396" y1="85.5013" x2="126.743" y2="85.5013" gradientUnits="userSpaceOnUse">
<stop stop-color="#9EA1A2"/>
<stop offset="0.3097" stop-color="#8E9497"/>
<stop offset="0.9148" stop-color="#63727C"/>
<stop offset="1" stop-color="#5D6D78"/>
</linearGradient>
</defs>
</svg>
