<svg width="557" height="386" viewBox="0 0 557 386" fill="none" xmlns="http://www.w3.org/2000/svg">
<path d="M272.263 281.361C273.089 279.374 273.906 277.392 274.732 275.404C275.019 274.991 275.36 274.603 275.608 274.168C284.164 258.646 301.344 249.839 318.958 251.883C326.515 252.757 333.386 255.379 339.79 259.43C344.755 262.573 349.889 262.264 354.924 259.569C369.539 251.754 384.249 251.589 398.881 259.298C415.762 268.2 424.734 286.441 421.857 305.321C421.451 308.015 420.403 310.529 419.921 313.201C419.484 314.248 419.055 315.289 418.618 316.336C418.306 316.802 417.921 317.232 417.681 317.734C415.122 323.148 411.295 327.622 406.928 331.569C398.177 339.473 388.056 345.128 376.847 348.827C357.663 355.165 338.448 354.909 319.378 348.534C305.208 343.799 292.783 336.065 282.561 325.094C272.237 314.01 268.416 300.913 271.188 285.972C271.497 284.433 271.91 282.907 272.263 281.361Z" fill="#FFE24B"/>
<path d="M155.344 221.501C155.904 219.427 156.464 217.353 157.024 215.279C157.264 214.828 157.551 214.407 157.735 213.94C164.229 197.448 180.137 186.517 197.874 186.278C205.481 186.176 212.627 187.887 219.502 191.086C224.829 193.564 229.874 192.599 234.526 189.28C248.015 179.655 262.577 177.603 278.087 183.372C295.98 190.036 307.215 206.97 306.78 226.069C306.719 228.792 305.997 231.421 305.871 234.13C305.574 235.223 305.277 236.315 304.989 237.406C304.742 237.91 304.418 238.391 304.249 238.917C302.408 244.612 299.184 249.546 295.363 254.02C287.704 262.982 278.386 269.89 267.747 274.993C249.531 283.743 230.446 285.951 210.717 282.077C196.053 279.2 182.735 273.129 171.19 263.552C159.528 253.88 154.061 241.385 154.895 226.205C154.983 224.638 155.195 223.072 155.344 221.501Z" fill="#FFE24B"/>
<path d="M80.3557 88.5946C82.2936 87.6575 84.2287 86.7299 86.157 85.79C86.6492 85.6725 87.1563 85.6114 87.6309 85.4471C104.346 79.5512 123.025 84.398 134.823 97.6398C139.882 103.314 143.275 109.849 145.36 117.128C146.978 122.783 151.012 125.963 156.568 127.304C172.684 131.188 183.771 140.85 189.565 156.338C196.247 174.219 190.815 193.801 176.105 205.995C174.006 207.739 171.552 208.911 169.419 210.594C168.4 211.089 167.384 211.576 166.366 212.071C165.827 212.207 165.254 212.28 164.743 212.496C159.234 214.834 153.388 215.637 147.516 215.672C135.725 215.759 124.407 213.246 113.576 208.552C95.0303 200.516 80.8512 187.552 70.8566 170.106C63.4219 157.151 59.2925 143.104 58.9582 128.107C58.6244 112.964 64.4811 100.638 76.4916 91.326C77.7454 90.3779 79.069 89.5124 80.3557 88.5946Z" fill="#FFE24B"/>
<path d="M128.62 120.414C125.658 118.816 121.967 119.91 120.369 122.872C118.77 125.834 119.865 129.525 122.827 131.124C125.788 132.723 129.48 131.628 131.078 128.666C132.677 125.704 131.573 122.01 128.62 120.414ZM123.354 130.132C120.942 128.828 120.047 125.809 121.351 123.397C122.655 120.985 125.674 120.09 128.086 121.394L123.354 130.132Z" fill="#6D6600"/>
<path d="M159.939 137.362C156.977 135.763 153.285 136.858 151.687 139.82C150.088 142.782 151.183 146.473 154.145 148.072C157.107 149.67 160.798 148.576 162.397 145.614C163.992 142.661 162.9 138.961 159.939 137.362ZM154.682 147.082C152.27 145.778 151.375 142.76 152.679 140.347C153.983 137.935 157.002 137.041 159.414 138.345L154.682 147.082Z" fill="#6D6600"/>
<path d="M137.85 140.283C134.726 138.596 134.341 134.507 134.314 133.989C134.254 133.117 134.911 132.361 135.782 132.301C136.653 132.241 137.41 132.898 137.47 133.769C137.482 133.908 137.71 137.14 139.926 137.72C141.327 138.095 143.075 137.311 144.238 136.462C144.939 135.947 145.929 136.088 146.451 136.802C146.966 137.503 146.812 138.5 146.111 139.015C145.015 139.811 142.145 141.592 139.11 140.784C138.646 140.66 138.228 140.487 137.85 140.283Z" fill="#6D6600"/>
<path d="M243.827 193.344C246.797 192.066 250.246 193.441 251.524 196.412C252.801 199.383 251.426 202.832 248.456 204.109C245.485 205.387 242.036 204.012 240.758 201.041C239.479 198.061 240.854 194.612 243.827 193.344ZM248.025 203.113C250.447 202.074 251.577 199.262 250.535 196.831C249.496 194.409 246.684 193.279 244.253 194.32L248.025 203.113Z" fill="#6D6600"/>
<path d="M212.325 206.859C215.295 205.581 218.744 206.957 220.022 209.927C221.299 212.898 219.924 216.347 216.954 217.624C213.983 218.902 210.534 217.527 209.256 214.556C207.979 211.585 209.354 208.136 212.325 206.859ZM216.525 216.638C218.947 215.599 220.077 212.787 219.036 210.356C217.996 207.934 215.184 206.803 212.753 207.845L216.525 216.638Z" fill="#6D6600"/>
<path d="M233.251 211.582C236.39 210.232 237.112 206.347 237.188 205.865C237.325 205.038 236.76 204.25 235.924 204.116C235.087 203.982 234.309 204.545 234.175 205.381C234.156 205.51 233.648 208.591 231.471 208.952C230.097 209.187 228.485 208.286 227.445 207.368C226.814 206.813 225.858 206.863 225.294 207.497C224.738 208.128 224.8 209.091 225.422 209.648C226.396 210.51 228.999 212.465 231.984 211.956C232.448 211.873 232.87 211.748 233.251 211.582Z" fill="#6D6600"/>
<path d="M347.896 280.968C348.009 282.861 353.4 285.618 357.707 283.308C360.931 281.577 362.703 277.459 361.596 276.06C359.646 273.6 347.715 278.068 347.896 280.968Z" fill="#6D6600"/>
<path d="M340.696 276.635C337.867 275.052 334.298 276.062 332.714 278.891C331.13 281.72 332.141 285.289 334.97 286.873C337.799 288.457 341.368 287.447 342.952 284.617C344.53 281.78 343.52 278.211 340.696 276.635ZM342.01 284.085C340.721 286.387 337.805 287.22 335.497 285.923L340.163 277.578C342.474 278.861 343.299 281.783 342.01 284.085Z" fill="#6D6600"/>
<path d="M373.709 267.285C370.88 265.702 367.311 266.712 365.727 269.541C364.143 272.37 365.153 275.939 367.983 277.523C370.812 279.107 374.381 278.096 375.965 275.267C377.54 272.444 376.538 268.869 373.709 267.285ZM375.02 274.749C373.731 277.051 370.815 277.884 368.507 276.587L373.173 268.241C375.484 269.525 376.311 272.432 375.02 274.749Z" fill="#6D6600"/>
<path d="M556.875 331.21C556.368 328.383 553.693 326.489 550.862 326.947C537.647 329.074 523.042 330.691 507.229 331.349C475.194 332.68 447.117 329.691 424.409 325.531C411.567 324.454 393.123 321.306 373.033 311.948C351.395 301.872 335.679 288.237 324.901 276.43C315.177 265.766 302.874 257.765 289.234 253.064C279.991 249.876 269.825 245.534 259.296 239.567C243.995 230.905 231.736 220.994 222.145 211.623C208.284 198.077 191.369 188.07 172.947 182.07C167.358 180.249 161.444 178.045 155.319 175.378C113.953 157.348 89.8872 129.124 62.2509 98.1809C47.4864 81.6425 28.6823 57.9283 10.7566 26.5686C9.32328 24.0638 6.40255 22.8031 3.58905 23.4603L3.53924 23.4647L3.4903 23.479C0.982153 24.0694 -0.36657 26.787 0.671655 29.1356C3.31122 35.1086 6.18386 41.2219 9.32596 47.4322C18.6929 65.9576 28.856 82.3357 39.021 96.6658C43.4847 102.951 44.2457 111.206 40.8548 118.128C25.9563 148.569 30.8073 184.583 52.7263 207.413C72.2828 227.79 102.966 235.108 131.696 226.617C131.504 230.86 130.311 273.295 165.291 300.977C203.572 331.272 249.219 315.451 251.796 314.503C253.456 319.257 269.815 363.602 315.491 377.201C349.263 387.251 386.78 376.838 413.032 350.776C420.237 343.622 430.288 340.094 440.344 341.565C461.076 344.593 485.766 346.162 513.342 343.874C527.464 342.702 540.486 340.671 552.277 338.206C555.421 337.55 557.463 334.491 556.896 331.328L556.875 331.21Z" fill="url(#paint0_linear_4822_2685)"/>
<defs>
<linearGradient id="paint0_linear_4822_2685" x1="280.393" y1="177.264" x2="202.943" y2="309.832" gradientUnits="userSpaceOnUse">
<stop stop-color="#E5D545"/>
<stop offset="0.2731" stop-color="#E3D444"/>
<stop offset="0.3735" stop-color="#DCCF42"/>
<stop offset="0.4453" stop-color="#D0C83D"/>
<stop offset="0.5033" stop-color="#C0BD37"/>
<stop offset="0.5178" stop-color="#BAB935"/>
<stop offset="0.8493" stop-color="#A9A72C"/>
<stop offset="1" stop-color="#9F9D27"/>
</linearGradient>
</defs>
</svg>
