<svg width="285" height="176" viewBox="0 0 285 176" fill="none" xmlns="http://www.w3.org/2000/svg">
<path d="M274.652 15.0614L185.413 0.934029C179.188 -0.0530384 172.86 -0.166931 166.607 0.597097C114.175 6.97507 61.7384 13.3483 9.30648 19.7263C4.237 20.3432 0.421875 24.6569 0.421875 29.782V115.657C0.421875 118.832 2.39097 121.674 5.36355 122.775C51.5048 139.93 97.6413 157.081 143.783 174.236C151.621 177.149 160.349 176.428 167.606 172.266C205.364 150.617 243.123 128.963 280.881 107.314C283.073 106.057 284.422 103.712 284.407 101.183C284.275 76.1173 284.142 51.0467 284.005 25.9809C283.977 20.533 280.015 15.9109 274.652 15.0614Z" fill="#E5CA9A"/>
<path d="M0.421875 28.6574V116.378C0.421875 118.941 1.92236 121.223 4.166 122.063C51.4433 139.745 98.7205 157.427 145.993 175.104C149.605 176.452 153.368 173.552 153.368 169.419V55.033C153.368 52.105 151.418 49.6041 148.753 49.1058L6.92084 22.7303C3.52699 22.0991 0.421875 24.9274 0.421875 28.6574Z" fill="url(#paint0_radial_4373_2153)"/>
<path d="M157.566 54.6438V167.554C157.566 172.081 162.011 174.985 165.713 172.874C204.295 150.888 242.877 128.897 281.454 106.911C283.295 105.862 284.445 103.784 284.422 101.529C284.176 75.9986 283.934 50.4677 283.688 24.9321C283.65 21.074 280.313 18.2504 276.844 19.1426L161.831 48.7925C159.337 49.4379 157.566 51.8582 157.566 54.6438Z" fill="url(#paint1_radial_4373_2153)"/>
<path d="M166.811 0.554404L9.22656 19.9541L154.353 45.4233C155.058 45.5466 155.782 45.5229 156.483 45.3473L277.256 15.4506L187.728 0.953028C180.803 -0.166914 173.769 -0.299789 166.811 0.554404Z" fill="url(#paint2_radial_4373_2153)"/>
<path d="M68.7543 106.693C63.964 105.307 60.8968 99.2517 60.5229 98.4829C59.8933 97.1826 60.1868 95.7922 61.1808 95.3698C62.1796 94.9522 63.4954 95.6641 64.125 96.9643C64.2244 97.1684 66.5722 101.98 69.5731 102.023C71.476 102.061 73.0427 100.22 73.8758 98.4829C74.3775 97.4341 75.6461 97.2823 76.7158 98.1649C77.7809 99.0381 78.2353 100.599 77.7335 101.648C76.9525 103.276 74.6947 107.053 70.5671 106.968C69.9423 106.963 69.3365 106.863 68.7543 106.693Z" fill="#FF9A00"/>
<path d="M45.0721 98.8199C49.602 100.134 53.2751 97.0735 53.2751 91.9863L36.8691 87.2313C36.8691 92.3185 40.5423 97.5054 45.0721 98.8199Z" fill="#FF9A00"/>
<path d="M93.0643 112.724C97.5942 114.039 101.267 110.978 101.267 105.891L84.8613 101.136C84.8613 106.223 88.5297 111.41 93.0643 112.724Z" fill="#FF9A00"/>
<defs>
<radialGradient id="paint0_radial_4373_2153" cx="0" cy="0" r="1" gradientUnits="userSpaceOnUse" gradientTransform="translate(76.891 99.0343) scale(112.644 112.932)">
<stop stop-color="#F3EBD9"/>
<stop offset="0.4134" stop-color="#F4EAD7"/>
<stop offset="0.6395" stop-color="#F6E7CF"/>
<stop offset="0.8198" stop-color="#F9E2C1"/>
<stop offset="0.9759" stop-color="#FEDAAE"/>
<stop offset="1" stop-color="#FFD9AA"/>
</radialGradient>
<radialGradient id="paint1_radial_4373_2153" cx="0" cy="0" r="1" gradientUnits="userSpaceOnUse" gradientTransform="translate(220.989 96.2716) scale(115.366 115.662)">
<stop stop-color="#F3EBD9"/>
<stop offset="0.4134" stop-color="#F4EAD7"/>
<stop offset="0.6395" stop-color="#F6E7CF"/>
<stop offset="0.8198" stop-color="#F9E2C1"/>
<stop offset="0.9759" stop-color="#FEDAAE"/>
<stop offset="1" stop-color="#FFD9AA"/>
</radialGradient>
<radialGradient id="paint2_radial_4373_2153" cx="0" cy="0" r="1" gradientUnits="userSpaceOnUse" gradientTransform="translate(143.237 22.7476) scale(137.839 138.192)">
<stop stop-color="#F3EBDA"/>
<stop offset="0.416" stop-color="#F4EAD8"/>
<stop offset="0.6436" stop-color="#F6E7D0"/>
<stop offset="0.825" stop-color="#F9E2C2"/>
<stop offset="0.9821" stop-color="#FEDBAF"/>
<stop offset="1" stop-color="#FFDAAC"/>
</radialGradient>
</defs>
</svg>
