<svg width="682" height="550" viewBox="0 0 682 550" fill="none" xmlns="http://www.w3.org/2000/svg">
<path opacity="0.75" d="M214.707 275.505L259.835 136.077L389.835 194.677L502.321 275.505L422.166 415.607L279.389 383.328L214.707 275.505Z" fill="#3DCE94"/>
<path d="M217.884 480.51H227.388V482.058H217.884V480.51ZM222.672 484.416H226.992V485.91H222.672V484.416ZM219.126 488.358H226.218V489.87H219.126V488.358ZM221.844 481.374H223.446V489.132H221.844V481.374ZM218.496 483.894H220.026V489.87H218.496V483.894ZM225.588 488.358H227.19C227.19 488.358 227.19 488.4 227.19 488.484C227.19 488.568 227.184 488.664 227.172 488.772C227.172 488.88 227.166 488.97 227.154 489.042C227.07 490.482 226.98 491.658 226.884 492.57C226.788 493.47 226.68 494.166 226.56 494.658C226.44 495.138 226.29 495.474 226.11 495.666C225.93 495.882 225.738 496.032 225.534 496.116C225.342 496.212 225.102 496.272 224.814 496.296C224.586 496.332 224.28 496.344 223.896 496.332C223.512 496.332 223.098 496.32 222.654 496.296C222.642 496.056 222.594 495.786 222.51 495.486C222.426 495.198 222.312 494.946 222.168 494.73C222.588 494.778 222.972 494.808 223.32 494.82C223.68 494.82 223.944 494.82 224.112 494.82C224.388 494.832 224.598 494.766 224.742 494.622C224.874 494.49 224.988 494.214 225.084 493.794C225.18 493.362 225.27 492.732 225.354 491.904C225.438 491.064 225.516 489.972 225.588 488.628V488.358ZM212.142 484.38H217.272V485.82H212.142V484.38ZM211.062 487.512H217.884V488.97H211.062V487.512ZM211.35 490.086L212.502 489.798C212.67 490.302 212.82 490.854 212.952 491.454C213.096 492.054 213.192 492.57 213.24 493.002L212.016 493.344C211.98 492.9 211.896 492.378 211.764 491.778C211.644 491.166 211.506 490.602 211.35 490.086ZM210.81 494.406C211.386 494.31 212.058 494.196 212.826 494.064C213.594 493.932 214.404 493.788 215.256 493.632C216.12 493.476 216.99 493.32 217.866 493.164L217.956 494.514C216.768 494.766 215.574 495.018 214.374 495.27C213.186 495.522 212.124 495.744 211.188 495.936L210.81 494.406ZM216.552 489.6L217.866 489.96C217.686 490.5 217.506 491.064 217.326 491.652C217.146 492.228 216.972 492.714 216.804 493.11L215.742 492.786C215.85 492.498 215.952 492.168 216.048 491.796C216.144 491.412 216.24 491.028 216.336 490.644C216.432 490.26 216.504 489.912 216.552 489.6ZM213.87 484.992H215.364V494.604L213.87 494.856V484.992ZM214.446 479.7L215.814 480.276C215.454 480.984 215.022 481.68 214.518 482.364C214.014 483.036 213.474 483.666 212.898 484.254C212.334 484.842 211.764 485.358 211.188 485.802C211.164 485.67 211.11 485.496 211.026 485.28C210.942 485.064 210.846 484.842 210.738 484.614C210.642 484.386 210.552 484.2 210.468 484.056C211.224 483.552 211.962 482.916 212.682 482.148C213.402 481.368 213.99 480.552 214.446 479.7ZM213.96 481.824L214.68 480.582C215.16 480.834 215.64 481.116 216.12 481.428C216.6 481.728 217.05 482.034 217.47 482.346C217.89 482.658 218.25 482.94 218.55 483.192L217.758 484.596C217.47 484.308 217.116 484.002 216.696 483.678C216.276 483.342 215.826 483.018 215.346 482.706C214.878 482.382 214.416 482.088 213.96 481.824Z" fill="#7E7E7E"/>
<path d="M40.378 271.558H47.668V273.088H40.378V271.558ZM40.414 275.05H47.704V276.58H40.414V275.05ZM40.27 278.704H48.28V280.288H40.27V278.704ZM43.51 268.588H45.04V279.55H43.51V268.588ZM41.116 268.048H48.028V269.578H41.116V281.53H39.55V269.056L40.504 268.048H41.116ZM40.972 264.88L42.592 265.366C42.304 266.218 41.95 267.1 41.53 268.012C41.122 268.912 40.672 269.782 40.18 270.622C39.688 271.462 39.16 272.212 38.596 272.872C38.548 272.716 38.476 272.542 38.38 272.35C38.284 272.158 38.188 271.966 38.092 271.774C37.996 271.582 37.9 271.42 37.804 271.288C38.272 270.736 38.71 270.094 39.118 269.362C39.526 268.63 39.886 267.874 40.198 267.094C40.522 266.314 40.78 265.576 40.972 264.88ZM42.952 265.492L44.374 264.88C44.614 265.288 44.848 265.726 45.076 266.194C45.316 266.65 45.502 267.052 45.634 267.4L44.122 268.102C44.014 267.742 43.846 267.322 43.618 266.842C43.39 266.35 43.168 265.9 42.952 265.492ZM36.13 272.026L37.3 271.612C37.492 271.996 37.672 272.41 37.84 272.854C38.02 273.286 38.176 273.706 38.308 274.114C38.44 274.522 38.536 274.882 38.596 275.194L37.336 275.698C37.3 275.374 37.216 275.002 37.084 274.582C36.964 274.162 36.82 273.73 36.652 273.286C36.496 272.83 36.322 272.41 36.13 272.026ZM34.384 276.688L35.572 276.418C35.692 277.03 35.8 277.69 35.896 278.398C35.992 279.094 36.052 279.706 36.076 280.234L34.798 280.54C34.786 280.012 34.738 279.394 34.654 278.686C34.57 277.966 34.48 277.3 34.384 276.688ZM32.404 276.526L33.718 276.742C33.634 277.522 33.52 278.308 33.376 279.1C33.232 279.892 33.064 280.57 32.872 281.134C32.728 281.05 32.518 280.96 32.242 280.864C31.978 280.78 31.768 280.714 31.612 280.666C31.828 280.126 31.996 279.484 32.116 278.74C32.236 277.996 32.332 277.258 32.404 276.526ZM32.152 271.72C32.116 271.624 32.068 271.492 32.008 271.324C31.96 271.144 31.9 270.964 31.828 270.784C31.768 270.604 31.708 270.448 31.648 270.316C31.816 270.268 31.978 270.16 32.134 269.992C32.302 269.824 32.47 269.602 32.638 269.326C32.77 269.158 32.968 268.84 33.232 268.372C33.508 267.904 33.796 267.358 34.096 266.734C34.408 266.11 34.678 265.474 34.906 264.826L36.346 265.42C35.902 266.416 35.392 267.4 34.816 268.372C34.24 269.344 33.664 270.19 33.088 270.91V270.946C33.088 270.946 33.04 270.97 32.944 271.018C32.848 271.066 32.734 271.132 32.602 271.216C32.482 271.3 32.374 271.39 32.278 271.486C32.194 271.57 32.152 271.648 32.152 271.72ZM32.152 271.72L32.116 270.586L32.818 270.136L35.968 269.902C35.92 270.094 35.884 270.316 35.86 270.568C35.836 270.808 35.818 271.006 35.806 271.162C35.098 271.234 34.522 271.3 34.078 271.36C33.634 271.408 33.286 271.456 33.034 271.504C32.782 271.54 32.59 271.576 32.458 271.612C32.326 271.648 32.224 271.684 32.152 271.72ZM32.278 275.842C32.254 275.734 32.212 275.596 32.152 275.428C32.092 275.248 32.026 275.068 31.954 274.888C31.894 274.696 31.834 274.54 31.774 274.42C31.978 274.372 32.182 274.24 32.386 274.024C32.602 273.808 32.854 273.532 33.142 273.196C33.286 273.028 33.496 272.752 33.772 272.368C34.06 271.984 34.372 271.528 34.708 271C35.056 270.46 35.404 269.884 35.752 269.272C36.112 268.648 36.436 268.03 36.724 267.418L38.038 268.21C37.594 269.038 37.108 269.86 36.58 270.676C36.052 271.492 35.506 272.272 34.942 273.016C34.378 273.748 33.802 274.42 33.214 275.032V275.068C33.214 275.068 33.166 275.092 33.07 275.14C32.974 275.188 32.866 275.254 32.746 275.338C32.626 275.41 32.518 275.494 32.422 275.59C32.326 275.674 32.278 275.758 32.278 275.842ZM32.278 275.842L32.206 274.69L32.926 274.204L37.75 273.556C37.714 273.748 37.69 273.964 37.678 274.204C37.666 274.444 37.666 274.642 37.678 274.798C36.574 274.966 35.686 275.11 35.014 275.23C34.342 275.338 33.82 275.428 33.448 275.5C33.088 275.572 32.824 275.632 32.656 275.68C32.488 275.728 32.362 275.782 32.278 275.842ZM36.364 276.31L37.48 275.932C37.696 276.484 37.906 277.084 38.11 277.732C38.314 278.368 38.464 278.914 38.56 279.37L37.354 279.802C37.27 279.322 37.132 278.758 36.94 278.11C36.748 277.45 36.556 276.85 36.364 276.31ZM53.644 268.21H66.136V269.866H53.644V268.21ZM52.87 273.484H65.47V275.122H52.87V273.484ZM50.854 279.298H67.018V280.954H50.854V279.298ZM58.054 264.808H59.818V280.126H58.054V264.808ZM53.95 265.06L55.714 265.456C55.45 266.38 55.132 267.292 54.76 268.192C54.4 269.08 54.004 269.908 53.572 270.676C53.14 271.432 52.69 272.098 52.222 272.674C52.102 272.578 51.946 272.47 51.754 272.35C51.574 272.218 51.388 272.092 51.196 271.972C51.004 271.84 50.83 271.738 50.674 271.666C51.166 271.138 51.616 270.526 52.024 269.83C52.432 269.122 52.798 268.36 53.122 267.544C53.458 266.728 53.734 265.9 53.95 265.06ZM80.932 275.032L82.192 274.258C82.6 274.522 83.026 274.822 83.47 275.158C83.914 275.482 84.334 275.818 84.73 276.166C85.138 276.502 85.468 276.808 85.72 277.084L84.37 277.984C84.142 277.696 83.836 277.378 83.452 277.03C83.068 276.682 82.654 276.334 82.21 275.986C81.778 275.638 81.352 275.32 80.932 275.032ZM80.176 278.596L81.418 277.696C81.898 277.924 82.414 278.188 82.966 278.488C83.518 278.788 84.046 279.094 84.55 279.406C85.066 279.718 85.492 280.006 85.828 280.27L84.514 281.296C84.202 281.032 83.8 280.738 83.308 280.414C82.816 280.09 82.294 279.772 81.742 279.46C81.202 279.136 80.68 278.848 80.176 278.596ZM73.858 277.714L75.424 278.326C75.028 278.698 74.566 279.07 74.038 279.442C73.51 279.814 72.964 280.156 72.4 280.468C71.848 280.792 71.308 281.068 70.78 281.296C70.696 281.188 70.576 281.056 70.42 280.9C70.264 280.756 70.102 280.612 69.934 280.468C69.778 280.324 69.634 280.21 69.502 280.126C70.294 279.826 71.086 279.466 71.878 279.046C72.682 278.626 73.342 278.182 73.858 277.714ZM76.918 264.79H78.628V271.198H76.918V264.79ZM70.564 265.978H85.126V267.238H70.564V265.978ZM71.536 268.192H84.118V269.434H71.536V268.192ZM69.664 270.406H85.99V271.72H69.664V270.406ZM70.87 277.75C70.846 277.642 70.81 277.504 70.762 277.336C70.714 277.168 70.666 276.988 70.618 276.796C70.57 276.604 70.522 276.442 70.474 276.31C70.81 276.274 71.182 276.202 71.59 276.094C71.998 275.986 72.478 275.842 73.03 275.662C73.282 275.578 73.636 275.458 74.092 275.302C74.548 275.134 75.07 274.936 75.658 274.708C76.258 274.48 76.888 274.222 77.548 273.934C78.208 273.646 78.868 273.34 79.528 273.016C80.2 272.692 80.83 272.362 81.418 272.026L82.588 273.088C80.872 273.988 79.096 274.774 77.26 275.446C75.436 276.106 73.636 276.658 71.86 277.102V277.174C71.86 277.174 71.806 277.192 71.698 277.228C71.602 277.252 71.488 277.294 71.356 277.354C71.224 277.402 71.11 277.462 71.014 277.534C70.918 277.606 70.87 277.678 70.87 277.75ZM70.87 277.75L70.834 276.724L71.824 276.22L83.38 275.698C83.404 275.878 83.434 276.082 83.47 276.31C83.518 276.526 83.566 276.7 83.614 276.832C81.778 276.94 80.206 277.03 78.898 277.102C77.59 277.174 76.486 277.24 75.586 277.3C74.686 277.348 73.954 277.39 73.39 277.426C72.826 277.462 72.376 277.498 72.04 277.534C71.716 277.558 71.464 277.588 71.284 277.624C71.116 277.66 70.978 277.702 70.87 277.75ZM72.166 274.798C72.142 274.69 72.106 274.552 72.058 274.384C72.01 274.216 71.956 274.042 71.896 273.862C71.836 273.682 71.782 273.526 71.734 273.394C71.926 273.37 72.124 273.328 72.328 273.268C72.544 273.208 72.778 273.13 73.03 273.034C73.222 272.962 73.522 272.836 73.93 272.656C74.338 272.464 74.788 272.236 75.28 271.972C75.784 271.708 76.258 271.426 76.702 271.126L77.854 272.062C77.11 272.494 76.33 272.884 75.514 273.232C74.71 273.58 73.906 273.874 73.102 274.114V274.15C73.102 274.15 73.054 274.168 72.958 274.204C72.862 274.24 72.754 274.294 72.634 274.366C72.514 274.426 72.406 274.492 72.31 274.564C72.214 274.636 72.166 274.714 72.166 274.798ZM72.166 274.798L72.148 273.862L72.94 273.43L79.726 273.142C79.678 273.298 79.63 273.484 79.582 273.7C79.534 273.916 79.504 274.096 79.492 274.24C78.268 274.3 77.242 274.354 76.414 274.402C75.586 274.438 74.914 274.474 74.398 274.51C73.882 274.546 73.474 274.582 73.174 274.618C72.886 274.642 72.67 274.666 72.526 274.69C72.382 274.714 72.262 274.75 72.166 274.798ZM77.278 276.31H78.934V279.694C78.934 280.102 78.874 280.426 78.754 280.666C78.646 280.906 78.424 281.086 78.088 281.206C77.764 281.326 77.362 281.398 76.882 281.422C76.414 281.458 75.844 281.476 75.172 281.476C75.136 281.224 75.058 280.948 74.938 280.648C74.818 280.36 74.692 280.108 74.56 279.892C74.908 279.904 75.244 279.916 75.568 279.928C75.892 279.928 76.174 279.928 76.414 279.928C76.654 279.928 76.822 279.928 76.918 279.928C77.062 279.916 77.158 279.892 77.206 279.856C77.254 279.82 77.278 279.748 77.278 279.64V276.31ZM89.446 280V266.734H92.884C94.252 266.734 95.41 266.986 96.358 267.49C97.306 267.982 98.026 268.714 98.518 269.686C99.022 270.658 99.274 271.87 99.274 273.322C99.274 274.762 99.022 275.98 98.518 276.976C98.026 277.972 97.312 278.728 96.376 279.244C95.44 279.748 94.312 280 92.992 280H89.446ZM91.534 278.29H92.74C93.688 278.29 94.486 278.104 95.134 277.732C95.794 277.36 96.286 276.808 96.61 276.076C96.946 275.332 97.114 274.414 97.114 273.322C97.114 272.218 96.946 271.306 96.61 270.586C96.286 269.866 95.794 269.332 95.134 268.984C94.486 268.624 93.688 268.444 92.74 268.444H91.534V278.29Z" fill="#7E7E7E"/>
<path d="M146.786 67.252C145.658 67.252 144.656 66.97 143.78 66.406C142.916 65.842 142.238 65.044 141.746 64.012C141.254 62.968 141.008 61.738 141.008 60.322C141.008 58.894 141.254 57.676 141.746 56.668C142.238 55.648 142.916 54.868 143.78 54.328C144.656 53.776 145.658 53.5 146.786 53.5C147.926 53.5 148.928 53.776 149.792 54.328C150.656 54.868 151.334 55.648 151.826 56.668C152.318 57.676 152.564 58.894 152.564 60.322C152.564 61.738 152.318 62.968 151.826 64.012C151.334 65.044 150.656 65.842 149.792 66.406C148.928 66.97 147.926 67.252 146.786 67.252ZM146.786 65.416C147.518 65.416 148.154 65.206 148.694 64.786C149.246 64.366 149.672 63.778 149.972 63.022C150.272 62.254 150.422 61.354 150.422 60.322C150.422 59.29 150.272 58.402 149.972 57.658C149.672 56.902 149.246 56.326 148.694 55.93C148.154 55.522 147.518 55.318 146.786 55.318C146.054 55.318 145.412 55.522 144.86 55.93C144.32 56.326 143.9 56.902 143.6 57.658C143.312 58.402 143.168 59.29 143.168 60.322C143.168 61.354 143.312 62.254 143.6 63.022C143.9 63.778 144.32 64.366 144.86 64.786C145.412 65.206 146.054 65.416 146.786 65.416ZM156.036 67V57.082H157.728L157.908 58.486H157.944C158.376 58.03 158.838 57.646 159.33 57.334C159.834 57.01 160.398 56.848 161.022 56.848C161.754 56.848 162.336 57.01 162.768 57.334C163.2 57.646 163.524 58.09 163.74 58.666C164.232 58.138 164.736 57.706 165.252 57.37C165.78 57.022 166.35 56.848 166.962 56.848C167.994 56.848 168.756 57.19 169.248 57.874C169.752 58.546 170.004 59.512 170.004 60.772V67H167.916V61.024C167.916 60.172 167.784 59.566 167.52 59.206C167.256 58.834 166.842 58.648 166.278 58.648C165.942 58.648 165.588 58.756 165.216 58.972C164.856 59.188 164.466 59.524 164.046 59.98V67H161.976V61.024C161.976 60.172 161.844 59.566 161.58 59.206C161.316 58.834 160.896 58.648 160.32 58.648C159.996 58.648 159.648 58.756 159.276 58.972C158.904 59.188 158.514 59.524 158.106 59.98V67H156.036ZM178.057 67.252C177.157 67.252 176.341 67.048 175.609 66.64C174.877 66.22 174.295 65.626 173.863 64.858C173.431 64.078 173.215 63.142 173.215 62.05C173.215 61.246 173.341 60.526 173.593 59.89C173.845 59.242 174.187 58.696 174.619 58.252C175.051 57.796 175.537 57.448 176.077 57.208C176.617 56.968 177.169 56.848 177.733 56.848C178.609 56.848 179.347 57.046 179.947 57.442C180.547 57.826 181.003 58.372 181.315 59.08C181.627 59.776 181.783 60.592 181.783 61.528C181.783 61.732 181.771 61.93 181.747 62.122C181.735 62.302 181.711 62.458 181.675 62.59H175.249C175.309 63.214 175.471 63.754 175.735 64.21C176.011 64.654 176.365 65.002 176.797 65.254C177.241 65.494 177.745 65.614 178.309 65.614C178.753 65.614 179.167 65.548 179.551 65.416C179.935 65.284 180.307 65.104 180.667 64.876L181.387 66.19C180.931 66.49 180.421 66.742 179.857 66.946C179.305 67.15 178.705 67.252 178.057 67.252ZM175.231 61.15H179.983C179.983 60.31 179.791 59.656 179.407 59.188C179.035 58.72 178.489 58.486 177.769 58.486C177.361 58.486 176.977 58.588 176.617 58.792C176.257 58.996 175.951 59.296 175.699 59.692C175.459 60.088 175.303 60.574 175.231 61.15ZM188.133 71.446C187.341 71.446 186.633 71.344 186.009 71.14C185.385 70.948 184.893 70.66 184.533 70.276C184.185 69.892 184.011 69.412 184.011 68.836C184.011 68.416 184.137 68.02 184.389 67.648C184.641 67.276 184.995 66.952 185.451 66.676V66.604C185.199 66.436 184.983 66.22 184.803 65.956C184.635 65.68 184.551 65.344 184.551 64.948C184.551 64.552 184.665 64.198 184.893 63.886C185.133 63.562 185.391 63.304 185.667 63.112V63.04C185.319 62.776 185.013 62.416 184.749 61.96C184.485 61.504 184.353 60.982 184.353 60.394C184.353 59.65 184.527 59.014 184.875 58.486C185.235 57.946 185.703 57.538 186.279 57.262C186.867 56.986 187.503 56.848 188.187 56.848C188.475 56.848 188.739 56.872 188.979 56.92C189.231 56.956 189.447 57.01 189.627 57.082H193.137V58.648H191.265C191.445 58.852 191.595 59.11 191.715 59.422C191.835 59.734 191.895 60.076 191.895 60.448C191.895 61.168 191.727 61.786 191.391 62.302C191.067 62.806 190.623 63.196 190.059 63.472C189.495 63.736 188.871 63.868 188.187 63.868C187.971 63.868 187.737 63.844 187.485 63.796C187.245 63.736 187.017 63.664 186.801 63.58C186.645 63.712 186.513 63.856 186.405 64.012C186.309 64.168 186.261 64.366 186.261 64.606C186.261 64.894 186.375 65.128 186.603 65.308C186.843 65.488 187.281 65.578 187.917 65.578H189.753C190.917 65.578 191.799 65.77 192.399 66.154C192.999 66.526 193.299 67.132 193.299 67.972C193.299 68.608 193.089 69.19 192.669 69.718C192.249 70.246 191.649 70.666 190.869 70.978C190.101 71.29 189.189 71.446 188.133 71.446ZM188.187 62.518C188.523 62.518 188.835 62.434 189.123 62.266C189.411 62.098 189.639 61.858 189.807 61.546C189.975 61.222 190.059 60.838 190.059 60.394C190.059 59.95 189.975 59.578 189.807 59.278C189.639 58.966 189.411 58.726 189.123 58.558C188.847 58.39 188.535 58.306 188.187 58.306C187.839 58.306 187.521 58.39 187.233 58.558C186.957 58.726 186.735 58.966 186.567 59.278C186.399 59.578 186.315 59.95 186.315 60.394C186.315 60.838 186.399 61.222 186.567 61.546C186.747 61.858 186.975 62.098 187.251 62.266C187.539 62.434 187.851 62.518 188.187 62.518ZM188.421 70.078C189.009 70.078 189.513 69.994 189.933 69.826C190.353 69.658 190.683 69.436 190.923 69.16C191.163 68.896 191.283 68.614 191.283 68.314C191.283 67.894 191.127 67.606 190.815 67.45C190.503 67.306 190.047 67.234 189.447 67.234H187.953C187.713 67.234 187.485 67.222 187.269 67.198C187.053 67.174 186.837 67.138 186.621 67.09C186.333 67.306 186.123 67.54 185.991 67.792C185.859 68.044 185.793 68.29 185.793 68.53C185.793 69.01 186.027 69.388 186.495 69.664C186.963 69.94 187.605 70.078 188.421 70.078ZM197.973 67.252C197.409 67.252 196.905 67.132 196.461 66.892C196.029 66.652 195.687 66.316 195.435 65.884C195.183 65.452 195.057 64.948 195.057 64.372C195.057 63.304 195.525 62.482 196.461 61.906C197.409 61.318 198.915 60.91 200.979 60.682C200.967 60.298 200.907 59.944 200.799 59.62C200.691 59.296 200.499 59.038 200.223 58.846C199.959 58.642 199.581 58.54 199.089 58.54C198.573 58.54 198.075 58.642 197.595 58.846C197.115 59.05 196.659 59.284 196.227 59.548L195.453 58.144C195.801 57.928 196.185 57.724 196.605 57.532C197.025 57.328 197.475 57.166 197.955 57.046C198.435 56.914 198.933 56.848 199.449 56.848C200.277 56.848 200.955 57.016 201.483 57.352C202.011 57.676 202.401 58.15 202.653 58.774C202.917 59.398 203.049 60.154 203.049 61.042V67H201.357L201.195 65.866H201.123C200.679 66.25 200.193 66.58 199.665 66.856C199.137 67.12 198.573 67.252 197.973 67.252ZM198.603 65.596C199.035 65.596 199.437 65.5 199.809 65.308C200.181 65.104 200.571 64.81 200.979 64.426V62.014C200.007 62.122 199.233 62.284 198.657 62.5C198.081 62.704 197.667 62.95 197.415 63.238C197.175 63.514 197.055 63.838 197.055 64.21C197.055 64.702 197.205 65.056 197.505 65.272C197.805 65.488 198.171 65.596 198.603 65.596ZM206.166 62.68V61.15H210.918V62.68H206.166ZM217.478 67.252C216.782 67.252 216.164 67.168 215.624 67C215.096 66.832 214.628 66.61 214.22 66.334C213.812 66.046 213.458 65.74 213.158 65.416L214.166 64.084C214.562 64.468 215.012 64.804 215.516 65.092C216.02 65.38 216.614 65.524 217.298 65.524C217.802 65.524 218.24 65.44 218.612 65.272C218.984 65.104 219.272 64.864 219.476 64.552C219.692 64.24 219.8 63.868 219.8 63.436C219.8 62.956 219.68 62.548 219.44 62.212C219.212 61.864 218.81 61.594 218.234 61.402C217.67 61.21 216.89 61.114 215.894 61.114V59.566C216.77 59.566 217.454 59.47 217.946 59.278C218.45 59.074 218.81 58.81 219.026 58.486C219.254 58.15 219.368 57.778 219.368 57.37C219.368 56.794 219.188 56.344 218.828 56.02C218.468 55.684 217.97 55.516 217.334 55.516C216.83 55.516 216.356 55.636 215.912 55.876C215.48 56.104 215.072 56.404 214.688 56.776L213.608 55.48C214.136 55.012 214.712 54.628 215.336 54.328C215.96 54.016 216.65 53.86 217.406 53.86C218.198 53.86 218.9 53.992 219.512 54.256C220.124 54.52 220.604 54.904 220.952 55.408C221.3 55.9 221.474 56.5 221.474 57.208C221.474 57.952 221.264 58.576 220.844 59.08C220.436 59.572 219.884 59.95 219.188 60.214V60.304C219.692 60.424 220.148 60.628 220.556 60.916C220.976 61.204 221.306 61.57 221.546 62.014C221.786 62.446 221.906 62.956 221.906 63.544C221.906 64.324 221.702 64.99 221.294 65.542C220.898 66.094 220.364 66.52 219.692 66.82C219.02 67.108 218.282 67.252 217.478 67.252Z" fill="#7E7E7E"/>
<path d="M443.136 53.32H444.828V58.342H443.136V53.32ZM436.836 52.582H450.408V53.986H436.836V52.582ZM449.976 52.582H450.264L450.534 52.51L451.794 52.852C451.578 53.392 451.338 53.95 451.074 54.526C450.81 55.102 450.552 55.588 450.3 55.984L448.824 55.588C449.028 55.228 449.238 54.79 449.454 54.274C449.67 53.758 449.844 53.272 449.976 52.816V52.582ZM444.072 55.192H449.004V56.398H444.072V55.192ZM440.184 55.57C440.544 56.194 441.012 56.662 441.588 56.974C442.164 57.274 442.86 57.472 443.676 57.568C444.492 57.664 445.422 57.712 446.466 57.712C446.634 57.712 446.91 57.712 447.294 57.712C447.678 57.712 448.11 57.712 448.59 57.712C449.07 57.712 449.556 57.712 450.048 57.712C450.552 57.7 451.008 57.694 451.416 57.694C451.824 57.682 452.142 57.676 452.37 57.676C452.298 57.784 452.22 57.934 452.136 58.126C452.052 58.306 451.98 58.492 451.92 58.684C451.872 58.864 451.83 59.032 451.794 59.188H450.606H446.448C445.176 59.188 444.072 59.116 443.136 58.972C442.2 58.816 441.396 58.504 440.724 58.036C440.064 57.568 439.512 56.878 439.068 55.966L440.184 55.57ZM439.266 61.906V63.418H448.662V61.906H439.266ZM437.646 60.628H450.372V64.696H437.646V60.628ZM443.172 59.548H444.864V67.144H443.172V59.548ZM436.134 66.424C436.95 66.412 437.886 66.4 438.942 66.388C439.998 66.376 441.138 66.358 442.362 66.334C443.586 66.31 444.852 66.286 446.16 66.262C447.468 66.226 448.77 66.196 450.066 66.172L449.994 67.468C448.362 67.54 446.706 67.612 445.026 67.684C443.358 67.756 441.768 67.822 440.256 67.882C438.756 67.942 437.418 67.99 436.242 68.026L436.134 66.424ZM446.916 65.344L447.996 64.408C448.488 64.732 449.004 65.092 449.544 65.488C450.084 65.884 450.594 66.274 451.074 66.658C451.566 67.042 451.98 67.372 452.316 67.648L451.2 68.728C450.876 68.428 450.468 68.074 449.976 67.666C449.484 67.27 448.968 66.868 448.428 66.46C447.9 66.052 447.396 65.68 446.916 65.344ZM439.338 54.364L440.922 54.76C440.49 56.02 439.878 57.16 439.086 58.18C438.306 59.2 437.388 60.028 436.332 60.664C436.296 60.532 436.23 60.364 436.134 60.16C436.038 59.956 435.936 59.752 435.828 59.548C435.72 59.332 435.624 59.158 435.54 59.026C436.404 58.546 437.172 57.91 437.844 57.118C438.516 56.314 439.014 55.396 439.338 54.364ZM457.212 65.542H468.534V67.252H457.212V65.542ZM457.158 60.016H468.534V61.69H457.158V60.016ZM456.33 54.58H469.506V68.44H467.724V56.29H458.04V68.494H456.33V54.58ZM461.694 51.736L463.872 52.078C463.596 52.714 463.308 53.35 463.008 53.986C462.72 54.61 462.45 55.15 462.198 55.606L460.542 55.228C460.686 54.904 460.83 54.538 460.974 54.13C461.118 53.722 461.256 53.308 461.388 52.888C461.52 52.468 461.622 52.084 461.694 51.736ZM480.342 51.862L481.35 52.87C480.822 53.038 480.222 53.188 479.55 53.32C478.878 53.44 478.182 53.536 477.462 53.608C476.754 53.68 476.07 53.728 475.41 53.752C475.386 53.608 475.332 53.434 475.248 53.23C475.176 53.014 475.098 52.828 475.014 52.672C475.65 52.624 476.298 52.564 476.958 52.492C477.618 52.42 478.242 52.33 478.83 52.222C479.43 52.114 479.934 51.994 480.342 51.862ZM487.992 51.862L489.108 52.816C488.556 52.996 487.92 53.152 487.2 53.284C486.48 53.404 485.742 53.5 484.986 53.572C484.23 53.632 483.498 53.68 482.79 53.716C482.754 53.572 482.694 53.398 482.61 53.194C482.538 52.978 482.46 52.792 482.376 52.636C483.048 52.588 483.738 52.534 484.446 52.474C485.154 52.402 485.814 52.318 486.426 52.222C487.05 52.114 487.572 51.994 487.992 51.862ZM475.68 54.508H481.62V55.786H475.68V54.508ZM483.078 54.508H489.882V55.786H483.078V54.508ZM478.2 54.886H479.73V57.82H478.2V54.886ZM485.652 54.922H487.182V57.874H485.652V54.922ZM477.696 61.33V62.41H485.832V61.33H477.696ZM477.696 63.436V64.516H485.832V63.436H477.696ZM477.696 59.242V60.322H485.832V59.242H477.696ZM476.058 58.18H487.542V65.596H476.058V58.18ZM483.492 66.604L484.158 65.524C484.83 65.704 485.508 65.902 486.192 66.118C486.888 66.334 487.536 66.55 488.136 66.766C488.748 66.982 489.276 67.18 489.72 67.36L488.946 68.566C488.514 68.374 487.998 68.164 487.398 67.936C486.81 67.708 486.18 67.48 485.508 67.252C484.848 67.024 484.176 66.808 483.492 66.604ZM479.046 65.56L480.324 66.298C479.82 66.574 479.238 66.856 478.578 67.144C477.918 67.444 477.24 67.72 476.544 67.972C475.848 68.224 475.2 68.44 474.6 68.62C474.552 68.512 474.474 68.362 474.366 68.17C474.27 67.99 474.168 67.804 474.06 67.612C473.952 67.432 473.856 67.288 473.772 67.18C474.348 67.048 474.96 66.898 475.608 66.73C476.256 66.562 476.88 66.376 477.48 66.172C478.08 65.968 478.602 65.764 479.046 65.56ZM475.014 52.672H476.508V54.058C476.508 54.514 476.454 55.006 476.346 55.534C476.25 56.05 476.064 56.56 475.788 57.064C475.524 57.568 475.134 58.024 474.618 58.432C474.546 58.324 474.438 58.198 474.294 58.054C474.162 57.91 474.024 57.772 473.88 57.64C473.736 57.508 473.61 57.406 473.502 57.334C473.946 56.998 474.276 56.644 474.492 56.272C474.708 55.888 474.846 55.504 474.906 55.12C474.978 54.736 475.014 54.37 475.014 54.022V52.672ZM482.376 52.636H483.834V53.986C483.834 54.418 483.792 54.886 483.708 55.39C483.636 55.894 483.492 56.386 483.276 56.866C483.072 57.334 482.76 57.766 482.34 58.162C482.256 58.078 482.136 57.982 481.98 57.874C481.824 57.754 481.668 57.646 481.512 57.55C481.356 57.442 481.218 57.364 481.098 57.316C481.482 56.968 481.758 56.602 481.926 56.218C482.106 55.822 482.226 55.432 482.286 55.048C482.346 54.652 482.376 54.292 482.376 53.968V52.636Z" fill="#7E7E7E"/>
<path d="M588.378 270.558H595.668V272.088H588.378V270.558ZM588.414 274.05H595.704V275.58H588.414V274.05ZM588.27 277.704H596.28V279.288H588.27V277.704ZM591.51 267.588H593.04V278.55H591.51V267.588ZM589.116 267.048H596.028V268.578H589.116V280.53H587.55V268.056L588.504 267.048H589.116ZM588.972 263.88L590.592 264.366C590.304 265.218 589.95 266.1 589.53 267.012C589.122 267.912 588.672 268.782 588.18 269.622C587.688 270.462 587.16 271.212 586.596 271.872C586.548 271.716 586.476 271.542 586.38 271.35C586.284 271.158 586.188 270.966 586.092 270.774C585.996 270.582 585.9 270.42 585.804 270.288C586.272 269.736 586.71 269.094 587.118 268.362C587.526 267.63 587.886 266.874 588.198 266.094C588.522 265.314 588.78 264.576 588.972 263.88ZM590.952 264.492L592.374 263.88C592.614 264.288 592.848 264.726 593.076 265.194C593.316 265.65 593.502 266.052 593.634 266.4L592.122 267.102C592.014 266.742 591.846 266.322 591.618 265.842C591.39 265.35 591.168 264.9 590.952 264.492ZM584.13 271.026L585.3 270.612C585.492 270.996 585.672 271.41 585.84 271.854C586.02 272.286 586.176 272.706 586.308 273.114C586.44 273.522 586.536 273.882 586.596 274.194L585.336 274.698C585.3 274.374 585.216 274.002 585.084 273.582C584.964 273.162 584.82 272.73 584.652 272.286C584.496 271.83 584.322 271.41 584.13 271.026ZM582.384 275.688L583.572 275.418C583.692 276.03 583.8 276.69 583.896 277.398C583.992 278.094 584.052 278.706 584.076 279.234L582.798 279.54C582.786 279.012 582.738 278.394 582.654 277.686C582.57 276.966 582.48 276.3 582.384 275.688ZM580.404 275.526L581.718 275.742C581.634 276.522 581.52 277.308 581.376 278.1C581.232 278.892 581.064 279.57 580.872 280.134C580.728 280.05 580.518 279.96 580.242 279.864C579.978 279.78 579.768 279.714 579.612 279.666C579.828 279.126 579.996 278.484 580.116 277.74C580.236 276.996 580.332 276.258 580.404 275.526ZM580.152 270.72C580.116 270.624 580.068 270.492 580.008 270.324C579.96 270.144 579.9 269.964 579.828 269.784C579.768 269.604 579.708 269.448 579.648 269.316C579.816 269.268 579.978 269.16 580.134 268.992C580.302 268.824 580.47 268.602 580.638 268.326C580.77 268.158 580.968 267.84 581.232 267.372C581.508 266.904 581.796 266.358 582.096 265.734C582.408 265.11 582.678 264.474 582.906 263.826L584.346 264.42C583.902 265.416 583.392 266.4 582.816 267.372C582.24 268.344 581.664 269.19 581.088 269.91V269.946C581.088 269.946 581.04 269.97 580.944 270.018C580.848 270.066 580.734 270.132 580.602 270.216C580.482 270.3 580.374 270.39 580.278 270.486C580.194 270.57 580.152 270.648 580.152 270.72ZM580.152 270.72L580.116 269.586L580.818 269.136L583.968 268.902C583.92 269.094 583.884 269.316 583.86 269.568C583.836 269.808 583.818 270.006 583.806 270.162C583.098 270.234 582.522 270.3 582.078 270.36C581.634 270.408 581.286 270.456 581.034 270.504C580.782 270.54 580.59 270.576 580.458 270.612C580.326 270.648 580.224 270.684 580.152 270.72ZM580.278 274.842C580.254 274.734 580.212 274.596 580.152 274.428C580.092 274.248 580.026 274.068 579.954 273.888C579.894 273.696 579.834 273.54 579.774 273.42C579.978 273.372 580.182 273.24 580.386 273.024C580.602 272.808 580.854 272.532 581.142 272.196C581.286 272.028 581.496 271.752 581.772 271.368C582.06 270.984 582.372 270.528 582.708 270C583.056 269.46 583.404 268.884 583.752 268.272C584.112 267.648 584.436 267.03 584.724 266.418L586.038 267.21C585.594 268.038 585.108 268.86 584.58 269.676C584.052 270.492 583.506 271.272 582.942 272.016C582.378 272.748 581.802 273.42 581.214 274.032V274.068C581.214 274.068 581.166 274.092 581.07 274.14C580.974 274.188 580.866 274.254 580.746 274.338C580.626 274.41 580.518 274.494 580.422 274.59C580.326 274.674 580.278 274.758 580.278 274.842ZM580.278 274.842L580.206 273.69L580.926 273.204L585.75 272.556C585.714 272.748 585.69 272.964 585.678 273.204C585.666 273.444 585.666 273.642 585.678 273.798C584.574 273.966 583.686 274.11 583.014 274.23C582.342 274.338 581.82 274.428 581.448 274.5C581.088 274.572 580.824 274.632 580.656 274.68C580.488 274.728 580.362 274.782 580.278 274.842ZM584.364 275.31L585.48 274.932C585.696 275.484 585.906 276.084 586.11 276.732C586.314 277.368 586.464 277.914 586.56 278.37L585.354 278.802C585.27 278.322 585.132 277.758 584.94 277.11C584.748 276.45 584.556 275.85 584.364 275.31ZM601.644 267.21H614.136V268.866H601.644V267.21ZM600.87 272.484H613.47V274.122H600.87V272.484ZM598.854 278.298H615.018V279.954H598.854V278.298ZM606.054 263.808H607.818V279.126H606.054V263.808ZM601.95 264.06L603.714 264.456C603.45 265.38 603.132 266.292 602.76 267.192C602.4 268.08 602.004 268.908 601.572 269.676C601.14 270.432 600.69 271.098 600.222 271.674C600.102 271.578 599.946 271.47 599.754 271.35C599.574 271.218 599.388 271.092 599.196 270.972C599.004 270.84 598.83 270.738 598.674 270.666C599.166 270.138 599.616 269.526 600.024 268.83C600.432 268.122 600.798 267.36 601.122 266.544C601.458 265.728 601.734 264.9 601.95 264.06ZM628.932 274.032L630.192 273.258C630.6 273.522 631.026 273.822 631.47 274.158C631.914 274.482 632.334 274.818 632.73 275.166C633.138 275.502 633.468 275.808 633.72 276.084L632.37 276.984C632.142 276.696 631.836 276.378 631.452 276.03C631.068 275.682 630.654 275.334 630.21 274.986C629.778 274.638 629.352 274.32 628.932 274.032ZM628.176 277.596L629.418 276.696C629.898 276.924 630.414 277.188 630.966 277.488C631.518 277.788 632.046 278.094 632.55 278.406C633.066 278.718 633.492 279.006 633.828 279.27L632.514 280.296C632.202 280.032 631.8 279.738 631.308 279.414C630.816 279.09 630.294 278.772 629.742 278.46C629.202 278.136 628.68 277.848 628.176 277.596ZM621.858 276.714L623.424 277.326C623.028 277.698 622.566 278.07 622.038 278.442C621.51 278.814 620.964 279.156 620.4 279.468C619.848 279.792 619.308 280.068 618.78 280.296C618.696 280.188 618.576 280.056 618.42 279.9C618.264 279.756 618.102 279.612 617.934 279.468C617.778 279.324 617.634 279.21 617.502 279.126C618.294 278.826 619.086 278.466 619.878 278.046C620.682 277.626 621.342 277.182 621.858 276.714ZM624.918 263.79H626.628V270.198H624.918V263.79ZM618.564 264.978H633.126V266.238H618.564V264.978ZM619.536 267.192H632.118V268.434H619.536V267.192ZM617.664 269.406H633.99V270.72H617.664V269.406ZM618.87 276.75C618.846 276.642 618.81 276.504 618.762 276.336C618.714 276.168 618.666 275.988 618.618 275.796C618.57 275.604 618.522 275.442 618.474 275.31C618.81 275.274 619.182 275.202 619.59 275.094C619.998 274.986 620.478 274.842 621.03 274.662C621.282 274.578 621.636 274.458 622.092 274.302C622.548 274.134 623.07 273.936 623.658 273.708C624.258 273.48 624.888 273.222 625.548 272.934C626.208 272.646 626.868 272.34 627.528 272.016C628.2 271.692 628.83 271.362 629.418 271.026L630.588 272.088C628.872 272.988 627.096 273.774 625.26 274.446C623.436 275.106 621.636 275.658 619.86 276.102V276.174C619.86 276.174 619.806 276.192 619.698 276.228C619.602 276.252 619.488 276.294 619.356 276.354C619.224 276.402 619.11 276.462 619.014 276.534C618.918 276.606 618.87 276.678 618.87 276.75ZM618.87 276.75L618.834 275.724L619.824 275.22L631.38 274.698C631.404 274.878 631.434 275.082 631.47 275.31C631.518 275.526 631.566 275.7 631.614 275.832C629.778 275.94 628.206 276.03 626.898 276.102C625.59 276.174 624.486 276.24 623.586 276.3C622.686 276.348 621.954 276.39 621.39 276.426C620.826 276.462 620.376 276.498 620.04 276.534C619.716 276.558 619.464 276.588 619.284 276.624C619.116 276.66 618.978 276.702 618.87 276.75ZM620.166 273.798C620.142 273.69 620.106 273.552 620.058 273.384C620.01 273.216 619.956 273.042 619.896 272.862C619.836 272.682 619.782 272.526 619.734 272.394C619.926 272.37 620.124 272.328 620.328 272.268C620.544 272.208 620.778 272.13 621.03 272.034C621.222 271.962 621.522 271.836 621.93 271.656C622.338 271.464 622.788 271.236 623.28 270.972C623.784 270.708 624.258 270.426 624.702 270.126L625.854 271.062C625.11 271.494 624.33 271.884 623.514 272.232C622.71 272.58 621.906 272.874 621.102 273.114V273.15C621.102 273.15 621.054 273.168 620.958 273.204C620.862 273.24 620.754 273.294 620.634 273.366C620.514 273.426 620.406 273.492 620.31 273.564C620.214 273.636 620.166 273.714 620.166 273.798ZM620.166 273.798L620.148 272.862L620.94 272.43L627.726 272.142C627.678 272.298 627.63 272.484 627.582 272.7C627.534 272.916 627.504 273.096 627.492 273.24C626.268 273.3 625.242 273.354 624.414 273.402C623.586 273.438 622.914 273.474 622.398 273.51C621.882 273.546 621.474 273.582 621.174 273.618C620.886 273.642 620.67 273.666 620.526 273.69C620.382 273.714 620.262 273.75 620.166 273.798ZM625.278 275.31H626.934V278.694C626.934 279.102 626.874 279.426 626.754 279.666C626.646 279.906 626.424 280.086 626.088 280.206C625.764 280.326 625.362 280.398 624.882 280.422C624.414 280.458 623.844 280.476 623.172 280.476C623.136 280.224 623.058 279.948 622.938 279.648C622.818 279.36 622.692 279.108 622.56 278.892C622.908 278.904 623.244 278.916 623.568 278.928C623.892 278.928 624.174 278.928 624.414 278.928C624.654 278.928 624.822 278.928 624.918 278.928C625.062 278.916 625.158 278.892 625.206 278.856C625.254 278.82 625.278 278.748 625.278 278.64V275.31ZM637.446 279V265.734H641.568C642.468 265.734 643.266 265.842 643.962 266.058C644.67 266.274 645.222 266.622 645.618 267.102C646.026 267.57 646.23 268.2 646.23 268.992C646.23 269.424 646.152 269.832 645.996 270.216C645.852 270.6 645.642 270.942 645.366 271.242C645.09 271.53 644.748 271.74 644.34 271.872V271.962C645.096 272.118 645.72 272.46 646.212 272.988C646.704 273.504 646.95 274.212 646.95 275.112C646.95 275.988 646.728 276.714 646.284 277.29C645.852 277.866 645.252 278.298 644.484 278.586C643.728 278.862 642.858 279 641.874 279H637.446ZM639.534 271.278H641.316C642.324 271.278 643.05 271.098 643.494 270.738C643.95 270.378 644.178 269.892 644.178 269.28C644.178 268.596 643.944 268.11 643.476 267.822C643.008 267.522 642.306 267.372 641.37 267.372H639.534V271.278ZM639.534 277.362H641.64C642.672 277.362 643.47 277.17 644.034 276.786C644.61 276.402 644.898 275.808 644.898 275.004C644.898 274.26 644.616 273.72 644.052 273.384C643.5 273.036 642.696 272.862 641.64 272.862H639.534V277.362ZM650.136 279V277.29H653.052V268.434H650.676V267.12C651.3 267 651.84 266.862 652.296 266.706C652.764 266.538 653.19 266.34 653.574 266.112H655.14V277.29H657.714V279H650.136ZM660.563 279V277.794C661.799 276.582 662.855 275.508 663.731 274.572C664.619 273.624 665.297 272.772 665.765 272.016C666.233 271.248 666.467 270.528 666.467 269.856C666.467 269.376 666.383 268.962 666.215 268.614C666.059 268.266 665.813 267.996 665.477 267.804C665.153 267.612 664.739 267.516 664.235 267.516C663.719 267.516 663.245 267.666 662.813 267.966C662.381 268.254 661.985 268.596 661.625 268.992L660.455 267.84C661.019 267.216 661.613 266.73 662.237 266.382C662.873 266.034 663.629 265.86 664.505 265.86C665.309 265.86 666.011 266.022 666.611 266.346C667.211 266.67 667.673 267.126 667.997 267.714C668.333 268.29 668.501 268.968 668.501 269.748C668.501 270.528 668.279 271.32 667.835 272.124C667.403 272.928 666.815 273.762 666.071 274.626C665.327 275.49 664.493 276.402 663.569 277.362C663.917 277.326 664.283 277.296 664.667 277.272C665.063 277.236 665.423 277.218 665.747 277.218H669.131V279H660.563Z" fill="#7E7E7E"/>
<path d="M462.128 481.32H467.222V482.652H462.128V481.32ZM462.056 492.012H467.096V493.164H462.056V492.012ZM461.48 483.966H472.388V485.334H461.48V483.966ZM463.946 479.808H465.476V484.632H463.946V479.808ZM463.388 487.152V488.34H465.89V487.152H463.388ZM462.128 486.072H467.222V489.438H462.128V486.072ZM469.598 480.762L470.822 480.204C471.146 480.636 471.452 481.11 471.74 481.626C472.04 482.142 472.25 482.592 472.37 482.976L471.056 483.606C470.936 483.222 470.738 482.766 470.462 482.238C470.186 481.698 469.898 481.206 469.598 480.762ZM461.48 494.406C462.236 494.322 463.13 494.214 464.162 494.082C465.194 493.95 466.25 493.812 467.33 493.668L467.384 494.856C466.352 495.012 465.338 495.162 464.342 495.306C463.358 495.45 462.464 495.576 461.66 495.684L461.48 494.406ZM470.696 486.936L472.154 487.188C471.698 489.192 471.056 490.998 470.228 492.606C469.412 494.214 468.398 495.546 467.186 496.602C467.114 496.506 467.006 496.392 466.862 496.26C466.73 496.128 466.592 495.996 466.448 495.864C466.304 495.732 466.172 495.624 466.052 495.54C467.24 494.604 468.218 493.398 468.986 491.922C469.754 490.434 470.324 488.772 470.696 486.936ZM463.928 490.464H465.386V494.46L463.928 494.568V490.464ZM467.672 479.808H469.292C469.244 483.18 469.292 485.982 469.436 488.214C469.58 490.446 469.784 492.114 470.048 493.218C470.312 494.31 470.6 494.856 470.912 494.856C471.02 494.856 471.104 494.778 471.164 494.622C471.236 494.454 471.296 494.178 471.344 493.794C471.392 493.398 471.428 492.864 471.452 492.192C471.608 492.348 471.794 492.51 472.01 492.678C472.226 492.834 472.424 492.948 472.604 493.02C472.532 493.98 472.43 494.706 472.298 495.198C472.166 495.702 471.974 496.038 471.722 496.206C471.482 496.374 471.164 496.458 470.768 496.458C470.156 496.458 469.652 496.092 469.256 495.36C468.86 494.628 468.548 493.548 468.32 492.12C468.104 490.692 467.948 488.946 467.852 486.882C467.768 484.818 467.708 482.46 467.672 479.808ZM456.854 484.38H461.012V485.82H456.854V484.38ZM455.954 487.512H461.534V488.97H455.954V487.512ZM456.188 490.086L457.178 489.78C457.322 490.296 457.448 490.854 457.556 491.454C457.676 492.054 457.754 492.57 457.79 493.002L456.746 493.344C456.722 492.9 456.656 492.378 456.548 491.778C456.44 491.166 456.32 490.602 456.188 490.086ZM455.756 494.406C456.488 494.274 457.37 494.1 458.402 493.884C459.434 493.656 460.484 493.422 461.552 493.182L461.642 494.55C460.67 494.802 459.692 495.048 458.708 495.288C457.724 495.528 456.848 495.744 456.08 495.936L455.756 494.406ZM460.454 489.6L461.57 489.96C461.414 490.512 461.258 491.076 461.102 491.652C460.958 492.228 460.814 492.72 460.67 493.128L459.788 492.786C459.86 492.498 459.938 492.168 460.022 491.796C460.118 491.412 460.202 491.028 460.274 490.644C460.346 490.26 460.406 489.912 460.454 489.6ZM458.258 484.992H459.536V494.622L458.258 494.856V484.992ZM458.744 479.7L459.878 480.276C459.59 480.96 459.242 481.632 458.834 482.292C458.426 482.952 457.988 483.57 457.52 484.146C457.064 484.71 456.602 485.208 456.134 485.64C456.098 485.52 456.044 485.346 455.972 485.118C455.9 484.89 455.822 484.662 455.738 484.434C455.666 484.206 455.594 484.026 455.522 483.894C456.134 483.402 456.728 482.784 457.304 482.04C457.892 481.296 458.372 480.516 458.744 479.7ZM458.348 481.824L458.978 480.582C459.35 480.822 459.728 481.092 460.112 481.392C460.496 481.692 460.856 481.992 461.192 482.292C461.528 482.592 461.81 482.868 462.038 483.12L461.372 484.524C461.144 484.248 460.862 483.954 460.526 483.642C460.19 483.318 459.83 483 459.446 482.688C459.074 482.364 458.708 482.076 458.348 481.824ZM466.592 489.654L467.564 490.608C467.06 490.74 466.49 490.854 465.854 490.95C465.23 491.034 464.582 491.106 463.91 491.166C463.238 491.214 462.59 491.238 461.966 491.238C461.942 491.106 461.894 490.944 461.822 490.752C461.762 490.56 461.696 490.392 461.624 490.248C462.212 490.224 462.812 490.188 463.424 490.14C464.048 490.08 464.636 490.008 465.188 489.924C465.74 489.84 466.208 489.75 466.592 489.654Z" fill="#7E7E7E"/>
<path d="M453.673 471.521L227.328 471.52L114.155 275.5L227.328 79.4795L453.673 79.4795L566.846 275.5L453.673 471.521Z" stroke="#AAA6A8" stroke-width="2"/>
<path d="M438.712 445.241L243.289 445.241L145.577 275.999L243.289 106.759L438.712 106.759L536.424 276L438.712 445.241Z" stroke="#AAA6A8"/>
<path d="M421.462 415.729L259.539 415.729L178.577 275.5L259.539 135.27L421.462 135.271L502.424 275.5L421.462 415.729Z" stroke="#AAA6A8"/>
<path d="M403.462 384.619L277.539 384.619L214.578 276L277.539 167.381L403.462 167.381L466.423 276L403.462 384.619Z" stroke="#AAA6A8"/>
<path d="M387.46 357.705L293.541 357.705L246.577 275.5L293.541 193.295L387.46 193.295L434.424 275.5L387.46 357.705Z" stroke="#AAA6A8"/>
<path d="M116 276H565" stroke="#AAA6A8"/>
<path d="M228 470L453 80" stroke="#AAA6A8"/>
<path d="M453 470L228 80" stroke="#AAA6A8"/>
</svg>
