<svg width="637" height="466" viewBox="0 0 637 466" fill="none" xmlns="http://www.w3.org/2000/svg">
<path d="M426.923 429.057L205.078 429.057L94.1543 236.5L205.078 43.9433L426.923 43.9434L537.847 236.5L426.923 429.057Z" stroke="white" stroke-width="2"/>
<path d="M412.212 403.643L219.789 403.643L123.577 237L219.789 70.3574L412.212 70.3574L508.424 237L412.212 403.643Z" stroke="white"/>
<path d="M395.713 374.131L236.288 374.131L156.578 236.5L236.288 98.8691L395.713 98.8691L475.423 236.5L395.713 374.131Z" stroke="white"/>
<path d="M377.712 343.887L254.289 343.887L192.577 237L254.289 130.113L377.712 130.113L439.424 237L377.712 343.887Z" stroke="white"/>
<path d="M362.962 316.974L270.039 316.974L223.577 236.5L270.039 156.026L362.962 156.026L409.424 236.5L362.962 316.974Z" stroke="white"/>
<path d="M95 237H537" stroke="white"/>
<path d="M205 428L427 45" stroke="white"/>
<path d="M427 428L205 45" stroke="white"/>
<path opacity="0.75" d="M192.066 236.663L236.484 99.4257L364.442 157.105L475.16 236.663L396.265 374.563L255.731 342.792L192.066 236.663Z" fill="white"/>
<path d="M194.884 449.51H204.388V451.058H194.884V449.51ZM199.672 453.416H203.992V454.91H199.672V453.416ZM196.126 457.358H203.218V458.87H196.126V457.358ZM198.844 450.374H200.446V458.132H198.844V450.374ZM195.496 452.894H197.026V458.87H195.496V452.894ZM202.588 457.358H204.19C204.19 457.358 204.19 457.4 204.19 457.484C204.19 457.568 204.184 457.664 204.172 457.772C204.172 457.88 204.166 457.97 204.154 458.042C204.07 459.482 203.98 460.658 203.884 461.57C203.788 462.47 203.68 463.166 203.56 463.658C203.44 464.138 203.29 464.474 203.11 464.666C202.93 464.882 202.738 465.032 202.534 465.116C202.342 465.212 202.102 465.272 201.814 465.296C201.586 465.332 201.28 465.344 200.896 465.332C200.512 465.332 200.098 465.32 199.654 465.296C199.642 465.056 199.594 464.786 199.51 464.486C199.426 464.198 199.312 463.946 199.168 463.73C199.588 463.778 199.972 463.808 200.32 463.82C200.68 463.82 200.944 463.82 201.112 463.82C201.388 463.832 201.598 463.766 201.742 463.622C201.874 463.49 201.988 463.214 202.084 462.794C202.18 462.362 202.27 461.732 202.354 460.904C202.438 460.064 202.516 458.972 202.588 457.628V457.358ZM189.142 453.38H194.272V454.82H189.142V453.38ZM188.062 456.512H194.884V457.97H188.062V456.512ZM188.35 459.086L189.502 458.798C189.67 459.302 189.82 459.854 189.952 460.454C190.096 461.054 190.192 461.57 190.24 462.002L189.016 462.344C188.98 461.9 188.896 461.378 188.764 460.778C188.644 460.166 188.506 459.602 188.35 459.086ZM187.81 463.406C188.386 463.31 189.058 463.196 189.826 463.064C190.594 462.932 191.404 462.788 192.256 462.632C193.12 462.476 193.99 462.32 194.866 462.164L194.956 463.514C193.768 463.766 192.574 464.018 191.374 464.27C190.186 464.522 189.124 464.744 188.188 464.936L187.81 463.406ZM193.552 458.6L194.866 458.96C194.686 459.5 194.506 460.064 194.326 460.652C194.146 461.228 193.972 461.714 193.804 462.11L192.742 461.786C192.85 461.498 192.952 461.168 193.048 460.796C193.144 460.412 193.24 460.028 193.336 459.644C193.432 459.26 193.504 458.912 193.552 458.6ZM190.87 453.992H192.364V463.604L190.87 463.856V453.992ZM191.446 448.7L192.814 449.276C192.454 449.984 192.022 450.68 191.518 451.364C191.014 452.036 190.474 452.666 189.898 453.254C189.334 453.842 188.764 454.358 188.188 454.802C188.164 454.67 188.11 454.496 188.026 454.28C187.942 454.064 187.846 453.842 187.738 453.614C187.642 453.386 187.552 453.2 187.468 453.056C188.224 452.552 188.962 451.916 189.682 451.148C190.402 450.368 190.99 449.552 191.446 448.7ZM190.96 450.824L191.68 449.582C192.16 449.834 192.64 450.116 193.12 450.428C193.6 450.728 194.05 451.034 194.47 451.346C194.89 451.658 195.25 451.94 195.55 452.192L194.758 453.596C194.47 453.308 194.116 453.002 193.696 452.678C193.276 452.342 192.826 452.018 192.346 451.706C191.878 451.382 191.416 451.088 190.96 450.824Z" fill="white"/>
<path d="M9.378 231.558H16.668V233.088H9.378V231.558ZM9.414 235.05H16.704V236.58H9.414V235.05ZM9.27 238.704H17.28V240.288H9.27V238.704ZM12.51 228.588H14.04V239.55H12.51V228.588ZM10.116 228.048H17.028V229.578H10.116V241.53H8.55V229.056L9.504 228.048H10.116ZM9.972 224.88L11.592 225.366C11.304 226.218 10.95 227.1 10.53 228.012C10.122 228.912 9.672 229.782 9.18 230.622C8.688 231.462 8.16 232.212 7.596 232.872C7.548 232.716 7.476 232.542 7.38 232.35C7.284 232.158 7.188 231.966 7.092 231.774C6.996 231.582 6.9 231.42 6.804 231.288C7.272 230.736 7.71 230.094 8.118 229.362C8.526 228.63 8.886 227.874 9.198 227.094C9.522 226.314 9.78 225.576 9.972 224.88ZM11.952 225.492L13.374 224.88C13.614 225.288 13.848 225.726 14.076 226.194C14.316 226.65 14.502 227.052 14.634 227.4L13.122 228.102C13.014 227.742 12.846 227.322 12.618 226.842C12.39 226.35 12.168 225.9 11.952 225.492ZM5.13 232.026L6.3 231.612C6.492 231.996 6.672 232.41 6.84 232.854C7.02 233.286 7.176 233.706 7.308 234.114C7.44 234.522 7.536 234.882 7.596 235.194L6.336 235.698C6.3 235.374 6.216 235.002 6.084 234.582C5.964 234.162 5.82 233.73 5.652 233.286C5.496 232.83 5.322 232.41 5.13 232.026ZM3.384 236.688L4.572 236.418C4.692 237.03 4.8 237.69 4.896 238.398C4.992 239.094 5.052 239.706 5.076 240.234L3.798 240.54C3.786 240.012 3.738 239.394 3.654 238.686C3.57 237.966 3.48 237.3 3.384 236.688ZM1.404 236.526L2.718 236.742C2.634 237.522 2.52 238.308 2.376 239.1C2.232 239.892 2.064 240.57 1.872 241.134C1.728 241.05 1.518 240.96 1.242 240.864C0.978 240.78 0.768 240.714 0.612 240.666C0.828 240.126 0.996 239.484 1.116 238.74C1.236 237.996 1.332 237.258 1.404 236.526ZM1.152 231.72C1.116 231.624 1.068 231.492 1.008 231.324C0.96 231.144 0.9 230.964 0.828 230.784C0.768 230.604 0.708 230.448 0.648 230.316C0.816 230.268 0.978 230.16 1.134 229.992C1.302 229.824 1.47 229.602 1.638 229.326C1.77 229.158 1.968 228.84 2.232 228.372C2.508 227.904 2.796 227.358 3.096 226.734C3.408 226.11 3.678 225.474 3.906 224.826L5.346 225.42C4.902 226.416 4.392 227.4 3.816 228.372C3.24 229.344 2.664 230.19 2.088 230.91V230.946C2.088 230.946 2.04 230.97 1.944 231.018C1.848 231.066 1.734 231.132 1.602 231.216C1.482 231.3 1.374 231.39 1.278 231.486C1.194 231.57 1.152 231.648 1.152 231.72ZM1.152 231.72L1.116 230.586L1.818 230.136L4.968 229.902C4.92 230.094 4.884 230.316 4.86 230.568C4.836 230.808 4.818 231.006 4.806 231.162C4.098 231.234 3.522 231.3 3.078 231.36C2.634 231.408 2.286 231.456 2.034 231.504C1.782 231.54 1.59 231.576 1.458 231.612C1.326 231.648 1.224 231.684 1.152 231.72ZM1.278 235.842C1.254 235.734 1.212 235.596 1.152 235.428C1.092 235.248 1.026 235.068 0.954 234.888C0.894 234.696 0.834 234.54 0.774 234.42C0.978 234.372 1.182 234.24 1.386 234.024C1.602 233.808 1.854 233.532 2.142 233.196C2.286 233.028 2.496 232.752 2.772 232.368C3.06 231.984 3.372 231.528 3.708 231C4.056 230.46 4.404 229.884 4.752 229.272C5.112 228.648 5.436 228.03 5.724 227.418L7.038 228.21C6.594 229.038 6.108 229.86 5.58 230.676C5.052 231.492 4.506 232.272 3.942 233.016C3.378 233.748 2.802 234.42 2.214 235.032V235.068C2.214 235.068 2.166 235.092 2.07 235.14C1.974 235.188 1.866 235.254 1.746 235.338C1.626 235.41 1.518 235.494 1.422 235.59C1.326 235.674 1.278 235.758 1.278 235.842ZM1.278 235.842L1.206 234.69L1.926 234.204L6.75 233.556C6.714 233.748 6.69 233.964 6.678 234.204C6.666 234.444 6.666 234.642 6.678 234.798C5.574 234.966 4.686 235.11 4.014 235.23C3.342 235.338 2.82 235.428 2.448 235.5C2.088 235.572 1.824 235.632 1.656 235.68C1.488 235.728 1.362 235.782 1.278 235.842ZM5.364 236.31L6.48 235.932C6.696 236.484 6.906 237.084 7.11 237.732C7.314 238.368 7.464 238.914 7.56 239.37L6.354 239.802C6.27 239.322 6.132 238.758 5.94 238.11C5.748 237.45 5.556 236.85 5.364 236.31ZM22.644 228.21H35.136V229.866H22.644V228.21ZM21.87 233.484H34.47V235.122H21.87V233.484ZM19.854 239.298H36.018V240.954H19.854V239.298ZM27.054 224.808H28.818V240.126H27.054V224.808ZM22.95 225.06L24.714 225.456C24.45 226.38 24.132 227.292 23.76 228.192C23.4 229.08 23.004 229.908 22.572 230.676C22.14 231.432 21.69 232.098 21.222 232.674C21.102 232.578 20.946 232.47 20.754 232.35C20.574 232.218 20.388 232.092 20.196 231.972C20.004 231.84 19.83 231.738 19.674 231.666C20.166 231.138 20.616 230.526 21.024 229.83C21.432 229.122 21.798 228.36 22.122 227.544C22.458 226.728 22.734 225.9 22.95 225.06ZM49.932 235.032L51.192 234.258C51.6 234.522 52.026 234.822 52.47 235.158C52.914 235.482 53.334 235.818 53.73 236.166C54.138 236.502 54.468 236.808 54.72 237.084L53.37 237.984C53.142 237.696 52.836 237.378 52.452 237.03C52.068 236.682 51.654 236.334 51.21 235.986C50.778 235.638 50.352 235.32 49.932 235.032ZM49.176 238.596L50.418 237.696C50.898 237.924 51.414 238.188 51.966 238.488C52.518 238.788 53.046 239.094 53.55 239.406C54.066 239.718 54.492 240.006 54.828 240.27L53.514 241.296C53.202 241.032 52.8 240.738 52.308 240.414C51.816 240.09 51.294 239.772 50.742 239.46C50.202 239.136 49.68 238.848 49.176 238.596ZM42.858 237.714L44.424 238.326C44.028 238.698 43.566 239.07 43.038 239.442C42.51 239.814 41.964 240.156 41.4 240.468C40.848 240.792 40.308 241.068 39.78 241.296C39.696 241.188 39.576 241.056 39.42 240.9C39.264 240.756 39.102 240.612 38.934 240.468C38.778 240.324 38.634 240.21 38.502 240.126C39.294 239.826 40.086 239.466 40.878 239.046C41.682 238.626 42.342 238.182 42.858 237.714ZM45.918 224.79H47.628V231.198H45.918V224.79ZM39.564 225.978H54.126V227.238H39.564V225.978ZM40.536 228.192H53.118V229.434H40.536V228.192ZM38.664 230.406H54.99V231.72H38.664V230.406ZM39.87 237.75C39.846 237.642 39.81 237.504 39.762 237.336C39.714 237.168 39.666 236.988 39.618 236.796C39.57 236.604 39.522 236.442 39.474 236.31C39.81 236.274 40.182 236.202 40.59 236.094C40.998 235.986 41.478 235.842 42.03 235.662C42.282 235.578 42.636 235.458 43.092 235.302C43.548 235.134 44.07 234.936 44.658 234.708C45.258 234.48 45.888 234.222 46.548 233.934C47.208 233.646 47.868 233.34 48.528 233.016C49.2 232.692 49.83 232.362 50.418 232.026L51.588 233.088C49.872 233.988 48.096 234.774 46.26 235.446C44.436 236.106 42.636 236.658 40.86 237.102V237.174C40.86 237.174 40.806 237.192 40.698 237.228C40.602 237.252 40.488 237.294 40.356 237.354C40.224 237.402 40.11 237.462 40.014 237.534C39.918 237.606 39.87 237.678 39.87 237.75ZM39.87 237.75L39.834 236.724L40.824 236.22L52.38 235.698C52.404 235.878 52.434 236.082 52.47 236.31C52.518 236.526 52.566 236.7 52.614 236.832C50.778 236.94 49.206 237.03 47.898 237.102C46.59 237.174 45.486 237.24 44.586 237.3C43.686 237.348 42.954 237.39 42.39 237.426C41.826 237.462 41.376 237.498 41.04 237.534C40.716 237.558 40.464 237.588 40.284 237.624C40.116 237.66 39.978 237.702 39.87 237.75ZM41.166 234.798C41.142 234.69 41.106 234.552 41.058 234.384C41.01 234.216 40.956 234.042 40.896 233.862C40.836 233.682 40.782 233.526 40.734 233.394C40.926 233.37 41.124 233.328 41.328 233.268C41.544 233.208 41.778 233.13 42.03 233.034C42.222 232.962 42.522 232.836 42.93 232.656C43.338 232.464 43.788 232.236 44.28 231.972C44.784 231.708 45.258 231.426 45.702 231.126L46.854 232.062C46.11 232.494 45.33 232.884 44.514 233.232C43.71 233.58 42.906 233.874 42.102 234.114V234.15C42.102 234.15 42.054 234.168 41.958 234.204C41.862 234.24 41.754 234.294 41.634 234.366C41.514 234.426 41.406 234.492 41.31 234.564C41.214 234.636 41.166 234.714 41.166 234.798ZM41.166 234.798L41.148 233.862L41.94 233.43L48.726 233.142C48.678 233.298 48.63 233.484 48.582 233.7C48.534 233.916 48.504 234.096 48.492 234.24C47.268 234.3 46.242 234.354 45.414 234.402C44.586 234.438 43.914 234.474 43.398 234.51C42.882 234.546 42.474 234.582 42.174 234.618C41.886 234.642 41.67 234.666 41.526 234.69C41.382 234.714 41.262 234.75 41.166 234.798ZM46.278 236.31H47.934V239.694C47.934 240.102 47.874 240.426 47.754 240.666C47.646 240.906 47.424 241.086 47.088 241.206C46.764 241.326 46.362 241.398 45.882 241.422C45.414 241.458 44.844 241.476 44.172 241.476C44.136 241.224 44.058 240.948 43.938 240.648C43.818 240.36 43.692 240.108 43.56 239.892C43.908 239.904 44.244 239.916 44.568 239.928C44.892 239.928 45.174 239.928 45.414 239.928C45.654 239.928 45.822 239.928 45.918 239.928C46.062 239.916 46.158 239.892 46.206 239.856C46.254 239.82 46.278 239.748 46.278 239.64V236.31ZM58.446 240V226.734H61.884C63.252 226.734 64.41 226.986 65.358 227.49C66.306 227.982 67.026 228.714 67.518 229.686C68.022 230.658 68.274 231.87 68.274 233.322C68.274 234.762 68.022 235.98 67.518 236.976C67.026 237.972 66.312 238.728 65.376 239.244C64.44 239.748 63.312 240 61.992 240H58.446ZM60.534 238.29H61.74C62.688 238.29 63.486 238.104 64.134 237.732C64.794 237.36 65.286 236.808 65.61 236.076C65.946 235.332 66.114 234.414 66.114 233.322C66.114 232.218 65.946 231.306 65.61 230.586C65.286 229.866 64.794 229.332 64.134 228.984C63.486 228.624 62.688 228.444 61.74 228.444H60.534V238.29Z" fill="white"/>
<path d="M124.786 16.252C123.658 16.252 122.656 15.97 121.78 15.406C120.916 14.842 120.238 14.044 119.746 13.012C119.254 11.968 119.008 10.738 119.008 9.322C119.008 7.894 119.254 6.676 119.746 5.668C120.238 4.648 120.916 3.868 121.78 3.328C122.656 2.776 123.658 2.5 124.786 2.5C125.926 2.5 126.928 2.776 127.792 3.328C128.656 3.868 129.334 4.648 129.826 5.668C130.318 6.676 130.564 7.894 130.564 9.322C130.564 10.738 130.318 11.968 129.826 13.012C129.334 14.044 128.656 14.842 127.792 15.406C126.928 15.97 125.926 16.252 124.786 16.252ZM124.786 14.416C125.518 14.416 126.154 14.206 126.694 13.786C127.246 13.366 127.672 12.778 127.972 12.022C128.272 11.254 128.422 10.354 128.422 9.322C128.422 8.29 128.272 7.402 127.972 6.658C127.672 5.902 127.246 5.326 126.694 4.93C126.154 4.522 125.518 4.318 124.786 4.318C124.054 4.318 123.412 4.522 122.86 4.93C122.32 5.326 121.9 5.902 121.6 6.658C121.312 7.402 121.168 8.29 121.168 9.322C121.168 10.354 121.312 11.254 121.6 12.022C121.9 12.778 122.32 13.366 122.86 13.786C123.412 14.206 124.054 14.416 124.786 14.416ZM134.036 16V6.082H135.728L135.908 7.486H135.944C136.376 7.03 136.838 6.646 137.33 6.334C137.834 6.01 138.398 5.848 139.022 5.848C139.754 5.848 140.336 6.01 140.768 6.334C141.2 6.646 141.524 7.09 141.74 7.666C142.232 7.138 142.736 6.706 143.252 6.37C143.78 6.022 144.35 5.848 144.962 5.848C145.994 5.848 146.756 6.19 147.248 6.874C147.752 7.546 148.004 8.512 148.004 9.772V16H145.916V10.024C145.916 9.172 145.784 8.566 145.52 8.206C145.256 7.834 144.842 7.648 144.278 7.648C143.942 7.648 143.588 7.756 143.216 7.972C142.856 8.188 142.466 8.524 142.046 8.98V16H139.976V10.024C139.976 9.172 139.844 8.566 139.58 8.206C139.316 7.834 138.896 7.648 138.32 7.648C137.996 7.648 137.648 7.756 137.276 7.972C136.904 8.188 136.514 8.524 136.106 8.98V16H134.036ZM156.057 16.252C155.157 16.252 154.341 16.048 153.609 15.64C152.877 15.22 152.295 14.626 151.863 13.858C151.431 13.078 151.215 12.142 151.215 11.05C151.215 10.246 151.341 9.526 151.593 8.89C151.845 8.242 152.187 7.696 152.619 7.252C153.051 6.796 153.537 6.448 154.077 6.208C154.617 5.968 155.169 5.848 155.733 5.848C156.609 5.848 157.347 6.046 157.947 6.442C158.547 6.826 159.003 7.372 159.315 8.08C159.627 8.776 159.783 9.592 159.783 10.528C159.783 10.732 159.771 10.93 159.747 11.122C159.735 11.302 159.711 11.458 159.675 11.59H153.249C153.309 12.214 153.471 12.754 153.735 13.21C154.011 13.654 154.365 14.002 154.797 14.254C155.241 14.494 155.745 14.614 156.309 14.614C156.753 14.614 157.167 14.548 157.551 14.416C157.935 14.284 158.307 14.104 158.667 13.876L159.387 15.19C158.931 15.49 158.421 15.742 157.857 15.946C157.305 16.15 156.705 16.252 156.057 16.252ZM153.231 10.15H157.983C157.983 9.31 157.791 8.656 157.407 8.188C157.035 7.72 156.489 7.486 155.769 7.486C155.361 7.486 154.977 7.588 154.617 7.792C154.257 7.996 153.951 8.296 153.699 8.692C153.459 9.088 153.303 9.574 153.231 10.15ZM166.133 20.446C165.341 20.446 164.633 20.344 164.009 20.14C163.385 19.948 162.893 19.66 162.533 19.276C162.185 18.892 162.011 18.412 162.011 17.836C162.011 17.416 162.137 17.02 162.389 16.648C162.641 16.276 162.995 15.952 163.451 15.676V15.604C163.199 15.436 162.983 15.22 162.803 14.956C162.635 14.68 162.551 14.344 162.551 13.948C162.551 13.552 162.665 13.198 162.893 12.886C163.133 12.562 163.391 12.304 163.667 12.112V12.04C163.319 11.776 163.013 11.416 162.749 10.96C162.485 10.504 162.353 9.982 162.353 9.394C162.353 8.65 162.527 8.014 162.875 7.486C163.235 6.946 163.703 6.538 164.279 6.262C164.867 5.986 165.503 5.848 166.187 5.848C166.475 5.848 166.739 5.872 166.979 5.92C167.231 5.956 167.447 6.01 167.627 6.082H171.137V7.648H169.265C169.445 7.852 169.595 8.11 169.715 8.422C169.835 8.734 169.895 9.076 169.895 9.448C169.895 10.168 169.727 10.786 169.391 11.302C169.067 11.806 168.623 12.196 168.059 12.472C167.495 12.736 166.871 12.868 166.187 12.868C165.971 12.868 165.737 12.844 165.485 12.796C165.245 12.736 165.017 12.664 164.801 12.58C164.645 12.712 164.513 12.856 164.405 13.012C164.309 13.168 164.261 13.366 164.261 13.606C164.261 13.894 164.375 14.128 164.603 14.308C164.843 14.488 165.281 14.578 165.917 14.578H167.753C168.917 14.578 169.799 14.77 170.399 15.154C170.999 15.526 171.299 16.132 171.299 16.972C171.299 17.608 171.089 18.19 170.669 18.718C170.249 19.246 169.649 19.666 168.869 19.978C168.101 20.29 167.189 20.446 166.133 20.446ZM166.187 11.518C166.523 11.518 166.835 11.434 167.123 11.266C167.411 11.098 167.639 10.858 167.807 10.546C167.975 10.222 168.059 9.838 168.059 9.394C168.059 8.95 167.975 8.578 167.807 8.278C167.639 7.966 167.411 7.726 167.123 7.558C166.847 7.39 166.535 7.306 166.187 7.306C165.839 7.306 165.521 7.39 165.233 7.558C164.957 7.726 164.735 7.966 164.567 8.278C164.399 8.578 164.315 8.95 164.315 9.394C164.315 9.838 164.399 10.222 164.567 10.546C164.747 10.858 164.975 11.098 165.251 11.266C165.539 11.434 165.851 11.518 166.187 11.518ZM166.421 19.078C167.009 19.078 167.513 18.994 167.933 18.826C168.353 18.658 168.683 18.436 168.923 18.16C169.163 17.896 169.283 17.614 169.283 17.314C169.283 16.894 169.127 16.606 168.815 16.45C168.503 16.306 168.047 16.234 167.447 16.234H165.953C165.713 16.234 165.485 16.222 165.269 16.198C165.053 16.174 164.837 16.138 164.621 16.09C164.333 16.306 164.123 16.54 163.991 16.792C163.859 17.044 163.793 17.29 163.793 17.53C163.793 18.01 164.027 18.388 164.495 18.664C164.963 18.94 165.605 19.078 166.421 19.078ZM175.973 16.252C175.409 16.252 174.905 16.132 174.461 15.892C174.029 15.652 173.687 15.316 173.435 14.884C173.183 14.452 173.057 13.948 173.057 13.372C173.057 12.304 173.525 11.482 174.461 10.906C175.409 10.318 176.915 9.91 178.979 9.682C178.967 9.298 178.907 8.944 178.799 8.62C178.691 8.296 178.499 8.038 178.223 7.846C177.959 7.642 177.581 7.54 177.089 7.54C176.573 7.54 176.075 7.642 175.595 7.846C175.115 8.05 174.659 8.284 174.227 8.548L173.453 7.144C173.801 6.928 174.185 6.724 174.605 6.532C175.025 6.328 175.475 6.166 175.955 6.046C176.435 5.914 176.933 5.848 177.449 5.848C178.277 5.848 178.955 6.016 179.483 6.352C180.011 6.676 180.401 7.15 180.653 7.774C180.917 8.398 181.049 9.154 181.049 10.042V16H179.357L179.195 14.866H179.123C178.679 15.25 178.193 15.58 177.665 15.856C177.137 16.12 176.573 16.252 175.973 16.252ZM176.603 14.596C177.035 14.596 177.437 14.5 177.809 14.308C178.181 14.104 178.571 13.81 178.979 13.426V11.014C178.007 11.122 177.233 11.284 176.657 11.5C176.081 11.704 175.667 11.95 175.415 12.238C175.175 12.514 175.055 12.838 175.055 13.21C175.055 13.702 175.205 14.056 175.505 14.272C175.805 14.488 176.171 14.596 176.603 14.596ZM184.166 11.68V10.15H188.918V11.68H184.166ZM195.478 16.252C194.782 16.252 194.164 16.168 193.624 16C193.096 15.832 192.628 15.61 192.22 15.334C191.812 15.046 191.458 14.74 191.158 14.416L192.166 13.084C192.562 13.468 193.012 13.804 193.516 14.092C194.02 14.38 194.614 14.524 195.298 14.524C195.802 14.524 196.24 14.44 196.612 14.272C196.984 14.104 197.272 13.864 197.476 13.552C197.692 13.24 197.8 12.868 197.8 12.436C197.8 11.956 197.68 11.548 197.44 11.212C197.212 10.864 196.81 10.594 196.234 10.402C195.67 10.21 194.89 10.114 193.894 10.114V8.566C194.77 8.566 195.454 8.47 195.946 8.278C196.45 8.074 196.81 7.81 197.026 7.486C197.254 7.15 197.368 6.778 197.368 6.37C197.368 5.794 197.188 5.344 196.828 5.02C196.468 4.684 195.97 4.516 195.334 4.516C194.83 4.516 194.356 4.636 193.912 4.876C193.48 5.104 193.072 5.404 192.688 5.776L191.608 4.48C192.136 4.012 192.712 3.628 193.336 3.328C193.96 3.016 194.65 2.86 195.406 2.86C196.198 2.86 196.9 2.992 197.512 3.256C198.124 3.52 198.604 3.904 198.952 4.408C199.3 4.9 199.474 5.5 199.474 6.208C199.474 6.952 199.264 7.576 198.844 8.08C198.436 8.572 197.884 8.95 197.188 9.214V9.304C197.692 9.424 198.148 9.628 198.556 9.916C198.976 10.204 199.306 10.57 199.546 11.014C199.786 11.446 199.906 11.956 199.906 12.544C199.906 13.324 199.702 13.99 199.294 14.542C198.898 15.094 198.364 15.52 197.692 15.82C197.02 16.108 196.282 16.252 195.478 16.252Z" fill="white"/>
<path d="M404.136 2.32H405.828V7.342H404.136V2.32ZM397.836 1.582H411.408V2.986H397.836V1.582ZM410.976 1.582H411.264L411.534 1.51L412.794 1.852C412.578 2.392 412.338 2.95 412.074 3.526C411.81 4.102 411.552 4.588 411.3 4.984L409.824 4.588C410.028 4.228 410.238 3.79 410.454 3.274C410.67 2.758 410.844 2.272 410.976 1.816V1.582ZM405.072 4.192H410.004V5.398H405.072V4.192ZM401.184 4.57C401.544 5.194 402.012 5.662 402.588 5.974C403.164 6.274 403.86 6.472 404.676 6.568C405.492 6.664 406.422 6.712 407.466 6.712C407.634 6.712 407.91 6.712 408.294 6.712C408.678 6.712 409.11 6.712 409.59 6.712C410.07 6.712 410.556 6.712 411.048 6.712C411.552 6.7 412.008 6.694 412.416 6.694C412.824 6.682 413.142 6.676 413.37 6.676C413.298 6.784 413.22 6.934 413.136 7.126C413.052 7.306 412.98 7.492 412.92 7.684C412.872 7.864 412.83 8.032 412.794 8.188H411.606H407.448C406.176 8.188 405.072 8.116 404.136 7.972C403.2 7.816 402.396 7.504 401.724 7.036C401.064 6.568 400.512 5.878 400.068 4.966L401.184 4.57ZM400.266 10.906V12.418H409.662V10.906H400.266ZM398.646 9.628H411.372V13.696H398.646V9.628ZM404.172 8.548H405.864V16.144H404.172V8.548ZM397.134 15.424C397.95 15.412 398.886 15.4 399.942 15.388C400.998 15.376 402.138 15.358 403.362 15.334C404.586 15.31 405.852 15.286 407.16 15.262C408.468 15.226 409.77 15.196 411.066 15.172L410.994 16.468C409.362 16.54 407.706 16.612 406.026 16.684C404.358 16.756 402.768 16.822 401.256 16.882C399.756 16.942 398.418 16.99 397.242 17.026L397.134 15.424ZM407.916 14.344L408.996 13.408C409.488 13.732 410.004 14.092 410.544 14.488C411.084 14.884 411.594 15.274 412.074 15.658C412.566 16.042 412.98 16.372 413.316 16.648L412.2 17.728C411.876 17.428 411.468 17.074 410.976 16.666C410.484 16.27 409.968 15.868 409.428 15.46C408.9 15.052 408.396 14.68 407.916 14.344ZM400.338 3.364L401.922 3.76C401.49 5.02 400.878 6.16 400.086 7.18C399.306 8.2 398.388 9.028 397.332 9.664C397.296 9.532 397.23 9.364 397.134 9.16C397.038 8.956 396.936 8.752 396.828 8.548C396.72 8.332 396.624 8.158 396.54 8.026C397.404 7.546 398.172 6.91 398.844 6.118C399.516 5.314 400.014 4.396 400.338 3.364ZM418.212 14.542H429.534V16.252H418.212V14.542ZM418.158 9.016H429.534V10.69H418.158V9.016ZM417.33 3.58H430.506V17.44H428.724V5.29H419.04V17.494H417.33V3.58ZM422.694 0.735999L424.872 1.078C424.596 1.714 424.308 2.35 424.008 2.986C423.72 3.61 423.45 4.15 423.198 4.606L421.542 4.228C421.686 3.904 421.83 3.538 421.974 3.13C422.118 2.722 422.256 2.308 422.388 1.888C422.52 1.468 422.622 1.084 422.694 0.735999ZM441.342 0.862L442.35 1.87C441.822 2.038 441.222 2.188 440.55 2.32C439.878 2.44 439.182 2.536 438.462 2.608C437.754 2.68 437.07 2.728 436.41 2.752C436.386 2.608 436.332 2.434 436.248 2.23C436.176 2.014 436.098 1.828 436.014 1.672C436.65 1.624 437.298 1.564 437.958 1.492C438.618 1.42 439.242 1.33 439.83 1.222C440.43 1.114 440.934 0.993999 441.342 0.862ZM448.992 0.862L450.108 1.816C449.556 1.996 448.92 2.152 448.2 2.284C447.48 2.404 446.742 2.5 445.986 2.572C445.23 2.632 444.498 2.68 443.79 2.716C443.754 2.572 443.694 2.398 443.61 2.194C443.538 1.978 443.46 1.792 443.376 1.636C444.048 1.588 444.738 1.534 445.446 1.474C446.154 1.402 446.814 1.318 447.426 1.222C448.05 1.114 448.572 0.993999 448.992 0.862ZM436.68 3.508H442.62V4.786H436.68V3.508ZM444.078 3.508H450.882V4.786H444.078V3.508ZM439.2 3.886H440.73V6.82H439.2V3.886ZM446.652 3.922H448.182V6.874H446.652V3.922ZM438.696 10.33V11.41H446.832V10.33H438.696ZM438.696 12.436V13.516H446.832V12.436H438.696ZM438.696 8.242V9.322H446.832V8.242H438.696ZM437.058 7.18H448.542V14.596H437.058V7.18ZM444.492 15.604L445.158 14.524C445.83 14.704 446.508 14.902 447.192 15.118C447.888 15.334 448.536 15.55 449.136 15.766C449.748 15.982 450.276 16.18 450.72 16.36L449.946 17.566C449.514 17.374 448.998 17.164 448.398 16.936C447.81 16.708 447.18 16.48 446.508 16.252C445.848 16.024 445.176 15.808 444.492 15.604ZM440.046 14.56L441.324 15.298C440.82 15.574 440.238 15.856 439.578 16.144C438.918 16.444 438.24 16.72 437.544 16.972C436.848 17.224 436.2 17.44 435.6 17.62C435.552 17.512 435.474 17.362 435.366 17.17C435.27 16.99 435.168 16.804 435.06 16.612C434.952 16.432 434.856 16.288 434.772 16.18C435.348 16.048 435.96 15.898 436.608 15.73C437.256 15.562 437.88 15.376 438.48 15.172C439.08 14.968 439.602 14.764 440.046 14.56ZM436.014 1.672H437.508V3.058C437.508 3.514 437.454 4.006 437.346 4.534C437.25 5.05 437.064 5.56 436.788 6.064C436.524 6.568 436.134 7.024 435.618 7.432C435.546 7.324 435.438 7.198 435.294 7.054C435.162 6.91 435.024 6.772 434.88 6.64C434.736 6.508 434.61 6.406 434.502 6.334C434.946 5.998 435.276 5.644 435.492 5.272C435.708 4.888 435.846 4.504 435.906 4.12C435.978 3.736 436.014 3.37 436.014 3.022V1.672ZM443.376 1.636H444.834V2.986C444.834 3.418 444.792 3.886 444.708 4.39C444.636 4.894 444.492 5.386 444.276 5.866C444.072 6.334 443.76 6.766 443.34 7.162C443.256 7.078 443.136 6.982 442.98 6.874C442.824 6.754 442.668 6.646 442.512 6.55C442.356 6.442 442.218 6.364 442.098 6.316C442.482 5.968 442.758 5.602 442.926 5.218C443.106 4.822 443.226 4.432 443.286 4.048C443.346 3.652 443.376 3.292 443.376 2.968V1.636Z" fill="white"/>
<path d="M555.378 224.558H562.668V226.088H555.378V224.558ZM555.414 228.05H562.704V229.58H555.414V228.05ZM555.27 231.704H563.28V233.288H555.27V231.704ZM558.51 221.588H560.04V232.55H558.51V221.588ZM556.116 221.048H563.028V222.578H556.116V234.53H554.55V222.056L555.504 221.048H556.116ZM555.972 217.88L557.592 218.366C557.304 219.218 556.95 220.1 556.53 221.012C556.122 221.912 555.672 222.782 555.18 223.622C554.688 224.462 554.16 225.212 553.596 225.872C553.548 225.716 553.476 225.542 553.38 225.35C553.284 225.158 553.188 224.966 553.092 224.774C552.996 224.582 552.9 224.42 552.804 224.288C553.272 223.736 553.71 223.094 554.118 222.362C554.526 221.63 554.886 220.874 555.198 220.094C555.522 219.314 555.78 218.576 555.972 217.88ZM557.952 218.492L559.374 217.88C559.614 218.288 559.848 218.726 560.076 219.194C560.316 219.65 560.502 220.052 560.634 220.4L559.122 221.102C559.014 220.742 558.846 220.322 558.618 219.842C558.39 219.35 558.168 218.9 557.952 218.492ZM551.13 225.026L552.3 224.612C552.492 224.996 552.672 225.41 552.84 225.854C553.02 226.286 553.176 226.706 553.308 227.114C553.44 227.522 553.536 227.882 553.596 228.194L552.336 228.698C552.3 228.374 552.216 228.002 552.084 227.582C551.964 227.162 551.82 226.73 551.652 226.286C551.496 225.83 551.322 225.41 551.13 225.026ZM549.384 229.688L550.572 229.418C550.692 230.03 550.8 230.69 550.896 231.398C550.992 232.094 551.052 232.706 551.076 233.234L549.798 233.54C549.786 233.012 549.738 232.394 549.654 231.686C549.57 230.966 549.48 230.3 549.384 229.688ZM547.404 229.526L548.718 229.742C548.634 230.522 548.52 231.308 548.376 232.1C548.232 232.892 548.064 233.57 547.872 234.134C547.728 234.05 547.518 233.96 547.242 233.864C546.978 233.78 546.768 233.714 546.612 233.666C546.828 233.126 546.996 232.484 547.116 231.74C547.236 230.996 547.332 230.258 547.404 229.526ZM547.152 224.72C547.116 224.624 547.068 224.492 547.008 224.324C546.96 224.144 546.9 223.964 546.828 223.784C546.768 223.604 546.708 223.448 546.648 223.316C546.816 223.268 546.978 223.16 547.134 222.992C547.302 222.824 547.47 222.602 547.638 222.326C547.77 222.158 547.968 221.84 548.232 221.372C548.508 220.904 548.796 220.358 549.096 219.734C549.408 219.11 549.678 218.474 549.906 217.826L551.346 218.42C550.902 219.416 550.392 220.4 549.816 221.372C549.24 222.344 548.664 223.19 548.088 223.91V223.946C548.088 223.946 548.04 223.97 547.944 224.018C547.848 224.066 547.734 224.132 547.602 224.216C547.482 224.3 547.374 224.39 547.278 224.486C547.194 224.57 547.152 224.648 547.152 224.72ZM547.152 224.72L547.116 223.586L547.818 223.136L550.968 222.902C550.92 223.094 550.884 223.316 550.86 223.568C550.836 223.808 550.818 224.006 550.806 224.162C550.098 224.234 549.522 224.3 549.078 224.36C548.634 224.408 548.286 224.456 548.034 224.504C547.782 224.54 547.59 224.576 547.458 224.612C547.326 224.648 547.224 224.684 547.152 224.72ZM547.278 228.842C547.254 228.734 547.212 228.596 547.152 228.428C547.092 228.248 547.026 228.068 546.954 227.888C546.894 227.696 546.834 227.54 546.774 227.42C546.978 227.372 547.182 227.24 547.386 227.024C547.602 226.808 547.854 226.532 548.142 226.196C548.286 226.028 548.496 225.752 548.772 225.368C549.06 224.984 549.372 224.528 549.708 224C550.056 223.46 550.404 222.884 550.752 222.272C551.112 221.648 551.436 221.03 551.724 220.418L553.038 221.21C552.594 222.038 552.108 222.86 551.58 223.676C551.052 224.492 550.506 225.272 549.942 226.016C549.378 226.748 548.802 227.42 548.214 228.032V228.068C548.214 228.068 548.166 228.092 548.07 228.14C547.974 228.188 547.866 228.254 547.746 228.338C547.626 228.41 547.518 228.494 547.422 228.59C547.326 228.674 547.278 228.758 547.278 228.842ZM547.278 228.842L547.206 227.69L547.926 227.204L552.75 226.556C552.714 226.748 552.69 226.964 552.678 227.204C552.666 227.444 552.666 227.642 552.678 227.798C551.574 227.966 550.686 228.11 550.014 228.23C549.342 228.338 548.82 228.428 548.448 228.5C548.088 228.572 547.824 228.632 547.656 228.68C547.488 228.728 547.362 228.782 547.278 228.842ZM551.364 229.31L552.48 228.932C552.696 229.484 552.906 230.084 553.11 230.732C553.314 231.368 553.464 231.914 553.56 232.37L552.354 232.802C552.27 232.322 552.132 231.758 551.94 231.11C551.748 230.45 551.556 229.85 551.364 229.31ZM568.644 221.21H581.136V222.866H568.644V221.21ZM567.87 226.484H580.47V228.122H567.87V226.484ZM565.854 232.298H582.018V233.954H565.854V232.298ZM573.054 217.808H574.818V233.126H573.054V217.808ZM568.95 218.06L570.714 218.456C570.45 219.38 570.132 220.292 569.76 221.192C569.4 222.08 569.004 222.908 568.572 223.676C568.14 224.432 567.69 225.098 567.222 225.674C567.102 225.578 566.946 225.47 566.754 225.35C566.574 225.218 566.388 225.092 566.196 224.972C566.004 224.84 565.83 224.738 565.674 224.666C566.166 224.138 566.616 223.526 567.024 222.83C567.432 222.122 567.798 221.36 568.122 220.544C568.458 219.728 568.734 218.9 568.95 218.06ZM595.932 228.032L597.192 227.258C597.6 227.522 598.026 227.822 598.47 228.158C598.914 228.482 599.334 228.818 599.73 229.166C600.138 229.502 600.468 229.808 600.72 230.084L599.37 230.984C599.142 230.696 598.836 230.378 598.452 230.03C598.068 229.682 597.654 229.334 597.21 228.986C596.778 228.638 596.352 228.32 595.932 228.032ZM595.176 231.596L596.418 230.696C596.898 230.924 597.414 231.188 597.966 231.488C598.518 231.788 599.046 232.094 599.55 232.406C600.066 232.718 600.492 233.006 600.828 233.27L599.514 234.296C599.202 234.032 598.8 233.738 598.308 233.414C597.816 233.09 597.294 232.772 596.742 232.46C596.202 232.136 595.68 231.848 595.176 231.596ZM588.858 230.714L590.424 231.326C590.028 231.698 589.566 232.07 589.038 232.442C588.51 232.814 587.964 233.156 587.4 233.468C586.848 233.792 586.308 234.068 585.78 234.296C585.696 234.188 585.576 234.056 585.42 233.9C585.264 233.756 585.102 233.612 584.934 233.468C584.778 233.324 584.634 233.21 584.502 233.126C585.294 232.826 586.086 232.466 586.878 232.046C587.682 231.626 588.342 231.182 588.858 230.714ZM591.918 217.79H593.628V224.198H591.918V217.79ZM585.564 218.978H600.126V220.238H585.564V218.978ZM586.536 221.192H599.118V222.434H586.536V221.192ZM584.664 223.406H600.99V224.72H584.664V223.406ZM585.87 230.75C585.846 230.642 585.81 230.504 585.762 230.336C585.714 230.168 585.666 229.988 585.618 229.796C585.57 229.604 585.522 229.442 585.474 229.31C585.81 229.274 586.182 229.202 586.59 229.094C586.998 228.986 587.478 228.842 588.03 228.662C588.282 228.578 588.636 228.458 589.092 228.302C589.548 228.134 590.07 227.936 590.658 227.708C591.258 227.48 591.888 227.222 592.548 226.934C593.208 226.646 593.868 226.34 594.528 226.016C595.2 225.692 595.83 225.362 596.418 225.026L597.588 226.088C595.872 226.988 594.096 227.774 592.26 228.446C590.436 229.106 588.636 229.658 586.86 230.102V230.174C586.86 230.174 586.806 230.192 586.698 230.228C586.602 230.252 586.488 230.294 586.356 230.354C586.224 230.402 586.11 230.462 586.014 230.534C585.918 230.606 585.87 230.678 585.87 230.75ZM585.87 230.75L585.834 229.724L586.824 229.22L598.38 228.698C598.404 228.878 598.434 229.082 598.47 229.31C598.518 229.526 598.566 229.7 598.614 229.832C596.778 229.94 595.206 230.03 593.898 230.102C592.59 230.174 591.486 230.24 590.586 230.3C589.686 230.348 588.954 230.39 588.39 230.426C587.826 230.462 587.376 230.498 587.04 230.534C586.716 230.558 586.464 230.588 586.284 230.624C586.116 230.66 585.978 230.702 585.87 230.75ZM587.166 227.798C587.142 227.69 587.106 227.552 587.058 227.384C587.01 227.216 586.956 227.042 586.896 226.862C586.836 226.682 586.782 226.526 586.734 226.394C586.926 226.37 587.124 226.328 587.328 226.268C587.544 226.208 587.778 226.13 588.03 226.034C588.222 225.962 588.522 225.836 588.93 225.656C589.338 225.464 589.788 225.236 590.28 224.972C590.784 224.708 591.258 224.426 591.702 224.126L592.854 225.062C592.11 225.494 591.33 225.884 590.514 226.232C589.71 226.58 588.906 226.874 588.102 227.114V227.15C588.102 227.15 588.054 227.168 587.958 227.204C587.862 227.24 587.754 227.294 587.634 227.366C587.514 227.426 587.406 227.492 587.31 227.564C587.214 227.636 587.166 227.714 587.166 227.798ZM587.166 227.798L587.148 226.862L587.94 226.43L594.726 226.142C594.678 226.298 594.63 226.484 594.582 226.7C594.534 226.916 594.504 227.096 594.492 227.24C593.268 227.3 592.242 227.354 591.414 227.402C590.586 227.438 589.914 227.474 589.398 227.51C588.882 227.546 588.474 227.582 588.174 227.618C587.886 227.642 587.67 227.666 587.526 227.69C587.382 227.714 587.262 227.75 587.166 227.798ZM592.278 229.31H593.934V232.694C593.934 233.102 593.874 233.426 593.754 233.666C593.646 233.906 593.424 234.086 593.088 234.206C592.764 234.326 592.362 234.398 591.882 234.422C591.414 234.458 590.844 234.476 590.172 234.476C590.136 234.224 590.058 233.948 589.938 233.648C589.818 233.36 589.692 233.108 589.56 232.892C589.908 232.904 590.244 232.916 590.568 232.928C590.892 232.928 591.174 232.928 591.414 232.928C591.654 232.928 591.822 232.928 591.918 232.928C592.062 232.916 592.158 232.892 592.206 232.856C592.254 232.82 592.278 232.748 592.278 232.64V229.31ZM604.446 233V219.734H608.568C609.468 219.734 610.266 219.842 610.962 220.058C611.67 220.274 612.222 220.622 612.618 221.102C613.026 221.57 613.23 222.2 613.23 222.992C613.23 223.424 613.152 223.832 612.996 224.216C612.852 224.6 612.642 224.942 612.366 225.242C612.09 225.53 611.748 225.74 611.34 225.872V225.962C612.096 226.118 612.72 226.46 613.212 226.988C613.704 227.504 613.95 228.212 613.95 229.112C613.95 229.988 613.728 230.714 613.284 231.29C612.852 231.866 612.252 232.298 611.484 232.586C610.728 232.862 609.858 233 608.874 233H604.446ZM606.534 225.278H608.316C609.324 225.278 610.05 225.098 610.494 224.738C610.95 224.378 611.178 223.892 611.178 223.28C611.178 222.596 610.944 222.11 610.476 221.822C610.008 221.522 609.306 221.372 608.37 221.372H606.534V225.278ZM606.534 231.362H608.64C609.672 231.362 610.47 231.17 611.034 230.786C611.61 230.402 611.898 229.808 611.898 229.004C611.898 228.26 611.616 227.72 611.052 227.384C610.5 227.036 609.696 226.862 608.64 226.862H606.534V231.362ZM617.136 233V231.29H620.052V222.434H617.676V221.12C618.3 221 618.84 220.862 619.296 220.706C619.764 220.538 620.19 220.34 620.574 220.112H622.14V231.29H624.714V233H617.136ZM627.563 233V231.794C628.799 230.582 629.855 229.508 630.731 228.572C631.619 227.624 632.297 226.772 632.765 226.016C633.233 225.248 633.467 224.528 633.467 223.856C633.467 223.376 633.383 222.962 633.215 222.614C633.059 222.266 632.813 221.996 632.477 221.804C632.153 221.612 631.739 221.516 631.235 221.516C630.719 221.516 630.245 221.666 629.813 221.966C629.381 222.254 628.985 222.596 628.625 222.992L627.455 221.84C628.019 221.216 628.613 220.73 629.237 220.382C629.873 220.034 630.629 219.86 631.505 219.86C632.309 219.86 633.011 220.022 633.611 220.346C634.211 220.67 634.673 221.126 634.997 221.714C635.333 222.29 635.501 222.968 635.501 223.748C635.501 224.528 635.279 225.32 634.835 226.124C634.403 226.928 633.815 227.762 633.071 228.626C632.327 229.49 631.493 230.402 630.569 231.362C630.917 231.326 631.283 231.296 631.667 231.272C632.063 231.236 632.423 231.218 632.747 231.218H636.131V233H627.563Z" fill="white"/>
<path d="M428.128 450.32H433.222V451.652H428.128V450.32ZM428.056 461.012H433.096V462.164H428.056V461.012ZM427.48 452.966H438.388V454.334H427.48V452.966ZM429.946 448.808H431.476V453.632H429.946V448.808ZM429.388 456.152V457.34H431.89V456.152H429.388ZM428.128 455.072H433.222V458.438H428.128V455.072ZM435.598 449.762L436.822 449.204C437.146 449.636 437.452 450.11 437.74 450.626C438.04 451.142 438.25 451.592 438.37 451.976L437.056 452.606C436.936 452.222 436.738 451.766 436.462 451.238C436.186 450.698 435.898 450.206 435.598 449.762ZM427.48 463.406C428.236 463.322 429.13 463.214 430.162 463.082C431.194 462.95 432.25 462.812 433.33 462.668L433.384 463.856C432.352 464.012 431.338 464.162 430.342 464.306C429.358 464.45 428.464 464.576 427.66 464.684L427.48 463.406ZM436.696 455.936L438.154 456.188C437.698 458.192 437.056 459.998 436.228 461.606C435.412 463.214 434.398 464.546 433.186 465.602C433.114 465.506 433.006 465.392 432.862 465.26C432.73 465.128 432.592 464.996 432.448 464.864C432.304 464.732 432.172 464.624 432.052 464.54C433.24 463.604 434.218 462.398 434.986 460.922C435.754 459.434 436.324 457.772 436.696 455.936ZM429.928 459.464H431.386V463.46L429.928 463.568V459.464ZM433.672 448.808H435.292C435.244 452.18 435.292 454.982 435.436 457.214C435.58 459.446 435.784 461.114 436.048 462.218C436.312 463.31 436.6 463.856 436.912 463.856C437.02 463.856 437.104 463.778 437.164 463.622C437.236 463.454 437.296 463.178 437.344 462.794C437.392 462.398 437.428 461.864 437.452 461.192C437.608 461.348 437.794 461.51 438.01 461.678C438.226 461.834 438.424 461.948 438.604 462.02C438.532 462.98 438.43 463.706 438.298 464.198C438.166 464.702 437.974 465.038 437.722 465.206C437.482 465.374 437.164 465.458 436.768 465.458C436.156 465.458 435.652 465.092 435.256 464.36C434.86 463.628 434.548 462.548 434.32 461.12C434.104 459.692 433.948 457.946 433.852 455.882C433.768 453.818 433.708 451.46 433.672 448.808ZM422.854 453.38H427.012V454.82H422.854V453.38ZM421.954 456.512H427.534V457.97H421.954V456.512ZM422.188 459.086L423.178 458.78C423.322 459.296 423.448 459.854 423.556 460.454C423.676 461.054 423.754 461.57 423.79 462.002L422.746 462.344C422.722 461.9 422.656 461.378 422.548 460.778C422.44 460.166 422.32 459.602 422.188 459.086ZM421.756 463.406C422.488 463.274 423.37 463.1 424.402 462.884C425.434 462.656 426.484 462.422 427.552 462.182L427.642 463.55C426.67 463.802 425.692 464.048 424.708 464.288C423.724 464.528 422.848 464.744 422.08 464.936L421.756 463.406ZM426.454 458.6L427.57 458.96C427.414 459.512 427.258 460.076 427.102 460.652C426.958 461.228 426.814 461.72 426.67 462.128L425.788 461.786C425.86 461.498 425.938 461.168 426.022 460.796C426.118 460.412 426.202 460.028 426.274 459.644C426.346 459.26 426.406 458.912 426.454 458.6ZM424.258 453.992H425.536V463.622L424.258 463.856V453.992ZM424.744 448.7L425.878 449.276C425.59 449.96 425.242 450.632 424.834 451.292C424.426 451.952 423.988 452.57 423.52 453.146C423.064 453.71 422.602 454.208 422.134 454.64C422.098 454.52 422.044 454.346 421.972 454.118C421.9 453.89 421.822 453.662 421.738 453.434C421.666 453.206 421.594 453.026 421.522 452.894C422.134 452.402 422.728 451.784 423.304 451.04C423.892 450.296 424.372 449.516 424.744 448.7ZM424.348 450.824L424.978 449.582C425.35 449.822 425.728 450.092 426.112 450.392C426.496 450.692 426.856 450.992 427.192 451.292C427.528 451.592 427.81 451.868 428.038 452.12L427.372 453.524C427.144 453.248 426.862 452.954 426.526 452.642C426.19 452.318 425.83 452 425.446 451.688C425.074 451.364 424.708 451.076 424.348 450.824ZM432.592 458.654L433.564 459.608C433.06 459.74 432.49 459.854 431.854 459.95C431.23 460.034 430.582 460.106 429.91 460.166C429.238 460.214 428.59 460.238 427.966 460.238C427.942 460.106 427.894 459.944 427.822 459.752C427.762 459.56 427.696 459.392 427.624 459.248C428.212 459.224 428.812 459.188 429.424 459.14C430.048 459.08 430.636 459.008 431.188 458.924C431.74 458.84 432.208 458.75 432.592 458.654Z" fill="white"/>
</svg>
