<svg width="1327" height="468" viewBox="0 0 1327 468" fill="none" xmlns="http://www.w3.org/2000/svg">
<path d="M44.5 468C34.8333 468 26.3333 467.333 19 466C11.6667 465 5.33333 463.833 -4.76837e-07 462.5V399.5C5.33333 400.833 11 402 17 403C22.6667 404 28.8333 404.5 35.5 404.5C44.1667 404.5 52 402.833 59 399.5C66.3333 396.167 72 389.833 76 380.5C80 371.167 82 357.833 82 340.5V5.99998H157.5V340C157.5 370.667 152.667 395.333 143 414C133.667 433 120.5 446.667 103.5 455C86.5 463.667 66.8333 468 44.5 468ZM511.027 363L483.527 279H357.527L330.027 363H247.527L373.027 4.5H467.027L593.527 363H511.027ZM441.027 137.5C439.694 132.5 437.527 125 434.527 115C431.861 105 429.194 94.8333 426.527 84.5C423.861 73.8333 421.694 65.1666 420.027 58.5C418.694 66.1667 416.694 75 414.027 85C411.694 95 409.361 104.667 407.027 114C404.694 123.333 402.694 131.167 401.027 137.5L375.527 215H466.027L441.027 137.5ZM894.219 264C894.219 285 889.052 303.333 878.719 319C868.385 334.667 853.385 346.833 833.719 355.5C814.385 363.833 790.719 368 762.719 368C750.385 368 738.219 367.167 726.219 365.5C714.552 363.833 703.219 361.5 692.219 358.5C681.552 355.167 671.385 351.167 661.719 346.5V276C678.719 283.333 696.219 290.167 714.219 296.5C732.552 302.5 750.719 305.5 768.719 305.5C781.052 305.5 790.885 303.833 798.219 300.5C805.885 297.167 811.385 292.667 814.719 287C818.385 281.333 820.219 274.833 820.219 267.5C820.219 258.5 817.052 250.833 810.719 244.5C804.719 238.167 796.552 232.333 786.219 227C775.885 221.333 764.052 215.333 750.719 209C742.385 205 733.385 200.333 723.719 195C714.052 189.333 704.719 182.5 695.719 174.5C687.052 166.167 679.885 156.167 674.219 144.5C668.552 132.833 665.719 118.833 665.719 102.5C665.719 81.1666 670.552 63 680.219 48C690.219 32.6666 704.219 21 722.219 13C740.552 4.99998 762.052 0.999982 786.719 0.999982C805.385 0.999982 823.052 3.16665 839.719 7.49999C856.719 11.8333 874.385 18 892.719 26L868.219 85C851.885 78.3333 837.219 73.1667 824.219 69.5C811.219 65.8333 797.885 64 784.219 64C774.885 64 766.885 65.5 760.219 68.5C753.552 71.5 748.385 75.6667 744.719 81C741.385 86.3333 739.719 92.6667 739.719 100C739.719 108.333 742.219 115.5 747.219 121.5C752.219 127.167 759.719 132.667 769.719 138C779.719 143.333 792.219 149.667 807.219 157C825.552 165.667 841.052 174.667 853.719 184C866.719 193.333 876.719 204.333 883.719 217C890.719 229.667 894.219 245.333 894.219 264ZM1326.61 184C1326.61 211.667 1323.11 236.833 1316.11 259.5C1309.44 281.833 1299.11 301.167 1285.11 317.5C1271.44 333.833 1253.94 346.333 1232.61 355C1211.28 363.667 1185.94 368 1156.61 368C1127.61 368 1102.28 363.667 1080.61 355C1059.28 346.333 1041.61 333.833 1027.61 317.5C1013.94 301.167 1003.61 281.833 996.609 259.5C989.943 236.833 986.609 211.5 986.609 183.5C986.609 146.5 992.609 114.333 1004.61 87C1016.94 59.6667 1035.61 38.5 1060.61 23.5C1085.94 8.16666 1118.11 0.499988 1157.11 0.499988C1195.78 0.499988 1227.61 8.16666 1252.61 23.5C1277.94 38.5 1296.61 59.8333 1308.61 87.5C1320.61 114.833 1326.61 147 1326.61 184ZM1067.11 184C1067.11 208.667 1070.11 230 1076.11 248C1082.44 266 1092.28 279.833 1105.61 289.5C1118.94 298.833 1135.94 303.5 1156.61 303.5C1177.94 303.5 1195.11 298.833 1208.11 289.5C1221.44 279.833 1231.11 266 1237.11 248C1243.11 230 1246.11 208.667 1246.11 184C1246.11 146.667 1239.28 117.333 1225.61 96C1211.94 74.6666 1189.11 64 1157.11 64C1136.11 64 1118.94 68.8333 1105.61 78.5C1092.28 88.1667 1082.44 102 1076.11 120C1070.11 137.667 1067.11 159 1067.11 184Z" fill="#F2F2F2"/>
</svg>
