<svg width="89" height="21" viewBox="0 0 89 21" fill="none" xmlns="http://www.w3.org/2000/svg">
<rect width="89" height="21" fill="#F5F5F5"/>
<g clip-path="url(#clip0_1099_1172)">
<rect width="1920" height="7304" transform="translate(-898 -499)" fill="white"/>
<path d="M-276.618 -81.54H-223.458V-76.5H-276.618V-81.54ZM-249.858 -70.8H-227.358V-65.82H-249.858V-70.8ZM-252.378 -79.14H-246.678V-56.64H-252.378V-79.14ZM-263.058 -69.48C-261.898 -66.36 -260.278 -64 -258.198 -62.4C-256.118 -60.8 -253.598 -59.72 -250.638 -59.16C-247.678 -58.64 -244.318 -58.38 -240.558 -58.38C-239.998 -58.38 -239.138 -58.38 -237.978 -58.38C-236.778 -58.38 -235.438 -58.38 -233.958 -58.38C-232.438 -58.38 -230.918 -58.38 -229.398 -58.38C-227.838 -58.38 -226.418 -58.38 -225.138 -58.38C-223.818 -58.42 -222.798 -58.44 -222.078 -58.44C-222.358 -58.04 -222.638 -57.52 -222.918 -56.88C-223.158 -56.2 -223.378 -55.52 -223.578 -54.84C-223.778 -54.16 -223.938 -53.56 -224.058 -53.04H-227.658H-240.858C-244.338 -53.04 -247.478 -53.24 -250.278 -53.64C-253.078 -54.04 -255.578 -54.78 -257.778 -55.86C-259.938 -56.9 -261.858 -58.38 -263.538 -60.3C-265.178 -62.22 -266.598 -64.72 -267.798 -67.8L-263.058 -69.48ZM-266.778 -74.88L-261.138 -74.04C-262.098 -69.08 -263.658 -64.74 -265.818 -61.02C-267.978 -57.3 -270.718 -54.24 -274.038 -51.84C-274.318 -52.24 -274.718 -52.7 -275.238 -53.22C-275.718 -53.7 -276.258 -54.2 -276.858 -54.72C-277.418 -55.2 -277.898 -55.58 -278.298 -55.86C-275.178 -57.82 -272.678 -60.42 -270.798 -63.66C-268.878 -66.9 -267.538 -70.64 -266.778 -74.88ZM-265.098 -93.3V-89.22H-235.458V-93.3H-265.098ZM-265.098 -101.22V-97.2H-235.458V-101.22H-265.098ZM-270.618 -105.36H-229.698V-85.02H-270.618V-105.36ZM-211.998 -69.66H-157.338V-65.1H-211.998V-69.66ZM-210.318 -103.32H-159.618V-98.94H-210.318V-103.32ZM-176.838 -73.38H-171.318V-57.66C-171.318 -56.3 -171.498 -55.24 -171.858 -54.48C-172.218 -53.68 -172.938 -53.1 -174.018 -52.74C-175.058 -52.38 -176.398 -52.16 -178.038 -52.08C-179.678 -52 -181.678 -51.96 -184.038 -51.96C-184.158 -52.68 -184.398 -53.52 -184.758 -54.48C-185.078 -55.4 -185.418 -56.2 -185.778 -56.88C-184.658 -56.84 -183.578 -56.82 -182.538 -56.82C-181.498 -56.78 -180.578 -56.78 -179.778 -56.82C-178.938 -56.82 -178.378 -56.82 -178.098 -56.82C-177.578 -56.86 -177.238 -56.94 -177.078 -57.06C-176.918 -57.22 -176.838 -57.48 -176.838 -57.84V-73.38ZM-187.578 -107.58H-181.998V-75.36H-187.578V-107.58ZM-202.458 -62.76L-198.498 -66.06C-197.378 -65.38 -196.198 -64.58 -194.958 -63.66C-193.718 -62.78 -192.538 -61.88 -191.418 -60.96C-190.298 -60.08 -189.398 -59.26 -188.718 -58.5L-192.918 -54.78C-193.558 -55.58 -194.418 -56.46 -195.498 -57.42C-196.538 -58.38 -197.678 -59.32 -198.918 -60.24C-200.118 -61.16 -201.298 -62 -202.458 -62.76ZM-200.298 -85.98V-82.86H-168.918V-85.98H-200.298ZM-200.298 -92.46V-89.46H-168.918V-92.46H-200.298ZM-205.578 -96.06H-163.338V-79.26H-205.578V-96.06ZM-175.998 -78.12L-172.638 -80.82C-171.078 -80.3 -169.498 -79.62 -167.898 -78.78C-166.258 -77.98 -164.698 -77.14 -163.218 -76.26C-161.738 -75.42 -160.518 -74.62 -159.558 -73.86L-162.978 -70.8C-163.938 -71.64 -165.138 -72.5 -166.578 -73.38C-168.018 -74.3 -169.558 -75.18 -171.198 -76.02C-172.838 -76.86 -174.438 -77.56 -175.998 -78.12ZM-209.538 -76.32C-206.818 -76.32 -203.718 -76.32 -200.238 -76.32C-196.758 -76.36 -193.058 -76.38 -189.138 -76.38C-185.178 -76.42 -181.118 -76.46 -176.958 -76.5C-172.798 -76.54 -168.658 -76.6 -164.538 -76.68L-164.778 -73.02C-170.098 -72.9 -175.458 -72.76 -180.858 -72.6C-186.258 -72.48 -191.398 -72.38 -196.278 -72.3C-201.158 -72.22 -205.518 -72.16 -209.358 -72.12L-209.538 -76.32ZM-136.998 -75.84H-96.2584V-70.92H-136.998V-75.84ZM-144.918 -97.62H-105.498V-92.46H-144.918V-97.62ZM-127.698 -86.7H-100.278V-81.72H-127.698V-86.7ZM-98.5384 -75.84H-92.8384C-92.8384 -75.84 -92.8584 -75.68 -92.8984 -75.36C-92.8984 -75.08 -92.9184 -74.76 -92.9584 -74.4C-92.9984 -74.04 -93.0384 -73.74 -93.0784 -73.5C-93.3984 -69.38 -93.7584 -66 -94.1584 -63.36C-94.5184 -60.72 -94.9584 -58.66 -95.4784 -57.18C-95.9584 -55.7 -96.5184 -54.62 -97.1584 -53.94C-97.7584 -53.26 -98.4184 -52.8 -99.1384 -52.56C-99.8184 -52.28 -100.618 -52.1 -101.538 -52.02C-102.338 -51.94 -103.438 -51.9 -104.838 -51.9C-106.198 -51.9 -107.638 -51.92 -109.158 -51.96C-109.198 -52.76 -109.378 -53.66 -109.698 -54.66C-109.978 -55.62 -110.338 -56.46 -110.778 -57.18C-109.338 -57.06 -107.998 -56.98 -106.758 -56.94C-105.518 -56.9 -104.618 -56.88 -104.058 -56.88C-103.538 -56.88 -103.118 -56.92 -102.798 -57C-102.438 -57.08 -102.098 -57.26 -101.778 -57.54C-101.338 -57.98 -100.938 -58.82 -100.578 -60.06C-100.218 -61.34 -99.8584 -63.18 -99.4984 -65.58C-99.1384 -68.02 -98.8184 -71.16 -98.5384 -75V-75.84ZM-111.618 -68.16L-107.658 -69.54C-106.778 -68.34 -105.938 -66.98 -105.138 -65.46C-104.338 -63.98 -103.758 -62.7 -103.398 -61.62L-107.598 -59.94C-107.918 -61.06 -108.458 -62.38 -109.218 -63.9C-109.978 -65.46 -110.778 -66.88 -111.618 -68.16ZM-137.838 -105.54L-132.798 -107.58C-131.638 -106.42 -130.498 -105.08 -129.378 -103.56C-128.218 -102.04 -127.338 -100.72 -126.738 -99.6L-132.138 -97.26C-132.618 -98.42 -133.418 -99.78 -134.538 -101.34C-135.618 -102.9 -136.718 -104.3 -137.838 -105.54ZM-129.558 -66.6L-124.938 -67.2C-124.338 -65.28 -123.898 -63.18 -123.618 -60.9C-123.298 -58.66 -123.138 -56.7 -123.138 -55.02L-128.058 -54.36C-128.018 -55.44 -128.058 -56.68 -128.178 -58.08C-128.298 -59.52 -128.478 -60.96 -128.718 -62.4C-128.918 -63.88 -129.198 -65.28 -129.558 -66.6ZM-120.618 -67.14L-116.238 -68.16C-115.438 -66.48 -114.738 -64.66 -114.138 -62.7C-113.498 -60.78 -113.058 -59.1 -112.818 -57.66L-117.438 -56.46C-117.638 -57.9 -118.058 -59.62 -118.698 -61.62C-119.298 -63.62 -119.938 -65.46 -120.618 -67.14ZM-137.358 -68.22L-132.618 -66.66C-133.058 -64.98 -133.578 -63.26 -134.178 -61.5C-134.778 -59.74 -135.518 -58.08 -136.398 -56.52C-137.278 -54.92 -138.318 -53.5 -139.518 -52.26L-143.898 -55.32C-142.818 -56.36 -141.858 -57.58 -141.018 -58.98C-140.178 -60.42 -139.458 -61.94 -138.858 -63.54C-138.218 -65.14 -137.718 -66.7 -137.358 -68.22ZM-119.478 -107.7L-113.718 -106.26C-115.038 -102.06 -116.658 -97.92 -118.578 -93.84C-120.458 -89.8 -122.658 -85.94 -125.178 -82.26C-127.658 -78.62 -130.538 -75.24 -133.818 -72.12C-137.058 -69.04 -140.718 -66.34 -144.798 -64.02C-145.038 -64.5 -145.338 -65.04 -145.698 -65.64C-146.058 -66.24 -146.438 -66.82 -146.838 -67.38C-147.198 -67.98 -147.558 -68.48 -147.918 -68.88C-144.158 -70.92 -140.758 -73.36 -137.718 -76.2C-134.678 -79.08 -131.998 -82.22 -129.678 -85.62C-127.358 -89.02 -125.358 -92.58 -123.678 -96.3C-121.958 -100.06 -120.558 -103.86 -119.478 -107.7ZM-106.638 -97.62H-101.358C-101.798 -95.46 -102.278 -93.2 -102.798 -90.84C-103.318 -88.52 -103.798 -86.5 -104.238 -84.78L-109.278 -85.56C-108.798 -87.2 -108.318 -89.12 -107.838 -91.32C-107.358 -93.52 -106.958 -95.62 -106.638 -97.62ZM-102.438 -86.7H-97.1584C-97.5584 -84.54 -98.0184 -82.28 -98.5384 -79.92C-99.0184 -77.6 -99.4784 -75.62 -99.9184 -73.98L-104.958 -74.64C-104.518 -76.28 -104.058 -78.2 -103.578 -80.4C-103.098 -82.64 -102.718 -84.74 -102.438 -86.7ZM-43.4584 -73.56L-39.2584 -76.14C-37.8984 -75.26 -36.4784 -74.26 -34.9984 -73.14C-33.5184 -72.06 -32.1184 -70.94 -30.7984 -69.78C-29.4384 -68.66 -28.3384 -67.64 -27.4984 -66.72L-31.9984 -63.72C-32.7584 -64.68 -33.7784 -65.74 -35.0584 -66.9C-36.3384 -68.06 -37.7184 -69.22 -39.1984 -70.38C-40.6384 -71.54 -42.0584 -72.6 -43.4584 -73.56ZM-45.9784 -61.68L-41.8384 -64.68C-40.2384 -63.92 -38.5184 -63.04 -36.6784 -62.04C-34.8384 -61.04 -33.0784 -60.02 -31.3984 -58.98C-29.6784 -57.94 -28.2584 -56.98 -27.1384 -56.1L-31.5184 -52.68C-32.5584 -53.56 -33.8984 -54.54 -35.5384 -55.62C-37.1784 -56.7 -38.9184 -57.76 -40.7584 -58.8C-42.5584 -59.88 -44.2984 -60.84 -45.9784 -61.68ZM-67.0384 -64.62L-61.8184 -62.58C-63.1384 -61.34 -64.6784 -60.1 -66.4384 -58.86C-68.1984 -57.62 -70.0184 -56.48 -71.8984 -55.44C-73.7384 -54.36 -75.5384 -53.44 -77.2984 -52.68C-77.5784 -53.04 -77.9784 -53.48 -78.4984 -54C-79.0184 -54.48 -79.5584 -54.96 -80.1184 -55.44C-80.6384 -55.92 -81.1184 -56.3 -81.5584 -56.58C-78.9184 -57.58 -76.2784 -58.78 -73.6384 -60.18C-70.9584 -61.58 -68.7584 -63.06 -67.0384 -64.62ZM-56.8384 -107.7H-51.1384V-86.34H-56.8384V-107.7ZM-78.0184 -103.74H-29.4784V-99.54H-78.0184V-103.74ZM-74.7784 -96.36H-32.8384V-92.22H-74.7784V-96.36ZM-81.0184 -88.98H-26.5984V-84.6H-81.0184V-88.98ZM-76.9984 -64.5C-77.0784 -64.86 -77.1984 -65.32 -77.3584 -65.88C-77.5184 -66.44 -77.6784 -67.04 -77.8384 -67.68C-77.9984 -68.32 -78.1584 -68.86 -78.3184 -69.3C-77.1984 -69.42 -75.9584 -69.66 -74.5984 -70.02C-73.2384 -70.38 -71.6384 -70.86 -69.7984 -71.46C-68.9584 -71.74 -67.7784 -72.14 -66.2584 -72.66C-64.7384 -73.22 -62.9984 -73.88 -61.0384 -74.64C-59.0384 -75.4 -56.9384 -76.26 -54.7384 -77.22C-52.5384 -78.18 -50.3384 -79.2 -48.1384 -80.28C-45.8984 -81.36 -43.7984 -82.46 -41.8384 -83.58L-37.9384 -80.04C-43.6584 -77.04 -49.5784 -74.42 -55.6984 -72.18C-61.7784 -69.98 -67.7784 -68.14 -73.6984 -66.66V-66.42C-73.6984 -66.42 -73.8784 -66.36 -74.2384 -66.24C-74.5584 -66.16 -74.9384 -66.02 -75.3784 -65.82C-75.8184 -65.66 -76.1984 -65.46 -76.5184 -65.22C-76.8384 -64.98 -76.9984 -64.74 -76.9984 -64.5ZM-76.9984 -64.5L-77.1184 -67.92L-73.8184 -69.6L-35.2984 -71.34C-35.2184 -70.74 -35.1184 -70.06 -34.9984 -69.3C-34.8384 -68.58 -34.6784 -68 -34.5184 -67.56C-40.6384 -67.2 -45.8784 -66.9 -50.2384 -66.66C-54.5984 -66.42 -58.2784 -66.2 -61.2784 -66C-64.2784 -65.84 -66.7184 -65.7 -68.5984 -65.58C-70.4784 -65.46 -71.9784 -65.34 -73.0984 -65.22C-74.1784 -65.14 -75.0184 -65.04 -75.6184 -64.92C-76.1784 -64.8 -76.6384 -64.66 -76.9984 -64.5ZM-72.6784 -74.34C-72.7584 -74.7 -72.8784 -75.16 -73.0384 -75.72C-73.1984 -76.28 -73.3784 -76.86 -73.5784 -77.46C-73.7784 -78.06 -73.9584 -78.58 -74.1184 -79.02C-73.4784 -79.1 -72.8184 -79.24 -72.1384 -79.44C-71.4184 -79.64 -70.6384 -79.9 -69.7984 -80.22C-69.1584 -80.46 -68.1584 -80.88 -66.7984 -81.48C-65.4384 -82.12 -63.9384 -82.88 -62.2984 -83.76C-60.6184 -84.64 -59.0384 -85.58 -57.5584 -86.58L-53.7184 -83.46C-56.1984 -82.02 -58.7984 -80.72 -61.5184 -79.56C-64.1984 -78.4 -66.8784 -77.42 -69.5584 -76.62V-76.5C-69.5584 -76.5 -69.7184 -76.44 -70.0384 -76.32C-70.3584 -76.2 -70.7184 -76.02 -71.1184 -75.78C-71.5184 -75.58 -71.8784 -75.36 -72.1984 -75.12C-72.5184 -74.88 -72.6784 -74.62 -72.6784 -74.34ZM-72.6784 -74.34L-72.7384 -77.46L-70.0984 -78.9L-47.4784 -79.86C-47.6384 -79.34 -47.7984 -78.72 -47.9584 -78C-48.1184 -77.28 -48.2184 -76.68 -48.2584 -76.2C-52.3384 -76 -55.7584 -75.82 -58.5184 -75.66C-61.2784 -75.54 -63.5184 -75.42 -65.2384 -75.3C-66.9584 -75.18 -68.3184 -75.06 -69.3184 -74.94C-70.2784 -74.86 -70.9984 -74.78 -71.4784 -74.7C-71.9584 -74.62 -72.3584 -74.5 -72.6784 -74.34ZM-55.6384 -69.3H-50.1184V-58.02C-50.1184 -56.66 -50.3184 -55.58 -50.7184 -54.78C-51.0784 -53.98 -51.8184 -53.38 -52.9384 -52.98C-54.0184 -52.58 -55.3584 -52.34 -56.9584 -52.26C-58.5184 -52.14 -60.4184 -52.08 -62.6584 -52.08C-62.7784 -52.92 -63.0384 -53.84 -63.4384 -54.84C-63.8384 -55.8 -64.2584 -56.64 -64.6984 -57.36C-63.5384 -57.32 -62.4184 -57.28 -61.3384 -57.24C-60.2584 -57.24 -59.3184 -57.24 -58.5184 -57.24C-57.7184 -57.24 -57.1584 -57.24 -56.8384 -57.24C-56.3584 -57.28 -56.0384 -57.36 -55.8784 -57.48C-55.7184 -57.6 -55.6384 -57.84 -55.6384 -58.2V-69.3ZM-2.41841 -81.96H25.3016V-78.18H-2.41841V-81.96ZM31.5416 -71.7L35.8016 -68.34C33.6016 -66.74 31.2016 -65.18 28.6016 -63.66C26.0416 -62.18 23.6616 -60.92 21.4616 -59.88L17.9816 -63C19.4216 -63.72 20.9616 -64.56 22.6016 -65.52C24.2816 -66.52 25.9016 -67.56 27.4616 -68.64C29.0616 -69.72 30.4216 -70.74 31.5416 -71.7ZM-2.65841 -89.7H28.7816V-70.44H-2.65841V-74.64H23.0816V-85.5H-2.65841V-89.7ZM13.1816 -105.54C14.6216 -104.1 16.3616 -102.7 18.4016 -101.34C20.4416 -99.98 22.6616 -98.68 25.0616 -97.44C27.5016 -96.24 29.9816 -95.14 32.5016 -94.14C35.0616 -93.18 37.5616 -92.38 40.0016 -91.74C39.5616 -91.38 39.1016 -90.9 38.6216 -90.3C38.1416 -89.74 37.6816 -89.16 37.2416 -88.56C36.8416 -87.96 36.5016 -87.42 36.2216 -86.94C33.8216 -87.7 31.3616 -88.64 28.8416 -89.76C26.3216 -90.92 23.8416 -92.2 21.4016 -93.6C18.9616 -95.04 16.6616 -96.56 14.5016 -98.16C12.3416 -99.8 10.4216 -101.46 8.74159 -103.14L13.1816 -105.54ZM10.6016 -108.18L15.7016 -105.72C13.5016 -102.92 10.9016 -100.34 7.90159 -97.98C4.90159 -95.62 1.64159 -93.52 -1.87841 -91.68C-5.35841 -89.84 -8.93841 -88.28 -12.6184 -87C-12.9784 -87.68 -13.4984 -88.46 -14.1784 -89.34C-14.8584 -90.22 -15.5184 -90.98 -16.1584 -91.62C-12.6784 -92.66 -9.23841 -94 -5.83841 -95.64C-2.43841 -97.28 0.681587 -99.16 3.52159 -101.28C6.40159 -103.44 8.76159 -105.74 10.6016 -108.18ZM-6.01841 -52.32C-6.13841 -52.72 -6.35841 -53.18 -6.67841 -53.7C-6.95841 -54.22 -7.25841 -54.74 -7.57841 -55.26C-7.89841 -55.78 -8.21841 -56.18 -8.53841 -56.46C-7.97841 -56.82 -7.41841 -57.36 -6.85841 -58.08C-6.29841 -58.84 -6.01841 -59.88 -6.01841 -61.2V-89.7H-0.438411V-57.66C-0.438411 -57.66 -0.618411 -57.54 -0.978412 -57.3C-1.33841 -57.06 -1.79841 -56.74 -2.35841 -56.34C-2.91841 -55.9 -3.47841 -55.46 -4.03841 -55.02C-4.59841 -54.54 -5.07841 -54.06 -5.47841 -53.58C-5.83841 -53.1 -6.01841 -52.68 -6.01841 -52.32ZM-6.01841 -52.32L-6.19841 -56.64L-3.31841 -58.5L14.0216 -61.02C13.9416 -60.26 13.9016 -59.42 13.9016 -58.5C13.9016 -57.58 13.9216 -56.82 13.9616 -56.22C9.96159 -55.54 6.72159 -55 4.24159 -54.6C1.80159 -54.16 -0.0984122 -53.82 -1.45841 -53.58C-2.81841 -53.3 -3.81841 -53.08 -4.45841 -52.92C-5.09841 -52.72 -5.61841 -52.52 -6.01841 -52.32ZM8.08159 -65.76L11.8016 -69.06C13.6816 -68.14 15.6616 -67.12 17.7416 -66C19.8616 -64.88 21.9616 -63.72 24.0416 -62.52C26.1616 -61.36 28.1216 -60.22 29.9216 -59.1C31.7616 -57.98 33.3416 -56.94 34.6616 -55.98L30.6416 -52.14C29.4016 -53.1 27.9016 -54.16 26.1416 -55.32C24.3816 -56.48 22.4616 -57.68 20.3816 -58.92C18.3416 -60.16 16.2616 -61.36 14.1416 -62.52C12.0216 -63.68 10.0016 -64.76 8.08159 -65.76ZM3.34159 -95.7H19.9016V-91.8H3.34159V-95.7ZM50.0216 -88.86H103.782V-83.82H50.0216V-88.86ZM55.3016 -100.56H89.8616V-95.58H55.3016V-100.56ZM65.3816 -68.4H92.9816V-63.96H65.3816V-68.4ZM65.3816 -58.62H92.9816V-53.82H65.3816V-58.62ZM70.1216 -107.64H75.7616V-86.1H70.1216V-107.64ZM96.4616 -105.72L101.322 -103.14C97.4016 -97.82 92.8216 -92.94 87.5816 -88.5C82.3416 -84.1 76.7016 -80.18 70.6616 -76.74C64.6216 -73.34 58.4016 -70.42 52.0016 -67.98C51.7616 -68.42 51.4216 -68.92 50.9816 -69.48C50.5816 -70.08 50.1416 -70.66 49.6616 -71.22C49.2216 -71.82 48.8216 -72.3 48.4616 -72.66C54.9416 -74.86 61.1616 -77.58 67.1216 -80.82C73.0816 -84.06 78.5616 -87.78 83.5616 -91.98C88.5616 -96.18 92.8616 -100.76 96.4616 -105.72ZM62.2616 -78.12H96.5816V-52.14H90.7016V-73.38H67.9016V-51.9H62.2616V-78.12ZM-598.78 0.56C-596.86 0.12 -594.68 -0.420001 -592.24 -1.06C-589.8 -1.7 -587.22 -2.38 -584.5 -3.1C-581.74 -3.86 -579.02 -4.58 -576.34 -5.26L-575.62 0.079999C-579.34 1.16 -583.1 2.24 -586.9 3.32C-590.7 4.4 -594.12 5.36 -597.16 6.2L-598.78 0.56ZM-598.24 -18.82H-576.4V-13.42H-598.24V-18.82ZM-589.72 -30.64H-584.02V18.08C-584.02 19.56 -584.2 20.7 -584.56 21.5C-584.92 22.34 -585.56 22.98 -586.48 23.42C-587.36 23.86 -588.5 24.14 -589.9 24.26C-591.3 24.42 -593.06 24.5 -595.18 24.5C-595.26 23.74 -595.48 22.84 -595.84 21.8C-596.16 20.76 -596.52 19.86 -596.92 19.1C-595.6 19.14 -594.38 19.18 -593.26 19.22C-592.1 19.22 -591.32 19.2 -590.92 19.16C-590.12 19.16 -589.72 18.78 -589.72 18.02V-30.64ZM-575.74 -25.84H-543.1V-20.14H-575.74V-25.84ZM-559.48 -23.8H-553.36V17.24C-553.36 19 -553.6 20.36 -554.08 21.32C-554.56 22.32 -555.4 23.08 -556.6 23.6C-557.84 24.08 -559.44 24.38 -561.4 24.5C-563.36 24.62 -565.76 24.68 -568.6 24.68C-568.68 24.12 -568.86 23.46 -569.14 22.7C-569.38 21.94 -569.66 21.18 -569.98 20.42C-570.26 19.7 -570.56 19.06 -570.88 18.5C-569.52 18.58 -568.18 18.64 -566.86 18.68C-565.5 18.68 -564.3 18.68 -563.26 18.68C-562.22 18.68 -561.5 18.68 -561.1 18.68C-560.5 18.64 -560.08 18.52 -559.84 18.32C-559.6 18.08 -559.48 17.7 -559.48 17.18V-23.8ZM-509.2 -23.44H-481.42V-18.58H-509.2V-23.44ZM-516.16 -12.04H-479.02V-7.18H-516.16V-12.04ZM-508.6 -29.92L-503.44 -28.78C-504.44 -25.74 -505.72 -22.8 -507.28 -19.96C-508.8 -17.16 -510.42 -14.8 -512.14 -12.88C-512.5 -13.16 -512.96 -13.46 -513.52 -13.78C-514.08 -14.1 -514.66 -14.42 -515.26 -14.74C-515.86 -15.06 -516.38 -15.32 -516.82 -15.52C-515.02 -17.28 -513.42 -19.44 -512.02 -22C-510.58 -24.6 -509.44 -27.24 -508.6 -29.92ZM-500.08 -30.64H-494.44V-8.8H-500.08V-30.64ZM-530.98 -28.06L-526.78 -30.64C-525.82 -29.68 -524.86 -28.64 -523.9 -27.52C-522.9 -26.4 -521.96 -25.32 -521.08 -24.28C-520.2 -23.24 -519.48 -22.32 -518.92 -21.52L-523.24 -18.4C-523.8 -19.24 -524.52 -20.22 -525.4 -21.34C-526.24 -22.46 -527.16 -23.6 -528.16 -24.76C-529.12 -25.96 -530.06 -27.06 -530.98 -28.06ZM-532.9 -16.72H-520.42V-12.1H-532.9V-16.72ZM-521.5 10.16C-520.34 12.8 -518.74 14.76 -516.7 16.04C-514.66 17.32 -512.18 18.16 -509.26 18.56C-506.3 18.96 -502.92 19.16 -499.12 19.16C-497 19.16 -494.64 19.12 -492.04 19.04C-489.44 18.96 -486.82 18.86 -484.18 18.74C-481.54 18.62 -479.16 18.46 -477.04 18.26C-477.32 18.66 -477.58 19.18 -477.82 19.82C-478.06 20.46 -478.28 21.12 -478.48 21.8C-478.64 22.48 -478.78 23.08 -478.9 23.6C-480.86 23.72 -482.98 23.82 -485.26 23.9C-487.54 23.98 -489.86 24.04 -492.22 24.08C-494.58 24.12 -496.9 24.14 -499.18 24.14C-502.7 24.14 -505.84 23.98 -508.6 23.66C-511.32 23.34 -513.74 22.76 -515.86 21.92C-517.94 21.08 -519.76 19.86 -521.32 18.26C-522.88 16.62 -524.22 14.46 -525.34 11.78L-521.5 10.16ZM-522.04 -1.96H-520.72L-519.76 -2.08L-517 -1.06C-518 5.42 -519.68 10.84 -522.04 15.2C-524.36 19.52 -527.2 22.84 -530.56 25.16C-530.8 24.76 -531.14 24.3 -531.58 23.78C-532.02 23.3 -532.48 22.82 -532.96 22.34C-533.44 21.9 -533.86 21.56 -534.22 21.32C-531.1 19.28 -528.48 16.4 -526.36 12.68C-524.24 8.92 -522.8 4.36 -522.04 -1V-1.96ZM-531.94 3.44V-0.760001L-529.6 -1.96H-520.48V2.54H-528.34C-529.1 2.54 -529.84 2.64 -530.56 2.84C-531.24 3 -531.7 3.2 -531.94 3.44ZM-531.94 3.44C-532.02 3 -532.2 2.48 -532.48 1.88C-532.72 1.28 -532.96 0.68 -533.2 0.079999C-533.44 -0.52 -533.66 -0.98 -533.86 -1.3C-533.38 -1.46 -532.9 -1.66 -532.42 -1.9C-531.94 -2.18 -531.46 -2.62 -530.98 -3.22C-530.54 -3.66 -529.92 -4.42 -529.12 -5.5C-528.32 -6.62 -527.46 -7.84 -526.54 -9.16C-525.62 -10.52 -524.76 -11.82 -523.96 -13.06C-523.12 -14.34 -522.46 -15.38 -521.98 -16.18V-16.36L-520.42 -17.02L-516.88 -15.52C-517.52 -14.48 -518.32 -13.26 -519.28 -11.86C-520.2 -10.5 -521.18 -9.08 -522.22 -7.6C-523.22 -6.12 -524.22 -4.7 -525.22 -3.34C-526.22 -1.98 -527.14 -0.820001 -527.98 0.139998C-527.98 0.139998 -528.18 0.259998 -528.58 0.499999C-528.98 0.699999 -529.44 0.979999 -529.96 1.34C-530.48 1.66 -530.94 2.02 -531.34 2.42C-531.74 2.78 -531.94 3.12 -531.94 3.44ZM-506.2 1.52V9.86H-488.44V1.52H-506.2ZM-511.66 -3.04H-482.68V14.42H-511.66V-3.04ZM-462.04 -20.98H-443.68V18.8H-462.04V13.7H-448.9V-15.94H-462.04V-20.98ZM-465.34 -20.98H-460.12V23.42H-465.34V-20.98ZM-462.28 -4.54H-446.26V0.379999H-462.28V-4.54ZM-456.46 -30.76L-450.28 -29.74C-450.92 -27.82 -451.6 -25.88 -452.32 -23.92C-453.04 -21.96 -453.7 -20.3 -454.3 -18.94L-458.8 -20.02C-458.52 -21.02 -458.22 -22.14 -457.9 -23.38C-457.58 -24.66 -457.3 -25.94 -457.06 -27.22C-456.78 -28.54 -456.58 -29.72 -456.46 -30.76ZM-435.4 -21.28H-417.4V-16.06H-435.4V-21.28ZM-419.38 -21.28H-414.1C-414.1 -21.28 -414.1 -21.1 -414.1 -20.74C-414.1 -20.42 -414.1 -20.04 -414.1 -19.6C-414.1 -19.16 -414.1 -18.82 -414.1 -18.58C-414.3 -11.74 -414.52 -5.94 -414.76 -1.18C-415 3.54 -415.28 7.42 -415.6 10.46C-415.88 13.5 -416.24 15.86 -416.68 17.54C-417.08 19.22 -417.58 20.44 -418.18 21.2C-418.94 22.2 -419.72 22.88 -420.52 23.24C-421.32 23.64 -422.3 23.92 -423.46 24.08C-424.5 24.2 -425.86 24.24 -427.54 24.2C-429.18 24.2 -430.86 24.16 -432.58 24.08C-432.62 23.28 -432.82 22.34 -433.18 21.26C-433.5 20.22 -433.94 19.32 -434.5 18.56C-432.54 18.72 -430.74 18.82 -429.1 18.86C-427.46 18.9 -426.26 18.92 -425.5 18.92C-424.9 18.92 -424.42 18.86 -424.06 18.74C-423.66 18.62 -423.28 18.36 -422.92 17.96C-422.44 17.4 -422.02 16.32 -421.66 14.72C-421.3 13.08 -420.98 10.78 -420.7 7.82C-420.42 4.82 -420.18 1.02 -419.98 -3.58C-419.74 -8.18 -419.54 -13.7 -419.38 -20.14V-21.28ZM-434.62 -30.76L-429.16 -29.5C-429.92 -26.54 -430.84 -23.62 -431.92 -20.74C-432.96 -17.86 -434.1 -15.14 -435.34 -12.58C-436.58 -10.06 -437.9 -7.84 -439.3 -5.92C-439.62 -6.24 -440.08 -6.6 -440.68 -7C-441.24 -7.44 -441.82 -7.86 -442.42 -8.26C-442.98 -8.66 -443.5 -8.98 -443.98 -9.22C-442.62 -10.94 -441.36 -12.96 -440.2 -15.28C-439 -17.6 -437.94 -20.08 -437.02 -22.72C-436.06 -25.4 -435.26 -28.08 -434.62 -30.76ZM-437.5 -4.9L-433.06 -7.42C-431.98 -6.06 -430.86 -4.54 -429.7 -2.86C-428.5 -1.22 -427.4 0.379999 -426.4 1.94C-425.36 3.5 -424.52 4.88 -423.88 6.08L-428.68 9.08C-429.24 7.84 -430.02 6.42 -431.02 4.82C-432.02 3.22 -433.08 1.56 -434.2 -0.160002C-435.32 -1.88 -436.42 -3.46 -437.5 -4.9ZM-385.72 -0.280002V3.92H-364.06V-0.280002H-385.72ZM-391.06 -3.94H-358.48V7.58H-391.06V-3.94ZM-395.08 10.64H-353.14V25.1H-358.72V14.66H-389.74V25.1H-395.08V10.64ZM-391.78 19.4H-356.38V23.54H-391.78V19.4ZM-400.18 -11.2H-349.3V0.0199997H-355V-6.82H-394.72V0.0199997H-400.18V-11.2ZM-379.84 -27.88L-375.22 -26.26C-376.14 -25.14 -377.08 -24.04 -378.04 -22.96C-378.96 -21.88 -379.8 -20.96 -380.56 -20.2L-383.92 -21.64C-383.2 -22.52 -382.46 -23.56 -381.7 -24.76C-380.9 -25.96 -380.28 -27 -379.84 -27.88ZM-390.76 -18.34L-387.4 -21.46C-386.32 -20.9 -385.16 -20.24 -383.92 -19.48C-382.64 -18.72 -381.42 -17.96 -380.26 -17.2C-379.1 -16.48 -378.12 -15.84 -377.32 -15.28L-380.8 -11.68C-381.56 -12.28 -382.5 -12.96 -383.62 -13.72C-384.74 -14.52 -385.94 -15.32 -387.22 -16.12C-388.46 -16.96 -389.64 -17.7 -390.76 -18.34ZM-389.68 -30.64H-384.7C-384.82 -27.92 -385.12 -25.5 -385.6 -23.38C-386.08 -21.26 -386.84 -19.4 -387.88 -17.8C-388.92 -16.2 -390.38 -14.82 -392.26 -13.66C-394.1 -12.54 -396.52 -11.58 -399.52 -10.78C-399.72 -11.38 -400.1 -12.1 -400.66 -12.94C-401.22 -13.78 -401.76 -14.42 -402.28 -14.86C-399.68 -15.46 -397.58 -16.2 -395.98 -17.08C-394.34 -17.96 -393.1 -19.02 -392.26 -20.26C-391.38 -21.5 -390.76 -22.98 -390.4 -24.7C-390.04 -26.42 -389.8 -28.4 -389.68 -30.64ZM-353.32 -28.06L-348.4 -26.32C-349.44 -25.16 -350.48 -24.02 -351.52 -22.9C-352.52 -21.78 -353.42 -20.82 -354.22 -20.02L-357.76 -21.52C-357 -22.44 -356.2 -23.52 -355.36 -24.76C-354.48 -26 -353.8 -27.1 -353.32 -28.06ZM-365.02 -18.28L-361.78 -21.7C-360.38 -21.02 -358.86 -20.24 -357.22 -19.36C-355.54 -18.48 -353.94 -17.6 -352.42 -16.72C-350.86 -15.84 -349.58 -15.06 -348.58 -14.38L-351.94 -10.48C-352.9 -11.16 -354.14 -11.96 -355.66 -12.88C-357.14 -13.8 -358.72 -14.74 -360.4 -15.7C-362.04 -16.66 -363.58 -17.52 -365.02 -18.28ZM-364.12 -30.64H-358.96C-359.12 -28 -359.44 -25.62 -359.92 -23.5C-360.36 -21.42 -361.1 -19.58 -362.14 -17.98C-363.18 -16.42 -364.64 -15.08 -366.52 -13.96C-368.4 -12.84 -370.82 -11.9 -373.78 -11.14C-374.02 -11.74 -374.42 -12.46 -374.98 -13.3C-375.54 -14.18 -376.08 -14.86 -376.6 -15.34C-374 -15.94 -371.92 -16.66 -370.36 -17.5C-368.76 -18.34 -367.54 -19.36 -366.7 -20.56C-365.82 -21.8 -365.2 -23.24 -364.84 -24.88C-364.48 -26.56 -364.24 -28.48 -364.12 -30.64ZM-400.78 -26.8L-397.36 -29.32C-396.52 -28.44 -395.64 -27.46 -394.72 -26.38C-393.76 -25.34 -393.04 -24.44 -392.56 -23.68L-396.1 -20.8C-396.58 -21.6 -397.28 -22.56 -398.2 -23.68C-399.08 -24.84 -399.94 -25.88 -400.78 -26.8ZM-375.22 -27.04L-371.86 -29.56C-371.02 -28.68 -370.14 -27.7 -369.22 -26.62C-368.26 -25.58 -367.52 -24.68 -367 -23.92L-370.6 -21.04C-371.08 -21.84 -371.78 -22.8 -372.7 -23.92C-373.58 -25.08 -374.42 -26.12 -375.22 -27.04ZM-379.42 4.88L-374.5 6.62C-375.14 7.78 -375.76 8.92 -376.36 10.04C-376.92 11.12 -377.44 12.08 -377.92 12.92L-381.88 11.42C-381.44 10.5 -380.98 9.42 -380.5 8.18C-380.02 6.9 -379.66 5.8 -379.42 4.88ZM-332.62 -24.82H-286.18V-20.92H-332.62V-24.82ZM-329.56 -18.46H-289.24V-14.86H-329.56V-18.46ZM-335.92 -12.16H-282.82V-8.2H-335.92V-12.16ZM-322.12 5.12H-297.7V8H-322.12V5.12ZM-312.4 -22.6H-306.58V-9.16H-312.4V-22.6ZM-324.76 -28.96L-319.72 -30.64C-318.96 -29.72 -318.22 -28.68 -317.5 -27.52C-316.74 -26.4 -316.14 -25.44 -315.7 -24.64L-320.98 -22.66C-321.34 -23.5 -321.9 -24.52 -322.66 -25.72C-323.38 -26.92 -324.08 -28 -324.76 -28.96ZM-299.5 -30.76L-293.32 -29.38C-294.16 -28.18 -294.98 -27.02 -295.78 -25.9C-296.58 -24.82 -297.34 -23.9 -298.06 -23.14L-302.86 -24.46C-302.26 -25.38 -301.64 -26.42 -301 -27.58C-300.36 -28.78 -299.86 -29.84 -299.5 -30.76ZM-298.48 -11.44C-297.36 -9.68 -295.9 -8 -294.1 -6.4C-292.3 -4.84 -290.28 -3.42 -288.04 -2.14C-285.8 -0.900002 -283.48 0.0799984 -281.08 0.799999C-281.68 1.32 -282.34 2.02 -283.06 2.9C-283.78 3.74 -284.34 4.52 -284.74 5.24C-287.22 4.28 -289.6 3.04 -291.88 1.52C-294.16 -1.19209e-06 -296.26 -1.72 -298.18 -3.64C-300.1 -5.6 -301.72 -7.66 -303.04 -9.82L-298.48 -11.44ZM-321.46 -0.52H-293.44V13.76H-321.46V10.52H-299.14V2.72H-321.46V-0.52ZM-320.74 -11.38L-315.46 -9.88C-316.82 -7.56 -318.5 -5.4 -320.5 -3.4C-322.46 -1.44 -324.6 0.339999 -326.92 1.94C-329.2 3.54 -331.52 4.92 -333.88 6.08C-334.16 5.72 -334.54 5.28 -335.02 4.76C-335.46 4.24 -335.94 3.72 -336.46 3.2C-336.98 2.68 -337.44 2.26 -337.84 1.94C-335.48 0.979999 -333.22 -0.160001 -331.06 -1.48C-328.9 -2.84 -326.94 -4.36 -325.18 -6.04C-323.38 -7.72 -321.9 -9.5 -320.74 -11.38ZM-318.1 -5.98H-300.7V-2.98H-318.1V-5.98ZM-326.68 25.22L-326.86 21.2L-324.7 19.46L-310.78 16.52C-310.78 17.2 -310.74 17.96 -310.66 18.8C-310.58 19.6 -310.48 20.26 -310.36 20.78C-313.64 21.54 -316.3 22.16 -318.34 22.64C-320.34 23.16 -321.9 23.58 -323.02 23.9C-324.1 24.22 -324.9 24.46 -325.42 24.62C-325.94 24.82 -326.36 25.02 -326.68 25.22ZM-326.68 25.22C-326.76 24.78 -326.94 24.26 -327.22 23.66C-327.5 23.1 -327.8 22.52 -328.12 21.92C-328.44 21.36 -328.74 20.92 -329.02 20.6C-328.5 20.28 -327.98 19.8 -327.46 19.16C-326.9 18.48 -326.62 17.5 -326.62 16.22V-0.52H-320.44V19.88C-320.44 19.88 -320.66 20 -321.1 20.24C-321.5 20.48 -322 20.8 -322.6 21.2C-323.2 21.6 -323.82 22.04 -324.46 22.52C-325.1 23 -325.64 23.46 -326.08 23.9C-326.48 24.38 -326.68 24.82 -326.68 25.22ZM-288.34 11.18L-284.74 14.12C-286.1 14.92 -287.56 15.7 -289.12 16.46C-290.68 17.22 -292.24 17.92 -293.8 18.56C-295.36 19.2 -296.82 19.76 -298.18 20.24L-300.76 17.84C-299.44 17.28 -298.02 16.62 -296.5 15.86C-294.98 15.1 -293.5 14.32 -292.06 13.52C-290.62 12.68 -289.38 11.9 -288.34 11.18ZM-311.14 17.06L-308.86 13.7C-306.94 14.22 -304.88 14.82 -302.68 15.5C-300.48 16.14 -298.28 16.82 -296.08 17.54C-293.88 18.22 -291.82 18.9 -289.9 19.58C-287.94 20.26 -286.26 20.88 -284.86 21.44L-287.2 25.34C-288.56 24.78 -290.2 24.14 -292.12 23.42C-294.04 22.74 -296.1 22.02 -298.3 21.26C-300.5 20.5 -302.72 19.76 -304.96 19.04C-307.16 18.32 -309.22 17.66 -311.14 17.06ZM-257.44 18.98H-226.78V23.24H-257.44V18.98ZM-268.66 -13.84H-218.62V-3.64H-224.44V-9.52H-263.2V-3.64H-268.66V-13.84ZM-257.74 -6.28H-226.06V6.38H-257.74V2.18H-231.64V-2.08H-257.74V-6.28ZM-257.44 9.92H-222.88V25.04H-228.52V14.18H-257.44V9.92ZM-261.76 -6.28H-256V25.1H-261.76V-6.28ZM-248.08 -17.5L-243.04 -18.52C-242.44 -17.68 -241.88 -16.7 -241.36 -15.58C-240.8 -14.5 -240.42 -13.54 -240.22 -12.7L-245.5 -11.56C-245.7 -12.32 -246.06 -13.26 -246.58 -14.38C-247.06 -15.5 -247.56 -16.54 -248.08 -17.5ZM-263.44 -26.62H-244.54V-22.18H-263.44V-26.62ZM-238.66 -26.62H-216.46V-22.18H-238.66V-26.62ZM-262.66 -31.18L-257.62 -29.68C-258.42 -27.8 -259.38 -25.92 -260.5 -24.04C-261.58 -22.16 -262.76 -20.38 -264.04 -18.7C-265.28 -17.06 -266.54 -15.62 -267.82 -14.38C-268.06 -14.7 -268.42 -15.1 -268.9 -15.58C-269.38 -16.06 -269.88 -16.54 -270.4 -17.02C-270.88 -17.54 -271.3 -17.94 -271.66 -18.22C-269.82 -19.82 -268.1 -21.76 -266.5 -24.04C-264.9 -26.32 -263.62 -28.7 -262.66 -31.18ZM-237.88 -31.12L-232.72 -29.8C-233.64 -27.4 -234.86 -25.08 -236.38 -22.84C-237.86 -20.64 -239.44 -18.8 -241.12 -17.32C-241.4 -17.64 -241.8 -18 -242.32 -18.4C-242.84 -18.84 -243.38 -19.28 -243.94 -19.72C-244.46 -20.16 -244.94 -20.5 -245.38 -20.74C-243.78 -22.02 -242.32 -23.56 -241 -25.36C-239.68 -27.2 -238.64 -29.12 -237.88 -31.12ZM-259.36 -20.32L-255.88 -23.2C-254.88 -22.4 -253.84 -21.48 -252.76 -20.44C-251.64 -19.4 -250.76 -18.48 -250.12 -17.68L-253.78 -14.44C-254.38 -15.24 -255.22 -16.2 -256.3 -17.32C-257.38 -18.44 -258.4 -19.44 -259.36 -20.32ZM-233.2 -20.02L-229.54 -23.02C-228.42 -22.22 -227.22 -21.26 -225.94 -20.14C-224.62 -19.06 -223.6 -18.1 -222.88 -17.26L-226.72 -13.9C-227.36 -14.74 -228.32 -15.74 -229.6 -16.9C-230.84 -18.1 -232.04 -19.14 -233.2 -20.02ZM-179.08 -12.04V-5.44H-158.56V-12.04H-179.08ZM-179.08 -23.14V-16.6H-158.56V-23.14H-179.08ZM-184.24 -28H-153.16V-0.580001H-184.24V-28ZM-184.78 5.6H-152.38V10.76H-184.78V5.6ZM-189.22 17.96H-150.4V23.12H-189.22V17.96ZM-206.14 -26.86H-186.88V-21.58H-206.14V-26.86ZM-205.54 -9.52H-187.78V-4.3H-205.54V-9.52ZM-206.8 13.34C-205.12 12.9 -203.22 12.36 -201.1 11.72C-198.98 11.08 -196.74 10.38 -194.38 9.62C-192.02 8.86 -189.66 8.1 -187.3 7.34L-186.34 12.74C-189.62 13.86 -192.94 14.98 -196.3 16.1C-199.66 17.22 -202.7 18.24 -205.42 19.16L-206.8 13.34ZM-199 -24.76H-193.6V12.26L-199 13.22V-24.76ZM-171.16 -25.78H-166.3V-2.92H-165.88V20.3H-171.64V-2.92H-171.16V-25.78ZM-137.08 -26.74H-89.5V-21.1H-137.08V-26.74ZM-140.26 -1.3H-86.02V4.4H-140.26V-1.3ZM-133.12 -17.14L-127.96 -18.64C-127.2 -17.28 -126.48 -15.8 -125.8 -14.2C-125.08 -12.64 -124.44 -11.1 -123.88 -9.58C-123.28 -8.1 -122.86 -6.78 -122.62 -5.62L-128.08 -3.82C-128.36 -4.98 -128.76 -6.32 -129.28 -7.84C-129.76 -9.36 -130.34 -10.94 -131.02 -12.58C-131.7 -14.22 -132.4 -15.74 -133.12 -17.14ZM-98.56 -18.88L-92.5 -17.26C-93.22 -15.7 -94 -14.1 -94.84 -12.46C-95.68 -10.82 -96.5 -9.24 -97.3 -7.72C-98.1 -6.24 -98.86 -4.92 -99.58 -3.76L-104.56 -5.32C-103.84 -6.52 -103.1 -7.9 -102.34 -9.46C-101.58 -11.06 -100.88 -12.68 -100.24 -14.32C-99.56 -16 -99 -17.52 -98.56 -18.88ZM-116.2 -24.46H-110.32V24.98H-116.2V-24.46ZM-64.72 16.34H-31.24V21.8H-64.72V16.34ZM-67.54 -0.82H-28.06V24.92H-34.12V4.64H-61.72V24.98H-67.54V-0.82ZM-42.28 -21.46L-37.84 -24.4C-35.96 -22.72 -33.98 -20.82 -31.9 -18.7C-29.82 -16.62 -27.9 -14.54 -26.14 -12.46C-24.34 -10.38 -22.92 -8.5 -21.88 -6.82L-26.74 -3.28C-27.7 -5 -29.04 -6.92 -30.76 -9.04C-32.48 -11.16 -34.36 -13.3 -36.4 -15.46C-38.4 -17.62 -40.36 -19.62 -42.28 -21.46ZM-70.18 -5.38C-70.26 -5.78 -70.42 -6.32 -70.66 -7C-70.86 -7.68 -71.08 -8.38 -71.32 -9.1C-71.56 -9.82 -71.8 -10.42 -72.04 -10.9C-71.28 -11.06 -70.52 -11.44 -69.76 -12.04C-69 -12.68 -68.12 -13.48 -67.12 -14.44C-66.56 -14.92 -65.76 -15.72 -64.72 -16.84C-63.68 -17.96 -62.52 -19.28 -61.24 -20.8C-59.96 -22.32 -58.66 -23.98 -57.34 -25.78C-56.02 -27.58 -54.8 -29.38 -53.68 -31.18L-47.98 -28.72C-49.82 -26.12 -51.8 -23.58 -53.92 -21.1C-56 -18.66 -58.12 -16.36 -60.28 -14.2C-62.4 -12.04 -64.52 -10.1 -66.64 -8.38V-8.2C-66.64 -8.2 -66.82 -8.1 -67.18 -7.9C-67.54 -7.74 -67.96 -7.5 -68.44 -7.18C-68.92 -6.9 -69.34 -6.6 -69.7 -6.28C-70.02 -5.96 -70.18 -5.66 -70.18 -5.38ZM-70.18 -5.38L-70.24 -9.82L-66.22 -11.92L-28.54 -13.42C-28.5 -12.66 -28.42 -11.78 -28.3 -10.78C-28.18 -9.78 -28.06 -8.98 -27.94 -8.38C-33.86 -8.06 -38.96 -7.78 -43.24 -7.54C-47.52 -7.34 -51.14 -7.16 -54.1 -7C-57.02 -6.84 -59.44 -6.68 -61.36 -6.52C-63.24 -6.4 -64.76 -6.28 -65.92 -6.16C-67.04 -6.08 -67.92 -5.98 -68.56 -5.86C-69.16 -5.74 -69.7 -5.58 -70.18 -5.38Z" fill="#2A2324"/>
<path d="M30.128 12.6747C29.37 15.6801 37.8239 22.3315 46.9483 20.6317C53.7697 19.3507 59.1919 13.734 57.88 11.0734C55.6062 6.36815 31.3232 8.06795 30.128 12.6747Z" fill="#AAA6A8"/>
<path d="M19.1379 2.77142C14.7652 -0.923808 7.65223 -0.923808 3.27953 2.77142C-1.09318 6.46665 -1.09318 12.4776 3.27953 16.1728C7.65223 19.868 14.7652 19.868 19.1379 16.1728C23.5397 12.4529 23.5397 6.46665 19.1379 2.77142ZM17.6803 14.9164C14.0947 17.9465 8.32271 17.9219 4.73709 14.9164L17.6803 3.97853C21.2659 7.00862 21.2659 11.911 17.6803 14.9164Z" fill="#AAA6A8"/>
<path d="M84.7282 2.77142C80.3555 -0.923808 73.2426 -0.923808 68.8699 2.77142C64.4972 6.46665 64.4972 12.4776 68.8699 16.1728C73.2426 19.868 80.3555 19.868 84.7282 16.1728C89.1301 12.4529 89.1301 6.46665 84.7282 2.77142ZM83.2706 14.9164C79.685 17.9465 73.913 17.9219 70.3274 14.9164L83.2706 3.97853C86.8562 7.00862 86.8562 11.911 83.2706 14.9164Z" fill="#AAA6A8"/>
</g>
<defs>
<clipPath id="clip0_1099_1172">
<rect width="1920" height="7304" fill="white" transform="translate(-898 -499)"/>
</clipPath>
</defs>
</svg>
