<svg width="403" height="358" viewBox="0 0 403 358" fill="none" xmlns="http://www.w3.org/2000/svg">
<g filter="url(#filter0_d_4398_1987)">
<path fill-rule="evenodd" clip-rule="evenodd" d="M60 15C35.1472 15 15 35.1472 15 60V270C15 294.853 35.1472 315 60 315H235C246.046 315 255 306.046 255 295C255 245.294 295.294 205 345 205C356.046 205 365 196.046 365 185V60C365 35.1472 344.853 15 320 15H60Z" fill="url(#paint0_linear_4398_1987)" fill-opacity="0.77" shape-rendering="crispEdges"/>
</g>
<g filter="url(#filter1_d_4398_1987)">
<rect x="290" y="241" width="83" height="83" rx="41.5" fill="url(#paint1_linear_4398_1987)" fill-opacity="0.77" shape-rendering="crispEdges"/>
<path d="M331.468 299.468C330.1 299.468 328.888 299.3 327.832 298.964C326.8 298.628 325.888 298.184 325.096 297.632C324.304 297.08 323.62 296.48 323.044 295.832L324.736 293.708C325.504 294.5 326.404 295.208 327.436 295.832C328.492 296.432 329.764 296.732 331.252 296.732C332.308 296.732 333.232 296.54 334.024 296.156C334.84 295.748 335.476 295.184 335.932 294.464C336.388 293.72 336.616 292.844 336.616 291.836C336.616 290.78 336.352 289.856 335.824 289.064C335.32 288.272 334.468 287.66 333.268 287.228C332.068 286.772 330.448 286.544 328.408 286.544V284.024C330.232 284.024 331.672 283.808 332.728 283.376C333.784 282.92 334.54 282.308 334.996 281.54C335.476 280.772 335.716 279.92 335.716 278.984C335.716 277.712 335.32 276.704 334.528 275.96C333.736 275.192 332.644 274.808 331.252 274.808C330.196 274.808 329.2 275.048 328.264 275.528C327.352 276.008 326.524 276.62 325.78 277.364L324.016 275.276C325.024 274.364 326.116 273.62 327.292 273.044C328.492 272.444 329.848 272.144 331.36 272.144C332.848 272.144 334.168 272.408 335.32 272.936C336.496 273.44 337.408 274.184 338.056 275.168C338.728 276.152 339.064 277.34 339.064 278.732C339.064 280.34 338.632 281.672 337.768 282.728C336.904 283.784 335.776 284.564 334.384 285.068V285.248C335.416 285.488 336.352 285.908 337.192 286.508C338.032 287.108 338.704 287.864 339.208 288.776C339.712 289.688 339.964 290.744 339.964 291.944C339.964 293.504 339.58 294.848 338.812 295.976C338.044 297.104 337.024 297.968 335.752 298.568C334.48 299.168 333.052 299.468 331.468 299.468Z" fill="white"/>
</g>
<defs>
<filter id="filter0_d_4398_1987" x="0" y="0" width="380" height="330" filterUnits="userSpaceOnUse" color-interpolation-filters="sRGB">
<feFlood flood-opacity="0" result="BackgroundImageFix"/>
<feColorMatrix in="SourceAlpha" type="matrix" values="0 0 0 0 0 0 0 0 0 0 0 0 0 0 0 0 0 0 127 0" result="hardAlpha"/>
<feOffset/>
<feGaussianBlur stdDeviation="7.5"/>
<feComposite in2="hardAlpha" operator="out"/>
<feColorMatrix type="matrix" values="0 0 0 0 0 0 0 0 0 0 0 0 0 0 0 0 0 0 0.25 0"/>
<feBlend mode="normal" in2="BackgroundImageFix" result="effect1_dropShadow_4398_1987"/>
<feBlend mode="normal" in="SourceGraphic" in2="effect1_dropShadow_4398_1987" result="shape"/>
</filter>
<filter id="filter1_d_4398_1987" x="260" y="215" width="143" height="143" filterUnits="userSpaceOnUse" color-interpolation-filters="sRGB">
<feFlood flood-opacity="0" result="BackgroundImageFix"/>
<feColorMatrix in="SourceAlpha" type="matrix" values="0 0 0 0 0 0 0 0 0 0 0 0 0 0 0 0 0 0 127 0" result="hardAlpha"/>
<feOffset dy="4"/>
<feGaussianBlur stdDeviation="15"/>
<feComposite in2="hardAlpha" operator="out"/>
<feColorMatrix type="matrix" values="0 0 0 0 0 0 0 0 0 0 0 0 0 0 0 0 0 0 0.25 0"/>
<feBlend mode="normal" in2="BackgroundImageFix" result="effect1_dropShadow_4398_1987"/>
<feBlend mode="normal" in="SourceGraphic" in2="effect1_dropShadow_4398_1987" result="shape"/>
</filter>
<linearGradient id="paint0_linear_4398_1987" x1="64.5" y1="290" x2="323" y2="78.5" gradientUnits="userSpaceOnUse">
<stop stop-color="#3DCE94"/>
<stop offset="1" stop-color="#F9FFFA"/>
</linearGradient>
<linearGradient id="paint1_linear_4398_1987" x1="332" y1="295" x2="420.5" y2="197.5" gradientUnits="userSpaceOnUse">
<stop stop-color="#3DCE94"/>
<stop offset="1" stop-color="#F9FFFA"/>
</linearGradient>
</defs>
</svg>
