<svg width="256" height="91" viewBox="0 0 256 91" fill="none" xmlns="http://www.w3.org/2000/svg">
<path d="M9.44 90.16C7.584 90.16 5.952 90.032 4.544 89.776C3.136 89.584 1.92 89.36 0.896 89.104V77.008C1.92 77.264 3.008 77.488 4.16 77.68C5.248 77.872 6.432 77.968 7.712 77.968C9.376 77.968 10.88 77.648 12.224 77.008C13.632 76.368 14.72 75.152 15.488 73.36C16.256 71.568 16.64 69.008 16.64 65.68V1.456H31.136V65.584C31.136 71.472 30.208 76.208 28.352 79.792C26.56 83.44 24.032 86.064 20.768 87.664C17.504 89.328 13.728 90.16 9.44 90.16ZM99.0133 70L93.7333 53.872H69.5413L64.2613 70H48.4212L72.5173 1.168H90.5653L114.853 70H99.0133ZM85.5733 26.704C85.3173 25.744 84.9013 24.304 84.3253 22.384C83.8133 20.464 83.3013 18.512 82.7893 16.528C82.2773 14.48 81.8613 12.816 81.5413 11.536C81.2853 13.008 80.9013 14.704 80.3892 16.624C79.9412 18.544 79.4932 20.4 79.0452 22.192C78.5972 23.984 78.2133 25.488 77.8933 26.704L72.9973 41.584H90.3733L85.5733 26.704ZM172.586 50.992C172.586 55.024 171.594 58.544 169.61 61.552C167.626 64.56 164.746 66.896 160.97 68.56C157.258 70.16 152.714 70.96 147.338 70.96C144.97 70.96 142.634 70.8 140.33 70.48C138.09 70.16 135.914 69.712 133.802 69.136C131.754 68.496 129.802 67.728 127.946 66.832V53.296C131.21 54.704 134.57 56.016 138.026 57.232C141.546 58.384 145.034 58.96 148.49 58.96C150.858 58.96 152.746 58.64 154.154 58C155.626 57.36 156.682 56.496 157.322 55.408C158.026 54.32 158.378 53.072 158.378 51.664C158.378 49.936 157.77 48.464 156.554 47.248C155.402 46.032 153.834 44.912 151.85 43.888C149.866 42.8 147.594 41.648 145.034 40.432C143.434 39.664 141.706 38.768 139.85 37.744C137.994 36.656 136.202 35.344 134.474 33.808C132.81 32.208 131.434 30.288 130.346 28.048C129.258 25.808 128.714 23.12 128.714 19.984C128.714 15.888 129.642 12.4 131.498 9.51999C133.418 6.57599 136.106 4.33599 139.562 2.8C143.082 1.264 147.21 0.495996 151.946 0.495996C155.53 0.495996 158.922 0.911997 162.122 1.744C165.386 2.576 168.778 3.76 172.298 5.296L167.594 16.624C164.458 15.344 161.642 14.352 159.146 13.648C156.65 12.944 154.09 12.592 151.466 12.592C149.674 12.592 148.138 12.88 146.858 13.456C145.578 14.032 144.586 14.832 143.882 15.856C143.242 16.88 142.922 18.096 142.922 19.504C142.922 21.104 143.402 22.48 144.362 23.632C145.322 24.72 146.762 25.776 148.682 26.8C150.602 27.824 153.002 29.04 155.882 30.448C159.402 32.112 162.378 33.84 164.81 35.632C167.306 37.424 169.226 39.536 170.57 41.968C171.914 44.4 172.586 47.408 172.586 50.992ZM255.605 35.632C255.605 40.944 254.933 45.776 253.589 50.128C252.309 54.416 250.325 58.128 247.637 61.264C245.013 64.4 241.653 66.8 237.557 68.464C233.461 70.128 228.597 70.96 222.965 70.96C217.397 70.96 212.533 70.128 208.373 68.464C204.277 66.8 200.885 64.4 198.197 61.264C195.573 58.128 193.589 54.416 192.245 50.128C190.965 45.776 190.325 40.912 190.325 35.536C190.325 28.432 191.477 22.256 193.781 17.008C196.149 11.76 199.733 7.696 204.533 4.816C209.397 1.872 215.573 0.399998 223.061 0.399998C230.485 0.399998 236.597 1.872 241.397 4.816C246.261 7.696 249.845 11.792 252.149 17.104C254.453 22.352 255.605 28.528 255.605 35.632ZM205.781 35.632C205.781 40.368 206.357 44.464 207.509 47.92C208.725 51.376 210.613 54.032 213.173 55.888C215.733 57.68 218.997 58.576 222.965 58.576C227.061 58.576 230.357 57.68 232.853 55.888C235.413 54.032 237.269 51.376 238.421 47.92C239.573 44.464 240.149 40.368 240.149 35.632C240.149 28.464 238.837 22.832 236.213 18.736C233.589 14.64 229.205 12.592 223.061 12.592C219.029 12.592 215.733 13.52 213.173 15.376C210.613 17.232 208.725 19.888 207.509 23.344C206.357 26.736 205.781 30.832 205.781 35.632Z" fill="#3DCE94"/>
</svg>
