<svg width="260" height="351" viewBox="0 0 260 351" fill="none" xmlns="http://www.w3.org/2000/svg">
<path d="M233.987 141.342C205.637 97.3525 177.287 56.5325 148.937 10.8525C139.957 -3.6175 120.117 -3.6175 111.137 10.8525C82.7868 56.5325 54.4368 97.3525 26.0868 141.342C-18.8432 211.062 -2.85324 285.182 63.3368 331.663C83.2368 345.633 105.967 350.483 130.047 350.483C154.127 350.483 176.857 345.633 196.757 331.663C262.927 285.182 278.917 211.062 233.987 141.342Z" fill="url(#paint0_radial_1801_947)"/>
<path d="M129.527 174.793C121.847 174.793 116.927 167.413 116.327 166.473C115.317 164.883 115.787 162.763 117.387 161.753C118.987 160.743 121.097 161.213 122.107 162.813C122.267 163.063 126.037 168.963 130.847 167.783C133.897 167.053 136.417 163.773 137.747 160.943C138.557 159.233 140.587 158.493 142.307 159.313C144.017 160.123 144.747 162.163 143.937 163.873C142.687 166.523 139.057 172.853 132.447 174.443C131.437 174.683 130.457 174.793 129.527 174.793Z" fill="#DCE7EA"/>
<path d="M91.547 173.343C98.817 173.343 104.697 167.453 104.697 160.193H78.397C78.397 167.453 84.287 173.343 91.547 173.343Z" fill="#DCE7EA"/>
<path d="M168.507 173.343C175.777 173.343 181.657 167.453 181.657 160.193H155.357C155.357 167.453 161.247 173.343 168.507 173.343Z" fill="#DCE7EA"/>
<defs>
<radialGradient id="paint0_radial_1801_947" cx="0" cy="0" r="1" gradientUnits="userSpaceOnUse" gradientTransform="translate(130.03 175.241) scale(154.024 205.068)">
<stop stop-color="#6C635D"/>
<stop offset="0.346" stop-color="#5C5551"/>
<stop offset="1" stop-color="#333333"/>
</radialGradient>
</defs>
</svg>
