<svg xmlns="http://www.w3.org/2000/svg" width="89" height="21" fill="none" viewBox="0 0 89 21"><path fill="#f5f5f5" d="M0 0h89v21H0Z"/><g clip-path="url(#clip0_1099_1172)"><path fill="#fff" d="M-898-499h1920v7304H-898Z"/><path fill="#2a2324" d="M-276.618-81.54h53.16v5.04h-53.16Zm26.76 10.74h22.5v4.98h-22.5Zm-2.52-8.34h5.7v22.5h-5.7Zm-10.68 9.66q1.74 4.68 4.86 7.08t7.56 3.24q4.44.78 10.08.78h15.42q1.98-.06 3.06-.06-.42.6-.84 1.56-.36 1.02-.66 2.04t-.48 1.8h-16.8q-5.22 0-9.42-.6t-7.5-2.22q-3.24-1.56-5.76-4.44-2.46-2.88-4.26-7.5Zm-3.72-5.4 5.64.84q-1.44 7.44-4.68 13.02t-8.22 9.18q-.42-.6-1.2-1.38-.72-.72-1.62-1.5-.84-.72-1.44-1.14 4.68-2.94 7.5-7.8 2.88-4.86 4.02-11.22m1.68-18.42v4.08h29.64v-4.08Zm0-7.92v4.02h29.64v-4.02Zm-5.52-4.14h40.92v20.34h-40.92Zm58.62 35.7h54.66v4.56h-54.66Zm1.68-33.66h50.7v4.38h-50.7Zm33.48 29.94h5.52v15.72q0 2.04-.54 3.18-.54 1.2-2.16 1.74-1.56.54-4.02.66t-6 .12q-.18-1.08-.72-2.52-.48-1.38-1.02-2.4 1.68.06 3.24.06 1.56.06 2.76 0h1.68q.78-.06 1.02-.24.24-.24.24-.78Zm-10.74-34.2h5.58v32.22h-5.58Zm-14.88 44.82 3.96-3.3q1.68 1.02 3.54 2.4 1.86 1.32 3.54 2.7 1.68 1.32 2.7 2.46l-4.2 3.72q-.96-1.2-2.58-2.64-1.56-1.44-3.42-2.82-1.8-1.38-3.54-2.52m2.16-23.22v3.12h31.38v-3.12Zm0-6.48v3h31.38v-3Zm-5.28-3.6h42.24v16.8h-42.24Zm29.58 17.94 3.36-2.7q2.34.78 4.74 2.04 2.46 1.2 4.68 2.52 2.22 1.26 3.66 2.4l-3.42 3.06q-1.44-1.26-3.6-2.58-2.16-1.38-4.62-2.64t-4.8-2.1m-33.54 1.8h9.3q5.22-.06 11.1-.06l12.18-.12q6.24-.06 12.42-.18l-.24 3.66q-7.98.18-16.08.42-8.1.18-15.42.3t-13.08.18Zm72.54.48h40.74v4.92h-40.74Zm-7.92-21.78h39.42v5.16h-39.42Zm17.22 10.92h27.42v4.98h-27.42Zm29.16 10.86h5.7l-.06.48q0 .42-.06.96t-.12.9q-.48 6.18-1.08 10.14-.54 3.96-1.32 6.18-.72 2.22-1.68 3.24-.9 1.02-1.98 1.38-1.02.42-2.4.54-1.2.12-3.3.12-2.04 0-4.32-.06-.06-1.2-.54-2.7-.42-1.44-1.08-2.52 2.16.18 4.02.24t2.7.06q.78 0 1.26-.12.54-.12 1.02-.54.66-.66 1.2-2.52.54-1.92 1.08-5.52.54-3.66.96-9.42Zm-13.08 7.68 3.96-1.38q1.32 1.8 2.52 4.08 1.2 2.22 1.74 3.84l-4.2 1.68q-.48-1.68-1.62-3.96-1.14-2.34-2.4-4.26m-26.22-37.38 5.04-2.04q1.74 1.74 3.42 4.02 1.74 2.28 2.64 3.96l-5.4 2.34q-.72-1.74-2.4-4.08a41.5 41.5 0 0 0-3.3-4.2m8.28 38.94 4.62-.6q.9 2.88 1.32 6.3.48 3.36.48 5.88l-4.92.66q.06-1.62-.12-3.72-.18-2.16-.54-4.32a32.5 32.5 0 0 0-.84-4.2m8.94-.54 4.38-1.02q1.2 2.52 2.1 5.46.96 2.88 1.32 5.04l-4.62 1.2q-.3-2.16-1.26-5.16-.9-3-1.92-5.52m-16.74-1.08 4.74 1.56q-.66 2.52-1.56 5.16t-2.22 4.98q-1.32 2.4-3.12 4.26l-4.38-3.06q1.62-1.56 2.88-3.66 1.26-2.16 2.16-4.56.96-2.4 1.5-4.68m17.88-39.48 5.76 1.44q-1.98 6.3-4.86 12.42-2.82 6.06-6.6 11.58a62.7 62.7 0 0 1-8.64 10.14q-4.86 4.62-10.98 8.1-.36-.72-.9-1.62t-1.14-1.74q-.54-.9-1.08-1.5 5.64-3.06 10.2-7.32a58 58 0 0 0 8.04-9.42q3.48-5.1 6-10.68a78.4 78.4 0 0 0 4.2-11.4m12.84 10.08h5.28q-.66 3.24-1.44 6.78-.78 3.48-1.44 6.06l-5.04-.78q.72-2.46 1.44-5.76t1.2-6.3m4.2 10.92h5.28q-.6 3.24-1.38 6.78-.72 3.48-1.38 5.94l-5.04-.66q.66-2.46 1.38-5.76.72-3.36 1.14-6.3m58.98 13.14 4.2-2.58q2.04 1.32 4.26 3 2.22 1.62 4.2 3.36 2.04 1.68 3.3 3.06l-4.5 3q-1.14-1.44-3.06-3.18a76 76 0 0 0-4.14-3.48 69 69 0 0 0-4.26-3.18m-2.52 11.88 4.14-3q2.4 1.14 5.16 2.64t5.28 3.06q2.58 1.56 4.26 2.88l-4.38 3.42q-1.56-1.32-4.02-2.94a90 90 0 0 0-5.22-3.18q-2.7-1.62-5.22-2.88m-21.06-2.94 5.22 2.04q-1.98 1.86-4.62 3.72a59 59 0 0 1-5.46 3.42q-2.76 1.62-5.4 2.76-.42-.54-1.2-1.32-.78-.72-1.62-1.44-.78-.72-1.44-1.14 3.96-1.5 7.92-3.6 4.02-2.1 6.6-4.44m10.2-43.08h5.7v21.36h-5.7Zm-21.18 3.96h48.54v4.2h-48.54Zm3.24 7.38h41.94v4.14h-41.94Zm-6.24 7.38h54.42v4.38h-54.42Zm4.02 24.48q-.12-.54-.36-1.38t-.48-1.8-.48-1.62q1.68-.18 3.72-.72t4.8-1.44q1.26-.42 3.54-1.2 2.28-.84 5.22-1.98 3-1.14 6.3-2.58t6.6-3.06q3.36-1.62 6.3-3.3l3.9 3.54q-8.58 4.5-17.76 7.86-9.12 3.3-18 5.52v.24l-.54.18q-.48.12-1.14.42-.66.24-1.14.6t-.48.72m0 0-.12-3.42 3.3-1.68 38.52-1.74q.12.9.3 2.04.24 1.08.48 1.74-9.18.54-15.72.9t-11.04.66q-4.5.24-7.32.42t-4.5.36q-1.62.12-2.52.3-.84.18-1.38.42m4.32-9.84q-.12-.54-.36-1.38t-.54-1.74-.54-1.56q.96-.12 1.98-.42 1.08-.3 2.34-.78.96-.36 3-1.26 2.04-.96 4.5-2.28 2.52-1.32 4.74-2.82l3.84 3.12a71 71 0 0 1-7.8 3.9 72 72 0 0 1-8.04 2.94v.12l-.48.18q-.48.18-1.08.54-.6.3-1.08.66t-.48.78m0 0-.06-3.12 2.64-1.44 22.62-.96q-.24.78-.48 1.86t-.3 1.8q-6.12.3-10.26.54-4.14.18-6.72.36t-4.08.36q-1.44.12-2.16.24t-1.2.36m17.04 5.04h5.52v11.28q0 2.04-.6 3.24-.54 1.2-2.22 1.8-1.62.6-4.02.72-2.34.18-5.7.18-.18-1.26-.78-2.76-.6-1.44-1.26-2.52 1.74.06 3.36.12h4.5q.72-.06.96-.24t.24-.72Zm53.22-12.66h27.72v3.78h-27.72Zm33.96 10.26 4.26 3.36q-3.3 2.4-7.2 4.68-3.84 2.22-7.14 3.78L17.982-63q2.16-1.08 4.62-2.52 2.52-1.5 4.86-3.12 2.4-1.62 4.08-3.06m-34.2-18h31.44v19.26h-31.44v-4.2h25.74V-85.5h-25.74Zm15.84-15.84q2.16 2.16 5.22 4.2t6.66 3.9q3.66 1.8 7.44 3.3 3.84 1.44 7.5 2.4-.66.54-1.38 1.44-.72.84-1.38 1.74-.6.9-1.02 1.62-3.6-1.14-7.38-2.82-3.78-1.74-7.44-3.84a79 79 0 0 1-6.9-4.56q-3.24-2.46-5.76-4.98Zm-2.58-2.64 5.1 2.46q-3.3 4.2-7.8 7.74t-9.78 6.3q-5.22 2.76-10.74 4.68-.54-1.02-1.56-2.34t-1.98-2.28q5.22-1.56 10.32-4.02t9.36-5.64q4.32-3.24 7.08-6.9m-16.62 55.86q-.18-.6-.66-1.38-.42-.78-.9-1.56t-.96-1.2q.84-.54 1.68-1.62.84-1.14.84-3.12v-28.5h5.58v32.04l-.54.36q-.54.36-1.38.96l-1.68 1.32q-.84.72-1.44 1.44-.54.72-.54 1.26m0 0-.18-4.32 2.88-1.86 17.34-2.52q-.12 1.14-.12 2.52t.06 2.28q-6 1.02-9.72 1.62-3.66.66-5.7 1.02-2.04.42-3 .66-.96.3-1.56.6m14.1-13.44 3.72-3.3q2.82 1.38 5.94 3.06 3.18 1.68 6.3 3.48 3.18 1.74 5.88 3.42 2.76 1.68 4.74 3.12l-4.02 3.84q-1.86-1.44-4.5-3.18a151 151 0 0 0-5.76-3.6q-3.06-1.86-6.24-3.6t-6.06-3.24M3.342-95.7h16.56v3.9H3.342Zm46.68 6.84h53.76v5.04h-53.76Zm5.28-11.7h34.56v4.98h-34.56Zm10.08 32.16h27.6v4.44h-27.6Zm0 9.78h27.6v4.8h-27.6Zm4.74-49.02h5.64v21.54h-5.64Zm26.34 1.92 4.86 2.58q-5.88 7.98-13.74 14.64a114 114 0 0 1-16.92 11.76q-9.06 5.1-18.66 8.76-.36-.66-1.02-1.5-.6-.9-1.32-1.74-.66-.9-1.2-1.44 9.72-3.3 18.66-8.16t16.44-11.16 12.9-13.74m-34.2 27.6h34.32v25.98h-5.88v-21.24h-22.8v21.48h-5.64ZM-598.78.56q2.88-.66 6.54-1.62t7.74-2.04q4.14-1.14 8.16-2.16l.72 5.34q-5.58 1.62-11.28 3.24t-10.26 2.88Zm.54-19.38h21.84v5.4h-21.84Zm8.52-11.82h5.7v48.72q0 2.22-.54 3.42-.54 1.26-1.92 1.92-1.32.66-3.42.84-2.1.24-5.28.24-.12-1.14-.66-2.7-.48-1.56-1.08-2.7 1.98.06 3.66.12 1.74 0 2.34-.06 1.2 0 1.2-1.14Zm13.98 4.8h32.64v5.7h-32.64Zm16.26 2.04h6.12v41.04q0 2.64-.72 4.08-.72 1.5-2.52 2.28-1.86.72-4.8.9t-7.2.18q-.12-.84-.54-1.98-.36-1.14-.84-2.28-.42-1.08-.9-1.92 2.04.12 4.02.18h5.76q.9-.06 1.26-.36.36-.36.36-1.14Zm50.28.36h27.78v4.86h-27.78Zm-6.96 11.4h37.14v4.86h-37.14Zm7.56-17.88 5.16 1.14q-1.5 4.56-3.84 8.82-2.28 4.2-4.86 7.08-.54-.42-1.38-.9t-1.74-.96-1.56-.78q2.7-2.64 4.8-6.48 2.16-3.9 3.42-7.92m8.52-.72h5.64V-8.8h-5.64Zm-30.9 2.58 4.2-2.58q1.44 1.44 2.88 3.12 1.5 1.68 2.82 3.24t2.16 2.76l-4.32 3.12q-.84-1.26-2.16-2.94a65 65 0 0 0-2.76-3.42q-1.44-1.8-2.82-3.3m-1.92 11.34h12.48v4.62h-12.48Zm11.4 26.88q1.74 3.96 4.8 5.88t7.44 2.52q4.44.6 10.14.6 3.18 0 7.08-.12t7.86-.3 7.14-.48q-.42.6-.78 1.56t-.66 1.98q-.24 1.02-.42 1.8-2.94.18-6.36.3t-6.96.18-6.96.06q-5.28 0-9.42-.48-4.08-.48-7.26-1.74-3.12-1.26-5.46-3.66-2.34-2.46-4.02-6.48Zm-.54-12.12h1.32l.96-.12 2.76 1.02q-1.5 9.72-5.04 16.26-3.48 6.48-8.52 9.96-.36-.6-1.02-1.38-.66-.72-1.38-1.44-.72-.66-1.26-1.02 4.68-3.06 7.86-8.64 3.18-5.64 4.32-13.68Zm-9.9 5.4v-4.2l2.34-1.2h9.12v4.5h-7.86q-1.14 0-2.22.3-1.02.24-1.38.6m0 0q-.12-.66-.54-1.56l-.72-1.8q-.36-.9-.66-1.38.72-.24 1.44-.6.72-.42 1.44-1.32.66-.66 1.86-2.28 1.2-1.68 2.58-3.66 1.38-2.04 2.58-3.9 1.26-1.92 1.98-3.12v-.18l1.56-.66 3.54 1.5q-.96 1.56-2.4 3.66-1.38 2.04-2.94 4.26-1.5 2.22-3 4.26t-2.76 3.48l-.6.36q-.6.3-1.38.84-.78.48-1.38 1.08-.6.54-.6 1.02m25.74-1.92v8.34h17.76V1.52Zm-5.46-4.56h28.98v17.46h-28.98Zm49.62-17.94h18.36V18.8h-18.36v-5.1h13.14v-29.64h-13.14Zm-3.3 0h5.22v44.4h-5.22Zm3.06 16.44h16.02V.38h-16.02Zm5.82-26.22 6.18 1.02q-.96 2.88-2.04 5.82t-1.98 4.98l-4.5-1.08q.42-1.5.9-3.36.48-1.92.84-3.84.42-1.98.6-3.54m21.06 9.48h18v5.22h-18Zm16.02 0h5.28v2.7q-.3 10.26-.66 17.4-.36 7.08-.84 11.64-.42 4.56-1.08 7.08-.6 2.52-1.5 3.66-1.14 1.5-2.34 2.04-1.2.6-2.94.84-1.56.18-4.08.12-2.46 0-5.04-.12-.06-1.2-.6-2.82-.48-1.56-1.32-2.7 2.94.24 5.4.3t3.6.06q.9 0 1.44-.18.6-.18 1.14-.78.72-.84 1.26-3.24.54-2.46.96-6.9.42-4.5.72-11.4.36-6.9.6-16.56Zm-15.24-9.48 5.46 1.26q-1.14 4.44-2.76 8.76a85 85 0 0 1-3.42 8.16q-1.86 3.78-3.96 6.66-.48-.48-1.38-1.08-.84-.66-1.74-1.26-.84-.6-1.56-.96 2.04-2.58 3.78-6.06 1.8-3.48 3.18-7.44 1.44-4.02 2.4-8.04M-437.5-4.9l4.44-2.52q1.62 2.04 3.36 4.56 1.8 2.46 3.3 4.8 1.56 2.34 2.52 4.14l-4.8 3q-.84-1.86-2.34-4.26t-3.18-4.98-3.3-4.74m51.78 4.62v4.2h21.66v-4.2Zm-5.34-3.66h32.58V7.58h-32.58Zm-4.02 14.58h41.94V25.1h-5.58V14.66h-31.02V25.1h-5.34Zm3.3 8.76h35.4v4.14h-35.4Zm-8.4-30.6h50.88V.02h-5.7v-6.84h-39.72V.02h-5.46Zm20.34-16.68 4.62 1.62q-1.38 1.68-2.82 3.3-1.38 1.62-2.52 2.76l-3.36-1.44q1.08-1.32 2.22-3.12 1.2-1.8 1.86-3.12m-10.92 9.54 3.36-3.12q1.62.84 3.48 1.98 1.92 1.14 3.66 2.28 1.74 1.08 2.94 1.92l-3.48 3.6a49 49 0 0 0-2.82-2.04q-1.68-1.2-3.6-2.4-1.86-1.26-3.54-2.22m1.08-12.3h4.98q-.18 4.08-.9 7.26t-2.28 5.58-4.38 4.14q-2.76 1.68-7.26 2.88-.3-.9-1.14-2.16t-1.62-1.92q3.9-.9 6.3-2.22 2.46-1.32 3.72-3.18 1.32-1.86 1.86-4.44t.72-5.94m36.36 2.58 4.92 1.74q-1.56 1.74-3.12 3.42-1.5 1.68-2.7 2.88l-3.54-1.5q1.14-1.38 2.4-3.24 1.32-1.86 2.04-3.3m-11.7 9.78 3.24-3.42q2.1 1.02 4.56 2.34 2.52 1.32 4.8 2.64 2.34 1.32 3.84 2.34l-3.36 3.9q-1.44-1.02-3.72-2.4-2.22-1.38-4.74-2.82-2.46-1.44-4.62-2.58m.9-12.36h5.16q-.24 3.96-.96 7.14-.66 3.12-2.22 5.52-1.56 2.34-4.38 4.02t-7.26 2.82q-.36-.9-1.2-2.16-.84-1.32-1.62-2.04 3.9-.9 6.24-2.16 2.4-1.26 3.66-3.06 1.32-1.86 1.86-4.32.54-2.52.72-5.76m-36.66 3.84 3.42-2.52q1.26 1.32 2.64 2.94 1.44 1.56 2.16 2.7l-3.54 2.88q-.72-1.2-2.1-2.88-1.32-1.74-2.58-3.12m25.56-.24 3.36-2.52q1.26 1.32 2.64 2.94 1.44 1.56 2.22 2.7l-3.6 2.88q-.72-1.2-2.1-2.88-1.32-1.74-2.52-3.12m-4.2 31.92 4.92 1.74q-.96 1.74-1.86 3.42-.84 1.62-1.56 2.88l-3.96-1.5q.66-1.38 1.38-3.24.72-1.92 1.08-3.3m46.8-29.7h46.44v3.9h-46.44Zm3.06 6.36h40.32v3.6h-40.32Zm-6.36 6.3h53.1v3.96h-53.1Zm13.8 17.28h24.42V8h-24.42Zm9.72-27.72h5.82v13.44h-5.82Zm-12.36-6.36 5.04-1.68q1.14 1.38 2.22 3.12 1.14 1.68 1.8 2.88l-5.28 1.98q-.54-1.26-1.68-3.06-1.08-1.8-2.1-3.24m25.26-1.8 6.18 1.38q-1.26 1.8-2.46 3.48-1.2 1.62-2.28 2.76l-4.8-1.32q.9-1.38 1.86-3.12.96-1.8 1.5-3.18m1.02 19.32q1.68 2.64 4.38 5.04 2.7 2.34 6.06 4.26 3.36 1.86 6.96 2.94-.9.78-1.98 2.1-1.08 1.26-1.68 2.34-3.72-1.44-7.14-3.72a41.2 41.2 0 0 1-6.3-5.16q-2.88-2.94-4.86-6.18ZM-321.46-.52h28.02v14.28h-28.02v-3.24h22.32v-7.8h-22.32Zm.72-10.86 5.28 1.5q-2.04 3.48-5.04 6.48-2.94 2.94-6.42 5.34-3.42 2.4-6.96 4.14-.42-.54-1.14-1.32-.66-.78-1.44-1.56t-1.38-1.26q3.54-1.44 6.78-3.42 3.24-2.04 5.88-4.56 2.7-2.52 4.44-5.34m2.64 5.4h17.4v3h-17.4Zm-8.58 31.2-.18-4.02 2.16-1.74 13.92-2.94q0 1.02.12 2.28.12 1.2.3 1.98-4.92 1.14-7.98 1.86-3 .78-4.68 1.26-1.62.48-2.4.72-.78.3-1.26.6m0 0q-.12-.66-.54-1.56-.42-.84-.9-1.74-.48-.84-.9-1.32.78-.48 1.56-1.44.84-1.02.84-2.94V-.52h6.18v20.4l-.66.36q-.6.36-1.5.96t-1.86 1.32-1.62 1.38q-.6.72-.6 1.32m38.34-14.04 3.6 2.94q-2.04 1.2-4.38 2.34t-4.68 2.1-4.38 1.68l-2.58-2.4q1.98-.84 4.26-1.98t4.44-2.34q2.16-1.26 3.72-2.34m-22.8 5.88 2.28-3.36q2.88.78 6.18 1.8 3.3.96 6.6 2.04 3.3 1.02 6.18 2.04 2.94 1.02 5.04 1.86l-2.34 3.9q-2.04-.84-4.92-1.92-2.88-1.02-6.18-2.16t-6.66-2.22q-3.3-1.08-6.18-1.98m53.7 1.92h30.66v4.26h-30.66Zm-11.22-32.82h50.04v10.2h-5.82v-5.88h-38.76v5.88h-5.46Zm10.92 7.56h31.68V6.38h-31.68v-4.2h26.1v-4.26h-26.1Zm.3 16.2h34.56v15.12h-5.64V14.18h-28.92Zm-4.32-16.2h5.76V25.1h-5.76Zm13.68-11.22 5.04-1.02q.9 1.26 1.68 2.94.84 1.62 1.14 2.88l-5.28 1.14q-.3-1.14-1.08-2.82a38 38 0 0 0-1.5-3.12m-15.36-9.12h18.9v4.44h-18.9Zm24.78 0h22.2v4.44h-22.2Zm-24-4.56 5.04 1.5q-1.2 2.82-2.88 5.64a49 49 0 0 1-3.54 5.34q-1.86 2.46-3.78 4.32-.36-.48-1.08-1.2t-1.5-1.44q-.72-.78-1.26-1.2 2.76-2.4 5.16-5.82t3.84-7.14m24.78.06 5.16 1.32q-1.38 3.6-3.66 6.96-2.22 3.3-4.74 5.52-.42-.48-1.2-1.08-.78-.66-1.62-1.32-.78-.66-1.44-1.02 2.4-1.92 4.38-4.62 1.98-2.76 3.12-5.76m-21.48 10.8 3.48-2.88q1.5 1.2 3.12 2.76 1.68 1.56 2.64 2.76l-3.66 3.24q-.9-1.2-2.52-2.88a70 70 0 0 0-3.06-3m26.16.3 3.66-3q1.68 1.2 3.6 2.88 1.98 1.62 3.06 2.88l-3.84 3.36q-.96-1.26-2.88-3-1.86-1.8-3.6-3.12m54.12 7.98v6.6h20.52v-6.6Zm0-11.1v6.54h20.52v-6.54Zm-5.16-4.86h31.08V-.58h-31.08Zm-.54 33.6h32.4v5.16h-32.4Zm-4.44 12.36h38.82v5.16h-38.82Zm-16.92-44.82h19.26v5.28h-19.26Zm.6 17.34h17.76v5.22h-17.76Zm-1.26 22.86q2.52-.66 5.7-1.62t6.72-2.1l7.08-2.28.96 5.4q-4.92 1.68-9.96 3.36t-9.12 3.06Zm7.8-38.1h5.4v37.02l-5.4.96Zm27.84-1.02h4.86v22.86h.42V20.3h-5.76V-2.92h.48Zm34.08-.96h47.58v5.64h-47.58Zm-3.18 25.44h54.24v5.7h-54.24Zm7.14-15.84 5.16-1.5q1.14 2.04 2.16 4.44 1.08 2.34 1.92 4.62.9 2.22 1.26 3.96l-5.46 1.8q-.42-1.74-1.2-4.02-.72-2.28-1.74-4.74t-2.1-4.56m34.56-1.74 6.06 1.62q-1.08 2.34-2.34 4.8t-2.46 4.74q-1.2 2.22-2.28 3.96l-4.98-1.56q1.08-1.8 2.22-4.14 1.14-2.4 2.1-4.86 1.02-2.52 1.68-4.56m-17.64-5.58h5.88v49.44h-5.88Zm51.48 40.8h33.48v5.46h-33.48ZM-67.54-.82h39.48v25.74h-6.06V4.64h-27.6v20.34h-5.82Zm25.26-20.64 4.44-2.94q2.82 2.52 5.94 5.7 3.12 3.12 5.76 6.24 2.7 3.12 4.26 5.64l-4.86 3.54q-1.44-2.58-4.02-5.76t-5.64-6.42q-3-3.24-5.88-6m-27.9 16.08q-.12-.6-.48-1.62-.3-1.02-.66-2.1t-.72-1.8q1.14-.24 2.28-1.14 1.14-.96 2.64-2.4.84-.72 2.4-2.4t3.48-3.96 3.9-4.98 3.66-5.4l5.7 2.46q-2.76 3.9-5.94 7.62-3.12 3.66-6.36 6.9-3.18 3.24-6.36 5.82v.18l-.54.3q-.54.24-1.26.72-.72.42-1.26.9-.48.48-.48.9m0 0-.06-4.44 4.02-2.1 37.68-1.5q.06 1.14.24 2.64t.36 2.4q-8.88.48-15.3.84-6.42.3-10.86.54-4.38.24-7.26.48-2.82.18-4.56.36-1.68.12-2.64.3-.9.18-1.62.48"/><path fill="#aaa6a8" d="M30.128 12.675c-.758 3.005 7.696 9.656 16.82 7.957 6.822-1.281 12.244-6.898 10.932-9.559-2.274-4.705-26.557-3.005-27.752 1.602"/><path fill="#aaa6a8" d="M19.138 2.771C14.765-.924 7.652-.924 3.28 2.772c-4.373 3.696-4.373 9.707 0 13.402C7.652 19.868 14.765 19.868 19.138 16.173c4.402-3.72 4.402-9.706 0-13.402M17.68 14.916C14.095 17.946 8.323 17.922 4.737 14.917L17.68 3.98c3.586 3.03 3.586 7.932 0 10.937"/><path fill="#aaa6a8" d="M84.728 2.771C80.356-.924 73.243-.924 68.87 2.772s-4.373 9.707 0 13.402 11.486 3.695 15.858 0c4.402-3.72 4.402-9.706 0-13.402m-1.457 12.145C79.685 17.946 73.913 17.922 70.327 14.917L83.271 3.98c3.585 3.03 3.585 7.932 0 10.937"/></g><defs><clipPath id="clip0_1099_1172"><path fill="#fff" d="M-898-499h1920v7304H-898Z"/></clipPath></defs></svg>