<svg xmlns="http://www.w3.org/2000/svg" width="47" height="14" fill="none" viewBox="0 0 47 14"><rect width="47" height="14" fill="#e0aa5f" rx="7"/><path fill="#000" d="M5.275 5.19h2.304v.72H5.275Zm-.486 1.566h3.069v.729H4.789Zm.117 1.287.531-.153q.108.387.198.837.099.45.135.774l-.567.171a7 7 0 0 0-.117-.783 12 12 0 0 0-.18-.846m-.225 2.16q.387-.072.9-.171.522-.099 1.107-.216l1.17-.234.045.675a666 666 0 0 1-3.051.711ZM7.237 7.8l.612.18q-.117.414-.243.846t-.234.738l-.495-.171q.063-.216.135-.495.072-.288.126-.576.063-.288.099-.522M6.04 5.496h.702v4.815l-.702.117Zm.261-2.646.63.297a8 8 0 0 1-.585 1.035 9.5 9.5 0 0 1-.72.954 7 7 0 0 1-.774.774 1.5 1.5 0 0 0-.081-.261 4.865 4.865 0 0 0-.252-.621q.504-.378.99-.954a6 6 0 0 0 .792-1.224m-.225 1.062.324-.63q.333.189.657.423.333.225.612.459.288.225.486.423l-.369.711a4.4 4.4 0 0 0-.477-.459 10 10 0 0 0-.603-.486 8 8 0 0 0-.63-.441m2.214-.63h3.834v.774H8.992v7.254H8.29Zm3.69 0h.72v7.101q0 .324-.072.504a.58.58 0 0 1-.261.288 1.5 1.5 0 0 1-.522.126q-.315.027-.765.027a1.2 1.2 0 0 0-.054-.252 5 5 0 0 0-.081-.288 1.2 1.2 0 0 0-.108-.252q.324.018.603.018h.378q.09 0 .126-.045.036-.036.036-.135ZM9.442 4.857h2.088v.702H9.442Zm.117 1.503h.531v3.258h-.531Zm.27 0h1.575v2.754H9.829v-.666h1.026V7.026H9.829Zm7.011.153.594-.207q.153.288.279.621.135.333.234.648.108.306.144.549l-.639.252a4 4 0 0 0-.135-.558 9.394 9.394 0 0 0-.477-1.305m-.945 2.331.603-.135q.081.432.153.936t.09.873l-.639.153q-.018-.369-.081-.882a16 16 0 0 0-.126-.945m-.999-.081.675.108q-.063.594-.18 1.188a7 7 0 0 1-.252 1.008 3 3 0 0 0-.315-.126 4 4 0 0 0-.333-.108q.153-.405.243-.963.099-.558.162-1.107m-.135-2.403a1.3 1.3 0 0 0-.072-.225 6 6 0 0 0-.099-.288 1.6 1.6 0 0 0-.099-.261.56.56 0 0 0 .252-.153q.126-.126.261-.333.072-.099.207-.324t.297-.531q.171-.315.333-.666.171-.351.297-.711l.792.324q-.216.495-.495.99-.27.486-.567.936t-.603.81v.009l-.081.045-.171.108a1.4 1.4 0 0 0-.18.135q-.072.072-.072.135m0-.009-.018-.603.369-.234 1.566-.126a9 9 0 0 0-.054.351q-.018.198-.027.333-.522.054-.855.099a8 8 0 0 0-.531.072 3 3 0 0 0-.288.054 1 1 0 0 0-.162.054m.063 2.052a1.5 1.5 0 0 0-.072-.216 9 9 0 0 0-.099-.297 1.6 1.6 0 0 0-.099-.261.63.63 0 0 0 .324-.18q.171-.162.378-.414.117-.126.333-.405.225-.288.486-.675.27-.396.54-.846t.486-.909l.72.441q-.342.612-.747 1.215-.405.594-.846 1.134t-.891.99v.018l-.081.045a3 3 0 0 0-.18.099 1.4 1.4 0 0 0-.18.135q-.072.072-.072.126m0 0-.036-.621.369-.252 2.394-.342a3 3 0 0 0-.036.351q0 .198.009.324-.819.135-1.323.225-.495.081-.774.144-.27.054-.396.099a2 2 0 0 0-.207.072m2.043.27.585-.189q.135.342.261.747.135.405.198.702l-.621.216a5 5 0 0 0-.171-.711 16 16 0 0 0-.252-.765m1.062-5.364h3.258v.801h-3.258Zm3.051 0h.09l.135-.036.585.081q-.054.423-.135.909-.072.486-.153.972t-.171.909l-.792-.081q.09-.432.171-.927.09-.504.162-.963t.108-.765Zm-1.872 2.565h2.853v.756h-2.988Zm2.619 0h.153l.144-.036.54.189q-.225 1.296-.684 2.304a7.1 7.1 0 0 1-1.107 1.737 6 6 0 0 1-1.44 1.197 3 3 0 0 0-.243-.342 1.7 1.7 0 0 0-.297-.297 4.9 4.9 0 0 0 1.305-1.053 6.5 6.5 0 0 0 1.017-1.566q.423-.9.612-1.971Zm-2.97-2.25h.837a55 55 0 0 1-.081 2.349 21 21 0 0 1-.198 2.052 10 10 0 0 1-.423 1.746 6 6 0 0 1-.711 1.44 3 3 0 0 0-.207-.18q-.135-.099-.288-.207a3 3 0 0 0-.243-.153q.585-.756.864-1.809.279-1.062.36-2.385.09-1.323.09-2.853m1.161 2.745q.216.927.603 1.746t.954 1.44q.567.612 1.341.945a1.7 1.7 0 0 0-.207.207 4 4 0 0 0-.207.261q-.099.135-.162.243a4.5 4.5 0 0 1-1.386-1.107 6.5 6.5 0 0 1-.981-1.602 11.5 11.5 0 0 1-.648-1.989Zm6.129-.324v1.26h4.68v-1.26Zm-.72-.549h6.156v2.358h-6.156Zm1.503-.972h3.168V5.1H26.83Zm1.188 1.161h.702v1.89h-.702Zm-1.521.603.594-.189q.153.234.279.513.135.279.18.486l-.63.216a3 3 0 0 0-.162-.504 3.5 3.5 0 0 0-.261-.522m3.123-.225.72.198-.306.576a6 6 0 0 1-.27.477l-.585-.189q.108-.216.243-.522t.198-.54m-3.771 2.16h5.193v2.997h-.873V8.799h-3.483v2.457h-.837Zm.486 1.08h4.194v.576h-4.194Zm0 1.089h4.203v.585h-4.203Zm1.953-7.542.756.27a5.6 5.6 0 0 1-1.188 1.134 9.7 9.7 0 0 1-1.521.891q-.819.378-1.674.639a6.227 6.227 0 0 0-.297-.459 1.2 1.2 0 0 0-.171-.198 12 12 0 0 0 1.611-.54 8.4 8.4 0 0 0 1.422-.765 4.6 4.6 0 0 0 1.062-.972m.531.351q.306.306.738.594.441.279.954.522.522.243 1.08.432.567.189 1.116.315-.135.108-.297.306a4 4 0 0 0-.243.351 11 11 0 0 1-1.116-.378q-.567-.234-1.098-.522a10 10 0 0 1-.981-.639 7 7 0 0 1-.801-.711Zm7.416.693v.783h4.005v-.783Zm-.855-.675h5.76v2.133h-5.76Zm.45 4.275v.522h4.77v-.522Zm0 1.089v.54h4.77v-.54Zm0-2.178v.513h4.77v-.513Zm-.846-.612h6.498v3.933h-6.498Zm1.728 3.843.774.522q-.36.216-.846.423-.477.216-.99.387-.513.18-.981.297a3 3 0 0 0-.297-.315 7 7 0 0 0-.342-.306q.477-.108.99-.27.513-.171.963-.36.45-.198.729-.378m2.097.585.747-.549q.477.126.999.306.531.18 1.017.36.495.18.855.333l-.747.603a12 12 0 0 0-.837-.351 32 32 0 0 0-1.026-.378q-.531-.189-1.008-.324"/></svg>