<svg xmlns="http://www.w3.org/2000/svg" width="682" height="550" fill="none" viewBox="0 0 682 550"><path fill="#3dce94" d="m214.707 275.505 45.128-139.428 130 58.6 112.486 80.828-80.155 140.102-142.777-32.279Z" opacity=".75"/><path fill="#7e7e7e" d="M217.884 480.51h9.504v1.548h-9.504Zm4.788 3.906h4.32v1.494h-4.32Zm-3.546 3.942h7.092v1.512h-7.092Zm2.718-6.984h1.602v7.758h-1.602Zm-3.348 2.52h1.53v5.976h-1.53Zm7.092 4.464h1.602v.126q0 .126-.018.288 0 .162-.018.27a79 79 0 0 1-.27 3.528q-.144 1.35-.324 2.088-.18.72-.45 1.008-.27.324-.576.45a2 2 0 0 1-.72.18 5 5 0 0 1-.918.036 23 23 0 0 1-1.242-.036q-.018-.36-.144-.81a2.7 2.7 0 0 0-.342-.756q.63.072 1.152.09h.792q.414.018.63-.198.198-.198.342-.828.144-.648.27-1.89.126-1.26.234-3.276Zm-13.446-3.978h5.13v1.44h-5.13Zm-1.08 3.132h6.822v1.458h-6.822Zm.288 2.574 1.152-.288q.252.756.45 1.656.216.9.288 1.548l-1.224.342q-.054-.666-.252-1.566a18 18 0 0 0-.414-1.692m-.54 4.32a410 410 0 0 0 2.016-.342q1.152-.198 2.43-.432 1.296-.234 2.61-.468l.09 1.35a1803 1803 0 0 1-6.768 1.422Zm5.742-4.806 1.314.36q-.27.81-.54 1.692-.27.864-.522 1.458l-1.062-.324q.162-.432.306-.99l.288-1.152q.144-.576.216-1.044m-2.682-4.608h1.494v9.612l-1.494.252Zm.576-5.292 1.368.576q-.54 1.062-1.296 2.088a19 19 0 0 1-1.62 1.89 15.5 15.5 0 0 1-1.71 1.548 3 3 0 0 0-.162-.522q-.126-.324-.288-.666a5 5 0 0 0-.27-.558 12.8 12.8 0 0 0 2.214-1.908q1.08-1.17 1.764-2.448m-.486 2.124.72-1.242q.72.378 1.44.846.72.45 1.35.918t1.08.846l-.792 1.404a11 11 0 0 0-1.062-.918q-.63-.504-1.35-.972-.702-.486-1.386-.882M40.378 271.558h7.29v1.53h-7.29Zm.036 3.492h7.29v1.53h-7.29Zm-.144 3.654h8.01v1.584h-8.01Zm3.24-10.116h1.53v10.962h-1.53Zm-2.394-.54h6.912v1.53h-6.912v11.952H39.55v-12.474l.954-1.008Zm-.144-3.168 1.62.486a27 27 0 0 1-1.062 2.646q-.612 1.35-1.35 2.61a15.6 15.6 0 0 1-1.584 2.25 3.5 3.5 0 0 0-.216-.522l-.288-.576a3.5 3.5 0 0 0-.288-.486q.702-.828 1.314-1.926t1.08-2.268q.486-1.17.774-2.214m1.98.612 1.422-.612q.36.612.702 1.314.36.684.558 1.206l-1.512.702a9 9 0 0 0-.504-1.26q-.342-.738-.666-1.35m-6.822 6.534 1.17-.414q.288.576.54 1.242.27.648.468 1.26t.288 1.08l-1.26.504a6 6 0 0 0-.252-1.116q-.18-.63-.432-1.296-.234-.684-.522-1.26m-1.746 4.662 1.188-.27q.18.918.324 1.98.144 1.044.18 1.836l-1.278.306a20 20 0 0 0-.144-1.854 51 51 0 0 0-.27-1.998m-1.98-.162 1.314.216q-.126 1.17-.342 2.358t-.504 2.034a4 4 0 0 0-.63-.27l-.63-.198q.324-.81.504-1.926t.288-2.214m-.252-4.806-.144-.396a5 5 0 0 0-.18-.54q-.09-.27-.18-.468.252-.072.486-.324.252-.252.504-.666.198-.252.594-.954.414-.702.864-1.638.468-.936.81-1.908l1.44.594q-.666 1.494-1.53 2.952a22 22 0 0 1-1.728 2.538v.036l-.144.072q-.144.072-.342.198-.18.126-.324.27-.126.126-.126.234m0 0-.036-1.134.702-.45 3.15-.234a4.6 4.6 0 0 0-.108.666q-.036.36-.054.594a55 55 0 0 0-1.728.198q-.666.072-1.044.144a5 5 0 0 0-.576.108 1.7 1.7 0 0 0-.306.108m.126 4.122a4 4 0 0 0-.126-.414 10 10 0 0 0-.198-.54 3 3 0 0 0-.18-.468q.306-.072.612-.396.324-.324.756-.828.216-.252.63-.828.432-.576.936-1.368.522-.81 1.044-1.728.54-.936.972-1.854l1.314.792a35 35 0 0 1-1.458 2.466 38 38 0 0 1-1.638 2.34 24 24 0 0 1-1.728 2.016v.036l-.144.072a3 3 0 0 0-.324.198q-.18.108-.324.252-.144.126-.144.252m0 0-.072-1.152.72-.486 4.824-.648q-.054.288-.072.648a5 5 0 0 0 0 .594q-1.656.252-2.664.432-1.008.162-1.566.27-.54.108-.792.18a1.3 1.3 0 0 0-.378.162m4.086.468 1.116-.378q.324.828.63 1.8.306.954.45 1.638l-1.206.432a16 16 0 0 0-.414-1.692q-.288-.99-.576-1.8m17.28-8.1h12.492v1.656H53.644Zm-.774 5.274h12.6v1.638h-12.6Zm-2.016 5.814h16.164v1.656H50.854Zm7.2-14.49h1.764v15.318h-1.764Zm-4.104.252 1.764.396a26 26 0 0 1-.954 2.736q-.54 1.332-1.188 2.484a15 15 0 0 1-1.35 1.998 5 5 0 0 0-.468-.324 9 9 0 0 0-.558-.378 3.6 3.6 0 0 0-.522-.306q.738-.792 1.35-1.836a17.5 17.5 0 0 0 1.098-2.286q.504-1.224.828-2.484m26.982 9.972 1.26-.774q.612.396 1.278.9.666.486 1.26 1.008.612.504.99.918l-1.35.9a8 8 0 0 0-.918-.954 23 23 0 0 0-1.242-1.044 21 21 0 0 0-1.278-.954m-.756 3.564 1.242-.9q.72.342 1.548.792t1.584.918q.774.468 1.278.864l-1.314 1.026a13 13 0 0 0-1.206-.882 27 27 0 0 0-1.566-.954 23 23 0 0 0-1.566-.864m-6.318-.882 1.566.612q-.594.558-1.386 1.116t-1.638 1.026q-.828.486-1.62.828a5 5 0 0 0-.36-.396 18 18 0 0 0-.486-.432 3 3 0 0 0-.432-.342 21 21 0 0 0 2.376-1.08q1.206-.63 1.98-1.332m3.06-12.924h1.71v6.408h-1.71Zm-6.354 1.188h14.562v1.26H70.564Zm.972 2.214h12.582v1.242H71.536Zm-1.872 2.214H85.99v1.314H69.664Zm1.206 7.344a8 8 0 0 0-.108-.414 17 17 0 0 1-.144-.54 5 5 0 0 0-.144-.486 7.5 7.5 0 0 0 1.116-.216q.612-.162 1.44-.432.378-.126 1.062-.36.684-.252 1.566-.594.9-.342 1.89-.774t1.98-.918a31 31 0 0 0 1.89-.99l1.17 1.062a44 44 0 0 1-5.328 2.358 55 55 0 0 1-5.4 1.656v.072l-.162.054a2 2 0 0 0-.342.126 1.3 1.3 0 0 0-.342.18q-.144.108-.144.216m0 0-.036-1.026.99-.504 11.556-.522q.036.27.09.612.072.324.144.522-2.754.162-4.716.27t-3.312.198q-1.35.072-2.196.126t-1.35.108a7 7 0 0 0-.756.09 2 2 0 0 0-.414.126m1.296-2.952a8 8 0 0 0-.108-.414 18.641 18.641 0 0 0-.324-.99 4 4 0 0 0 .594-.126q.324-.09.702-.234.288-.108.9-.378.612-.288 1.35-.684a15 15 0 0 0 1.422-.846l1.152.936q-1.116.648-2.34 1.17-1.206.522-2.412.882v.036l-.144.054a2 2 0 0 0-.324.162q-.18.09-.324.198t-.144.234m0 0-.018-.936.792-.432 6.786-.288a7 7 0 0 0-.144.558 4 4 0 0 0-.09.54q-1.836.09-3.078.162-1.242.054-2.016.108t-1.224.108a9 9 0 0 0-.648.072 1.3 1.3 0 0 0-.36.108m5.112 1.512h1.656v3.384q0 .612-.18.972-.162.36-.666.54-.486.18-1.206.216-.702.054-1.71.054a3.6 3.6 0 0 0-.234-.828 5.5 5.5 0 0 0-.378-.756l1.008.036h1.35q.216-.018.288-.072t.072-.216ZM89.446 280v-13.266h3.438q2.052 0 3.474.756a4.9 4.9 0 0 1 2.16 2.196q.756 1.458.756 3.636 0 2.16-.756 3.654-.738 1.494-2.142 2.268-1.404.756-3.384.756Zm2.088-1.71h1.206q1.422 0 2.394-.558.99-.558 1.476-1.656.504-1.116.504-2.754 0-1.656-.504-2.736-.486-1.08-1.476-1.602-.972-.54-2.394-.54h-1.206ZM146.786 67.252q-1.692 0-3.006-.846-1.296-.846-2.034-2.394-.738-1.566-.738-3.69 0-2.142.738-3.654.738-1.53 2.034-2.34 1.314-.828 3.006-.828 1.71 0 3.006.828 1.296.81 2.034 2.34.738 1.512.738 3.654 0 2.124-.738 3.69-.738 1.548-2.034 2.394t-3.006.846m0-1.836q1.098 0 1.908-.63.828-.63 1.278-1.764.45-1.152.45-2.7t-.45-2.664q-.45-1.134-1.278-1.728-.81-.612-1.908-.612t-1.926.612q-.81.594-1.26 1.728-.432 1.116-.432 2.664t.432 2.7q.45 1.134 1.26 1.764.828.63 1.926.63m9.25 1.584v-9.918h1.692l.18 1.404h.036q.648-.684 1.386-1.152a3.06 3.06 0 0 1 1.692-.486q1.098 0 1.746.486.648.468.972 1.332.738-.792 1.512-1.296a3.05 3.05 0 0 1 1.71-.522q1.548 0 2.286 1.026.756 1.008.756 2.898V67h-2.088v-5.976q0-1.278-.396-1.818-.396-.558-1.242-.558-.504 0-1.062.324-.54.324-1.17 1.008V67h-2.07v-5.976q0-1.278-.396-1.818-.396-.558-1.26-.558-.486 0-1.044.324t-1.17 1.008V67Zm22.021.252q-1.35 0-2.448-.612a4.6 4.6 0 0 1-1.746-1.782q-.648-1.17-.648-2.808 0-1.206.378-2.16a4.8 4.8 0 0 1 1.026-1.638 4.5 4.5 0 0 1 1.458-1.044 4 4 0 0 1 1.656-.36q1.314 0 2.214.594.9.576 1.368 1.638.468 1.044.468 2.448 0 .306-.036.594-.018.27-.072.468h-6.426q.09.936.486 1.62.414.666 1.062 1.044.666.36 1.512.36.666 0 1.242-.198a5.3 5.3 0 0 0 1.116-.54l.72 1.314a7.3 7.3 0 0 1-1.53.756 5.2 5.2 0 0 1-1.8.306m-2.826-6.102h4.752q0-1.26-.576-1.962-.558-.702-1.638-.702a2.3 2.3 0 0 0-1.152.306q-.54.306-.918.9-.36.594-.468 1.458m12.902 10.296q-1.188 0-2.124-.306-.936-.288-1.476-.864-.522-.576-.522-1.44 0-.63.378-1.188t1.062-.972v-.072a2.4 2.4 0 0 1-.648-.648q-.252-.414-.252-1.008t.342-1.062q.36-.486.774-.774v-.072q-.522-.396-.918-1.08t-.396-1.566q0-1.116.522-1.908.54-.81 1.404-1.224a4.4 4.4 0 0 1 1.908-.414q.432 0 .792.072.378.054.648.162h3.51v1.566h-1.872q.27.306.45.774t.18 1.026q0 1.08-.504 1.854a3.24 3.24 0 0 1-1.332 1.17 4.4 4.4 0 0 1-1.872.396q-.324 0-.702-.072a6 6 0 0 1-.684-.216 2.2 2.2 0 0 0-.396.432 1.1 1.1 0 0 0-.144.594q0 .432.342.702.36.27 1.314.27h1.836q1.746 0 2.646.576.9.558.9 1.818 0 .954-.63 1.746t-1.8 1.26q-1.152.468-2.736.468m.054-8.928q.504 0 .936-.252a1.8 1.8 0 0 0 .684-.72q.252-.486.252-1.152t-.252-1.116a1.8 1.8 0 0 0-.684-.72 1.76 1.76 0 0 0-.936-.252q-.522 0-.954.252a1.84 1.84 0 0 0-.666.72q-.252.45-.252 1.116t.252 1.152q.27.468.684.72.432.252.936.252m.234 7.56q.882 0 1.512-.252t.99-.666q.36-.396.36-.846 0-.63-.468-.864-.468-.216-1.368-.216h-1.494a6.081 6.081 0 0 1-1.332-.144q-.432.324-.63.702a1.6 1.6 0 0 0-.198.738q0 .72.702 1.134t1.926.414m9.552-2.826q-.846 0-1.512-.36a2.67 2.67 0 0 1-1.026-1.008q-.378-.648-.378-1.512 0-1.602 1.404-2.466 1.422-.882 4.518-1.224a3.7 3.7 0 0 0-.18-1.062 1.5 1.5 0 0 0-.576-.774q-.396-.306-1.134-.306-.774 0-1.494.306t-1.368.702l-.774-1.404q.522-.324 1.152-.612.63-.306 1.35-.486.72-.198 1.494-.198 1.242 0 2.034.504.792.486 1.17 1.422.396.936.396 2.268V67h-1.692l-.162-1.134h-.072q-.666.576-1.458.99a3.7 3.7 0 0 1-1.692.396m.63-1.656q.648 0 1.206-.288a5.9 5.9 0 0 0 1.17-.882v-2.412q-1.458.162-2.322.486-.864.306-1.242.738-.36.414-.36.972 0 .738.45 1.062t1.098.324m7.563-2.916v-1.53h4.752v1.53Zm11.312 4.572q-1.044 0-1.854-.252a5.4 5.4 0 0 1-1.404-.666 6.7 6.7 0 0 1-1.062-.918l1.008-1.332q.594.576 1.35 1.008t1.782.432q.756 0 1.314-.252t.864-.72q.324-.468.324-1.116 0-.72-.36-1.224-.342-.522-1.206-.81-.846-.288-2.34-.288v-1.548q1.314 0 2.052-.288.756-.306 1.08-.792.342-.504.342-1.116 0-.864-.54-1.35-.54-.504-1.494-.504-.756 0-1.422.36a5.4 5.4 0 0 0-1.224.9l-1.08-1.296a7.5 7.5 0 0 1 1.728-1.152 4.56 4.56 0 0 1 2.07-.468q1.188 0 2.106.396t1.44 1.152q.522.738.522 1.8 0 1.116-.63 1.872-.612.738-1.656 1.134v.09q.756.18 1.368.612.63.432.99 1.098.36.648.36 1.53 0 1.17-.612 1.998-.594.828-1.602 1.278a5.6 5.6 0 0 1-2.214.432M443.136 53.32h1.692v5.022h-1.692Zm-6.3-.738h13.572v1.404h-13.572Zm13.14 0h.288l.27-.072 1.26.342q-.324.81-.72 1.674a12 12 0 0 1-.774 1.458l-1.476-.396q.306-.54.63-1.314t.522-1.458Zm-5.904 2.61h4.932v1.206h-4.932Zm-3.888.378q.54.936 1.404 1.404.864.45 2.088.594t2.79.144h3.582q.756-.018 1.368-.018.612-.018.954-.018-.108.162-.234.45-.126.27-.216.558-.072.27-.126.504h-5.346q-1.908 0-3.312-.216-1.404-.234-2.412-.936-.99-.702-1.656-2.07Zm-.918 6.336v1.512h9.396v-1.512Zm-1.62-1.278h12.726v4.068h-12.726Zm5.526-1.08h1.692v7.596h-1.692Zm-7.038 6.876q1.224-.018 2.808-.036t3.42-.054l3.798-.072q1.962-.054 3.906-.09l-.072 1.296q-2.448.108-4.968.216-2.502.108-4.77.198-2.25.09-4.014.144Zm10.782-1.08 1.08-.936q.738.486 1.548 1.08t1.53 1.17q.738.576 1.242.99l-1.116 1.08q-.486-.45-1.224-1.062a64 64 0 0 0-1.548-1.206 40 40 0 0 0-1.512-1.116m-7.578-10.98 1.584.396a11.7 11.7 0 0 1-1.836 3.42 9.8 9.8 0 0 1-2.754 2.484 3.3 3.3 0 0 0-.198-.504 15 15 0 0 0-.306-.612 6 6 0 0 0-.288-.522 8.3 8.3 0 0 0 2.304-1.908 8 8 0 0 0 1.494-2.754m17.874 11.178h11.322v1.71h-11.322Zm-.054-5.526h11.376v1.674h-11.376Zm-.828-5.436h13.176v13.86h-1.782V56.29h-9.684v12.204h-1.71Zm5.364-2.844 2.178.342a67 67 0 0 1-.864 1.908 25 25 0 0 1-.81 1.62l-1.656-.378q.216-.486.432-1.098t.414-1.242.306-1.152m18.648.126 1.008 1.008q-.792.252-1.8.45-1.008.18-2.088.288-1.062.108-2.052.144a2.5 2.5 0 0 0-.162-.522 3.6 3.6 0 0 0-.234-.558 59 59 0 0 0 1.944-.18q.99-.108 1.872-.27.9-.162 1.512-.36m7.65 0 1.116.954q-.828.27-1.908.468-1.08.18-2.214.288-1.134.09-2.196.144a4 4 0 0 0-.18-.522 3.6 3.6 0 0 0-.234-.558 157 157 0 0 0 2.07-.162 37 37 0 0 0 1.98-.252 12 12 0 0 0 1.566-.36m-12.312 2.646h5.94v1.278h-5.94Zm7.398 0h6.804v1.278h-6.804Zm-4.878.378h1.53v2.934h-1.53Zm7.452.036h1.53v2.952h-1.53Zm-7.956 6.408v1.08h8.136v-1.08Zm0 2.106v1.08h8.136v-1.08Zm0-4.194v1.08h8.136v-1.08Zm-1.638-1.062h11.484v7.416h-11.484Zm7.434 8.424.666-1.08q1.008.27 2.034.594a46 46 0 0 1 1.944.648q.918.324 1.584.594l-.774 1.206a31 31 0 0 0-1.548-.63 47 47 0 0 0-1.89-.684 50 50 0 0 0-2.016-.648m-4.446-1.044 1.278.738q-.756.414-1.746.846-.99.45-2.034.828t-1.944.648a6 6 0 0 0-.234-.45q-.144-.27-.306-.558a5 5 0 0 0-.288-.432 67 67 0 0 0 1.836-.45 26 26 0 0 0 1.872-.558q.9-.306 1.566-.612m-4.032-12.888h1.494v1.386q0 .684-.162 1.476a5.1 5.1 0 0 1-.558 1.53q-.396.756-1.17 1.368a2.6 2.6 0 0 0-.324-.378 7 7 0 0 0-.414-.414 3 3 0 0 0-.378-.306q.666-.504.99-1.062.324-.576.414-1.152.108-.576.108-1.098Zm7.362-.036h1.458v1.35q0 .648-.126 1.404a5.5 5.5 0 0 1-.432 1.476q-.306.702-.936 1.296a2.7 2.7 0 0 0-.36-.288 6 6 0 0 0-.468-.324 2.2 2.2 0 0 0-.414-.234q.576-.522.828-1.098.27-.594.36-1.17.09-.594.09-1.08ZM588.378 270.558h7.29v1.53h-7.29Zm.036 3.492h7.29v1.53h-7.29Zm-.144 3.654h8.01v1.584h-8.01Zm3.24-10.116h1.53v10.962h-1.53Zm-2.394-.54h6.912v1.53h-6.912v11.952h-1.566v-12.474l.954-1.008Zm-.144-3.168 1.62.486a27 27 0 0 1-1.062 2.646q-.612 1.35-1.35 2.61a15.6 15.6 0 0 1-1.584 2.25 3.5 3.5 0 0 0-.216-.522l-.288-.576a3.5 3.5 0 0 0-.288-.486q.702-.828 1.314-1.926t1.08-2.268q.486-1.17.774-2.214m1.98.612 1.422-.612q.36.612.702 1.314.36.684.558 1.206l-1.512.702a9 9 0 0 0-.504-1.26q-.342-.738-.666-1.35m-6.822 6.534 1.17-.414q.288.576.54 1.242.27.648.468 1.26t.288 1.08l-1.26.504a6 6 0 0 0-.252-1.116q-.18-.63-.432-1.296-.234-.684-.522-1.26m-1.746 4.662 1.188-.27q.18.918.324 1.98.144 1.044.18 1.836l-1.278.306a20 20 0 0 0-.144-1.854 51 51 0 0 0-.27-1.998m-1.98-.162 1.314.216q-.126 1.17-.342 2.358t-.504 2.034a4 4 0 0 0-.63-.27l-.63-.198q.324-.81.504-1.926t.288-2.214m-.252-4.806-.144-.396a5 5 0 0 0-.18-.54q-.09-.27-.18-.468.252-.072.486-.324.252-.252.504-.666.198-.252.594-.954.414-.702.864-1.638.468-.936.81-1.908l1.44.594q-.666 1.494-1.53 2.952a22 22 0 0 1-1.728 2.538v.036l-.144.072q-.144.072-.342.198-.18.126-.324.27-.126.126-.126.234m0 0-.036-1.134.702-.45 3.15-.234a4.6 4.6 0 0 0-.108.666q-.036.36-.054.594a55 55 0 0 0-1.728.198q-.666.072-1.044.144a5 5 0 0 0-.576.108 1.7 1.7 0 0 0-.306.108m.126 4.122a4 4 0 0 0-.126-.414 10 10 0 0 0-.198-.54 3 3 0 0 0-.18-.468q.306-.072.612-.396.324-.324.756-.828.216-.252.63-.828.432-.576.936-1.368.522-.81 1.044-1.728.54-.936.972-1.854l1.314.792a35 35 0 0 1-1.458 2.466 38 38 0 0 1-1.638 2.34 24 24 0 0 1-1.728 2.016v.036l-.144.072a3 3 0 0 0-.324.198q-.18.108-.324.252-.144.126-.144.252m0 0-.072-1.152.72-.486 4.824-.648q-.054.288-.072.648a5 5 0 0 0 0 .594q-1.656.252-2.664.432-1.008.162-1.566.27-.54.108-.792.18a1.3 1.3 0 0 0-.378.162m4.086.468 1.116-.378q.324.828.63 1.8.306.954.45 1.638l-1.206.432a16 16 0 0 0-.414-1.692q-.288-.99-.576-1.8m17.28-8.1h12.492v1.656h-12.492Zm-.774 5.274h12.6v1.638h-12.6Zm-2.016 5.814h16.164v1.656h-16.164Zm7.2-14.49h1.764v15.318h-1.764Zm-4.104.252 1.764.396a26 26 0 0 1-.954 2.736q-.54 1.332-1.188 2.484a15 15 0 0 1-1.35 1.998 5 5 0 0 0-.468-.324 9 9 0 0 0-.558-.378 3.6 3.6 0 0 0-.522-.306q.738-.792 1.35-1.836a17.5 17.5 0 0 0 1.098-2.286q.504-1.224.828-2.484m26.982 9.972 1.26-.774q.612.396 1.278.9.666.486 1.26 1.008.612.504.99.918l-1.35.9a8 8 0 0 0-.918-.954 23 23 0 0 0-1.242-1.044 21 21 0 0 0-1.278-.954m-.756 3.564 1.242-.9q.72.342 1.548.792t1.584.918q.774.468 1.278.864l-1.314 1.026a13 13 0 0 0-1.206-.882 27 27 0 0 0-1.566-.954 23 23 0 0 0-1.566-.864m-6.318-.882 1.566.612q-.594.558-1.386 1.116t-1.638 1.026q-.828.486-1.62.828a5 5 0 0 0-.36-.396 18 18 0 0 0-.486-.432 3 3 0 0 0-.432-.342 21 21 0 0 0 2.376-1.08q1.206-.63 1.98-1.332m3.06-12.924h1.71v6.408h-1.71Zm-6.354 1.188h14.562v1.26h-14.562Zm.972 2.214h12.582v1.242h-12.582Zm-1.872 2.214h16.326v1.314h-16.326Zm1.206 7.344a8 8 0 0 0-.108-.414 17 17 0 0 1-.144-.54 5 5 0 0 0-.144-.486 7.5 7.5 0 0 0 1.116-.216q.612-.162 1.44-.432.378-.126 1.062-.36.684-.252 1.566-.594.9-.342 1.89-.774t1.98-.918a31 31 0 0 0 1.89-.99l1.17 1.062a44 44 0 0 1-5.328 2.358 55 55 0 0 1-5.4 1.656v.072l-.162.054a2 2 0 0 0-.342.126 1.3 1.3 0 0 0-.342.18q-.144.108-.144.216m0 0-.036-1.026.99-.504 11.556-.522q.036.27.09.612.072.324.144.522-2.754.162-4.716.27t-3.312.198q-1.35.072-2.196.126t-1.35.108a7 7 0 0 0-.756.09 2 2 0 0 0-.414.126m1.296-2.952a8 8 0 0 0-.108-.414 18.641 18.641 0 0 0-.324-.99 4 4 0 0 0 .594-.126q.324-.09.702-.234.288-.108.9-.378.612-.288 1.35-.684a15 15 0 0 0 1.422-.846l1.152.936q-1.116.648-2.34 1.17-1.206.522-2.412.882v.036l-.144.054a2 2 0 0 0-.324.162q-.18.09-.324.198t-.144.234m0 0-.018-.936.792-.432 6.786-.288a7 7 0 0 0-.144.558 4 4 0 0 0-.09.54q-1.836.09-3.078.162-1.242.054-2.016.108t-1.224.108a9 9 0 0 0-.648.072 1.3 1.3 0 0 0-.36.108m5.112 1.512h1.656v3.384q0 .612-.18.972-.162.36-.666.54-.486.18-1.206.216-.702.054-1.71.054a3.6 3.6 0 0 0-.234-.828 5.5 5.5 0 0 0-.378-.756l1.008.036h1.35q.216-.018.288-.072t.072-.216Zm12.168 3.69v-13.266h4.122q1.35 0 2.394.324 1.062.324 1.656 1.044.612.702.612 1.89 0 .648-.234 1.224a3.1 3.1 0 0 1-.63 1.026 2.4 2.4 0 0 1-1.026.63v.09q1.134.234 1.872 1.026.738.774.738 2.124 0 1.314-.666 2.178-.648.864-1.8 1.296-1.134.414-2.61.414Zm2.088-7.722h1.782q1.512 0 2.178-.54.684-.54.684-1.458 0-1.026-.702-1.458-.702-.45-2.106-.45h-1.836Zm0 6.084h2.106q1.548 0 2.394-.576.864-.576.864-1.782 0-1.116-.846-1.62-.828-.522-2.412-.522h-2.106ZM650.136 279v-1.71h2.916v-8.856h-2.376v-1.314q.936-.18 1.62-.414a7.4 7.4 0 0 0 1.278-.594h1.566v11.178h2.574V279Zm10.427 0v-1.206a107 107 0 0 0 3.168-3.222q1.332-1.422 2.034-2.556.702-1.152.702-2.16 0-.72-.252-1.242a1.73 1.73 0 0 0-.738-.81q-.486-.288-1.242-.288-.774 0-1.422.45a6.4 6.4 0 0 0-1.188 1.026l-1.17-1.152q.846-.936 1.782-1.458.954-.522 2.268-.522 1.206 0 2.106.486t1.386 1.368q.504.864.504 2.034t-.666 2.376q-.648 1.206-1.764 2.502a67 67 0 0 1-2.502 2.736q.522-.054 1.098-.09a12 12 0 0 1 1.08-.054h3.384V279Z"/><path fill="#7e7e7e" d="M462.128 481.32h5.094v1.332h-5.094Zm-.072 10.692h5.04v1.152h-5.04Zm-.576-8.046h10.908v1.368H461.48Zm2.466-4.158h1.53v4.824h-1.53Zm-.558 7.344v1.188h2.502v-1.188Zm-1.26-1.08h5.094v3.366h-5.094Zm7.47-5.31 1.224-.558q.486.648.918 1.422.45.774.63 1.35l-1.314.63a8.6 8.6 0 0 0-.594-1.368 14 14 0 0 0-.864-1.476m-8.118 13.644q1.134-.126 2.682-.324t3.168-.414l.054 1.188a477 477 0 0 1-5.724.828Zm9.216-7.47 1.458.252q-.684 3.006-1.926 5.418-1.224 2.412-3.042 3.996a2.7 2.7 0 0 0-.324-.342 13 13 0 0 0-.414-.396 4 4 0 0 0-.396-.324q1.782-1.404 2.934-3.618 1.152-2.232 1.71-4.986m-6.768 3.528h1.458v3.996l-1.458.108Zm3.744-10.656h1.62q-.072 5.058.144 8.406t.612 5.004q.396 1.638.864 1.638.162 0 .252-.234.108-.252.18-.828.072-.594.108-1.602a6 6 0 0 0 .558.486q.324.234.594.342-.108 1.44-.306 2.178-.198.756-.576 1.008-.36.252-.954.252-.918 0-1.512-1.098t-.936-3.24q-.324-2.142-.468-5.238a264 264 0 0 1-.18-7.074m-10.818 4.572h4.158v1.44h-4.158Zm-.9 3.132h5.58v1.458h-5.58Zm.234 2.574.99-.306a18 18 0 0 1 .378 1.674q.18.9.234 1.548l-1.044.342q-.036-.666-.198-1.566a23 23 0 0 0-.36-1.692m-.432 4.32a99 99 0 0 0 2.646-.522q1.548-.342 3.15-.702l.09 1.368q-1.458.378-2.934.738t-2.628.648Zm4.698-4.806 1.116.36a161 161 0 0 0-.468 1.692 17 17 0 0 1-.432 1.476l-.882-.342q.108-.432.234-.99.144-.576.252-1.152t.18-1.044m-2.196-4.608h1.278v9.63l-1.278.234Zm.486-5.292 1.134.576a14.6 14.6 0 0 1-1.044 2.016q-.612.99-1.314 1.854a14 14 0 0 1-1.386 1.494l-.162-.522q-.108-.342-.234-.684a3 3 0 0 0-.216-.54q.918-.738 1.782-1.854a11.4 11.4 0 0 0 1.44-2.34m-.396 2.124.63-1.242q.558.36 1.134.81t1.08.9.846.828l-.666 1.404a9 9 0 0 0-.846-.882 17 17 0 0 0-1.08-.954 13 13 0 0 0-1.098-.864m8.244 7.83.972.954q-.756.198-1.71.342-.936.126-1.944.216-1.008.072-1.944.072a3 3 0 0 0-.144-.486 3.4 3.4 0 0 0-.198-.504 48 48 0 0 0 1.8-.108 32 32 0 0 0 1.764-.216q.828-.126 1.404-.27"/><path stroke="#aaa6a8" stroke-width="2" d="m453.673 471.521-226.345-.001L114.155 275.5 227.328 79.48h226.345L566.846 275.5Z"/><path stroke="#aaa6a8" d="M438.712 445.241H243.289l-97.712-169.242 97.712-169.24h195.423L536.424 276Z"/><path stroke="#aaa6a8" d="M421.462 415.729H259.539L178.577 275.5l80.962-140.23 161.923.001L502.424 275.5Z"/><path stroke="#aaa6a8" d="M403.462 384.619H277.539L214.578 276l62.961-108.619h125.923L466.423 276Z"/><path stroke="#aaa6a8" d="M387.46 357.705h-93.919L246.577 275.5l46.964-82.205h93.919l46.964 82.205ZM116 276h449M228 470 453 80M453 470 228 80"/></svg>