<svg xmlns="http://www.w3.org/2000/svg" width="120" height="120" fill="none" viewBox="0 0 120 120"><path stroke="#fff" stroke-width="7" d="M59.915 77.827c9.809 0 17.76-7.951 17.76-17.76 0-9.808-7.951-17.76-17.76-17.76s-17.76 7.952-17.76 17.76 7.951 17.76 17.76 17.76Z"/><path fill="#fff" d="M84.045 40.197A4.25 4.25 0 1 0 84.04510194704797 31.697 4.25 4.25 0 0 0 84.045 40.197"/><path stroke="#fff" stroke-linecap="round" stroke-linejoin="round" stroke-miterlimit="10" stroke-width="7" d="M84.765 104.747h-49.7c-10.95 0-19.84-8.88-19.84-19.84v-49.71c0-10.95 8.88-19.84 19.84-19.84h49.71c10.95 0 19.84 8.88 19.84 19.84v49.71c-.01 10.96-8.89 19.84-19.85 19.84"/></svg>