<svg xmlns="http://www.w3.org/2000/svg" width="114" height="92" fill="none" viewBox="0 0 114 92"><path stroke="#2a2324" stroke-linecap="round" stroke-linejoin="round" stroke-miterlimit="10" stroke-width="7" d="M68.53 87.694H45.85C22.73 87.694 4 68.954 4 45.844c0-23.12 18.74-41.85 41.85-41.85h22.68c23.12 0 41.85 18.74 41.85 41.85s-18.74 41.85-41.85 41.85"/><path fill="#2a2324" d="M32.99 36.954c-4.57 0-8.27 3.7-8.27 8.27s3.7 8.27 8.27 8.27 8.27-3.7 8.27-8.27-3.7-8.27-8.27-8.27m0 15.02c-3.73 0-6.75-3.02-6.75-6.75s3.02-6.75 6.75-6.75ZM81.39 36.954c-4.57 0-8.27 3.7-8.27 8.27s3.7 8.27 8.27 8.27 8.27-3.7 8.27-8.27-3.7-8.27-8.27-8.27m0 15.02c-3.73 0-6.75-3.02-6.75-6.75s3.02-6.75 6.75-6.75ZM56.87 54.734c-4.83 0-7.93-4.64-8.3-5.23-.64-1-.34-2.33.67-2.97s2.33-.34 2.97.67c.1.16 2.47 3.87 5.5 3.13 1.92-.46 3.5-2.52 4.34-4.3a2.157 2.157 0 0 1 2.87-1.03c1.07.51 1.53 1.79 1.03 2.87-.79 1.66-3.07 5.64-7.23 6.64-.65.15-1.26.22-1.85.22"/></svg>