<svg xmlns="http://www.w3.org/2000/svg" width="311" height="345" fill="none" viewBox="0 0 311 345"><g clip-path="url(#clip0_1396_253)"><path fill="#aaa6a8" d="M78.416 0H13.77v28.5h64.645v77.236c0 23.227-8.902 31.316-26.756 31.316-11.159 0-22.546-6.416-31.93-18.587L0 139.461c13.72 19.651 34.618 27.004 52.75 27.004 44.331 0 59.725-26.218 59.725-57.914V34.054C112.475 15.239 97.234 0 78.415 0"/><path fill="#aaa6a8" d="M292.208 235.46c-25.057-25.052-65.71-25.052-90.767 0-25.056 25.052-25.056 65.699 0 90.751s65.71 25.052 90.767 0c25.056-25.052 25.056-65.699 0-90.751m-8.369 82.383c-20.441 20.437-53.588 20.437-74.054 0l74.054-74.041c20.44 20.463 20.44 53.604 0 74.041"/><path fill="#aaa6a8" d="M167.863 209.343c8.496 0 17.144 3.753 24.93 10.929 7.608-6.796 16.18-11.867 25.234-15.316-13.72-18.13-33.755-25.001-51.254-25.001-44.331 0-59.725 26.218-59.725 57.914.102 15.467.178 30.96.279 46.428 0 23.226-8.902 31.315-26.756 31.315-11.158 0-22.545-6.415-31.929-18.586l-19.73 20.995c13.72 19.651 34.617 27.004 52.75 27.004 44.331 0 59.725-26.218 59.725-57.914-.102-15.467-.178-30.96-.279-46.427.025-23.252 8.927-31.341 26.755-31.341"/><path fill="#aaa6a8" d="M168.193 79.594a32.02 32.02 0 0 1 22.698-9.407V38.11c-16.434 0-32.842 6.263-45.396 18.789-12.528 12.526-18.792 28.957-18.792 45.362h32.081a32 32 0 0 1 9.409-22.668"/><path fill="#aaa6a8" d="M168.193 124.956a32 32 0 0 1-9.409-22.694h-32.081c0 16.431 6.264 32.837 18.792 45.389 12.528 12.526 28.962 18.789 45.396 18.789v-32.076a32 32 0 0 1-22.698-9.408"/><path fill="#aaa6a8" d="M222.973 102.288a32 32 0 0 1-9.409 22.694 32.02 32.02 0 0 1-22.698 9.407v32.076c16.434 0 32.842-6.263 45.396-18.789 12.528-12.526 18.792-28.957 18.792-45.388Z"/><path fill="#3dce94" d="M271.944 38.11h-67.967v32.076h67.967Z"/><path fill="#3dce94" d="M255.058 88.571V20.616h-32.081V88.57Z"/><path fill="#aaa6a8" d="M255.065 140.584V102.27h-32.082v38.314Z"/><path fill="#aaa6a8" d="M255.068 166.448v-64.177h-19.959v64.177Z"/></g><defs><clipPath id="clip0_1396_253"><path fill="#fff" d="M0 0h311v345H0Z"/></clipPath></defs></svg>