<svg xmlns="http://www.w3.org/2000/svg" width="256" height="91" fill="none" viewBox="0 0 256 91"><path fill="#3dce94" d="M9.44 90.16q-2.784 0-4.896-.384-2.112-.288-3.648-.672V77.008a42 42 0 0 0 3.264.672q1.632.288 3.552.288 2.496 0 4.512-.96 2.112-.96 3.264-3.648t1.152-7.68V1.456h14.496v64.128q0 8.832-2.784 14.208-2.688 5.472-7.584 7.872Q15.872 90.16 9.44 90.16M99.013 70l-5.28-16.128H69.541L64.261 70h-15.84L72.517 1.168h18.048L114.853 70Zm-13.44-43.296q-.384-1.44-1.248-4.32a922894826026384.8 922894826026384.8 0 0 1-2.784-10.848q-.384 2.208-1.152 5.088a388.06 388.06 0 0 1-2.496 10.08l-4.896 14.88h17.376Zm87.013 24.288q0 6.048-2.976 10.56t-8.64 7.008q-5.568 2.4-13.632 2.4-3.552 0-7.008-.48a54 54 0 0 1-6.528-1.344 43 43 0 0 1-5.856-2.304V53.296a157 157 0 0 0 10.08 3.936q5.28 1.728 10.464 1.728 3.552 0 5.664-.96 2.208-.96 3.168-2.592 1.056-1.632 1.056-3.744 0-2.592-1.824-4.416-1.728-1.824-4.704-3.36a133 133 0 0 0-6.816-3.456q-2.4-1.152-5.184-2.688a34 34 0 0 1-5.376-3.936q-2.496-2.4-4.128-5.76t-1.632-8.064q0-6.144 2.784-10.464 2.88-4.416 8.064-6.72 5.28-2.304 12.384-2.304 5.376 0 10.176 1.248 4.896 1.248 10.176 3.552l-4.704 11.328q-4.704-1.92-8.448-2.976a28.2 28.2 0 0 0-7.68-1.056q-2.688 0-4.608.864t-2.976 2.4q-.96 1.536-.96 3.648 0 2.4 1.44 4.128 1.44 1.632 4.32 3.168t7.2 3.648q5.28 2.496 8.928 5.184 3.744 2.688 5.76 6.336t2.016 9.024m83.019-15.36q0 7.968-2.016 14.496-1.92 6.432-5.952 11.136-3.936 4.704-10.08 7.2t-14.592 2.496q-8.352 0-14.592-2.496-6.144-2.496-10.176-7.2-3.936-4.704-5.952-11.136-1.92-6.528-1.92-14.592 0-10.656 3.456-18.528 3.552-7.872 10.752-12.192Q211.829.4 223.061.4q11.136 0 18.336 4.416 7.296 4.32 10.752 12.288 3.456 7.872 3.456 18.528m-49.824 0q0 7.104 1.728 12.288 1.824 5.184 5.664 7.968 3.84 2.688 9.792 2.688 6.144 0 9.888-2.688 3.84-2.784 5.568-7.968t1.728-12.288q0-10.752-3.936-16.896t-13.152-6.144q-6.048 0-9.888 2.784t-5.664 7.968q-1.728 5.088-1.728 12.288"/></svg>