<svg xmlns="http://www.w3.org/2000/svg" width="1327" height="468" fill="none" viewBox="0 0 1327 468"><path fill="#f2f2f2" d="M44.5 468Q30 468 19 466q-11-1.5-19-3.5v-63q8 2 17 3.5 8.5 1.5 18.5 1.5 13 0 23.5-5 11-5 17-19t6-40V6h75.5v334q0 46-14.5 74-14 28.5-39.5 41-25.5 13-59 13m466.527-105-27.5-84h-126l-27.5 84h-82.5l125.5-358.5h94l126.5 358.5Zm-70-225.5q-2-7.5-6.5-22.5-4-15-8-30.5l-6.5-26q-2 11.5-6 26.5-3.5 15-7 29t-6 23.5l-25.5 77.5h90.5ZM894.219 264q0 31.5-15.5 55t-45 36.5q-29 12.5-71 12.5-18.5 0-36.5-2.5-17.5-2.5-34-7-16-5-30.5-12V276q25.5 11 52.5 20.5 27.5 9 54.5 9 18.5 0 29.5-5 11.499-5 16.5-13.5 5.5-8.5 5.5-19.5 0-13.5-9.5-23-9-9.5-24.5-17.5-15.5-8.5-35.5-18-12.501-6-27-14-14.5-8.5-28-20.5-13-12.5-21.5-30t-8.5-42q0-32 14.5-54.5 15-23 42-35 27.5-12 64.5-12 28 0 53 6.5 25.5 6.5 53 18.5l-24.5 59q-24.5-10-44-15.5t-40-5.5q-14.001 0-24 4.5t-15.5 12.5q-5 8-5 19 0 12.5 7.5 21.5 7.5 8.5 22.5 16.5t37.5 19q27.5 13 46.5 27 19.5 14 30 33t10.5 47m432.391-80q0 41.5-10.5 75.5c-6.67 22.333-17 41.667-31 58q-20.505 24.5-52.5 37.5c-21.33 8.667-46.67 13-76 13-29 0-54.33-4.333-76-13-21.33-8.667-39-21.167-53-37.5-13.67-16.333-24-35.667-31.001-58q-10-34-10-76 0-55.5 18.001-96.5c12.33-27.333 31-48.5 56-63.5 25.33-15.333 57.5-23 96.5-23 38.67 0 70.5 7.667 95.5 23 25.33 15 44 36.333 56 64q18 41 18 96.5m-259.5 0q0 37 9 64c6.33 18 16.17 31.833 29.5 41.5q19.995 14 51 14c21.33 0 38.5-4.667 51.5-14 13.33-9.667 23-23.5 29-41.5q9-27 9-64c0-37.333-6.83-66.667-20.5-88s-36.5-32-68.5-32c-21 0-38.17 4.833-51.5 14.5s-23.17 23.5-29.5 41.5q-9 26.5-9 64"/></svg>