<svg xmlns="http://www.w3.org/2000/svg" width="117" height="39" fill="none" viewBox="0 0 117 39"><g id="LOGO"><path id="Vector" fill="#aaa6a8" d="M18.362 0H3.227v6.674h15.135v18.093c0 5.437-2.084 7.333-6.262 7.333-2.61 0-5.282-1.502-7.473-4.354L0 32.666c3.214 4.606 8.107 6.323 12.348 6.323 10.38 0 13.984-6.14 13.984-13.567V7.976A7.97 7.97 0 0 0 18.362 0"/><path id="Vector_2" fill="#aaa6a8" d="M39.382 18.64a7.49 7.49 0 0 1 5.312-2.2V8.926a15 15 0 0 0-10.628 4.401 14.98 14.98 0 0 0-4.4 10.63h7.516a7.47 7.47 0 0 1 2.2-5.317"/><path id="Vector_3" fill="#aaa6a8" d="M39.382 29.27a7.5 7.5 0 0 1-2.2-5.313h-7.516c0 3.85 1.468 7.694 4.4 10.63a14.97 14.97 0 0 0 10.628 4.401V31.47a7.48 7.48 0 0 1-5.312-2.2"/><path id="Vector_4" fill="#aaa6a8" d="M52.206 23.958a7.48 7.48 0 0 1-2.2 5.313 7.49 7.49 0 0 1-5.312 2.2v7.518a15 15 0 0 0 10.628-4.401 15 15 0 0 0 4.4-10.63Z"/><path id="Vector_5" fill="#51b98b" d="M63.672 8.926H47.758v7.518h15.914Z"/><path id="Vector_6" fill="#51b98b" d="M59.723 20.742V4.825h-7.516v15.917Z"/><path id="Vector_7" fill="#aaa6a8" d="M59.72 32.928v-8.973h-7.516v8.973Z"/><path id="Vector_8" fill="#aaa6a8" d="M59.721 38.985V23.954h-4.674v15.031Z"/><path id="Vector_9" fill="#aaa6a8" d="M112.073 13.327C106.205 7.457 96.69 7.457 90.822 13.328s-5.869 15.387 0 21.257C96.69 40.453 106.205 40.453 112.073 34.583c5.872-5.87 5.872-15.387 0-21.257m-1.956 19.3c-4.79 4.79-12.55 4.786-17.335 0l17.335-17.339c4.785 4.787 4.789 12.548 0 17.339"/><path id="Vector_10" fill="#aaa6a8" d="M82.71.325c-10.379 0-13.983 6.14-13.983 13.568l.064 10.874c0 5.437-2.084 7.333-6.262 7.333-2.61 0-5.281-1.502-7.473-4.354l-4.627 4.92a14.6 14.6 0 0 0 2.727 2.958c.483-.89 1.267-1.696 2.217-1.91a.44.44 0 0 1 .526.3c.317 1.028.005 2.175-.586 3.074 2.41 1.336 5.042 1.896 7.465 1.896 10.38 0 13.983-6.139 13.983-13.567l-.064-10.874c0-5.437 2.084-7.333 6.262-7.333 1.99 0 4.015.877 5.838 2.555a19 19 0 0 1 5.907-3.588C91.502 1.932 86.807.326 82.71.326"/><path id="Vector_11" fill="#aaa6a8" d="M63.06 32.734h-8.013v6.25h8.013Z"/></g></svg>