<svg xmlns="http://www.w3.org/2000/svg" width="40" height="40" fill="none" viewBox="0 0 40 40"><rect width="38" height="38" x="1" y="1" fill="#fff" rx="19"/><rect width="38" height="38" x="1" y="1" stroke="#3dce94" stroke-width="2" rx="19"/><path stroke="#3dce94" stroke-linecap="round" stroke-linejoin="round" stroke-miterlimit="10" stroke-width="1.5" d="M29.092 28.903H11.128c-.376 0-.738-.41-.726-.829.112-4.419.476-8.862 1.076-13.241.04-.294.315-.502.66-.502h15.944c.345 0 .62.208.66.502.602 4.38.964 8.822 1.076 13.241.011.418-.35.829-.726.829"/><path stroke="#3dce94" stroke-linecap="round" stroke-linejoin="round" stroke-miterlimit="10" stroke-width="1.5" d="M17.32 14.333V11.52c0-1.423 1.265-2.578 2.826-2.578s2.826 1.155 2.826 2.578v2.816M17.32 17.752v2.816c0 1.423 1.265 2.578 2.826 2.578s2.826-1.155 2.826-2.578v-2.816"/></svg>