<svg width="39" height="11" viewBox="0 0 39 11" fill="none" xmlns="http://www.w3.org/2000/svg">
<path d="M13.3504 6.66981C13.0121 8.24544 16.7641 11.7504 20.8084 10.8562C23.8352 10.1862 26.2314 7.23048 25.6495 5.82449C24.6263 3.36328 13.8691 4.25748 13.3504 6.66981Z" fill="white"/>
<path d="M8.48059 1.4599C6.54012 -0.486634 3.39582 -0.486634 1.45535 1.4599C-0.485117 3.40644 -0.485117 6.56057 1.45535 8.50711C3.39582 10.4536 6.54012 10.4536 8.48059 8.50711C10.4182 6.56057 10.4182 3.40644 8.48059 1.4599ZM7.83282 7.85731C6.25063 9.44444 3.68531 9.44444 2.10313 7.85731L7.83282 2.1097C9.415 3.69684 9.415 6.27017 7.83282 7.85731Z" fill="white"/>
<path d="M37.5447 1.4599C35.6042 -0.486634 32.4599 -0.486634 30.5194 1.4599C28.579 3.40644 28.579 6.56057 30.5194 8.50711C32.4599 10.4536 35.6042 10.4536 37.5447 8.50711C39.4852 6.56057 39.4852 3.40644 37.5447 1.4599ZM36.8969 7.85731C35.3147 9.44444 32.7494 9.44444 31.1672 7.85731L36.8969 2.1097C38.4791 3.69684 38.4791 6.27017 36.8969 7.85731Z" fill="white"/>
</svg>
