<svg width="36" height="13" viewBox="0 0 36 13" fill="none" xmlns="http://www.w3.org/2000/svg">
<path d="M0.54491 12V0.363636H2.30059V5.42045H8.10173V0.363636H9.86309V12H8.10173V6.92614H2.30059V12H0.54491ZM15.6929 12.1761C14.8331 12.1761 14.0925 11.9924 13.4713 11.625C12.8539 11.2538 12.3766 10.733 12.0395 10.0625C11.7062 9.38826 11.5395 8.59848 11.5395 7.69318C11.5395 6.79924 11.7062 6.01136 12.0395 5.32955C12.3766 4.64773 12.8463 4.11553 13.4486 3.73295C14.0547 3.35038 14.763 3.15909 15.5736 3.15909C16.066 3.15909 16.5433 3.24053 17.0054 3.40341C17.4675 3.56629 17.8823 3.82197 18.2497 4.17045C18.6172 4.51894 18.9069 4.97159 19.119 5.52841C19.3312 6.08144 19.4372 6.75379 19.4372 7.54545V8.14773H12.4997V6.875H17.7725C17.7725 6.42803 17.6815 6.0322 17.4997 5.6875C17.3179 5.33902 17.0622 5.06439 16.7327 4.86364C16.4069 4.66288 16.0243 4.5625 15.585 4.5625C15.1077 4.5625 14.691 4.67992 14.335 4.91477C13.9827 5.14583 13.71 5.44886 13.5168 5.82386C13.3274 6.19508 13.2327 6.59848 13.2327 7.03409V8.02841C13.2327 8.61174 13.335 9.10795 13.5395 9.51705C13.7478 9.92614 14.0376 10.2386 14.4088 10.4545C14.78 10.6667 15.2137 10.7727 15.71 10.7727C16.0319 10.7727 16.3255 10.7273 16.5906 10.6364C16.8558 10.5417 17.085 10.4015 17.2781 10.2159C17.4713 10.0303 17.619 9.80114 17.7213 9.52841L19.3293 9.81818C19.2005 10.2917 18.9694 10.7064 18.6361 11.0625C18.3065 11.4148 17.8918 11.6894 17.3918 11.8864C16.8956 12.0795 16.3293 12.1761 15.6929 12.1761ZM22.669 0.363636V12H20.9702V0.363636H22.669ZM26.3014 0.363636V12H24.6025V0.363636H26.3014ZM31.9111 12.1761C31.0929 12.1761 30.3789 11.9886 29.769 11.6136C29.1592 11.2386 28.6857 10.714 28.3486 10.0398C28.0114 9.36553 27.8429 8.57765 27.8429 7.67614C27.8429 6.77083 28.0114 5.97917 28.3486 5.30114C28.6857 4.62311 29.1592 4.09659 29.769 3.72159C30.3789 3.34659 31.0929 3.15909 31.9111 3.15909C32.7292 3.15909 33.4433 3.34659 34.0531 3.72159C34.663 4.09659 35.1364 4.62311 35.4736 5.30114C35.8107 5.97917 35.9792 6.77083 35.9792 7.67614C35.9792 8.57765 35.8107 9.36553 35.4736 10.0398C35.1364 10.714 34.663 11.2386 34.0531 11.6136C33.4433 11.9886 32.7292 12.1761 31.9111 12.1761ZM31.9167 10.75C32.447 10.75 32.8864 10.6098 33.2349 10.3295C33.5834 10.0492 33.841 9.67614 34.0076 9.21023C34.1781 8.74432 34.2633 8.23106 34.2633 7.67045C34.2633 7.11364 34.1781 6.60227 34.0076 6.13636C33.841 5.66667 33.5834 5.28977 33.2349 5.00568C32.8864 4.72159 32.447 4.57955 31.9167 4.57955C31.3826 4.57955 30.9395 4.72159 30.5872 5.00568C30.2387 5.28977 29.9792 5.66667 29.8088 6.13636C29.6421 6.60227 29.5588 7.11364 29.5588 7.67045C29.5588 8.23106 29.6421 8.74432 29.8088 9.21023C29.9792 9.67614 30.2387 10.0492 30.5872 10.3295C30.9395 10.6098 31.3826 10.75 31.9167 10.75Z" fill="#3DCE94"/>
</svg>
