<svg width="120" height="120" viewBox="0 0 120 120" fill="none" xmlns="http://www.w3.org/2000/svg">
<path opacity="0.5" d="M23.73 58.46C35.1788 58.46 44.46 49.1788 44.46 37.73C44.46 26.2811 35.1788 17 23.73 17C12.2811 17 3 26.2811 3 37.73C3 49.1788 12.2811 58.46 23.73 58.46Z" fill="#3DCE94"/>
<path opacity="0.5" d="M95.5 112C105.165 112 113 104.165 113 94.5C113 84.835 105.165 77 95.5 77C85.835 77 78 84.835 78 94.5C78 104.165 85.835 112 95.5 112Z" fill="#3DCE94"/>
<path d="M98.9664 102.439C73.3064 102.439 47.6464 102.439 21.9764 102.439C20.3664 102.439 18.8164 100.679 18.8664 98.8893C19.3464 79.9493 20.9064 60.9093 23.4764 42.1393C23.6464 40.8793 24.8264 39.9893 26.3064 39.9893C49.0864 39.9893 71.8564 39.9893 94.6364 39.9893C96.1164 39.9893 97.2964 40.8793 97.4664 42.1393C100.046 60.9093 101.596 79.9493 102.076 98.8893C102.126 100.679 100.576 102.439 98.9664 102.439Z" stroke="#2A2324" stroke-width="7" stroke-miterlimit="10" stroke-linecap="round" stroke-linejoin="round"/>
<path d="M48.5164 39.9992V27.9392C48.5164 21.8392 53.9363 16.8892 60.6263 16.8892C67.3163 16.8892 72.7363 21.8392 72.7363 27.9392V40.0092" stroke="#2A2324" stroke-width="7" stroke-miterlimit="10" stroke-linecap="round" stroke-linejoin="round"/>
<path d="M60.7768 72C57.3554 72 55.1612 68.8096 54.8975 68.4026C54.4478 67.7134 54.6574 66.7976 55.3708 66.3611C56.0842 65.9245 57.024 66.128 57.4737 66.8206C57.5447 66.9289 59.225 69.4825 61.3651 68.9705C62.7242 68.6554 63.8432 67.2341 64.4383 66.0131C64.8 65.2746 65.7027 64.9563 66.4668 65.3075C67.2275 65.6587 67.552 66.5383 67.1937 67.2768C66.6358 68.4223 65.0198 71.1597 62.075 71.8457C61.6254 71.954 61.1926 72 60.7768 72Z" fill="#231815"/>
<path d="M43.859 71.3764C47.0945 71.3764 49.7181 68.8294 49.7181 65.6882H38C38 68.8294 40.6235 71.3764 43.859 71.3764Z" fill="#231815"/>
<path d="M78.1408 71.3764C81.3763 71.3764 83.9998 68.8294 83.9998 65.6882H72.2817C72.2817 68.8294 74.9053 71.3764 78.1408 71.3764Z" fill="#231815"/>
</svg>
