<svg width="120" height="120" viewBox="0 0 120 120" fill="none" xmlns="http://www.w3.org/2000/svg">
<path opacity="0.5" d="M101.855 39.8486C101.675 39.5686 101.495 39.2886 101.315 39.0086C99.0851 35.7586 95.8551 33.0486 91.5751 30.8786C85.2651 27.6886 78.9752 24.4486 72.6652 21.2486C64.4652 17.0886 56.1952 16.9786 47.9152 21.0286C41.2952 24.2686 34.7151 27.5586 28.1351 30.8586C23.7051 33.0786 20.3752 36.0286 18.1552 39.6886C18.1252 39.7386 18.0851 39.7986 18.0551 39.8486C18.0851 39.8986 18.1252 39.9586 18.1552 40.0086C20.3752 43.6686 23.7051 46.6186 28.1351 48.8386C34.7151 52.1386 41.3052 55.4286 47.9152 58.6686C56.1952 62.7186 64.4652 62.6086 72.6652 58.4486C78.9752 55.2486 85.2651 52.0186 91.5751 48.8186C95.8551 46.6486 99.0851 43.9386 101.315 40.6886C101.495 40.4086 101.675 40.1286 101.855 39.8486Z" fill="#3DCE94"/>
<path d="M14.8651 69.8586C14.8651 69.5286 14.8651 69.1986 14.8651 68.8686C14.9051 68.4086 14.9951 67.9486 14.9951 67.4886C15.0051 62.1586 15.0151 56.8286 15.0051 51.4986C15.0051 50.0086 15.0551 48.5186 15.3351 47.0486C16.7451 39.7986 21.0351 34.4086 28.1251 30.8586C34.7051 27.5586 41.2952 24.2686 47.9052 21.0286C56.1852 16.9786 64.4552 17.0886 72.6552 21.2486C78.9652 24.4486 85.2551 27.6786 91.5651 30.8786C100.595 35.4486 105.005 42.4486 104.985 51.7686C104.965 57.8886 104.945 64.0186 104.785 70.1286C104.575 78.2586 100.665 84.6186 92.9951 88.8186C87.0551 92.0586 80.8451 94.8886 74.8151 97.9886C70.9151 99.9986 66.9351 101.739 62.4251 102.249C60.6751 102.249 58.9152 102.249 57.1652 102.249C53.6352 101.759 50.3051 100.779 47.1851 99.1686C40.6851 95.8086 34.1451 92.5286 27.6451 89.1786C21.9051 86.2286 17.9851 81.9286 15.9851 76.1986C15.2751 74.1286 15.0551 71.9986 14.8651 69.8586Z" stroke="#2A2324" stroke-width="7" stroke-miterlimit="10"/>
<path d="M59.9351 102.249V61.6387" stroke="#2A2324" stroke-width="7" stroke-miterlimit="10"/>
<path d="M17.8151 40.2285C27.9951 46.2985 38.1652 52.3685 48.3452 58.4385C55.4852 62.6985 64.3851 62.6985 71.5251 58.4485C81.7151 52.3785 91.9052 46.2985 102.105 40.2285" stroke="#2A2324" stroke-width="7" stroke-miterlimit="10"/>
</svg>
