<svg width="120" height="120" viewBox="0 0 120 120" fill="none" xmlns="http://www.w3.org/2000/svg">
<path d="M59.6851 103.745C83.6874 103.745 103.145 84.287 103.145 60.2847C103.145 36.2824 83.6874 16.8247 59.6851 16.8247C35.6828 16.8247 16.2251 36.2824 16.2251 60.2847C16.2251 84.287 35.6828 103.745 59.6851 103.745Z" stroke="#2A2324" stroke-width="7" stroke-miterlimit="10" stroke-linecap="round" stroke-linejoin="round"/>
<path d="M63.6651 51.1649C64.8551 51.1649 65.8751 50.7449 66.7151 49.9049C67.5551 49.0649 67.9751 48.0449 67.9751 46.8549C67.9751 45.6649 67.5551 44.6449 66.7251 43.8049C65.8951 42.9649 64.8751 42.5449 63.6651 42.5449C62.4751 42.5449 61.4651 42.9649 60.6351 43.8049C59.8051 44.6449 59.3851 45.6649 59.3851 46.8549C59.3851 48.0449 59.8051 49.0649 60.6451 49.9049C61.4951 50.7449 62.4951 51.1649 63.6651 51.1649Z" fill="#2A2324"/>
<path d="M64.2051 75.8048C64.0551 75.8148 63.9451 75.8948 63.8951 75.9448C63.2951 76.4448 62.7551 77.4048 62.2151 78.1648C61.9951 78.4748 61.8551 78.6448 61.8051 78.6948C61.5151 79.0248 61.2151 79.2748 60.7951 79.6448C60.4651 79.9348 60.1351 80.0848 59.7951 80.0848C59.5951 80.0848 59.4151 79.9948 59.2351 79.8048C59.0551 79.6148 58.9751 79.4148 58.9751 79.2048C58.9751 78.8348 59.1451 78.0548 59.4751 76.8648C59.8251 75.6948 65.1351 57.6448 65.3251 56.7648C65.3451 56.6648 65.4151 56.3648 65.2551 56.1548C65.1251 55.9848 64.9051 55.9348 64.7251 55.9248C64.3951 55.9648 64.0551 55.9948 63.7251 56.0348L54.0751 57.6048C53.8951 57.6548 53.7951 57.7448 53.7451 57.7848C53.5351 57.9948 53.4651 58.3648 53.6151 58.6148C53.6751 58.7148 53.7551 58.7648 53.7751 58.7748C54.0051 58.9248 54.2751 58.8248 54.4651 58.7948C55.2351 58.6548 55.9451 59.2548 55.9851 59.2948C56.3551 59.6248 56.5451 60.0048 56.5451 60.4348C56.5451 61.1148 56.3451 62.1348 55.9551 63.4848L51.8851 77.4848C51.5551 78.5948 51.3851 79.5148 51.3851 80.2348C51.3851 81.3248 51.7651 82.2348 52.5151 82.9448C53.5551 83.9348 55.0451 83.9948 55.5451 84.0148C60.5451 84.2348 64.8551 77.0248 64.8351 76.4548C64.8351 76.3648 64.7951 76.2748 64.7951 76.2748C64.7251 76.0148 64.4551 75.7948 64.2051 75.8048Z" fill="#2A2324"/>
</svg>
