<svg width="120" height="120" viewBox="0 0 120 120" fill="none" xmlns="http://www.w3.org/2000/svg">
<g opacity="0.5">
<path d="M65.0598 106.39C61.8298 106.39 58.5998 106.39 55.3698 106.39C52.9898 106.09 50.5998 105.95 48.2198 105.59C40.0198 104.34 32.1798 101.97 24.9298 97.6701C20.1598 94.8401 15.9398 91.3301 12.7998 86.5201C10.5898 83.1501 9.36984 79.4101 9.08984 75.3301C9.08984 74.9501 9.08984 74.5701 9.08984 74.2001C9.16984 73.4201 9.22982 72.63 9.34982 71.85C10.0998 66.72 12.4498 62.4601 15.8998 58.8801C21.0898 53.5101 26.1598 48.0001 31.2498 42.5201C37.0098 36.3101 42.7298 30.0501 48.5598 23.9001C55.0998 17.0101 65.1798 17.0201 71.7298 23.9001C76.1198 28.5101 80.4099 33.2301 84.7498 37.9001C90.5698 44.1501 96.2898 50.52 102.28 56.61C106.88 61.29 110.5 66.3701 111.14 73.3001C111.14 74.3601 111.14 75.42 111.14 76.47C110.85 78.06 110.6 79.6601 110.07 81.1901C108.25 86.4301 104.95 90.49 100.82 93.84C92.7999 100.33 83.5199 103.57 73.6898 105.34C70.8298 105.85 67.9398 106.07 65.0598 106.39Z" fill="#3DCE94"/>
</g>
</svg>
