<svg width="120" height="120" viewBox="0 0 120 120" fill="none" xmlns="http://www.w3.org/2000/svg">
<path opacity="0.5" d="M44.1062 38.0947C43.1162 36.7847 41.7362 34.6547 40.8262 31.7247C40.8262 31.7247 39.8962 28.6947 39.8962 25.5547C39.8962 14.1047 49.1762 4.82471 60.6262 4.82471C72.0762 4.82471 81.3562 14.1047 81.3562 25.5547C81.3562 28.6847 80.4262 31.7247 80.4262 31.7247C79.5162 34.6447 78.1362 36.7847 77.1462 38.0947C66.1262 38.0947 55.1162 38.0947 44.1062 38.0947Z" fill="#3DCE94"/>
<path d="M98.9663 104.905C73.3063 104.905 47.6463 104.905 21.9763 104.905C20.3663 104.905 18.8163 103.145 18.8663 101.355C19.3463 82.4146 20.9063 63.3746 23.4763 44.6046C23.6463 43.3446 24.8263 42.4546 26.3063 42.4546C49.0863 42.4546 71.8563 42.4546 94.6363 42.4546C96.1163 42.4546 97.2963 43.3446 97.4663 44.6046C100.046 63.3746 101.596 82.4146 102.076 101.355C102.126 103.145 100.576 104.905 98.9663 104.905Z" stroke="#2A2324" stroke-width="7" stroke-miterlimit="10" stroke-linecap="round" stroke-linejoin="round"/>
<path d="M60.4763 44.3848V104.135" stroke="#2A2324" stroke-width="7" stroke-miterlimit="10" stroke-linecap="round" stroke-linejoin="round"/>
<path d="M99.7762 68.5044H21.1663" stroke="#2A2324" stroke-width="7" stroke-miterlimit="10" stroke-linecap="round" stroke-linejoin="round"/>
<path d="M60.6162 42.3847L57.2962 28.7947C55.8562 22.9147 50.3862 18.7047 44.3562 19.3247C42.6562 19.4947 41.0462 20.0247 39.6162 20.8947C39.5762 20.9247 39.5262 20.9447 39.4862 20.9747C35.1562 23.7247 35.6762 30.2347 40.2862 32.4847C47.0662 35.7947 53.8462 39.0847 60.6162 42.3847Z" stroke="#2A2324" stroke-width="7" stroke-miterlimit="10" stroke-linecap="round" stroke-linejoin="round"/>
<path d="M60.4763 42.3847L63.7963 28.7947C65.2363 22.9147 70.7063 18.7047 76.7363 19.3247C78.4363 19.4947 80.0463 20.0247 81.4763 20.8947C81.5163 20.9247 81.5663 20.9447 81.6063 20.9747C85.9363 23.7247 85.4163 30.2347 80.8063 32.4847C74.0263 35.7947 67.2463 39.0847 60.4763 42.3847Z" stroke="#2A2324" stroke-width="7" stroke-miterlimit="10" stroke-linecap="round" stroke-linejoin="round"/>
</svg>
