<svg width="121" height="120" viewBox="0 0 121 120" fill="none" xmlns="http://www.w3.org/2000/svg">
<path d="M72.0301 101.589H49.3501C26.2301 101.589 7.50006 82.8492 7.50006 59.7392C7.50006 36.6192 26.2401 17.8892 49.3501 17.8892H72.0301C95.1501 17.8892 113.88 36.6292 113.88 59.7392C113.89 82.8492 95.1501 101.589 72.0301 101.589Z" fill="#98E1C4"/>
<path d="M60.6899 40.5693V78.9193" stroke="#2A2324" stroke-width="7" stroke-miterlimit="10" stroke-linecap="round" stroke-linejoin="round"/>
<path d="M79.87 59.7393H41.51" stroke="#2A2324" stroke-width="7" stroke-miterlimit="10" stroke-linecap="round" stroke-linejoin="round"/>
<path d="M72.03 101.599H49.35C26.23 101.599 7.5 82.8594 7.5 59.7494C7.5 36.6294 26.24 17.8994 49.35 17.8994H72.03C95.15 17.8994 113.88 36.6394 113.88 59.7494C113.88 82.8594 95.14 101.599 72.03 101.599Z" stroke="#2A2324" stroke-width="7" stroke-miterlimit="10" stroke-linecap="round" stroke-linejoin="round"/>
</svg>
