<svg width="1342" height="1024" viewBox="0 0 1342 1024" fill="none" xmlns="http://www.w3.org/2000/svg">
<path d="M972.922 399.431L169 867.129L388.777 996L1171.01 535.542C1176.79 511.216 1168.6 498.377 1163.78 494.998C1115.58 466.487 1015.72 407.457 1001.84 399.431C987.959 391.406 976.778 396.087 972.922 399.431Z" fill="#F4EFEF" stroke="black" stroke-linejoin="round"/>
<path d="M366 785C382.24 791.859 450.1 831.858 482 851" stroke="black"/>
<path d="M451 734.857C467.24 741.82 535.1 782.425 567 801.857" stroke="black"/>
<path d="M536 685.714C552.24 692.573 620.1 732.572 652 751.714" stroke="black"/>
<path d="M621 636.571C637.24 643.43 705.1 683.429 737 702.571" stroke="black"/>
<path d="M706 587.428C722.24 594.287 790.1 634.287 822 653.428" stroke="black"/>
<path d="M791 537.286C807.38 544.248 875.825 584.854 908 604.286" stroke="black"/>
<path d="M877 487.143C893.1 494.106 960.375 534.711 992 554.143" stroke="black"/>
<path d="M961 437C977.24 443.963 1045.1 484.568 1077 504" stroke="black"/>
<path d="M341.037 967.974L1163 497" stroke="black"/>
<ellipse cx="535.093" cy="883.23" rx="17.7269" ry="12.8657" transform="rotate(-54.8943 535.093 883.23)" fill="#8FE3C1"/>
<ellipse cx="826.042" cy="715.487" rx="17.7269" ry="12.8657" transform="rotate(-54.8943 826.042 715.487)" fill="#8FE3C1"/>
<ellipse cx="973.554" cy="631.609" rx="17.7269" ry="12.8657" transform="rotate(-54.8943 973.554 631.609)" fill="#8FE3C1"/>
<ellipse cx="1118.17" cy="547.73" rx="17.7269" ry="12.8657" transform="rotate(-54.8943 1118.17 547.73)" fill="#8FE3C1"/>
<ellipse cx="681.423" cy="799.366" rx="17.7269" ry="12.8657" transform="rotate(-54.8943 681.423 799.366)" fill="#8FE3C1"/>
<path d="M975.119 445.886H1008.99L1012.37 523.785L989.889 540.122L964.43 523.785L975.119 445.886Z" fill="#8FE3C1"/>
<path d="M988.655 453.364L984.508 493.954L984.493 494.093L984.505 494.232L988.149 537.452L900.313 488.251L896.506 441.106L900.571 400.729L988.655 453.364Z" fill="#D9D9D9" stroke="#8FE3C1" stroke-width="3"/>
<mask id="path-18-inside-1_5187_5543" fill="white">
<path d="M1076.99 396.202L990.204 452.689L994.572 493.274L989.883 540.143L1076.88 487.196L1081.57 438.248L1076.99 396.202Z"/>
</mask>
<path d="M1076.99 396.202L990.204 452.689L994.572 493.274L989.883 540.143L1076.88 487.196L1081.57 438.248L1076.99 396.202Z" fill="#3DCE94"/>
<path d="M990.204 452.689L988.568 450.175L987.024 451.179L987.221 453.01L990.204 452.689ZM1076.99 396.202L1079.98 395.877L1079.45 391.025L1075.36 393.687L1076.99 396.202ZM1076.88 487.196L1078.44 489.759L1079.73 488.978L1079.87 487.482L1076.88 487.196ZM989.883 540.143L986.898 539.844L986.298 545.836L991.442 542.706L989.883 540.143ZM994.572 493.274L997.557 493.573C997.578 493.367 997.577 493.159 997.555 492.953L994.572 493.274ZM1081.57 438.248L1084.56 438.534C1084.58 438.331 1084.58 438.126 1084.55 437.924L1081.57 438.248ZM990.204 452.689L991.841 455.203L1078.63 398.716L1076.99 396.202L1075.36 393.687L988.568 450.175L990.204 452.689ZM1076.88 487.196L1075.32 484.633L988.323 537.58L989.883 540.143L991.442 542.706L1078.44 489.759L1076.88 487.196ZM989.883 540.143L992.868 540.441L997.557 493.573L994.572 493.274L991.587 492.976L986.898 539.844L989.883 540.143ZM994.572 493.274L997.555 492.953L993.187 452.368L990.204 452.689L987.221 453.01L991.589 493.595L994.572 493.274ZM1076.99 396.202L1074.01 396.526L1078.59 438.573L1081.57 438.248L1084.55 437.924L1079.98 395.877L1076.99 396.202ZM1081.57 438.248L1078.59 437.962L1073.9 486.91L1076.88 487.196L1079.87 487.482L1084.56 438.534L1081.57 438.248Z" fill="#8FE3C1" mask="url(#path-18-inside-1_5187_5543)"/>
<path d="M1074.42 396.299L990.274 450.987L902.244 398.27L990.305 347.489L1074.42 396.299Z" fill="#D9D9D9" stroke="#8FE3C1" stroke-width="3"/>
<path d="M902 303V386.316" stroke="black"/>
<path d="M1070 285V368.316" stroke="black"/>
<path d="M1042 243V326.316" stroke="black"/>
</svg>
