<svg width="1342" height="1024" viewBox="0 0 1342 1024" fill="none" xmlns="http://www.w3.org/2000/svg">
<path d="M972.922 399.431L169 867.129L388.777 996L1171.01 535.542C1176.79 511.216 1168.6 498.377 1163.78 494.998C1115.58 466.487 1015.72 407.457 1001.84 399.431C987.959 391.406 976.778 396.087 972.922 399.431Z" fill="#F4EFEF" stroke="black" stroke-linejoin="round"/>
<path d="M759 554C775.24 560.859 843.1 600.858 875 620" stroke="black"/>
<path d="M249 850.714C265.24 857.677 333.1 898.282 365 917.714" stroke="black"/>
<path d="M844 504C860.24 510.963 928.1 551.568 960 571" stroke="black"/>
<path d="M334 801.571C350.24 808.43 418.1 848.429 450 867.571" stroke="black"/>
<path d="M929 455C945.24 461.859 1013.1 501.858 1045 521" stroke="black"/>
<path d="M419 752.428C435.24 759.287 503.1 799.286 535 818.428" stroke="black"/>
<path d="M504 703.286C520.24 710.144 588.1 750.144 620 769.286" stroke="black"/>
<path d="M589 653.143C605.38 660.105 673.825 700.711 706 720.143" stroke="black"/>
<path d="M675 603C691.1 609.963 758.375 650.568 790 670" stroke="black"/>
<path d="M341.037 967.974L1163 497" stroke="black"/>
<ellipse cx="535.093" cy="883.231" rx="17.7269" ry="12.8657" transform="rotate(-54.8943 535.093 883.231)" fill="#8FE3C1"/>
<ellipse cx="826.042" cy="715.487" rx="17.7269" ry="12.8657" transform="rotate(-54.8943 826.042 715.487)" fill="#8FE3C1"/>
<ellipse cx="973.554" cy="631.609" rx="17.7269" ry="12.8657" transform="rotate(-54.8943 973.554 631.609)" fill="#8FE3C1"/>
<ellipse cx="1118.17" cy="547.73" rx="17.7269" ry="12.8657" transform="rotate(-54.8943 1118.17 547.73)" fill="#8FE3C1"/>
<ellipse cx="681.423" cy="799.366" rx="17.7269" ry="12.8657" transform="rotate(-54.8943 681.423 799.366)" fill="#8FE3C1"/>
<path d="M362.451 795.896V894.439L274.451 845.146V742.66L362.451 795.896Z" fill="#D9D9D9" stroke="#8FE3C1" stroke-width="3"/>
<path d="M449.451 843.209L365.451 894.33V795.915L449.451 740.778V843.209Z" fill="#3DCE94" stroke="#8FE3C1" stroke-width="3"/>
<path d="M448.086 738.544L363.94 793.231L275.91 740.515L363.971 689.733L448.086 738.544Z" fill="#D9D9D9" stroke="#8FE3C1" stroke-width="3"/>
<path d="M682.433 654.297L616.132 644.664C611.507 643.991 606.806 643.914 602.16 644.435C563.205 648.783 524.247 653.129 485.292 657.477C481.526 657.898 478.691 660.839 478.691 664.333V722.884C478.691 725.049 480.154 726.987 482.363 727.738C516.644 739.434 550.921 751.128 585.202 762.824C591.026 764.811 597.511 764.319 602.902 761.482C630.955 746.721 659.008 731.957 687.061 717.196C688.689 716.339 689.691 714.74 689.681 713.016C689.582 695.926 689.484 678.832 689.382 661.742C689.361 658.027 686.417 654.876 682.433 654.297Z" fill="#E5CA9A"/>
<path d="M478.691 663.566V723.376C478.691 725.123 479.806 726.68 481.473 727.252C516.598 739.308 551.723 751.364 586.845 763.416C589.528 764.335 592.324 762.358 592.324 759.54V681.55C592.324 679.553 590.875 677.848 588.895 677.508L483.52 659.525C480.998 659.095 478.691 661.023 478.691 663.566Z" fill="url(#paint0_radial_5187_5595)"/>
<path d="M595.443 681.285V758.269C595.443 761.355 598.746 763.336 601.496 761.896C630.16 746.905 658.825 731.912 687.486 716.921C688.854 716.206 689.709 714.789 689.691 713.252C689.509 695.845 689.329 678.437 689.146 661.027C689.118 658.396 686.639 656.471 684.061 657.079L598.612 677.295C596.759 677.735 595.443 679.385 595.443 681.285Z" fill="url(#paint1_radial_5187_5595)"/>
<path d="M602.311 644.405L485.232 657.632L593.055 674.998C593.579 675.082 594.117 675.066 594.638 674.946L684.367 654.562L617.851 644.677C612.707 643.914 607.481 643.823 602.311 644.405Z" fill="url(#paint2_radial_5187_5595)"/>
<path d="M529.459 716.772C525.901 715.827 523.622 711.699 523.344 711.175C522.876 710.288 523.094 709.34 523.833 709.052C524.575 708.767 525.552 709.253 526.02 710.139C526.094 710.278 527.838 713.559 530.068 713.588C531.482 713.614 532.646 712.359 533.265 711.175C533.637 710.46 534.58 710.356 535.375 710.958C536.166 711.553 536.503 712.618 536.131 713.333C535.55 714.443 533.873 717.018 530.806 716.96C530.342 716.957 529.892 716.889 529.459 716.772Z" fill="#FF9A00"/>
<path d="M511.864 711.405C515.23 712.301 517.958 710.214 517.958 706.745L505.77 703.503C505.77 706.972 508.499 710.508 511.864 711.405Z" fill="#FF9A00"/>
<path d="M547.52 720.885C550.886 721.781 553.615 719.694 553.615 716.225L541.426 712.983C541.426 716.452 544.151 719.988 547.52 720.885Z" fill="#FF9A00"/>
<path d="M838.849 526.99C838.358 521.271 836.751 516.706 835.375 513.633C835.583 511.486 835.73 506.942 833.505 501.879C830.951 496.065 826.747 492.921 824.957 491.728C821.533 482.458 816.904 478.662 813.336 476.904C811.406 475.953 804.991 472.031 798.243 473.564C785.678 476.42 786.394 494.504 774.53 500.738C768.484 503.914 758.357 504.44 740.363 493.795C730.71 491.63 721.481 495.058 717.495 501.879C714.782 506.521 715.26 511.436 715.625 513.633C714.249 516.703 712.645 521.271 712.151 526.99C711.403 535.674 713.603 542.558 715.088 546.221C713.849 559.986 717.663 568.333 720.081 572.396C725.762 581.94 732.58 587.673 732.58 587.673C733.962 589.876 735.935 593.367 737.58 597.95C739.458 603.174 739.156 604.932 740.637 607.672C743.83 613.584 750.778 615.644 754.802 616.837C766.901 620.423 771.821 615.174 779.523 619.893C784.727 623.082 783.951 626.377 788.134 627.391C797.093 629.563 807.125 616.005 808.132 614.616C812.051 609.202 813.736 603.848 814.522 600.451C819.357 594.876 826.235 585.539 830.909 572.399C834.596 562.038 835.667 552.811 835.902 546.225C837.397 542.558 839.597 535.674 838.849 526.99Z" fill="url(#paint3_radial_5187_5595)"/>
<path d="M750.364 586.283C753.68 581.936 757.231 576.449 760.301 569.761C761.635 566.856 762.726 564.056 763.617 561.421C763.017 561.635 762.417 561.849 761.817 562.066C761.512 562.895 761.136 563.796 760.68 564.744C760.213 565.712 759.673 566.712 759.038 567.719C755.554 573.242 750.859 576.564 747.314 578.508C748.329 581.101 749.346 583.69 750.364 586.283Z" fill="url(#paint4_radial_5187_5595)"/>
<path d="M745.085 587.396C740.668 584.421 733.874 578.877 729.162 569.765C727.632 566.807 726.579 563.972 725.846 561.425C726.446 561.639 727.046 561.853 727.646 562.07C728.969 565.197 731.299 569.656 735.362 574.067C738.306 577.259 741.296 579.491 743.696 581.01C744.159 583.136 744.622 585.266 745.085 587.396Z" fill="url(#paint5_radial_5187_5595)"/>
<path d="M739.531 559.621C735.728 553.948 731.499 546.436 728.141 537.124C726.127 531.538 724.794 526.324 723.902 521.707C724.502 521.921 725.102 522.135 725.702 522.352C726.878 526.552 728.738 531.769 731.752 537.404C734.675 542.867 737.872 547.2 740.64 550.457C740.272 553.509 739.9 556.565 739.531 559.621Z" fill="url(#paint6_radial_5187_5595)"/>
<path d="M800.639 585.729C796.766 581.217 792.449 575.2 788.884 567.54C787.53 564.632 786.442 561.832 785.568 559.2C786.168 559.414 786.768 559.628 787.368 559.846C787.674 560.674 788.049 561.576 788.505 562.523C788.505 562.523 789.214 563.99 790.148 565.498C791.344 567.425 795.716 572.554 802.303 578.786C801.752 581.101 801.194 583.414 800.639 585.729Z" fill="url(#paint7_radial_5187_5595)"/>
<path d="M807.585 522.959C810.547 517.71 813.627 510.872 815.575 502.549C816.249 499.665 816.715 496.921 817.028 494.353C816.379 494.444 815.733 494.539 815.084 494.63C815.014 496.402 814.792 498.381 814.308 500.507C812.701 507.574 809.024 512.591 806.473 515.461C806.845 517.959 807.213 520.458 807.585 522.959Z" fill="url(#paint8_radial_5187_5595)"/>
<path d="M810.917 554.621C813.868 551.509 818.1 546.278 821.195 538.79C824.873 529.892 825.224 521.966 825.083 517.405C824.529 517.496 823.971 517.591 823.416 517.682C823.146 521.356 822.237 527.299 818.971 533.79C816.311 539.081 813.047 542.822 810.637 545.179C810.731 548.327 810.823 551.474 810.917 554.621Z" fill="url(#paint9_radial_5187_5595)"/>
<path d="M805.082 585.729C808.742 583.287 815.423 578.087 820.083 569.063C822.841 563.719 824.006 558.755 824.529 555.176C823.88 555.453 823.234 555.73 822.585 556.007C821.929 558.663 820.672 562.383 818.139 566.284C814.314 572.179 809.524 575.491 806.749 577.115C806.194 579.989 805.64 582.859 805.082 585.729Z" fill="url(#paint10_radial_5187_5595)"/>
<path d="M805.083 552.955C805.434 544.285 804.929 538.131 804.251 529.903C802.855 512.952 800.149 499.069 797.862 489.353C798.234 488.522 798.602 487.687 798.974 486.855C806.834 509.644 821.793 564.116 796.476 615.728C792.76 623.303 788.51 630.135 783.977 636.282C782.124 632.022 780.275 627.763 778.422 623.507C780.201 621.633 782.415 619.146 784.949 615.721C784.949 615.721 789.63 609.493 793.37 602.329C797.697 594.045 803.287 576.438 805.083 552.955Z" fill="url(#paint11_radial_5187_5595)"/>
<path d="M756.476 506.016C754.718 505.089 752.956 504.163 751.198 503.237C748.138 509.633 724.968 560.014 750.366 601.837C756.44 611.837 764.062 619.325 771.476 624.889C770.922 619.889 770.364 614.89 769.81 609.89C763.813 604.869 759.549 599.648 756.476 594.89C733.46 559.298 753.282 513.159 756.476 506.016Z" fill="url(#paint12_radial_5187_5595)"/>
<path d="M768.694 611.837C768.062 611.837 767.459 611.57 767.038 611.093C760.781 604.079 757.321 596.915 756.76 589.792C756.693 588.964 756.669 588.15 756.644 587.364C756.56 584.782 756.483 582.343 755.048 579.512C753.658 576.768 751.823 575.308 749.496 573.459C748.872 572.961 748.223 572.445 747.542 571.873C747.251 571.631 740.366 565.786 734.562 556.032C730.218 548.734 728.376 539.415 729.218 529.054C726.755 522.752 725.755 515.931 726.323 509.296C726.723 504.637 727.878 500.083 729.748 495.753C729.523 492.69 729.755 488.244 731.846 483.483C734.183 478.167 737.783 474.778 740.598 472.789C743.521 465.217 747.714 460.045 753.069 457.407C755.858 456.031 757.988 455.824 760.241 455.603C762.339 455.396 764.718 455.165 768.452 453.947C772.564 452.607 774.863 451.21 776.709 450.091C778.554 448.968 780.151 448 782.379 448C782.842 448 783.309 448.042 783.807 448.126C791.657 449.47 795.531 459.933 797.847 466.185C800.184 472.494 801.296 479.171 801.163 486.037C802.156 488.185 802.9 490.437 803.377 492.739C804.163 496.535 804.222 500.412 803.559 504.279C805.166 506.577 806.43 509.075 807.314 511.717C808.781 516.089 809.181 520.829 808.486 525.492C812.283 530.829 817.578 540.622 814.977 551.155C814.918 551.397 814.816 551.628 814.679 551.839C810.858 557.681 806.521 562.646 801.78 566.6C798.885 569.017 796.615 570.982 792.095 574.901C787.836 578.593 787.404 579.045 787.099 579.708C786.179 581.705 786.607 583.413 787.509 586.505C788.099 588.522 788.765 590.81 788.962 593.62C789.323 598.792 787.916 604.171 784.783 609.606C784.418 610.241 783.762 610.655 783.032 610.711L768.866 611.823C768.813 611.834 768.754 611.837 768.694 611.837Z" fill="url(#paint13_radial_5187_5595)"/>
<path d="M755.389 508.556C758.596 511.131 761.772 512.559 764.07 513.363C764.158 512.072 764.249 510.78 764.337 509.489C762.435 509.121 759.294 508.258 756.056 506.016C751.848 503.107 749.743 499.444 748.841 497.602C748.041 497.202 747.238 496.802 746.438 496.398C747.532 499.118 750.038 504.258 755.389 508.556Z" fill="url(#paint14_radial_5187_5595)"/>
<path d="M772.887 490.125C775.318 489.634 778.705 488.669 782.371 486.651C785.561 484.897 787.94 482.911 789.586 481.308C788.961 481.174 788.34 481.041 787.716 480.908C786.323 481.992 784.547 483.181 782.371 484.248C778.88 485.957 775.659 486.708 773.29 487.051C773.153 488.076 773.02 489.1 772.887 490.125Z" fill="url(#paint15_radial_5187_5595)"/>
<path d="M771.818 536.604C771.997 539.099 772.176 541.59 772.352 544.085C775.664 543.011 780.696 540.941 785.844 536.871C791.318 532.545 794.595 527.801 796.395 524.717C795.462 524.938 794.525 525.162 793.592 525.383C791.342 527.903 787.118 531.92 780.636 534.464C777.296 535.78 774.236 536.355 771.818 536.604Z" fill="url(#paint16_radial_5187_5595)"/>
<path d="M770.484 509.759C770.351 510.917 770.217 512.075 770.084 513.233C772.603 512.496 775.533 511.405 778.632 509.759C784.713 506.532 788.931 502.504 791.587 499.476C790.829 499.697 790.075 499.921 789.317 500.142C786.562 502.416 782.751 505.065 777.828 507.219C775.186 508.381 772.698 509.188 770.484 509.759Z" fill="url(#paint17_radial_5187_5595)"/>
<path d="M796.502 543.576C794.67 546.6 790.905 551.863 784.252 555.842C780.519 558.077 776.985 559.242 774.301 559.884C774.543 562.361 774.782 564.842 775.024 567.319C778.417 565.747 782.824 563.252 787.27 559.323C793.898 553.46 797.572 547.077 799.516 542.969C798.513 543.172 797.506 543.376 796.502 543.576Z" fill="url(#paint18_radial_5187_5595)"/>
<path d="M759.396 484.115C762.312 487.473 765.775 488.81 767.41 489.325C767.677 488.346 767.944 487.368 768.21 486.389C766.817 486.062 763.821 485.157 761.133 482.515C757.438 478.887 756.848 474.459 756.725 473.164C756.192 472.719 755.655 472.273 755.122 471.828C755.076 473.28 755.059 479.122 759.396 484.115Z" fill="url(#paint19_radial_5187_5595)"/>
<path d="M766.476 544.485C766.119 541.723 765.764 538.966 765.406 536.204C763.006 535.348 760.125 534.054 757.125 532.064C751.188 528.127 747.609 523.342 745.637 520.177C744.791 520.131 743.945 520.089 743.1 520.043C745.352 524.433 749.156 530.52 755.388 536.338C759.322 540.008 763.217 542.629 766.476 544.485Z" fill="url(#paint20_radial_5187_5595)"/>
<path d="M768.48 560.375C764.883 558.86 760.767 556.797 756.458 553.965C749.476 549.372 744.37 544.327 740.829 540.208C740.029 540.162 739.226 540.12 738.426 540.074C741.247 544.846 746.096 551.691 753.921 557.972C759.434 562.396 764.799 565.231 769.014 567.052C768.835 564.828 768.659 562.603 768.48 560.375Z" fill="url(#paint21_radial_5187_5595)"/>
<path d="M770.365 511.851C770.221 495.911 773.291 482.248 773.291 482.248C775.126 474.076 777.481 467.592 779.169 463.417L777.565 463.017C775.934 466.656 773.579 472.269 771.288 479.311C771.288 479.311 766.484 494.076 764.256 511.577C762.01 529.208 761.817 580.199 767.059 648.962C767.561 655.52 773.288 660.551 779.839 659.951C780.014 659.934 780.19 659.916 780.365 659.895C780.541 659.874 780.72 659.846 780.892 659.818C788.506 658.576 793.384 650.997 791.64 643.482C772.554 561.288 770.498 526.801 770.365 511.851Z" fill="url(#paint22_radial_5187_5595)"/>
<path d="M766.403 523.847C766.248 525.363 770.154 528.257 773.87 526.994C776.653 526.047 778.6 523.019 777.905 521.759C776.684 519.552 766.641 521.524 766.403 523.847Z" fill="#534741"/>
<path d="M761.265 519.464C759.233 517.84 756.268 518.173 754.644 520.205C753.019 522.236 753.352 525.201 755.384 526.826C757.416 528.45 760.381 528.117 762.006 526.085C763.63 524.054 763.3 521.089 761.265 519.464ZM761.328 525.545C760.002 527.205 757.584 527.471 755.928 526.148L760.725 520.145C762.384 521.468 762.655 523.885 761.328 525.545Z" fill="#534741"/>
<path d="M788.658 516.405C786.626 514.78 783.661 515.114 782.036 517.145C780.412 519.177 780.745 522.141 782.777 523.766C784.808 525.391 787.773 525.057 789.398 523.026C791.023 520.991 790.689 518.029 788.658 516.405ZM788.721 522.482C787.394 524.141 784.977 524.408 783.321 523.085L788.117 517.082C789.774 518.408 790.044 520.826 788.721 522.482Z" fill="#534741"/>
<path d="M942.546 156.367C942.972 155.457 945.578 149.626 942.775 143.334C940.76 138.819 937.119 136.66 935.862 135.989C934.693 136.052 930.551 136.411 927.291 139.697C924.575 142.432 922.237 147.438 924.269 152.034C926.854 157.876 934.341 158.164 935.365 158.189C938.672 158.262 941.229 157.093 942.546 156.367Z" fill="url(#paint23_linear_5187_5595)"/>
<path d="M953.312 83.9646C952.164 81.2121 950.568 76.3635 950.846 70.2721C951.012 66.6418 951.449 57.1483 958.946 50.9621C966.197 44.976 977.219 44.4247 985.358 49.2066C992.147 53.1985 994.781 59.6375 995.57 61.8459C992.573 65.7009 987.478 71.2516 979.723 75.8895C968.986 82.3145 958.728 83.6522 953.312 83.9646Z" fill="url(#paint24_linear_5187_5595)"/>
<path d="M1007.97 192.16C991.852 196.605 971.501 196.005 956.816 189.13C938.926 180.757 933.925 164.161 933.989 149.506C934.802 134.75 936.958 120.134 940.542 105.606C945.205 90.8985 953.664 76.5951 969.993 66.9752C980.442 60.8205 993 57.1306 1006.28 60.0587C1017.51 63.6047 1023.36 72.1889 1027.28 80.1903C1032.25 90.3333 1035.28 100.694 1036.19 111.494C1037.03 120.689 1038.94 129.634 1041.97 138.573C1050.22 160.597 1038.15 184.064 1007.97 192.16Z" fill="url(#paint25_radial_5187_5595)"/>
<path d="M1025.5 101.519C1023.88 101.21 1017.17 99.7393 1012.47 93.4442C1006.75 85.7693 1008.66 77.129 1008.95 75.8896C1012.05 69.1768 1019 65.2691 1025.88 66.2136C1033.36 67.2387 1037.87 73.6146 1039.24 79.0494C1041.57 88.2972 1034.94 95.3822 1034 96.3512C1030.91 99.5462 1027.42 100.922 1025.5 101.519Z" fill="url(#paint26_linear_5187_5595)"/>
<path d="M983.027 124.309C982.692 125.854 986.394 129.287 990.38 128.409C993.363 127.753 995.729 124.856 995.152 123.48C994.144 121.068 983.538 121.942 983.027 124.309Z" fill="#F37343"/>
<path d="M978.222 119.204C976.31 117.297 973.208 117.297 971.295 119.204C969.383 121.11 969.383 124.203 971.295 126.11C973.208 128.016 976.31 128.016 978.222 126.11C980.135 124.203 980.135 121.11 978.222 119.204ZM977.585 125.474C976.025 127.03 973.496 127.03 971.936 125.474L977.585 119.843C979.145 121.395 979.145 123.915 977.585 125.474Z" fill="#F37343"/>
<path d="M1006.88 119.204C1004.97 117.297 1001.87 117.297 999.954 119.204C998.041 121.11 998.041 124.203 999.954 126.11C1001.87 128.016 1004.97 128.016 1006.88 126.11C1008.79 124.203 1008.79 121.11 1006.88 119.204ZM1006.24 125.474C1004.68 127.03 1002.15 127.03 1000.59 125.474L1006.24 119.843C1007.8 121.395 1007.8 123.915 1006.24 125.474Z" fill="#F37343"/>
<defs>
<radialGradient id="paint0_radial_5187_5595" cx="0" cy="0" r="1" gradientUnits="userSpaceOnUse" gradientTransform="translate(535.505 711.551) scale(83.69 76.9994)">
<stop stop-color="#F3EBD9"/>
<stop offset="0.4134" stop-color="#F4EAD7"/>
<stop offset="0.6395" stop-color="#F6E7CF"/>
<stop offset="0.8198" stop-color="#F9E2C1"/>
<stop offset="0.9759" stop-color="#FEDAAE"/>
<stop offset="1" stop-color="#FFD9AA"/>
</radialGradient>
<radialGradient id="paint1_radial_5187_5595" cx="0" cy="0" r="1" gradientUnits="userSpaceOnUse" gradientTransform="translate(642.563 709.667) scale(85.7124 78.8602)">
<stop stop-color="#F3EBD9"/>
<stop offset="0.4134" stop-color="#F4EAD7"/>
<stop offset="0.6395" stop-color="#F6E7CF"/>
<stop offset="0.8198" stop-color="#F9E2C1"/>
<stop offset="0.9759" stop-color="#FEDAAE"/>
<stop offset="1" stop-color="#FFD9AA"/>
</radialGradient>
<radialGradient id="paint2_radial_5187_5595" cx="0" cy="0" r="1" gradientUnits="userSpaceOnUse" gradientTransform="translate(584.796 659.537) scale(102.408 94.2215)">
<stop stop-color="#F3EBDA"/>
<stop offset="0.416" stop-color="#F4EAD8"/>
<stop offset="0.6436" stop-color="#F6E7D0"/>
<stop offset="0.825" stop-color="#F9E2C2"/>
<stop offset="0.9821" stop-color="#FEDBAF"/>
<stop offset="1" stop-color="#FFDAAC"/>
</radialGradient>
<radialGradient id="paint3_radial_5187_5595" cx="0" cy="0" r="1" gradientUnits="userSpaceOnUse" gradientTransform="translate(775.502 550.413) scale(70.6889 94.1068)">
<stop stop-color="#5AA668"/>
<stop offset="0.4873" stop-color="#56965F"/>
<stop offset="1" stop-color="#508054"/>
</radialGradient>
<radialGradient id="paint4_radial_5187_5595" cx="0" cy="0" r="1" gradientUnits="userSpaceOnUse" gradientTransform="translate(817.422 705.298) rotate(-128.456) scale(35.975 62.9218)">
<stop stop-color="#C8DE90"/>
<stop offset="0.457" stop-color="#B8DE8E"/>
<stop offset="1" stop-color="#9FDE8C"/>
</radialGradient>
<radialGradient id="paint5_radial_5187_5595" cx="0" cy="0" r="1" gradientUnits="userSpaceOnUse" gradientTransform="translate(711.767 687.902) rotate(-51.5441) scale(28.3163 49.5264)">
<stop stop-color="#C8DE90"/>
<stop offset="0.457" stop-color="#B8DE8E"/>
<stop offset="1" stop-color="#9FDE8C"/>
</radialGradient>
<radialGradient id="paint6_radial_5187_5595" cx="0" cy="0" r="1" gradientUnits="userSpaceOnUse" gradientTransform="translate(599.798 766.727) rotate(-51.5441) scale(65.1419 113.936)">
<stop stop-color="#C8DE90"/>
<stop offset="0.457" stop-color="#B8DE8E"/>
<stop offset="1" stop-color="#9FDE8C"/>
</radialGradient>
<radialGradient id="paint7_radial_5187_5595" cx="0" cy="0" r="1" gradientUnits="userSpaceOnUse" gradientTransform="translate(743.397 701.73) rotate(-51.5441) scale(34.2959 59.9849)">
<stop stop-color="#C8DE90"/>
<stop offset="0.457" stop-color="#B8DE8E"/>
<stop offset="1" stop-color="#9FDE8C"/>
</radialGradient>
<radialGradient id="paint8_radial_5187_5595" cx="0" cy="0" r="1" gradientUnits="userSpaceOnUse" gradientTransform="translate(945.688 703.977) rotate(-128.456) scale(59.0661 103.309)">
<stop stop-color="#C8DE90"/>
<stop offset="0.457" stop-color="#B8DE8E"/>
<stop offset="1" stop-color="#9FDE8C"/>
</radialGradient>
<radialGradient id="paint9_radial_5187_5595" cx="0" cy="0" r="1" gradientUnits="userSpaceOnUse" gradientTransform="translate(963.412 769.435) rotate(-128.456) scale(68.538 119.876)">
<stop stop-color="#C8DE90"/>
<stop offset="0.457" stop-color="#B8DE8E"/>
<stop offset="1" stop-color="#9FDE8C"/>
</radialGradient>
<radialGradient id="paint10_radial_5187_5595" cx="0" cy="0" r="1" gradientUnits="userSpaceOnUse" gradientTransform="translate(869.917 721.429) rotate(-128.456) scale(39.5935 69.2507)">
<stop stop-color="#C8DE90"/>
<stop offset="0.457" stop-color="#B8DE8E"/>
<stop offset="1" stop-color="#9FDE8C"/>
</radialGradient>
<radialGradient id="paint11_radial_5187_5595" cx="0" cy="0" r="1" gradientUnits="userSpaceOnUse" gradientTransform="translate(783.923 624.599) rotate(-79.8736) scale(99.7421 132.815)">
<stop stop-color="#C8DE90"/>
<stop offset="0.457" stop-color="#B8DE8E"/>
<stop offset="1" stop-color="#9FDE8C"/>
</radialGradient>
<radialGradient id="paint12_radial_5187_5595" cx="0" cy="0" r="1" gradientUnits="userSpaceOnUse" gradientTransform="translate(764.006 617.702) rotate(-100.126) scale(93.9671 125.125)">
<stop stop-color="#C8DE90"/>
<stop offset="0.457" stop-color="#B8DE8E"/>
<stop offset="1" stop-color="#9FDE8C"/>
</radialGradient>
<radialGradient id="paint13_radial_5187_5595" cx="0" cy="0" r="1" gradientUnits="userSpaceOnUse" gradientTransform="translate(770.921 529.906) scale(59.4443 91.0948)">
<stop stop-color="#4CCC4F"/>
<stop offset="0.4873" stop-color="#56BC5E"/>
<stop offset="1" stop-color="#64A671"/>
</radialGradient>
<radialGradient id="paint14_radial_5187_5595" cx="0" cy="0" r="1" gradientUnits="userSpaceOnUse" gradientTransform="translate(766.67 574.825) rotate(-96.6708) scale(22.4088 39.2001)">
<stop stop-color="#E6FFA6"/>
<stop offset="0.4072" stop-color="#D6FFA4"/>
<stop offset="1" stop-color="#B7FFA1"/>
</radialGradient>
<radialGradient id="paint15_radial_5187_5595" cx="0" cy="0" r="1" gradientUnits="userSpaceOnUse" gradientTransform="translate(766.668 574.825) rotate(-96.6708) scale(22.4087 39.2)">
<stop stop-color="#E6FFA6"/>
<stop offset="0.4072" stop-color="#D6FFA4"/>
<stop offset="1" stop-color="#B7FFA1"/>
</radialGradient>
<radialGradient id="paint16_radial_5187_5595" cx="0" cy="0" r="1" gradientUnits="userSpaceOnUse" gradientTransform="translate(766.67 574.825) rotate(-96.6708) scale(22.4088 39.2001)">
<stop stop-color="#E6FFA6"/>
<stop offset="0.4072" stop-color="#D6FFA4"/>
<stop offset="1" stop-color="#B7FFA1"/>
</radialGradient>
<radialGradient id="paint17_radial_5187_5595" cx="0" cy="0" r="1" gradientUnits="userSpaceOnUse" gradientTransform="translate(766.669 574.825) rotate(-96.6708) scale(22.4088 39.2001)">
<stop stop-color="#E6FFA6"/>
<stop offset="0.4072" stop-color="#D6FFA4"/>
<stop offset="1" stop-color="#B7FFA1"/>
</radialGradient>
<radialGradient id="paint18_radial_5187_5595" cx="0" cy="0" r="1" gradientUnits="userSpaceOnUse" gradientTransform="translate(770.413 578.874) rotate(-108.022) scale(22.4114 39.2012)">
<stop stop-color="#E6FFA6"/>
<stop offset="0.4072" stop-color="#D6FFA4"/>
<stop offset="1" stop-color="#B7FFA1"/>
</radialGradient>
<radialGradient id="paint19_radial_5187_5595" cx="0" cy="0" r="1" gradientUnits="userSpaceOnUse" gradientTransform="translate(766.67 574.826) rotate(-96.6708) scale(22.4088 39.2001)">
<stop stop-color="#E6FFA6"/>
<stop offset="0.4072" stop-color="#D6FFA4"/>
<stop offset="1" stop-color="#B7FFA1"/>
</radialGradient>
<radialGradient id="paint20_radial_5187_5595" cx="0" cy="0" r="1" gradientUnits="userSpaceOnUse" gradientTransform="translate(766.669 574.826) rotate(-96.6708) scale(22.4088 39.2001)">
<stop stop-color="#E6FFA6"/>
<stop offset="0.4072" stop-color="#D6FFA4"/>
<stop offset="1" stop-color="#B7FFA1"/>
</radialGradient>
<radialGradient id="paint21_radial_5187_5595" cx="0" cy="0" r="1" gradientUnits="userSpaceOnUse" gradientTransform="translate(766.669 574.825) rotate(-96.6708) scale(22.4088 39.2001)">
<stop stop-color="#E6FFA6"/>
<stop offset="0.4072" stop-color="#D6FFA4"/>
<stop offset="1" stop-color="#B7FFA1"/>
</radialGradient>
<radialGradient id="paint22_radial_5187_5595" cx="0" cy="0" r="1" gradientUnits="userSpaceOnUse" gradientTransform="translate(770.447 645.15) rotate(-81.87) scale(83.7786 111.557)">
<stop stop-color="#E6FFA6"/>
<stop offset="0.4072" stop-color="#D6FFA4"/>
<stop offset="1" stop-color="#B7FFA1"/>
</radialGradient>
<linearGradient id="paint23_linear_5187_5595" x1="925.191" y1="153.127" x2="935.05" y2="147.652" gradientUnits="userSpaceOnUse">
<stop stop-color="#FFB5B5"/>
<stop offset="0.1947" stop-color="#FFB7AB"/>
<stop offset="0.5228" stop-color="#FFBD91"/>
<stop offset="0.9419" stop-color="#FEC766"/>
<stop offset="1" stop-color="#FEC860"/>
</linearGradient>
<linearGradient id="paint24_linear_5187_5595" x1="955.096" y1="41.5855" x2="970.325" y2="65.9439" gradientUnits="userSpaceOnUse">
<stop stop-color="#FFB5B5"/>
<stop offset="0.1947" stop-color="#FFB7AB"/>
<stop offset="0.5228" stop-color="#FFBD91"/>
<stop offset="0.9419" stop-color="#FEC766"/>
<stop offset="1" stop-color="#FEC860"/>
</linearGradient>
<radialGradient id="paint25_radial_5187_5595" cx="0" cy="0" r="1" gradientUnits="userSpaceOnUse" gradientTransform="translate(991.299 151.253) scale(58.3539 58.1775)">
<stop stop-color="#FFDF9C"/>
<stop offset="0.2933" stop-color="#FCD894"/>
<stop offset="0.7483" stop-color="#F5C67E"/>
<stop offset="1" stop-color="#F0BA6F"/>
</radialGradient>
<linearGradient id="paint26_linear_5187_5595" x1="1050.67" y1="73.0959" x2="1009.54" y2="89.2669" gradientUnits="userSpaceOnUse">
<stop stop-color="white"/>
<stop offset="0.2538" stop-color="#FFB5B5"/>
<stop offset="0.3991" stop-color="#FFB7AB"/>
<stop offset="0.6439" stop-color="#FFBD91"/>
<stop offset="0.9567" stop-color="#FEC766"/>
<stop offset="1" stop-color="#FEC860"/>
</linearGradient>
</defs>
</svg>
