<svg width="1342" height="1219" viewBox="0 0 1342 1219" fill="none" xmlns="http://www.w3.org/2000/svg">
<path d="M972.922 399.431L169 867.129L388.777 996L1171.01 535.542C1176.79 511.216 1168.6 498.377 1163.78 494.998C1115.58 466.487 1015.72 407.457 1001.84 399.431C987.959 391.406 976.778 396.087 972.922 399.431Z" fill="#F4EFEF" stroke="black" stroke-linejoin="round"/>
<path d="M366 785C382.24 791.859 450.1 831.858 482 851" stroke="black"/>
<path d="M451 734.857C467.24 741.82 535.1 782.425 567 801.857" stroke="black"/>
<path d="M536 685.714C552.24 692.573 620.1 732.572 652 751.714" stroke="black"/>
<path d="M621 636.571C637.24 643.43 705.1 683.429 737 702.571" stroke="black"/>
<path d="M706 587.429C722.24 594.288 790.1 634.287 822 653.429" stroke="black"/>
<path d="M791 537.285C807.38 544.248 875.825 584.853 908 604.285" stroke="black"/>
<path d="M877 487.143C893.1 494.105 960.375 534.711 992 554.143" stroke="black"/>
<path d="M961 437C977.24 443.963 1045.1 484.568 1077 504" stroke="black"/>
<path d="M341.037 967.974L1163 497" stroke="black"/>
<ellipse cx="535.093" cy="883.231" rx="17.7269" ry="12.8657" transform="rotate(-54.8943 535.093 883.231)" fill="#8FE3C1"/>
<ellipse cx="826.042" cy="715.487" rx="17.7269" ry="12.8657" transform="rotate(-54.8943 826.042 715.487)" fill="#8FE3C1"/>
<ellipse cx="973.554" cy="631.609" rx="17.7269" ry="12.8657" transform="rotate(-54.8943 973.554 631.609)" fill="#8FE3C1"/>
<ellipse cx="1118.17" cy="547.73" rx="17.7269" ry="12.8657" transform="rotate(-54.8943 1118.17 547.73)" fill="#8FE3C1"/>
<ellipse cx="681.423" cy="799.366" rx="17.7269" ry="12.8657" transform="rotate(-54.8943 681.423 799.366)" fill="#8FE3C1"/>
<path d="M159.5 1107.9V1206.44L71.5 1157.15V1054.66L159.5 1107.9Z" fill="#D9D9D9" stroke="#8FE3C1" stroke-width="3"/>
<path d="M246.5 1155.21L162.5 1206.33V1107.92L246.5 1052.78V1155.21Z" fill="#3DCE94" stroke="#8FE3C1" stroke-width="3"/>
<path d="M245.135 1050.54L160.989 1105.23L72.959 1052.51L161.02 1001.73L245.135 1050.54Z" fill="#D9D9D9" stroke="#8FE3C1" stroke-width="3"/>
<path d="M72 957.539V1030.32" stroke="black"/>
<path d="M240 941.816V1014.59" stroke="black"/>
<path d="M212 905.129V977.906" stroke="black"/>
<path d="M457.604 758.006L390.061 747.651C385.352 746.927 380.653 746.844 376.106 747.404C337.968 752.079 299.828 756.75 261.69 761.425C258.001 761.877 255.633 765.042 256.172 768.795L265.219 831.738C265.551 834.065 267.31 836.148 269.626 836.955C305.584 849.529 341.542 862.099 377.504 874.673C383.614 876.809 389.998 876.28 394.931 873.23C420.599 857.362 446.266 841.491 471.934 825.623C473.423 824.701 474.176 822.983 473.9 821.129C471.16 802.757 468.42 784.381 465.68 766.009C465.077 762.016 461.661 758.628 457.604 758.006Z" fill="#E5CA9A"/>
<path d="M256.049 767.971L265.289 832.266C265.558 834.144 266.911 835.818 268.656 836.433C305.51 849.393 342.369 862.353 379.224 875.31C382.037 876.297 384.518 874.172 384.083 871.143L372.034 787.306C371.726 785.16 370.02 783.327 367.995 782.962L260.236 763.626C257.654 763.164 255.657 765.237 256.049 767.971Z" fill="url(#paint0_radial_5199_5913)"/>
<path d="M375.108 787.018L387.003 869.776C387.479 873.095 391.077 875.223 393.593 873.676C419.835 857.561 446.078 841.442 472.317 825.328C473.571 824.559 474.198 823.036 473.946 821.383C471.076 802.67 468.207 783.957 465.334 765.241C464.899 762.413 462.131 760.343 459.658 760.997L377.651 782.73C375.864 783.203 374.813 784.976 375.108 787.018Z" fill="url(#paint1_radial_5199_5913)"/>
<path d="M376.253 747.373L261.652 761.592L371.758 780.26C372.294 780.35 372.827 780.333 373.328 780.204L459.574 758.291L391.778 747.669C386.53 746.844 381.313 746.747 376.253 747.373Z" fill="url(#paint2_radial_5199_5913)"/>
<path d="M314.849 825.168C311.159 824.152 308.248 819.714 307.894 819.151C307.291 818.198 307.361 817.178 308.055 816.869C308.749 816.563 309.8 817.084 310.402 818.038C310.497 818.187 312.743 821.714 314.968 821.745C316.38 821.773 317.347 820.424 317.781 819.151C318.044 818.382 318.965 818.271 319.852 818.918C320.731 819.558 321.232 820.702 320.973 821.471C320.566 822.664 319.291 825.432 316.229 825.37C315.759 825.366 315.297 825.293 314.849 825.168Z" fill="#FF9A00"/>
<path d="M296.488 819.397C299.981 820.361 302.374 818.117 301.838 814.389L289.193 810.903C289.733 814.632 292.998 818.434 296.488 819.397Z" fill="#FF9A00"/>
<path d="M333.476 829.589C336.969 830.552 339.362 828.309 338.826 824.58L326.182 821.095C326.721 824.823 329.987 828.625 333.476 829.589Z" fill="#FF9A00"/>
<path d="M635.849 633.133C635.358 627.414 633.751 622.849 632.375 619.776C632.583 617.629 632.73 613.085 630.505 608.022C627.951 602.208 623.747 599.064 621.957 597.871C618.533 588.601 613.904 584.805 610.336 583.047C608.406 582.096 601.991 578.174 595.243 579.707C582.678 582.563 583.394 600.647 571.53 606.882C565.484 610.057 555.357 610.583 537.363 599.938C527.71 597.773 518.481 601.201 514.495 608.022C511.782 612.664 512.26 617.579 512.625 619.776C511.249 622.846 509.645 627.414 509.151 633.133C508.403 641.817 510.603 648.701 512.088 652.364C510.849 666.129 514.663 674.476 517.081 678.539C522.762 688.083 529.58 693.816 529.58 693.816C530.962 696.019 532.935 699.51 534.58 704.093C536.458 709.317 536.156 711.075 537.637 713.815C540.83 719.727 547.778 721.787 551.802 722.98C563.901 726.566 568.821 721.317 576.523 726.036C581.727 729.225 580.951 732.52 585.134 733.534C594.093 735.706 604.125 722.148 605.132 720.759C609.051 715.345 610.736 709.991 611.522 706.594C616.357 701.019 623.235 691.682 627.909 678.543C631.596 668.181 632.667 658.954 632.902 652.368C634.397 648.701 636.597 641.817 635.849 633.133Z" fill="url(#paint3_radial_5199_5913)"/>
<path d="M547.364 692.426C550.68 688.079 554.231 682.591 557.301 675.904C558.635 672.998 559.726 670.198 560.617 667.563C560.017 667.778 559.417 667.992 558.817 668.209C558.512 669.037 558.136 669.939 557.68 670.886C557.213 671.855 556.673 672.855 556.038 673.862C552.554 679.384 547.859 682.707 544.314 684.651C545.329 687.244 546.346 689.833 547.364 692.426Z" fill="url(#paint4_radial_5199_5913)"/>
<path d="M542.085 693.539C537.668 690.563 530.874 685.019 526.162 675.907C524.632 672.95 523.579 670.115 522.846 667.567C523.446 667.781 524.046 667.995 524.646 668.213C525.969 671.339 528.299 675.799 532.362 680.209C535.306 683.402 538.296 685.633 540.696 687.153C541.159 689.279 541.622 691.409 542.085 693.539Z" fill="url(#paint5_radial_5199_5913)"/>
<path d="M536.531 665.763C532.728 660.09 528.499 652.578 525.141 643.266C523.127 637.68 521.794 632.466 520.902 627.849C521.502 628.063 522.102 628.277 522.702 628.494C523.878 632.694 525.738 637.911 528.752 643.546C531.675 649.009 534.872 653.343 537.64 656.599C537.272 659.651 536.9 662.707 536.531 665.763Z" fill="url(#paint6_radial_5199_5913)"/>
<path d="M597.639 691.872C593.766 687.36 589.449 681.342 585.884 673.683C584.53 670.774 583.442 667.974 582.568 665.343C583.168 665.557 583.768 665.771 584.368 665.988C584.674 666.816 585.049 667.718 585.505 668.665C585.505 668.665 586.214 670.132 587.148 671.641C588.344 673.567 592.716 678.697 599.303 684.928C598.752 687.244 598.194 689.556 597.639 691.872Z" fill="url(#paint7_radial_5199_5913)"/>
<path d="M604.585 629.101C607.547 623.852 610.627 617.014 612.575 608.691C613.249 605.807 613.715 603.063 614.028 600.495C613.379 600.586 612.733 600.681 612.084 600.772C612.014 602.544 611.792 604.523 611.308 606.649C609.701 613.716 606.024 618.733 603.473 621.603C603.845 624.101 604.213 626.6 604.585 629.101Z" fill="url(#paint8_radial_5199_5913)"/>
<path d="M607.917 660.764C610.868 657.652 615.1 652.421 618.195 644.933C621.873 636.035 622.224 628.109 622.083 623.548C621.529 623.639 620.971 623.734 620.416 623.825C620.146 627.499 619.237 633.442 615.971 639.933C613.311 645.224 610.047 648.965 607.637 651.322C607.731 654.47 607.823 657.617 607.917 660.764Z" fill="url(#paint9_radial_5199_5913)"/>
<path d="M602.082 691.872C605.742 689.43 612.423 684.23 617.083 675.206C619.841 669.862 621.006 664.897 621.529 661.318C620.88 661.596 620.234 661.873 619.585 662.15C618.929 664.806 617.672 668.525 615.139 672.427C611.314 678.321 606.524 681.634 603.749 683.258C603.194 686.132 602.64 689.002 602.082 691.872Z" fill="url(#paint10_radial_5199_5913)"/>
<path d="M602.083 659.097C602.434 650.427 601.929 644.273 601.251 636.045C599.855 619.095 597.149 605.211 594.862 595.495C595.234 594.664 595.602 593.829 595.974 592.997C603.834 615.786 618.793 670.258 593.476 721.87C589.76 729.446 585.51 736.277 580.977 742.424C579.124 738.165 577.275 733.905 575.422 729.649C577.201 727.775 579.415 725.288 581.949 721.863C581.949 721.863 586.63 715.635 590.37 708.471C594.697 700.187 600.287 682.58 602.083 659.097Z" fill="url(#paint11_radial_5199_5913)"/>
<path d="M553.476 612.159C551.718 611.232 549.956 610.306 548.198 609.38C545.138 615.776 521.968 666.157 547.366 707.98C553.44 717.98 561.062 725.468 568.476 731.032C567.922 726.032 567.364 721.033 566.81 716.033C560.813 711.012 556.549 705.791 553.476 701.033C530.46 665.441 550.282 619.302 553.476 612.159Z" fill="url(#paint12_radial_5199_5913)"/>
<path d="M565.694 717.98C565.062 717.98 564.459 717.713 564.038 717.236C557.781 710.222 554.321 703.057 553.76 695.935C553.693 695.107 553.669 694.293 553.644 693.507C553.56 690.924 553.483 688.486 552.048 685.654C550.658 682.911 548.823 681.451 546.496 679.602C545.872 679.104 545.223 678.588 544.542 678.016C544.251 677.774 537.366 671.928 531.562 662.174C527.218 654.876 525.376 645.557 526.218 635.196C523.755 628.895 522.755 622.074 523.323 615.439C523.723 610.779 524.878 606.225 526.748 601.895C526.523 598.832 526.755 594.387 528.846 589.626C531.183 584.31 534.783 580.921 537.598 578.931C540.521 571.36 544.714 566.188 550.069 563.549C552.858 562.174 554.988 561.967 557.241 561.746C559.339 561.539 561.718 561.307 565.452 560.09C569.564 558.749 571.863 557.353 573.709 556.234C575.554 555.111 577.151 554.143 579.379 554.143C579.842 554.143 580.309 554.185 580.807 554.269C588.657 555.613 592.531 566.076 594.847 572.328C597.184 578.637 598.296 585.314 598.163 592.18C599.156 594.327 599.9 596.58 600.377 598.882C601.163 602.678 601.222 606.555 600.559 610.422C602.166 612.72 603.43 615.218 604.314 617.86C605.781 622.232 606.181 626.972 605.486 631.635C609.283 636.972 614.578 646.764 611.977 657.297C611.918 657.539 611.816 657.771 611.679 657.982C607.858 663.823 603.521 668.788 598.78 672.742C595.885 675.16 593.615 677.125 589.095 681.044C584.836 684.735 584.404 685.188 584.099 685.851C583.179 687.847 583.607 689.556 584.509 692.647C585.099 694.665 585.765 696.952 585.962 699.763C586.323 704.934 584.916 710.313 581.783 715.748C581.418 716.383 580.762 716.797 580.032 716.853L565.866 717.966C565.813 717.976 565.754 717.98 565.694 717.98Z" fill="url(#paint13_radial_5199_5913)"/>
<path d="M552.389 614.699C555.596 617.274 558.772 618.702 561.07 619.505C561.158 618.214 561.249 616.923 561.337 615.632C559.435 615.263 556.294 614.4 553.056 612.158C548.848 609.25 546.743 605.587 545.841 603.744C545.041 603.344 544.238 602.945 543.438 602.541C544.532 605.26 547.038 610.4 552.389 614.699Z" fill="url(#paint14_radial_5199_5913)"/>
<path d="M569.887 596.268C572.318 595.777 575.705 594.812 579.371 592.794C582.561 591.04 584.94 589.054 586.586 587.451C585.961 587.317 585.34 587.184 584.716 587.051C583.323 588.135 581.547 589.324 579.371 590.391C575.88 592.1 572.659 592.851 570.29 593.194C570.153 594.219 570.02 595.244 569.887 596.268Z" fill="url(#paint15_radial_5199_5913)"/>
<path d="M568.818 642.747C568.997 645.241 569.176 647.733 569.352 650.227C572.664 649.154 577.696 647.083 582.844 643.013C588.318 638.687 591.595 633.943 593.395 630.859C592.462 631.08 591.525 631.305 590.592 631.526C588.342 634.045 584.118 638.063 577.636 640.606C574.296 641.922 571.236 642.498 568.818 642.747Z" fill="url(#paint16_radial_5199_5913)"/>
<path d="M567.484 615.902C567.351 617.06 567.217 618.218 567.084 619.376C569.603 618.639 572.533 617.548 575.632 615.902C581.713 612.674 585.931 608.646 588.587 605.618C587.829 605.839 587.075 606.064 586.317 606.285C583.562 608.558 579.751 611.207 574.828 613.362C572.186 614.523 569.698 615.33 567.484 615.902Z" fill="url(#paint17_radial_5199_5913)"/>
<path d="M593.502 649.718C591.67 652.743 587.905 658.006 581.252 661.985C577.519 664.22 573.985 665.385 571.301 666.027C571.543 668.504 571.782 670.984 572.024 673.461C575.417 671.89 579.824 669.395 584.27 665.465C590.898 659.602 594.572 653.22 596.516 649.111C595.513 649.315 594.506 649.518 593.502 649.718Z" fill="url(#paint18_radial_5199_5913)"/>
<path d="M556.396 590.257C559.312 593.615 562.775 594.952 564.41 595.467C564.677 594.489 564.944 593.51 565.21 592.531C563.817 592.204 560.821 591.299 558.133 588.657C554.438 585.029 553.848 580.601 553.725 579.307C553.192 578.861 552.655 578.415 552.122 577.97C552.076 579.422 552.059 585.264 556.396 590.257Z" fill="url(#paint19_radial_5199_5913)"/>
<path d="M563.476 650.627C563.119 647.866 562.764 645.108 562.406 642.346C560.006 641.49 557.125 640.196 554.125 638.206C548.188 634.269 544.609 629.484 542.637 626.319C541.791 626.273 540.945 626.231 540.1 626.186C542.352 630.575 546.156 636.662 552.388 642.48C556.322 646.15 560.217 648.771 563.476 650.627Z" fill="url(#paint20_radial_5199_5913)"/>
<path d="M565.48 666.518C561.883 665.002 557.767 662.939 553.458 660.108C546.476 655.515 541.37 650.469 537.829 646.35C537.029 646.305 536.226 646.262 535.426 646.217C538.247 650.989 543.096 657.834 550.921 664.114C556.434 668.539 561.799 671.374 566.014 673.195C565.835 670.97 565.659 668.746 565.48 666.518Z" fill="url(#paint21_radial_5199_5913)"/>
<path d="M567.365 617.994C567.221 602.054 570.291 588.391 570.291 588.391C572.126 580.219 574.481 573.735 576.169 569.56L574.565 569.16C572.934 572.799 570.579 578.413 568.288 585.454C568.288 585.454 563.484 600.219 561.256 617.72C559.01 635.351 558.817 686.343 564.059 755.105C564.561 761.663 570.288 766.694 576.839 766.094C577.014 766.077 577.19 766.059 577.365 766.038C577.541 766.017 577.72 765.989 577.892 765.961C585.506 764.719 590.384 757.14 588.64 749.625C569.554 667.431 567.498 632.944 567.365 617.994Z" fill="url(#paint22_radial_5199_5913)"/>
<path d="M563.403 629.989C563.248 631.505 567.154 634.399 570.87 633.136C573.653 632.189 575.6 629.161 574.905 627.901C573.684 625.694 563.641 627.666 563.403 629.989Z" fill="#534741"/>
<path d="M558.265 625.607C556.233 623.983 553.268 624.316 551.644 626.348C550.019 628.379 550.352 631.344 552.384 632.969C554.416 634.593 557.381 634.26 559.006 632.228C560.63 630.197 560.3 627.232 558.265 625.607ZM558.328 631.688C557.002 633.348 554.584 633.614 552.928 632.291L557.725 626.288C559.384 627.611 559.655 630.028 558.328 631.688Z" fill="#534741"/>
<path d="M585.658 622.548C583.626 620.923 580.661 621.257 579.036 623.288C577.412 625.32 577.745 628.285 579.777 629.909C581.808 631.534 584.773 631.2 586.398 629.169C588.023 627.134 587.689 624.172 585.658 622.548ZM585.721 628.625C584.394 630.284 581.977 630.551 580.321 629.228L585.117 623.225C586.774 624.551 587.044 626.969 585.721 628.625Z" fill="#534741"/>
<path d="M172.303 803.822V816.781H149.633V803.822H136.215V781.151H149.633V768.781H172.303V781.151H184.215V803.822H172.303Z" fill="#3DCE94"/>
<path d="M736.046 610.952C736.472 610.042 739.078 604.211 736.275 597.919C734.26 593.404 730.619 591.245 729.362 590.574C728.193 590.637 724.051 590.996 720.791 594.282C718.075 597.017 715.737 602.023 717.769 606.619C720.354 612.461 727.841 612.749 728.865 612.774C732.172 612.847 734.729 611.678 736.046 610.952Z" fill="url(#paint23_linear_5199_5913)"/>
<path d="M746.812 538.55C745.664 535.797 744.068 530.948 744.346 524.857C744.512 521.227 744.949 511.733 752.446 505.547C759.697 499.561 770.719 499.01 778.858 503.792C785.647 507.783 788.281 514.222 789.07 516.431C786.073 520.286 780.978 525.837 773.223 530.474C762.486 536.899 752.228 538.237 746.812 538.55Z" fill="url(#paint24_linear_5199_5913)"/>
<path d="M801.473 646.746C785.352 651.191 765.001 650.59 750.316 643.716C732.426 635.342 727.425 618.746 727.489 604.092C728.302 589.335 730.458 574.719 734.042 560.191C738.705 545.484 747.164 531.181 763.493 521.561C773.942 515.406 786.5 511.716 799.779 514.644C811.01 518.19 816.859 526.774 820.782 534.776C825.754 544.919 828.779 555.279 829.692 566.079C830.53 575.274 832.442 584.22 835.47 593.159C843.718 615.183 831.649 638.65 801.473 646.746Z" fill="url(#paint25_radial_5199_5913)"/>
<path d="M819.004 556.104C817.38 555.795 810.668 554.324 805.974 548.029C800.251 540.354 802.156 531.713 802.452 530.474C805.548 523.761 812.503 519.854 819.38 520.798C826.86 521.823 831.371 528.199 832.738 533.634C835.065 542.882 828.441 549.967 827.505 550.936C824.413 554.131 820.923 555.507 819.004 556.104Z" fill="url(#paint26_linear_5199_5913)"/>
<path d="M776.527 578.894C776.192 580.438 779.894 583.872 783.88 582.994C786.863 582.338 789.229 579.441 788.652 578.065C787.644 575.653 777.038 576.527 776.527 578.894Z" fill="#F37343"/>
<path d="M771.722 573.788C769.81 571.882 766.708 571.882 764.795 573.788C762.883 575.695 762.883 578.788 764.795 580.694C766.708 582.601 769.81 582.601 771.722 580.694C773.635 578.788 773.635 575.695 771.722 573.788ZM771.085 580.059C769.525 581.614 766.996 581.614 765.436 580.059L771.085 574.427C772.645 575.979 772.645 578.5 771.085 580.059Z" fill="#F37343"/>
<path d="M800.381 573.788C798.468 571.882 795.366 571.882 793.454 573.788C791.541 575.695 791.541 578.788 793.454 580.694C795.366 582.601 798.468 582.601 800.381 580.694C802.293 578.788 802.293 575.695 800.381 573.788ZM799.74 580.059C798.18 581.614 795.651 581.614 794.091 580.059L799.74 574.427C801.3 575.979 801.3 578.5 799.74 580.059Z" fill="#F37343"/>
<path d="M991.33 540.992C989.697 540.978 988.88 540.978 987.247 540.992C973.647 541.188 959.072 537.704 948.631 528.502C938.084 519.204 933.811 505.3 934.249 491.484C934.691 479.225 935.136 466.966 935.578 454.708C936.426 426.496 957.593 397.66 987.453 397.888C988.922 397.888 989.655 397.888 991.123 397.888C1020.98 397.66 1042.15 426.496 1043 454.708C1043.44 466.966 1043.89 479.225 1044.33 491.484C1044.92 505.24 1040.41 519.281 1029.95 528.502C1019.44 537.764 1004.98 541.065 991.33 540.992Z" fill="url(#paint27_linear_5199_5913)"/>
<path d="M991.098 393.945L990.359 401.215C990.352 401.278 990.296 401.323 990.233 401.316C990.177 401.309 990.134 401.267 990.131 401.215L989.391 393.945C989.342 393.475 989.686 393.054 990.159 393.005C990.629 392.956 991.049 393.299 991.098 393.773C991.102 393.829 991.102 393.892 991.098 393.945Z" fill="#F3C344"/>
<path d="M999.664 398.06L994.025 402.695C993.965 402.744 993.877 402.737 993.828 402.674C993.786 402.621 993.786 402.547 993.828 402.495L998.459 396.85C998.76 396.485 999.3 396.432 999.664 396.73C1000.03 397.032 1000.08 397.572 999.784 397.937C999.749 397.986 999.707 398.028 999.664 398.06Z" fill="#F3C344"/>
<path d="M982.031 396.854L986.749 402.408C986.843 402.52 986.829 402.688 986.717 402.783C986.615 402.871 986.468 402.867 986.37 402.783L980.825 398.061C980.464 397.755 980.422 397.215 980.727 396.854C981.032 396.492 981.572 396.45 981.933 396.755C981.968 396.787 982.003 396.822 982.031 396.854Z" fill="#F3C344"/>
<path d="M930.257 462.297L937.519 463.037C937.582 463.044 937.628 463.1 937.621 463.163C937.614 463.219 937.572 463.261 937.519 463.265L930.257 464.005C929.787 464.054 929.366 463.71 929.317 463.237C929.268 462.767 929.612 462.346 930.085 462.297C930.141 462.293 930.204 462.293 930.257 462.297Z" fill="#F3C344"/>
<path d="M934.368 453.722L938.998 459.367C939.047 459.427 939.04 459.515 938.977 459.564C938.924 459.606 938.851 459.606 938.798 459.564L933.162 454.932C932.797 454.631 932.745 454.09 933.043 453.726C933.344 453.361 933.884 453.308 934.248 453.606C934.294 453.641 934.336 453.683 934.368 453.722Z" fill="#F3C344"/>
<path d="M933.163 471.373L938.712 466.651C938.824 466.556 938.992 466.57 939.087 466.682C939.174 466.784 939.171 466.931 939.087 467.03L934.369 472.58C934.064 472.941 933.524 472.983 933.163 472.678C932.802 472.373 932.76 471.833 933.065 471.471C933.096 471.436 933.131 471.401 933.163 471.373Z" fill="#F3C344"/>
<path d="M1048.37 462.297L1041.11 463.037C1041.04 463.044 1041 463.1 1041 463.163C1041.01 463.219 1041.05 463.261 1041.11 463.265L1048.37 464.005C1048.84 464.054 1049.26 463.71 1049.31 463.237C1049.36 462.767 1049.01 462.346 1048.54 462.297C1048.48 462.293 1048.42 462.293 1048.37 462.297Z" fill="#F3C344"/>
<path d="M1044.26 453.723L1039.63 459.368C1039.58 459.427 1039.58 459.515 1039.65 459.564C1039.7 459.606 1039.77 459.606 1039.83 459.564L1045.47 454.93C1045.83 454.628 1045.88 454.088 1045.58 453.723C1045.28 453.358 1044.74 453.305 1044.38 453.603C1044.33 453.642 1044.29 453.684 1044.26 453.723Z" fill="#F3C344"/>
<path d="M1045.46 471.373L1039.91 466.651C1039.8 466.556 1039.63 466.57 1039.54 466.682C1039.45 466.784 1039.45 466.931 1039.54 467.03L1044.26 472.584C1044.56 472.945 1045.1 472.987 1045.46 472.682C1045.82 472.377 1045.87 471.836 1045.56 471.475C1045.53 471.436 1045.5 471.401 1045.46 471.373Z" fill="#F3C344"/>
<path d="M985.234 462.378C984.957 463.665 988.028 466.521 991.333 465.791C993.808 465.244 995.767 462.834 995.29 461.686C994.456 459.676 985.658 460.409 985.234 462.378Z" fill="#C4CF4D"/>
<path d="M981.252 458.126C979.664 456.536 977.095 456.536 975.507 458.126C973.919 459.715 973.919 462.287 975.507 463.876C977.095 465.465 979.664 465.465 981.252 463.876C982.836 462.29 982.836 459.715 981.252 458.126ZM980.723 463.346C979.429 464.641 977.33 464.641 976.037 463.346L980.723 458.655C982.016 459.95 982.016 462.052 980.723 463.346Z" fill="#C4CF4D"/>
<path d="M1005.02 458.126C1003.43 456.536 1000.86 456.536 999.273 458.126C997.685 459.715 997.685 462.287 999.273 463.876C1000.86 465.465 1003.43 465.465 1005.02 463.876C1006.61 462.29 1006.61 459.715 1005.02 458.126ZM1004.49 463.346C1003.2 464.641 1001.1 464.641 999.802 463.346L1004.49 458.655C1005.78 459.95 1005.78 462.052 1004.49 463.346Z" fill="#C4CF4D"/>
<defs>
<radialGradient id="paint0_radial_5199_5913" cx="0" cy="0" r="1" gradientUnits="userSpaceOnUse" gradientTransform="translate(320.053 819.543) scale(83.379 82.7746)">
<stop stop-color="#F3EBD9"/>
<stop offset="0.4134" stop-color="#F4EAD7"/>
<stop offset="0.6395" stop-color="#F6E7CF"/>
<stop offset="0.8198" stop-color="#F9E2C1"/>
<stop offset="0.9759" stop-color="#FEDAAE"/>
<stop offset="1" stop-color="#FFD9AA"/>
</radialGradient>
<radialGradient id="paint1_radial_5199_5913" cx="0" cy="0" r="1" gradientUnits="userSpaceOnUse" gradientTransform="translate(426.423 817.518) scale(85.3939 84.7749)">
<stop stop-color="#F3EBD9"/>
<stop offset="0.4134" stop-color="#F4EAD7"/>
<stop offset="0.6395" stop-color="#F6E7CF"/>
<stop offset="0.8198" stop-color="#F9E2C1"/>
<stop offset="0.9759" stop-color="#FEDAAE"/>
<stop offset="1" stop-color="#FFD9AA"/>
</radialGradient>
<radialGradient id="paint2_radial_5199_5913" cx="0" cy="0" r="1" gradientUnits="userSpaceOnUse" gradientTransform="translate(361.128 763.628) scale(102.028 101.288)">
<stop stop-color="#F3EBDA"/>
<stop offset="0.416" stop-color="#F4EAD8"/>
<stop offset="0.6436" stop-color="#F6E7D0"/>
<stop offset="0.825" stop-color="#F9E2C2"/>
<stop offset="0.9821" stop-color="#FEDBAF"/>
<stop offset="1" stop-color="#FFDAAC"/>
</radialGradient>
<radialGradient id="paint3_radial_5199_5913" cx="0" cy="0" r="1" gradientUnits="userSpaceOnUse" gradientTransform="translate(572.502 656.556) scale(70.6889 94.1068)">
<stop stop-color="#5AA668"/>
<stop offset="0.4873" stop-color="#56965F"/>
<stop offset="1" stop-color="#508054"/>
</radialGradient>
<radialGradient id="paint4_radial_5199_5913" cx="0" cy="0" r="1" gradientUnits="userSpaceOnUse" gradientTransform="translate(614.422 811.441) rotate(-128.456) scale(35.975 62.9218)">
<stop stop-color="#C8DE90"/>
<stop offset="0.457" stop-color="#B8DE8E"/>
<stop offset="1" stop-color="#9FDE8C"/>
</radialGradient>
<radialGradient id="paint5_radial_5199_5913" cx="0" cy="0" r="1" gradientUnits="userSpaceOnUse" gradientTransform="translate(508.767 794.044) rotate(-51.5441) scale(28.3163 49.5264)">
<stop stop-color="#C8DE90"/>
<stop offset="0.457" stop-color="#B8DE8E"/>
<stop offset="1" stop-color="#9FDE8C"/>
</radialGradient>
<radialGradient id="paint6_radial_5199_5913" cx="0" cy="0" r="1" gradientUnits="userSpaceOnUse" gradientTransform="translate(396.798 872.869) rotate(-51.5441) scale(65.1419 113.936)">
<stop stop-color="#C8DE90"/>
<stop offset="0.457" stop-color="#B8DE8E"/>
<stop offset="1" stop-color="#9FDE8C"/>
</radialGradient>
<radialGradient id="paint7_radial_5199_5913" cx="0" cy="0" r="1" gradientUnits="userSpaceOnUse" gradientTransform="translate(540.397 807.873) rotate(-51.5441) scale(34.2959 59.9849)">
<stop stop-color="#C8DE90"/>
<stop offset="0.457" stop-color="#B8DE8E"/>
<stop offset="1" stop-color="#9FDE8C"/>
</radialGradient>
<radialGradient id="paint8_radial_5199_5913" cx="0" cy="0" r="1" gradientUnits="userSpaceOnUse" gradientTransform="translate(742.688 810.119) rotate(-128.456) scale(59.0661 103.309)">
<stop stop-color="#C8DE90"/>
<stop offset="0.457" stop-color="#B8DE8E"/>
<stop offset="1" stop-color="#9FDE8C"/>
</radialGradient>
<radialGradient id="paint9_radial_5199_5913" cx="0" cy="0" r="1" gradientUnits="userSpaceOnUse" gradientTransform="translate(760.412 875.578) rotate(-128.456) scale(68.538 119.876)">
<stop stop-color="#C8DE90"/>
<stop offset="0.457" stop-color="#B8DE8E"/>
<stop offset="1" stop-color="#9FDE8C"/>
</radialGradient>
<radialGradient id="paint10_radial_5199_5913" cx="0" cy="0" r="1" gradientUnits="userSpaceOnUse" gradientTransform="translate(666.917 827.571) rotate(-128.456) scale(39.5935 69.2507)">
<stop stop-color="#C8DE90"/>
<stop offset="0.457" stop-color="#B8DE8E"/>
<stop offset="1" stop-color="#9FDE8C"/>
</radialGradient>
<radialGradient id="paint11_radial_5199_5913" cx="0" cy="0" r="1" gradientUnits="userSpaceOnUse" gradientTransform="translate(580.923 730.741) rotate(-79.8736) scale(99.7421 132.815)">
<stop stop-color="#C8DE90"/>
<stop offset="0.457" stop-color="#B8DE8E"/>
<stop offset="1" stop-color="#9FDE8C"/>
</radialGradient>
<radialGradient id="paint12_radial_5199_5913" cx="0" cy="0" r="1" gradientUnits="userSpaceOnUse" gradientTransform="translate(561.006 723.845) rotate(-100.126) scale(93.9671 125.125)">
<stop stop-color="#C8DE90"/>
<stop offset="0.457" stop-color="#B8DE8E"/>
<stop offset="1" stop-color="#9FDE8C"/>
</radialGradient>
<radialGradient id="paint13_radial_5199_5913" cx="0" cy="0" r="1" gradientUnits="userSpaceOnUse" gradientTransform="translate(567.921 636.049) scale(59.4443 91.0948)">
<stop stop-color="#4CCC4F"/>
<stop offset="0.4873" stop-color="#56BC5E"/>
<stop offset="1" stop-color="#64A671"/>
</radialGradient>
<radialGradient id="paint14_radial_5199_5913" cx="0" cy="0" r="1" gradientUnits="userSpaceOnUse" gradientTransform="translate(563.67 680.968) rotate(-96.6708) scale(22.4088 39.2001)">
<stop stop-color="#E6FFA6"/>
<stop offset="0.4072" stop-color="#D6FFA4"/>
<stop offset="1" stop-color="#B7FFA1"/>
</radialGradient>
<radialGradient id="paint15_radial_5199_5913" cx="0" cy="0" r="1" gradientUnits="userSpaceOnUse" gradientTransform="translate(563.668 680.968) rotate(-96.6708) scale(22.4087 39.2)">
<stop stop-color="#E6FFA6"/>
<stop offset="0.4072" stop-color="#D6FFA4"/>
<stop offset="1" stop-color="#B7FFA1"/>
</radialGradient>
<radialGradient id="paint16_radial_5199_5913" cx="0" cy="0" r="1" gradientUnits="userSpaceOnUse" gradientTransform="translate(563.67 680.968) rotate(-96.6708) scale(22.4088 39.2001)">
<stop stop-color="#E6FFA6"/>
<stop offset="0.4072" stop-color="#D6FFA4"/>
<stop offset="1" stop-color="#B7FFA1"/>
</radialGradient>
<radialGradient id="paint17_radial_5199_5913" cx="0" cy="0" r="1" gradientUnits="userSpaceOnUse" gradientTransform="translate(563.669 680.968) rotate(-96.6708) scale(22.4088 39.2001)">
<stop stop-color="#E6FFA6"/>
<stop offset="0.4072" stop-color="#D6FFA4"/>
<stop offset="1" stop-color="#B7FFA1"/>
</radialGradient>
<radialGradient id="paint18_radial_5199_5913" cx="0" cy="0" r="1" gradientUnits="userSpaceOnUse" gradientTransform="translate(567.413 685.016) rotate(-108.022) scale(22.4114 39.2012)">
<stop stop-color="#E6FFA6"/>
<stop offset="0.4072" stop-color="#D6FFA4"/>
<stop offset="1" stop-color="#B7FFA1"/>
</radialGradient>
<radialGradient id="paint19_radial_5199_5913" cx="0" cy="0" r="1" gradientUnits="userSpaceOnUse" gradientTransform="translate(563.67 680.968) rotate(-96.6708) scale(22.4088 39.2001)">
<stop stop-color="#E6FFA6"/>
<stop offset="0.4072" stop-color="#D6FFA4"/>
<stop offset="1" stop-color="#B7FFA1"/>
</radialGradient>
<radialGradient id="paint20_radial_5199_5913" cx="0" cy="0" r="1" gradientUnits="userSpaceOnUse" gradientTransform="translate(563.669 680.968) rotate(-96.6708) scale(22.4088 39.2001)">
<stop stop-color="#E6FFA6"/>
<stop offset="0.4072" stop-color="#D6FFA4"/>
<stop offset="1" stop-color="#B7FFA1"/>
</radialGradient>
<radialGradient id="paint21_radial_5199_5913" cx="0" cy="0" r="1" gradientUnits="userSpaceOnUse" gradientTransform="translate(563.669 680.968) rotate(-96.6708) scale(22.4088 39.2001)">
<stop stop-color="#E6FFA6"/>
<stop offset="0.4072" stop-color="#D6FFA4"/>
<stop offset="1" stop-color="#B7FFA1"/>
</radialGradient>
<radialGradient id="paint22_radial_5199_5913" cx="0" cy="0" r="1" gradientUnits="userSpaceOnUse" gradientTransform="translate(567.447 751.293) rotate(-81.87) scale(83.7786 111.557)">
<stop stop-color="#E6FFA6"/>
<stop offset="0.4072" stop-color="#D6FFA4"/>
<stop offset="1" stop-color="#B7FFA1"/>
</radialGradient>
<linearGradient id="paint23_linear_5199_5913" x1="718.691" y1="607.712" x2="728.55" y2="602.237" gradientUnits="userSpaceOnUse">
<stop stop-color="#FFB5B5"/>
<stop offset="0.1947" stop-color="#FFB7AB"/>
<stop offset="0.5228" stop-color="#FFBD91"/>
<stop offset="0.9419" stop-color="#FEC766"/>
<stop offset="1" stop-color="#FEC860"/>
</linearGradient>
<linearGradient id="paint24_linear_5199_5913" x1="748.596" y1="496.17" x2="763.825" y2="520.529" gradientUnits="userSpaceOnUse">
<stop stop-color="#FFB5B5"/>
<stop offset="0.1947" stop-color="#FFB7AB"/>
<stop offset="0.5228" stop-color="#FFBD91"/>
<stop offset="0.9419" stop-color="#FEC766"/>
<stop offset="1" stop-color="#FEC860"/>
</linearGradient>
<radialGradient id="paint25_radial_5199_5913" cx="0" cy="0" r="1" gradientUnits="userSpaceOnUse" gradientTransform="translate(784.799 605.839) scale(58.3539 58.1775)">
<stop stop-color="#FFDF9C"/>
<stop offset="0.2933" stop-color="#FCD894"/>
<stop offset="0.7483" stop-color="#F5C67E"/>
<stop offset="1" stop-color="#F0BA6F"/>
</radialGradient>
<linearGradient id="paint26_linear_5199_5913" x1="844.173" y1="527.68" x2="803.043" y2="543.851" gradientUnits="userSpaceOnUse">
<stop stop-color="white"/>
<stop offset="0.2538" stop-color="#FFB5B5"/>
<stop offset="0.3991" stop-color="#FFB7AB"/>
<stop offset="0.6439" stop-color="#FFBD91"/>
<stop offset="0.9567" stop-color="#FEC766"/>
<stop offset="1" stop-color="#FEC860"/>
</linearGradient>
<linearGradient id="paint27_linear_5199_5913" x1="989.299" y1="527.477" x2="989.299" y2="417.626" gradientUnits="userSpaceOnUse">
<stop stop-color="#6A4727"/>
<stop offset="0.1931" stop-color="#734D2A"/>
<stop offset="0.5059" stop-color="#8B5E31"/>
<stop offset="0.8973" stop-color="#B27A3D"/>
<stop offset="1" stop-color="#BD8240"/>
</linearGradient>
</defs>
</svg>
