<svg width="1342" height="1024" viewBox="0 0 1342 1024" fill="none" xmlns="http://www.w3.org/2000/svg">
<path d="M972.922 399.431L169 867.129L388.777 996L1171.01 535.542C1176.79 511.216 1168.6 498.377 1163.78 494.998C1115.58 466.487 1015.72 407.457 1001.84 399.431C987.959 391.406 976.778 396.087 972.922 399.431Z" fill="#F4EFEF" stroke="black" stroke-linejoin="round"/>
<path d="M366 785C382.24 791.859 450.1 831.858 482 851" stroke="black"/>
<path d="M451 734.857C467.24 741.82 535.1 782.425 567 801.857" stroke="black"/>
<path d="M536 685.714C552.24 692.573 620.1 732.572 652 751.714" stroke="black"/>
<path d="M621 636.571C637.24 643.43 705.1 683.429 737 702.571" stroke="black"/>
<path d="M706 587.428C722.24 594.287 790.1 634.287 822 653.428" stroke="black"/>
<path d="M791 537.286C807.38 544.248 875.825 584.854 908 604.286" stroke="black"/>
<path d="M877 487.143C893.1 494.106 960.375 534.711 992 554.143" stroke="black"/>
<path d="M961 437C977.24 443.963 1045.1 484.568 1077 504" stroke="black"/>
<path d="M341.037 967.974L1163 497" stroke="black"/>
<ellipse cx="535.093" cy="883.23" rx="17.7269" ry="12.8657" transform="rotate(-54.8943 535.093 883.23)" fill="#8FE3C1"/>
<ellipse cx="826.042" cy="715.487" rx="17.7269" ry="12.8657" transform="rotate(-54.8943 826.042 715.487)" fill="#8FE3C1"/>
<ellipse cx="973.554" cy="631.609" rx="17.7269" ry="12.8657" transform="rotate(-54.8943 973.554 631.609)" fill="#8FE3C1"/>
<ellipse cx="1118.17" cy="547.73" rx="17.7269" ry="12.8657" transform="rotate(-54.8943 1118.17 547.73)" fill="#8FE3C1"/>
<ellipse cx="681.423" cy="799.366" rx="17.7269" ry="12.8657" transform="rotate(-54.8943 681.423 799.366)" fill="#8FE3C1"/>
<path d="M572.5 675.896V774.439L484.5 725.146V622.66L572.5 675.896Z" fill="#D9D9D9" stroke="#8FE3C1" stroke-width="3"/>
<path d="M659.5 723.209L575.5 774.33V675.915L659.5 620.778V723.209Z" fill="#3DCE94" stroke="#8FE3C1" stroke-width="3"/>
<path d="M658.135 618.544L573.989 673.231L485.959 620.515L574.02 569.733L658.135 618.544Z" fill="#D9D9D9" stroke="#8FE3C1" stroke-width="3"/>
<path d="M873.604 526.168L806.061 515.813C801.352 515.09 796.653 515.006 792.106 515.566C753.968 520.241 715.828 524.913 677.69 529.587C674.001 530.04 671.633 533.205 672.172 536.958L681.219 599.9C681.551 602.227 683.31 604.311 685.626 605.118C721.584 617.692 757.542 630.262 793.504 642.836C799.614 644.972 805.998 644.443 810.931 641.392C836.599 625.525 862.266 609.653 887.934 593.786C889.423 592.864 890.176 591.146 889.9 589.292C887.16 570.919 884.42 552.544 881.68 534.172C881.077 530.179 877.661 526.791 873.604 526.168Z" fill="#E5CA9A"/>
<path d="M672.049 536.134L681.289 600.429C681.558 602.307 682.911 603.98 684.656 604.596C721.51 617.556 758.369 630.516 795.224 643.473C798.037 644.46 800.518 642.335 800.083 639.306L788.034 555.469C787.726 553.323 786.02 551.49 783.995 551.125L676.236 531.789C673.654 531.327 671.657 533.4 672.049 536.134Z" fill="url(#paint0_radial_5187_5588)"/>
<path d="M791.108 555.18L803.003 637.938C803.479 641.257 807.077 643.385 809.593 641.838C835.835 625.723 862.078 609.605 888.317 593.49C889.571 592.721 890.198 591.198 889.946 589.545C887.076 570.832 884.207 552.119 881.334 533.403C880.899 530.575 878.131 528.506 875.658 529.159L793.651 550.892C791.864 551.365 790.813 553.139 791.108 555.18Z" fill="url(#paint1_radial_5187_5588)"/>
<path d="M792.253 515.535L677.652 529.754L787.758 548.422C788.294 548.513 788.827 548.495 789.328 548.366L875.574 526.453L807.778 515.831C802.53 515.007 797.313 514.909 792.253 515.535Z" fill="url(#paint2_radial_5187_5588)"/>
<path d="M730.849 593.33C727.159 592.314 724.248 587.876 723.894 587.312C723.291 586.359 723.361 585.34 724.055 585.031C724.749 584.725 725.8 585.246 726.402 586.199C726.497 586.349 728.743 589.876 730.968 589.907C732.38 589.935 733.347 588.585 733.781 587.312C734.044 586.544 734.965 586.432 735.852 587.079C736.731 587.719 737.232 588.864 736.973 589.632C736.566 590.825 735.291 593.594 732.229 593.532C731.759 593.528 731.297 593.455 730.849 593.33Z" fill="#FF9A00"/>
<path d="M712.488 587.56C715.981 588.523 718.374 586.28 717.838 582.551L705.193 579.066C705.733 582.794 708.998 586.596 712.488 587.56Z" fill="#FF9A00"/>
<path d="M749.476 597.751C752.969 598.714 755.362 596.471 754.826 592.742L742.182 589.257C742.721 592.986 745.987 596.787 749.476 597.751Z" fill="#FF9A00"/>
<path d="M1052.66 78.9906C1052.17 73.2714 1050.56 68.7067 1049.19 65.6331C1049.4 63.4858 1049.54 58.9421 1047.32 53.8791C1044.76 48.0652 1040.56 44.9214 1038.77 43.7285C1035.35 34.4586 1030.72 30.6622 1027.15 28.9044C1025.22 27.9535 1018.8 24.0308 1012.06 25.5641C999.49 28.4202 1000.21 46.5038 988.342 52.7387C982.296 55.9141 972.169 56.4404 954.175 45.7951C944.522 43.6303 935.294 47.0582 931.307 53.8791C928.595 58.521 929.072 63.4367 929.437 65.6331C928.062 68.7032 926.458 73.2714 925.963 78.9906C925.216 87.6745 927.416 94.5585 928.9 98.2216C927.662 111.986 931.476 120.333 933.893 124.396C939.574 133.94 946.392 139.673 946.392 139.673C947.775 141.876 949.747 145.367 951.393 149.95C953.27 155.174 952.968 156.932 954.449 159.672C957.642 165.584 964.59 167.644 968.615 168.837C980.714 172.423 985.633 167.174 993.336 171.893C998.539 175.082 997.764 178.377 1001.95 179.391C1010.91 181.563 1020.94 168.005 1021.94 166.616C1025.86 161.202 1027.55 155.848 1028.33 152.451C1033.17 146.876 1040.05 137.54 1044.72 124.4C1048.41 114.039 1049.48 104.811 1049.71 98.2251C1051.21 94.5585 1053.41 87.6745 1052.66 78.9906Z" fill="url(#paint3_radial_5187_5588)"/>
<path d="M964.176 138.284C967.492 133.936 971.043 128.449 974.114 121.761C975.447 118.856 976.538 116.056 977.43 113.421C976.83 113.635 976.23 113.849 975.63 114.067C975.324 114.895 974.949 115.796 974.493 116.744C974.026 117.712 973.486 118.712 972.85 119.719C969.366 125.242 964.671 128.565 961.127 130.508C962.141 133.101 963.159 135.691 964.176 138.284Z" fill="url(#paint4_radial_5187_5588)"/>
<path d="M958.898 139.396C954.48 136.42 947.687 130.877 942.974 121.765C941.444 118.807 940.392 115.972 939.658 113.425C940.258 113.639 940.858 113.853 941.458 114.07C942.781 117.196 945.111 121.656 949.175 126.066C952.119 129.259 955.108 131.491 957.508 133.01C957.972 135.136 958.435 137.266 958.898 139.396Z" fill="url(#paint5_radial_5187_5588)"/>
<path d="M953.344 111.621C949.54 105.948 945.312 98.4356 941.954 89.1236C939.94 83.5378 938.606 78.3239 937.715 73.7065C938.315 73.9206 938.915 74.1346 939.515 74.3521C940.69 78.552 942.55 83.7694 945.564 89.4043C948.487 94.8673 951.684 99.2005 954.453 102.457C954.084 105.509 953.712 108.565 953.344 111.621Z" fill="url(#paint6_radial_5187_5588)"/>
<path d="M1014.45 137.729C1010.58 133.217 1006.26 127.2 1002.7 119.54C1001.34 116.632 1000.25 113.832 999.381 111.2C999.981 111.414 1000.58 111.628 1001.18 111.846C1001.49 112.674 1001.86 113.576 1002.32 114.523C1002.32 114.523 1003.03 115.99 1003.96 117.498C1005.16 119.425 1009.53 124.554 1016.12 130.786C1015.56 133.101 1015.01 135.414 1014.45 137.729Z" fill="url(#paint7_radial_5187_5588)"/>
<path d="M1021.4 74.9592C1024.36 69.7102 1027.44 62.8718 1029.39 54.5493C1030.06 51.6651 1030.53 48.9214 1030.84 46.353C1030.19 46.4443 1029.55 46.539 1028.9 46.6302C1028.83 48.4021 1028.6 50.381 1028.12 52.5072C1026.51 59.5737 1022.84 64.5911 1020.29 67.4612C1020.66 69.9593 1021.03 72.4575 1021.4 74.9592Z" fill="url(#paint8_radial_5187_5588)"/>
<path d="M1024.73 106.621C1027.68 103.509 1031.91 98.2778 1035.01 90.7903C1038.69 81.8924 1039.04 73.9663 1038.9 69.405C1038.34 69.4963 1037.78 69.591 1037.23 69.6822C1036.96 73.3558 1036.05 79.2995 1032.78 85.7905C1030.12 91.0816 1026.86 94.8218 1024.45 97.1796C1024.54 100.327 1024.64 103.474 1024.73 106.621Z" fill="url(#paint9_radial_5187_5588)"/>
<path d="M1018.89 137.729C1022.55 135.287 1029.24 130.087 1033.9 121.063C1036.65 115.719 1037.82 110.754 1038.34 107.176C1037.69 107.453 1037.05 107.73 1036.4 108.007C1035.74 110.663 1034.48 114.382 1031.95 118.284C1028.13 124.179 1023.34 127.491 1020.56 129.115C1020.01 131.989 1019.45 134.859 1018.89 137.729Z" fill="url(#paint10_radial_5187_5588)"/>
<path d="M1018.9 104.955C1019.25 96.2848 1018.74 90.1306 1018.06 81.9028C1016.67 64.9524 1013.96 51.0686 1011.67 41.3531C1012.05 40.5216 1012.41 39.6865 1012.79 38.855C1020.65 61.6438 1035.61 116.116 1010.29 167.728C1006.57 175.303 1002.32 182.135 997.789 188.282C995.936 184.022 994.087 179.763 992.234 175.507C994.013 173.633 996.228 171.146 998.761 167.721C998.761 167.721 1003.44 161.493 1007.18 154.329C1011.51 146.045 1017.1 128.438 1018.9 104.955Z" fill="url(#paint11_radial_5187_5588)"/>
<path d="M970.288 58.0157C968.53 57.0894 966.769 56.1631 965.011 55.2368C961.951 61.6331 938.781 112.014 964.179 153.837C970.253 163.837 977.874 171.325 985.289 176.889C984.735 171.889 984.177 166.89 983.622 161.89C977.625 156.869 973.362 151.648 970.288 146.89C947.273 111.298 967.095 65.1593 970.288 58.0157Z" fill="url(#paint12_radial_5187_5588)"/>
<path d="M982.507 163.837C981.875 163.837 981.271 163.57 980.85 163.093C974.594 156.079 971.134 148.915 970.572 141.792C970.506 140.964 970.481 140.15 970.457 139.364C970.372 136.782 970.295 134.343 968.86 131.512C967.471 128.768 965.635 127.308 963.309 125.459C962.684 124.961 962.035 124.445 961.354 123.873C961.063 123.631 954.179 117.786 948.375 108.032C944.031 100.734 942.188 91.4147 943.031 81.0537C940.567 74.7521 939.567 67.9313 940.136 61.2964C940.536 56.6369 941.69 52.0826 943.56 47.7529C943.336 44.6898 943.567 40.2444 945.659 35.4831C947.996 30.1675 951.596 26.7781 954.41 24.7887C957.333 17.217 961.526 12.0452 966.881 9.40673C969.671 8.03133 971.801 7.82432 974.053 7.60327C976.152 7.39626 978.531 7.1647 982.264 5.94719C986.377 4.60688 988.675 3.21044 990.521 2.09117C992.367 0.968399 993.963 0 996.192 0C996.655 0 997.121 0.0420988 997.62 0.126307C1005.47 1.47013 1009.34 11.933 1011.66 18.1854C1014 24.494 1015.11 31.171 1014.98 38.0374C1015.97 40.1847 1016.71 42.4373 1017.19 44.739C1017.98 48.5354 1018.03 52.4124 1017.37 56.279C1018.98 58.5772 1020.24 61.0753 1021.13 63.7173C1022.59 68.0891 1022.99 72.8293 1022.3 77.4924C1026.1 82.829 1031.39 92.6217 1028.79 103.155C1028.73 103.397 1028.63 103.628 1028.49 103.839C1024.67 109.681 1020.33 114.646 1015.59 118.6C1012.7 121.017 1010.43 122.982 1005.91 126.901C1001.65 130.593 1001.22 131.045 1000.91 131.708C999.992 133.705 1000.42 135.413 1001.32 138.505C1001.91 140.522 1002.58 142.81 1002.77 145.62C1003.14 150.792 1001.73 156.171 998.595 161.606C998.23 162.241 997.574 162.655 996.844 162.711L982.678 163.823C982.626 163.834 982.566 163.837 982.507 163.837Z" fill="url(#paint13_radial_5187_5588)"/>
<path d="M969.201 60.5559C972.409 63.1313 975.584 64.5593 977.883 65.3628C977.97 64.0716 978.062 62.7805 978.149 61.4893C976.247 61.1209 973.107 60.2577 969.868 58.0157C965.661 55.107 963.555 51.444 962.654 49.6019C961.854 49.2019 961.05 48.8019 960.25 48.3984C961.345 51.1177 963.85 56.2578 969.201 60.5559Z" fill="url(#paint14_radial_5187_5588)"/>
<path d="M986.699 42.125C989.131 41.6338 992.517 40.6689 996.184 38.6514C999.374 36.8971 1001.75 34.9112 1003.4 33.3077C1002.77 33.1744 1002.15 33.041 1001.53 32.9077C1000.14 33.9919 998.36 35.1813 996.184 36.248C992.693 37.9567 989.471 38.7075 987.103 39.0514C986.966 40.0759 986.833 41.1005 986.699 42.125Z" fill="url(#paint15_radial_5187_5588)"/>
<path d="M985.631 88.6044C985.81 91.099 985.989 93.5902 986.164 96.0848C989.477 95.0112 994.509 92.9411 999.656 88.871C1005.13 84.5449 1008.41 79.8012 1010.21 76.717C1009.27 76.9381 1008.34 77.1626 1007.4 77.3837C1005.15 79.9029 1000.93 83.9203 994.449 86.4641C991.108 87.7798 988.049 88.3553 985.631 88.6044Z" fill="url(#paint16_radial_5187_5588)"/>
<path d="M984.297 61.7595C984.163 62.9173 984.03 64.0752 983.896 65.233C986.416 64.4962 989.346 63.405 992.444 61.7595C998.525 58.5315 1002.74 54.5036 1005.4 51.4756C1004.64 51.6966 1003.89 51.9212 1003.13 52.1422C1000.37 54.4158 996.564 57.0649 991.641 59.2192C988.999 60.3806 986.511 61.1876 984.297 61.7595Z" fill="url(#paint17_radial_5187_5588)"/>
<path d="M1010.31 95.576C1008.48 98.6005 1004.72 103.863 998.065 107.842C994.331 110.077 990.798 111.242 988.113 111.884C988.355 114.361 988.594 116.842 988.836 119.319C992.229 117.747 996.637 115.253 1001.08 111.323C1007.71 105.46 1011.38 99.0776 1013.33 94.969C1012.33 95.1725 1011.32 95.376 1010.31 95.576Z" fill="url(#paint18_radial_5187_5588)"/>
<path d="M973.208 36.1147C976.124 39.4725 979.588 40.8093 981.223 41.3251C981.489 40.3462 981.756 39.3673 982.023 38.3884C980.63 38.062 977.633 37.1568 974.945 34.5148C971.25 30.8868 970.661 26.4589 970.538 25.1642C970.005 24.7186 969.468 24.273 968.934 23.8274C968.889 25.28 968.871 31.1219 973.208 36.1147Z" fill="url(#paint19_radial_5187_5588)"/>
<path d="M980.289 96.4848C979.931 93.7235 979.577 90.9657 979.219 88.2044C976.819 87.3482 973.938 86.0535 970.937 84.0641C965 80.1274 961.421 75.3416 959.449 72.1768C958.603 72.1312 957.758 72.0891 956.912 72.0435C959.165 76.4328 962.969 82.5203 969.201 88.3377C973.134 92.0078 977.029 94.6287 980.289 96.4848Z" fill="url(#paint20_radial_5187_5588)"/>
<path d="M982.293 112.376C978.696 110.86 974.58 108.797 970.271 105.965C963.288 101.372 958.182 96.327 954.642 92.2078C953.842 92.1622 953.038 92.1201 952.238 92.0745C955.06 96.8462 959.909 103.692 967.734 109.972C973.247 114.397 978.612 117.232 982.826 119.053C982.647 116.828 982.472 114.604 982.293 112.376Z" fill="url(#paint21_radial_5187_5588)"/>
<path d="M984.177 63.8507C984.033 47.9108 987.104 34.2481 987.104 34.2481C988.939 26.0764 991.293 19.5924 992.981 15.4171L991.378 15.0171C989.746 18.6556 987.392 24.2694 985.1 31.3113C985.1 31.3113 980.296 46.0758 978.068 63.577C975.822 81.2081 975.629 132.199 980.872 200.962C981.374 207.52 987.1 212.551 993.652 211.951C993.827 211.934 994.002 211.916 994.178 211.895C994.353 211.874 994.532 211.846 994.704 211.818C1002.32 210.576 1007.2 202.997 1005.45 195.482C986.367 113.288 984.311 78.8011 984.177 63.8507Z" fill="url(#paint22_radial_5187_5588)"/>
<path d="M980.215 75.8468C980.061 77.3626 983.966 80.2572 987.682 78.9941C990.465 78.0468 992.413 75.0188 991.718 73.7592C990.497 71.5522 980.454 73.5241 980.215 75.8468Z" fill="#534741"/>
<path d="M975.078 71.4644C973.046 69.8399 970.081 70.1732 968.456 72.2047C966.832 74.2362 967.165 77.201 969.197 78.8256C971.228 80.4501 974.193 80.1168 975.818 78.0852C977.443 76.0537 977.113 73.0889 975.078 71.4644ZM975.141 77.5449C973.814 79.2045 971.397 79.4712 969.74 78.1484L974.537 72.1451C976.197 73.4678 976.467 75.8853 975.141 77.5449Z" fill="#534741"/>
<path d="M1002.47 68.4048C1000.44 66.7803 997.473 67.1136 995.849 69.1451C994.224 71.1767 994.557 74.1415 996.589 75.766C998.621 77.3905 1001.59 77.0572 1003.21 75.0257C1004.84 72.9906 1004.5 70.0293 1002.47 68.4048ZM1002.53 74.4818C1001.21 76.1414 998.789 76.4081 997.133 75.0853L1001.93 69.082C1003.59 70.4083 1003.86 72.8257 1002.53 74.4818Z" fill="#534741"/>
<defs>
<radialGradient id="paint0_radial_5187_5588" cx="0" cy="0" r="1" gradientUnits="userSpaceOnUse" gradientTransform="translate(736.053 587.705) scale(83.379 82.7746)">
<stop stop-color="#F3EBD9"/>
<stop offset="0.4134" stop-color="#F4EAD7"/>
<stop offset="0.6395" stop-color="#F6E7CF"/>
<stop offset="0.8198" stop-color="#F9E2C1"/>
<stop offset="0.9759" stop-color="#FEDAAE"/>
<stop offset="1" stop-color="#FFD9AA"/>
</radialGradient>
<radialGradient id="paint1_radial_5187_5588" cx="0" cy="0" r="1" gradientUnits="userSpaceOnUse" gradientTransform="translate(842.423 585.681) scale(85.3939 84.7749)">
<stop stop-color="#F3EBD9"/>
<stop offset="0.4134" stop-color="#F4EAD7"/>
<stop offset="0.6395" stop-color="#F6E7CF"/>
<stop offset="0.8198" stop-color="#F9E2C1"/>
<stop offset="0.9759" stop-color="#FEDAAE"/>
<stop offset="1" stop-color="#FFD9AA"/>
</radialGradient>
<radialGradient id="paint2_radial_5187_5588" cx="0" cy="0" r="1" gradientUnits="userSpaceOnUse" gradientTransform="translate(777.128 531.791) scale(102.028 101.288)">
<stop stop-color="#F3EBDA"/>
<stop offset="0.416" stop-color="#F4EAD8"/>
<stop offset="0.6436" stop-color="#F6E7D0"/>
<stop offset="0.825" stop-color="#F9E2C2"/>
<stop offset="0.9821" stop-color="#FEDBAF"/>
<stop offset="1" stop-color="#FFDAAC"/>
</radialGradient>
<radialGradient id="paint3_radial_5187_5588" cx="0" cy="0" r="1" gradientUnits="userSpaceOnUse" gradientTransform="translate(989.314 102.413) scale(70.6889 94.1068)">
<stop stop-color="#5AA668"/>
<stop offset="0.4873" stop-color="#56965F"/>
<stop offset="1" stop-color="#508054"/>
</radialGradient>
<radialGradient id="paint4_radial_5187_5588" cx="0" cy="0" r="1" gradientUnits="userSpaceOnUse" gradientTransform="translate(1031.23 257.299) rotate(-128.456) scale(35.975 62.9218)">
<stop stop-color="#C8DE90"/>
<stop offset="0.457" stop-color="#B8DE8E"/>
<stop offset="1" stop-color="#9FDE8C"/>
</radialGradient>
<radialGradient id="paint5_radial_5187_5588" cx="0" cy="0" r="1" gradientUnits="userSpaceOnUse" gradientTransform="translate(925.579 239.901) rotate(-51.5441) scale(28.3163 49.5264)">
<stop stop-color="#C8DE90"/>
<stop offset="0.457" stop-color="#B8DE8E"/>
<stop offset="1" stop-color="#9FDE8C"/>
</radialGradient>
<radialGradient id="paint6_radial_5187_5588" cx="0" cy="0" r="1" gradientUnits="userSpaceOnUse" gradientTransform="translate(813.611 318.727) rotate(-51.5441) scale(65.1419 113.936)">
<stop stop-color="#C8DE90"/>
<stop offset="0.457" stop-color="#B8DE8E"/>
<stop offset="1" stop-color="#9FDE8C"/>
</radialGradient>
<radialGradient id="paint7_radial_5187_5588" cx="0" cy="0" r="1" gradientUnits="userSpaceOnUse" gradientTransform="translate(957.21 253.73) rotate(-51.5441) scale(34.2959 59.9849)">
<stop stop-color="#C8DE90"/>
<stop offset="0.457" stop-color="#B8DE8E"/>
<stop offset="1" stop-color="#9FDE8C"/>
</radialGradient>
<radialGradient id="paint8_radial_5187_5588" cx="0" cy="0" r="1" gradientUnits="userSpaceOnUse" gradientTransform="translate(1159.5 255.977) rotate(-128.456) scale(59.0661 103.309)">
<stop stop-color="#C8DE90"/>
<stop offset="0.457" stop-color="#B8DE8E"/>
<stop offset="1" stop-color="#9FDE8C"/>
</radialGradient>
<radialGradient id="paint9_radial_5187_5588" cx="0" cy="0" r="1" gradientUnits="userSpaceOnUse" gradientTransform="translate(1177.22 321.436) rotate(-128.456) scale(68.538 119.876)">
<stop stop-color="#C8DE90"/>
<stop offset="0.457" stop-color="#B8DE8E"/>
<stop offset="1" stop-color="#9FDE8C"/>
</radialGradient>
<radialGradient id="paint10_radial_5187_5588" cx="0" cy="0" r="1" gradientUnits="userSpaceOnUse" gradientTransform="translate(1083.73 273.429) rotate(-128.456) scale(39.5935 69.2507)">
<stop stop-color="#C8DE90"/>
<stop offset="0.457" stop-color="#B8DE8E"/>
<stop offset="1" stop-color="#9FDE8C"/>
</radialGradient>
<radialGradient id="paint11_radial_5187_5588" cx="0" cy="0" r="1" gradientUnits="userSpaceOnUse" gradientTransform="translate(997.736 176.599) rotate(-79.8736) scale(99.7421 132.815)">
<stop stop-color="#C8DE90"/>
<stop offset="0.457" stop-color="#B8DE8E"/>
<stop offset="1" stop-color="#9FDE8C"/>
</radialGradient>
<radialGradient id="paint12_radial_5187_5588" cx="0" cy="0" r="1" gradientUnits="userSpaceOnUse" gradientTransform="translate(977.819 169.702) rotate(-100.126) scale(93.9671 125.125)">
<stop stop-color="#C8DE90"/>
<stop offset="0.457" stop-color="#B8DE8E"/>
<stop offset="1" stop-color="#9FDE8C"/>
</radialGradient>
<radialGradient id="paint13_radial_5187_5588" cx="0" cy="0" r="1" gradientUnits="userSpaceOnUse" gradientTransform="translate(984.734 81.9061) scale(59.4443 91.0948)">
<stop stop-color="#4CCC4F"/>
<stop offset="0.4873" stop-color="#56BC5E"/>
<stop offset="1" stop-color="#64A671"/>
</radialGradient>
<radialGradient id="paint14_radial_5187_5588" cx="0" cy="0" r="1" gradientUnits="userSpaceOnUse" gradientTransform="translate(980.483 126.825) rotate(-96.6708) scale(22.4088 39.2001)">
<stop stop-color="#E6FFA6"/>
<stop offset="0.4072" stop-color="#D6FFA4"/>
<stop offset="1" stop-color="#B7FFA1"/>
</radialGradient>
<radialGradient id="paint15_radial_5187_5588" cx="0" cy="0" r="1" gradientUnits="userSpaceOnUse" gradientTransform="translate(980.481 126.825) rotate(-96.6708) scale(22.4087 39.2)">
<stop stop-color="#E6FFA6"/>
<stop offset="0.4072" stop-color="#D6FFA4"/>
<stop offset="1" stop-color="#B7FFA1"/>
</radialGradient>
<radialGradient id="paint16_radial_5187_5588" cx="0" cy="0" r="1" gradientUnits="userSpaceOnUse" gradientTransform="translate(980.483 126.826) rotate(-96.6708) scale(22.4088 39.2001)">
<stop stop-color="#E6FFA6"/>
<stop offset="0.4072" stop-color="#D6FFA4"/>
<stop offset="1" stop-color="#B7FFA1"/>
</radialGradient>
<radialGradient id="paint17_radial_5187_5588" cx="0" cy="0" r="1" gradientUnits="userSpaceOnUse" gradientTransform="translate(980.482 126.825) rotate(-96.6708) scale(22.4088 39.2001)">
<stop stop-color="#E6FFA6"/>
<stop offset="0.4072" stop-color="#D6FFA4"/>
<stop offset="1" stop-color="#B7FFA1"/>
</radialGradient>
<radialGradient id="paint18_radial_5187_5588" cx="0" cy="0" r="1" gradientUnits="userSpaceOnUse" gradientTransform="translate(984.226 130.874) rotate(-108.022) scale(22.4114 39.2012)">
<stop stop-color="#E6FFA6"/>
<stop offset="0.4072" stop-color="#D6FFA4"/>
<stop offset="1" stop-color="#B7FFA1"/>
</radialGradient>
<radialGradient id="paint19_radial_5187_5588" cx="0" cy="0" r="1" gradientUnits="userSpaceOnUse" gradientTransform="translate(980.482 126.826) rotate(-96.6708) scale(22.4088 39.2001)">
<stop stop-color="#E6FFA6"/>
<stop offset="0.4072" stop-color="#D6FFA4"/>
<stop offset="1" stop-color="#B7FFA1"/>
</radialGradient>
<radialGradient id="paint20_radial_5187_5588" cx="0" cy="0" r="1" gradientUnits="userSpaceOnUse" gradientTransform="translate(980.482 126.826) rotate(-96.6708) scale(22.4088 39.2001)">
<stop stop-color="#E6FFA6"/>
<stop offset="0.4072" stop-color="#D6FFA4"/>
<stop offset="1" stop-color="#B7FFA1"/>
</radialGradient>
<radialGradient id="paint21_radial_5187_5588" cx="0" cy="0" r="1" gradientUnits="userSpaceOnUse" gradientTransform="translate(980.482 126.826) rotate(-96.6708) scale(22.4088 39.2001)">
<stop stop-color="#E6FFA6"/>
<stop offset="0.4072" stop-color="#D6FFA4"/>
<stop offset="1" stop-color="#B7FFA1"/>
</radialGradient>
<radialGradient id="paint22_radial_5187_5588" cx="0" cy="0" r="1" gradientUnits="userSpaceOnUse" gradientTransform="translate(984.259 197.15) rotate(-81.87) scale(83.7786 111.557)">
<stop stop-color="#E6FFA6"/>
<stop offset="0.4072" stop-color="#D6FFA4"/>
<stop offset="1" stop-color="#B7FFA1"/>
</radialGradient>
</defs>
</svg>
