<svg width="1342" height="1024" viewBox="0 0 1342 1024" fill="none" xmlns="http://www.w3.org/2000/svg">
<path d="M972.922 399.431L169 867.129L388.777 996L1171.01 535.542C1176.79 511.216 1168.6 498.377 1163.78 494.998C1115.58 466.487 1015.72 407.457 1001.84 399.431C987.959 391.406 976.778 396.087 972.922 399.431Z" fill="#F4EFEF" stroke="black" stroke-linejoin="round"/>
<path d="M366 785C382.24 791.859 450.1 831.858 482 851" stroke="black"/>
<path d="M451 734.857C467.24 741.82 535.1 782.425 567 801.857" stroke="black"/>
<path d="M536 685.715C552.24 692.574 620.1 732.573 652 751.715" stroke="black"/>
<path d="M621 636.57C637.24 643.429 705.1 683.428 737 702.57" stroke="black"/>
<path d="M706 587.428C722.24 594.287 790.1 634.286 822 653.428" stroke="black"/>
<path d="M791 537.285C807.38 544.248 875.825 584.853 908 604.285" stroke="black"/>
<path d="M877 487.143C893.1 494.105 960.375 534.711 992 554.143" stroke="black"/>
<path d="M961 437C977.24 443.963 1045.1 484.568 1077 504" stroke="black"/>
<path d="M341.037 967.974L1163 497" stroke="black"/>
<ellipse cx="535.093" cy="883.231" rx="17.7269" ry="12.8657" transform="rotate(-54.8943 535.093 883.231)" fill="#8FE3C1"/>
<ellipse cx="826.042" cy="715.487" rx="17.7269" ry="12.8657" transform="rotate(-54.8943 826.042 715.487)" fill="#8FE3C1"/>
<ellipse cx="973.554" cy="631.608" rx="17.7269" ry="12.8657" transform="rotate(-54.8943 973.554 631.608)" fill="#8FE3C1"/>
<ellipse cx="1118.17" cy="547.729" rx="17.7269" ry="12.8657" transform="rotate(-54.8943 1118.17 547.729)" fill="#8FE3C1"/>
<ellipse cx="681.423" cy="799.365" rx="17.7269" ry="12.8657" transform="rotate(-54.8943 681.423 799.365)" fill="#8FE3C1"/>
<path d="M223.564 880.848C223.073 875.129 221.466 870.564 220.09 867.491C220.297 865.343 220.445 860.8 218.22 855.737C215.666 849.923 211.462 846.779 209.672 845.586C206.247 836.316 201.619 832.52 198.05 830.762C196.12 829.811 189.706 825.889 182.958 827.422C170.393 830.278 171.108 848.362 159.245 854.596C153.199 857.772 143.072 858.298 125.078 847.653C115.424 845.488 106.196 848.916 102.21 855.737C99.4972 860.379 99.9745 865.294 100.339 867.491C98.9639 870.561 97.3603 875.129 96.8655 880.848C96.1181 889.532 98.3182 896.416 99.8025 900.079C98.5639 913.844 102.378 922.191 104.796 926.254C110.477 935.797 117.295 941.531 117.295 941.531C118.677 943.734 120.649 947.225 122.295 951.807C124.172 957.032 123.871 958.79 125.351 961.53C128.545 967.442 135.492 969.502 139.517 970.695C151.616 974.28 156.536 969.032 164.238 973.751C169.442 976.94 168.666 980.235 172.849 981.249C181.807 983.421 191.84 969.863 192.847 968.474C196.766 963.06 198.45 957.706 199.236 954.309C204.072 948.734 210.949 939.397 215.623 926.257C219.311 915.896 220.382 906.668 220.617 900.083C222.111 896.416 224.312 889.532 223.564 880.848Z" fill="url(#paint0_radial_5199_11316)"/>
<path d="M135.079 940.142C138.395 935.794 141.946 930.307 145.016 923.619C146.349 920.714 147.441 917.914 148.332 915.279C147.732 915.493 147.132 915.707 146.532 915.925C146.227 916.753 145.851 917.655 145.395 918.602C144.928 919.57 144.388 920.57 143.753 921.577C140.268 927.1 135.573 930.423 132.029 932.366C133.043 934.959 134.061 937.549 135.079 940.142Z" fill="url(#paint1_radial_5199_11316)"/>
<path d="M129.8 941.252C125.382 938.277 118.589 932.733 113.877 923.621C112.347 920.664 111.294 917.829 110.561 915.281C111.161 915.495 111.761 915.709 112.361 915.927C113.684 919.053 116.014 923.513 120.077 927.923C123.021 931.116 126.011 933.347 128.411 934.867C128.874 936.993 129.337 939.123 129.8 941.252Z" fill="url(#paint2_radial_5199_11316)"/>
<path d="M124.246 913.479C120.442 907.806 116.214 900.294 112.856 890.982C110.842 885.396 109.508 880.182 108.617 875.564C109.217 875.778 109.817 875.992 110.417 876.21C111.593 880.41 113.453 885.627 116.467 891.262C119.39 896.725 122.586 901.058 125.355 904.314C124.987 907.367 124.615 910.423 124.246 913.479Z" fill="url(#paint3_radial_5199_11316)"/>
<path d="M185.354 939.586C181.48 935.074 177.164 929.056 173.599 921.397C172.245 918.488 171.157 915.688 170.283 913.057C170.883 913.271 171.483 913.485 172.083 913.702C172.389 914.53 172.764 915.432 173.22 916.379C173.22 916.379 173.929 917.846 174.862 919.355C176.059 921.281 180.431 926.411 187.018 932.642C186.467 934.958 185.909 937.27 185.354 939.586Z" fill="url(#paint4_radial_5199_11316)"/>
<path d="M192.3 876.817C195.261 871.568 198.342 864.73 200.29 856.407C200.964 853.523 201.43 850.779 201.743 848.211C201.093 848.302 200.448 848.397 199.799 848.488C199.728 850.26 199.507 852.239 199.023 854.365C197.416 861.432 193.739 866.449 191.188 869.319C191.559 871.817 191.928 874.315 192.3 876.817Z" fill="url(#paint5_radial_5199_11316)"/>
<path d="M195.632 908.478C198.583 905.366 202.815 900.135 205.91 892.647C209.587 883.749 209.938 875.823 209.798 871.262C209.244 871.353 208.686 871.448 208.131 871.539C207.861 875.212 206.952 881.156 203.685 887.647C201.026 892.938 197.762 896.678 195.352 899.036C195.446 902.184 195.538 905.331 195.632 908.478Z" fill="url(#paint6_radial_5199_11316)"/>
<path d="M189.797 939.587C193.457 937.145 200.138 931.945 204.798 922.921C207.556 917.577 208.721 912.612 209.244 909.033C208.594 909.31 207.949 909.588 207.3 909.865C206.643 912.521 205.387 916.24 202.854 920.142C199.029 926.036 194.239 929.348 191.464 930.973C190.909 933.846 190.355 936.717 189.797 939.587Z" fill="url(#paint7_radial_5199_11316)"/>
<path d="M189.798 906.813C190.149 898.143 189.644 891.989 188.966 883.761C187.57 866.81 184.864 852.927 182.576 843.211C182.948 842.38 183.317 841.544 183.689 840.713C191.549 863.502 206.508 917.974 181.19 969.586C177.474 977.161 173.225 983.993 168.691 990.14C166.839 985.88 164.989 981.621 163.137 977.365C164.916 975.491 167.13 973.004 169.663 969.579C169.663 969.579 174.344 963.351 178.085 956.187C182.412 947.903 188.001 930.296 189.798 906.813Z" fill="url(#paint8_radial_5199_11316)"/>
<path d="M141.19 859.873C139.432 858.946 137.671 858.02 135.913 857.094C132.853 863.49 109.683 913.871 135.081 955.694C141.155 965.694 148.777 973.181 156.191 978.746C155.637 973.746 155.079 968.746 154.525 963.747C148.528 958.726 144.264 953.505 141.19 948.747C118.175 913.155 137.997 867.016 141.19 859.873Z" fill="url(#paint9_radial_5199_11316)"/>
<path d="M153.409 965.694C152.777 965.694 152.174 965.428 151.753 964.951C145.496 957.937 142.036 950.772 141.475 943.65C141.408 942.822 141.384 942.007 141.359 941.222C141.275 938.639 141.198 936.201 139.762 933.369C138.373 930.625 136.538 929.166 134.211 927.317C133.587 926.818 132.937 926.303 132.257 925.731C131.966 925.489 125.081 919.643 119.277 909.889C114.933 902.591 113.091 893.272 113.933 882.911C111.47 876.61 110.47 869.789 111.038 863.154C111.438 858.494 112.592 853.94 114.463 849.61C114.238 846.547 114.47 842.102 116.561 837.341C118.898 832.025 122.498 828.636 125.312 826.646C128.235 819.074 132.429 813.903 137.783 811.264C140.573 809.889 142.703 809.682 144.956 809.461C147.054 809.254 149.433 809.022 153.167 807.805C157.279 806.464 159.578 805.068 161.423 803.949C163.269 802.826 164.866 801.857 167.094 801.857C167.557 801.857 168.024 801.9 168.522 801.984C176.372 803.328 180.246 813.79 182.561 820.043C184.898 826.351 186.011 833.028 185.877 839.895C186.871 842.042 187.614 844.295 188.092 846.596C188.878 850.393 188.937 854.27 188.274 858.136C189.881 860.435 191.144 862.933 192.029 865.575C193.495 869.947 193.895 874.687 193.201 879.35C196.997 884.686 202.292 894.479 199.692 905.012C199.633 905.254 199.531 905.486 199.394 905.696C195.573 911.538 191.236 916.503 186.495 920.457C183.6 922.875 181.33 924.84 176.81 928.759C172.55 932.45 172.119 932.903 171.813 933.566C170.894 935.562 171.322 937.271 172.224 940.362C172.814 942.379 173.48 944.667 173.677 947.478C174.038 952.649 172.631 958.028 169.498 963.463C169.133 964.098 168.476 964.512 167.747 964.568L153.581 965.68C153.528 965.691 153.469 965.694 153.409 965.694Z" fill="url(#paint10_radial_5199_11316)"/>
<path d="M140.104 862.413C143.311 864.989 146.487 866.417 148.785 867.22C148.873 865.929 148.964 864.638 149.052 863.347C147.15 862.978 144.009 862.115 140.77 859.873C136.563 856.964 134.458 853.301 133.556 851.459C132.756 851.059 131.952 850.659 131.152 850.256C132.247 852.975 134.753 858.115 140.104 862.413Z" fill="url(#paint11_radial_5199_11316)"/>
<path d="M157.602 843.983C160.033 843.492 163.419 842.527 167.086 840.509C170.276 838.755 172.655 836.769 174.301 835.166C173.676 835.032 173.055 834.899 172.431 834.766C171.037 835.85 169.262 837.039 167.086 838.106C163.595 839.815 160.374 840.565 158.005 840.909C157.868 841.934 157.735 842.958 157.602 843.983Z" fill="url(#paint12_radial_5199_11316)"/>
<path d="M156.533 890.462C156.712 892.956 156.891 895.447 157.067 897.942C160.379 896.868 165.411 894.798 170.559 890.728C176.033 886.402 179.31 881.658 181.11 878.574C180.177 878.795 179.24 879.02 178.306 879.241C176.057 881.76 171.832 885.777 165.351 888.321C162.011 889.637 158.951 890.212 156.533 890.462Z" fill="url(#paint13_radial_5199_11316)"/>
<path d="M155.199 863.618C155.066 864.776 154.932 865.934 154.799 867.091C157.318 866.355 160.248 865.263 163.347 863.618C169.428 860.39 173.646 856.362 176.302 853.334C175.544 853.555 174.789 853.78 174.032 854.001C171.277 856.274 167.466 858.923 162.543 861.078C159.901 862.239 157.413 863.046 155.199 863.618Z" fill="url(#paint14_radial_5199_11316)"/>
<path d="M181.217 897.433C179.385 900.458 175.62 905.721 168.967 909.699C165.234 911.934 161.7 913.099 159.016 913.741C159.258 916.219 159.496 918.699 159.738 921.176C163.132 919.604 167.539 917.11 171.985 913.18C178.613 907.317 182.287 900.935 184.231 896.826C183.228 897.03 182.221 897.233 181.217 897.433Z" fill="url(#paint15_radial_5199_11316)"/>
<path d="M144.111 837.973C147.027 841.331 150.49 842.667 152.125 843.183C152.392 842.204 152.658 841.225 152.925 840.247C151.532 839.92 148.535 839.015 145.848 836.373C142.153 832.745 141.563 828.317 141.44 827.022C140.907 826.577 140.37 826.131 139.837 825.686C139.791 827.138 139.773 832.98 144.111 837.973Z" fill="url(#paint16_radial_5199_11316)"/>
<path d="M151.191 898.342C150.833 895.58 150.479 892.823 150.121 890.061C147.721 889.205 144.84 887.91 141.84 885.921C135.903 881.984 132.323 877.199 130.351 874.034C129.506 873.988 128.66 873.946 127.814 873.9C130.067 878.29 133.871 884.377 140.103 890.195C144.036 893.865 147.931 896.486 151.191 898.342Z" fill="url(#paint17_radial_5199_11316)"/>
<path d="M153.195 914.233C149.598 912.717 145.482 910.654 141.173 907.822C134.19 903.23 129.085 898.184 125.544 894.065C124.744 894.019 123.941 893.977 123.141 893.932C125.962 898.703 130.811 905.549 138.636 911.829C144.149 916.254 149.514 919.089 153.728 920.91C153.549 918.685 153.374 916.461 153.195 914.233Z" fill="url(#paint18_radial_5199_11316)"/>
<path d="M155.08 865.709C154.936 849.769 158.006 836.106 158.006 836.106C159.841 827.934 162.196 821.45 163.884 817.275L162.28 816.875C160.648 820.513 158.294 826.127 156.002 833.169C156.002 833.169 151.199 847.934 148.971 865.435C146.725 883.066 146.532 934.057 151.774 1002.82C152.276 1009.38 158.003 1014.41 164.554 1013.81C164.729 1013.79 164.905 1013.77 165.08 1013.75C165.256 1013.73 165.435 1013.7 165.607 1013.68C173.221 1012.43 178.099 1004.86 176.355 997.34C157.269 915.146 155.213 880.659 155.08 865.709Z" fill="url(#paint19_radial_5199_11316)"/>
<path d="M151.118 877.704C150.963 879.22 154.869 882.114 158.585 880.851C161.367 879.904 163.315 876.876 162.62 875.616C161.399 873.409 151.356 875.381 151.118 877.704Z" fill="#534741"/>
<path d="M145.98 873.321C143.948 871.697 140.983 872.03 139.359 874.062C137.734 876.093 138.067 879.058 140.099 880.682C142.131 882.307 145.096 881.974 146.72 879.942C148.345 877.911 148.015 874.946 145.98 873.321ZM146.043 879.402C144.717 881.061 142.299 881.328 140.643 880.005L145.44 874.002C147.099 875.325 147.37 877.742 146.043 879.402Z" fill="#534741"/>
<path d="M173.373 870.263C171.341 868.638 168.376 868.972 166.751 871.003C165.126 873.035 165.46 875.999 167.491 877.624C169.523 879.248 172.488 878.915 174.113 876.884C175.738 874.849 175.404 871.887 173.373 870.263ZM173.436 876.34C172.109 877.999 169.692 878.266 168.035 876.943L172.832 870.94C174.488 872.266 174.759 874.684 173.436 876.34Z" fill="#534741"/>
<path d="M312.027 822.458L311.273 829.027C311.266 829.09 311.207 829.139 311.144 829.128C311.088 829.121 311.046 829.079 311.043 829.027L310.285 822.454C310.229 821.97 310.575 821.531 311.057 821.475C311.539 821.419 311.975 821.766 312.031 822.251C312.034 822.321 312.034 822.391 312.027 822.458Z" fill="#F37343"/>
<path d="M319.709 826.253L314.574 830.382C314.511 830.431 314.42 830.42 314.371 830.361C314.329 830.308 314.329 830.231 314.371 830.178L318.477 825.013C318.781 824.631 319.332 824.571 319.713 824.876C320.093 825.182 320.153 825.737 319.849 826.119C319.804 826.165 319.755 826.214 319.709 826.253Z" fill="#F37343"/>
<path d="M303.838 825.009L308.035 830.083C308.132 830.199 308.115 830.374 308 830.469C307.898 830.553 307.748 830.553 307.651 830.469L302.606 826.249C302.232 825.936 302.183 825.382 302.49 825.006C302.801 824.63 303.353 824.581 303.726 824.89C303.768 824.932 303.807 824.971 303.838 825.009Z" fill="#F37343"/>
<path d="M299.98 832.646L306.516 833.408C306.578 833.415 306.627 833.474 306.617 833.538C306.61 833.594 306.568 833.636 306.516 833.639L299.98 834.401C299.498 834.458 299.062 834.11 299.006 833.625C298.95 833.141 299.296 832.702 299.777 832.646C299.844 832.639 299.914 832.639 299.98 832.646Z" fill="#F37343"/>
<path d="M302.517 840.882L307.562 836.662C307.677 836.563 307.852 836.581 307.946 836.697C308.03 836.799 308.03 836.95 307.946 837.048L303.75 842.121C303.439 842.497 302.887 842.546 302.514 842.237C302.14 841.924 302.091 841.37 302.399 840.994C302.437 840.955 302.479 840.913 302.517 840.882Z" fill="#F37343"/>
<path d="M310.111 844.766L310.868 838.193C310.875 838.13 310.935 838.081 310.997 838.091C311.053 838.098 311.095 838.14 311.099 838.193L311.856 844.766C311.912 845.25 311.567 845.689 311.085 845.745C310.603 845.801 310.167 845.454 310.111 844.969C310.104 844.899 310.104 844.829 310.111 844.766Z" fill="#F37343"/>
<path d="M318.303 842.21L314.107 837.137C314.009 837.021 314.026 836.845 314.141 836.751C314.243 836.666 314.393 836.666 314.491 836.751L319.535 840.971C319.909 841.283 319.958 841.838 319.651 842.214C319.34 842.589 318.788 842.639 318.415 842.33C318.376 842.291 318.334 842.249 318.303 842.21Z" fill="#F37343"/>
<path d="M322.164 834.574L315.628 833.812C315.565 833.805 315.516 833.745 315.527 833.682C315.534 833.626 315.576 833.584 315.628 833.58L322.164 832.818C322.645 832.762 323.082 833.11 323.138 833.594C323.194 834.079 322.848 834.518 322.366 834.574C322.296 834.584 322.227 834.581 322.164 834.574Z" fill="#F37343"/>
<path d="M319.921 862.43C320.343 861.521 322.927 855.689 320.148 849.398C318.151 844.883 314.541 842.723 313.295 842.053C312.136 842.116 308.03 842.474 304.797 845.76C302.105 848.495 299.787 853.502 301.801 858.098C304.364 863.94 311.786 864.228 312.802 864.252C316.081 864.326 318.615 863.157 319.921 862.43Z" fill="url(#paint20_linear_5199_11316)"/>
<path d="M330.595 790.027C329.457 787.275 327.875 782.426 328.151 776.335C328.315 772.704 328.748 763.211 336.181 757.025C343.369 751.038 354.297 750.487 362.365 755.269C369.096 759.261 371.708 765.7 372.49 767.908C369.519 771.763 364.467 777.314 356.779 781.952C346.138 788.377 335.964 789.715 330.595 790.027Z" fill="url(#paint21_linear_5199_11316)"/>
<path d="M384.786 898.223C368.803 902.668 348.627 902.068 334.068 895.193C316.333 886.82 311.375 870.224 311.438 855.569C312.245 840.813 314.381 826.197 317.935 811.669C322.558 796.962 330.944 782.658 347.133 773.038C357.491 766.884 369.941 763.194 383.106 766.122C394.24 769.668 400.039 778.252 403.928 786.253C408.858 796.396 411.857 806.757 412.761 817.557C413.592 826.752 415.488 835.697 418.49 844.636C426.67 866.66 414.702 890.127 384.786 898.223Z" fill="url(#paint22_radial_5199_11316)"/>
<path d="M402.165 807.582C400.556 807.273 393.901 805.802 389.247 799.507C383.574 791.832 385.463 783.192 385.756 781.953C388.825 775.24 395.72 771.332 402.539 772.277C409.954 773.302 414.426 779.678 415.781 785.112C418.089 794.36 411.522 801.445 410.593 802.414C407.528 805.609 404.068 806.985 402.165 807.582Z" fill="url(#paint23_linear_5199_11316)"/>
<path d="M360.054 830.371C359.722 831.916 363.392 835.35 367.344 834.472C370.301 833.815 372.647 830.919 372.074 829.543C371.076 827.131 360.56 828.005 360.054 830.371Z" fill="#F37343"/>
<path d="M355.291 825.266C353.395 823.359 350.32 823.359 348.424 825.266C346.528 827.172 346.528 830.265 348.424 832.172C350.32 834.078 353.395 834.078 355.291 832.172C357.19 830.265 357.19 827.172 355.291 825.266ZM354.659 831.536C353.113 833.092 350.606 833.092 349.059 831.536L354.659 825.905C356.206 827.457 356.206 829.977 354.659 831.536Z" fill="#F37343"/>
<path d="M383.703 825.266C381.807 823.359 378.732 823.359 376.836 825.266C374.94 827.172 374.94 830.265 376.836 832.172C378.732 834.078 381.807 834.078 383.703 832.172C385.599 830.265 385.599 827.172 383.703 825.266ZM383.068 831.536C381.521 833.092 379.014 833.092 377.468 831.536L383.068 825.905C384.618 827.457 384.618 829.977 383.068 831.536Z" fill="#F37343"/>
<path d="M399.931 757.818L399.174 765.292C399.167 765.356 399.111 765.405 399.045 765.398C398.989 765.391 398.947 765.349 398.94 765.292L398.182 757.818C398.133 757.333 398.483 756.901 398.968 756.852C399.45 756.803 399.879 757.154 399.928 757.642C399.938 757.695 399.938 757.758 399.931 757.818Z" fill="#F37343"/>
<path d="M408.702 762.048L402.931 766.812C402.868 766.861 402.777 766.854 402.728 766.791C402.683 766.738 402.686 766.661 402.728 766.609L407.466 760.805C407.773 760.429 408.325 760.373 408.702 760.682C409.075 760.991 409.131 761.546 408.824 761.925C408.785 761.971 408.743 762.013 408.702 762.048Z" fill="#F37343"/>
<path d="M390.654 760.806L395.486 766.518C395.584 766.634 395.57 766.806 395.455 766.905C395.35 766.992 395.2 766.989 395.102 766.905L389.422 762.046C389.052 761.73 389.01 761.175 389.321 760.803C389.631 760.431 390.187 760.388 390.557 760.701C390.588 760.736 390.623 760.775 390.654 760.806Z" fill="#F37343"/>
<path d="M386.346 769.526L393.778 770.288C393.841 770.295 393.89 770.351 393.883 770.418C393.876 770.474 393.834 770.516 393.778 770.523L386.346 771.285C385.864 771.334 385.434 770.983 385.385 770.495C385.337 770.011 385.686 769.579 386.171 769.53C386.227 769.519 386.29 769.519 386.346 769.526Z" fill="#F37343"/>
<path d="M389.32 778.858L395 773.999C395.116 773.901 395.287 773.915 395.384 774.031C395.472 774.136 395.468 774.287 395.384 774.385L390.552 780.097C390.238 780.47 389.687 780.512 389.317 780.199C388.946 779.883 388.905 779.329 389.215 778.956C389.25 778.921 389.285 778.886 389.32 778.858Z" fill="#F37343"/>
<path d="M397.991 783.188L398.748 775.713C398.755 775.65 398.811 775.601 398.877 775.608C398.933 775.615 398.975 775.657 398.982 775.713L399.74 783.188C399.789 783.673 399.439 784.105 398.954 784.154C398.472 784.203 398.043 783.852 397.994 783.364C397.987 783.308 397.987 783.244 397.991 783.188Z" fill="#F37343"/>
<path d="M407.27 780.196L402.438 774.484C402.34 774.368 402.354 774.196 402.47 774.098C402.574 774.01 402.724 774.013 402.822 774.098L408.506 778.957C408.876 779.273 408.918 779.828 408.607 780.2C408.296 780.572 407.741 780.614 407.371 780.302C407.336 780.266 407.301 780.231 407.27 780.196Z" fill="#F37343"/>
<path d="M411.577 771.478L404.144 770.717C404.082 770.71 404.033 770.653 404.04 770.587C404.047 770.53 404.089 770.488 404.144 770.481L411.577 769.719C412.059 769.67 412.489 770.021 412.537 770.509C412.586 770.994 412.237 771.426 411.752 771.475C411.696 771.485 411.633 771.482 411.577 771.478Z" fill="#F37343"/>
<path d="M631.942 734.779C632.75 748.575 628.849 762.588 618.548 772.158C608.35 781.635 593.864 785.507 580.255 785.675C578.621 785.705 577.804 785.727 576.171 785.785C562.516 786.224 547.968 783.309 537.209 774.338C527.903 766.578 522.991 755.06 522.012 743.147L631.117 721.693C631.392 726.057 631.667 730.418 631.942 734.779Z" fill="url(#paint24_linear_5199_11316)"/>
<path d="M630.988 721.86C632.227 728.149 608.848 738.049 578.772 743.971C548.697 749.889 523.311 749.591 522.072 743.298C520.833 737.009 544.213 727.109 574.288 721.187C604.363 715.265 629.75 715.567 630.988 721.86Z" fill="url(#paint25_linear_5199_11316)"/>
<path d="M544.02 746.769C528.45 747.187 523.767 744.614 523.454 743.026C523.129 741.368 526.477 737.85 536.989 733.4C546.765 729.261 560.107 725.416 574.564 722.569C586.912 720.14 599.156 718.654 609.043 718.389C624.614 717.971 629.297 720.544 629.61 722.132C629.935 723.79 626.587 727.307 616.075 731.757C606.299 735.897 592.957 739.742 578.5 742.589C566.152 745.018 553.904 746.504 544.02 746.769Z" fill="url(#paint26_radial_5199_11316)"/>
<path d="M567.604 730.696C566.86 731.225 563.585 733.547 564.072 735.068C565.117 738.338 582.833 735.589 588.306 731.394C588.935 730.91 590.589 729.645 590.278 728.646C590.043 727.891 588.787 727.612 587.867 727.448C581.778 726.369 575.607 727.832 573.356 728.416C569.949 729.3 568.685 729.93 567.604 730.696Z" fill="#FFE6CC"/>
<path d="M556.981 734.792C557.29 734.145 560.714 734.667 560.726 735.116C560.737 735.505 558.191 736.349 557.246 735.409C557.203 735.365 556.868 735.03 556.981 734.792Z" fill="#063B01"/>
<path d="M578.887 740.036C579.243 740.353 579.93 740.457 580.305 740.184C581.165 739.55 580.305 736.924 579.666 736.91C579.059 736.898 577.978 739.229 578.887 740.036Z" fill="#063B01"/>
<path d="M564.707 740.247C564.847 740.601 566.427 740.661 567.499 739.829C568.231 739.258 568.745 738.258 568.486 738.016C567.986 737.553 564.474 739.657 564.707 740.247Z" fill="#063B01"/>
<path d="M593.733 734.639C592.576 735.315 590.14 733.721 590.295 733.222C590.398 732.89 591.668 733.003 593.092 733.133C593.873 733.203 594.177 733.293 594.285 733.512C594.455 733.844 594.14 734.4 593.733 734.639Z" fill="#063B01"/>
<path d="M575.575 725.472C575.243 725.27 574.168 725.748 574.137 726.18C574.129 726.272 574.213 726.392 574.378 726.633C574.652 727.033 574.787 727.229 574.896 727.234C575.303 727.24 576.013 725.737 575.575 725.472Z" fill="#063B01"/>
<path d="M565.373 728.387C564.749 728.411 564.175 728.861 564.235 729.109C564.345 729.541 566.519 729.626 566.662 729.219C566.75 728.968 566.134 728.356 565.373 728.387Z" fill="#063B01"/>
<path d="M594.826 725.693C594.826 725.402 593.691 724.969 592.683 725.312C591.991 725.548 591.341 726.152 591.459 726.391C591.693 726.851 594.833 726.181 594.826 725.693Z" fill="#063B01"/>
<path d="M560.356 731.291C560.238 731.056 560.586 730.58 561.012 730.375C562.086 729.866 563.746 731.042 563.645 731.343C563.623 731.41 563.517 731.406 562.006 731.429C560.725 731.446 560.438 731.457 560.356 731.291Z" fill="#A2C71E"/>
<path d="M583.729 724.307C584.08 723.821 584.79 723.598 584.977 723.779C585.309 724.097 584.237 725.883 583.793 725.779C583.521 725.72 583.299 724.901 583.729 724.307Z" fill="#063B01"/>
<path d="M591.038 723.781C591.02 723.522 590.469 723.266 589.989 723.29C588.787 723.346 587.955 725.148 588.196 725.362C588.25 725.41 588.34 725.355 589.669 724.67C590.793 724.089 591.049 723.963 591.038 723.781Z" fill="#A2C71E"/>
<path d="M570.998 740.443C571.316 740.891 573.01 740.761 573.742 739.801C574.437 738.888 574.107 737.437 573.595 737.296C573.298 737.213 572.946 737.58 572.407 738.139C571.854 738.715 570.659 739.961 570.998 740.443Z" fill="#A2C71E"/>
<path d="M559.768 738.156C559.737 738.434 560.049 738.685 560.269 738.792C561.449 739.353 563.67 737.497 563.469 737.085C563.253 736.631 559.864 737.29 559.768 738.156Z" fill="#A2C71E"/>
<path d="M580.502 724.736C580.346 724.533 579.803 724.446 579.462 724.56C578.61 724.85 578.986 726.443 579.284 726.562C579.352 726.588 579.385 726.527 579.988 725.715C580.492 725.028 580.611 724.877 580.502 724.736Z" fill="#A2C71E"/>
<path d="M587.377 737.12C587.35 737.552 586.245 738.073 585.364 737.802C584.281 737.466 583.825 736.015 584.16 735.704C584.359 735.52 584.848 735.717 585.682 736.056C586.611 736.428 587.399 736.747 587.377 737.12Z" fill="#A2C71E"/>
<path d="M570.212 726.594C569.907 726.582 569.4 726.669 569.326 726.909C569.191 727.352 570.525 728.309 570.995 728.047C571.261 727.9 571.313 727.333 571.047 726.968C570.785 726.621 570.332 726.598 570.212 726.594Z" fill="#A2C71E"/>
<path d="M595.801 728.126C596.009 728.324 595.932 728.705 595.829 728.918C595.284 730.055 592.323 729.928 592.206 729.485C592.073 729.008 595.152 727.508 595.801 728.126Z" fill="#A2C71E"/>
<path d="M570.61 708.56C540.699 714.015 517.386 723.555 518.539 729.86C518.582 730.102 518.667 730.336 518.783 730.562C519.797 733.09 520.812 735.621 521.826 738.148C523.121 741.379 526.072 743.652 529.529 744.069C541.889 745.555 558.993 746.156 578.78 742.425C597.648 738.867 612.817 732.528 623.72 726.831C627.697 724.754 629.664 720.159 628.448 715.84C627.922 713.968 627.397 712.098 626.867 710.227C626.863 710.184 626.858 710.141 626.851 710.099C625.696 703.791 600.519 703.101 570.61 708.56Z" fill="url(#paint27_linear_5199_11316)"/>
<path d="M608.408 721.387C623.05 716.075 626.466 711.967 626.176 710.374C625.871 708.713 621.468 706.665 610.057 706.372C599.444 706.099 585.62 707.405 571.125 710.049C558.745 712.309 546.807 715.408 537.509 718.781C522.866 724.093 519.45 728.202 519.741 729.794C520.045 731.456 524.448 733.504 535.859 733.797C546.472 734.069 560.296 732.763 574.791 730.12C587.172 727.86 599.11 724.76 608.408 721.387Z" fill="url(#paint28_radial_5199_11316)"/>
<path d="M580.573 715.064C581.459 715.284 585.356 716.246 585.46 717.839C585.684 721.265 568.193 725.193 561.563 723.292C560.801 723.073 558.799 722.5 558.722 721.457C558.664 720.669 559.731 719.95 560.527 719.459C565.798 716.226 572.077 715.329 574.385 715.048C577.88 714.623 579.286 714.747 580.573 715.064Z" fill="#FFE6CC"/>
<path d="M591.963 714.985C591.438 714.496 588.443 716.235 588.596 716.657C588.729 717.023 591.406 716.876 591.941 715.656C591.965 715.599 592.155 715.165 591.963 714.985Z" fill="#063B01"/>
<path d="M573.492 727.885C573.277 728.31 572.672 728.66 572.226 728.542C571.194 728.267 571.033 725.509 571.622 725.262C572.186 725.027 574.043 726.801 573.492 727.885Z" fill="#063B01"/>
<path d="M586.767 722.89C586.767 723.27 585.318 723.904 584.015 723.522C583.125 723.26 582.281 722.517 582.434 722.197C582.729 721.582 586.768 722.255 586.767 722.89Z" fill="#063B01"/>
<path d="M557.702 728.297C559.027 728.503 560.71 726.128 560.383 725.72C560.165 725.448 559.025 726.019 557.747 726.661C557.046 727.013 556.796 727.208 556.776 727.45C556.742 727.821 557.235 728.224 557.702 728.297Z" fill="#063B01"/>
<path d="M571.243 713.122C571.478 712.812 572.653 712.864 572.84 713.255C572.881 713.337 572.847 713.48 572.782 713.765C572.674 714.237 572.62 714.469 572.52 714.513C572.147 714.667 570.932 713.529 571.243 713.122Z" fill="#063B01"/>
<path d="M581.808 712.098C582.397 711.892 583.096 712.101 583.131 712.353C583.187 712.795 581.195 713.671 580.913 713.344C580.736 713.144 581.089 712.348 581.808 712.098Z" fill="#063B01"/>
<path d="M553.408 720.373C553.302 720.102 554.2 719.284 555.263 719.234C555.994 719.2 556.82 719.523 556.797 719.789C556.752 720.302 553.584 720.828 553.408 720.373Z" fill="#063B01"/>
<path d="M587.538 712.962C587.562 712.7 587.063 712.385 586.592 712.35C585.406 712.269 584.292 713.972 584.496 714.215C584.542 714.269 584.639 714.227 586.054 713.695C587.248 713.243 587.519 713.148 587.538 712.962Z" fill="#A2C71E"/>
<path d="M563.23 715.02C562.724 714.696 561.982 714.749 561.874 714.986C561.682 715.403 563.333 716.673 563.709 716.413C563.937 716.26 563.847 715.416 563.23 715.02Z" fill="#063B01"/>
<path d="M556.238 717.207C556.159 716.959 556.578 716.52 557.034 716.366C558.173 715.979 559.607 717.35 559.461 717.638C559.429 717.702 559.325 717.684 557.838 717.533C556.575 717.406 556.29 717.382 556.238 717.207Z" fill="#A2C71E"/>
<path d="M580.983 725.377C580.851 725.91 579.227 726.41 578.194 725.785C577.214 725.192 576.989 723.718 577.415 723.4C577.661 723.213 578.122 723.427 578.829 723.749C579.557 724.081 581.125 724.803 580.983 725.377Z" fill="#A2C71E"/>
<path d="M590.596 719.135C590.727 719.383 590.528 719.731 590.362 719.91C589.47 720.865 586.724 719.951 586.76 719.494C586.794 718.992 590.189 718.365 590.596 719.135Z" fill="#A2C71E"/>
<path d="M566.392 714.238C566.463 713.992 566.936 713.713 567.295 713.694C568.194 713.652 568.427 715.272 568.193 715.491C568.14 715.541 568.087 715.496 567.228 714.961C566.507 714.506 566.342 714.41 566.392 714.238Z" fill="#A2C71E"/>
<path d="M564.523 728.28C564.707 728.673 565.926 728.753 566.646 728.178C567.531 727.469 567.424 725.952 566.998 725.786C566.746 725.687 566.363 726.05 565.711 726.67C564.983 727.356 564.367 727.942 564.523 728.28Z" fill="#A2C71E"/>
<path d="M576.648 712.2C576.928 712.077 577.431 711.972 577.588 712.169C577.876 712.531 576.985 713.91 576.451 713.839C576.15 713.799 575.894 713.291 576.008 712.854C576.121 712.436 576.538 712.248 576.648 712.2Z" fill="#A2C71E"/>
<path d="M553.397 722.994C553.275 723.255 553.486 723.581 553.66 723.742C554.584 724.601 557.293 723.398 557.24 722.943C557.185 722.452 553.774 722.182 553.397 722.994Z" fill="#A2C71E"/>
<path d="M570.335 695.85C600.166 689.977 625.353 690.319 626.592 696.609C626.64 696.85 626.647 697.099 626.622 697.352C626.604 700.075 626.586 702.802 626.567 705.525C626.545 709.006 624.631 712.201 621.566 713.855C610.609 719.763 594.912 726.583 575.133 730.356C556.272 733.952 539.835 733.607 527.604 732.296C523.142 731.819 519.63 728.264 519.18 723.8C518.985 721.864 518.789 719.933 518.597 717.998C518.585 717.956 518.573 717.914 518.565 717.872C517.323 711.58 540.503 701.72 570.335 695.85Z" fill="url(#paint29_linear_5199_11316)"/>
<path d="M631.939 700.429L625.038 702.818C624.979 702.837 624.946 702.904 624.969 702.963C624.987 703.015 625.037 703.046 625.09 703.037L632.327 702.071C632.795 702.01 633.128 701.583 633.066 701.118C633.005 700.653 632.575 700.328 632.106 700.39C632.05 700.398 631.991 700.414 631.939 700.429Z" fill="#F3C344"/>
<path d="M631.177 709.826L624.697 706.568C624.566 706.502 624.406 706.555 624.339 706.683C624.279 706.801 624.314 706.94 624.418 707.014L630.279 711.264C630.658 711.538 631.197 711.457 631.474 711.078C631.755 710.702 631.674 710.171 631.295 709.897C631.259 709.87 631.216 709.846 631.177 709.826Z" fill="#F3C344"/>
<path d="M540.276 721.238C524.705 721.655 520.023 719.083 519.71 717.495C519.385 715.837 522.732 712.319 533.244 707.869C543.021 703.73 556.363 699.885 570.819 697.038C583.168 694.608 595.412 693.122 605.299 692.857C620.87 692.44 625.553 695.013 625.866 696.601C626.191 698.258 622.843 701.776 612.331 706.226C602.555 710.365 589.212 714.211 574.756 717.058C562.407 719.487 550.16 720.973 540.276 721.238Z" fill="url(#paint30_radial_5199_11316)"/>
<path d="M563.858 705.163C563.114 705.691 559.839 708.014 560.326 709.534C561.371 712.805 579.086 710.056 584.56 705.86C585.189 705.377 586.843 704.112 586.532 703.113C586.297 702.358 585.041 702.079 584.121 701.914C578.032 700.836 571.861 702.299 569.61 702.882C566.203 703.767 564.939 704.397 563.858 705.163Z" fill="#FFE6CC"/>
<path d="M553.235 709.262C553.544 708.616 556.968 709.138 556.98 709.587C556.99 709.976 554.445 710.819 553.5 709.88C553.457 709.832 553.122 709.497 553.235 709.262Z" fill="#063B01"/>
<path d="M575.143 714.503C575.499 714.819 576.186 714.924 576.561 714.651C577.421 714.017 576.561 711.391 575.922 711.377C575.315 711.365 574.234 713.695 575.143 714.503Z" fill="#063B01"/>
<path d="M560.963 714.718C561.102 715.072 562.683 715.132 563.755 714.299C564.487 713.729 565.001 712.729 564.742 712.487C564.242 712.023 560.73 714.128 560.963 714.718Z" fill="#063B01"/>
<path d="M589.987 709.105C588.829 709.782 586.394 708.188 586.549 707.689C586.652 707.356 587.922 707.47 589.346 707.6C590.127 707.67 590.431 707.76 590.539 707.978C590.709 708.311 590.394 708.87 589.987 709.105Z" fill="#063B01"/>
<path d="M571.83 699.942C571.499 699.741 570.424 700.219 570.393 700.651C570.385 700.742 570.469 700.863 570.634 701.104C570.907 701.504 571.042 701.7 571.151 701.704C571.559 701.711 572.269 700.204 571.83 699.942Z" fill="#063B01"/>
<path d="M561.627 702.856C561.003 702.879 560.429 703.33 560.489 703.577C560.598 704.01 562.773 704.095 562.916 703.688C563.004 703.436 562.388 702.825 561.627 702.856Z" fill="#063B01"/>
<path d="M591.08 700.16C591.08 699.869 589.945 699.436 588.937 699.779C588.245 700.015 587.595 700.618 587.713 700.857C587.947 701.318 591.086 700.648 591.08 700.16Z" fill="#063B01"/>
<path d="M556.61 705.758C556.492 705.522 556.84 705.046 557.266 704.842C558.34 704.332 560 705.509 559.899 705.81C559.876 705.877 559.771 705.873 558.259 705.896C556.979 705.913 556.692 705.924 556.61 705.758Z" fill="#A2C71E"/>
<path d="M579.98 698.776C580.332 698.29 581.042 698.067 581.229 698.248C581.56 698.566 580.489 700.352 580.044 700.248C579.776 700.185 579.554 699.367 579.98 698.776Z" fill="#063B01"/>
<path d="M587.293 698.248C587.276 697.988 586.725 697.733 586.245 697.756C585.043 697.813 584.211 699.614 584.452 699.829C584.506 699.877 584.595 699.822 585.924 699.137C587.049 698.556 587.305 698.43 587.293 698.248Z" fill="#A2C71E"/>
<path d="M567.252 714.91C567.57 715.357 569.264 715.228 569.996 714.268C570.691 713.355 570.361 711.904 569.849 711.763C569.552 711.68 569.2 712.047 568.661 712.606C568.108 713.185 566.913 714.428 567.252 714.91Z" fill="#A2C71E"/>
<path d="M556.022 712.622C555.991 712.9 556.303 713.152 556.523 713.258C557.703 713.819 559.924 711.963 559.723 711.551C559.507 711.097 556.118 711.76 556.022 712.622Z" fill="#A2C71E"/>
<path d="M576.758 699.203C576.602 699 576.059 698.913 575.718 699.027C574.866 699.317 575.242 700.91 575.54 701.028C575.608 701.055 575.641 700.994 576.244 700.182C576.748 699.498 576.867 699.344 576.758 699.203Z" fill="#A2C71E"/>
<path d="M583.633 711.587C583.606 712.019 582.501 712.54 581.62 712.269C580.537 711.933 580.081 710.482 580.416 710.171C580.615 709.987 581.104 710.184 581.938 710.523C582.867 710.895 583.655 711.214 583.633 711.587Z" fill="#A2C71E"/>
<path d="M566.466 701.061C566.161 701.048 565.654 701.136 565.58 701.376C565.444 701.818 566.779 702.776 567.249 702.514C567.515 702.366 567.567 701.8 567.301 701.435C567.039 701.088 566.586 701.068 566.466 701.061Z" fill="#A2C71E"/>
<path d="M592.054 702.593C592.263 702.791 592.186 703.172 592.083 703.386C591.538 704.523 588.577 704.395 588.459 703.953C588.327 703.476 591.406 701.979 592.054 702.593Z" fill="#A2C71E"/>
<path d="M625.914 694.789C624.109 690.348 622.299 685.904 620.495 681.463C610.023 655.262 580.238 635.449 552.25 645.913C550.87 646.417 550.181 646.668 548.801 647.173C521.931 656.753 511.592 688.492 518.439 714.654L518.498 714.643C518.501 714.661 518.504 714.679 518.507 714.696C518.825 716.447 523.311 718.58 534.897 718.823C545.561 719.047 559.449 717.672 574.007 714.95C586.364 712.641 598.299 709.496 607.613 706.095C621.275 701.106 625.913 696.944 625.777 694.813L625.914 694.789Z" fill="url(#paint31_linear_5199_11316)"/>
<path d="M512.87 713.495L520.014 711.977C520.077 711.965 520.136 712.003 520.151 712.065C520.164 712.12 520.134 712.172 520.086 712.193L513.396 715.121C512.961 715.31 512.456 715.114 512.267 714.679C512.079 714.243 512.275 713.739 512.71 713.55C512.757 713.525 512.815 713.508 512.87 713.495Z" fill="#F3C344"/>
<path d="M514.166 704.075L520.303 708.029C520.368 708.072 520.388 708.158 520.344 708.223C520.306 708.282 520.235 708.3 520.174 708.278L513.384 705.593C512.943 705.418 512.728 704.922 512.903 704.481C513.078 704.04 513.574 703.825 514.015 704C514.068 704.022 514.119 704.048 514.166 704.075Z" fill="#F3C344"/>
<path d="M562.339 636.478L562.674 643.775C562.678 643.837 562.627 643.893 562.564 643.894C562.509 643.895 562.462 643.86 562.447 643.809L560.65 636.729C560.535 636.271 560.812 635.804 561.269 635.685C561.728 635.57 562.195 635.848 562.313 636.305C562.33 636.362 562.338 636.423 562.339 636.478Z" fill="#F3C344"/>
<path d="M571.424 639.289L566.523 644.701C566.469 644.758 566.381 644.764 566.324 644.71C566.274 644.665 566.265 644.589 566.297 644.533L570.052 638.27C570.295 637.864 570.822 637.731 571.228 637.975C571.635 638.219 571.767 638.745 571.523 639.152C571.497 639.202 571.459 639.25 571.424 639.289Z" fill="#F3C344"/>
<path d="M553.795 640.685L559.282 645.485C559.392 645.583 559.405 645.75 559.307 645.86C559.22 645.959 559.074 645.979 558.963 645.911L552.78 642.057C552.379 641.807 552.256 641.277 552.506 640.876C552.755 640.475 553.285 640.352 553.686 640.602C553.721 640.626 553.762 640.656 553.795 640.685Z" fill="#F3C344"/>
<path d="M560.63 702.16C558.402 702.428 556.812 704.454 557.08 706.682C557.349 708.911 559.375 710.501 561.603 710.232C563.831 709.964 565.421 707.938 565.153 705.71C564.886 703.477 562.862 701.89 560.63 702.16ZM557.828 706.592C557.609 704.776 558.906 703.122 560.722 702.903C562.539 702.684 564.193 703.981 564.412 705.797L557.828 706.592Z" fill="#C4CF4D"/>
<path d="M584.244 699.306C582.015 699.575 580.425 701.601 580.694 703.829C580.962 706.057 582.988 707.647 585.216 707.379C587.444 707.11 589.035 705.084 588.766 702.856C588.496 700.625 586.472 699.038 584.244 699.306ZM581.438 703.74C581.219 701.923 582.516 700.27 584.332 700.051C586.149 699.832 587.803 701.128 588.022 702.945L581.438 703.74Z" fill="#C4CF4D"/>
<path d="M571.353 707.841C571.173 706.716 572.034 704.4 573.225 704.891C574.134 705.265 575.249 707.263 575.289 708.304C575.367 710.266 571.657 709.78 571.353 707.841Z" fill="#C4CF4D"/>
<path opacity="0.2" d="M172.303 508.04V521H149.633V508.04H136.215V485.37H149.633V473H172.303V485.37H184.215V508.04H172.303Z" fill="#3DCE94"/>
<defs>
<radialGradient id="paint0_radial_5199_11316" cx="0" cy="0" r="1" gradientUnits="userSpaceOnUse" gradientTransform="translate(160.217 904.271) scale(70.6889 94.1068)">
<stop stop-color="#5AA668"/>
<stop offset="0.4873" stop-color="#56965F"/>
<stop offset="1" stop-color="#508054"/>
</radialGradient>
<radialGradient id="paint1_radial_5199_11316" cx="0" cy="0" r="1" gradientUnits="userSpaceOnUse" gradientTransform="translate(202.137 1059.16) rotate(-128.456) scale(35.975 62.9218)">
<stop stop-color="#C8DE90"/>
<stop offset="0.457" stop-color="#B8DE8E"/>
<stop offset="1" stop-color="#9FDE8C"/>
</radialGradient>
<radialGradient id="paint2_radial_5199_11316" cx="0" cy="0" r="1" gradientUnits="userSpaceOnUse" gradientTransform="translate(96.4815 1041.76) rotate(-51.5441) scale(28.3163 49.5264)">
<stop stop-color="#C8DE90"/>
<stop offset="0.457" stop-color="#B8DE8E"/>
<stop offset="1" stop-color="#9FDE8C"/>
</radialGradient>
<radialGradient id="paint3_radial_5199_11316" cx="0" cy="0" r="1" gradientUnits="userSpaceOnUse" gradientTransform="translate(-15.4868 1120.59) rotate(-51.5441) scale(65.1419 113.936)">
<stop stop-color="#C8DE90"/>
<stop offset="0.457" stop-color="#B8DE8E"/>
<stop offset="1" stop-color="#9FDE8C"/>
</radialGradient>
<radialGradient id="paint4_radial_5199_11316" cx="0" cy="0" r="1" gradientUnits="userSpaceOnUse" gradientTransform="translate(128.112 1055.59) rotate(-51.5441) scale(34.2959 59.9849)">
<stop stop-color="#C8DE90"/>
<stop offset="0.457" stop-color="#B8DE8E"/>
<stop offset="1" stop-color="#9FDE8C"/>
</radialGradient>
<radialGradient id="paint5_radial_5199_11316" cx="0" cy="0" r="1" gradientUnits="userSpaceOnUse" gradientTransform="translate(330.403 1057.83) rotate(-128.456) scale(59.0661 103.309)">
<stop stop-color="#C8DE90"/>
<stop offset="0.457" stop-color="#B8DE8E"/>
<stop offset="1" stop-color="#9FDE8C"/>
</radialGradient>
<radialGradient id="paint6_radial_5199_11316" cx="0" cy="0" r="1" gradientUnits="userSpaceOnUse" gradientTransform="translate(348.127 1123.29) rotate(-128.456) scale(68.538 119.876)">
<stop stop-color="#C8DE90"/>
<stop offset="0.457" stop-color="#B8DE8E"/>
<stop offset="1" stop-color="#9FDE8C"/>
</radialGradient>
<radialGradient id="paint7_radial_5199_11316" cx="0" cy="0" r="1" gradientUnits="userSpaceOnUse" gradientTransform="translate(254.632 1075.29) rotate(-128.456) scale(39.5935 69.2507)">
<stop stop-color="#C8DE90"/>
<stop offset="0.457" stop-color="#B8DE8E"/>
<stop offset="1" stop-color="#9FDE8C"/>
</radialGradient>
<radialGradient id="paint8_radial_5199_11316" cx="0" cy="0" r="1" gradientUnits="userSpaceOnUse" gradientTransform="translate(168.638 978.457) rotate(-79.8736) scale(99.7421 132.815)">
<stop stop-color="#C8DE90"/>
<stop offset="0.457" stop-color="#B8DE8E"/>
<stop offset="1" stop-color="#9FDE8C"/>
</radialGradient>
<radialGradient id="paint9_radial_5199_11316" cx="0" cy="0" r="1" gradientUnits="userSpaceOnUse" gradientTransform="translate(148.721 971.559) rotate(-100.126) scale(93.9671 125.125)">
<stop stop-color="#C8DE90"/>
<stop offset="0.457" stop-color="#B8DE8E"/>
<stop offset="1" stop-color="#9FDE8C"/>
</radialGradient>
<radialGradient id="paint10_radial_5199_11316" cx="0" cy="0" r="1" gradientUnits="userSpaceOnUse" gradientTransform="translate(155.636 883.764) scale(59.4443 91.0948)">
<stop stop-color="#4CCC4F"/>
<stop offset="0.4873" stop-color="#56BC5E"/>
<stop offset="1" stop-color="#64A671"/>
</radialGradient>
<radialGradient id="paint11_radial_5199_11316" cx="0" cy="0" r="1" gradientUnits="userSpaceOnUse" gradientTransform="translate(151.385 928.683) rotate(-96.6708) scale(22.4088 39.2001)">
<stop stop-color="#E6FFA6"/>
<stop offset="0.4072" stop-color="#D6FFA4"/>
<stop offset="1" stop-color="#B7FFA1"/>
</radialGradient>
<radialGradient id="paint12_radial_5199_11316" cx="0" cy="0" r="1" gradientUnits="userSpaceOnUse" gradientTransform="translate(151.383 928.683) rotate(-96.6708) scale(22.4087 39.2)">
<stop stop-color="#E6FFA6"/>
<stop offset="0.4072" stop-color="#D6FFA4"/>
<stop offset="1" stop-color="#B7FFA1"/>
</radialGradient>
<radialGradient id="paint13_radial_5199_11316" cx="0" cy="0" r="1" gradientUnits="userSpaceOnUse" gradientTransform="translate(151.385 928.683) rotate(-96.6708) scale(22.4088 39.2001)">
<stop stop-color="#E6FFA6"/>
<stop offset="0.4072" stop-color="#D6FFA4"/>
<stop offset="1" stop-color="#B7FFA1"/>
</radialGradient>
<radialGradient id="paint14_radial_5199_11316" cx="0" cy="0" r="1" gradientUnits="userSpaceOnUse" gradientTransform="translate(151.384 928.684) rotate(-96.6708) scale(22.4088 39.2001)">
<stop stop-color="#E6FFA6"/>
<stop offset="0.4072" stop-color="#D6FFA4"/>
<stop offset="1" stop-color="#B7FFA1"/>
</radialGradient>
<radialGradient id="paint15_radial_5199_11316" cx="0" cy="0" r="1" gradientUnits="userSpaceOnUse" gradientTransform="translate(155.128 932.731) rotate(-108.022) scale(22.4114 39.2012)">
<stop stop-color="#E6FFA6"/>
<stop offset="0.4072" stop-color="#D6FFA4"/>
<stop offset="1" stop-color="#B7FFA1"/>
</radialGradient>
<radialGradient id="paint16_radial_5199_11316" cx="0" cy="0" r="1" gradientUnits="userSpaceOnUse" gradientTransform="translate(151.384 928.684) rotate(-96.6708) scale(22.4088 39.2001)">
<stop stop-color="#E6FFA6"/>
<stop offset="0.4072" stop-color="#D6FFA4"/>
<stop offset="1" stop-color="#B7FFA1"/>
</radialGradient>
<radialGradient id="paint17_radial_5199_11316" cx="0" cy="0" r="1" gradientUnits="userSpaceOnUse" gradientTransform="translate(151.384 928.683) rotate(-96.6708) scale(22.4088 39.2001)">
<stop stop-color="#E6FFA6"/>
<stop offset="0.4072" stop-color="#D6FFA4"/>
<stop offset="1" stop-color="#B7FFA1"/>
</radialGradient>
<radialGradient id="paint18_radial_5199_11316" cx="0" cy="0" r="1" gradientUnits="userSpaceOnUse" gradientTransform="translate(151.384 928.683) rotate(-96.6708) scale(22.4088 39.2001)">
<stop stop-color="#E6FFA6"/>
<stop offset="0.4072" stop-color="#D6FFA4"/>
<stop offset="1" stop-color="#B7FFA1"/>
</radialGradient>
<radialGradient id="paint19_radial_5199_11316" cx="0" cy="0" r="1" gradientUnits="userSpaceOnUse" gradientTransform="translate(155.161 999.008) rotate(-81.87) scale(83.7786 111.557)">
<stop stop-color="#E6FFA6"/>
<stop offset="0.4072" stop-color="#D6FFA4"/>
<stop offset="1" stop-color="#B7FFA1"/>
</radialGradient>
<linearGradient id="paint20_linear_5199_11316" x1="302.716" y1="859.19" x2="312.529" y2="853.787" gradientUnits="userSpaceOnUse">
<stop stop-color="#FFB5B5"/>
<stop offset="0.1947" stop-color="#FFB7AB"/>
<stop offset="0.5228" stop-color="#FFBD91"/>
<stop offset="0.9419" stop-color="#FEC766"/>
<stop offset="1" stop-color="#FEC860"/>
</linearGradient>
<linearGradient id="paint21_linear_5199_11316" x1="332.364" y1="747.648" x2="347.651" y2="771.888" gradientUnits="userSpaceOnUse">
<stop stop-color="#FFB5B5"/>
<stop offset="0.1947" stop-color="#FFB7AB"/>
<stop offset="0.5228" stop-color="#FFBD91"/>
<stop offset="0.9419" stop-color="#FEC766"/>
<stop offset="1" stop-color="#FEC860"/>
</linearGradient>
<radialGradient id="paint22_radial_5199_11316" cx="0" cy="0" r="1" gradientUnits="userSpaceOnUse" gradientTransform="translate(368.255 857.316) scale(57.8517 58.1775)">
<stop stop-color="#FFDF9C"/>
<stop offset="0.2933" stop-color="#FCD894"/>
<stop offset="0.7483" stop-color="#F5C67E"/>
<stop offset="1" stop-color="#F0BA6F"/>
</radialGradient>
<linearGradient id="paint23_linear_5199_11316" x1="427.119" y1="779.16" x2="386.249" y2="795.09" gradientUnits="userSpaceOnUse">
<stop stop-color="white"/>
<stop offset="0.2538" stop-color="#FFB5B5"/>
<stop offset="0.3991" stop-color="#FFB7AB"/>
<stop offset="0.6439" stop-color="#FFBD91"/>
<stop offset="0.9567" stop-color="#FEC766"/>
<stop offset="1" stop-color="#FEC860"/>
</linearGradient>
<linearGradient id="paint24_linear_5199_11316" x1="577.883" y1="772.224" x2="574.94" y2="662.446" gradientUnits="userSpaceOnUse">
<stop stop-color="#6A4727"/>
<stop offset="0.1931" stop-color="#734D2A"/>
<stop offset="0.5059" stop-color="#8B5E31"/>
<stop offset="0.8973" stop-color="#B27A3D"/>
<stop offset="1" stop-color="#BD8240"/>
</linearGradient>
<linearGradient id="paint25_linear_5199_11316" x1="521.789" y1="734.045" x2="631.27" y2="731.11" gradientUnits="userSpaceOnUse">
<stop stop-color="#6A4727"/>
<stop offset="0.1931" stop-color="#734D2A"/>
<stop offset="0.5059" stop-color="#8B5E31"/>
<stop offset="0.8973" stop-color="#B27A3D"/>
<stop offset="1" stop-color="#BD8240"/>
</linearGradient>
<radialGradient id="paint26_radial_5199_11316" cx="0" cy="0" r="1" gradientUnits="userSpaceOnUse" gradientTransform="translate(576.515 732.588) rotate(-11.2248) scale(53.5846 10.6711)">
<stop stop-color="#C4CF4D"/>
<stop offset="0.2634" stop-color="#C6D24D"/>
<stop offset="0.4274" stop-color="#CCDA4E"/>
<stop offset="0.5637" stop-color="#D5E950"/>
<stop offset="0.6193" stop-color="#DBF151"/>
<stop offset="1" stop-color="#C4CF4D"/>
</radialGradient>
<linearGradient id="paint27_linear_5199_11316" x1="523.446" y1="743.486" x2="625.559" y2="706.442" gradientUnits="userSpaceOnUse">
<stop stop-color="#6A4727"/>
<stop offset="0.1931" stop-color="#734D2A"/>
<stop offset="0.5059" stop-color="#8B5E31"/>
<stop offset="0.8973" stop-color="#B27A3D"/>
<stop offset="1" stop-color="#BD8240"/>
</linearGradient>
<radialGradient id="paint28_radial_5199_11316" cx="0" cy="0" r="1" gradientUnits="userSpaceOnUse" gradientTransform="translate(573.099 720.169) rotate(169.75) scale(53.5846 10.6711)">
<stop stop-color="#C4CF4D"/>
<stop offset="0.2634" stop-color="#C6D24D"/>
<stop offset="0.4274" stop-color="#CCDA4E"/>
<stop offset="0.5637" stop-color="#D5E950"/>
<stop offset="0.6193" stop-color="#DBF151"/>
<stop offset="1" stop-color="#C4CF4D"/>
</radialGradient>
<linearGradient id="paint29_linear_5199_11316" x1="627.01" y1="711.086" x2="518.424" y2="713.996" gradientUnits="userSpaceOnUse">
<stop stop-color="#6A4727"/>
<stop offset="0.1931" stop-color="#734D2A"/>
<stop offset="0.5059" stop-color="#8B5E31"/>
<stop offset="0.8973" stop-color="#B27A3D"/>
<stop offset="1" stop-color="#BD8240"/>
</linearGradient>
<radialGradient id="paint30_radial_5199_11316" cx="0" cy="0" r="1" gradientUnits="userSpaceOnUse" gradientTransform="translate(572.774 707.057) rotate(-11.2248) scale(53.5846 10.6711)">
<stop stop-color="#C4CF4D"/>
<stop offset="0.2634" stop-color="#C6D24D"/>
<stop offset="0.4274" stop-color="#CCDA4E"/>
<stop offset="0.5637" stop-color="#D5E950"/>
<stop offset="0.6193" stop-color="#DBF151"/>
<stop offset="1" stop-color="#C4CF4D"/>
</radialGradient>
<linearGradient id="paint31_linear_5199_11316" x1="598.032" y1="775.522" x2="558.064" y2="666.075" gradientUnits="userSpaceOnUse">
<stop stop-color="#6A4727"/>
<stop offset="0.1931" stop-color="#734D2A"/>
<stop offset="0.5059" stop-color="#8B5E31"/>
<stop offset="0.8973" stop-color="#B27A3D"/>
<stop offset="1" stop-color="#BD8240"/>
</linearGradient>
</defs>
</svg>
