<svg width="1342" height="1024" viewBox="0 0 1342 1024" fill="none" xmlns="http://www.w3.org/2000/svg">
<path d="M972.922 399.431L169 867.129L388.777 996L1171.01 535.542C1176.79 511.216 1168.6 498.377 1163.78 494.998C1115.58 466.487 1015.72 407.457 1001.84 399.431C987.959 391.406 976.778 396.087 972.922 399.431Z" fill="#F4EFEF" stroke="black" stroke-linejoin="round"/>
<path d="M366 785C382.24 791.859 450.1 831.858 482 851" stroke="black"/>
<path d="M451 734.857C467.24 741.82 535.1 782.425 567 801.857" stroke="black"/>
<path d="M536 685.715C552.24 692.574 620.1 732.573 652 751.715" stroke="black"/>
<path d="M621 636.57C637.24 643.429 705.1 683.428 737 702.57" stroke="black"/>
<path d="M706 587.428C722.24 594.287 790.1 634.286 822 653.428" stroke="black"/>
<path d="M791 537.285C807.38 544.248 875.825 584.853 908 604.285" stroke="black"/>
<path d="M877 487.143C893.1 494.105 960.375 534.711 992 554.143" stroke="black"/>
<path d="M961 437C977.24 443.963 1045.1 484.568 1077 504" stroke="black"/>
<path d="M341.037 967.974L1163 497" stroke="black"/>
<ellipse cx="535.093" cy="883.231" rx="17.7269" ry="12.8657" transform="rotate(-54.8943 535.093 883.231)" fill="#8FE3C1"/>
<ellipse cx="826.042" cy="715.487" rx="17.7269" ry="12.8657" transform="rotate(-54.8943 826.042 715.487)" fill="#8FE3C1"/>
<ellipse cx="973.554" cy="631.608" rx="17.7269" ry="12.8657" transform="rotate(-54.8943 973.554 631.608)" fill="#8FE3C1"/>
<ellipse cx="1118.17" cy="547.729" rx="17.7269" ry="12.8657" transform="rotate(-54.8943 1118.17 547.729)" fill="#8FE3C1"/>
<ellipse cx="681.423" cy="799.365" rx="17.7269" ry="12.8657" transform="rotate(-54.8943 681.423 799.365)" fill="#8FE3C1"/>
<path d="M172.303 711.865V724.824H149.633V711.865H136.215V689.194H149.633V676.824H172.303V689.194H184.215V711.865H172.303Z" fill="#3DCE94"/>
</svg>
