<svg width="1342" height="1024" viewBox="0 0 1342 1024" fill="none" xmlns="http://www.w3.org/2000/svg">
<g clip-path="url(#clip0_5199_11484)">
<path d="M972.922 399.431L169 867.129L388.777 996L1171.01 535.542C1176.79 511.216 1168.6 498.377 1163.78 494.998C1115.58 466.487 1015.72 407.457 1001.84 399.431C987.959 391.406 976.778 396.087 972.922 399.431Z" fill="#F4EFEF" stroke="black" stroke-linejoin="round"/>
<path d="M366 785C382.24 791.859 450.1 831.858 482 851" stroke="black"/>
<path d="M451 734.857C467.24 741.82 535.1 782.425 567 801.857" stroke="black"/>
<path d="M536 685.715C552.24 692.574 620.1 732.573 652 751.715" stroke="black"/>
<path d="M621 636.57C637.24 643.429 705.1 683.428 737 702.57" stroke="black"/>
<path d="M706 587.428C722.24 594.287 790.1 634.286 822 653.428" stroke="black"/>
<path d="M791 537.285C807.38 544.248 875.825 584.853 908 604.285" stroke="black"/>
<path d="M877 487.143C893.1 494.105 960.375 534.711 992 554.143" stroke="black"/>
<path d="M961 437C977.24 443.963 1045.1 484.568 1077 504" stroke="black"/>
<path d="M341.037 967.974L1163 497" stroke="black"/>
<ellipse cx="535.093" cy="883.231" rx="17.7269" ry="12.8657" transform="rotate(-54.8943 535.093 883.231)" fill="#8FE3C1"/>
<ellipse cx="826.042" cy="715.487" rx="17.7269" ry="12.8657" transform="rotate(-54.8943 826.042 715.487)" fill="#8FE3C1"/>
<ellipse cx="973.554" cy="631.608" rx="17.7269" ry="12.8657" transform="rotate(-54.8943 973.554 631.608)" fill="#8FE3C1"/>
<ellipse cx="1118.17" cy="547.729" rx="17.7269" ry="12.8657" transform="rotate(-54.8943 1118.17 547.729)" fill="#8FE3C1"/>
<ellipse cx="681.423" cy="799.365" rx="17.7269" ry="12.8657" transform="rotate(-54.8943 681.423 799.365)" fill="#8FE3C1"/>
<path d="M223.564 1061.99C223.073 1056.27 221.466 1051.71 220.09 1048.63C220.297 1046.49 220.445 1041.94 218.22 1036.88C215.666 1031.07 211.462 1027.92 209.672 1026.73C206.247 1017.46 201.619 1013.66 198.05 1011.9C196.12 1010.95 189.706 1007.03 182.958 1008.56C170.393 1011.42 171.108 1029.5 159.245 1035.74C153.199 1038.91 143.072 1039.44 125.078 1028.8C115.424 1026.63 106.196 1030.06 102.21 1036.88C99.4972 1041.52 99.9745 1046.44 100.339 1048.63C98.9639 1051.7 97.3603 1056.27 96.8655 1061.99C96.1181 1070.67 98.3182 1077.56 99.8025 1081.22C98.5639 1094.99 102.378 1103.33 104.796 1107.4C110.477 1116.94 117.295 1122.67 117.295 1122.67C118.677 1124.88 120.649 1128.37 122.295 1132.95C124.172 1138.17 123.871 1139.93 125.351 1142.67C128.545 1148.58 135.492 1150.64 139.517 1151.84C151.616 1155.42 156.536 1150.17 164.238 1154.89C169.442 1158.08 168.666 1161.38 172.849 1162.39C181.807 1164.56 191.84 1151.01 192.847 1149.62C196.766 1144.2 198.45 1138.85 199.236 1135.45C204.072 1129.88 210.949 1120.54 215.623 1107.4C219.311 1097.04 220.382 1087.81 220.617 1081.23C222.111 1077.56 224.312 1070.67 223.564 1061.99Z" fill="url(#paint0_radial_5199_11484)"/>
<path d="M189.798 1087.96C190.149 1079.29 189.644 1073.13 188.966 1064.9C187.57 1047.95 184.864 1034.07 182.576 1024.35C182.948 1023.52 183.317 1022.69 183.689 1021.86C191.549 1044.64 206.508 1099.12 181.19 1150.73C177.474 1158.3 173.225 1165.14 168.691 1171.28C166.839 1167.02 164.989 1162.76 163.137 1158.51C164.916 1156.63 167.13 1154.15 169.663 1150.72C169.663 1150.72 174.344 1144.49 178.085 1137.33C182.412 1129.05 188.001 1111.44 189.798 1087.96Z" fill="url(#paint1_radial_5199_11484)"/>
<path d="M153.409 1146.84C152.777 1146.84 152.174 1146.57 151.753 1146.09C145.496 1139.08 142.036 1131.91 141.475 1124.79C141.408 1123.96 141.384 1123.15 141.359 1122.36C141.275 1119.78 141.198 1117.34 139.762 1114.51C138.373 1111.77 136.538 1110.31 134.211 1108.46C133.587 1107.96 132.937 1107.45 132.257 1106.87C131.966 1106.63 125.081 1100.79 119.277 1091.03C114.933 1083.73 113.091 1074.41 113.933 1064.05C111.47 1057.75 110.47 1050.93 111.038 1044.3C111.438 1039.64 112.592 1035.08 114.463 1030.75C114.238 1027.69 114.47 1023.24 116.561 1018.48C118.898 1013.17 122.498 1009.78 125.312 1007.79C128.235 1000.22 132.429 995.045 137.783 992.407C140.573 991.031 142.703 990.824 144.956 990.603C147.054 990.396 149.433 990.165 153.167 988.947C157.279 987.607 159.578 986.21 161.423 985.091C163.269 983.968 164.866 983 167.094 983C167.557 983 168.024 983.042 168.522 983.126C176.372 984.47 180.246 994.933 182.561 1001.19C184.898 1007.49 186.011 1014.17 185.877 1021.04C186.871 1023.18 187.614 1025.44 188.092 1027.74C188.878 1031.54 188.937 1035.41 188.274 1039.28C189.881 1041.58 191.144 1044.08 192.029 1046.72C193.495 1051.09 193.895 1055.83 193.201 1060.49C196.997 1065.83 202.292 1075.62 199.692 1086.15C199.633 1086.4 199.531 1086.63 199.394 1086.84C195.573 1092.68 191.236 1097.65 186.495 1101.6C183.6 1104.02 181.33 1105.98 176.81 1109.9C172.55 1113.59 172.119 1114.05 171.813 1114.71C170.894 1116.7 171.322 1118.41 172.224 1121.5C172.814 1123.52 173.48 1125.81 173.677 1128.62C174.038 1133.79 172.631 1139.17 169.498 1144.61C169.133 1145.24 168.476 1145.65 167.747 1145.71L153.581 1146.82C153.528 1146.83 153.469 1146.84 153.409 1146.84Z" fill="url(#paint2_radial_5199_11484)"/>
<path d="M157.602 1025.13C160.033 1024.63 163.419 1023.67 167.086 1021.65C170.276 1019.9 172.655 1017.91 174.301 1016.31C173.676 1016.17 173.055 1016.04 172.431 1015.91C171.037 1016.99 169.262 1018.18 167.086 1019.25C163.595 1020.96 160.374 1021.71 158.005 1022.05C157.868 1023.08 157.735 1024.1 157.602 1025.13Z" fill="url(#paint3_radial_5199_11484)"/>
<path d="M144.111 1019.12C147.027 1022.47 150.49 1023.81 152.125 1024.33C152.392 1023.35 152.658 1022.37 152.925 1021.39C151.532 1021.06 148.535 1020.16 145.848 1017.52C142.153 1013.89 141.563 1009.46 141.44 1008.16C140.907 1007.72 140.37 1007.27 139.837 1006.83C139.791 1008.28 139.773 1014.12 144.111 1019.12Z" fill="url(#paint4_radial_5199_11484)"/>
<path d="M155.08 1046.85C154.936 1030.91 158.006 1017.25 158.006 1017.25C159.841 1009.08 162.196 1002.59 163.884 998.418L162.28 998.018C160.648 1001.66 158.294 1007.27 156.002 1014.31C156.002 1014.31 151.199 1029.08 148.971 1046.58C146.725 1064.21 146.532 1115.2 151.774 1183.96C152.276 1190.52 158.003 1195.55 164.554 1194.95C164.729 1194.93 164.905 1194.92 165.08 1194.9C165.256 1194.87 165.435 1194.85 165.607 1194.82C173.221 1193.58 178.099 1186 176.355 1178.48C157.269 1096.29 155.213 1061.8 155.08 1046.85Z" fill="url(#paint5_radial_5199_11484)"/>
<path d="M91.125 937.287V997.068" stroke="black"/>
<path d="M220.875 924.373V984.154" stroke="black"/>
<path d="M199.25 894.236V954.017" stroke="black"/>
<path d="M319.046 862.5C319.472 861.591 322.078 855.759 319.275 849.468C317.26 844.953 313.619 842.794 312.362 842.123C311.193 842.186 307.051 842.544 303.791 845.831C301.075 848.566 298.737 853.572 300.769 858.168C303.354 864.01 310.841 864.298 311.865 864.323C315.172 864.396 317.729 863.227 319.046 862.5Z" fill="url(#paint6_linear_5199_11484)"/>
<path d="M329.812 790.097C328.664 787.345 327.068 782.496 327.346 776.405C327.512 772.775 327.949 763.281 335.446 757.095C342.697 751.109 353.719 750.558 361.858 755.339C368.647 759.331 371.281 765.77 372.07 767.979C369.073 771.834 363.978 777.384 356.223 782.022C345.486 788.447 335.228 789.785 329.812 790.097Z" fill="url(#paint7_linear_5199_11484)"/>
<path d="M384.473 898.294C368.352 902.738 348.001 902.138 333.316 895.264C315.426 886.89 310.425 870.294 310.489 855.64C311.302 840.883 313.458 826.267 317.042 811.739C321.705 797.032 330.164 782.728 346.493 773.108C356.942 766.954 369.5 763.264 382.779 766.192C394.01 769.738 399.859 778.322 403.782 786.324C408.754 796.467 411.779 806.827 412.692 817.627C413.53 826.822 415.442 835.768 418.47 844.707C426.718 866.73 414.649 890.197 384.473 898.294Z" fill="url(#paint8_radial_5199_11484)"/>
<path d="M402.004 807.653C400.38 807.344 393.668 805.873 388.974 799.577C383.251 791.903 385.156 783.262 385.452 782.023C388.548 775.31 395.503 771.402 402.38 772.347C409.86 773.372 414.371 779.748 415.738 785.183C418.065 794.43 411.441 801.516 410.505 802.485C407.413 805.679 403.923 807.056 402.004 807.653Z" fill="url(#paint9_linear_5199_11484)"/>
<path d="M359.527 830.442C359.192 831.986 362.894 835.42 366.88 834.542C369.863 833.886 372.229 830.989 371.652 829.613C370.644 827.201 360.038 828.075 359.527 830.442Z" fill="#F37343"/>
<path d="M354.722 825.336C352.81 823.43 349.708 823.43 347.795 825.336C345.883 827.242 345.883 830.336 347.795 832.242C349.708 834.148 352.81 834.148 354.722 832.242C356.635 830.336 356.635 827.242 354.722 825.336ZM354.085 831.607C352.525 833.162 349.996 833.162 348.436 831.607L354.085 825.975C355.645 827.527 355.645 830.048 354.085 831.607Z" fill="#F37343"/>
<path d="M383.381 825.336C381.468 823.43 378.366 823.43 376.454 825.336C374.541 827.242 374.541 830.336 376.454 832.242C378.366 834.148 381.468 834.148 383.381 832.242C385.293 830.336 385.293 827.242 383.381 825.336ZM382.74 831.607C381.18 833.162 378.651 833.162 377.091 831.607L382.74 825.975C384.3 827.527 384.3 830.048 382.74 831.607Z" fill="#F37343"/>
<path d="M575.017 784.992C573.384 784.978 572.567 784.978 570.934 784.992C557.334 785.188 542.76 781.704 532.318 772.502C521.771 763.204 517.499 749.3 517.937 735.484C518.378 723.225 518.823 710.966 519.265 698.708C520.113 670.496 541.281 641.66 571.141 641.888C572.609 641.888 573.342 641.888 574.811 641.888C604.667 641.66 625.838 670.496 626.686 698.708C627.128 710.966 627.573 723.225 628.015 735.484C628.611 749.24 624.096 763.281 613.633 772.502C603.125 781.764 588.67 785.065 575.017 784.992Z" fill="url(#paint10_linear_5199_11484)"/>
<path d="M574.786 637.945L574.046 645.215C574.039 645.278 573.983 645.323 573.92 645.316C573.864 645.309 573.822 645.267 573.818 645.215L573.079 637.945C573.03 637.475 573.373 637.054 573.847 637.005C574.316 636.956 574.737 637.299 574.786 637.773C574.789 637.829 574.789 637.892 574.786 637.945Z" fill="#F3C344"/>
<path d="M583.352 642.06L577.712 646.695C577.653 646.744 577.565 646.737 577.516 646.674C577.474 646.621 577.474 646.547 577.516 646.495L582.146 640.85C582.448 640.485 582.987 640.432 583.352 640.73C583.716 641.032 583.769 641.572 583.471 641.937C583.436 641.986 583.394 642.028 583.352 642.06Z" fill="#F3C344"/>
<path d="M565.718 640.853L570.436 646.407C570.531 646.519 570.517 646.687 570.405 646.782C570.303 646.87 570.156 646.866 570.058 646.782L564.513 642.06C564.151 641.754 564.109 641.214 564.414 640.853C564.719 640.491 565.259 640.449 565.62 640.754C565.655 640.786 565.69 640.821 565.718 640.853Z" fill="#F3C344"/>
<path d="M513.944 706.298L521.207 707.038C521.27 707.045 521.315 707.101 521.308 707.164C521.301 707.22 521.259 707.262 521.207 707.266L513.944 708.006C513.474 708.055 513.054 707.711 513.005 707.238C512.956 706.768 513.299 706.347 513.772 706.298C513.828 706.294 513.891 706.294 513.944 706.298Z" fill="#F3C344"/>
<path d="M518.055 697.723L522.685 703.368C522.734 703.428 522.727 703.516 522.664 703.565C522.612 703.607 522.538 703.607 522.486 703.565L516.849 698.933C516.485 698.632 516.432 698.091 516.73 697.727C517.032 697.362 517.571 697.309 517.936 697.607C517.981 697.642 518.023 697.684 518.055 697.723Z" fill="#F3C344"/>
<path d="M516.85 715.373L522.399 710.651C522.511 710.556 522.679 710.57 522.774 710.682C522.862 710.784 522.858 710.931 522.774 711.03L518.056 716.58C517.751 716.941 517.211 716.983 516.85 716.678C516.489 716.373 516.447 715.833 516.752 715.471C516.784 715.436 516.819 715.401 516.85 715.373Z" fill="#F3C344"/>
<path d="M632.056 706.298L624.794 707.038C624.731 707.045 624.685 707.101 624.692 707.164C624.699 707.22 624.741 707.262 624.794 707.266L632.056 708.006C632.526 708.055 632.947 707.711 632.996 707.238C633.045 706.768 632.701 706.347 632.228 706.298C632.172 706.294 632.112 706.294 632.056 706.298Z" fill="#F3C344"/>
<path d="M627.944 697.723L623.313 703.368C623.264 703.427 623.271 703.515 623.334 703.564C623.387 703.606 623.461 703.606 623.513 703.564L629.153 698.93C629.518 698.628 629.57 698.088 629.272 697.723C628.971 697.358 628.431 697.305 628.066 697.603C628.021 697.642 627.979 697.684 627.944 697.723Z" fill="#F3C344"/>
<path d="M629.15 715.373L623.602 710.651C623.489 710.556 623.321 710.57 623.227 710.682C623.139 710.784 623.142 710.931 623.227 711.03L627.944 716.584C628.249 716.945 628.789 716.987 629.15 716.682C629.511 716.377 629.553 715.836 629.248 715.475C629.22 715.436 629.185 715.401 629.15 715.373Z" fill="#F3C344"/>
<path d="M568.922 706.378C568.645 707.666 571.715 710.522 575.021 709.792C577.495 709.245 579.455 706.835 578.978 705.687C578.144 703.677 569.346 704.41 568.922 706.378Z" fill="#C4CF4D"/>
<path d="M564.94 702.126C563.352 700.536 560.783 700.536 559.195 702.126C557.607 703.715 557.607 706.287 559.195 707.876C560.783 709.465 563.352 709.465 564.94 707.876C566.524 706.29 566.524 703.715 564.94 702.126ZM564.41 707.346C563.117 708.641 561.017 708.641 559.724 707.346L564.41 702.655C565.704 703.95 565.704 706.052 564.41 707.346Z" fill="#C4CF4D"/>
<path d="M588.705 702.126C587.117 700.536 584.548 700.536 582.96 702.126C581.373 703.715 581.373 706.287 582.96 707.876C584.548 709.465 587.117 709.465 588.705 707.876C590.293 706.29 590.293 703.715 588.705 702.126ZM588.176 707.346C586.883 708.641 584.783 708.641 583.49 707.346L588.176 702.655C589.469 703.95 589.469 706.052 588.176 707.346Z" fill="#C4CF4D"/>
<path d="M172.303 803.822V816.781H149.633V803.822H136.215V781.151H149.633V768.781H172.303V781.151H184.215V803.822H172.303Z" fill="#3DCE94"/>
</g>
<defs>
<radialGradient id="paint0_radial_5199_11484" cx="0" cy="0" r="1" gradientUnits="userSpaceOnUse" gradientTransform="translate(160.217 1085.41) scale(70.6889 94.1068)">
<stop stop-color="#5AA668"/>
<stop offset="0.4873" stop-color="#56965F"/>
<stop offset="1" stop-color="#508054"/>
</radialGradient>
<radialGradient id="paint1_radial_5199_11484" cx="0" cy="0" r="1" gradientUnits="userSpaceOnUse" gradientTransform="translate(168.638 1159.6) rotate(-79.8736) scale(99.7421 132.815)">
<stop stop-color="#C8DE90"/>
<stop offset="0.457" stop-color="#B8DE8E"/>
<stop offset="1" stop-color="#9FDE8C"/>
</radialGradient>
<radialGradient id="paint2_radial_5199_11484" cx="0" cy="0" r="1" gradientUnits="userSpaceOnUse" gradientTransform="translate(155.636 1064.91) scale(59.4443 91.0948)">
<stop stop-color="#4CCC4F"/>
<stop offset="0.4873" stop-color="#56BC5E"/>
<stop offset="1" stop-color="#64A671"/>
</radialGradient>
<radialGradient id="paint3_radial_5199_11484" cx="0" cy="0" r="1" gradientUnits="userSpaceOnUse" gradientTransform="translate(151.383 1109.83) rotate(-96.6708) scale(22.4087 39.2)">
<stop stop-color="#E6FFA6"/>
<stop offset="0.4072" stop-color="#D6FFA4"/>
<stop offset="1" stop-color="#B7FFA1"/>
</radialGradient>
<radialGradient id="paint4_radial_5199_11484" cx="0" cy="0" r="1" gradientUnits="userSpaceOnUse" gradientTransform="translate(151.384 1109.83) rotate(-96.6708) scale(22.4088 39.2001)">
<stop stop-color="#E6FFA6"/>
<stop offset="0.4072" stop-color="#D6FFA4"/>
<stop offset="1" stop-color="#B7FFA1"/>
</radialGradient>
<radialGradient id="paint5_radial_5199_11484" cx="0" cy="0" r="1" gradientUnits="userSpaceOnUse" gradientTransform="translate(155.161 1180.15) rotate(-81.87) scale(83.7786 111.557)">
<stop stop-color="#E6FFA6"/>
<stop offset="0.4072" stop-color="#D6FFA4"/>
<stop offset="1" stop-color="#B7FFA1"/>
</radialGradient>
<linearGradient id="paint6_linear_5199_11484" x1="301.691" y1="859.261" x2="311.55" y2="853.786" gradientUnits="userSpaceOnUse">
<stop stop-color="#FFB5B5"/>
<stop offset="0.1947" stop-color="#FFB7AB"/>
<stop offset="0.5228" stop-color="#FFBD91"/>
<stop offset="0.9419" stop-color="#FEC766"/>
<stop offset="1" stop-color="#FEC860"/>
</linearGradient>
<linearGradient id="paint7_linear_5199_11484" x1="331.596" y1="747.718" x2="346.825" y2="772.077" gradientUnits="userSpaceOnUse">
<stop stop-color="#FFB5B5"/>
<stop offset="0.1947" stop-color="#FFB7AB"/>
<stop offset="0.5228" stop-color="#FFBD91"/>
<stop offset="0.9419" stop-color="#FEC766"/>
<stop offset="1" stop-color="#FEC860"/>
</linearGradient>
<radialGradient id="paint8_radial_5199_11484" cx="0" cy="0" r="1" gradientUnits="userSpaceOnUse" gradientTransform="translate(367.799 857.387) scale(58.3539 58.1775)">
<stop stop-color="#FFDF9C"/>
<stop offset="0.2933" stop-color="#FCD894"/>
<stop offset="0.7483" stop-color="#F5C67E"/>
<stop offset="1" stop-color="#F0BA6F"/>
</radialGradient>
<linearGradient id="paint9_linear_5199_11484" x1="427.173" y1="779.229" x2="386.043" y2="795.4" gradientUnits="userSpaceOnUse">
<stop stop-color="white"/>
<stop offset="0.2538" stop-color="#FFB5B5"/>
<stop offset="0.3991" stop-color="#FFB7AB"/>
<stop offset="0.6439" stop-color="#FFBD91"/>
<stop offset="0.9567" stop-color="#FEC766"/>
<stop offset="1" stop-color="#FEC860"/>
</linearGradient>
<linearGradient id="paint10_linear_5199_11484" x1="572.987" y1="771.477" x2="572.987" y2="661.626" gradientUnits="userSpaceOnUse">
<stop stop-color="#6A4727"/>
<stop offset="0.1931" stop-color="#734D2A"/>
<stop offset="0.5059" stop-color="#8B5E31"/>
<stop offset="0.8973" stop-color="#B27A3D"/>
<stop offset="1" stop-color="#BD8240"/>
</linearGradient>
<clipPath id="clip0_5199_11484">
<rect width="1342" height="1024" fill="white"/>
</clipPath>
</defs>
</svg>
