<svg width="1342" height="1024" viewBox="0 0 1342 1024" fill="none" xmlns="http://www.w3.org/2000/svg">
<path d="M972.922 399.431L169 867.129L388.777 996L1171.01 535.542C1176.79 511.216 1168.6 498.377 1163.78 494.998C1115.58 466.487 1015.72 407.457 1001.84 399.431C987.959 391.406 976.778 396.087 972.922 399.431Z" fill="#F4EFEF" stroke="black" stroke-linejoin="round"/>
<path d="M366 785C382.24 791.859 450.1 831.858 482 851" stroke="black"/>
<path d="M451 734.857C467.24 741.82 535.1 782.425 567 801.857" stroke="black"/>
<path d="M536 685.714C552.24 692.573 620.1 732.572 652 751.714" stroke="black"/>
<path d="M621 636.571C637.24 643.43 705.1 683.429 737 702.571" stroke="black"/>
<path d="M706 587.429C722.24 594.288 790.1 634.287 822 653.429" stroke="black"/>
<path d="M791 537.286C807.38 544.248 875.825 584.854 908 604.286" stroke="black"/>
<path d="M877 487.143C893.1 494.105 960.375 534.711 992 554.143" stroke="black"/>
<path d="M961 437C977.24 443.963 1045.1 484.568 1077 504" stroke="black"/>
<path d="M341.037 967.974L1163 497" stroke="black"/>
<ellipse cx="535.093" cy="883.231" rx="17.7269" ry="12.8657" transform="rotate(-54.8943 535.093 883.231)" fill="#8FE3C1"/>
<ellipse cx="826.042" cy="715.487" rx="17.7269" ry="12.8657" transform="rotate(-54.8943 826.042 715.487)" fill="#8FE3C1"/>
<ellipse cx="973.554" cy="631.609" rx="17.7269" ry="12.8657" transform="rotate(-54.8943 973.554 631.609)" fill="#8FE3C1"/>
<ellipse cx="1118.17" cy="547.73" rx="17.7269" ry="12.8657" transform="rotate(-54.8943 1118.17 547.73)" fill="#8FE3C1"/>
<ellipse cx="681.423" cy="799.366" rx="17.7269" ry="12.8657" transform="rotate(-54.8943 681.423 799.366)" fill="#8FE3C1"/>
<path d="M572.5 675.896V774.439L484.5 725.146V622.66L572.5 675.896Z" fill="#D9D9D9" stroke="#8FE3C1" stroke-width="3"/>
<path d="M659.5 723.209L575.5 774.33V675.915L659.5 620.778V723.209Z" fill="#3DCE94" stroke="#8FE3C1" stroke-width="3"/>
<path d="M658.135 618.544L573.989 673.231L485.959 620.515L574.02 569.733L658.135 618.544Z" fill="#D9D9D9" stroke="#8FE3C1" stroke-width="3"/>
<path d="M907.311 520.549L842.813 510.194C838.314 509.471 833.63 509.387 828.892 509.947C789.17 514.622 749.448 519.294 709.722 523.969C705.881 524.421 702.508 527.586 701.871 531.339L691.16 594.28C690.763 596.607 691.873 598.69 693.94 599.497C726.057 612.072 758.171 624.642 790.288 637.216C795.746 639.352 802.314 638.823 808.221 635.773C838.954 619.905 869.69 604.033 900.423 588.165C902.208 587.243 903.501 585.525 903.807 583.671C906.836 565.298 909.862 546.922 912.891 528.55C913.549 524.56 911.183 521.172 907.311 520.549Z" fill="#E5CA9A"/>
<path d="M702.011 530.515L691.068 594.808C690.748 596.687 691.577 598.36 693.138 598.975C726.032 611.936 758.926 624.896 791.823 637.853C794.336 638.841 797.492 636.715 798.005 633.686L812.273 549.847C812.638 547.701 811.503 545.868 809.584 545.503L707.575 526.17C705.132 525.708 702.475 527.781 702.011 530.515Z" fill="url(#paint0_radial_5187_5551)"/>
<path d="M815.443 549.562L801.357 632.323C800.792 635.641 803.733 637.77 806.741 636.222C838.128 620.107 869.517 603.988 900.904 587.873C902.404 587.104 903.515 585.581 903.778 583.928C906.783 565.215 909.784 546.501 912.789 527.784C913.242 524.957 911.116 522.887 908.428 523.541L819.34 545.274C817.404 545.747 815.791 547.521 815.443 549.562Z" fill="url(#paint1_radial_5187_5551)"/>
<path d="M829.053 509.916L709.637 524.132L814.208 542.8C814.718 542.891 815.259 542.873 815.797 542.745L909.193 520.831L844.53 510.208C839.529 509.387 834.324 509.29 829.053 509.916Z" fill="url(#paint2_radial_5187_5551)"/>
<path d="M743.009 587.713C739.628 586.697 738.103 582.259 737.924 581.695C737.618 580.742 738.012 579.723 738.803 579.413C739.597 579.107 740.482 579.629 740.788 580.582C740.837 580.732 741.979 584.259 744.204 584.29C745.613 584.318 747.005 582.968 747.841 581.695C748.347 580.926 749.303 580.815 749.992 581.462C750.674 582.102 750.814 583.246 750.312 584.015C749.528 585.208 747.381 587.977 744.327 587.914C743.86 587.911 743.42 587.838 743.009 587.713Z" fill="#FF9A00"/>
<path d="M726.408 581.942C729.606 582.906 732.716 580.662 733.348 576.934L721.762 573.448C721.129 577.177 723.21 580.979 726.408 581.942Z" fill="#FF9A00"/>
<path d="M760.304 592.134C763.502 593.097 766.612 590.854 767.245 587.125L755.658 583.64C755.026 587.368 757.106 591.17 760.304 592.134Z" fill="#FF9A00"/>
<path d="M1021.09 401.05C1020.12 395.392 1018.15 390.977 1016.53 388.029C1016.55 385.872 1016.31 381.333 1013.68 376.472C1010.66 370.891 1006.24 368.107 1004.37 367.067C1000.2 358.114 995.303 354.715 991.626 353.26C989.638 352.472 982.964 349.095 976.422 351.182C964.24 355.069 966.478 373.027 955.276 380.223C949.567 383.887 939.599 385.251 920.907 376.135C911.18 374.778 902.346 378.958 898.982 386.084C896.693 390.934 897.581 395.792 898.128 397.95C897.027 401.123 895.829 405.808 895.823 411.547C895.819 420.262 898.577 426.938 900.355 430.465C900.295 444.282 904.773 452.283 907.507 456.131C913.932 465.169 921.158 470.317 921.158 470.317C922.711 472.398 924.956 475.713 926.971 480.142C929.27 485.192 929.12 486.968 930.816 489.576C934.473 495.202 941.517 496.679 945.597 497.534C957.863 500.104 962.283 494.467 970.297 498.531C975.712 501.277 975.225 504.624 979.446 505.288C988.487 506.71 997.258 492.37 998.136 490.902C1001.55 485.183 1002.77 479.709 1003.26 476.26C1007.56 470.304 1013.57 460.432 1017.08 446.952C1019.85 436.323 1020.13 427.04 1019.8 420.459C1020.97 416.682 1022.56 409.641 1021.09 401.05Z" fill="url(#paint3_radial_5187_5551)"/>
<path d="M941.421 468.967C943.99 464.158 946.611 458.187 948.574 451.105C949.426 448.029 950.057 445.094 950.518 442.353C949.964 442.658 949.409 442.962 948.855 443.27C948.686 444.136 948.459 445.085 948.16 446.091C947.854 447.12 947.481 448.191 947.016 449.285C944.466 455.28 940.385 459.291 937.216 461.761C938.616 464.164 940.018 466.564 941.421 468.967Z" fill="url(#paint4_radial_5187_5551)"/>
<path d="M936.422 470.884C931.628 468.631 924.103 464.21 918.06 455.942C916.098 453.258 914.623 450.621 913.506 448.219C914.127 448.337 914.749 448.456 915.371 448.577C917.156 451.46 920.137 455.503 924.809 459.228C928.193 461.925 931.472 463.665 934.061 464.793C934.848 466.821 935.635 468.853 936.422 470.884Z" fill="url(#paint5_radial_5187_5551)"/>
<path d="M926.633 444.314C922.018 439.301 916.7 432.537 911.952 423.861C909.105 418.657 906.982 413.714 905.387 409.292C906.008 409.41 906.63 409.528 907.252 409.65C909.061 413.616 911.699 418.48 915.534 423.578C919.253 428.52 923.064 432.304 926.286 435.09C926.403 438.162 926.516 441.238 926.633 444.314Z" fill="url(#paint6_radial_5187_5551)"/>
<path d="M990.6 460.616C986.098 456.76 980.928 451.487 976.236 444.475C974.453 441.813 972.95 439.216 971.682 436.752C972.303 436.871 972.925 436.989 973.547 437.111C973.975 437.881 974.484 438.714 975.079 439.578C975.079 439.578 976.003 440.917 977.154 442.262C978.628 443.979 983.715 448.367 991.144 453.499C990.966 455.872 990.781 458.242 990.6 460.616Z" fill="url(#paint7_radial_5187_5551)"/>
<path d="M987.585 397.54C989.666 391.896 991.615 384.664 992.221 376.141C992.43 373.188 992.458 370.406 992.362 367.821C991.741 368.012 991.123 368.205 990.501 368.396C990.709 370.157 990.802 372.146 990.66 374.321C990.191 381.55 987.373 387.077 985.322 390.307C986.077 392.717 986.829 395.127 987.585 397.54Z" fill="url(#paint8_radial_5187_5551)"/>
<path d="M995.804 428.295C998.209 424.763 1001.54 418.939 1003.4 411.064C1005.61 401.705 1004.71 393.822 1003.86 389.338C1003.33 389.514 1002.8 389.695 1002.27 389.871C1002.58 393.541 1002.62 399.553 1000.44 406.471C998.658 412.109 996.046 416.31 994.052 419.013C994.637 422.107 995.219 425.201 995.804 428.295Z" fill="url(#paint9_radial_5187_5551)"/>
<path d="M994.954 459.926C998.158 456.946 1003.89 450.773 1007.05 441.136C1008.91 435.431 1009.28 430.346 1009.23 426.73C1008.64 427.105 1008.05 427.479 1007.46 427.853C1007.23 430.578 1006.58 434.447 1004.71 438.694C1001.88 445.109 997.705 449.124 995.239 451.159C995.146 454.084 995.051 457.004 994.954 459.926Z" fill="url(#paint10_radial_5187_5551)"/>
<path d="M989.826 427.555C988.813 418.937 987.356 412.937 985.405 404.916C981.384 388.391 976.561 375.098 972.799 365.857C973.034 364.978 973.264 364.096 973.499 363.217C984.766 384.505 1007.95 435.985 991.212 490.891C988.756 498.95 985.661 506.357 982.18 513.132C979.698 509.213 977.219 505.293 974.738 501.377C976.188 499.25 977.969 496.449 979.916 492.674C979.916 492.674 983.528 485.796 986.073 478.139C989.016 469.285 991.739 451.028 989.826 427.555Z" fill="url(#paint11_radial_5187_5551)"/>
<path d="M933.582 388.922C931.701 388.322 929.816 387.722 927.935 387.122C926.088 393.958 912.449 447.637 944.697 484.291C952.408 493.055 961.183 499.072 969.412 503.234C967.98 498.412 966.544 493.591 965.112 488.77C958.363 484.892 953.271 480.51 949.422 476.373C920.611 445.429 931.738 396.517 933.582 388.922Z" fill="url(#paint12_radial_5187_5551)"/>
<path d="M969.568 490.276C968.964 490.441 968.316 490.342 967.788 489.992C959.96 484.866 954.767 478.86 952.36 472.135C952.079 471.354 951.842 470.575 951.612 469.823C950.853 467.353 950.139 465.021 948.022 462.665C945.972 460.382 943.833 459.455 941.121 458.281C940.393 457.964 939.636 457.637 938.834 457.263C938.492 457.106 930.369 453.271 922.254 445.382C916.181 439.479 911.971 430.971 910.057 420.753C906.045 415.319 903.297 409.001 902.099 402.45C901.259 397.85 901.168 393.153 901.821 388.485C900.802 385.589 899.856 381.239 900.607 376.097C901.448 370.356 904.004 366.142 906.174 363.485C906.984 355.413 909.638 349.324 914.07 345.374C916.378 343.316 918.362 342.558 920.46 341.754C922.414 341.004 924.63 340.157 927.883 338.004C931.467 335.632 933.299 333.682 934.772 332.119C936.243 330.552 937.517 329.199 939.649 328.615C940.092 328.493 940.55 328.411 941.049 328.362C948.914 327.601 955.368 336.68 959.226 342.105C963.118 347.579 965.936 353.73 967.611 360.39C969.125 362.201 970.428 364.179 971.489 366.275C973.238 369.732 974.313 373.457 974.694 377.361C976.835 379.157 978.7 381.236 980.24 383.554C982.791 387.387 984.419 391.856 984.978 396.537C990.012 400.691 997.651 408.751 997.928 419.595C997.934 419.844 997.898 420.094 997.822 420.333C995.699 426.971 992.852 432.898 989.354 437.956C987.218 441.048 985.561 443.539 982.265 448.505C979.158 453.183 978.864 453.733 978.746 454.452C978.39 456.62 979.248 458.156 980.923 460.902C982.017 462.694 983.255 464.726 984.181 467.386C985.885 472.282 985.951 477.84 984.379 483.905C984.196 484.614 983.677 485.185 982.993 485.431L969.729 490.217C969.682 490.241 969.626 490.26 969.568 490.276Z" fill="url(#paint13_radial_5187_5551)"/>
<path d="M929.719 394.116C933.464 395.76 936.878 396.305 939.289 396.478C939.034 395.209 938.782 393.94 938.527 392.671C936.61 392.814 933.378 392.805 929.69 391.49C924.9 389.787 921.924 386.805 920.577 385.264C919.706 385.088 918.832 384.912 917.961 384.733C919.723 387.069 923.47 391.372 929.719 394.116Z" fill="url(#paint14_radial_5187_5551)"/>
<path d="M941.625 371.746C943.823 370.635 946.81 368.816 949.79 365.908C952.381 363.379 954.137 360.84 955.291 358.861C954.658 358.896 954.029 358.93 953.396 358.966C952.347 360.377 950.961 361.99 949.159 363.589C946.266 366.153 943.381 367.722 941.204 368.675C941.342 369.699 941.484 370.723 941.625 371.746Z" fill="url(#paint15_radial_5187_5551)"/>
<path d="M952.805 416.871C953.631 419.231 954.456 421.588 955.279 423.949C958.167 422.044 962.439 418.728 966.296 413.451C970.399 407.842 972.29 402.406 973.203 398.959C972.368 399.417 971.53 399.879 970.695 400.337C969.204 403.357 966.215 408.341 960.681 412.494C957.83 414.64 955.053 415.997 952.805 416.871Z" fill="url(#paint16_radial_5187_5551)"/>
<path d="M944.481 391.32C944.658 392.472 944.834 393.624 945.01 394.776C947.228 393.405 949.745 391.584 952.278 389.184C957.25 384.475 960.229 379.483 961.976 375.865C961.309 376.277 960.646 376.692 959.978 377.104C957.939 380.019 954.988 383.574 950.843 386.943C948.619 388.757 946.45 390.187 944.481 391.32Z" fill="url(#paint17_radial_5187_5551)"/>
<path d="M978.259 417.126C977.3 420.524 975.079 426.589 969.757 432.172C966.77 435.307 963.695 437.357 961.295 438.681C962.177 441.007 963.056 443.338 963.938 445.664C966.773 443.258 970.335 439.696 973.558 434.739C978.362 427.345 980.202 420.224 980.984 415.75C980.077 416.209 979.167 416.67 978.259 417.126Z" fill="url(#paint18_radial_5187_5551)"/>
<path d="M927.137 369.484C930.809 371.959 934.474 372.341 936.174 372.41C936.172 371.396 936.171 370.381 936.169 369.367C934.75 369.417 931.645 369.329 928.379 367.485C923.89 364.953 922.164 360.836 921.706 359.619C921.079 359.329 920.448 359.039 919.821 358.749C920.158 360.163 921.675 365.804 927.137 369.484Z" fill="url(#paint19_radial_5187_5551)"/>
<path d="M949.762 425.874C948.695 423.304 947.632 420.736 946.564 418.166C944.043 417.969 940.946 417.475 937.552 416.342C930.837 414.1 926.156 410.421 923.437 407.884C922.616 408.062 921.796 408.243 920.975 408.421C924.283 412.065 929.521 416.941 937.012 420.92C941.74 423.43 946.156 424.938 949.762 425.874Z" fill="url(#paint20_radial_5187_5551)"/>
<path d="M955.853 440.681C952.013 440.161 947.532 439.25 942.665 437.647C934.777 435.047 928.567 431.517 924.097 428.471C923.319 428.637 922.539 428.807 921.762 428.973C925.714 432.837 932.152 438.17 941.289 442.179C947.726 445.002 953.605 446.331 958.116 446.983C957.361 444.884 956.609 442.783 955.853 440.681Z" fill="url(#paint21_radial_5187_5551)"/>
<path d="M944.915 393.369C940.593 378.027 939.944 364.04 939.944 364.04C939.555 355.675 940.105 348.802 940.624 344.331L938.985 344.365C938.379 348.304 937.599 354.337 937.255 361.732C937.255 361.732 936.535 377.236 938.997 394.706C941.477 412.306 954.68 461.554 977.751 526.524C979.953 532.719 986.754 536.072 992.866 533.776C993.029 533.713 993.192 533.65 993.355 533.584C993.517 533.517 993.681 533.443 993.838 533.371C1000.8 530.177 1003.48 521.586 999.834 514.792C959.99 440.493 948.968 407.758 944.915 393.369Z" fill="url(#paint22_radial_5187_5551)"/>
<path d="M944.274 405.982C944.524 407.484 949.021 409.253 952.246 407.061C954.66 405.417 955.728 401.985 954.733 400.952C952.985 399.143 943.892 403.678 944.274 405.982Z" fill="#534741"/>
<path d="M938.206 403.1C935.836 402.065 933.086 403.164 932.064 405.55C931.043 407.936 932.14 410.709 934.511 411.744C936.882 412.779 939.632 411.68 940.653 409.294C941.674 406.908 940.58 404.134 938.206 403.1ZM939.863 408.95C939.03 410.899 936.786 411.79 934.854 410.948L937.868 403.898C939.803 404.739 940.697 407.001 939.863 408.95Z" fill="#534741"/>
<path d="M963.616 392.968C961.246 391.933 958.496 393.032 957.474 395.418C956.453 397.804 957.55 400.577 959.921 401.612C962.292 402.646 965.042 401.547 966.063 399.161C967.084 396.772 965.987 394.002 963.616 392.968ZM965.272 398.814C964.439 400.763 962.195 401.654 960.263 400.812L963.277 393.763C965.21 394.608 966.104 396.87 965.272 398.814Z" fill="#534741"/>
<path d="M886 250V333.316" stroke="black"/>
<path d="M1020 240V323.316" stroke="black"/>
<path d="M980 198V281.316" stroke="black"/>
<defs>
<radialGradient id="paint0_radial_5187_5551" cx="0" cy="0" r="1" gradientUnits="userSpaceOnUse" gradientTransform="translate(750.003 582.099) scale(83.6325 82.7766)">
<stop stop-color="#F3EBD9"/>
<stop offset="0.4134" stop-color="#F4EAD7"/>
<stop offset="0.6395" stop-color="#F6E7CF"/>
<stop offset="0.8198" stop-color="#F9E2C1"/>
<stop offset="0.9759" stop-color="#FEDAAE"/>
<stop offset="1" stop-color="#FFD9AA"/>
</radialGradient>
<radialGradient id="paint1_radial_5187_5551" cx="0" cy="0" r="1" gradientUnits="userSpaceOnUse" gradientTransform="translate(857.332 580.075) scale(85.6536 84.777)">
<stop stop-color="#F3EBD9"/>
<stop offset="0.4134" stop-color="#F4EAD7"/>
<stop offset="0.6395" stop-color="#F6E7CF"/>
<stop offset="0.8198" stop-color="#F9E2C1"/>
<stop offset="0.9759" stop-color="#FEDAAE"/>
<stop offset="1" stop-color="#FFD9AA"/>
</radialGradient>
<radialGradient id="paint2_radial_5187_5551" cx="0" cy="0" r="1" gradientUnits="userSpaceOnUse" gradientTransform="translate(808.778 526.183) scale(102.338 101.291)">
<stop stop-color="#F3EBDA"/>
<stop offset="0.416" stop-color="#F4EAD8"/>
<stop offset="0.6436" stop-color="#F6E7D0"/>
<stop offset="0.825" stop-color="#F9E2C2"/>
<stop offset="0.9821" stop-color="#FEDBAF"/>
<stop offset="1" stop-color="#FFDAAC"/>
</radialGradient>
<radialGradient id="paint3_radial_5187_5551" cx="0" cy="0" r="1" gradientUnits="userSpaceOnUse" gradientTransform="translate(960.441 429.636) rotate(-4.79013) scale(70.1352 94.1029)">
<stop stop-color="#5AA668"/>
<stop offset="0.4873" stop-color="#56965F"/>
<stop offset="1" stop-color="#508054"/>
</radialGradient>
<radialGradient id="paint4_radial_5187_5551" cx="0" cy="0" r="1" gradientUnits="userSpaceOnUse" gradientTransform="translate(1025.75 576.108) rotate(-137.236) scale(35.8657 62.6165)">
<stop stop-color="#C8DE90"/>
<stop offset="0.457" stop-color="#B8DE8E"/>
<stop offset="1" stop-color="#9FDE8C"/>
</radialGradient>
<radialGradient id="paint5_radial_5187_5551" cx="0" cy="0" r="1" gradientUnits="userSpaceOnUse" gradientTransform="translate(919.496 575.324) rotate(-60.7651) scale(28.2303 49.2861)">
<stop stop-color="#C8DE90"/>
<stop offset="0.457" stop-color="#B8DE8E"/>
<stop offset="1" stop-color="#9FDE8C"/>
</radialGradient>
<radialGradient id="paint6_radial_5187_5551" cx="0" cy="0" r="1" gradientUnits="userSpaceOnUse" gradientTransform="translate(822.109 670.558) rotate(-60.7651) scale(64.944 113.383)">
<stop stop-color="#C8DE90"/>
<stop offset="0.457" stop-color="#B8DE8E"/>
<stop offset="1" stop-color="#9FDE8C"/>
</radialGradient>
<radialGradient id="paint7_radial_5187_5551" cx="0" cy="0" r="1" gradientUnits="userSpaceOnUse" gradientTransform="translate(952.656 584.073) rotate(-60.7651) scale(34.1917 59.6939)">
<stop stop-color="#C8DE90"/>
<stop offset="0.457" stop-color="#B8DE8E"/>
<stop offset="1" stop-color="#9FDE8C"/>
</radialGradient>
<radialGradient id="paint8_radial_5187_5551" cx="0" cy="0" r="1" gradientUnits="userSpaceOnUse" gradientTransform="translate(1151.23 554.894) rotate(-137.236) scale(58.8866 102.808)">
<stop stop-color="#C8DE90"/>
<stop offset="0.457" stop-color="#B8DE8E"/>
<stop offset="1" stop-color="#9FDE8C"/>
</radialGradient>
<radialGradient id="paint9_radial_5187_5551" cx="0" cy="0" r="1" gradientUnits="userSpaceOnUse" gradientTransform="translate(1178.84 616.795) rotate(-137.236) scale(68.3297 119.294)">
<stop stop-color="#C8DE90"/>
<stop offset="0.457" stop-color="#B8DE8E"/>
<stop offset="1" stop-color="#9FDE8C"/>
</radialGradient>
<radialGradient id="paint10_radial_5187_5551" cx="0" cy="0" r="1" gradientUnits="userSpaceOnUse" gradientTransform="translate(1079.72 583.891) rotate(-137.236) scale(39.4733 68.9148)">
<stop stop-color="#C8DE90"/>
<stop offset="0.457" stop-color="#B8DE8E"/>
<stop offset="1" stop-color="#9FDE8C"/>
</radialGradient>
<radialGradient id="paint11_radial_5187_5551" cx="0" cy="0" r="1" gradientUnits="userSpaceOnUse" gradientTransform="translate(980.3 501.601) rotate(-88.9524) scale(99.7179 131.802)">
<stop stop-color="#C8DE90"/>
<stop offset="0.457" stop-color="#B8DE8E"/>
<stop offset="1" stop-color="#9FDE8C"/>
</radialGradient>
<radialGradient id="paint12_radial_5187_5551" cx="0" cy="0" r="1" gradientUnits="userSpaceOnUse" gradientTransform="translate(960.839 497.485) rotate(-110.316) scale(93.9384 124.178)">
<stop stop-color="#C8DE90"/>
<stop offset="0.457" stop-color="#B8DE8E"/>
<stop offset="1" stop-color="#9FDE8C"/>
</radialGradient>
<radialGradient id="paint13_radial_5187_5551" cx="0" cy="0" r="1" gradientUnits="userSpaceOnUse" gradientTransform="translate(950.189 410.643) rotate(-15.3201) scale(58.9818 91.0862)">
<stop stop-color="#4CCC4F"/>
<stop offset="0.4873" stop-color="#56BC5E"/>
<stop offset="1" stop-color="#64A671"/>
</radialGradient>
<radialGradient id="paint14_radial_5187_5551" cx="0" cy="0" r="1" gradientUnits="userSpaceOnUse" gradientTransform="translate(957.914 455.097) rotate(-111.844) scale(22.4 38.9066)">
<stop stop-color="#E6FFA6"/>
<stop offset="0.4072" stop-color="#D6FFA4"/>
<stop offset="1" stop-color="#B7FFA1"/>
</radialGradient>
<radialGradient id="paint15_radial_5187_5551" cx="0" cy="0" r="1" gradientUnits="userSpaceOnUse" gradientTransform="translate(957.912 455.097) rotate(-111.844) scale(22.4 38.9065)">
<stop stop-color="#E6FFA6"/>
<stop offset="0.4072" stop-color="#D6FFA4"/>
<stop offset="1" stop-color="#B7FFA1"/>
</radialGradient>
<radialGradient id="paint16_radial_5187_5551" cx="0" cy="0" r="1" gradientUnits="userSpaceOnUse" gradientTransform="translate(957.913 455.097) rotate(-111.844) scale(22.4 38.9066)">
<stop stop-color="#E6FFA6"/>
<stop offset="0.4072" stop-color="#D6FFA4"/>
<stop offset="1" stop-color="#B7FFA1"/>
</radialGradient>
<radialGradient id="paint17_radial_5187_5551" cx="0" cy="0" r="1" gradientUnits="userSpaceOnUse" gradientTransform="translate(957.914 455.097) rotate(-111.844) scale(22.4 38.9066)">
<stop stop-color="#E6FFA6"/>
<stop offset="0.4072" stop-color="#D6FFA4"/>
<stop offset="1" stop-color="#B7FFA1"/>
</radialGradient>
<radialGradient id="paint18_radial_5187_5551" cx="0" cy="0" r="1" gradientUnits="userSpaceOnUse" gradientTransform="translate(962.56 458.021) rotate(-123.125) scale(22.3818 38.944)">
<stop stop-color="#E6FFA6"/>
<stop offset="0.4072" stop-color="#D6FFA4"/>
<stop offset="1" stop-color="#B7FFA1"/>
</radialGradient>
<radialGradient id="paint19_radial_5187_5551" cx="0" cy="0" r="1" gradientUnits="userSpaceOnUse" gradientTransform="translate(957.914 455.097) rotate(-111.844) scale(22.4 38.9066)">
<stop stop-color="#E6FFA6"/>
<stop offset="0.4072" stop-color="#D6FFA4"/>
<stop offset="1" stop-color="#B7FFA1"/>
</radialGradient>
<radialGradient id="paint20_radial_5187_5551" cx="0" cy="0" r="1" gradientUnits="userSpaceOnUse" gradientTransform="translate(957.913 455.097) rotate(-111.844) scale(22.4 38.9066)">
<stop stop-color="#E6FFA6"/>
<stop offset="0.4072" stop-color="#D6FFA4"/>
<stop offset="1" stop-color="#B7FFA1"/>
</radialGradient>
<radialGradient id="paint21_radial_5187_5551" cx="0" cy="0" r="1" gradientUnits="userSpaceOnUse" gradientTransform="translate(957.914 455.097) rotate(-111.844) scale(22.4 38.9066)">
<stop stop-color="#E6FFA6"/>
<stop offset="0.4072" stop-color="#D6FFA4"/>
<stop offset="1" stop-color="#B7FFA1"/>
</radialGradient>
<radialGradient id="paint22_radial_5187_5551" cx="0" cy="0" r="1" gradientUnits="userSpaceOnUse" gradientTransform="translate(979.991 521.958) rotate(-97.1564) scale(83.7777 110.679)">
<stop stop-color="#E6FFA6"/>
<stop offset="0.4072" stop-color="#D6FFA4"/>
<stop offset="1" stop-color="#B7FFA1"/>
</radialGradient>
</defs>
</svg>
