<svg width="1342" height="1059" viewBox="0 0 1342 1059" fill="none" xmlns="http://www.w3.org/2000/svg">
<path d="M972.922 399.431L169 867.129L388.777 996L1171.01 535.542C1176.79 511.216 1168.6 498.377 1163.78 494.998C1115.58 466.487 1015.72 407.457 1001.84 399.431C987.959 391.406 976.778 396.087 972.922 399.431Z" fill="#F4EFEF" stroke="black" stroke-linejoin="round"/>
<path d="M366 785C382.24 791.859 450.1 831.858 482 851" stroke="black"/>
<path d="M451 734.857C467.24 741.82 535.1 782.425 567 801.857" stroke="black"/>
<path d="M536 685.715C552.24 692.574 620.1 732.573 652 751.715" stroke="black"/>
<path d="M621 636.57C637.24 643.429 705.1 683.428 737 702.57" stroke="black"/>
<path d="M706 587.428C722.24 594.287 790.1 634.286 822 653.428" stroke="black"/>
<path d="M791 537.285C807.38 544.248 875.825 584.853 908 604.285" stroke="black"/>
<path d="M877 487.143C893.1 494.105 960.375 534.711 992 554.143" stroke="black"/>
<path d="M961 437C977.24 443.963 1045.1 484.568 1077 504" stroke="black"/>
<path d="M341.037 967.974L1163 497" stroke="black"/>
<ellipse cx="535.093" cy="883.231" rx="17.7269" ry="12.8657" transform="rotate(-54.8943 535.093 883.231)" fill="#8FE3C1"/>
<ellipse cx="826.042" cy="715.487" rx="17.7269" ry="12.8657" transform="rotate(-54.8943 826.042 715.487)" fill="#8FE3C1"/>
<ellipse cx="973.554" cy="631.608" rx="17.7269" ry="12.8657" transform="rotate(-54.8943 973.554 631.608)" fill="#8FE3C1"/>
<ellipse cx="1118.17" cy="547.729" rx="17.7269" ry="12.8657" transform="rotate(-54.8943 1118.17 547.729)" fill="#8FE3C1"/>
<ellipse cx="681.423" cy="799.365" rx="17.7269" ry="12.8657" transform="rotate(-54.8943 681.423 799.365)" fill="#8FE3C1"/>
<path d="M207.66 973.641C204.419 987.074 196.608 999.345 183.968 1005.5C171.453 1011.6 156.468 1011.09 143.399 1007.29C141.826 1006.84 141.039 1006.63 139.459 1006.21C126.268 1002.65 113.198 995.632 105.515 983.918C98.8702 973.785 97.5225 961.337 100.053 949.654L210.68 960.881C209.672 965.136 208.666 969.388 207.66 973.641Z" fill="url(#paint0_linear_5199_12310)"/>
<path d="M210.508 961.004C209.863 967.382 184.614 970.049 154.117 966.962C123.621 963.872 99.4207 956.198 100.067 949.817C100.712 943.439 125.961 940.772 156.458 943.859C186.955 946.946 211.154 954.623 210.508 961.004Z" fill="url(#paint1_linear_5199_12310)"/>
<path d="M120.056 959.527C105.037 955.395 101.306 951.571 101.469 949.961C101.64 948.28 105.867 945.889 117.219 944.691C127.777 943.576 141.66 943.78 156.32 945.263C168.841 946.533 180.987 948.675 190.524 951.298C205.542 955.431 209.273 959.255 209.11 960.865C208.939 962.546 204.712 964.937 193.36 966.135C182.803 967.25 168.919 967.046 154.26 965.563C141.739 964.293 129.589 962.15 120.056 959.527Z" fill="url(#paint2_radial_5199_12310)"/>
<path d="M147.294 951.012C146.429 951.302 142.62 952.571 142.643 954.167C142.692 957.6 160.44 960.126 166.897 957.705C167.64 957.425 169.59 956.696 169.584 955.65C169.579 954.859 168.458 954.227 167.626 953.802C162.115 950.998 155.785 950.602 153.462 950.505C149.944 950.359 148.552 950.594 147.294 951.012Z" fill="#FFE6CC"/>
<path d="M135.94 951.838C136.424 951.309 139.549 952.806 139.429 953.238C139.326 953.614 136.645 953.68 136.015 952.506C135.986 952.451 135.763 952.033 135.94 951.838Z" fill="#063B01"/>
<path d="M155.373 963.23C155.621 963.636 156.248 963.936 156.687 963.784C157.694 963.428 157.636 960.666 157.028 960.466C156.451 960.278 154.738 962.193 155.373 963.23Z" fill="#063B01"/>
<path d="M141.745 959.307C141.776 959.686 143.27 960.203 144.539 959.719C145.405 959.386 146.187 958.579 146.01 958.272C145.666 957.683 141.694 958.674 141.745 959.307Z" fill="#063B01"/>
<path d="M171.147 962.386C169.843 962.696 167.977 960.462 168.27 960.03C168.466 959.742 169.648 960.22 170.973 960.759C171.699 961.054 171.964 961.228 172.003 961.468C172.07 961.836 171.607 962.276 171.147 962.386Z" fill="#063B01"/>
<path d="M156.443 948.334C156.184 948.045 155.017 948.189 154.862 948.594C154.827 948.679 154.873 948.819 154.96 949.098C155.105 949.56 155.177 949.787 155.28 949.823C155.668 949.947 156.785 948.716 156.443 948.334Z" fill="#063B01"/>
<path d="M145.832 948.154C145.228 947.995 144.548 948.259 144.533 948.513C144.512 948.958 146.567 949.673 146.823 949.325C146.98 949.11 146.569 948.346 145.832 948.154Z" fill="#063B01"/>
<path d="M174.795 954.147C174.879 953.868 173.92 953.124 172.855 953.158C172.125 953.183 171.327 953.571 171.371 953.834C171.46 954.342 174.659 954.615 174.795 954.147Z" fill="#063B01"/>
<path d="M140.188 949.47C140.143 949.21 140.615 948.857 141.082 948.785C142.258 948.61 143.503 950.219 143.319 950.477C143.278 950.535 143.178 950.5 141.726 950.082C140.496 949.726 140.218 949.653 140.188 949.47Z" fill="#A2C71E"/>
<path d="M164.582 949.591C165.06 949.228 165.804 949.221 165.931 949.449C166.155 949.849 164.61 951.246 164.215 951.018C163.972 950.882 163.998 950.034 164.582 949.591Z" fill="#063B01"/>
<path d="M171.728 951.215C171.786 950.962 171.334 950.558 170.868 950.44C169.701 950.145 168.381 951.626 168.549 951.901C168.586 951.962 168.688 951.936 170.159 951.668C171.404 951.439 171.686 951.393 171.728 951.215Z" fill="#A2C71E"/>
<path d="M147.705 961.324C147.878 961.845 149.538 962.214 150.517 961.508C151.448 960.837 151.554 959.353 151.105 959.069C150.845 958.903 150.402 959.152 149.723 959.529C149.027 959.92 147.521 960.764 147.705 961.324Z" fill="#A2C71E"/>
<path d="M137.628 955.867C137.517 956.124 137.743 956.455 137.922 956.621C138.888 957.501 141.552 956.372 141.48 955.919C141.406 955.422 137.972 955.066 137.628 955.867Z" fill="#A2C71E"/>
<path d="M161.37 949.063C161.28 948.824 160.786 948.582 160.427 948.592C159.527 948.621 159.423 950.255 159.674 950.455C159.731 950.5 159.781 950.452 160.594 949.85C161.276 949.339 161.434 949.23 161.37 949.063Z" fill="#A2C71E"/>
<path d="M164.344 962.913C164.192 963.319 162.983 963.496 162.219 962.98C161.281 962.344 161.267 960.823 161.678 960.623C161.922 960.505 162.333 960.836 163.032 961.403C163.812 962.029 164.473 962.563 164.344 962.913Z" fill="#A2C71E"/>
<path d="M150.986 947.847C150.697 947.746 150.187 947.682 150.046 947.891C149.788 948.274 150.786 949.578 151.312 949.465C151.61 949.401 151.824 948.874 151.675 948.448C151.526 948.039 151.099 947.886 150.986 947.847Z" fill="#A2C71E"/>
<path d="M175.019 956.76C175.161 957.01 174.976 957.352 174.816 957.526C173.963 958.455 171.167 957.471 171.184 957.014C171.197 956.519 174.579 955.98 175.019 956.76Z" fill="#A2C71E"/>
<path d="M156.615 930.709C126.412 927.224 101.332 929.565 100.6 935.933C100.57 936.177 100.584 936.426 100.628 936.676C100.863 939.389 101.098 942.106 101.332 944.819C101.631 948.288 103.793 951.321 106.979 952.726C118.371 957.744 134.56 963.297 154.576 965.486C173.663 967.573 190.021 965.923 202.109 963.645C206.519 962.815 209.738 958.993 209.832 954.506C209.873 952.562 209.915 950.621 209.952 948.676C209.961 948.634 209.969 948.591 209.974 948.549C210.705 942.178 186.818 934.19 156.615 930.709Z" fill="url(#paint3_linear_5199_12310)"/>
<path d="M189.041 953.979C204.596 953.158 209.06 950.222 209.245 948.614C209.438 946.935 205.821 943.695 194.989 940.094C184.915 936.744 171.309 933.971 156.672 932.281C144.17 930.84 131.846 930.332 121.969 930.853C106.415 931.674 101.951 934.61 101.765 936.218C101.573 937.896 105.189 941.137 116.022 944.738C126.096 948.088 139.701 950.861 154.338 952.551C166.841 953.991 179.164 954.5 189.041 953.979Z" fill="url(#paint4_radial_5199_12310)"/>
<path d="M164.254 939.831C165.038 940.299 168.486 942.354 168.122 943.908C167.34 947.251 149.462 945.918 143.673 942.171C143.008 941.739 141.259 940.609 141.489 939.589C141.663 938.817 142.893 938.44 143.797 938.202C149.781 936.643 156.049 937.612 158.339 938.015C161.806 938.625 163.116 939.153 164.254 939.831Z" fill="#FFE6CC"/>
<path d="M175.172 943.068C174.813 942.448 171.441 943.24 171.465 943.689C171.485 944.077 174.09 944.716 174.957 943.704C174.996 943.657 175.304 943.296 175.172 943.068Z" fill="#063B01"/>
<path d="M153.745 950.036C153.416 950.38 152.736 950.539 152.344 950.296C151.436 949.733 152.084 947.047 152.72 946.982C153.328 946.922 154.588 949.159 153.745 950.036Z" fill="#063B01"/>
<path d="M167.901 949.12C167.79 949.484 166.22 949.669 165.085 948.924C164.31 948.414 163.718 947.458 163.957 947.196C164.419 946.694 168.087 948.513 167.901 949.12Z" fill="#063B01"/>
<path d="M138.52 945.834C139.728 946.417 142.029 944.634 141.835 944.149C141.705 943.826 140.449 944.039 139.039 944.282C138.266 944.414 137.97 944.528 137.88 944.754C137.74 945.099 138.095 945.628 138.52 945.834Z" fill="#063B01"/>
<path d="M155.892 935.256C156.206 935.028 157.316 935.419 157.38 935.848C157.396 935.938 157.322 936.065 157.177 936.319C156.936 936.739 156.817 936.945 156.708 936.958C156.307 936.997 155.475 935.555 155.892 935.256Z" fill="#063B01"/>
<path d="M166.296 937.351C166.92 937.325 167.528 937.728 167.489 937.98C167.413 938.419 165.253 938.677 165.078 938.283C164.966 938.039 165.536 937.38 166.296 937.351Z" fill="#063B01"/>
<path d="M136.72 937.004C136.698 936.714 137.794 936.193 138.827 936.454C139.535 936.635 140.231 937.184 140.132 937.432C139.939 937.909 136.756 937.491 136.72 937.004Z" fill="#063B01"/>
<path d="M171.53 939.847C171.629 939.603 171.244 939.157 170.803 938.987C169.692 938.564 168.131 939.869 168.255 940.161C168.283 940.226 168.388 940.213 169.897 940.116C171.171 940.032 171.458 940.02 171.53 939.847Z" fill="#A2C71E"/>
<path d="M147.674 934.74C147.285 934.283 146.56 934.118 146.387 934.313C146.082 934.656 147.292 936.352 147.727 936.213C147.99 936.132 148.15 935.298 147.674 934.74Z" fill="#063B01"/>
<path d="M140.348 934.798C140.345 934.538 140.873 934.24 141.354 934.225C142.557 934.186 143.529 935.916 143.306 936.149C143.256 936.2 143.163 936.153 141.783 935.576C140.613 935.086 140.347 934.981 140.348 934.798Z" fill="#A2C71E"/>
<path d="M161.644 949.816C161.363 950.288 159.664 950.293 158.857 949.394C158.092 948.542 158.306 947.067 158.806 946.886C159.095 946.779 159.475 947.117 160.057 947.631C160.657 948.161 161.947 949.308 161.644 949.816Z" fill="#A2C71E"/>
<path d="M172.655 946.643C172.709 946.918 172.418 947.193 172.206 947.317C171.075 947.97 168.714 946.296 168.881 945.87C169.06 945.4 172.491 945.788 172.655 946.643Z" fill="#A2C71E"/>
<path d="M150.924 934.913C151.064 934.699 151.598 934.569 151.947 934.656C152.819 934.876 152.571 936.495 152.283 936.636C152.218 936.668 152.18 936.61 151.515 935.848C150.957 935.203 150.827 935.062 150.924 934.913Z" fill="#A2C71E"/>
<path d="M145.052 947.804C145.113 948.233 146.257 948.664 147.113 948.324C148.166 947.903 148.506 946.421 148.146 946.138C147.934 945.97 147.462 946.205 146.657 946.609C145.761 947.054 145.001 947.434 145.052 947.804Z" fill="#A2C71E"/>
<path d="M161.331 935.95C161.635 935.912 162.147 935.959 162.24 936.193C162.41 936.623 161.156 937.683 160.667 937.46C160.389 937.334 160.293 936.774 160.529 936.389C160.759 936.022 161.213 935.963 161.331 935.95Z" fill="#A2C71E"/>
<path d="M135.945 939.508C135.753 939.722 135.86 940.095 135.98 940.3C136.614 941.39 139.555 941.028 139.637 940.577C139.727 940.091 136.542 938.84 135.945 939.508Z" fill="#A2C71E"/>
<path d="M160.05 918.467C190.299 921.53 214.296 929.188 213.651 935.565C213.627 935.81 213.561 936.05 213.464 936.285C212.654 938.885 211.843 941.488 211.033 944.088C209.998 947.412 207.237 949.912 203.824 950.603C191.622 953.066 174.619 955.023 154.599 952.876C135.507 950.828 119.883 945.714 108.562 940.9C104.432 939.146 102.106 934.722 102.976 930.32C103.352 928.412 103.727 926.507 104.106 924.599C104.107 924.556 104.108 924.513 104.112 924.47C104.755 918.088 129.802 915.401 160.05 918.467Z" fill="url(#paint5_linear_5199_12310)"/>
<path d="M217.654 940.778L210.357 941.054C210.295 941.055 210.243 941.11 210.248 941.173C210.251 941.229 210.29 941.272 210.342 941.28L217.547 942.462C218.013 942.539 218.456 942.228 218.532 941.765C218.608 941.302 218.292 940.866 217.826 940.788C217.77 940.78 217.709 940.778 217.654 940.778Z" fill="#F3C344"/>
<path d="M214.191 949.546L208.94 944.544C208.833 944.442 208.664 944.446 208.563 944.549C208.472 944.644 208.465 944.788 208.543 944.889L212.913 950.661C213.196 951.033 213.735 951.112 214.111 950.83C214.489 950.552 214.566 950.021 214.283 949.648C214.257 949.612 214.223 949.577 214.191 949.546Z" fill="#F3C344"/>
<path d="M123.903 934.008C108.885 929.876 105.154 926.052 105.317 924.441C105.488 922.761 109.715 920.369 121.067 919.171C131.624 918.056 145.508 918.26 160.167 919.744C172.688 921.013 184.835 923.155 194.371 925.779C209.39 929.911 213.121 933.735 212.958 935.345C212.787 937.026 208.56 939.417 197.208 940.616C186.65 941.73 172.767 941.526 158.107 940.043C145.586 938.773 133.436 936.631 123.903 934.008Z" fill="url(#paint6_radial_5199_12310)"/>
<path d="M151.142 925.493C150.277 925.782 146.468 927.052 146.491 928.648C146.539 932.08 164.288 934.606 170.745 932.185C171.488 931.906 173.438 931.176 173.431 930.13C173.427 929.34 172.306 928.708 171.473 928.282C165.963 925.478 159.633 925.082 157.309 924.985C153.792 924.84 152.399 925.075 151.142 925.493Z" fill="#FFE6CC"/>
<path d="M139.786 926.323C140.27 925.794 143.394 927.29 143.275 927.723C143.172 928.098 140.491 928.164 139.861 926.991C139.833 926.932 139.61 926.514 139.786 926.323Z" fill="#063B01"/>
<path d="M159.221 937.712C159.469 938.119 160.096 938.419 160.534 938.266C161.542 937.911 161.483 935.148 160.876 934.948C160.299 934.76 158.586 936.675 159.221 937.712Z" fill="#063B01"/>
<path d="M145.593 933.793C145.623 934.172 147.118 934.689 148.386 934.205C149.253 933.872 150.035 933.065 149.858 932.758C149.514 932.169 145.542 933.161 145.593 933.793Z" fill="#063B01"/>
<path d="M174.995 936.868C173.691 937.179 171.824 934.945 172.118 934.512C172.314 934.224 173.495 934.702 174.82 935.241C175.547 935.536 175.812 935.711 175.851 935.951C175.917 936.318 175.453 936.762 174.995 936.868Z" fill="#063B01"/>
<path d="M160.289 922.819C160.03 922.529 158.862 922.674 158.707 923.079C158.673 923.164 158.718 923.304 158.805 923.582C158.951 924.044 159.023 924.271 159.126 924.307C159.514 924.432 160.632 923.197 160.289 922.819Z" fill="#063B01"/>
<path d="M149.682 922.636C149.078 922.477 148.398 922.741 148.382 922.995C148.362 923.441 150.417 924.155 150.673 923.807C150.83 923.592 150.418 922.828 149.682 922.636Z" fill="#063B01"/>
<path d="M178.643 928.629C178.727 928.35 177.767 927.606 176.703 927.641C175.972 927.665 175.174 928.053 175.218 928.316C175.308 928.825 178.507 929.097 178.643 928.629Z" fill="#063B01"/>
<path d="M144.036 923.953C143.991 923.693 144.463 923.339 144.93 923.267C146.106 923.093 147.351 924.701 147.167 924.96C147.126 925.017 147.026 924.983 145.573 924.565C144.344 924.208 144.065 924.135 144.036 923.953Z" fill="#A2C71E"/>
<path d="M168.425 924.076C168.904 923.713 169.647 923.707 169.774 923.935C169.999 924.335 168.454 925.732 168.058 925.503C167.82 925.365 167.846 924.517 168.425 924.076Z" fill="#063B01"/>
<path d="M175.575 925.698C175.634 925.445 175.181 925.04 174.715 924.923C173.549 924.627 172.228 926.108 172.396 926.384C172.434 926.445 172.536 926.418 174.007 926.15C175.252 925.921 175.534 925.875 175.575 925.698Z" fill="#A2C71E"/>
<path d="M151.553 935.806C151.726 936.327 153.385 936.696 154.365 935.991C155.296 935.319 155.402 933.835 154.953 933.551C154.693 933.385 154.249 933.634 153.571 934.012C152.873 934.405 151.369 935.246 151.553 935.806Z" fill="#A2C71E"/>
<path d="M141.476 930.351C141.365 930.608 141.59 930.939 141.77 931.105C142.736 931.985 145.4 930.856 145.328 930.403C145.254 929.906 141.819 929.554 141.476 930.351Z" fill="#A2C71E"/>
<path d="M165.218 923.545C165.127 923.306 164.634 923.065 164.274 923.075C163.375 923.104 163.271 924.738 163.522 924.938C163.579 924.982 163.628 924.934 164.441 924.332C165.123 923.825 165.281 923.712 165.218 923.545Z" fill="#A2C71E"/>
<path d="M168.192 937.394C168.04 937.8 166.831 937.976 166.067 937.461C165.129 936.824 165.114 935.303 165.526 935.104C165.77 934.985 166.18 935.316 166.879 935.883C167.66 936.509 168.321 937.044 168.192 937.394Z" fill="#A2C71E"/>
<path d="M154.831 922.33C154.543 922.228 154.033 922.164 153.892 922.373C153.634 922.757 154.632 924.061 155.158 923.947C155.455 923.883 155.669 923.357 155.521 922.93C155.372 922.522 154.944 922.371 154.831 922.33Z" fill="#A2C71E"/>
<path d="M178.867 931.241C179.009 931.491 178.824 931.833 178.664 932.007C177.811 932.936 175.015 931.953 175.032 931.495C175.045 931 178.426 930.465 178.867 931.241Z" fill="#A2C71E"/>
<path d="M213.531 933.629C213.097 928.855 212.659 924.077 212.225 919.303C209.831 891.189 187.102 863.566 157.28 865.431C155.813 865.512 155.081 865.552 153.613 865.632C125.119 866.979 105.99 894.335 104.927 921.357L104.987 921.364C104.985 921.382 104.982 921.399 104.98 921.417C104.774 923.185 108.446 926.531 119.46 930.135C129.597 933.453 143.284 936.179 158.004 937.812C170.498 939.199 182.831 939.663 192.732 939.12C207.255 938.323 212.903 935.691 213.393 933.612L213.531 933.629Z" fill="url(#paint7_linear_5199_12310)"/>
<path d="M99.9369 918.628L107.214 919.254C107.278 919.261 107.323 919.315 107.32 919.378C107.316 919.435 107.272 919.476 107.22 919.482L99.9675 920.337C99.4962 920.391 99.0704 920.056 99.0164 919.585C98.9624 919.113 99.2973 918.688 99.7686 918.634C99.8207 918.624 99.8805 918.624 99.9369 918.628Z" fill="#F3C344"/>
<path d="M103.917 909.992L108.638 915.56C108.687 915.62 108.682 915.709 108.621 915.758C108.567 915.803 108.493 915.8 108.442 915.76L102.727 911.216C102.356 910.92 102.295 910.383 102.59 910.012C102.886 909.641 103.424 909.58 103.795 909.875C103.839 909.912 103.88 909.951 103.917 909.992Z" fill="#F3C344"/>
<path d="M169.68 859.341L167.877 866.42C167.862 866.48 167.798 866.519 167.737 866.501C167.683 866.487 167.649 866.439 167.65 866.387L167.991 859.09C168.014 858.618 168.415 858.252 168.887 858.271C169.359 858.295 169.725 858.696 169.705 859.168C169.705 859.228 169.695 859.288 169.68 859.341Z" fill="#F3C344"/>
<path d="M177.553 864.673L171.289 868.424C171.221 868.463 171.135 868.443 171.096 868.375C171.062 868.317 171.075 868.243 171.122 868.198L176.536 863.299C176.888 862.981 177.43 863.008 177.748 863.359C178.066 863.711 178.039 864.253 177.688 864.571C177.648 864.612 177.597 864.646 177.553 864.673Z" fill="#F3C344"/>
<path d="M160.28 860.879L164.132 867.068C164.209 867.194 164.173 867.357 164.047 867.434C163.935 867.504 163.789 867.48 163.703 867.383L158.909 861.896C158.598 861.541 158.635 860.998 158.99 860.687C159.346 860.375 159.889 860.412 160.2 860.768C160.226 860.801 160.257 860.842 160.28 860.879Z" fill="#F3C344"/>
<path d="M148.93 921.682C146.72 921.29 144.609 922.766 144.217 924.975C143.826 927.185 145.301 929.296 147.511 929.688C149.721 930.079 151.832 928.604 152.223 926.394C152.618 924.181 151.143 922.073 148.93 921.682ZM144.959 925.107C145.278 923.305 147 922.1 148.802 922.419C150.604 922.739 151.808 924.46 151.489 926.262L144.959 925.107Z" fill="#C4CF4D"/>
<path d="M172.35 925.822C170.14 925.431 168.029 926.906 167.637 929.116C167.246 931.326 168.721 933.437 170.931 933.828C173.141 934.22 175.252 932.745 175.643 930.535C176.035 928.321 174.56 926.214 172.35 925.822ZM168.375 929.248C168.694 927.446 170.416 926.241 172.218 926.56C174.02 926.879 175.225 928.601 174.905 930.403L168.375 929.248Z" fill="#C4CF4D"/>
<path d="M157.534 930.237C157.69 929.108 159.187 927.143 160.184 927.96C160.945 928.582 161.43 930.817 161.165 931.826C160.669 933.725 157.261 932.181 157.534 930.237Z" fill="#C4CF4D"/>
<path opacity="0.5" d="M172.303 623.611V636.57H149.633V623.611H136.215V600.941H149.633V588.57H172.303V600.941H184.215V623.611H172.303Z" fill="#3DCE94"/>
<defs>
<linearGradient id="paint0_linear_5199_12310" x1="145.043" y1="993.732" x2="174.176" y2="887.849" gradientUnits="userSpaceOnUse">
<stop stop-color="#6A4727"/>
<stop offset="0.1931" stop-color="#734D2A"/>
<stop offset="0.5059" stop-color="#8B5E31"/>
<stop offset="0.8973" stop-color="#B27A3D"/>
<stop offset="1" stop-color="#BD8240"/>
</linearGradient>
<linearGradient id="paint1_linear_5199_12310" x1="102.489" y1="940.882" x2="208.085" y2="969.936" gradientUnits="userSpaceOnUse">
<stop stop-color="#6A4727"/>
<stop offset="0.1931" stop-color="#734D2A"/>
<stop offset="0.5059" stop-color="#8B5E31"/>
<stop offset="0.8973" stop-color="#B27A3D"/>
<stop offset="1" stop-color="#BD8240"/>
</linearGradient>
<radialGradient id="paint2_radial_5199_12310" cx="0" cy="0" r="1" gradientUnits="userSpaceOnUse" gradientTransform="translate(155.271 955.417) rotate(5.69441) scale(53.5846 10.6711)">
<stop stop-color="#C4CF4D"/>
<stop offset="0.2634" stop-color="#C6D24D"/>
<stop offset="0.4274" stop-color="#CCDA4E"/>
<stop offset="0.5637" stop-color="#D5E950"/>
<stop offset="0.6193" stop-color="#DBF151"/>
<stop offset="1" stop-color="#C4CF4D"/>
</radialGradient>
<linearGradient id="paint3_linear_5199_12310" x1="101.329" y1="950.397" x2="209.803" y2="944.674" gradientUnits="userSpaceOnUse">
<stop stop-color="#6A4727"/>
<stop offset="0.1931" stop-color="#734D2A"/>
<stop offset="0.5059" stop-color="#8B5E31"/>
<stop offset="0.8973" stop-color="#B27A3D"/>
<stop offset="1" stop-color="#BD8240"/>
</linearGradient>
<radialGradient id="paint4_radial_5199_12310" cx="0" cy="0" r="1" gradientUnits="userSpaceOnUse" gradientTransform="translate(155.615 942.538) rotate(-173.331) scale(53.5846 10.6711)">
<stop stop-color="#C4CF4D"/>
<stop offset="0.2634" stop-color="#C6D24D"/>
<stop offset="0.4274" stop-color="#CCDA4E"/>
<stop offset="0.5637" stop-color="#D5E950"/>
<stop offset="0.6193" stop-color="#DBF151"/>
<stop offset="1" stop-color="#C4CF4D"/>
</radialGradient>
<linearGradient id="paint5_linear_5199_12310" x1="209.838" y1="949.537" x2="105.105" y2="920.721" gradientUnits="userSpaceOnUse">
<stop stop-color="#6A4727"/>
<stop offset="0.1931" stop-color="#734D2A"/>
<stop offset="0.5059" stop-color="#8B5E31"/>
<stop offset="0.8973" stop-color="#B27A3D"/>
<stop offset="1" stop-color="#BD8240"/>
</linearGradient>
<radialGradient id="paint6_radial_5199_12310" cx="0" cy="0" r="1" gradientUnits="userSpaceOnUse" gradientTransform="translate(159.121 929.899) rotate(5.69442) scale(53.5846 10.6711)">
<stop stop-color="#C4CF4D"/>
<stop offset="0.2634" stop-color="#C6D24D"/>
<stop offset="0.4274" stop-color="#CCDA4E"/>
<stop offset="0.5637" stop-color="#D5E950"/>
<stop offset="0.6193" stop-color="#DBF151"/>
<stop offset="1" stop-color="#C4CF4D"/>
</radialGradient>
<linearGradient id="paint7_linear_5199_12310" x1="163.361" y1="1002.75" x2="156.974" y2="886.412" gradientUnits="userSpaceOnUse">
<stop stop-color="#6A4727"/>
<stop offset="0.1931" stop-color="#734D2A"/>
<stop offset="0.5059" stop-color="#8B5E31"/>
<stop offset="0.8973" stop-color="#B27A3D"/>
<stop offset="1" stop-color="#BD8240"/>
</linearGradient>
</defs>
</svg>
