<svg width="1342" height="1024" viewBox="0 0 1342 1024" fill="none" xmlns="http://www.w3.org/2000/svg">
<g clip-path="url(#clip0_5199_12880)">
<path d="M972.922 399.431L169 867.129L388.777 996L1171.01 535.542C1176.79 511.216 1168.6 498.377 1163.78 494.998C1115.58 466.487 1015.72 407.457 1001.84 399.431C987.959 391.406 976.778 396.087 972.922 399.431Z" fill="#F4EFEF" stroke="black" stroke-linejoin="round"/>
<path d="M366 785C382.24 791.859 450.1 831.858 482 851" stroke="black"/>
<path d="M451 734.857C467.24 741.82 535.1 782.425 567 801.857" stroke="black"/>
<path d="M536 685.715C552.24 692.574 620.1 732.573 652 751.715" stroke="black"/>
<path d="M621 636.57C637.24 643.429 705.1 683.428 737 702.57" stroke="black"/>
<path d="M706 587.428C722.24 594.287 790.1 634.286 822 653.428" stroke="black"/>
<path d="M791 537.285C807.38 544.248 875.825 584.853 908 604.285" stroke="black"/>
<path d="M877 487.143C893.1 494.105 960.375 534.711 992 554.143" stroke="black"/>
<path d="M961 437C977.24 443.963 1045.1 484.568 1077 504" stroke="black"/>
<path d="M341.037 967.974L1163 497" stroke="black"/>
<ellipse cx="535.093" cy="883.231" rx="17.7269" ry="12.8657" transform="rotate(-54.8943 535.093 883.231)" fill="#8FE3C1"/>
<ellipse cx="826.042" cy="715.487" rx="17.7269" ry="12.8657" transform="rotate(-54.8943 826.042 715.487)" fill="#8FE3C1"/>
<ellipse cx="973.554" cy="631.608" rx="17.7269" ry="12.8657" transform="rotate(-54.8943 973.554 631.608)" fill="#8FE3C1"/>
<ellipse cx="1118.17" cy="547.729" rx="17.7269" ry="12.8657" transform="rotate(-54.8943 1118.17 547.729)" fill="#8FE3C1"/>
<ellipse cx="681.423" cy="799.365" rx="17.7269" ry="12.8657" transform="rotate(-54.8943 681.423 799.365)" fill="#8FE3C1"/>
<path d="M214.241 989.462C214.678 1003.31 210.414 1017.26 199.887 1026.58C189.466 1035.8 174.92 1039.3 161.346 1039.1C159.716 1039.09 158.901 1039.09 157.27 1039.1C143.644 1039.17 129.217 1035.86 118.729 1026.58C109.658 1018.55 105.068 1006.87 104.41 994.897L213.769 976.32C213.926 980.703 214.084 985.083 214.241 989.462Z" fill="url(#paint0_linear_5199_12880)"/>
<path d="M213.636 976.485C214.703 982.824 191.128 992.121 160.982 997.25C130.837 1002.38 105.533 1001.39 104.466 995.051C103.399 988.713 126.975 979.416 157.12 974.287C187.266 969.158 212.569 970.143 213.636 976.485Z" fill="url(#paint1_linear_5199_12880)"/>
<path d="M126.258 999.122C110.721 999.122 106.121 996.417 105.852 994.816C105.572 993.145 109.004 989.709 119.604 985.53C129.462 981.643 142.868 978.146 157.358 975.68C169.735 973.577 181.983 972.416 191.848 972.416C207.384 972.416 211.985 975.121 212.254 976.722C212.534 978.392 209.102 981.829 198.502 986.008C188.644 989.895 175.238 993.392 160.748 995.857C148.371 997.961 136.119 999.122 126.258 999.122Z" fill="url(#paint2_radial_5199_12880)"/>
<path d="M150.2 983.641C149.445 984.151 146.118 986.392 146.562 987.929C147.517 991.236 165.254 988.956 170.823 984.897C171.463 984.429 173.146 983.205 172.863 982.196C172.649 981.432 171.404 981.119 170.491 980.929C164.449 979.684 158.257 980.986 155.997 981.51C152.576 982.305 151.299 982.903 150.2 983.641Z" fill="#FFE6CC"/>
<path d="M139.499 987.461C139.824 986.821 143.224 987.437 143.224 987.887C143.224 988.277 140.664 989.055 139.747 988.087C139.705 988.042 139.38 987.697 139.499 987.461Z" fill="#063B01"/>
<path d="M161.204 993.307C161.55 993.634 162.232 993.757 162.613 993.493C163.488 992.881 162.701 990.225 162.064 990.194C161.459 990.165 160.318 992.473 161.204 993.307Z" fill="#063B01"/>
<path d="M147.06 993.138C147.19 993.496 148.764 993.598 149.855 992.793C150.601 992.241 151.139 991.252 150.888 991.002C150.401 990.524 146.843 992.54 147.06 993.138Z" fill="#063B01"/>
<path d="M176.148 988.294C174.976 988.941 172.59 987.278 172.758 986.782C172.87 986.451 174.133 986.599 175.55 986.767C176.327 986.859 176.628 986.957 176.729 987.179C176.89 987.517 176.561 988.066 176.148 988.294Z" fill="#063B01"/>
<path d="M158.289 978.618C157.963 978.407 156.879 978.857 156.837 979.29C156.826 979.381 156.907 979.505 157.064 979.751C157.327 980.159 157.456 980.359 157.564 980.366C157.97 980.384 158.719 978.896 158.289 978.618Z" fill="#063B01"/>
<path d="M148.039 981.266C147.416 981.273 146.832 981.709 146.884 981.959C146.982 982.395 149.148 982.539 149.302 982.135C149.396 981.885 148.798 981.255 148.039 981.266Z" fill="#063B01"/>
<path d="M177.478 979.356C177.485 979.064 176.366 978.6 175.351 978.917C174.655 979.135 173.99 979.722 174.102 979.965C174.323 980.433 177.471 979.845 177.478 979.356Z" fill="#063B01"/>
<path d="M142.96 984.041C142.848 983.802 143.208 983.334 143.639 983.14C144.723 982.658 146.346 983.883 146.238 984.182C146.214 984.248 146.109 984.241 144.601 984.224C143.324 984.206 143.037 984.21 142.96 984.041Z" fill="#A2C71E"/>
<path d="M166.451 977.668C166.815 977.19 167.529 976.986 167.711 977.172C168.032 977.499 166.916 979.261 166.476 979.145C166.206 979.078 166.007 978.252 166.451 977.668Z" fill="#063B01"/>
<path d="M173.752 977.337C173.741 977.077 173.199 976.806 172.72 976.817C171.52 976.841 170.642 978.625 170.876 978.846C170.928 978.896 171.019 978.843 172.363 978.192C173.5 977.64 173.759 977.52 173.752 977.337Z" fill="#A2C71E"/>
<path d="M153.326 993.503C153.63 993.961 155.323 993.876 156.079 992.934C156.796 992.037 156.506 990.573 155.998 990.419C155.704 990.327 155.344 990.686 154.791 991.231C154.225 991.794 153 993.011 153.326 993.503Z" fill="#A2C71E"/>
<path d="M142.189 990.908C142.15 991.186 142.455 991.446 142.672 991.559C143.833 992.153 146.097 990.352 145.908 989.933C145.705 989.473 142.308 990.042 142.189 990.908Z" fill="#A2C71E"/>
<path d="M163.222 978.012C163.072 977.804 162.533 977.702 162.19 977.808C161.333 978.075 161.666 979.683 161.96 979.809C162.026 979.837 162.061 979.778 162.684 978.979C163.205 978.304 163.327 978.156 163.222 978.012Z" fill="#A2C71E"/>
<path d="M169.746 990.614C169.707 991.046 168.591 991.539 167.72 991.243C166.65 990.877 166.234 989.411 166.576 989.108C166.779 988.929 167.262 989.14 168.084 989.502C169.001 989.9 169.777 990.241 169.746 990.614Z" fill="#A2C71E"/>
<path d="M152.911 979.599C152.607 979.578 152.1 979.652 152.019 979.891C151.872 980.331 153.177 981.326 153.653 981.077C153.922 980.936 153.989 980.369 153.733 979.997C153.482 979.641 153.03 979.606 152.911 979.599Z" fill="#A2C71E"/>
<path d="M178.384 981.821C178.587 982.025 178.499 982.405 178.391 982.616C177.817 983.742 174.868 983.535 174.763 983.088C174.644 982.606 177.754 981.185 178.384 981.821Z" fill="#A2C71E"/>
<path d="M161.662 941.905C131.761 936.818 106.657 937.839 105.593 944.177C105.551 944.42 105.552 944.67 105.583 944.923C105.674 947.653 105.765 950.386 105.856 953.116C105.971 956.605 107.965 959.757 111.065 961.333C122.148 966.961 137.981 973.377 157.803 976.627C176.705 979.726 193.084 978.938 205.244 977.296C209.68 976.698 213.088 973.039 213.416 968.551C213.56 966.606 213.703 964.664 213.843 962.719C213.854 962.676 213.864 962.634 213.871 962.592C214.935 956.25 191.562 946.988 161.662 941.905Z" fill="url(#paint3_linear_5199_12880)"/>
<path d="M192.737 966.925C208.273 966.925 212.873 964.219 213.143 962.619C213.423 960.948 209.991 957.511 199.391 953.332C189.532 949.445 176.127 945.949 161.636 943.483C149.259 941.38 137.012 940.219 127.146 940.219C111.61 940.219 107.01 942.924 106.74 944.524C106.46 946.195 109.892 949.632 120.492 953.811C130.351 957.698 143.756 961.194 158.247 963.66C170.624 965.764 182.872 966.925 192.737 966.925Z" fill="url(#paint4_radial_5199_12880)"/>
<path d="M168.792 951.444C169.548 951.954 172.874 954.195 172.43 955.732C171.475 959.039 153.738 956.759 148.169 952.7C147.529 952.232 145.846 951.008 146.13 949.998C146.343 949.235 147.588 948.922 148.501 948.732C154.543 947.487 160.735 948.788 162.995 949.312C166.417 950.107 167.693 950.705 168.792 951.444Z" fill="#FFE6CC"/>
<path d="M179.495 955.264C179.17 954.624 175.77 955.239 175.77 955.69C175.77 956.08 178.33 956.857 179.247 955.89C179.289 955.844 179.614 955.5 179.495 955.264Z" fill="#063B01"/>
<path d="M157.789 961.109C157.442 961.437 156.757 961.56 156.379 961.296C155.504 960.684 156.291 958.028 156.928 957.996C157.537 957.968 158.674 960.276 157.789 961.109Z" fill="#063B01"/>
<path d="M171.937 960.942C171.807 961.301 170.233 961.403 169.142 960.598C168.397 960.045 167.858 959.057 168.11 958.807C168.596 958.329 172.154 960.344 171.937 960.942Z" fill="#063B01"/>
<path d="M142.844 956.097C144.016 956.744 146.402 955.08 146.234 954.584C146.122 954.254 144.859 954.401 143.442 954.57C142.665 954.662 142.365 954.76 142.263 954.982C142.106 955.319 142.431 955.868 142.844 956.097Z" fill="#063B01"/>
<path d="M160.703 946.421C161.028 946.21 162.113 946.66 162.155 947.093C162.165 947.184 162.085 947.307 161.927 947.554C161.665 947.962 161.536 948.162 161.427 948.169C161.025 948.187 160.273 946.699 160.703 946.421Z" fill="#063B01"/>
<path d="M170.957 949.07C171.58 949.077 172.164 949.514 172.111 949.763C172.013 950.2 169.848 950.344 169.694 949.939C169.596 949.69 170.198 949.06 170.957 949.07Z" fill="#063B01"/>
<path d="M141.514 947.159C141.507 946.867 142.626 946.403 143.641 946.719C144.337 946.938 145.002 947.525 144.89 947.768C144.673 948.236 141.524 947.648 141.514 947.159Z" fill="#063B01"/>
<path d="M176.037 951.846C176.149 951.606 175.789 951.139 175.358 950.945C174.274 950.463 172.651 951.687 172.759 951.986C172.784 952.053 172.888 952.046 174.396 952.028C175.67 952.011 175.957 952.014 176.037 951.846Z" fill="#A2C71E"/>
<path d="M152.545 945.471C152.182 944.992 151.468 944.788 151.286 944.975C150.964 945.302 152.08 947.064 152.521 946.948C152.787 946.881 152.99 946.055 152.545 945.471Z" fill="#063B01"/>
<path d="M145.244 945.14C145.255 944.88 145.797 944.609 146.276 944.619C147.476 944.644 148.354 946.427 148.12 946.649C148.068 946.698 147.977 946.646 146.633 945.995C145.493 945.443 145.234 945.323 145.244 945.14Z" fill="#A2C71E"/>
<path d="M165.667 961.308C165.362 961.765 163.669 961.681 162.914 960.738C162.196 959.845 162.487 958.378 162.994 958.223C163.288 958.132 163.648 958.491 164.201 959.036C164.771 959.599 165.996 960.816 165.667 961.308Z" fill="#A2C71E"/>
<path d="M176.802 958.711C176.841 958.988 176.536 959.249 176.319 959.361C175.158 959.956 172.894 958.155 173.083 957.736C173.286 957.275 176.683 957.845 176.802 958.711Z" fill="#A2C71E"/>
<path d="M155.775 945.816C155.925 945.609 156.464 945.507 156.807 945.612C157.664 945.88 157.331 947.487 157.038 947.614C156.971 947.642 156.936 947.582 156.313 946.784C155.792 946.108 155.67 945.961 155.775 945.816Z" fill="#A2C71E"/>
<path d="M149.245 958.416C149.284 958.849 150.4 959.341 151.271 959.046C152.341 958.68 152.757 957.213 152.415 956.911C152.212 956.731 151.729 956.942 150.907 957.305C149.99 957.702 149.214 958.043 149.245 958.416Z" fill="#A2C71E"/>
<path d="M166.084 947.402C166.388 947.381 166.896 947.455 166.976 947.694C167.123 948.134 165.818 949.129 165.342 948.879C165.073 948.739 165.007 948.172 165.262 947.799C165.51 947.444 165.965 947.409 166.084 947.402Z" fill="#A2C71E"/>
<path d="M140.612 949.626C140.409 949.83 140.497 950.21 140.605 950.421C141.179 951.547 144.128 951.339 144.233 950.892C144.349 950.411 141.242 948.989 140.612 949.626Z" fill="#A2C71E"/>
<path d="M157.802 906.594C187.702 901.508 212.807 902.528 213.874 908.867C213.916 909.109 213.916 909.359 213.884 909.612C213.793 912.342 213.702 915.075 213.611 917.805C213.496 921.295 211.502 924.446 208.402 926.022C197.319 931.65 181.486 938.067 161.664 941.317C142.762 944.416 126.383 943.628 114.223 941.985C109.787 941.387 106.38 937.729 106.051 933.24C105.907 931.295 105.764 929.353 105.624 927.408C105.613 927.366 105.603 927.324 105.596 927.281C104.525 920.939 127.901 911.677 157.802 906.594Z" fill="url(#paint5_linear_5199_12880)"/>
<path d="M219.104 912.841L212.16 915.05C212.1 915.067 212.065 915.134 212.086 915.194C212.104 915.247 212.153 915.278 212.205 915.271L219.447 914.498C219.916 914.448 220.258 914.03 220.209 913.562C220.16 913.094 219.741 912.756 219.272 912.806C219.216 912.813 219.156 912.827 219.104 912.841Z" fill="#F3C344"/>
<path d="M218.093 922.24L211.719 918.8C211.59 918.729 211.429 918.779 211.359 918.905C211.296 919.021 211.327 919.162 211.429 919.239L217.159 923.658C217.53 923.943 218.068 923.876 218.355 923.503C218.646 923.134 218.579 922.599 218.208 922.314C218.173 922.286 218.131 922.261 218.093 922.24Z" fill="#F3C344"/>
<path d="M127.154 931.239C111.618 931.239 107.017 928.534 106.748 926.933C106.468 925.263 109.9 921.826 120.5 917.647C130.358 913.76 143.764 910.263 158.254 907.798C170.632 905.694 182.879 904.533 192.745 904.533C208.281 904.533 212.881 907.238 213.151 908.839C213.431 910.51 209.999 913.946 199.399 918.125C189.54 922.012 176.135 925.509 161.644 927.975C149.267 930.078 137.016 931.239 127.154 931.239Z" fill="url(#paint6_radial_5199_12880)"/>
<path d="M151.097 915.758C150.341 916.269 147.014 918.509 147.459 920.046C148.414 923.353 166.15 921.074 171.72 917.014C172.36 916.546 174.043 915.322 173.759 914.313C173.546 913.549 172.3 913.236 171.387 913.046C165.346 911.801 159.154 913.103 156.894 913.627C153.472 914.422 152.195 915.02 151.097 915.758Z" fill="#FFE6CC"/>
<path d="M140.395 919.58C140.72 918.94 144.121 919.556 144.121 920.006C144.121 920.396 141.56 921.174 140.644 920.207C140.602 920.157 140.276 919.813 140.395 919.58Z" fill="#063B01"/>
<path d="M162.098 925.424C162.444 925.751 163.127 925.874 163.508 925.61C164.382 924.998 163.595 922.342 162.959 922.311C162.353 922.283 161.213 924.59 162.098 925.424Z" fill="#063B01"/>
<path d="M147.955 925.259C148.084 925.618 149.659 925.72 150.75 924.914C151.495 924.362 152.034 923.373 151.782 923.124C151.296 922.645 147.738 924.661 147.955 925.259Z" fill="#063B01"/>
<path d="M177.045 920.411C175.873 921.059 173.487 919.395 173.655 918.899C173.767 918.568 175.03 918.716 176.447 918.885C177.223 918.976 177.524 919.075 177.626 919.296C177.786 919.634 177.458 920.186 177.045 920.411Z" fill="#063B01"/>
<path d="M159.185 910.737C158.86 910.526 157.775 910.976 157.733 911.409C157.723 911.501 157.803 911.624 157.961 911.87C158.223 912.278 158.353 912.479 158.461 912.486C158.867 912.503 159.615 911.012 159.185 910.737Z" fill="#063B01"/>
<path d="M148.935 913.383C148.312 913.39 147.728 913.826 147.781 914.076C147.879 914.512 150.044 914.656 150.198 914.252C150.292 914.002 149.694 913.372 148.935 913.383Z" fill="#063B01"/>
<path d="M178.373 911.474C178.38 911.182 177.26 910.717 176.246 911.034C175.55 911.252 174.885 911.839 174.997 912.082C175.217 912.55 178.366 911.963 178.373 911.474Z" fill="#063B01"/>
<path d="M143.855 916.158C143.743 915.919 144.103 915.451 144.533 915.258C145.618 914.776 147.241 916 147.133 916.299C147.108 916.366 147.003 916.359 145.495 916.341C144.218 916.323 143.932 916.327 143.855 916.158Z" fill="#A2C71E"/>
<path d="M167.343 909.789C167.707 909.311 168.421 909.107 168.603 909.293C168.924 909.62 167.808 911.383 167.368 911.266C167.102 911.196 166.902 910.369 167.343 909.789Z" fill="#063B01"/>
<path d="M174.648 909.455C174.638 909.194 174.095 908.923 173.616 908.934C172.416 908.959 171.538 910.742 171.772 910.964C171.825 911.013 171.916 910.96 173.259 910.309C174.396 909.757 174.655 909.637 174.648 909.455Z" fill="#A2C71E"/>
<path d="M154.22 925.621C154.524 926.078 156.218 925.994 156.973 925.051C157.691 924.154 157.4 922.69 156.893 922.536C156.599 922.444 156.239 922.803 155.686 923.348C155.119 923.915 153.895 925.128 154.22 925.621Z" fill="#A2C71E"/>
<path d="M143.085 923.025C143.047 923.302 143.351 923.563 143.568 923.675C144.73 924.27 146.993 922.469 146.804 922.05C146.601 921.589 143.204 922.163 143.085 923.025Z" fill="#A2C71E"/>
<path d="M164.117 910.129C163.967 909.921 163.428 909.819 163.085 909.925C162.228 910.192 162.56 911.8 162.854 911.926C162.921 911.955 162.956 911.895 163.578 911.096C164.1 910.424 164.222 910.273 164.117 910.129Z" fill="#A2C71E"/>
<path d="M170.642 922.729C170.604 923.161 169.488 923.654 168.617 923.358C167.546 922.993 167.13 921.526 167.473 921.223C167.676 921.044 168.159 921.255 168.981 921.617C169.897 922.015 170.674 922.356 170.642 922.729Z" fill="#A2C71E"/>
<path d="M153.808 911.716C153.503 911.695 152.996 911.769 152.916 912.008C152.769 912.448 154.074 913.443 154.549 913.194C154.819 913.053 154.885 912.487 154.63 912.114C154.378 911.759 153.927 911.727 153.808 911.716Z" fill="#A2C71E"/>
<path d="M179.278 913.939C179.481 914.143 179.394 914.523 179.285 914.734C178.712 915.86 175.763 915.652 175.658 915.206C175.539 914.724 178.649 913.306 179.278 913.939Z" fill="#A2C71E"/>
<path d="M213.496 907.031C213.325 902.226 213.15 897.417 212.979 892.612C212.132 864.327 191.005 835.415 161.203 835.644C159.737 835.644 159.006 835.644 157.54 835.644C129.088 835.426 108.542 861.769 106.006 888.771L106.065 888.781C106.062 888.799 106.058 888.816 106.055 888.834C105.754 890.593 109.228 894.146 119.999 898.36C129.914 902.24 143.396 905.722 157.967 908.167C170.334 910.242 182.592 911.385 192.482 911.385C206.99 911.385 212.758 909.06 213.36 907.006L213.496 907.031Z" fill="url(#paint7_linear_5199_12880)"/>
<path d="M101.185 885.763L108.399 886.79C108.462 886.801 108.504 886.857 108.497 886.921C108.49 886.977 108.445 887.015 108.392 887.019L101.122 887.476C100.65 887.504 100.244 887.146 100.216 886.671C100.188 886.196 100.545 885.788 101.017 885.76C101.07 885.753 101.129 885.756 101.185 885.763Z" fill="#F3C344"/>
<path d="M105.621 877.335L110.019 883.171C110.064 883.235 110.054 883.322 109.991 883.368C109.935 883.41 109.861 883.403 109.812 883.361L104.369 878.496C104.016 878.18 103.984 877.638 104.299 877.283C104.614 876.927 105.153 876.896 105.506 877.212C105.548 877.251 105.586 877.293 105.621 877.335Z" fill="#F3C344"/>
<path d="M173.886 830.227L171.703 837.216C171.685 837.276 171.619 837.311 171.559 837.29C171.507 837.272 171.475 837.223 171.479 837.17L172.217 829.882C172.266 829.41 172.686 829.066 173.155 829.111C173.623 829.161 173.966 829.583 173.921 830.054C173.917 830.114 173.903 830.174 173.886 830.227Z" fill="#F3C344"/>
<path d="M181.434 835.999L174.99 839.411C174.92 839.446 174.836 839.421 174.801 839.351C174.769 839.291 174.787 839.217 174.836 839.175L180.496 834.567C180.864 834.268 181.402 834.324 181.7 834.694C181.997 835.063 181.941 835.605 181.574 835.904C181.532 835.942 181.479 835.974 181.434 835.999Z" fill="#F3C344"/>
<path d="M164.439 831.25L167.937 837.66C168.007 837.79 167.962 837.951 167.833 838.022C167.717 838.085 167.574 838.054 167.493 837.951L163.019 832.193C162.728 831.82 162.795 831.279 163.166 830.987C163.537 830.695 164.075 830.761 164.366 831.134C164.39 831.17 164.418 831.212 164.439 831.25Z" fill="#F3C344"/>
<path d="M149.11 870.366C146.93 869.853 144.747 871.214 144.237 873.405C143.726 875.597 145.08 877.792 147.259 878.305C149.439 878.819 151.622 877.458 152.132 875.266C152.647 873.071 151.293 870.88 149.11 870.366ZM144.968 873.578C145.384 871.791 147.165 870.679 148.942 871.098C150.719 871.516 151.825 873.307 151.408 875.094L144.968 873.578Z" fill="#C4CF4D"/>
<path d="M172.209 875.802C170.03 875.288 167.847 876.649 167.336 878.841C166.826 881.032 168.179 883.227 170.359 883.741C172.538 884.255 174.721 882.893 175.232 880.702C175.743 878.507 174.389 876.315 172.209 875.802ZM168.064 879.013C168.48 877.226 170.261 876.115 172.038 876.533C173.815 876.952 174.921 878.742 174.504 880.529L168.064 879.013Z" fill="#C4CF4D"/>
<path d="M157.212 879.406C157.428 878.284 159.027 876.398 159.975 877.27C160.699 877.935 161.06 880.201 160.741 881.196C160.143 883.071 156.834 881.337 157.212 879.406Z" fill="#C4CF4D"/>
<path opacity="0.2" d="M172.303 508.04V521H149.633V508.04H136.215V485.37H149.633V473H172.303V485.37H184.215V508.04H172.303Z" fill="#3DCE94"/>
</g>
<defs>
<linearGradient id="paint0_linear_5199_12880" x1="159.34" y1="1025.55" x2="159.34" y2="915.412" gradientUnits="userSpaceOnUse">
<stop stop-color="#6A4727"/>
<stop offset="0.1931" stop-color="#734D2A"/>
<stop offset="0.5059" stop-color="#8B5E31"/>
<stop offset="0.8973" stop-color="#B27A3D"/>
<stop offset="1" stop-color="#BD8240"/>
</linearGradient>
<linearGradient id="paint1_linear_5199_12880" x1="104.431" y1="985.767" x2="213.67" y2="985.767" gradientUnits="userSpaceOnUse">
<stop stop-color="#6A4727"/>
<stop offset="0.1931" stop-color="#734D2A"/>
<stop offset="0.5059" stop-color="#8B5E31"/>
<stop offset="0.8973" stop-color="#B27A3D"/>
<stop offset="1" stop-color="#BD8240"/>
</linearGradient>
<radialGradient id="paint2_radial_5199_12880" cx="0" cy="0" r="1" gradientUnits="userSpaceOnUse" gradientTransform="translate(159.036 985.778) rotate(-9.74168) scale(53.4549 10.7006)">
<stop stop-color="#C4CF4D"/>
<stop offset="0.2634" stop-color="#C6D24D"/>
<stop offset="0.4274" stop-color="#CCDA4E"/>
<stop offset="0.5637" stop-color="#D5E950"/>
<stop offset="0.6193" stop-color="#DBF151"/>
<stop offset="1" stop-color="#C4CF4D"/>
</radialGradient>
<linearGradient id="paint3_linear_5199_12880" x1="105.559" y1="958.702" x2="213.904" y2="958.702" gradientUnits="userSpaceOnUse">
<stop stop-color="#6A4727"/>
<stop offset="0.1931" stop-color="#734D2A"/>
<stop offset="0.5059" stop-color="#8B5E31"/>
<stop offset="0.8973" stop-color="#B27A3D"/>
<stop offset="1" stop-color="#BD8240"/>
</linearGradient>
<radialGradient id="paint4_radial_5199_12880" cx="0" cy="0" r="1" gradientUnits="userSpaceOnUse" gradientTransform="translate(160.045 953.7) rotate(-170.258) scale(53.4549 10.7006)">
<stop stop-color="#C4CF4D"/>
<stop offset="0.2634" stop-color="#C6D24D"/>
<stop offset="0.4274" stop-color="#CCDA4E"/>
<stop offset="0.5637" stop-color="#D5E950"/>
<stop offset="0.6193" stop-color="#DBF151"/>
<stop offset="1" stop-color="#C4CF4D"/>
</radialGradient>
<linearGradient id="paint5_linear_5199_12880" x1="213.903" y1="923.392" x2="105.558" y2="923.392" gradientUnits="userSpaceOnUse">
<stop stop-color="#6A4727"/>
<stop offset="0.1931" stop-color="#734D2A"/>
<stop offset="0.5059" stop-color="#8B5E31"/>
<stop offset="0.8973" stop-color="#B27A3D"/>
<stop offset="1" stop-color="#BD8240"/>
</linearGradient>
<radialGradient id="paint6_radial_5199_12880" cx="0" cy="0" r="1" gradientUnits="userSpaceOnUse" gradientTransform="translate(159.935 917.896) rotate(-9.74168) scale(53.4549 10.7006)">
<stop stop-color="#C4CF4D"/>
<stop offset="0.2634" stop-color="#C6D24D"/>
<stop offset="0.4274" stop-color="#CCDA4E"/>
<stop offset="0.5637" stop-color="#D5E950"/>
<stop offset="0.6193" stop-color="#DBF151"/>
<stop offset="1" stop-color="#C4CF4D"/>
</radialGradient>
<linearGradient id="paint7_linear_5199_12880" x1="159.752" y1="973.494" x2="159.752" y2="856.638" gradientUnits="userSpaceOnUse">
<stop stop-color="#6A4727"/>
<stop offset="0.1931" stop-color="#734D2A"/>
<stop offset="0.5059" stop-color="#8B5E31"/>
<stop offset="0.8973" stop-color="#B27A3D"/>
<stop offset="1" stop-color="#BD8240"/>
</linearGradient>
<clipPath id="clip0_5199_12880">
<rect width="1342" height="1024" fill="white"/>
</clipPath>
</defs>
</svg>
