<svg width="1342" height="1024" viewBox="0 0 1342 1024" fill="none" xmlns="http://www.w3.org/2000/svg">
<path d="M972.922 399.431L169 867.129L388.777 996L1171.01 535.542C1176.79 511.216 1168.6 498.377 1163.78 494.998C1115.58 466.487 1015.72 407.457 1001.84 399.431C987.959 391.406 976.778 396.087 972.922 399.431Z" fill="#F4EFEF" stroke="black" stroke-linejoin="round"/>
<path d="M759 554C775.24 560.859 843.1 600.858 875 620" stroke="black"/>
<path d="M249 850.715C265.24 857.678 333.1 898.283 365 917.715" stroke="black"/>
<path d="M844 504C860.24 510.963 928.1 551.568 960 571" stroke="black"/>
<path d="M334 801.57C350.24 808.429 418.1 848.428 450 867.57" stroke="black"/>
<path d="M929 455C945.24 461.859 1013.1 501.858 1045 521" stroke="black"/>
<path d="M419 752.428C435.24 759.287 503.1 799.286 535 818.428" stroke="black"/>
<path d="M504 703.285C520.24 710.144 588.1 750.143 620 769.285" stroke="black"/>
<path d="M589 653.143C605.38 660.105 673.825 700.711 706 720.143" stroke="black"/>
<path d="M675 603C691.1 609.963 758.375 650.568 790 670" stroke="black"/>
<path d="M341.037 967.974L1163 497" stroke="black"/>
<ellipse cx="535.093" cy="883.231" rx="17.7269" ry="12.8657" transform="rotate(-54.8943 535.093 883.231)" fill="#8FE3C1"/>
<ellipse cx="826.042" cy="715.487" rx="17.7269" ry="12.8657" transform="rotate(-54.8943 826.042 715.487)" fill="#8FE3C1"/>
<ellipse cx="973.554" cy="631.608" rx="17.7269" ry="12.8657" transform="rotate(-54.8943 973.554 631.608)" fill="#8FE3C1"/>
<ellipse cx="1118.17" cy="547.729" rx="17.7269" ry="12.8657" transform="rotate(-54.8943 1118.17 547.729)" fill="#8FE3C1"/>
<ellipse cx="681.423" cy="799.365" rx="17.7269" ry="12.8657" transform="rotate(-54.8943 681.423 799.365)" fill="#8FE3C1"/>
<path d="M421.505 842.476C423.12 856.201 420.046 870.418 410.324 880.576C400.698 890.633 386.465 895.348 372.889 896.313C371.259 896.438 370.445 896.508 368.818 896.661C355.212 897.9 340.519 895.842 329.252 887.517C319.508 880.315 313.929 869.105 312.254 857.269L419.915 829.461C420.445 833.802 420.975 838.139 421.505 842.476Z" fill="url(#paint0_linear_5199_12204)"/>
<path d="M419.796 829.636C421.401 835.842 398.642 847.095 368.965 854.769C339.288 862.439 313.928 863.628 312.323 857.418C310.718 851.212 333.477 839.96 363.154 832.286C392.831 824.613 418.191 823.427 419.796 829.636Z" fill="url(#paint1_linear_5199_12204)"/>
<path d="M334.437 859.599C318.917 860.928 314.092 858.634 313.687 857.067C313.265 855.431 316.401 851.723 326.634 846.665C336.151 841.96 349.245 837.34 363.51 833.651C375.695 830.502 387.831 828.301 397.686 827.458C413.205 826.129 418.031 828.423 418.436 829.99C418.858 831.626 415.722 835.333 405.489 840.392C395.971 845.096 382.878 849.717 368.613 853.406C356.428 856.554 344.288 858.755 334.437 859.599Z" fill="url(#paint2_radial_5199_12204)"/>
<path d="M357.036 842.171C356.325 842.742 353.192 845.253 353.766 846.742C355.002 849.945 372.526 846.164 377.744 841.654C378.343 841.135 379.92 839.775 379.551 838.796C379.273 838.056 378.002 837.851 377.074 837.741C370.933 837.021 364.858 838.843 362.645 839.557C359.295 840.64 358.071 841.343 357.036 842.171Z" fill="#FFE6CC"/>
<path d="M346.672 846.881C346.943 846.217 350.392 846.538 350.43 846.985C350.464 847.373 347.972 848.364 346.974 847.482C346.928 847.44 346.574 847.125 346.672 846.881Z" fill="#063B01"/>
<path d="M368.849 850.833C369.223 851.128 369.915 851.192 370.273 850.897C371.095 850.215 370.082 847.643 369.444 847.666C368.837 847.69 367.894 850.08 368.849 850.833Z" fill="#063B01"/>
<path d="M354.707 851.874C354.867 852.22 356.448 852.186 357.47 851.293C358.167 850.68 358.621 849.652 358.349 849.426C357.822 848.992 354.44 851.299 354.707 851.874Z" fill="#063B01"/>
<path d="M383.353 844.574C382.237 845.318 379.712 843.869 379.838 843.362C379.921 843.024 381.196 843.062 382.625 843.109C383.409 843.133 383.718 843.205 383.838 843.417C384.027 843.739 383.746 844.312 383.353 844.574Z" fill="#063B01"/>
<path d="M364.688 836.488C364.345 836.306 363.3 836.846 363.295 837.279C363.292 837.371 363.383 837.487 363.561 837.718C363.858 838.101 364.005 838.289 364.113 838.286C364.52 838.269 365.142 836.727 364.688 836.488Z" fill="#063B01"/>
<path d="M354.674 839.997C354.053 840.057 353.506 840.54 353.58 840.784C353.715 841.209 355.89 841.167 356.01 840.752C356.083 840.496 355.432 839.921 354.674 839.997Z" fill="#063B01"/>
<path d="M383.919 835.581C383.902 835.29 382.744 834.924 381.757 835.326C381.08 835.602 380.466 836.242 380.599 836.474C380.859 836.92 383.954 836.067 383.919 835.581Z" fill="#063B01"/>
<path d="M349.837 843.189C349.705 842.961 350.025 842.465 350.438 842.236C351.481 841.665 353.206 842.742 353.124 843.048C353.105 843.117 352.999 843.119 351.492 843.23C350.215 843.322 349.928 843.35 349.837 843.189Z" fill="#A2C71E"/>
<path d="M372.761 834.847C373.083 834.341 373.779 834.077 373.976 834.246C374.326 834.544 373.361 836.39 372.911 836.313C372.636 836.269 372.366 835.465 372.761 834.847Z" fill="#063B01"/>
<path d="M380.027 833.893C379.995 833.636 379.43 833.413 378.952 833.464C377.755 833.591 377.03 835.438 377.283 835.638C377.34 835.683 377.426 835.623 378.712 834.861C379.801 834.215 380.05 834.074 380.027 833.893Z" fill="#A2C71E"/>
<path d="M360.997 851.703C361.34 852.131 363.025 851.903 363.699 850.902C364.339 849.949 363.925 848.52 363.405 848.41C363.104 848.344 362.774 848.731 362.268 849.32C361.75 849.928 360.63 851.242 360.997 851.703Z" fill="#A2C71E"/>
<path d="M349.653 850.076C349.638 850.355 349.964 850.588 350.19 850.681C351.401 851.172 353.509 849.189 353.285 848.79C353.043 848.349 349.698 849.206 349.653 850.076Z" fill="#A2C71E"/>
<path d="M369.564 835.465C369.396 835.272 368.849 835.216 368.516 835.35C367.682 835.689 368.151 837.258 368.455 837.359C368.524 837.381 368.554 837.318 369.108 836.472C369.571 835.756 369.681 835.599 369.564 835.465Z" fill="#A2C71E"/>
<path d="M377.155 847.426C377.154 847.859 376.081 848.444 375.185 848.224C374.085 847.953 373.544 846.531 373.861 846.201C374.048 846.006 374.549 846.174 375.401 846.464C376.35 846.78 377.155 847.053 377.155 847.426Z" fill="#A2C71E"/>
<path d="M359.401 837.924C359.095 837.929 358.595 838.046 358.535 838.291C358.425 838.74 359.813 839.617 360.267 839.328C360.525 839.166 360.543 838.597 360.256 838.249C359.974 837.917 359.52 837.921 359.401 837.924Z" fill="#A2C71E"/>
<path d="M385.034 837.954C385.254 838.139 385.199 838.524 385.109 838.743C384.632 839.91 381.668 839.956 381.525 839.522C381.365 839.053 384.351 837.375 385.034 837.954Z" fill="#A2C71E"/>
<path d="M358.743 819.896C329.204 827.094 306.489 837.983 308.01 844.21C308.067 844.449 308.165 844.678 308.294 844.897C309.454 847.361 310.616 849.828 311.776 852.292C313.259 855.441 316.338 857.537 319.813 857.751C332.238 858.511 349.349 858.108 368.883 853.224C387.51 848.567 402.282 841.351 412.832 835.024C416.681 832.718 418.376 828.016 416.909 823.775C416.273 821.937 415.64 820.102 415.001 818.265C414.994 818.222 414.988 818.179 414.977 818.138C413.455 811.908 388.281 812.694 358.743 819.896Z" fill="url(#paint3_linear_5199_12204)"/>
<path d="M397.225 830.487C411.531 824.326 414.7 820.024 414.317 818.452C413.916 816.811 409.401 815.024 397.992 815.401C387.381 815.75 373.658 817.864 359.342 821.352C347.115 824.333 335.379 828.127 326.295 832.039C311.989 838.2 308.819 842.501 309.203 844.074C309.604 845.715 314.119 847.501 325.528 847.125C336.139 846.775 349.862 844.661 364.178 841.174C376.405 838.192 388.141 834.399 397.225 830.487Z" fill="url(#paint4_radial_5199_12204)"/>
<path d="M369.07 825.805C369.967 825.973 373.914 826.706 374.111 828.29C374.536 831.696 357.304 836.642 350.575 835.133C349.801 834.958 347.769 834.505 347.631 833.468C347.527 832.684 348.55 831.904 349.316 831.368C354.388 827.831 360.604 826.568 362.891 826.152C366.355 825.523 367.767 825.564 369.07 825.805Z" fill="#FFE6CC"/>
<path d="M380.434 825.058C379.882 824.601 376.994 826.513 377.171 826.925C377.325 827.283 379.99 826.98 380.452 825.73C380.473 825.672 380.637 825.227 380.434 825.058Z" fill="#063B01"/>
<path d="M362.751 839.021C362.561 839.458 361.978 839.842 361.526 839.751C360.48 839.537 360.157 836.793 360.731 836.511C361.28 836.244 363.237 837.906 362.751 839.021Z" fill="#063B01"/>
<path d="M375.711 833.255C375.733 833.635 374.323 834.352 373.001 834.048C372.097 833.837 371.211 833.146 371.344 832.817C371.603 832.186 375.674 832.621 375.711 833.255Z" fill="#063B01"/>
<path d="M347.012 840.355C348.346 840.483 349.887 838.013 349.537 837.626C349.304 837.367 348.199 838.003 346.961 838.72C346.282 839.111 346.044 839.321 346.038 839.564C346.026 839.936 346.542 840.309 347.012 840.355Z" fill="#063B01"/>
<path d="M359.64 824.412C359.856 824.09 361.032 824.072 361.242 824.452C361.287 824.531 361.262 824.676 361.214 824.964C361.133 825.442 361.093 825.677 360.996 825.726C360.633 825.902 359.353 824.837 359.64 824.412Z" fill="#063B01"/>
<path d="M370.128 822.773C370.704 822.532 371.414 822.7 371.464 822.949C371.546 823.388 369.609 824.378 369.307 824.069C369.119 823.879 369.424 823.064 370.128 822.773Z" fill="#063B01"/>
<path d="M342.262 832.697C342.141 832.433 342.988 831.563 344.047 831.451C344.774 831.375 345.618 831.649 345.611 831.916C345.596 832.43 342.465 833.141 342.262 832.697Z" fill="#063B01"/>
<path d="M375.899 823.298C375.907 823.035 375.391 822.749 374.919 822.743C373.73 822.732 372.718 824.496 372.936 824.727C372.985 824.779 373.078 824.73 374.46 824.116C375.626 823.595 375.891 823.485 375.899 823.298Z" fill="#A2C71E"/>
<path d="M351.754 826.778C351.23 826.484 350.492 826.58 350.398 826.823C350.231 827.25 351.954 828.422 352.314 828.141C352.532 827.974 352.393 827.136 351.754 826.778Z" fill="#063B01"/>
<path d="M344.901 829.369C344.808 829.127 345.201 828.664 345.646 828.483C346.761 828.03 348.273 829.315 348.144 829.611C348.115 829.677 348.011 829.665 346.517 829.602C345.249 829.548 344.963 829.541 344.901 829.369Z" fill="#A2C71E"/>
<path d="M370.082 836.076C369.982 836.616 368.39 837.21 367.322 836.646C366.31 836.112 365.998 834.654 366.405 834.311C366.639 834.111 367.112 834.296 367.836 834.576C368.583 834.866 370.191 835.495 370.082 836.076Z" fill="#A2C71E"/>
<path d="M379.313 829.284C379.458 829.523 379.281 829.882 379.125 830.071C378.29 831.076 375.496 830.325 375.505 829.866C375.51 829.364 378.862 828.539 379.313 829.284Z" fill="#A2C71E"/>
<path d="M354.863 825.813C354.92 825.564 355.376 825.257 355.733 825.217C356.628 825.122 356.956 826.726 356.735 826.959C356.685 827.011 356.629 826.97 355.741 826.486C354.994 826.074 354.823 825.987 354.863 825.813Z" fill="#A2C71E"/>
<path d="M353.821 839.94C354.027 840.321 355.249 840.329 355.935 839.713C356.776 838.954 356.581 837.445 356.146 837.304C355.889 837.221 355.527 837.605 354.913 838.263C354.226 838.991 353.645 839.611 353.821 839.94Z" fill="#A2C71E"/>
<path d="M364.982 823.176C365.254 823.036 365.75 822.903 365.919 823.09C366.228 823.434 365.419 824.863 364.882 824.823C364.578 824.801 364.294 824.309 364.382 823.866C364.471 823.442 364.875 823.23 364.982 823.176Z" fill="#A2C71E"/>
<path d="M342.405 835.314C342.298 835.581 342.529 835.895 342.712 836.045C343.684 836.848 346.318 835.489 346.238 835.038C346.154 834.551 342.733 834.481 342.405 835.314Z" fill="#A2C71E"/>
<path d="M357.722 807.224C387.158 799.613 412.322 798.48 413.927 804.686C413.99 804.923 414.011 805.171 414.001 805.426C414.143 808.145 414.284 810.868 414.425 813.588C414.607 817.064 412.883 820.366 409.921 822.197C399.329 828.736 384.058 836.465 364.534 841.389C345.916 846.084 329.488 846.703 317.201 846.111C312.719 845.896 309.004 842.553 308.293 838.122C307.985 836.202 307.676 834.285 307.371 832.364C307.357 832.323 307.343 832.282 307.332 832.241C305.723 826.032 328.286 814.831 357.722 807.224Z" fill="url(#paint5_linear_5199_12204)"/>
<path d="M419.49 808.187L412.742 810.976C412.684 810.998 412.654 811.067 412.68 811.125C412.702 811.176 412.754 811.203 412.806 811.192L419.974 809.804C420.438 809.715 420.745 809.269 420.656 808.809C420.567 808.348 420.119 808.049 419.655 808.138C419.6 808.149 419.542 808.168 419.49 808.187Z" fill="#F3C344"/>
<path d="M419.28 817.611L412.62 814.739C412.484 814.68 412.328 814.743 412.269 814.874C412.216 814.995 412.259 815.132 412.367 815.2L418.467 819.099C418.862 819.351 419.394 819.238 419.649 818.843C419.908 818.452 419.796 817.926 419.401 817.675C419.364 817.65 419.32 817.629 419.28 817.611Z" fill="#F3C344"/>
<path d="M329.203 834.329C313.683 835.658 308.858 833.364 308.452 831.797C308.031 830.161 311.166 826.453 321.4 821.395C330.917 816.69 344.011 812.07 358.276 808.381C370.461 805.233 382.597 803.032 392.451 802.188C407.971 800.859 412.796 803.153 413.202 804.72C413.623 806.356 410.487 810.064 400.254 815.122C390.737 819.827 377.643 824.447 363.378 828.136C351.193 831.285 339.054 833.486 329.203 834.329Z" fill="url(#paint6_radial_5199_12204)"/>
<path d="M351.802 816.901C351.09 817.473 347.958 819.983 348.532 821.472C349.767 824.676 367.291 820.894 372.509 816.385C373.109 815.865 374.686 814.505 374.317 813.527C374.039 812.786 372.768 812.582 371.84 812.471C365.699 811.751 359.624 813.574 357.411 814.288C354.061 815.37 352.836 816.073 351.802 816.901Z" fill="#FFE6CC"/>
<path d="M341.438 821.615C341.709 820.952 345.158 821.272 345.196 821.72C345.229 822.107 342.737 823.099 341.739 822.216C341.693 822.171 341.339 821.856 341.438 821.615Z" fill="#063B01"/>
<path d="M363.614 825.563C363.988 825.859 364.68 825.923 365.039 825.628C365.86 824.945 364.848 822.374 364.209 822.397C363.602 822.421 362.659 824.811 363.614 825.563Z" fill="#063B01"/>
<path d="M349.473 826.609C349.633 826.954 351.214 826.921 352.236 826.027C352.933 825.415 353.387 824.387 353.114 824.16C352.588 823.726 349.205 826.033 349.473 826.609Z" fill="#063B01"/>
<path d="M378.118 819.305C377.003 820.048 374.478 818.599 374.603 818.092C374.687 817.754 375.961 817.793 377.391 817.839C378.174 817.864 378.483 817.936 378.604 818.147C378.793 818.469 378.512 819.046 378.118 819.305Z" fill="#063B01"/>
<path d="M359.456 811.222C359.113 811.04 358.068 811.58 358.063 812.014C358.06 812.105 358.151 812.221 358.329 812.452C358.626 812.835 358.772 813.023 358.881 813.021C359.288 813.004 359.909 811.458 359.456 811.222Z" fill="#063B01"/>
<path d="M349.44 814.727C348.818 814.788 348.272 815.271 348.345 815.514C348.48 815.939 350.656 815.897 350.775 815.482C350.848 815.226 350.197 814.652 349.44 814.727Z" fill="#063B01"/>
<path d="M378.685 810.311C378.667 810.02 377.509 809.655 376.523 810.056C375.846 810.332 375.232 810.973 375.364 811.204C375.624 811.65 378.72 810.797 378.685 810.311Z" fill="#063B01"/>
<path d="M344.603 817.919C344.471 817.691 344.791 817.196 345.204 816.967C346.246 816.395 347.972 817.472 347.889 817.779C347.87 817.847 347.765 817.849 346.257 817.961C344.98 818.052 344.694 818.08 344.603 817.919Z" fill="#A2C71E"/>
<path d="M367.524 809.582C367.846 809.075 368.542 808.811 368.74 808.981C369.089 809.279 368.124 811.125 367.674 811.047C367.402 811 367.133 810.196 367.524 809.582Z" fill="#063B01"/>
<path d="M374.791 808.624C374.758 808.366 374.193 808.143 373.716 808.195C372.519 808.322 371.794 810.169 372.047 810.369C372.103 810.413 372.19 810.353 373.476 809.592C374.565 808.946 374.813 808.805 374.791 808.624Z" fill="#A2C71E"/>
<path d="M355.761 826.432C356.104 826.86 357.788 826.631 358.463 825.63C359.103 824.678 358.688 823.249 358.169 823.138C357.867 823.073 357.538 823.46 357.032 824.049C356.514 824.66 355.394 825.97 355.761 826.432Z" fill="#A2C71E"/>
<path d="M344.418 824.806C344.404 825.085 344.73 825.318 344.956 825.411C346.167 825.902 348.275 823.919 348.05 823.52C347.808 823.079 344.464 823.94 344.418 824.806Z" fill="#A2C71E"/>
<path d="M364.33 810.195C364.162 810.002 363.615 809.947 363.281 810.081C362.448 810.42 362.917 811.988 363.221 812.089C363.29 812.111 363.32 812.049 363.874 811.202C364.337 810.49 364.447 810.33 364.33 810.195Z" fill="#A2C71E"/>
<path d="M371.919 822.156C371.917 822.589 370.844 823.174 369.949 822.955C368.849 822.683 368.308 821.261 368.625 820.932C368.812 820.736 369.312 820.904 370.164 821.194C371.114 821.51 371.919 821.783 371.919 822.156Z" fill="#A2C71E"/>
<path d="M354.167 812.653C353.861 812.658 353.36 812.775 353.3 813.019C353.191 813.468 354.579 814.346 355.033 814.057C355.29 813.894 355.308 813.326 355.022 812.977C354.74 812.646 354.286 812.653 354.167 812.653Z" fill="#A2C71E"/>
<path d="M379.8 812.683C380.02 812.868 379.965 813.253 379.874 813.472C379.397 814.64 376.434 814.686 376.291 814.251C376.131 813.782 379.117 812.108 379.8 812.683Z" fill="#A2C71E"/>
<path d="M413.145 802.91C411.083 798.582 409.016 794.252 406.954 789.924C394.965 764.382 364.071 746.348 336.744 758.433C335.396 759.018 334.723 759.309 333.374 759.893C307.112 771.031 298.651 803.322 307.018 829.037L307.077 829.023C307.081 829.041 307.084 829.058 307.088 829.076C307.508 830.805 312.112 832.671 323.692 832.234C334.351 831.834 348.135 829.647 362.508 826.078C374.708 823.048 386.439 819.21 395.537 815.269C408.884 809.487 413.27 805.061 413.009 802.942L413.145 802.91Z" fill="url(#paint7_linear_5199_12204)"/>
<path d="M301.39 828.206L308.433 826.271C308.496 826.256 308.557 826.29 308.575 826.351C308.591 826.405 308.565 826.459 308.518 826.483L302.011 829.798C301.588 830.012 301.072 829.846 300.858 829.422C300.644 828.999 300.811 828.484 301.234 828.27C301.28 828.242 301.336 828.222 301.39 828.206Z" fill="#F3C344"/>
<path d="M302.132 818.726L308.49 822.313C308.557 822.353 308.582 822.438 308.542 822.505C308.507 822.566 308.437 822.588 308.375 822.569L301.439 820.287C300.989 820.139 300.745 819.655 300.894 819.205C301.043 818.754 301.526 818.511 301.977 818.66C302.031 818.678 302.083 818.702 302.132 818.726Z" fill="#F3C344"/>
<path d="M346.264 748.422L347.025 755.687C347.033 755.749 346.986 755.807 346.923 755.812C346.867 755.817 346.819 755.784 346.801 755.735L344.592 748.772C344.45 748.321 344.7 747.838 345.149 747.693C345.6 747.552 346.082 747.801 346.227 748.251C346.248 748.307 346.259 748.367 346.264 748.422Z" fill="#F3C344"/>
<path d="M355.497 750.696L350.92 756.385C350.87 756.445 350.783 756.456 350.723 756.406C350.67 756.364 350.657 756.289 350.685 756.231L354.067 749.759C354.286 749.339 354.804 749.176 355.224 749.396C355.644 749.615 355.807 750.133 355.588 750.553C355.564 750.605 355.529 750.655 355.497 750.696Z" fill="#F3C344"/>
<path d="M337.98 753.123L343.738 757.593C343.854 757.684 343.877 757.851 343.785 757.967C343.704 758.07 343.56 758.099 343.445 758.037L337.047 754.552C336.632 754.326 336.478 753.804 336.704 753.389C336.929 752.974 337.451 752.821 337.866 753.046C337.903 753.069 337.945 753.096 337.98 753.123Z" fill="#F3C344"/>
<path d="M348.405 814.091C346.196 814.489 344.727 816.605 345.126 818.814C345.524 821.022 347.64 822.491 349.849 822.092C352.057 821.694 353.526 819.578 353.127 817.37C352.731 815.156 350.617 813.691 348.405 814.091ZM345.867 818.68C345.542 816.879 346.739 815.152 348.54 814.827C350.341 814.502 352.068 815.7 352.393 817.501L345.867 818.68Z" fill="#C4CF4D"/>
<path d="M371.809 809.858C369.6 810.257 368.132 812.372 368.53 814.581C368.929 816.79 371.044 818.259 373.253 817.86C375.461 817.461 376.93 815.346 376.532 813.137C376.132 810.925 374.018 809.46 371.809 809.858ZM369.268 814.449C368.943 812.648 370.14 810.921 371.941 810.596C373.742 810.271 375.469 811.469 375.794 813.269L369.268 814.449Z" fill="#C4CF4D"/>
<path d="M359.443 819.134C359.198 818.021 359.921 815.659 361.139 816.08C362.069 816.399 363.298 818.328 363.4 819.366C363.593 821.32 359.861 821.052 359.443 819.134Z" fill="#C4CF4D"/>
<path d="M172.303 711.865V724.824H149.633V711.865H136.215V689.194H149.633V676.824H172.303V689.194H184.215V711.865H172.303Z" fill="#3DCE94"/>
<defs>
<linearGradient id="paint0_linear_5199_12204" x1="369.732" y1="883.023" x2="360.363" y2="773.606" gradientUnits="userSpaceOnUse">
<stop stop-color="#6A4727"/>
<stop offset="0.1931" stop-color="#734D2A"/>
<stop offset="0.5059" stop-color="#8B5E31"/>
<stop offset="0.8973" stop-color="#B27A3D"/>
<stop offset="1" stop-color="#BD8240"/>
</linearGradient>
<linearGradient id="paint1_linear_5199_12204" x1="311.498" y1="848.198" x2="420.619" y2="838.854" gradientUnits="userSpaceOnUse">
<stop stop-color="#6A4727"/>
<stop offset="0.1931" stop-color="#734D2A"/>
<stop offset="0.5059" stop-color="#8B5E31"/>
<stop offset="0.8973" stop-color="#B27A3D"/>
<stop offset="1" stop-color="#BD8240"/>
</linearGradient>
<radialGradient id="paint2_radial_5199_12204" cx="0" cy="0" r="1" gradientUnits="userSpaceOnUse" gradientTransform="translate(366.045 843.538) rotate(-14.5833) scale(53.5846 10.6711)">
<stop stop-color="#C4CF4D"/>
<stop offset="0.2634" stop-color="#C6D24D"/>
<stop offset="0.4274" stop-color="#CCDA4E"/>
<stop offset="0.5637" stop-color="#D5E950"/>
<stop offset="0.6193" stop-color="#DBF151"/>
<stop offset="1" stop-color="#C4CF4D"/>
</radialGradient>
<linearGradient id="paint3_linear_5199_12204" x1="313.706" y1="857.525" x2="413.474" y2="814.562" gradientUnits="userSpaceOnUse">
<stop stop-color="#6A4727"/>
<stop offset="0.1931" stop-color="#734D2A"/>
<stop offset="0.5059" stop-color="#8B5E31"/>
<stop offset="0.8973" stop-color="#B27A3D"/>
<stop offset="1" stop-color="#BD8240"/>
</linearGradient>
<radialGradient id="paint4_radial_5199_12204" cx="0" cy="0" r="1" gradientUnits="userSpaceOnUse" gradientTransform="translate(361.906 831.34) rotate(166.391) scale(53.5846 10.6711)">
<stop stop-color="#C4CF4D"/>
<stop offset="0.2634" stop-color="#C6D24D"/>
<stop offset="0.4274" stop-color="#CCDA4E"/>
<stop offset="0.5637" stop-color="#D5E950"/>
<stop offset="0.6193" stop-color="#DBF151"/>
<stop offset="1" stop-color="#C4CF4D"/>
</radialGradient>
<linearGradient id="paint5_linear_5199_12204" x1="415.193" y1="819.113" x2="306.964" y2="828.38" gradientUnits="userSpaceOnUse">
<stop stop-color="#6A4727"/>
<stop offset="0.1931" stop-color="#734D2A"/>
<stop offset="0.5059" stop-color="#8B5E31"/>
<stop offset="0.8973" stop-color="#B27A3D"/>
<stop offset="1" stop-color="#BD8240"/>
</linearGradient>
<radialGradient id="paint6_radial_5199_12204" cx="0" cy="0" r="1" gradientUnits="userSpaceOnUse" gradientTransform="translate(360.814 818.269) rotate(-14.5833) scale(53.5846 10.6711)">
<stop stop-color="#C4CF4D"/>
<stop offset="0.2634" stop-color="#C6D24D"/>
<stop offset="0.4274" stop-color="#CCDA4E"/>
<stop offset="0.5637" stop-color="#D5E950"/>
<stop offset="0.6193" stop-color="#DBF151"/>
<stop offset="1" stop-color="#C4CF4D"/>
</radialGradient>
<linearGradient id="paint7_linear_5199_12204" x1="390.04" y1="885.138" x2="343.729" y2="778.22" gradientUnits="userSpaceOnUse">
<stop stop-color="#6A4727"/>
<stop offset="0.1931" stop-color="#734D2A"/>
<stop offset="0.5059" stop-color="#8B5E31"/>
<stop offset="0.8973" stop-color="#B27A3D"/>
<stop offset="1" stop-color="#BD8240"/>
</linearGradient>
</defs>
</svg>
