<svg width="1342" height="1024" viewBox="0 0 1342 1024" fill="none" xmlns="http://www.w3.org/2000/svg">
<path d="M972.922 399.431L169 867.129L388.777 996L1171.01 535.542C1176.79 511.216 1168.6 498.377 1163.78 494.998C1115.58 466.487 1015.72 407.457 1001.84 399.431C987.959 391.406 976.778 396.087 972.922 399.431Z" fill="#F4EFEF" stroke="black" stroke-linejoin="round"/>
<path d="M759 554C775.24 560.859 843.1 600.858 875 620" stroke="black"/>
<path d="M249 850.715C265.24 857.678 333.1 898.283 365 917.715" stroke="black"/>
<path d="M844 504C860.24 510.963 928.1 551.568 960 571" stroke="black"/>
<path d="M334 801.57C350.24 808.429 418.1 848.428 450 867.57" stroke="black"/>
<path d="M929 455C945.24 461.859 1013.1 501.858 1045 521" stroke="black"/>
<path d="M419 752.428C435.24 759.287 503.1 799.286 535 818.428" stroke="black"/>
<path d="M504 703.285C520.24 710.144 588.1 750.143 620 769.285" stroke="black"/>
<path d="M589 653.143C605.38 660.105 673.825 700.711 706 720.143" stroke="black"/>
<path d="M675 603C691.1 609.963 758.375 650.568 790 670" stroke="black"/>
<path d="M341.037 967.974L1163 497" stroke="black"/>
<ellipse cx="535.093" cy="883.231" rx="17.7269" ry="12.8657" transform="rotate(-54.8943 535.093 883.231)" fill="#8FE3C1"/>
<ellipse cx="826.042" cy="715.487" rx="17.7269" ry="12.8657" transform="rotate(-54.8943 826.042 715.487)" fill="#8FE3C1"/>
<ellipse cx="973.554" cy="631.608" rx="17.7269" ry="12.8657" transform="rotate(-54.8943 973.554 631.608)" fill="#8FE3C1"/>
<ellipse cx="1118.17" cy="547.729" rx="17.7269" ry="12.8657" transform="rotate(-54.8943 1118.17 547.729)" fill="#8FE3C1"/>
<ellipse cx="681.423" cy="799.365" rx="17.7269" ry="12.8657" transform="rotate(-54.8943 681.423 799.365)" fill="#8FE3C1"/>
<path d="M458.852 781.331C460.986 776.002 461.613 771.206 461.775 767.846C462.924 766.02 465.095 762.027 465.399 756.51C465.748 750.174 463.436 745.488 462.387 743.623C463.517 733.811 461.122 728.352 458.751 725.187C457.468 723.476 453.548 717.106 446.881 715.461C434.466 712.398 426.977 728.874 413.665 729.143C406.883 729.279 397.675 725.225 386.517 707.676C378.937 701.429 369.222 700.369 362.626 704.681C358.138 707.617 356.352 712.221 355.689 714.347C353.091 716.475 349.618 719.839 346.611 724.728C342.047 732.152 340.904 739.284 340.573 743.22C333.292 754.963 332.921 764.124 333.238 768.834C333.983 779.898 337.447 788.066 337.447 788.066C337.682 790.652 337.861 794.652 337.26 799.481C336.576 804.987 335.519 806.422 335.6 809.532C335.773 816.24 341.003 821.184 344.032 824.048C353.14 832.656 359.856 830.165 364.559 837.822C367.736 842.996 365.569 845.593 368.819 848.367C375.78 854.31 390.758 846.68 392.274 845.889C398.179 842.803 402.076 838.772 404.298 836.089C411.087 833.269 421.374 828 431.418 818.35C439.339 810.741 444.433 802.976 447.6 797.197C450.571 794.59 455.613 789.423 458.852 781.331Z" fill="url(#paint0_radial_5199_9727)"/>
<path d="M355.421 797.518C360.127 794.765 365.485 791.048 370.863 786.04C373.199 783.864 375.273 781.694 377.1 779.599C376.468 779.569 375.836 779.538 375.203 779.511C374.605 780.159 373.916 780.849 373.134 781.551C372.335 782.267 371.457 782.985 370.489 783.674C365.178 787.448 359.602 788.73 355.609 789.177C355.544 791.958 355.483 794.736 355.421 797.518Z" fill="url(#paint1_radial_5199_9727)"/>
<path d="M350.159 796.536C347.252 792.108 343.153 784.403 342.33 774.195C342.063 770.881 342.185 767.862 342.49 765.23C342.958 765.656 343.426 766.082 343.892 766.512C343.905 769.902 344.33 774.907 346.362 780.526C347.835 784.595 349.718 787.794 351.335 790.11C350.944 792.25 350.551 794.393 350.159 796.536Z" fill="url(#paint2_radial_5199_9727)"/>
<path d="M355.721 768.773C354.412 762.086 353.418 753.539 353.913 743.662C354.209 737.737 354.987 732.414 355.941 727.811C356.409 728.237 356.877 728.662 357.343 729.092C356.81 733.418 356.513 738.944 357.113 745.295C357.697 751.452 358.964 756.67 360.252 760.731C358.744 763.41 357.231 766.091 355.721 768.773Z" fill="url(#paint3_radial_5199_9727)"/>
<path d="M401.699 816.135C399.88 810.494 398.233 803.295 397.904 794.864C397.779 791.663 397.856 788.663 398.064 785.9C398.532 786.326 399 786.752 399.466 787.182C399.428 788.062 399.427 789.038 399.481 790.087C399.481 790.087 399.568 791.711 399.845 793.459C400.203 795.693 402.241 802.094 405.886 810.355C404.494 812.284 403.096 814.208 401.699 816.135Z" fill="url(#paint4_radial_5199_9727)"/>
<path d="M432.136 760.807C436.863 757.086 442.309 751.943 447.285 744.998C449.008 742.59 450.488 740.234 451.759 737.981C451.129 737.818 450.501 737.66 449.872 737.497C449.128 739.107 448.166 740.85 446.907 742.63C442.725 748.544 437.431 751.779 433.993 753.459C433.375 755.908 432.755 758.355 432.136 760.807Z" fill="url(#paint5_radial_5199_9727)"/>
<path d="M423.047 791.317C426.944 789.566 432.828 786.345 438.535 780.607C445.317 773.789 448.679 766.602 450.299 762.337C449.756 762.21 449.209 762.085 448.666 761.958C447.009 765.248 443.897 770.392 438.415 775.143C433.948 779.018 429.524 781.23 426.411 782.491C425.291 785.433 424.167 788.375 423.047 791.317Z" fill="url(#paint6_radial_5199_9727)"/>
<path d="M405.771 817.827C410.061 816.964 418.177 814.704 425.907 808.142C430.484 804.257 433.455 800.115 435.307 797.009C434.606 797.018 433.908 797.028 433.207 797.037C431.587 799.24 429.009 802.197 425.192 804.836C419.427 808.825 413.768 810.061 410.601 810.506C408.991 812.949 407.383 815.388 405.771 817.827Z" fill="url(#paint7_radial_5199_9727)"/>
<path d="M418.341 787.557C421.987 779.684 423.884 773.808 426.419 765.951C431.64 749.766 434.486 735.914 436.116 726.071C436.775 725.444 437.433 724.813 438.093 724.187C436.555 748.224 429.371 804.223 386.38 842.256C380.07 847.838 373.556 852.53 367.045 856.482C366.981 851.843 366.92 847.206 366.855 842.57C369.203 841.517 372.186 840.062 375.821 837.863C375.821 837.863 382.498 833.893 388.673 828.699C395.814 822.695 407.688 808.561 418.341 787.557Z" fill="url(#paint8_radial_5199_9727)"/>
<path d="M390.626 725.205C389.337 723.709 388.045 722.212 386.756 720.716C381.605 725.575 341.894 764.182 350.194 812.291C352.18 823.794 356.509 833.513 361.344 841.366C362.646 836.508 363.945 831.649 365.248 826.79C361.526 819.954 359.479 813.555 358.364 808.016C350.005 766.571 385.081 730.712 390.626 725.205Z" fill="url(#paint9_radial_5199_9727)"/>
<path d="M368.257 830.407C367.655 830.232 367.155 829.808 366.888 829.234C362.9 820.768 361.618 812.934 363.085 805.943C363.255 805.13 363.46 804.342 363.658 803.581C364.303 801.08 364.915 798.719 364.344 795.603C363.792 792.585 362.454 790.676 360.757 788.256C360.302 787.605 359.829 786.93 359.341 786.192C359.132 785.879 354.216 778.361 351.429 767.391C349.342 759.183 350.207 749.73 353.922 740.021C353.347 733.291 354.312 726.469 356.719 720.26C358.41 715.9 360.79 711.85 363.789 708.214C364.436 705.212 365.906 701.011 369.237 697.022C372.958 692.569 377.34 690.316 380.581 689.187C385.494 682.732 390.943 678.932 396.786 677.886C399.83 677.34 401.917 677.732 404.125 678.144C406.183 678.528 408.514 678.965 412.413 678.833C416.708 678.687 419.29 677.985 421.363 677.422C423.437 676.857 425.231 676.37 427.353 676.988C427.795 677.117 428.227 677.287 428.678 677.506C435.779 680.972 436.528 692.087 436.976 698.729C437.429 705.43 436.612 712.146 434.554 718.698C434.897 721.034 434.972 723.402 434.78 725.743C434.461 729.603 433.428 733.34 431.709 736.867C432.594 739.518 433.096 742.265 433.195 745.046C433.364 749.647 432.412 754.307 430.439 758.589C432.556 764.763 434.847 775.628 429.409 785.014C429.284 785.23 429.122 785.424 428.933 785.588C423.65 790.134 418.122 793.695 412.495 796.175C409.057 797.692 406.342 798.947 400.934 801.455C395.838 803.815 395.3 804.13 394.823 804.681C393.386 806.342 393.313 808.1 393.303 811.317C393.298 813.416 393.29 815.796 392.687 818.548C391.577 823.61 388.725 828.382 384.212 832.728C383.685 833.236 382.944 833.451 382.233 833.303L368.425 830.441C368.372 830.437 368.314 830.423 368.257 830.407Z" fill="url(#paint10_radial_5199_9727)"/>
<path d="M384.616 727.61C386.947 730.97 389.571 733.221 391.535 734.63C391.981 733.415 392.431 732.202 392.878 730.987C391.17 730.106 388.42 728.407 385.965 725.357C382.775 721.399 381.799 717.3 381.457 715.282C380.808 714.677 380.155 714.07 379.506 713.461C379.784 716.374 380.726 722.001 384.616 727.61Z" fill="url(#paint11_radial_5199_9727)"/>
<path d="M406.469 714.776C408.924 714.979 412.421 714.993 416.482 714.074C420.014 713.275 422.838 712.029 424.857 710.947C424.299 710.646 423.745 710.346 423.188 710.044C421.556 710.698 419.53 711.347 417.157 711.767C413.351 712.439 410.071 712.266 407.718 711.939C407.299 712.884 406.884 713.83 406.469 714.776Z" fill="url(#paint12_radial_5199_9727)"/>
<path d="M392.383 759.081C391.852 761.524 391.322 763.964 390.788 766.407C394.245 766.295 399.621 765.704 405.669 763.226C412.1 760.593 416.556 756.95 419.138 754.49C418.187 754.443 417.231 754.399 416.28 754.352C413.429 756.146 408.275 758.829 401.385 759.473C397.833 759.809 394.756 759.512 392.383 759.081Z" fill="url(#paint13_radial_5199_9727)"/>
<path d="M398.66 732.952C398.207 734.026 397.755 735.1 397.302 736.174C399.91 736.166 403.008 735.931 406.422 735.212C413.123 733.801 418.273 731.105 421.655 728.936C420.871 728.938 420.089 728.945 419.305 728.947C416.042 730.364 411.666 731.849 406.371 732.551C403.527 732.933 400.93 733.017 398.66 732.952Z" fill="url(#paint14_radial_5199_9727)"/>
<path d="M413.941 772.617C411.346 775.011 406.279 779.017 398.822 780.99C394.637 782.099 390.943 782.237 388.206 782.108C387.74 784.553 387.27 786.999 386.804 789.443C390.479 788.876 395.379 787.704 400.719 785.167C408.682 781.379 413.976 776.274 416.983 772.87C415.97 772.787 414.953 772.703 413.941 772.617Z" fill="url(#paint15_radial_5199_9727)"/>
<path d="M395.305 705.267C397.139 709.298 400.063 711.542 401.476 712.49C402.005 711.625 402.534 710.759 403.063 709.894C401.828 709.194 399.228 707.495 397.41 704.214C394.91 699.708 395.593 695.295 395.84 694.019C395.457 693.443 395.071 692.867 394.688 692.291C394.236 693.673 392.577 699.274 395.305 705.267Z" fill="url(#paint16_radial_5199_9727)"/>
<path d="M385.079 765.161C385.514 762.412 385.952 759.668 386.387 756.919C384.341 755.432 381.961 753.39 379.662 750.649C375.112 745.225 373.048 739.64 372.059 736.056C371.266 735.778 370.473 735.503 369.68 735.225C370.592 740.061 372.504 746.958 376.806 754.268C379.521 758.881 382.495 762.476 385.079 765.161Z" fill="url(#paint17_radial_5199_9727)"/>
<path d="M382.52 780.964C379.52 778.512 376.179 775.391 372.87 771.479C367.509 765.135 364.063 758.878 361.848 753.943C361.099 753.677 360.345 753.414 359.596 753.148C360.942 758.51 363.637 766.423 369.326 774.62C373.334 780.395 377.649 784.603 381.151 787.519C381.606 785.335 382.065 783.152 382.52 780.964Z" fill="url(#paint18_radial_5199_9727)"/>
<path d="M397.958 734.925C402.302 719.59 409.068 707.331 409.068 707.331C413.114 699.999 417.18 694.43 419.961 690.891L418.546 690.063C415.969 693.102 412.148 697.836 407.985 703.957C407.985 703.957 399.258 716.792 392.215 732.968C385.119 749.264 370.6 798.14 356.263 865.577C354.898 872.009 358.939 878.425 365.349 879.667C365.521 879.698 365.693 879.73 365.866 879.759C366.039 879.787 366.218 879.81 366.389 879.831C373.993 880.751 380.77 874.831 381.221 867.136C386.146 782.971 393.882 749.308 397.958 734.925Z" fill="url(#paint19_radial_5199_9727)"/>
<path d="M390.811 745.338C390.238 746.749 393.145 750.61 397.04 750.429C399.957 750.291 402.664 747.926 402.356 746.524C401.813 744.068 391.691 743.175 390.811 745.338Z" fill="#534741"/>
<path d="M387.148 739.707C385.67 737.584 382.751 737.082 380.632 738.581C378.513 740.079 377.998 743.017 379.476 745.139C380.955 747.261 383.874 747.764 385.993 746.265C388.111 744.766 388.631 741.83 387.148 739.707ZM385.499 745.559C383.769 746.783 381.391 746.369 380.185 744.64L386.442 740.21C387.652 741.939 387.229 744.334 385.499 745.559Z" fill="#534741"/>
<path d="M414.104 744.369C412.625 742.246 409.706 741.744 407.587 743.243C405.468 744.741 404.953 747.679 406.431 749.801C407.91 751.924 410.829 752.426 412.948 750.927C415.067 749.425 415.582 746.491 414.104 744.369ZM412.455 750.218C410.725 751.442 408.347 751.028 407.141 749.299L413.398 744.869C414.603 746.601 414.181 748.995 412.455 750.218Z" fill="#534741"/>
<path d="M172.303 711.865V724.824H149.633V711.865H136.215V689.194H149.633V676.824H172.303V689.194H184.215V711.865H172.303Z" fill="#3DCE94"/>
<path d="M519.027 694.833L518.273 701.402C518.266 701.465 518.207 701.514 518.144 701.503C518.088 701.496 518.046 701.454 518.043 701.402L517.285 694.829C517.229 694.345 517.575 693.906 518.057 693.85C518.539 693.794 518.975 694.141 519.031 694.626C519.034 694.696 519.034 694.766 519.027 694.833Z" fill="#F37343"/>
<path d="M526.709 698.628L521.574 702.757C521.511 702.806 521.42 702.795 521.371 702.736C521.329 702.683 521.329 702.606 521.371 702.553L525.477 697.388C525.781 697.006 526.332 696.946 526.713 697.251C527.093 697.557 527.153 698.112 526.849 698.494C526.804 698.54 526.755 698.589 526.709 698.628Z" fill="#F37343"/>
<path d="M510.838 697.384L515.035 702.458C515.132 702.574 515.115 702.749 515 702.844C514.898 702.928 514.748 702.928 514.651 702.844L509.606 698.624C509.232 698.311 509.183 697.757 509.49 697.381C509.801 697.005 510.353 696.956 510.726 697.265C510.768 697.307 510.807 697.346 510.838 697.384Z" fill="#F37343"/>
<path d="M506.98 705.021L513.516 705.783C513.578 705.79 513.627 705.849 513.617 705.913C513.61 705.969 513.568 706.011 513.516 706.014L506.98 706.776C506.498 706.833 506.062 706.485 506.006 706C505.95 705.516 506.296 705.077 506.777 705.021C506.844 705.014 506.914 705.014 506.98 705.021Z" fill="#F37343"/>
<path d="M509.517 713.257L514.562 709.037C514.677 708.938 514.852 708.956 514.946 709.072C515.03 709.174 515.03 709.325 514.946 709.423L510.75 714.496C510.439 714.872 509.887 714.921 509.514 714.612C509.14 714.299 509.091 713.745 509.399 713.369C509.437 713.33 509.479 713.288 509.517 713.257Z" fill="#F37343"/>
<path d="M517.111 717.141L517.868 710.568C517.875 710.505 517.935 710.456 517.997 710.466C518.053 710.473 518.095 710.515 518.099 710.568L518.856 717.141C518.912 717.625 518.567 718.064 518.085 718.12C517.603 718.176 517.167 717.829 517.111 717.344C517.104 717.274 517.104 717.204 517.111 717.141Z" fill="#F37343"/>
<path d="M525.303 714.585L521.107 709.512C521.009 709.396 521.026 709.22 521.141 709.126C521.243 709.041 521.393 709.041 521.491 709.126L526.535 713.346C526.909 713.658 526.958 714.213 526.651 714.589C526.34 714.964 525.788 715.014 525.415 714.705C525.376 714.666 525.334 714.624 525.303 714.585Z" fill="#F37343"/>
<path d="M529.164 706.949L522.628 706.187C522.565 706.18 522.516 706.12 522.527 706.057C522.534 706.001 522.576 705.959 522.628 705.955L529.164 705.193C529.645 705.137 530.082 705.485 530.138 705.969C530.194 706.454 529.848 706.893 529.366 706.949C529.296 706.959 529.227 706.956 529.164 706.949Z" fill="#F37343"/>
<path d="M526.921 734.805C527.343 733.896 529.927 728.064 527.148 721.773C525.151 717.258 521.541 715.098 520.295 714.428C519.136 714.491 515.03 714.849 511.797 718.135C509.105 720.87 506.787 725.877 508.801 730.473C511.364 736.315 518.786 736.603 519.802 736.627C523.081 736.701 525.615 735.532 526.921 734.805Z" fill="url(#paint20_linear_5199_9727)"/>
<path d="M537.595 662.402C536.457 659.65 534.875 654.801 535.151 648.71C535.315 645.079 535.748 635.586 543.181 629.4C550.369 623.413 561.297 622.862 569.365 627.644C576.096 631.636 578.708 638.075 579.49 640.283C576.519 644.138 571.467 649.689 563.779 654.327C553.138 660.752 542.964 662.09 537.595 662.402Z" fill="url(#paint21_linear_5199_9727)"/>
<path d="M591.786 770.598C575.803 775.043 555.627 774.443 541.068 767.568C523.333 759.195 518.375 742.599 518.438 727.944C519.245 713.188 521.381 698.572 524.935 684.044C529.558 669.337 537.944 655.033 554.133 645.413C564.491 639.259 576.941 635.569 590.106 638.497C601.24 642.043 607.039 650.627 610.928 658.628C615.858 668.771 618.857 679.132 619.761 689.932C620.592 699.127 622.488 708.072 625.49 717.011C633.67 739.035 621.702 762.502 591.786 770.598Z" fill="url(#paint22_radial_5199_9727)"/>
<path d="M609.165 679.957C607.556 679.648 600.901 678.177 596.247 671.882C590.574 664.207 592.463 655.567 592.756 654.328C595.825 647.615 602.72 643.707 609.539 644.652C616.954 645.677 621.426 652.053 622.781 657.487C625.089 666.735 618.522 673.82 617.593 674.789C614.528 677.984 611.068 679.36 609.165 679.957Z" fill="url(#paint23_linear_5199_9727)"/>
<path d="M567.054 702.746C566.722 704.291 570.392 707.725 574.344 706.847C577.301 706.19 579.647 703.294 579.074 701.918C578.076 699.506 567.56 700.38 567.054 702.746Z" fill="#F37343"/>
<path d="M562.291 697.641C560.395 695.734 557.32 695.734 555.424 697.641C553.528 699.547 553.528 702.64 555.424 704.547C557.32 706.453 560.395 706.453 562.291 704.547C564.19 702.64 564.19 699.547 562.291 697.641ZM561.659 703.911C560.113 705.467 557.606 705.467 556.059 703.911L561.659 698.28C563.206 699.832 563.206 702.352 561.659 703.911Z" fill="#F37343"/>
<path d="M590.703 697.641C588.807 695.734 585.732 695.734 583.836 697.641C581.94 699.547 581.94 702.64 583.836 704.547C585.732 706.453 588.807 706.453 590.703 704.547C592.599 702.64 592.599 699.547 590.703 697.641ZM590.068 703.911C588.521 705.467 586.014 705.467 584.468 703.911L590.068 698.28C591.618 699.832 591.618 702.352 590.068 703.911Z" fill="#F37343"/>
<path d="M606.931 630.193L606.174 637.667C606.167 637.731 606.111 637.78 606.045 637.773C605.989 637.766 605.947 637.724 605.94 637.667L605.182 630.193C605.133 629.708 605.483 629.276 605.968 629.227C606.45 629.178 606.879 629.529 606.928 630.017C606.938 630.07 606.938 630.133 606.931 630.193Z" fill="#F37343"/>
<path d="M615.702 634.423L609.931 639.187C609.868 639.236 609.777 639.229 609.728 639.166C609.683 639.113 609.686 639.036 609.728 638.984L614.466 633.18C614.773 632.804 615.325 632.748 615.702 633.057C616.075 633.366 616.131 633.921 615.824 634.3C615.785 634.346 615.743 634.388 615.702 634.423Z" fill="#F37343"/>
<path d="M597.654 633.181L602.486 638.893C602.584 639.009 602.57 639.181 602.455 639.28C602.35 639.367 602.2 639.364 602.102 639.28L596.422 634.421C596.052 634.105 596.01 633.55 596.321 633.178C596.631 632.806 597.187 632.763 597.557 633.076C597.588 633.111 597.623 633.15 597.654 633.181Z" fill="#F37343"/>
<path d="M593.346 641.901L600.778 642.663C600.841 642.67 600.89 642.726 600.883 642.793C600.876 642.849 600.834 642.891 600.778 642.898L593.346 643.66C592.864 643.709 592.434 643.358 592.385 642.87C592.337 642.386 592.686 641.954 593.171 641.905C593.227 641.894 593.29 641.894 593.346 641.901Z" fill="#F37343"/>
<path d="M596.32 651.233L602 646.374C602.116 646.276 602.287 646.29 602.384 646.406C602.472 646.511 602.468 646.662 602.384 646.76L597.552 652.472C597.238 652.845 596.687 652.887 596.317 652.574C595.946 652.258 595.905 651.704 596.215 651.331C596.25 651.296 596.285 651.261 596.32 651.233Z" fill="#F37343"/>
<path d="M604.991 655.563L605.748 648.088C605.755 648.025 605.811 647.976 605.877 647.983C605.933 647.99 605.975 648.032 605.982 648.088L606.74 655.563C606.789 656.048 606.439 656.48 605.954 656.529C605.472 656.578 605.043 656.227 604.994 655.739C604.987 655.683 604.987 655.619 604.991 655.563Z" fill="#F37343"/>
<path d="M614.27 652.571L609.438 646.859C609.34 646.743 609.354 646.571 609.47 646.473C609.574 646.385 609.724 646.388 609.822 646.473L615.506 651.332C615.876 651.648 615.918 652.203 615.607 652.575C615.296 652.947 614.741 652.989 614.371 652.677C614.336 652.641 614.301 652.606 614.27 652.571Z" fill="#F37343"/>
<path d="M618.577 643.853L611.144 643.092C611.082 643.085 611.033 643.028 611.04 642.962C611.047 642.905 611.089 642.863 611.144 642.856L618.577 642.094C619.059 642.045 619.489 642.396 619.537 642.884C619.586 643.369 619.237 643.801 618.752 643.85C618.696 643.86 618.633 643.857 618.577 643.853Z" fill="#F37343"/>
<path d="M836.629 605.803C837.438 619.598 833.536 633.611 823.235 643.181C813.037 652.658 798.552 656.53 784.943 656.699C783.309 656.728 782.492 656.75 780.858 656.808C767.204 657.248 752.656 654.333 741.896 645.362C732.59 637.601 727.678 626.084 726.699 614.17L835.805 592.716C836.08 597.081 836.355 601.442 836.629 605.803Z" fill="url(#paint24_linear_5199_9727)"/>
<path d="M835.676 592.883C836.915 599.173 813.535 609.073 783.46 614.995C753.384 620.913 727.998 620.614 726.759 614.322C725.521 608.032 748.9 598.132 778.976 592.21C809.051 586.289 834.437 586.59 835.676 592.883Z" fill="url(#paint25_linear_5199_9727)"/>
<path d="M748.708 617.793C733.137 618.21 728.454 615.637 728.142 614.049C727.816 612.391 731.164 608.874 741.676 604.424C751.452 600.285 764.795 596.439 779.251 593.592C791.6 591.163 803.844 589.677 813.731 589.412C829.302 588.995 833.984 591.567 834.297 593.155C834.622 594.813 831.275 598.331 820.763 602.781C810.986 606.92 797.644 610.765 783.188 613.612C770.839 616.042 758.592 617.528 748.708 617.793Z" fill="url(#paint26_radial_5199_9727)"/>
<path d="M772.291 601.719C771.547 602.248 768.273 604.571 768.759 606.091C769.805 609.361 787.52 606.613 792.993 602.417C793.622 601.934 795.276 600.668 794.965 599.67C794.731 598.914 793.474 598.636 792.554 598.471C786.466 597.392 780.295 598.856 778.044 599.439C774.636 600.323 773.372 600.954 772.291 601.719Z" fill="#FFE6CC"/>
<path d="M761.668 605.815C761.977 605.168 765.402 605.69 765.414 606.139C765.424 606.528 762.878 607.372 761.934 606.433C761.891 606.388 761.555 606.053 761.668 605.815Z" fill="#063B01"/>
<path d="M783.575 611.059C783.93 611.376 784.617 611.48 784.992 611.207C785.853 610.574 784.993 607.948 784.354 607.933C783.747 607.921 782.665 610.252 783.575 611.059Z" fill="#063B01"/>
<path d="M769.395 611.271C769.534 611.625 771.114 611.684 772.187 610.852C772.919 610.282 773.432 609.282 773.173 609.04C772.673 608.576 769.161 610.681 769.395 611.271Z" fill="#063B01"/>
<path d="M798.42 605.662C797.263 606.339 794.827 604.744 794.982 604.246C795.086 603.913 796.355 604.026 797.78 604.157C798.561 604.227 798.865 604.317 798.973 604.535C799.143 604.867 798.828 605.423 798.42 605.662Z" fill="#063B01"/>
<path d="M780.262 596.495C779.93 596.293 778.855 596.771 778.825 597.204C778.817 597.295 778.901 597.416 779.065 597.657C779.339 598.056 779.474 598.253 779.583 598.257C779.99 598.264 780.701 596.76 780.262 596.495Z" fill="#063B01"/>
<path d="M770.061 599.41C769.437 599.434 768.863 599.885 768.922 600.132C769.032 600.564 771.206 600.65 771.35 600.243C771.438 599.991 770.821 599.38 770.061 599.41Z" fill="#063B01"/>
<path d="M799.514 596.717C799.513 596.426 798.379 595.993 797.37 596.336C796.679 596.572 796.028 597.175 796.147 597.414C796.38 597.874 799.52 597.204 799.514 596.717Z" fill="#063B01"/>
<path d="M765.044 602.314C764.925 602.079 765.274 601.603 765.7 601.399C766.774 600.889 768.434 602.066 768.333 602.367C768.31 602.434 768.205 602.43 766.693 602.453C765.413 602.469 765.125 602.481 765.044 602.314Z" fill="#A2C71E"/>
<path d="M788.416 595.331C788.768 594.844 789.478 594.622 789.665 594.803C789.996 595.12 788.925 596.907 788.48 596.803C788.208 596.743 787.986 595.925 788.416 595.331Z" fill="#063B01"/>
<path d="M795.725 594.804C795.708 594.545 795.157 594.29 794.677 594.313C793.475 594.37 792.643 596.171 792.883 596.386C792.937 596.433 793.027 596.378 794.356 595.694C795.481 595.113 795.737 594.986 795.725 594.804Z" fill="#A2C71E"/>
<path d="M775.686 611.467C776.003 611.914 777.698 611.785 778.43 610.825C779.125 609.911 778.795 608.46 778.282 608.32C777.985 608.237 777.634 608.604 777.094 609.162C776.541 609.738 775.347 610.984 775.686 611.467Z" fill="#A2C71E"/>
<path d="M764.456 609.179C764.424 609.457 764.736 609.709 764.957 609.815C766.137 610.376 768.357 608.52 768.157 608.108C767.941 607.654 764.552 608.314 764.456 609.179Z" fill="#A2C71E"/>
<path d="M785.19 595.76C785.033 595.557 784.491 595.469 784.15 595.584C783.298 595.873 783.674 597.467 783.972 597.585C784.039 597.611 784.073 597.551 784.675 596.738C785.18 596.051 785.299 595.9 785.19 595.76Z" fill="#A2C71E"/>
<path d="M792.065 608.143C792.038 608.575 790.932 609.096 790.051 608.825C788.969 608.489 788.512 607.038 788.848 606.728C789.046 606.543 789.536 606.741 790.37 607.08C791.299 607.451 792.086 607.771 792.065 608.143Z" fill="#A2C71E"/>
<path d="M774.9 597.618C774.594 597.605 774.088 597.692 774.014 597.933C773.878 598.375 775.212 599.332 775.683 599.07C775.949 598.923 776 598.357 775.734 597.992C775.472 597.645 775.019 597.622 774.9 597.618Z" fill="#A2C71E"/>
<path d="M800.488 599.149C800.697 599.347 800.619 599.728 800.516 599.942C799.971 601.079 797.01 600.951 796.893 600.509C796.761 600.032 799.84 598.532 800.488 599.149Z" fill="#A2C71E"/>
<path d="M775.297 579.583C745.387 585.039 722.074 594.578 723.227 600.883C723.27 601.125 723.355 601.359 723.47 601.586C724.484 604.113 725.499 606.644 726.513 609.172C727.809 612.403 730.76 614.675 734.217 615.093C746.576 616.579 763.681 617.179 783.467 613.448C802.336 609.89 817.505 603.552 828.407 597.854C832.385 595.777 834.352 591.183 833.136 586.863C832.609 584.991 832.084 583.122 831.555 581.251C831.55 581.208 831.546 581.164 831.538 581.122C830.384 574.814 805.206 574.124 775.297 579.583Z" fill="url(#paint27_linear_5199_9727)"/>
<path d="M813.095 592.411C827.738 587.099 831.154 582.99 830.863 581.398C830.559 579.736 826.156 577.688 814.744 577.395C804.131 577.123 790.308 578.429 775.813 581.072C763.432 583.332 751.494 586.432 742.196 589.805C727.554 595.117 724.138 599.225 724.428 600.817C724.732 602.479 729.136 604.527 740.547 604.82C751.16 605.093 764.983 603.786 779.479 601.143C791.859 598.883 803.797 595.784 813.095 592.411Z" fill="url(#paint28_radial_5199_9727)"/>
<path d="M785.26 586.087C786.146 586.307 790.044 587.27 790.147 588.863C790.372 592.288 772.88 596.216 766.251 594.316C765.488 594.096 763.486 593.524 763.41 592.481C763.352 591.692 764.419 590.973 765.215 590.483C770.486 587.25 776.764 586.353 779.072 586.071C782.567 585.647 783.974 585.771 785.26 586.087Z" fill="#FFE6CC"/>
<path d="M796.65 586.008C796.126 585.519 793.13 587.259 793.283 587.681C793.416 588.047 796.094 587.9 796.629 586.68C796.653 586.623 796.842 586.188 796.65 586.008Z" fill="#063B01"/>
<path d="M778.179 598.909C777.964 599.334 777.36 599.684 776.914 599.566C775.882 599.291 775.72 596.532 776.31 596.285C776.874 596.051 778.73 597.825 778.179 598.909Z" fill="#063B01"/>
<path d="M791.454 593.913C791.454 594.294 790.005 594.928 788.702 594.546C787.812 594.283 786.969 593.541 787.121 593.221C787.417 592.606 791.455 593.279 791.454 593.913Z" fill="#063B01"/>
<path d="M762.39 599.32C763.714 599.526 765.397 597.151 765.07 596.743C764.852 596.472 763.712 597.042 762.434 597.685C761.733 598.036 761.483 598.231 761.463 598.474C761.43 598.844 761.923 599.247 762.39 599.32Z" fill="#063B01"/>
<path d="M775.931 584.145C776.166 583.836 777.341 583.887 777.527 584.278C777.568 584.36 777.534 584.503 777.47 584.788C777.361 585.26 777.308 585.492 777.208 585.536C776.834 585.69 775.62 584.553 775.931 584.145Z" fill="#063B01"/>
<path d="M786.495 583.121C787.084 582.915 787.783 583.124 787.819 583.376C787.875 583.819 785.883 584.694 785.6 584.368C785.423 584.167 785.776 583.371 786.495 583.121Z" fill="#063B01"/>
<path d="M758.096 591.396C757.99 591.125 758.887 590.307 759.951 590.257C760.681 590.223 761.507 590.547 761.484 590.813C761.439 591.325 758.272 591.851 758.096 591.396Z" fill="#063B01"/>
<path d="M792.225 583.986C792.25 583.723 791.751 583.408 791.28 583.374C790.094 583.293 788.98 584.995 789.184 585.238C789.23 585.293 789.326 585.25 790.741 584.718C791.935 584.266 792.207 584.172 792.225 583.986Z" fill="#A2C71E"/>
<path d="M767.917 586.044C767.412 585.72 766.67 585.772 766.562 586.009C766.37 586.426 768.021 587.696 768.397 587.437C768.625 587.283 768.535 586.439 767.917 586.044Z" fill="#063B01"/>
<path d="M760.925 588.23C760.847 587.983 761.266 587.543 761.721 587.39C762.86 587.002 764.294 588.374 764.149 588.662C764.116 588.726 764.012 588.707 762.525 588.557C761.262 588.429 760.978 588.405 760.925 588.23Z" fill="#A2C71E"/>
<path d="M785.67 596.401C785.539 596.934 783.914 597.433 782.882 596.808C781.902 596.216 781.677 594.742 782.102 594.423C782.348 594.237 782.81 594.45 783.516 594.772C784.245 595.105 785.813 595.827 785.67 596.401Z" fill="#A2C71E"/>
<path d="M795.283 590.159C795.414 590.406 795.216 590.754 795.05 590.934C794.157 591.888 791.411 590.974 791.447 590.517C791.482 590.016 794.877 589.388 795.283 590.159Z" fill="#A2C71E"/>
<path d="M771.079 585.262C771.15 585.016 771.623 584.736 771.982 584.718C772.881 584.675 773.114 586.296 772.881 586.515C772.827 586.564 772.774 586.52 771.916 585.984C771.195 585.53 771.029 585.433 771.079 585.262Z" fill="#A2C71E"/>
<path d="M769.211 599.304C769.394 599.696 770.613 599.776 771.334 599.202C772.218 598.493 772.112 596.975 771.686 596.809C771.434 596.71 771.051 597.073 770.399 597.694C769.67 598.38 769.054 598.965 769.211 599.304Z" fill="#A2C71E"/>
<path d="M781.335 583.224C781.615 583.1 782.118 582.996 782.275 583.193C782.563 583.554 781.672 584.934 781.139 584.862C780.837 584.823 780.582 584.314 780.696 583.878C780.809 583.46 781.226 583.271 781.335 583.224Z" fill="#A2C71E"/>
<path d="M758.084 594.018C757.962 594.278 758.174 594.604 758.348 594.765C759.271 595.624 761.98 594.421 761.927 593.967C761.872 593.475 758.461 593.206 758.084 594.018Z" fill="#A2C71E"/>
<path d="M775.022 566.874C804.853 561.001 830.04 561.343 831.279 567.632C831.328 567.873 831.334 568.122 831.31 568.375C831.291 571.099 831.273 573.825 831.255 576.548C831.232 580.03 829.318 583.225 826.254 584.879C815.297 590.786 799.599 597.607 779.821 601.379C760.96 604.976 744.523 604.63 732.292 603.32C727.83 602.843 724.317 599.288 723.868 594.823C723.672 592.888 723.476 590.956 723.284 589.021C723.273 588.979 723.261 588.938 723.253 588.896C722.01 582.603 745.191 572.743 775.022 566.874Z" fill="url(#paint29_linear_5199_9727)"/>
<path d="M836.626 571.453L829.726 573.841C829.667 573.86 829.633 573.928 829.656 573.987C829.675 574.039 829.725 574.069 829.777 574.061L837.014 573.095C837.483 573.033 837.815 572.607 837.754 572.142C837.692 571.677 837.262 571.351 836.794 571.413C836.738 571.422 836.679 571.437 836.626 571.453Z" fill="#F3C344"/>
<path d="M835.865 580.85L829.385 577.592C829.253 577.525 829.093 577.579 829.026 577.707C828.966 577.824 829.002 577.964 829.105 578.038L834.967 582.288C835.346 582.562 835.884 582.481 836.162 582.101C836.443 581.725 836.362 581.194 835.983 580.92C835.947 580.893 835.904 580.87 835.865 580.85Z" fill="#F3C344"/>
<path d="M744.964 592.261C729.393 592.679 724.71 590.106 724.397 588.518C724.072 586.86 727.42 583.342 737.932 578.892C747.708 574.753 761.05 570.908 775.507 568.061C787.855 565.632 800.099 564.146 809.987 563.881C825.557 563.463 830.24 566.036 830.553 567.624C830.878 569.282 827.53 572.8 817.018 577.25C807.242 581.389 793.9 585.234 779.443 588.081C767.095 590.51 754.847 591.996 744.964 592.261Z" fill="url(#paint30_radial_5199_9727)"/>
<path d="M768.545 576.186C767.801 576.715 764.527 579.038 765.013 580.558C766.059 583.828 783.774 581.08 789.247 576.884C789.876 576.4 791.53 575.135 791.219 574.136C790.985 573.381 789.728 573.103 788.808 572.938C782.72 571.859 776.549 573.323 774.298 573.906C770.89 574.79 769.626 575.42 768.545 576.186Z" fill="#FFE6CC"/>
<path d="M757.922 580.286C758.231 579.639 761.655 580.161 761.667 580.61C761.678 580.999 759.132 581.843 758.188 580.903C758.144 580.855 757.809 580.52 757.922 580.286Z" fill="#063B01"/>
<path d="M779.83 585.526C780.186 585.843 780.873 585.947 781.248 585.674C782.109 585.04 781.249 582.415 780.61 582.4C780.002 582.388 778.921 584.719 779.83 585.526Z" fill="#063B01"/>
<path d="M765.651 585.741C765.79 586.096 767.37 586.155 768.443 585.323C769.175 584.752 769.688 583.753 769.429 583.51C768.929 583.047 765.417 585.151 765.651 585.741Z" fill="#063B01"/>
<path d="M794.674 580.129C793.517 580.806 791.081 579.211 791.236 578.712C791.34 578.38 792.609 578.493 794.034 578.623C794.815 578.694 795.119 578.784 795.226 579.002C795.397 579.334 795.082 579.893 794.674 580.129Z" fill="#063B01"/>
<path d="M776.518 570.966C776.186 570.764 775.111 571.242 775.081 571.674C775.073 571.766 775.157 571.886 775.321 572.128C775.595 572.527 775.73 572.724 775.839 572.728C776.246 572.734 776.957 571.228 776.518 570.966Z" fill="#063B01"/>
<path d="M766.315 573.879C765.691 573.903 765.117 574.353 765.176 574.601C765.286 575.033 767.46 575.119 767.604 574.711C767.692 574.46 767.075 573.848 766.315 573.879Z" fill="#063B01"/>
<path d="M795.768 571.184C795.767 570.892 794.633 570.46 793.624 570.802C792.933 571.039 792.282 571.642 792.401 571.881C792.634 572.341 795.774 571.671 795.768 571.184Z" fill="#063B01"/>
<path d="M761.298 576.781C761.179 576.546 761.528 576.07 761.954 575.865C763.028 575.356 764.687 576.532 764.587 576.833C764.564 576.901 764.459 576.896 762.947 576.919C761.667 576.936 761.379 576.947 761.298 576.781Z" fill="#A2C71E"/>
<path d="M784.667 569.8C785.019 569.313 785.729 569.091 785.916 569.272C786.248 569.589 785.176 571.376 784.731 571.272C784.463 571.209 784.241 570.39 784.667 569.8Z" fill="#063B01"/>
<path d="M791.981 569.271C791.963 569.012 791.413 568.756 790.933 568.78C789.731 568.837 788.898 570.638 789.139 570.852C789.193 570.9 789.283 570.845 790.612 570.16C791.737 569.579 791.993 569.453 791.981 569.271Z" fill="#A2C71E"/>
<path d="M771.94 585.933C772.257 586.381 773.952 586.251 774.684 585.291C775.379 584.378 775.049 582.927 774.536 582.787C774.239 582.703 773.888 583.071 773.348 583.629C772.795 584.209 771.601 585.451 771.94 585.933Z" fill="#A2C71E"/>
<path d="M760.71 583.646C760.678 583.924 760.99 584.175 761.211 584.281C762.391 584.843 764.611 582.987 764.41 582.575C764.195 582.121 760.806 582.784 760.71 583.646Z" fill="#A2C71E"/>
<path d="M781.445 570.226C781.289 570.023 780.746 569.936 780.406 570.051C779.554 570.34 779.93 571.934 780.228 572.052C780.295 572.078 780.329 572.018 780.931 571.205C781.436 570.521 781.555 570.367 781.445 570.226Z" fill="#A2C71E"/>
<path d="M788.321 582.61C788.294 583.042 787.188 583.563 786.307 583.292C785.225 582.956 784.768 581.505 785.104 581.195C785.302 581.01 785.792 581.208 786.625 581.547C787.555 581.918 788.342 582.238 788.321 582.61Z" fill="#A2C71E"/>
<path d="M771.154 572.085C770.848 572.072 770.342 572.159 770.267 572.4C770.132 572.842 771.466 573.799 771.936 573.537C772.203 573.39 772.254 572.824 771.988 572.459C771.726 572.111 771.273 572.092 771.154 572.085Z" fill="#A2C71E"/>
<path d="M796.742 573.617C796.951 573.815 796.873 574.196 796.77 574.409C796.225 575.546 793.264 575.419 793.147 574.976C793.015 574.499 796.094 573.003 796.742 573.617Z" fill="#A2C71E"/>
<path d="M830.601 565.812C828.796 561.371 826.987 556.927 825.182 552.486C814.71 526.285 784.926 506.473 756.938 516.936C755.557 517.44 754.869 517.692 753.488 518.196C726.619 527.777 716.28 559.516 723.126 585.677L723.186 585.667C723.189 585.684 723.191 585.702 723.194 585.72C723.512 587.471 727.999 589.603 739.584 589.846C750.248 590.07 764.137 588.695 778.695 585.974C791.051 583.665 802.986 580.52 812.3 577.118C825.963 572.129 830.6 567.967 830.464 565.836L830.601 565.812Z" fill="url(#paint31_linear_5199_9727)"/>
<path d="M717.557 584.519L724.702 583C724.765 582.988 724.824 583.026 724.839 583.088C724.851 583.143 724.822 583.195 724.774 583.217L718.084 586.145C717.649 586.334 717.144 586.137 716.955 585.702C716.766 585.267 716.963 584.762 717.398 584.573C717.445 584.549 717.502 584.531 717.557 584.519Z" fill="#F3C344"/>
<path d="M718.854 575.099L724.991 579.052C725.055 579.096 725.076 579.182 725.032 579.246C724.994 579.305 724.922 579.324 724.861 579.301L718.071 576.617C717.63 576.442 717.415 575.945 717.59 575.504C717.765 575.063 718.262 574.848 718.703 575.023C718.756 575.045 718.806 575.071 718.854 575.099Z" fill="#F3C344"/>
<path d="M767.027 507.502L767.361 514.799C767.365 514.861 767.315 514.917 767.252 514.917C767.196 514.919 767.15 514.883 767.135 514.833L765.337 507.753C765.222 507.294 765.5 506.827 765.957 506.709C766.415 506.594 766.882 506.871 767.001 507.328C767.018 507.385 767.025 507.446 767.027 507.502Z" fill="#F3C344"/>
<path d="M776.112 510.312L771.21 515.724C771.156 515.781 771.069 515.787 771.012 515.733C770.962 515.688 770.953 515.613 770.985 515.556L774.739 509.294C774.983 508.887 775.509 508.755 775.916 508.999C776.322 509.242 776.455 509.769 776.211 510.175C776.185 510.226 776.146 510.274 776.112 510.312Z" fill="#F3C344"/>
<path d="M758.483 511.709L763.969 516.508C764.08 516.606 764.092 516.773 763.994 516.884C763.907 516.983 763.761 517.002 763.651 516.934L757.468 513.08C757.067 512.831 756.944 512.3 757.193 511.899C757.443 511.498 757.973 511.376 758.374 511.625C758.409 511.65 758.45 511.68 758.483 511.709Z" fill="#F3C344"/>
<path d="M765.318 573.183C763.09 573.452 761.499 575.478 761.768 577.706C762.036 579.934 764.062 581.524 766.29 581.256C768.519 580.987 770.109 578.961 769.84 576.733C769.574 574.501 767.549 572.914 765.318 573.183ZM762.515 577.616C762.296 575.799 763.593 574.146 765.41 573.926C767.227 573.707 768.88 575.004 769.099 576.821L762.515 577.616Z" fill="#C4CF4D"/>
<path d="M788.931 570.33C786.703 570.598 785.113 572.624 785.381 574.852C785.65 577.081 787.675 578.671 789.904 578.402C792.132 578.134 793.722 576.108 793.454 573.88C793.184 571.648 791.159 570.061 788.931 570.33ZM786.125 574.764C785.906 572.947 787.203 571.293 789.02 571.074C790.837 570.855 792.49 572.152 792.709 573.969L786.125 574.764Z" fill="#C4CF4D"/>
<path d="M776.04 578.865C775.861 577.739 776.721 575.424 777.912 575.915C778.822 576.288 779.936 578.286 779.977 579.328C780.055 581.29 776.345 580.804 776.04 578.865Z" fill="#C4CF4D"/>
<defs>
<radialGradient id="paint0_radial_5199_9727" cx="0" cy="0" r="1" gradientUnits="userSpaceOnUse" gradientTransform="translate(392.21 773.955) rotate(26.7617) scale(70.1352 94.1029)">
<stop stop-color="#5AA668"/>
<stop offset="0.4873" stop-color="#56965F"/>
<stop offset="1" stop-color="#508054"/>
</radialGradient>
<radialGradient id="paint1_radial_5199_9727" cx="0" cy="0" r="1" gradientUnits="userSpaceOnUse" gradientTransform="translate(371.221 932.948) rotate(-105.684) scale(35.8657 62.6165)">
<stop stop-color="#C8DE90"/>
<stop offset="0.457" stop-color="#B8DE8E"/>
<stop offset="1" stop-color="#9FDE8C"/>
</radialGradient>
<radialGradient id="paint2_radial_5199_9727" cx="0" cy="0" r="1" gradientUnits="userSpaceOnUse" gradientTransform="translate(281.085 876.68) rotate(-29.2133) scale(28.2303 49.2861)">
<stop stop-color="#C8DE90"/>
<stop offset="0.457" stop-color="#B8DE8E"/>
<stop offset="1" stop-color="#9FDE8C"/>
</radialGradient>
<radialGradient id="paint3_radial_5199_9727" cx="0" cy="0" r="1" gradientUnits="userSpaceOnUse" gradientTransform="translate(148.262 906.876) rotate(-29.2133) scale(64.944 113.383)">
<stop stop-color="#C8DE90"/>
<stop offset="0.457" stop-color="#B8DE8E"/>
<stop offset="1" stop-color="#9FDE8C"/>
</radialGradient>
<radialGradient id="paint4_radial_5199_9727" cx="0" cy="0" r="1" gradientUnits="userSpaceOnUse" gradientTransform="translate(304.763 901.486) rotate(-29.2133) scale(34.1917 59.6939)">
<stop stop-color="#C8DE90"/>
<stop offset="0.457" stop-color="#B8DE8E"/>
<stop offset="1" stop-color="#9FDE8C"/>
</radialGradient>
<radialGradient id="paint5_radial_5199_9727" cx="0" cy="0" r="1" gradientUnits="userSpaceOnUse" gradientTransform="translate(489.253 980.53) rotate(-105.684) scale(58.8866 102.808)">
<stop stop-color="#C8DE90"/>
<stop offset="0.457" stop-color="#B8DE8E"/>
<stop offset="1" stop-color="#9FDE8C"/>
</radialGradient>
<radialGradient id="paint6_radial_5199_9727" cx="0" cy="0" r="1" gradientUnits="userSpaceOnUse" gradientTransform="translate(480.389 1047.73) rotate(-105.684) scale(68.3297 119.294)">
<stop stop-color="#C8DE90"/>
<stop offset="0.457" stop-color="#B8DE8E"/>
<stop offset="1" stop-color="#9FDE8C"/>
</radialGradient>
<radialGradient id="paint7_radial_5199_9727" cx="0" cy="0" r="1" gradientUnits="userSpaceOnUse" gradientTransform="translate(413.135 967.819) rotate(-105.684) scale(39.4732 68.9148)">
<stop stop-color="#C8DE90"/>
<stop offset="0.457" stop-color="#B8DE8E"/>
<stop offset="1" stop-color="#9FDE8C"/>
</radialGradient>
<radialGradient id="paint8_radial_5199_9727" cx="0" cy="0" r="1" gradientUnits="userSpaceOnUse" gradientTransform="translate(371.477 845.672) rotate(-57.4006) scale(99.7179 131.802)">
<stop stop-color="#C8DE90"/>
<stop offset="0.457" stop-color="#B8DE8E"/>
<stop offset="1" stop-color="#9FDE8C"/>
</radialGradient>
<radialGradient id="paint9_radial_5199_9727" cx="0" cy="0" r="1" gradientUnits="userSpaceOnUse" gradientTransform="translate(357.046 831.981) rotate(-78.7637) scale(93.9384 124.178)">
<stop stop-color="#C8DE90"/>
<stop offset="0.457" stop-color="#B8DE8E"/>
<stop offset="1" stop-color="#9FDE8C"/>
</radialGradient>
<radialGradient id="paint10_radial_5199_9727" cx="0" cy="0" r="1" gradientUnits="userSpaceOnUse" gradientTransform="translate(393.412 752.406) rotate(16.2317) scale(58.9818 91.0862)">
<stop stop-color="#4CCC4F"/>
<stop offset="0.4873" stop-color="#56BC5E"/>
<stop offset="1" stop-color="#64A671"/>
</radialGradient>
<radialGradient id="paint11_radial_5199_9727" cx="0" cy="0" r="1" gradientUnits="userSpaceOnUse" gradientTransform="translate(376.733 794.329) rotate(-80.2923) scale(22.4 38.9066)">
<stop stop-color="#E6FFA6"/>
<stop offset="0.4072" stop-color="#D6FFA4"/>
<stop offset="1" stop-color="#B7FFA1"/>
</radialGradient>
<radialGradient id="paint12_radial_5199_9727" cx="0" cy="0" r="1" gradientUnits="userSpaceOnUse" gradientTransform="translate(376.734 794.328) rotate(-80.2922) scale(22.4 38.9065)">
<stop stop-color="#E6FFA6"/>
<stop offset="0.4072" stop-color="#D6FFA4"/>
<stop offset="1" stop-color="#B7FFA1"/>
</radialGradient>
<radialGradient id="paint13_radial_5199_9727" cx="0" cy="0" r="1" gradientUnits="userSpaceOnUse" gradientTransform="translate(376.733 794.329) rotate(-80.2923) scale(22.4 38.9066)">
<stop stop-color="#E6FFA6"/>
<stop offset="0.4072" stop-color="#D6FFA4"/>
<stop offset="1" stop-color="#B7FFA1"/>
</radialGradient>
<radialGradient id="paint14_radial_5199_9727" cx="0" cy="0" r="1" gradientUnits="userSpaceOnUse" gradientTransform="translate(376.734 794.329) rotate(-80.2923) scale(22.4 38.9066)">
<stop stop-color="#E6FFA6"/>
<stop offset="0.4072" stop-color="#D6FFA4"/>
<stop offset="1" stop-color="#B7FFA1"/>
</radialGradient>
<radialGradient id="paint15_radial_5199_9727" cx="0" cy="0" r="1" gradientUnits="userSpaceOnUse" gradientTransform="translate(379.164 799.252) rotate(-91.5728) scale(22.3818 38.944)">
<stop stop-color="#E6FFA6"/>
<stop offset="0.4072" stop-color="#D6FFA4"/>
<stop offset="1" stop-color="#B7FFA1"/>
</radialGradient>
<radialGradient id="paint16_radial_5199_9727" cx="0" cy="0" r="1" gradientUnits="userSpaceOnUse" gradientTransform="translate(376.734 794.329) rotate(-80.2922) scale(22.4 38.9066)">
<stop stop-color="#E6FFA6"/>
<stop offset="0.4072" stop-color="#D6FFA4"/>
<stop offset="1" stop-color="#B7FFA1"/>
</radialGradient>
<radialGradient id="paint17_radial_5199_9727" cx="0" cy="0" r="1" gradientUnits="userSpaceOnUse" gradientTransform="translate(376.733 794.329) rotate(-80.2923) scale(22.4 38.9066)">
<stop stop-color="#E6FFA6"/>
<stop offset="0.4072" stop-color="#D6FFA4"/>
<stop offset="1" stop-color="#B7FFA1"/>
</radialGradient>
<radialGradient id="paint18_radial_5199_9727" cx="0" cy="0" r="1" gradientUnits="userSpaceOnUse" gradientTransform="translate(376.733 794.328) rotate(-80.2923) scale(22.4 38.9066)">
<stop stop-color="#E6FFA6"/>
<stop offset="0.4072" stop-color="#D6FFA4"/>
<stop offset="1" stop-color="#B7FFA1"/>
</radialGradient>
<radialGradient id="paint19_radial_5199_9727" cx="0" cy="0" r="1" gradientUnits="userSpaceOnUse" gradientTransform="translate(360.562 862.859) rotate(-65.6046) scale(83.7777 110.679)">
<stop stop-color="#E6FFA6"/>
<stop offset="0.4072" stop-color="#D6FFA4"/>
<stop offset="1" stop-color="#B7FFA1"/>
</radialGradient>
<linearGradient id="paint20_linear_5199_9727" x1="509.716" y1="731.565" x2="519.529" y2="726.162" gradientUnits="userSpaceOnUse">
<stop stop-color="#FFB5B5"/>
<stop offset="0.1947" stop-color="#FFB7AB"/>
<stop offset="0.5228" stop-color="#FFBD91"/>
<stop offset="0.9419" stop-color="#FEC766"/>
<stop offset="1" stop-color="#FEC860"/>
</linearGradient>
<linearGradient id="paint21_linear_5199_9727" x1="539.364" y1="620.023" x2="554.651" y2="644.263" gradientUnits="userSpaceOnUse">
<stop stop-color="#FFB5B5"/>
<stop offset="0.1947" stop-color="#FFB7AB"/>
<stop offset="0.5228" stop-color="#FFBD91"/>
<stop offset="0.9419" stop-color="#FEC766"/>
<stop offset="1" stop-color="#FEC860"/>
</linearGradient>
<radialGradient id="paint22_radial_5199_9727" cx="0" cy="0" r="1" gradientUnits="userSpaceOnUse" gradientTransform="translate(575.255 729.691) scale(57.8517 58.1775)">
<stop stop-color="#FFDF9C"/>
<stop offset="0.2933" stop-color="#FCD894"/>
<stop offset="0.7483" stop-color="#F5C67E"/>
<stop offset="1" stop-color="#F0BA6F"/>
</radialGradient>
<linearGradient id="paint23_linear_5199_9727" x1="634.119" y1="651.535" x2="593.249" y2="667.465" gradientUnits="userSpaceOnUse">
<stop stop-color="white"/>
<stop offset="0.2538" stop-color="#FFB5B5"/>
<stop offset="0.3991" stop-color="#FFB7AB"/>
<stop offset="0.6439" stop-color="#FFBD91"/>
<stop offset="0.9567" stop-color="#FEC766"/>
<stop offset="1" stop-color="#FEC860"/>
</linearGradient>
<linearGradient id="paint24_linear_5199_9727" x1="782.57" y1="643.247" x2="779.628" y2="533.469" gradientUnits="userSpaceOnUse">
<stop stop-color="#6A4727"/>
<stop offset="0.1931" stop-color="#734D2A"/>
<stop offset="0.5059" stop-color="#8B5E31"/>
<stop offset="0.8973" stop-color="#B27A3D"/>
<stop offset="1" stop-color="#BD8240"/>
</linearGradient>
<linearGradient id="paint25_linear_5199_9727" x1="726.476" y1="605.068" x2="835.957" y2="602.134" gradientUnits="userSpaceOnUse">
<stop stop-color="#6A4727"/>
<stop offset="0.1931" stop-color="#734D2A"/>
<stop offset="0.5059" stop-color="#8B5E31"/>
<stop offset="0.8973" stop-color="#B27A3D"/>
<stop offset="1" stop-color="#BD8240"/>
</linearGradient>
<radialGradient id="paint26_radial_5199_9727" cx="0" cy="0" r="1" gradientUnits="userSpaceOnUse" gradientTransform="translate(781.202 603.612) rotate(-11.2248) scale(53.5846 10.6711)">
<stop stop-color="#C4CF4D"/>
<stop offset="0.2634" stop-color="#C6D24D"/>
<stop offset="0.4274" stop-color="#CCDA4E"/>
<stop offset="0.5637" stop-color="#D5E950"/>
<stop offset="0.6193" stop-color="#DBF151"/>
<stop offset="1" stop-color="#C4CF4D"/>
</radialGradient>
<linearGradient id="paint27_linear_5199_9727" x1="728.133" y1="614.509" x2="830.247" y2="577.465" gradientUnits="userSpaceOnUse">
<stop stop-color="#6A4727"/>
<stop offset="0.1931" stop-color="#734D2A"/>
<stop offset="0.5059" stop-color="#8B5E31"/>
<stop offset="0.8973" stop-color="#B27A3D"/>
<stop offset="1" stop-color="#BD8240"/>
</linearGradient>
<radialGradient id="paint28_radial_5199_9727" cx="0" cy="0" r="1" gradientUnits="userSpaceOnUse" gradientTransform="translate(777.786 591.193) rotate(169.75) scale(53.5846 10.6711)">
<stop stop-color="#C4CF4D"/>
<stop offset="0.2634" stop-color="#C6D24D"/>
<stop offset="0.4274" stop-color="#CCDA4E"/>
<stop offset="0.5637" stop-color="#D5E950"/>
<stop offset="0.6193" stop-color="#DBF151"/>
<stop offset="1" stop-color="#C4CF4D"/>
</radialGradient>
<linearGradient id="paint29_linear_5199_9727" x1="831.697" y1="582.109" x2="723.111" y2="585.02" gradientUnits="userSpaceOnUse">
<stop stop-color="#6A4727"/>
<stop offset="0.1931" stop-color="#734D2A"/>
<stop offset="0.5059" stop-color="#8B5E31"/>
<stop offset="0.8973" stop-color="#B27A3D"/>
<stop offset="1" stop-color="#BD8240"/>
</linearGradient>
<radialGradient id="paint30_radial_5199_9727" cx="0" cy="0" r="1" gradientUnits="userSpaceOnUse" gradientTransform="translate(777.461 578.081) rotate(-11.2248) scale(53.5846 10.6711)">
<stop stop-color="#C4CF4D"/>
<stop offset="0.2634" stop-color="#C6D24D"/>
<stop offset="0.4274" stop-color="#CCDA4E"/>
<stop offset="0.5637" stop-color="#D5E950"/>
<stop offset="0.6193" stop-color="#DBF151"/>
<stop offset="1" stop-color="#C4CF4D"/>
</radialGradient>
<linearGradient id="paint31_linear_5199_9727" x1="802.719" y1="646.546" x2="762.751" y2="537.098" gradientUnits="userSpaceOnUse">
<stop stop-color="#6A4727"/>
<stop offset="0.1931" stop-color="#734D2A"/>
<stop offset="0.5059" stop-color="#8B5E31"/>
<stop offset="0.8973" stop-color="#B27A3D"/>
<stop offset="1" stop-color="#BD8240"/>
</linearGradient>
</defs>
</svg>
