<svg width="1342" height="1024" viewBox="0 0 1342 1024" fill="none" xmlns="http://www.w3.org/2000/svg">
<path d="M972.922 399.431L169 867.129L388.777 996L1171.01 535.542C1176.79 511.216 1168.6 498.377 1163.78 494.998C1115.58 466.487 1015.72 407.457 1001.84 399.431C987.959 391.406 976.778 396.087 972.922 399.431Z" fill="#F4EFEF" stroke="black" stroke-linejoin="round"/>
<path d="M366 785C382.24 791.859 450.1 831.858 482 851" stroke="black"/>
<path d="M451 734.857C467.24 741.82 535.1 782.425 567 801.857" stroke="black"/>
<path d="M536 685.714C552.24 692.573 620.1 732.572 652 751.714" stroke="black"/>
<path d="M621 636.571C637.24 643.43 705.1 683.429 737 702.571" stroke="black"/>
<path d="M706 587.429C722.24 594.288 790.1 634.287 822 653.429" stroke="black"/>
<path d="M791 537.285C807.38 544.248 875.825 584.853 908 604.285" stroke="black"/>
<path d="M877 487.143C893.1 494.105 960.375 534.711 992 554.143" stroke="black"/>
<path d="M961 437C977.24 443.963 1045.1 484.568 1077 504" stroke="black"/>
<path d="M341.037 967.974L1163 497" stroke="black"/>
<ellipse cx="535.093" cy="883.231" rx="17.7269" ry="12.8657" transform="rotate(-54.8943 535.093 883.231)" fill="#8FE3C1"/>
<ellipse cx="826.042" cy="715.487" rx="17.7269" ry="12.8657" transform="rotate(-54.8943 826.042 715.487)" fill="#8FE3C1"/>
<ellipse cx="973.554" cy="631.609" rx="17.7269" ry="12.8657" transform="rotate(-54.8943 973.554 631.609)" fill="#8FE3C1"/>
<ellipse cx="1118.17" cy="547.73" rx="17.7269" ry="12.8657" transform="rotate(-54.8943 1118.17 547.73)" fill="#8FE3C1"/>
<ellipse cx="681.423" cy="799.366" rx="17.7269" ry="12.8657" transform="rotate(-54.8943 681.423 799.366)" fill="#8FE3C1"/>
<path d="M159.5 912.896V1011.44L71.5 962.146V859.66L159.5 912.896Z" fill="#D9D9D9" stroke="#8FE3C1" stroke-width="3"/>
<path d="M246.5 960.209L162.5 1011.33V912.915L246.5 857.778V960.209Z" fill="#3DCE94" stroke="#8FE3C1" stroke-width="3"/>
<path d="M245.135 855.544L160.989 910.231L72.959 857.515L161.02 806.733L245.135 855.544Z" fill="#D9D9D9" stroke="#8FE3C1" stroke-width="3"/>
<path d="M474.741 768.273L408.44 758.64C403.816 757.967 399.114 757.89 394.469 758.411C355.514 762.759 316.556 767.105 277.601 771.453C273.834 771.874 271 774.815 271 778.309V836.86C271 839.025 272.463 840.963 274.671 841.714C308.952 853.41 343.23 865.104 377.511 876.8C383.335 878.787 389.819 878.295 395.211 875.458C423.263 860.697 451.316 845.933 479.369 831.172C480.997 830.315 482 828.717 481.989 826.992C481.891 809.902 481.792 792.808 481.69 775.718C481.669 772.003 478.726 768.852 474.741 768.273Z" fill="#E5CA9A"/>
<path d="M271 777.543V837.353C271 839.1 272.115 840.656 273.782 841.229C308.907 853.285 344.032 865.34 379.153 877.393C381.836 878.312 384.632 876.335 384.632 873.517V795.526C384.632 793.53 383.183 791.825 381.203 791.485L275.828 773.502C273.307 773.071 271 775 271 777.543Z" fill="url(#paint0_radial_5187_5544)"/>
<path d="M387.752 795.261V872.245C387.752 875.332 391.054 877.312 393.804 875.872C422.469 860.881 451.134 845.888 479.795 830.897C481.163 830.182 482.018 828.765 482 827.228C481.817 809.821 481.638 792.413 481.455 775.003C481.427 772.372 478.948 770.447 476.37 771.055L390.921 791.271C389.067 791.711 387.752 793.361 387.752 795.261Z" fill="url(#paint1_radial_5187_5544)"/>
<path d="M394.62 758.382L277.541 771.609L385.364 788.974C385.888 789.058 386.426 789.042 386.946 788.923L476.675 768.538L410.16 758.654C405.015 757.89 399.789 757.8 394.62 758.382Z" fill="url(#paint2_radial_5187_5544)"/>
<path d="M321.768 830.749C318.209 829.804 315.93 825.675 315.653 825.151C315.185 824.265 315.403 823.317 316.141 823.029C316.883 822.744 317.861 823.229 318.329 824.116C318.403 824.255 320.147 827.536 322.376 827.565C323.79 827.591 324.954 826.335 325.573 825.151C325.946 824.436 326.888 824.333 327.683 824.934C328.474 825.53 328.812 826.594 328.439 827.309C327.859 828.419 326.182 830.995 323.115 830.936C322.651 830.933 322.201 830.865 321.768 830.749Z" fill="#FF9A00"/>
<path d="M304.173 825.381C307.538 826.277 310.267 824.19 310.267 820.722L298.078 817.479C298.078 820.948 300.807 824.485 304.173 825.381Z" fill="#FF9A00"/>
<path d="M339.829 834.861C343.194 835.757 345.923 833.671 345.923 830.202L333.734 826.96C333.734 830.429 336.46 833.965 339.829 834.861Z" fill="#FF9A00"/>
<path d="M608.448 645.473C607.478 639.816 605.503 635.401 603.883 632.452C603.906 630.296 603.667 625.756 601.039 620.896C598.021 615.315 593.599 612.531 591.729 611.49C587.558 602.538 582.661 599.139 578.984 597.683C576.995 596.895 570.321 593.518 563.779 595.605C551.597 599.492 553.836 617.451 542.633 624.646C536.925 628.311 526.957 629.674 508.265 620.558C498.538 619.201 489.703 623.381 486.339 630.508C484.05 635.357 484.938 640.216 485.485 642.374C484.385 645.547 483.186 650.231 483.181 655.971C483.177 664.685 485.935 671.362 487.712 674.889C487.653 688.706 492.13 696.706 494.864 700.554C501.289 709.593 508.515 714.74 508.515 714.74C510.069 716.821 512.314 720.136 514.329 724.565C516.627 729.615 516.477 731.392 518.173 733.999C521.831 739.626 528.874 741.102 532.955 741.957C545.22 744.528 549.64 738.89 557.655 742.954C563.07 745.701 562.582 749.048 566.803 749.711C575.844 751.133 584.616 736.794 585.494 735.326C588.911 729.607 590.123 724.132 590.613 720.683C594.921 714.728 600.931 704.855 604.44 691.376C607.21 680.747 607.487 671.464 607.162 664.882C608.329 661.105 609.922 654.064 608.448 645.473Z" fill="url(#paint3_radial_5187_5544)"/>
<path d="M528.778 713.39C531.347 708.581 533.969 702.61 535.931 695.528C536.783 692.452 537.414 689.517 537.876 686.776C537.321 687.081 536.767 687.385 536.213 687.693C536.043 688.558 535.816 689.507 535.517 690.514C535.212 691.543 534.838 692.614 534.374 693.707C531.823 699.703 527.742 703.713 524.574 706.183C525.973 708.587 527.375 710.987 528.778 713.39Z" fill="url(#paint4_radial_5187_5544)"/>
<path d="M523.78 715.308C518.985 713.055 511.461 708.634 505.417 700.365C503.456 697.681 501.98 695.045 500.863 692.643C501.485 692.761 502.106 692.879 502.728 693.001C504.514 695.883 507.494 699.926 512.166 703.652C515.551 706.348 518.829 708.088 521.419 709.216C522.205 711.244 522.992 713.276 523.78 715.308Z" fill="url(#paint5_radial_5187_5544)"/>
<path d="M513.991 688.737C509.376 683.724 504.057 676.96 499.31 668.284C496.462 663.08 494.34 658.137 492.744 653.715C493.366 653.833 493.987 653.951 494.609 654.073C496.418 658.039 499.057 662.903 502.892 668.001C506.611 672.943 510.421 676.727 513.644 679.513C513.76 682.585 513.874 685.661 513.991 688.737Z" fill="url(#paint6_radial_5187_5544)"/>
<path d="M577.958 705.039C573.456 701.184 568.285 695.91 563.593 688.898C561.811 686.236 560.307 683.639 559.039 681.176C559.661 681.294 560.282 681.412 560.904 681.534C561.333 682.304 561.842 683.137 562.437 684.002C562.437 684.002 563.361 685.34 564.512 686.686C565.985 688.402 571.072 692.79 578.501 697.923C578.324 700.295 578.139 702.666 577.958 705.039Z" fill="url(#paint7_radial_5187_5544)"/>
<path d="M574.942 641.964C577.023 636.32 578.972 629.088 579.579 620.565C579.788 617.612 579.816 614.83 579.72 612.245C579.098 612.435 578.48 612.629 577.858 612.82C578.067 614.581 578.16 616.57 578.018 618.745C577.549 625.974 574.73 631.5 572.679 634.731C573.435 637.141 574.186 639.551 574.942 641.964Z" fill="url(#paint8_radial_5187_5544)"/>
<path d="M583.162 672.718C585.567 669.187 588.895 663.363 590.756 655.487C592.968 646.128 592.072 638.245 591.221 633.762C590.692 633.938 590.16 634.118 589.631 634.294C589.941 637.964 589.98 643.976 587.794 650.894C586.016 656.533 583.403 660.734 581.41 663.436C581.995 666.53 582.577 669.625 583.162 672.718Z" fill="url(#paint9_radial_5187_5544)"/>
<path d="M582.311 704.349C585.516 701.369 591.249 695.196 594.403 685.56C596.27 679.854 596.635 674.769 596.587 671.153C595.995 671.528 595.405 671.902 594.812 672.277C594.585 675.002 593.936 678.87 592.064 683.117C589.238 689.533 585.063 693.547 582.597 695.583C582.503 698.507 582.409 701.428 582.311 704.349Z" fill="url(#paint10_radial_5187_5544)"/>
<path d="M577.183 671.979C576.171 663.361 574.713 657.361 572.762 649.34C568.742 632.815 563.919 619.522 560.157 610.281C560.391 609.402 560.622 608.52 560.856 607.641C572.123 628.929 595.304 680.409 578.569 735.315C576.113 743.374 573.018 750.781 569.537 757.556C567.055 753.636 564.577 749.716 562.095 745.8C563.546 743.674 565.326 740.873 567.273 737.097C567.273 737.097 570.886 730.22 573.43 722.563C576.374 713.709 579.097 695.452 577.183 671.979Z" fill="url(#paint11_radial_5187_5544)"/>
<path d="M520.94 633.345C519.058 632.745 517.174 632.146 515.293 631.546C513.446 638.382 499.807 692.061 532.054 728.714C539.766 737.478 548.54 743.495 556.77 747.657C555.337 742.836 553.902 738.015 552.469 733.193C545.721 729.315 540.628 724.933 536.78 720.796C507.969 689.852 519.096 640.94 520.94 633.345Z" fill="url(#paint12_radial_5187_5544)"/>
<path d="M556.926 734.699C556.321 734.864 555.674 734.765 555.146 734.415C547.317 729.288 542.125 723.283 539.718 716.558C539.436 715.776 539.199 714.997 538.969 714.246C538.211 711.776 537.497 709.444 535.38 707.088C533.33 704.805 531.19 703.878 528.478 702.704C527.75 702.387 526.993 702.059 526.192 701.686C525.849 701.529 517.726 697.694 509.611 689.804C503.538 683.902 499.329 675.394 497.414 665.176C493.402 659.742 490.655 653.423 489.457 646.873C488.616 642.272 488.525 637.576 489.178 632.908C488.159 630.012 487.214 625.662 487.965 620.52C488.806 614.778 491.361 610.565 493.532 607.907C494.341 599.836 496.996 593.747 501.427 589.797C503.736 587.739 505.72 586.981 507.818 586.177C509.771 585.427 511.987 584.58 515.24 582.426C518.824 580.055 520.657 578.105 522.129 576.542C523.601 574.974 524.874 573.622 527.007 573.037C527.45 572.916 527.908 572.834 528.406 572.785C536.271 572.024 542.725 581.103 546.583 586.528C550.476 592.002 553.293 598.153 554.968 604.813C556.483 606.624 557.786 608.602 558.847 610.698C560.596 614.155 561.671 617.88 562.051 621.784C564.193 623.58 566.057 625.659 567.597 627.977C570.149 631.81 571.776 636.279 572.335 640.96C577.37 645.113 585.008 653.173 585.285 664.018C585.292 664.267 585.255 664.517 585.179 664.756C583.056 671.394 580.209 677.321 576.711 682.379C574.575 685.471 572.919 687.961 569.623 692.928C566.515 697.606 566.221 698.155 566.103 698.875C565.747 701.042 566.606 702.579 568.28 705.325C569.374 707.117 570.613 709.149 571.539 711.809C573.242 716.704 573.308 722.263 571.736 728.328C571.554 729.036 571.035 729.608 570.351 729.853L557.087 734.64C557.039 734.664 556.983 734.683 556.926 734.699Z" fill="url(#paint13_radial_5187_5544)"/>
<path d="M517.076 638.539C520.822 640.183 524.236 640.729 526.646 640.901C526.391 639.633 526.139 638.363 525.884 637.094C523.968 637.237 520.736 637.228 517.048 635.914C512.258 634.21 509.281 631.228 507.935 629.687C507.064 629.511 506.19 629.336 505.318 629.156C507.08 631.493 510.827 635.795 517.076 638.539Z" fill="url(#paint14_radial_5187_5544)"/>
<path d="M528.982 616.169C531.181 615.058 534.168 613.239 537.147 610.332C539.739 607.803 541.494 605.263 542.648 603.285C542.015 603.32 541.386 603.354 540.753 603.389C539.705 604.8 538.318 606.413 536.516 608.013C533.623 610.577 530.738 612.145 528.562 613.098C528.7 614.123 528.841 615.146 528.982 616.169Z" fill="url(#paint15_radial_5187_5544)"/>
<path d="M540.162 661.294C540.988 663.654 541.814 666.011 542.636 668.372C545.524 666.468 549.796 663.151 553.654 657.875C557.756 652.266 559.647 646.83 560.56 643.382C559.725 643.84 558.887 644.302 558.052 644.76C556.561 647.781 553.573 652.764 548.039 656.918C545.187 659.063 542.41 660.42 540.162 661.294Z" fill="url(#paint16_radial_5187_5544)"/>
<path d="M531.839 635.743C532.015 636.895 532.191 638.047 532.368 639.199C534.585 637.828 537.103 636.007 539.636 633.607C544.608 628.898 547.586 623.906 549.333 620.289C548.666 620.701 548.003 621.115 547.336 621.527C545.297 624.443 542.346 627.998 538.2 631.367C535.976 633.18 533.807 634.611 531.839 635.743Z" fill="url(#paint17_radial_5187_5544)"/>
<path d="M565.616 661.549C564.657 664.947 562.436 671.012 557.114 676.595C554.128 679.73 551.052 681.78 548.652 683.103C549.534 685.43 550.414 687.761 551.296 690.087C554.13 687.681 557.693 684.119 560.916 679.162C565.719 671.767 567.56 664.647 568.341 660.173C567.434 660.632 566.524 661.093 565.616 661.549Z" fill="url(#paint18_radial_5187_5544)"/>
<path d="M514.494 613.907C518.166 616.382 521.831 616.764 523.532 616.833C523.53 615.819 523.528 614.804 523.526 613.79C522.107 613.84 519.002 613.753 515.736 611.908C511.248 609.377 509.521 605.259 509.064 604.042C508.436 603.752 507.805 603.463 507.178 603.173C507.516 604.586 509.033 610.227 514.494 613.907Z" fill="url(#paint19_radial_5187_5544)"/>
<path d="M537.12 670.298C536.052 667.728 534.989 665.16 533.922 662.589C531.4 662.393 528.303 661.899 524.91 660.766C518.195 658.524 513.513 654.845 510.795 652.308C509.974 652.486 509.153 652.667 508.332 652.845C511.64 656.489 516.879 661.365 524.37 665.344C529.097 667.854 533.513 669.362 537.12 670.298Z" fill="url(#paint20_radial_5187_5544)"/>
<path d="M543.21 685.104C539.37 684.584 534.89 683.673 530.023 682.07C522.135 679.47 515.924 675.94 511.454 672.894C510.677 673.06 509.897 673.23 509.119 673.396C513.072 677.26 519.51 682.593 528.647 686.601C535.084 689.425 540.963 690.754 545.474 691.406C544.718 689.307 543.966 687.206 543.21 685.104Z" fill="url(#paint21_radial_5187_5544)"/>
<path d="M532.273 637.792C527.95 622.45 527.301 608.463 527.301 608.463C526.912 600.098 527.463 593.225 527.982 588.754L526.342 588.788C525.736 592.726 524.957 598.76 524.613 606.155C524.613 606.155 523.892 621.659 526.355 639.129C528.835 656.729 542.038 705.977 565.108 770.946C567.31 777.142 574.111 780.495 580.223 778.199C580.386 778.136 580.55 778.073 580.712 778.007C580.874 777.94 581.038 777.866 581.195 777.794C588.156 774.6 590.834 766.009 587.192 759.215C547.348 684.916 536.326 652.181 532.273 637.792Z" fill="url(#paint22_radial_5187_5544)"/>
<path d="M531.631 650.405C531.881 651.908 536.379 653.677 539.603 651.484C542.017 649.84 543.086 646.408 542.09 645.375C540.342 643.566 531.25 648.101 531.631 650.405Z" fill="#534741"/>
<path d="M525.564 647.523C523.193 646.489 520.443 647.587 519.422 649.973C518.4 652.359 519.498 655.132 521.868 656.167C524.239 657.202 526.989 656.103 528.011 653.717C529.032 651.331 527.938 648.557 525.564 647.523ZM527.221 653.373C526.387 655.322 524.143 656.213 522.211 655.371L525.225 648.322C527.161 649.163 528.054 651.424 527.221 653.373Z" fill="#534741"/>
<path d="M550.974 637.39C548.603 636.356 545.853 637.455 544.832 639.841C543.81 642.227 544.908 645 547.279 646.034C549.649 647.069 552.399 645.97 553.421 643.584C554.441 641.195 553.345 638.425 550.974 637.39ZM552.63 643.237C551.796 645.186 549.553 646.077 547.62 645.235L550.635 638.185C552.568 639.031 553.461 641.292 552.63 643.237Z" fill="#534741"/>
<path d="M727.027 577.343L726.273 583.911C726.266 583.975 726.207 584.024 726.144 584.013C726.088 584.006 726.046 583.964 726.043 583.911L725.285 577.339C725.229 576.855 725.575 576.416 726.057 576.359C726.539 576.303 726.975 576.651 727.031 577.135C727.034 577.206 727.034 577.276 727.027 577.343Z" fill="#F37343"/>
<path d="M734.709 581.138L729.574 585.266C729.511 585.316 729.42 585.305 729.371 585.245C729.329 585.193 729.329 585.115 729.371 585.063L733.477 579.898C733.781 579.515 734.332 579.456 734.713 579.761C735.093 580.067 735.153 580.621 734.849 581.004C734.804 581.05 734.755 581.099 734.709 581.138Z" fill="#F37343"/>
<path d="M718.838 579.895L723.035 584.968C723.132 585.084 723.115 585.26 723 585.355C722.898 585.439 722.748 585.439 722.651 585.355L717.606 581.134C717.232 580.822 717.183 580.267 717.49 579.892C717.801 579.516 718.353 579.467 718.726 579.776C718.768 579.818 718.807 579.857 718.838 579.895Z" fill="#F37343"/>
<path d="M714.98 587.531L721.516 588.293C721.578 588.3 721.627 588.359 721.617 588.422C721.61 588.479 721.568 588.521 721.516 588.524L714.98 589.286C714.498 589.342 714.062 588.995 714.006 588.51C713.95 588.026 714.296 587.587 714.777 587.531C714.844 587.524 714.914 587.524 714.98 587.531Z" fill="#F37343"/>
<path d="M717.517 595.767L722.562 591.547C722.677 591.449 722.852 591.467 722.946 591.582C723.03 591.684 723.03 591.835 722.946 591.934L718.75 597.007C718.439 597.383 717.887 597.432 717.514 597.123C717.14 596.81 717.091 596.256 717.399 595.88C717.437 595.841 717.479 595.799 717.517 595.767Z" fill="#F37343"/>
<path d="M725.111 599.65L725.868 593.078C725.875 593.015 725.935 592.966 725.997 592.976C726.053 592.983 726.095 593.025 726.099 593.078L726.856 599.65C726.912 600.135 726.567 600.574 726.085 600.63C725.603 600.686 725.167 600.338 725.111 599.854C725.104 599.784 725.104 599.713 725.111 599.65Z" fill="#F37343"/>
<path d="M733.303 597.095L729.107 592.022C729.009 591.906 729.026 591.73 729.141 591.635C729.243 591.551 729.393 591.551 729.491 591.635L734.535 595.856C734.909 596.168 734.958 596.723 734.651 597.098C734.34 597.474 733.788 597.523 733.415 597.214C733.376 597.176 733.334 597.134 733.303 597.095Z" fill="#F37343"/>
<path d="M737.164 589.459L730.628 588.697C730.565 588.69 730.516 588.63 730.527 588.567C730.534 588.511 730.576 588.469 730.628 588.465L737.164 587.703C737.645 587.647 738.082 587.995 738.138 588.479C738.194 588.964 737.848 589.403 737.366 589.459C737.296 589.469 737.227 589.466 737.164 589.459Z" fill="#F37343"/>
<path d="M734.921 617.314C735.343 616.405 737.927 610.573 735.148 604.281C733.151 599.766 729.541 597.607 728.295 596.937C727.136 597 723.03 597.358 719.797 600.644C717.105 603.379 714.787 608.386 716.801 612.981C719.364 618.824 726.786 619.111 727.802 619.136C731.081 619.21 733.615 618.041 734.921 617.314Z" fill="url(#paint23_linear_5187_5544)"/>
<path d="M745.595 544.912C744.457 542.159 742.875 537.311 743.151 531.219C743.315 527.589 743.748 518.096 751.181 511.909C758.369 505.923 769.297 505.372 777.365 510.154C784.096 514.146 786.708 520.585 787.49 522.793C784.519 526.648 779.467 532.199 771.779 536.837C761.138 543.262 750.964 544.599 745.595 544.912Z" fill="url(#paint24_linear_5187_5544)"/>
<path d="M799.786 653.108C783.803 657.553 763.627 656.953 749.068 650.078C731.333 641.705 726.375 625.109 726.438 610.454C727.245 595.698 729.381 581.082 732.935 566.554C737.558 551.846 745.944 537.543 762.133 527.923C772.491 521.768 784.941 518.078 798.106 521.006C809.24 524.552 815.039 533.137 818.928 541.138C823.858 551.281 826.857 561.642 827.761 572.441C828.592 581.636 830.488 590.582 833.49 599.521C841.67 621.545 829.702 645.012 799.786 653.108Z" fill="url(#paint25_radial_5187_5544)"/>
<path d="M817.165 562.466C815.556 562.157 808.901 560.686 804.247 554.391C798.574 546.716 800.463 538.076 800.756 536.836C803.825 530.124 810.72 526.216 817.539 527.16C824.954 528.186 829.426 534.561 830.781 539.996C833.089 549.244 826.522 556.329 825.593 557.298C822.528 560.493 819.068 561.869 817.165 562.466Z" fill="url(#paint26_linear_5187_5544)"/>
<path d="M775.054 585.256C774.722 586.801 778.392 590.234 782.344 589.357C785.301 588.7 787.647 585.804 787.074 584.427C786.076 582.015 775.56 582.89 775.054 585.256Z" fill="#F37343"/>
<path d="M770.291 580.151C768.395 578.244 765.32 578.244 763.424 580.151C761.528 582.057 761.528 585.15 763.424 587.056C765.32 588.963 768.395 588.963 770.291 587.056C772.19 585.15 772.19 582.057 770.291 580.151ZM769.659 586.421C768.113 587.976 765.606 587.976 764.059 586.421L769.659 580.79C771.206 582.341 771.206 584.862 769.659 586.421Z" fill="#F37343"/>
<path d="M798.703 580.151C796.807 578.244 793.732 578.244 791.836 580.151C789.94 582.057 789.94 585.15 791.836 587.056C793.732 588.963 796.807 588.963 798.703 587.056C800.599 585.15 800.599 582.057 798.703 580.151ZM798.068 586.421C796.521 587.976 794.014 587.976 792.468 586.421L798.068 580.79C799.618 582.341 799.618 584.862 798.068 586.421Z" fill="#F37343"/>
<path d="M814.931 512.703L814.174 520.177C814.167 520.24 814.111 520.29 814.045 520.283C813.989 520.276 813.947 520.233 813.94 520.177L813.182 512.703C813.133 512.218 813.483 511.786 813.968 511.737C814.45 511.688 814.879 512.039 814.928 512.527C814.938 512.58 814.938 512.643 814.931 512.703Z" fill="#F37343"/>
<path d="M823.702 516.934L817.931 521.698C817.868 521.747 817.777 521.74 817.728 521.677C817.683 521.624 817.686 521.547 817.728 521.494L822.466 515.691C822.773 515.315 823.325 515.259 823.702 515.568C824.075 515.877 824.131 516.432 823.824 516.811C823.785 516.856 823.743 516.898 823.702 516.934Z" fill="#F37343"/>
<path d="M805.654 515.691L810.486 521.403C810.584 521.519 810.57 521.691 810.455 521.789C810.35 521.877 810.2 521.874 810.102 521.789L804.422 516.93C804.052 516.614 804.01 516.06 804.321 515.687C804.631 515.315 805.187 515.273 805.557 515.586C805.588 515.621 805.623 515.659 805.654 515.691Z" fill="#F37343"/>
<path d="M801.346 524.412L808.778 525.174C808.841 525.181 808.89 525.237 808.883 525.304C808.876 525.36 808.834 525.402 808.778 525.409L801.346 526.171C800.864 526.22 800.434 525.869 800.385 525.381C800.337 524.897 800.686 524.465 801.171 524.416C801.227 524.405 801.29 524.405 801.346 524.412Z" fill="#F37343"/>
<path d="M804.32 533.744L810 528.885C810.116 528.786 810.287 528.8 810.384 528.916C810.472 529.022 810.468 529.173 810.384 529.271L805.552 534.983C805.238 535.355 804.687 535.398 804.317 535.085C803.946 534.769 803.905 534.214 804.215 533.842C804.25 533.807 804.285 533.772 804.32 533.744Z" fill="#F37343"/>
<path d="M812.991 538.073L813.748 530.598C813.755 530.535 813.811 530.486 813.877 530.493C813.933 530.5 813.975 530.542 813.982 530.598L814.74 538.073C814.789 538.557 814.439 538.989 813.954 539.038C813.472 539.088 813.043 538.736 812.994 538.248C812.987 538.192 812.987 538.129 812.991 538.073Z" fill="#F37343"/>
<path d="M822.27 535.081L817.438 529.369C817.34 529.253 817.354 529.081 817.47 528.982C817.574 528.895 817.724 528.898 817.822 528.982L823.506 533.842C823.876 534.158 823.918 534.712 823.607 535.084C823.296 535.457 822.741 535.499 822.371 535.186C822.336 535.151 822.301 535.116 822.27 535.081Z" fill="#F37343"/>
<path d="M826.577 526.364L819.144 525.602C819.082 525.595 819.033 525.539 819.04 525.472C819.047 525.416 819.089 525.374 819.144 525.367L826.577 524.605C827.059 524.556 827.489 524.907 827.537 525.395C827.586 525.88 827.237 526.311 826.752 526.361C826.696 526.371 826.633 526.368 826.577 526.364Z" fill="#F37343"/>
<path d="M1045.94 483.949C1046.75 497.745 1042.85 511.757 1032.55 521.328C1022.35 530.805 1007.87 534.677 994.257 534.845C992.623 534.875 991.806 534.897 990.173 534.955C976.518 535.394 961.97 532.479 951.211 523.508C941.905 515.747 936.993 504.23 936.014 492.317L1045.12 470.863C1045.39 475.227 1045.67 479.588 1045.94 483.949Z" fill="url(#paint27_linear_5187_5544)"/>
<path d="M1044.99 471.032C1046.23 477.321 1022.85 487.221 992.774 493.143C962.699 499.061 937.313 498.763 936.074 492.47C934.835 486.181 958.215 476.281 988.29 470.359C1018.37 464.437 1043.75 464.739 1044.99 471.032Z" fill="url(#paint28_linear_5187_5544)"/>
<path d="M958.022 495.941C942.452 496.358 937.769 493.786 937.456 492.198C937.131 490.54 940.479 487.022 950.99 482.572C960.767 478.433 974.109 474.588 988.566 471.741C1000.91 469.311 1013.16 467.825 1023.05 467.56C1038.62 467.143 1043.3 469.716 1043.61 471.304C1043.94 472.962 1040.59 476.479 1030.08 480.929C1020.3 485.068 1006.96 488.914 992.502 491.761C980.154 494.19 967.906 495.676 958.022 495.941Z" fill="url(#paint29_radial_5187_5544)"/>
<path d="M981.606 479.867C980.862 480.396 977.587 482.718 978.074 484.239C979.119 487.509 996.835 484.76 1002.31 480.565C1002.94 480.081 1004.59 478.816 1004.28 477.817C1004.05 477.062 1002.79 476.783 1001.87 476.619C995.78 475.54 989.609 477.003 987.358 477.586C983.951 478.471 982.687 479.101 981.606 479.867Z" fill="#FFE6CC"/>
<path d="M970.983 483.963C971.292 483.316 974.716 483.838 974.728 484.287C974.738 484.676 972.193 485.52 971.248 484.58C971.205 484.536 970.87 484.201 970.983 483.963Z" fill="#063B01"/>
<path d="M992.889 489.207C993.245 489.524 993.932 489.628 994.307 489.355C995.167 488.721 994.307 486.095 993.668 486.081C993.061 486.069 991.98 488.4 992.889 489.207Z" fill="#063B01"/>
<path d="M978.709 489.418C978.848 489.772 980.429 489.832 981.501 489C982.233 488.429 982.747 487.429 982.488 487.187C981.988 486.723 978.476 488.828 978.709 489.418Z" fill="#063B01"/>
<path d="M1007.73 483.809C1006.58 484.485 1004.14 482.891 1004.3 482.392C1004.4 482.059 1005.67 482.173 1007.09 482.303C1007.88 482.373 1008.18 482.463 1008.29 482.682C1008.46 483.014 1008.14 483.57 1007.73 483.809Z" fill="#063B01"/>
<path d="M989.577 474.643C989.245 474.442 988.17 474.92 988.139 475.352C988.131 475.444 988.215 475.564 988.38 475.805C988.653 476.205 988.789 476.401 988.897 476.405C989.305 476.412 990.015 474.909 989.577 474.643Z" fill="#063B01"/>
<path d="M979.375 477.559C978.751 477.583 978.177 478.033 978.237 478.281C978.346 478.713 980.521 478.798 980.664 478.391C980.752 478.139 980.136 477.528 979.375 477.559Z" fill="#063B01"/>
<path d="M1008.83 474.864C1008.83 474.573 1007.69 474.14 1006.68 474.483C1005.99 474.719 1005.34 475.323 1005.46 475.561C1005.69 476.022 1008.83 475.352 1008.83 474.864Z" fill="#063B01"/>
<path d="M974.358 480.462C974.24 480.226 974.588 479.75 975.014 479.546C976.088 479.037 977.748 480.213 977.647 480.514C977.624 480.581 977.519 480.577 976.008 480.6C974.727 480.617 974.44 480.628 974.358 480.462Z" fill="#A2C71E"/>
<path d="M997.73 473.477C998.082 472.991 998.792 472.768 998.979 472.949C999.311 473.267 998.239 475.053 997.795 474.949C997.523 474.89 997.301 474.071 997.73 473.477Z" fill="#063B01"/>
<path d="M1005.04 472.952C1005.02 472.693 1004.47 472.437 1003.99 472.46C1002.79 472.517 1001.96 474.318 1002.2 474.533C1002.25 474.581 1002.34 474.526 1003.67 473.841C1004.8 473.26 1005.05 473.134 1005.04 472.952Z" fill="#A2C71E"/>
<path d="M985 489.615C985.318 490.063 987.012 489.933 987.744 488.973C988.439 488.06 988.109 486.609 987.597 486.468C987.3 486.385 986.948 486.752 986.409 487.311C985.856 487.887 984.661 489.133 985 489.615Z" fill="#A2C71E"/>
<path d="M973.77 487.326C973.739 487.604 974.051 487.855 974.271 487.962C975.451 488.523 977.672 486.667 977.471 486.255C977.255 485.801 973.866 486.46 973.77 487.326Z" fill="#A2C71E"/>
<path d="M994.504 473.908C994.348 473.705 993.805 473.618 993.464 473.732C992.612 474.022 992.988 475.615 993.286 475.734C993.354 475.76 993.387 475.699 993.99 474.887C994.494 474.199 994.613 474.049 994.504 473.908Z" fill="#A2C71E"/>
<path d="M1001.38 486.292C1001.35 486.724 1000.25 487.245 999.366 486.974C998.283 486.638 997.827 485.187 998.162 484.876C998.361 484.692 998.85 484.889 999.684 485.228C1000.61 485.6 1001.4 485.919 1001.38 486.292Z" fill="#A2C71E"/>
<path d="M984.214 475.766C983.909 475.753 983.402 475.841 983.328 476.081C983.192 476.523 984.527 477.481 984.997 477.219C985.263 477.071 985.315 476.505 985.049 476.14C984.787 475.793 984.334 475.77 984.214 475.766Z" fill="#A2C71E"/>
<path d="M1009.8 477.298C1010.01 477.496 1009.93 477.877 1009.83 478.09C1009.29 479.227 1006.32 479.1 1006.21 478.657C1006.08 478.18 1009.15 476.68 1009.8 477.298Z" fill="#A2C71E"/>
<path d="M984.612 457.73C954.701 463.186 931.388 472.726 932.541 479.031C932.584 479.273 932.669 479.507 932.785 479.733C933.799 482.261 934.814 484.791 935.828 487.319C937.123 490.55 940.074 492.823 943.531 493.24C955.89 494.726 972.995 495.326 992.782 491.596C1011.65 488.038 1026.82 481.699 1037.72 476.002C1041.7 473.924 1043.67 469.33 1042.45 465.011C1041.92 463.138 1041.4 461.269 1040.87 459.398C1040.86 459.355 1040.86 459.312 1040.85 459.27C1039.7 452.962 1014.52 452.272 984.612 457.73Z" fill="url(#paint30_linear_5187_5544)"/>
<path d="M1022.41 470.558C1037.05 465.246 1040.47 461.138 1040.18 459.545C1039.87 457.883 1035.47 455.836 1024.06 455.543C1013.45 455.27 999.622 456.576 985.127 459.219C972.747 461.48 960.809 464.579 951.511 467.952C936.868 473.264 933.452 477.373 933.742 478.965C934.047 480.627 938.45 482.675 949.861 482.967C960.474 483.24 974.298 481.934 988.793 479.291C1001.17 477.031 1013.11 473.931 1022.41 470.558Z" fill="url(#paint31_radial_5187_5544)"/>
<path d="M994.575 464.235C995.46 464.455 999.358 465.417 999.462 467.01C999.686 470.436 982.195 474.364 975.565 472.463C974.803 472.243 972.801 471.671 972.724 470.628C972.666 469.84 973.733 469.12 974.529 468.63C979.8 465.397 986.078 464.5 988.387 464.219C991.882 463.794 993.288 463.918 994.575 464.235Z" fill="#FFE6CC"/>
<path d="M1005.96 464.154C1005.44 463.666 1002.44 465.405 1002.6 465.827C1002.73 466.193 1005.41 466.046 1005.94 464.826C1005.97 464.769 1006.16 464.335 1005.96 464.154Z" fill="#063B01"/>
<path d="M987.494 477.057C987.279 477.482 986.674 477.832 986.228 477.714C985.196 477.439 985.035 474.681 985.624 474.434C986.188 474.199 988.045 475.973 987.494 477.057Z" fill="#063B01"/>
<path d="M1000.77 472.062C1000.77 472.442 999.32 473.076 998.017 472.694C997.127 472.431 996.283 471.689 996.435 471.369C996.731 470.754 1000.77 471.427 1000.77 472.062Z" fill="#063B01"/>
<path d="M971.704 477.468C973.029 477.674 974.712 475.298 974.385 474.891C974.167 474.619 973.027 475.19 971.749 475.832C971.048 476.184 970.798 476.379 970.778 476.621C970.744 476.991 971.237 477.395 971.704 477.468Z" fill="#063B01"/>
<path d="M985.245 462.291C985.48 461.982 986.655 462.034 986.842 462.425C986.883 462.507 986.849 462.65 986.784 462.934C986.676 463.407 986.622 463.639 986.522 463.683C986.149 463.837 984.934 462.699 985.245 462.291Z" fill="#063B01"/>
<path d="M995.81 461.269C996.399 461.063 997.098 461.272 997.133 461.524C997.189 461.966 995.197 462.842 994.915 462.515C994.737 462.314 995.09 461.519 995.81 461.269Z" fill="#063B01"/>
<path d="M967.41 469.545C967.304 469.274 968.202 468.456 969.265 468.405C969.996 468.372 970.822 468.695 970.799 468.961C970.754 469.474 967.586 470 967.41 469.545Z" fill="#063B01"/>
<path d="M1001.54 462.133C1001.56 461.871 1001.07 461.555 1000.59 461.521C999.408 461.44 998.294 463.143 998.498 463.386C998.544 463.44 998.641 463.398 1000.06 462.866C1001.25 462.414 1001.52 462.319 1001.54 462.133Z" fill="#A2C71E"/>
<path d="M977.232 464.19C976.726 463.866 975.984 463.919 975.876 464.156C975.684 464.573 977.335 465.843 977.711 465.583C977.939 465.43 977.849 464.586 977.232 464.19Z" fill="#063B01"/>
<path d="M970.24 466.377C970.161 466.129 970.58 465.69 971.036 465.536C972.175 465.149 973.609 466.52 973.463 466.808C973.431 466.872 973.327 466.854 971.84 466.703C970.577 466.575 970.292 466.552 970.24 466.377Z" fill="#A2C71E"/>
<path d="M994.985 474.547C994.853 475.08 993.229 475.58 992.196 474.955C991.216 474.362 990.991 472.888 991.417 472.57C991.663 472.383 992.124 472.596 992.831 472.919C993.559 473.251 995.127 473.973 994.985 474.547Z" fill="#A2C71E"/>
<path d="M1004.6 468.307C1004.73 468.555 1004.53 468.903 1004.36 469.082C1003.47 470.037 1000.73 469.122 1000.76 468.665C1000.8 468.164 1004.19 467.537 1004.6 468.307Z" fill="#A2C71E"/>
<path d="M980.394 463.41C980.465 463.164 980.938 462.885 981.297 462.866C982.195 462.824 982.429 464.444 982.195 464.663C982.142 464.712 982.089 464.668 981.23 464.133C980.509 463.678 980.344 463.581 980.394 463.41Z" fill="#A2C71E"/>
<path d="M978.525 477.452C978.709 477.845 979.928 477.925 980.648 477.35C981.533 476.641 981.426 475.124 981 474.957C980.748 474.859 980.365 475.222 979.713 475.842C978.985 476.528 978.369 477.114 978.525 477.452Z" fill="#A2C71E"/>
<path d="M990.65 461.371C990.929 461.248 991.433 461.143 991.59 461.34C991.878 461.702 990.987 463.081 990.453 463.01C990.151 462.97 989.896 462.462 990.01 462.025C990.123 461.607 990.54 461.419 990.65 461.371Z" fill="#A2C71E"/>
<path d="M967.398 472.165C967.277 472.426 967.488 472.752 967.662 472.913C968.586 473.772 971.295 472.569 971.242 472.114C971.187 471.623 967.775 471.353 967.398 472.165Z" fill="#A2C71E"/>
<path d="M984.337 445.02C1014.17 439.147 1039.35 439.489 1040.59 445.779C1040.64 446.02 1040.65 446.269 1040.62 446.522C1040.61 449.245 1040.59 451.972 1040.57 454.695C1040.55 458.176 1038.63 461.371 1035.57 463.025C1024.61 468.933 1008.91 475.753 989.135 479.525C970.274 483.122 953.837 482.777 941.606 481.466C937.144 480.989 933.632 477.434 933.182 472.969C932.986 471.034 932.791 469.103 932.599 467.168C932.587 467.126 932.575 467.084 932.567 467.042C931.325 460.749 954.505 450.89 984.337 445.02Z" fill="url(#paint32_linear_5187_5544)"/>
<path d="M1045.94 449.6L1039.04 451.989C1038.98 452.008 1038.95 452.075 1038.97 452.134C1038.99 452.186 1039.04 452.217 1039.09 452.208L1046.33 451.242C1046.8 451.181 1047.13 450.754 1047.07 450.289C1047.01 449.824 1046.58 449.499 1046.11 449.561C1046.05 449.569 1045.99 449.585 1045.94 449.6Z" fill="#F3C344"/>
<path d="M1045.18 458.996L1038.7 455.738C1038.57 455.672 1038.41 455.725 1038.34 455.853C1038.28 455.971 1038.32 456.11 1038.42 456.184L1044.28 460.434C1044.66 460.708 1045.2 460.627 1045.48 460.248C1045.76 459.872 1045.68 459.341 1045.3 459.067C1045.26 459.04 1045.22 459.016 1045.18 458.996Z" fill="#F3C344"/>
<path d="M954.278 470.408C938.707 470.825 934.025 468.253 933.712 466.665C933.387 465.007 936.734 461.489 947.246 457.039C957.023 452.9 970.365 449.055 984.821 446.207C997.17 443.778 1009.41 442.292 1019.3 442.027C1034.87 441.61 1039.55 444.182 1039.87 445.771C1040.19 447.428 1036.84 450.946 1026.33 455.396C1016.56 459.535 1003.21 463.381 988.758 466.228C976.409 468.657 964.162 470.143 954.278 470.408Z" fill="url(#paint33_radial_5187_5544)"/>
<path d="M977.86 454.335C977.116 454.863 973.841 457.186 974.328 458.706C975.373 461.976 993.088 459.228 998.562 455.032C999.191 454.549 1000.84 453.283 1000.53 452.285C1000.3 451.53 999.043 451.251 998.123 451.086C992.034 450.007 985.863 451.471 983.612 452.054C980.204 452.939 978.941 453.569 977.86 454.335Z" fill="#FFE6CC"/>
<path d="M967.237 458.433C967.546 457.786 970.97 458.309 970.982 458.757C970.992 459.147 968.447 459.99 967.502 459.051C967.459 459.003 967.124 458.668 967.237 458.433Z" fill="#063B01"/>
<path d="M989.145 463.674C989.501 463.99 990.188 464.095 990.563 463.822C991.423 463.188 990.563 460.562 989.924 460.548C989.317 460.536 988.236 462.866 989.145 463.674Z" fill="#063B01"/>
<path d="M974.965 463.889C975.104 464.243 976.685 464.302 977.757 463.47C978.489 462.9 979.003 461.9 978.744 461.658C978.244 461.194 974.732 463.299 974.965 463.889Z" fill="#063B01"/>
<path d="M1003.99 458.275C1002.83 458.952 1000.4 457.358 1000.55 456.859C1000.65 456.526 1001.92 456.64 1003.35 456.77C1004.13 456.84 1004.43 456.93 1004.54 457.148C1004.71 457.481 1004.4 458.04 1003.99 458.275Z" fill="#063B01"/>
<path d="M985.832 449.114C985.501 448.912 984.426 449.39 984.395 449.823C984.387 449.914 984.471 450.035 984.635 450.276C984.909 450.676 985.044 450.872 985.153 450.876C985.56 450.883 986.271 449.376 985.832 449.114Z" fill="#063B01"/>
<path d="M975.629 452.026C975.005 452.049 974.431 452.5 974.491 452.747C974.6 453.18 976.775 453.265 976.918 452.858C977.006 452.606 976.39 451.995 975.629 452.026Z" fill="#063B01"/>
<path d="M1005.08 449.331C1005.08 449.04 1003.95 448.607 1002.94 448.95C1002.25 449.186 1001.6 449.789 1001.72 450.028C1001.95 450.489 1005.09 449.819 1005.08 449.331Z" fill="#063B01"/>
<path d="M970.612 454.929C970.494 454.693 970.842 454.217 971.268 454.013C972.342 453.503 974.002 454.68 973.901 454.981C973.878 455.048 973.773 455.044 972.261 455.067C970.981 455.084 970.694 455.095 970.612 454.929Z" fill="#A2C71E"/>
<path d="M993.982 447.948C994.334 447.462 995.043 447.239 995.231 447.42C995.562 447.737 994.491 449.524 994.046 449.42C993.778 449.357 993.556 448.539 993.982 447.948Z" fill="#063B01"/>
<path d="M1001.3 447.418C1001.28 447.159 1000.73 446.904 1000.25 446.927C999.045 446.984 998.213 448.785 998.454 449C998.508 449.048 998.597 448.992 999.926 448.308C1001.05 447.727 1001.31 447.601 1001.3 447.418Z" fill="#A2C71E"/>
<path d="M981.254 464.082C981.571 464.529 983.266 464.4 983.998 463.44C984.693 462.526 984.363 461.076 983.85 460.935C983.554 460.852 983.202 461.219 982.663 461.777C982.11 462.357 980.915 463.6 981.254 464.082Z" fill="#A2C71E"/>
<path d="M970.024 461.793C969.993 462.071 970.305 462.322 970.525 462.429C971.705 462.99 973.925 461.134 973.725 460.722C973.509 460.268 970.12 460.931 970.024 461.793Z" fill="#A2C71E"/>
<path d="M990.76 448.375C990.604 448.172 990.061 448.085 989.72 448.199C988.868 448.489 989.244 450.082 989.542 450.2C989.61 450.227 989.643 450.166 990.246 449.353C990.75 448.67 990.869 448.516 990.76 448.375Z" fill="#A2C71E"/>
<path d="M997.635 460.758C997.608 461.191 996.503 461.712 995.622 461.44C994.539 461.105 994.083 459.654 994.418 459.343C994.617 459.159 995.106 459.356 995.94 459.695C996.869 460.067 997.657 460.386 997.635 460.758Z" fill="#A2C71E"/>
<path d="M980.468 450.233C980.163 450.22 979.656 450.307 979.582 450.548C979.446 450.99 980.781 451.947 981.251 451.686C981.517 451.538 981.569 450.972 981.303 450.607C981.041 450.26 980.588 450.24 980.468 450.233Z" fill="#A2C71E"/>
<path d="M1006.06 451.764C1006.27 451.962 1006.19 452.343 1006.08 452.556C1005.54 453.694 1002.58 453.566 1002.46 453.124C1002.33 452.647 1005.41 451.15 1006.06 451.764Z" fill="#A2C71E"/>
<path d="M1039.92 443.961C1038.11 439.519 1036.3 435.076 1034.5 430.634C1024.02 404.434 994.24 384.621 966.252 395.085C964.872 395.589 964.183 395.84 962.803 396.344C935.933 405.925 925.594 437.664 932.441 463.826L932.5 463.815C932.503 463.833 932.506 463.851 932.509 463.868C932.827 465.619 937.313 467.752 948.899 467.994C959.563 468.219 973.451 466.843 988.009 464.122C1000.37 461.813 1012.3 458.668 1021.61 455.267C1035.28 450.277 1039.91 446.116 1039.78 443.985L1039.92 443.961Z" fill="url(#paint34_linear_5187_5544)"/>
<path d="M926.872 462.666L934.016 461.147C934.079 461.136 934.138 461.174 934.153 461.236C934.166 461.291 934.136 461.343 934.088 461.364L927.398 464.292C926.963 464.481 926.458 464.285 926.269 463.85C926.081 463.414 926.277 462.909 926.712 462.721C926.759 462.696 926.817 462.679 926.872 462.666Z" fill="#F3C344"/>
<path d="M928.168 453.247L934.305 457.201C934.37 457.244 934.39 457.33 934.346 457.395C934.308 457.454 934.236 457.472 934.176 457.45L927.386 454.765C926.945 454.59 926.73 454.094 926.905 453.653C927.08 453.212 927.576 452.997 928.017 453.172C928.07 453.194 928.121 453.22 928.168 453.247Z" fill="#F3C344"/>
<path d="M976.341 385.65L976.676 392.947C976.68 393.009 976.629 393.065 976.566 393.066C976.511 393.067 976.464 393.032 976.449 392.981L974.652 385.901C974.537 385.443 974.814 384.975 975.271 384.857C975.729 384.742 976.197 385.019 976.315 385.477C976.332 385.534 976.34 385.595 976.341 385.65Z" fill="#F3C344"/>
<path d="M985.426 388.46L980.525 393.872C980.471 393.929 980.383 393.934 980.326 393.881C980.276 393.835 980.267 393.76 980.299 393.704L984.054 387.441C984.297 387.035 984.824 386.902 985.23 387.146C985.637 387.39 985.769 387.916 985.525 388.323C985.499 388.373 985.461 388.421 985.426 388.46Z" fill="#F3C344"/>
<path d="M967.797 389.857L973.284 394.657C973.394 394.754 973.407 394.922 973.309 395.032C973.222 395.131 973.076 395.151 972.965 395.083L966.782 391.228C966.381 390.979 966.258 390.449 966.508 390.048C966.757 389.647 967.287 389.524 967.688 389.774C967.723 389.798 967.764 389.828 967.797 389.857Z" fill="#F3C344"/>
<path d="M974.632 451.331C972.404 451.599 970.814 453.625 971.082 455.853C971.351 458.082 973.377 459.672 975.605 459.403C977.833 459.135 979.423 457.109 979.155 454.881C978.888 452.648 976.864 451.061 974.632 451.331ZM971.83 455.763C971.611 453.946 972.907 452.293 974.724 452.074C976.541 451.855 978.195 453.152 978.414 454.968L971.83 455.763Z" fill="#C4CF4D"/>
<path d="M998.245 448.476C996.017 448.745 994.427 450.771 994.696 452.999C994.964 455.227 996.99 456.817 999.218 456.549C1001.45 456.28 1003.04 454.254 1002.77 452.026C1002.5 449.795 1000.47 448.208 998.245 448.476ZM995.44 452.91C995.221 451.093 996.517 449.44 998.334 449.221C1000.15 449.001 1001.8 450.298 1002.02 452.115L995.44 452.91Z" fill="#C4CF4D"/>
<path d="M985.355 457.011C985.175 455.886 986.036 453.57 987.227 454.061C988.136 454.435 989.25 456.433 989.291 457.474C989.369 459.436 985.659 458.95 985.355 457.011Z" fill="#C4CF4D"/>
<path d="M1040.04 327.63V406.424" stroke="black"/>
<path d="M925.955 329.521V408.316" stroke="black"/>
<path d="M1009.62 289.801V368.595" stroke="black"/>
<defs>
<radialGradient id="paint0_radial_5187_5544" cx="0" cy="0" r="1" gradientUnits="userSpaceOnUse" gradientTransform="translate(327.813 825.527) scale(83.69 76.9994)">
<stop stop-color="#F3EBD9"/>
<stop offset="0.4134" stop-color="#F4EAD7"/>
<stop offset="0.6395" stop-color="#F6E7CF"/>
<stop offset="0.8198" stop-color="#F9E2C1"/>
<stop offset="0.9759" stop-color="#FEDAAE"/>
<stop offset="1" stop-color="#FFD9AA"/>
</radialGradient>
<radialGradient id="paint1_radial_5187_5544" cx="0" cy="0" r="1" gradientUnits="userSpaceOnUse" gradientTransform="translate(434.872 823.643) scale(85.7124 78.8602)">
<stop stop-color="#F3EBD9"/>
<stop offset="0.4134" stop-color="#F4EAD7"/>
<stop offset="0.6395" stop-color="#F6E7CF"/>
<stop offset="0.8198" stop-color="#F9E2C1"/>
<stop offset="0.9759" stop-color="#FEDAAE"/>
<stop offset="1" stop-color="#FFD9AA"/>
</radialGradient>
<radialGradient id="paint2_radial_5187_5544" cx="0" cy="0" r="1" gradientUnits="userSpaceOnUse" gradientTransform="translate(377.105 773.514) scale(102.408 94.2215)">
<stop stop-color="#F3EBDA"/>
<stop offset="0.416" stop-color="#F4EAD8"/>
<stop offset="0.6436" stop-color="#F6E7D0"/>
<stop offset="0.825" stop-color="#F9E2C2"/>
<stop offset="0.9821" stop-color="#FEDBAF"/>
<stop offset="1" stop-color="#FFDAAC"/>
</radialGradient>
<radialGradient id="paint3_radial_5187_5544" cx="0" cy="0" r="1" gradientUnits="userSpaceOnUse" gradientTransform="translate(547.799 674.059) rotate(-4.79013) scale(70.1352 94.1029)">
<stop stop-color="#5AA668"/>
<stop offset="0.4873" stop-color="#56965F"/>
<stop offset="1" stop-color="#508054"/>
</radialGradient>
<radialGradient id="paint4_radial_5187_5544" cx="0" cy="0" r="1" gradientUnits="userSpaceOnUse" gradientTransform="translate(613.109 820.531) rotate(-137.236) scale(35.8657 62.6165)">
<stop stop-color="#C8DE90"/>
<stop offset="0.457" stop-color="#B8DE8E"/>
<stop offset="1" stop-color="#9FDE8C"/>
</radialGradient>
<radialGradient id="paint5_radial_5187_5544" cx="0" cy="0" r="1" gradientUnits="userSpaceOnUse" gradientTransform="translate(506.854 819.747) rotate(-60.7651) scale(28.2303 49.2861)">
<stop stop-color="#C8DE90"/>
<stop offset="0.457" stop-color="#B8DE8E"/>
<stop offset="1" stop-color="#9FDE8C"/>
</radialGradient>
<radialGradient id="paint6_radial_5187_5544" cx="0" cy="0" r="1" gradientUnits="userSpaceOnUse" gradientTransform="translate(409.466 914.981) rotate(-60.7651) scale(64.944 113.383)">
<stop stop-color="#C8DE90"/>
<stop offset="0.457" stop-color="#B8DE8E"/>
<stop offset="1" stop-color="#9FDE8C"/>
</radialGradient>
<radialGradient id="paint7_radial_5187_5544" cx="0" cy="0" r="1" gradientUnits="userSpaceOnUse" gradientTransform="translate(540.013 828.496) rotate(-60.7651) scale(34.1917 59.6939)">
<stop stop-color="#C8DE90"/>
<stop offset="0.457" stop-color="#B8DE8E"/>
<stop offset="1" stop-color="#9FDE8C"/>
</radialGradient>
<radialGradient id="paint8_radial_5187_5544" cx="0" cy="0" r="1" gradientUnits="userSpaceOnUse" gradientTransform="translate(738.59 799.317) rotate(-137.236) scale(58.8866 102.808)">
<stop stop-color="#C8DE90"/>
<stop offset="0.457" stop-color="#B8DE8E"/>
<stop offset="1" stop-color="#9FDE8C"/>
</radialGradient>
<radialGradient id="paint9_radial_5187_5544" cx="0" cy="0" r="1" gradientUnits="userSpaceOnUse" gradientTransform="translate(766.199 861.218) rotate(-137.236) scale(68.3297 119.294)">
<stop stop-color="#C8DE90"/>
<stop offset="0.457" stop-color="#B8DE8E"/>
<stop offset="1" stop-color="#9FDE8C"/>
</radialGradient>
<radialGradient id="paint10_radial_5187_5544" cx="0" cy="0" r="1" gradientUnits="userSpaceOnUse" gradientTransform="translate(667.073 828.314) rotate(-137.236) scale(39.4733 68.9148)">
<stop stop-color="#C8DE90"/>
<stop offset="0.457" stop-color="#B8DE8E"/>
<stop offset="1" stop-color="#9FDE8C"/>
</radialGradient>
<radialGradient id="paint11_radial_5187_5544" cx="0" cy="0" r="1" gradientUnits="userSpaceOnUse" gradientTransform="translate(567.657 746.025) rotate(-88.9524) scale(99.7179 131.802)">
<stop stop-color="#C8DE90"/>
<stop offset="0.457" stop-color="#B8DE8E"/>
<stop offset="1" stop-color="#9FDE8C"/>
</radialGradient>
<radialGradient id="paint12_radial_5187_5544" cx="0" cy="0" r="1" gradientUnits="userSpaceOnUse" gradientTransform="translate(548.197 741.908) rotate(-110.316) scale(93.9384 124.178)">
<stop stop-color="#C8DE90"/>
<stop offset="0.457" stop-color="#B8DE8E"/>
<stop offset="1" stop-color="#9FDE8C"/>
</radialGradient>
<radialGradient id="paint13_radial_5187_5544" cx="0" cy="0" r="1" gradientUnits="userSpaceOnUse" gradientTransform="translate(537.547 655.066) rotate(-15.3201) scale(58.9818 91.0862)">
<stop stop-color="#4CCC4F"/>
<stop offset="0.4873" stop-color="#56BC5E"/>
<stop offset="1" stop-color="#64A671"/>
</radialGradient>
<radialGradient id="paint14_radial_5187_5544" cx="0" cy="0" r="1" gradientUnits="userSpaceOnUse" gradientTransform="translate(545.271 699.52) rotate(-111.844) scale(22.4 38.9066)">
<stop stop-color="#E6FFA6"/>
<stop offset="0.4072" stop-color="#D6FFA4"/>
<stop offset="1" stop-color="#B7FFA1"/>
</radialGradient>
<radialGradient id="paint15_radial_5187_5544" cx="0" cy="0" r="1" gradientUnits="userSpaceOnUse" gradientTransform="translate(545.27 699.52) rotate(-111.844) scale(22.4 38.9065)">
<stop stop-color="#E6FFA6"/>
<stop offset="0.4072" stop-color="#D6FFA4"/>
<stop offset="1" stop-color="#B7FFA1"/>
</radialGradient>
<radialGradient id="paint16_radial_5187_5544" cx="0" cy="0" r="1" gradientUnits="userSpaceOnUse" gradientTransform="translate(545.271 699.521) rotate(-111.844) scale(22.4 38.9066)">
<stop stop-color="#E6FFA6"/>
<stop offset="0.4072" stop-color="#D6FFA4"/>
<stop offset="1" stop-color="#B7FFA1"/>
</radialGradient>
<radialGradient id="paint17_radial_5187_5544" cx="0" cy="0" r="1" gradientUnits="userSpaceOnUse" gradientTransform="translate(545.271 699.52) rotate(-111.844) scale(22.4 38.9066)">
<stop stop-color="#E6FFA6"/>
<stop offset="0.4072" stop-color="#D6FFA4"/>
<stop offset="1" stop-color="#B7FFA1"/>
</radialGradient>
<radialGradient id="paint18_radial_5187_5544" cx="0" cy="0" r="1" gradientUnits="userSpaceOnUse" gradientTransform="translate(549.918 702.444) rotate(-123.125) scale(22.3818 38.944)">
<stop stop-color="#E6FFA6"/>
<stop offset="0.4072" stop-color="#D6FFA4"/>
<stop offset="1" stop-color="#B7FFA1"/>
</radialGradient>
<radialGradient id="paint19_radial_5187_5544" cx="0" cy="0" r="1" gradientUnits="userSpaceOnUse" gradientTransform="translate(545.271 699.52) rotate(-111.844) scale(22.4 38.9066)">
<stop stop-color="#E6FFA6"/>
<stop offset="0.4072" stop-color="#D6FFA4"/>
<stop offset="1" stop-color="#B7FFA1"/>
</radialGradient>
<radialGradient id="paint20_radial_5187_5544" cx="0" cy="0" r="1" gradientUnits="userSpaceOnUse" gradientTransform="translate(545.27 699.521) rotate(-111.844) scale(22.4 38.9066)">
<stop stop-color="#E6FFA6"/>
<stop offset="0.4072" stop-color="#D6FFA4"/>
<stop offset="1" stop-color="#B7FFA1"/>
</radialGradient>
<radialGradient id="paint21_radial_5187_5544" cx="0" cy="0" r="1" gradientUnits="userSpaceOnUse" gradientTransform="translate(545.271 699.52) rotate(-111.844) scale(22.4 38.9066)">
<stop stop-color="#E6FFA6"/>
<stop offset="0.4072" stop-color="#D6FFA4"/>
<stop offset="1" stop-color="#B7FFA1"/>
</radialGradient>
<radialGradient id="paint22_radial_5187_5544" cx="0" cy="0" r="1" gradientUnits="userSpaceOnUse" gradientTransform="translate(567.349 766.38) rotate(-97.1564) scale(83.7777 110.679)">
<stop stop-color="#E6FFA6"/>
<stop offset="0.4072" stop-color="#D6FFA4"/>
<stop offset="1" stop-color="#B7FFA1"/>
</radialGradient>
<linearGradient id="paint23_linear_5187_5544" x1="717.716" y1="614.074" x2="727.529" y2="608.671" gradientUnits="userSpaceOnUse">
<stop stop-color="#FFB5B5"/>
<stop offset="0.1947" stop-color="#FFB7AB"/>
<stop offset="0.5228" stop-color="#FFBD91"/>
<stop offset="0.9419" stop-color="#FEC766"/>
<stop offset="1" stop-color="#FEC860"/>
</linearGradient>
<linearGradient id="paint24_linear_5187_5544" x1="747.364" y1="502.533" x2="762.651" y2="526.772" gradientUnits="userSpaceOnUse">
<stop stop-color="#FFB5B5"/>
<stop offset="0.1947" stop-color="#FFB7AB"/>
<stop offset="0.5228" stop-color="#FFBD91"/>
<stop offset="0.9419" stop-color="#FEC766"/>
<stop offset="1" stop-color="#FEC860"/>
</linearGradient>
<radialGradient id="paint25_radial_5187_5544" cx="0" cy="0" r="1" gradientUnits="userSpaceOnUse" gradientTransform="translate(783.255 612.201) scale(57.8517 58.1775)">
<stop stop-color="#FFDF9C"/>
<stop offset="0.2933" stop-color="#FCD894"/>
<stop offset="0.7483" stop-color="#F5C67E"/>
<stop offset="1" stop-color="#F0BA6F"/>
</radialGradient>
<linearGradient id="paint26_linear_5187_5544" x1="842.119" y1="534.043" x2="801.249" y2="549.974" gradientUnits="userSpaceOnUse">
<stop stop-color="white"/>
<stop offset="0.2538" stop-color="#FFB5B5"/>
<stop offset="0.3991" stop-color="#FFB7AB"/>
<stop offset="0.6439" stop-color="#FFBD91"/>
<stop offset="0.9567" stop-color="#FEC766"/>
<stop offset="1" stop-color="#FEC860"/>
</linearGradient>
<linearGradient id="paint27_linear_5187_5544" x1="991.885" y1="521.394" x2="988.942" y2="411.615" gradientUnits="userSpaceOnUse">
<stop stop-color="#6A4727"/>
<stop offset="0.1931" stop-color="#734D2A"/>
<stop offset="0.5059" stop-color="#8B5E31"/>
<stop offset="0.8973" stop-color="#B27A3D"/>
<stop offset="1" stop-color="#BD8240"/>
</linearGradient>
<linearGradient id="paint28_linear_5187_5544" x1="935.791" y1="483.217" x2="1045.27" y2="480.282" gradientUnits="userSpaceOnUse">
<stop stop-color="#6A4727"/>
<stop offset="0.1931" stop-color="#734D2A"/>
<stop offset="0.5059" stop-color="#8B5E31"/>
<stop offset="0.8973" stop-color="#B27A3D"/>
<stop offset="1" stop-color="#BD8240"/>
</linearGradient>
<radialGradient id="paint29_radial_5187_5544" cx="0" cy="0" r="1" gradientUnits="userSpaceOnUse" gradientTransform="translate(990.517 481.76) rotate(-11.2248) scale(53.5846 10.6711)">
<stop stop-color="#C4CF4D"/>
<stop offset="0.2634" stop-color="#C6D24D"/>
<stop offset="0.4274" stop-color="#CCDA4E"/>
<stop offset="0.5637" stop-color="#D5E950"/>
<stop offset="0.6193" stop-color="#DBF151"/>
<stop offset="1" stop-color="#C4CF4D"/>
</radialGradient>
<linearGradient id="paint30_linear_5187_5544" x1="937.448" y1="492.657" x2="1039.56" y2="455.612" gradientUnits="userSpaceOnUse">
<stop stop-color="#6A4727"/>
<stop offset="0.1931" stop-color="#734D2A"/>
<stop offset="0.5059" stop-color="#8B5E31"/>
<stop offset="0.8973" stop-color="#B27A3D"/>
<stop offset="1" stop-color="#BD8240"/>
</linearGradient>
<radialGradient id="paint31_radial_5187_5544" cx="0" cy="0" r="1" gradientUnits="userSpaceOnUse" gradientTransform="translate(987.101 469.34) rotate(169.75) scale(53.5846 10.6711)">
<stop stop-color="#C4CF4D"/>
<stop offset="0.2634" stop-color="#C6D24D"/>
<stop offset="0.4274" stop-color="#CCDA4E"/>
<stop offset="0.5637" stop-color="#D5E950"/>
<stop offset="0.6193" stop-color="#DBF151"/>
<stop offset="1" stop-color="#C4CF4D"/>
</radialGradient>
<linearGradient id="paint32_linear_5187_5544" x1="1041.01" y1="460.255" x2="932.425" y2="463.166" gradientUnits="userSpaceOnUse">
<stop stop-color="#6A4727"/>
<stop offset="0.1931" stop-color="#734D2A"/>
<stop offset="0.5059" stop-color="#8B5E31"/>
<stop offset="0.8973" stop-color="#B27A3D"/>
<stop offset="1" stop-color="#BD8240"/>
</linearGradient>
<radialGradient id="paint33_radial_5187_5544" cx="0" cy="0" r="1" gradientUnits="userSpaceOnUse" gradientTransform="translate(986.776 456.227) rotate(-11.2248) scale(53.5846 10.6711)">
<stop stop-color="#C4CF4D"/>
<stop offset="0.2634" stop-color="#C6D24D"/>
<stop offset="0.4274" stop-color="#CCDA4E"/>
<stop offset="0.5637" stop-color="#D5E950"/>
<stop offset="0.6193" stop-color="#DBF151"/>
<stop offset="1" stop-color="#C4CF4D"/>
</radialGradient>
<linearGradient id="paint34_linear_5187_5544" x1="1012.03" y1="524.694" x2="972.066" y2="415.247" gradientUnits="userSpaceOnUse">
<stop stop-color="#6A4727"/>
<stop offset="0.1931" stop-color="#734D2A"/>
<stop offset="0.5059" stop-color="#8B5E31"/>
<stop offset="0.8973" stop-color="#B27A3D"/>
<stop offset="1" stop-color="#BD8240"/>
</linearGradient>
</defs>
</svg>
