<svg width="1342" height="1024" viewBox="0 0 1342 1024" fill="none" xmlns="http://www.w3.org/2000/svg">
<g clip-path="url(#clip0_5199_12974)">
<path d="M972.922 399.431L169 867.129L388.777 996L1171.01 535.542C1176.79 511.216 1168.6 498.377 1163.78 494.998C1115.58 466.487 1015.72 407.457 1001.84 399.431C987.959 391.406 976.778 396.087 972.922 399.431Z" fill="#F4EFEF" stroke="black" stroke-linejoin="round"/>
<path d="M366 785C382.24 791.859 450.1 831.858 482 851" stroke="black"/>
<path d="M451 734.857C467.24 741.82 535.1 782.425 567 801.857" stroke="black"/>
<path d="M536 685.715C552.24 692.574 620.1 732.573 652 751.715" stroke="black"/>
<path d="M621 636.57C637.24 643.429 705.1 683.428 737 702.57" stroke="black"/>
<path d="M706 587.428C722.24 594.287 790.1 634.286 822 653.428" stroke="black"/>
<path d="M791 537.285C807.38 544.248 875.825 584.853 908 604.285" stroke="black"/>
<path d="M877 487.143C893.1 494.105 960.375 534.711 992 554.143" stroke="black"/>
<path d="M961 437C977.24 443.963 1045.1 484.568 1077 504" stroke="black"/>
<path d="M341.037 967.974L1163 497" stroke="black"/>
<ellipse cx="535.093" cy="883.231" rx="17.7269" ry="12.8657" transform="rotate(-54.8943 535.093 883.231)" fill="#8FE3C1"/>
<ellipse cx="826.042" cy="715.487" rx="17.7269" ry="12.8657" transform="rotate(-54.8943 826.042 715.487)" fill="#8FE3C1"/>
<ellipse cx="973.554" cy="631.608" rx="17.7269" ry="12.8657" transform="rotate(-54.8943 973.554 631.608)" fill="#8FE3C1"/>
<ellipse cx="1118.17" cy="547.729" rx="17.7269" ry="12.8657" transform="rotate(-54.8943 1118.17 547.729)" fill="#8FE3C1"/>
<ellipse cx="681.423" cy="799.365" rx="17.7269" ry="12.8657" transform="rotate(-54.8943 681.423 799.365)" fill="#8FE3C1"/>
<path d="M157.802 1027.49C187.702 1022.4 212.807 1023.42 213.874 1029.76C213.916 1030 213.916 1030.25 213.884 1030.51C213.793 1033.23 213.702 1035.97 213.611 1038.7C213.496 1042.19 211.502 1045.34 208.402 1046.91C197.319 1052.54 181.486 1058.96 161.664 1062.21C142.762 1065.31 126.383 1064.52 114.223 1062.88C109.787 1062.28 106.38 1058.62 106.051 1054.13C105.907 1052.19 105.764 1050.25 105.624 1048.3C105.613 1048.26 105.603 1048.22 105.596 1048.17C104.525 1041.83 127.901 1032.57 157.802 1027.49Z" fill="url(#paint0_linear_5199_12974)"/>
<path d="M213.496 1027.92C213.325 1023.12 213.15 1018.31 212.979 1013.5C212.132 985.219 191.005 956.308 161.203 956.537C159.737 956.537 159.006 956.537 157.54 956.537C129.088 956.318 108.542 982.662 106.006 1009.66L106.065 1009.67C106.062 1009.69 106.058 1009.71 106.055 1009.73C105.754 1011.49 109.228 1015.04 119.999 1019.25C129.914 1023.13 143.396 1026.61 157.967 1029.06C170.334 1031.13 182.592 1032.28 192.482 1032.28C206.99 1032.28 212.758 1029.95 213.36 1027.9L213.496 1027.92Z" fill="url(#paint1_linear_5199_12974)"/>
<path d="M101.185 1006.66L108.399 1007.68C108.462 1007.69 108.504 1007.75 108.497 1007.81C108.49 1007.87 108.445 1007.91 108.392 1007.91L101.122 1008.37C100.65 1008.4 100.244 1008.04 100.216 1007.56C100.188 1007.09 100.545 1006.68 101.017 1006.65C101.07 1006.65 101.129 1006.65 101.185 1006.66Z" fill="#F3C344"/>
<path d="M105.621 998.228L110.019 1004.06C110.064 1004.13 110.054 1004.22 109.991 1004.26C109.935 1004.3 109.861 1004.3 109.812 1004.25L104.369 999.389C104.016 999.072 103.984 998.531 104.299 998.175C104.614 997.82 105.153 997.788 105.506 998.105C105.548 998.144 105.586 998.186 105.621 998.228Z" fill="#F3C344"/>
<path d="M173.886 951.119L171.703 958.109C171.685 958.168 171.619 958.204 171.559 958.183C171.507 958.165 171.475 958.116 171.479 958.063L172.217 950.774C172.266 950.303 172.686 949.958 173.155 950.004C173.623 950.053 173.966 950.475 173.921 950.947C173.917 951.007 173.903 951.066 173.886 951.119Z" fill="#F3C344"/>
<path d="M181.434 956.891L174.99 960.303C174.92 960.339 174.836 960.314 174.801 960.244C174.769 960.184 174.787 960.11 174.836 960.068L180.496 955.46C180.864 955.161 181.402 955.217 181.7 955.586C181.997 955.956 181.941 956.497 181.574 956.796C181.532 956.835 181.479 956.867 181.434 956.891Z" fill="#F3C344"/>
<path d="M164.439 952.143L167.937 958.552C168.007 958.682 167.962 958.844 167.833 958.914C167.717 958.978 167.574 958.946 167.493 958.844L163.019 953.086C162.728 952.713 162.795 952.171 163.166 951.879C163.537 951.587 164.075 951.654 164.366 952.027C164.39 952.062 164.418 952.104 164.439 952.143Z" fill="#F3C344"/>
<path d="M149.11 991.259C146.93 990.745 144.747 992.106 144.237 994.298C143.726 996.489 145.08 998.684 147.259 999.198C149.439 999.712 151.622 998.35 152.132 996.159C152.647 993.964 151.293 991.772 149.11 991.259ZM144.968 994.47C145.384 992.683 147.165 991.572 148.942 991.99C150.719 992.409 151.825 994.199 151.408 995.986L144.968 994.47Z" fill="#C4CF4D"/>
<path d="M172.209 996.694C170.03 996.181 167.847 997.542 167.336 999.734C166.826 1001.93 168.179 1004.12 170.359 1004.63C172.538 1005.15 174.721 1003.79 175.232 1001.59C175.743 999.399 174.389 997.208 172.209 996.694ZM168.064 999.906C168.48 998.119 170.261 997.007 172.038 997.426C173.815 997.845 174.921 999.635 174.504 1001.42L168.064 999.906Z" fill="#C4CF4D"/>
<path d="M157.212 1000.3C157.428 999.176 159.027 997.291 159.975 998.163C160.699 998.828 161.06 1001.09 160.741 1002.09C160.143 1003.96 156.834 1002.23 157.212 1000.3Z" fill="#C4CF4D"/>
<path d="M100.738 892V963.067" stroke="black"/>
<path d="M211.262 876.648V947.715" stroke="black"/>
<path d="M192.842 840.822V911.889" stroke="black"/>
<path d="M172.303 803.822V816.781H149.633V803.822H136.215V781.151H149.633V768.781H172.303V781.151H184.215V803.822H172.303Z" fill="#3DCE94"/>
</g>
<defs>
<linearGradient id="paint0_linear_5199_12974" x1="213.903" y1="1044.28" x2="105.558" y2="1044.28" gradientUnits="userSpaceOnUse">
<stop stop-color="#6A4727"/>
<stop offset="0.1931" stop-color="#734D2A"/>
<stop offset="0.5059" stop-color="#8B5E31"/>
<stop offset="0.8973" stop-color="#B27A3D"/>
<stop offset="1" stop-color="#BD8240"/>
</linearGradient>
<linearGradient id="paint1_linear_5199_12974" x1="159.752" y1="1094.39" x2="159.752" y2="977.531" gradientUnits="userSpaceOnUse">
<stop stop-color="#6A4727"/>
<stop offset="0.1931" stop-color="#734D2A"/>
<stop offset="0.5059" stop-color="#8B5E31"/>
<stop offset="0.8973" stop-color="#B27A3D"/>
<stop offset="1" stop-color="#BD8240"/>
</linearGradient>
<clipPath id="clip0_5199_12974">
<rect width="1342" height="1024" fill="white"/>
</clipPath>
</defs>
</svg>
