<svg width="1342" height="1024" viewBox="0 0 1342 1024" fill="none" xmlns="http://www.w3.org/2000/svg">
<path d="M972.922 399.431L169 867.129L388.777 996L1171.01 535.542C1176.79 511.216 1168.6 498.377 1163.78 494.998C1115.58 466.487 1015.72 407.457 1001.84 399.431C987.959 391.406 976.778 396.087 972.922 399.431Z" fill="#F4EFEF" stroke="black" stroke-linejoin="round"/>
<path d="M759 554C775.24 560.859 843.1 600.858 875 620" stroke="black"/>
<path d="M249 850.714C265.24 857.677 333.1 898.282 365 917.714" stroke="black"/>
<path d="M844 504C860.24 510.963 928.1 551.568 960 571" stroke="black"/>
<path d="M334 801.571C350.24 808.43 418.1 848.429 450 867.571" stroke="black"/>
<path d="M929 455C945.24 461.859 1013.1 501.858 1045 521" stroke="black"/>
<path d="M419 752.429C435.24 759.288 503.1 799.287 535 818.429" stroke="black"/>
<path d="M504 703.286C520.24 710.145 588.1 750.144 620 769.286" stroke="black"/>
<path d="M589 653.143C605.38 660.105 673.825 700.711 706 720.143" stroke="black"/>
<path d="M675 603C691.1 609.963 758.375 650.568 790 670" stroke="black"/>
<path d="M341.037 967.974L1163 497" stroke="black"/>
<ellipse cx="535.093" cy="883.231" rx="17.7269" ry="12.8657" transform="rotate(-54.8943 535.093 883.231)" fill="#8FE3C1"/>
<ellipse cx="826.042" cy="715.487" rx="17.7269" ry="12.8657" transform="rotate(-54.8943 826.042 715.487)" fill="#8FE3C1"/>
<ellipse cx="973.554" cy="631.609" rx="17.7269" ry="12.8657" transform="rotate(-54.8943 973.554 631.609)" fill="#8FE3C1"/>
<ellipse cx="1118.17" cy="547.73" rx="17.7269" ry="12.8657" transform="rotate(-54.8943 1118.17 547.73)" fill="#8FE3C1"/>
<ellipse cx="681.423" cy="799.366" rx="17.7269" ry="12.8657" transform="rotate(-54.8943 681.423 799.366)" fill="#8FE3C1"/>
<path d="M249.741 899.269L183.44 889.636C178.816 888.963 174.114 888.886 169.469 889.407C130.514 893.755 91.5556 898.101 52.6009 902.449C48.8345 902.87 46 905.811 46 909.305V967.857C46 970.021 47.463 971.959 49.6715 972.71C83.9525 984.407 118.23 996.1 152.511 1007.8C158.335 1009.78 164.819 1009.29 170.211 1006.45C198.263 991.693 226.316 976.929 254.369 962.168C255.997 961.311 257 959.713 256.989 957.988C256.891 940.898 256.792 923.804 256.69 906.714C256.669 902.999 253.726 899.848 249.741 899.269Z" fill="#E5CA9A"/>
<path d="M46 908.539V968.349C46 970.096 47.1148 971.652 48.7817 972.225C83.9067 984.281 119.032 996.336 154.153 1008.39C156.836 1009.31 159.632 1007.33 159.632 1004.51V926.522C159.632 924.526 158.183 922.821 156.203 922.481L50.8285 904.498C48.307 904.067 46 905.996 46 908.539Z" fill="url(#paint0_radial_5199_8539)"/>
<path d="M162.752 926.257V1003.24C162.752 1006.33 166.054 1008.31 168.804 1006.87C197.469 991.878 226.134 976.884 254.795 961.893C256.163 961.178 257.018 959.761 257 958.224C256.817 940.817 256.638 923.409 256.455 905.999C256.427 903.368 253.948 901.443 251.37 902.051L165.921 922.267C164.067 922.707 162.752 924.357 162.752 926.257Z" fill="url(#paint1_radial_5199_8539)"/>
<path d="M169.62 889.378L52.541 902.605L160.364 919.97C160.888 920.055 161.426 920.038 161.946 919.919L251.675 899.534L185.16 889.65C180.015 888.886 174.789 888.796 169.62 889.378Z" fill="url(#paint2_radial_5199_8539)"/>
<path d="M96.7681 961.745C93.2092 960.8 90.9303 956.672 90.6525 956.147C90.1848 955.261 90.4028 954.313 91.1413 954.025C91.8834 953.74 92.861 954.225 93.3287 955.112C93.4026 955.251 95.1469 958.532 97.3765 958.561C98.7902 958.587 99.9542 957.332 100.573 956.147C100.946 955.432 101.888 955.329 102.683 955.931C103.474 956.526 103.812 957.59 103.439 958.305C102.859 959.415 101.182 961.991 98.115 961.933C97.6508 961.929 97.2006 961.861 96.7681 961.745Z" fill="#FF9A00"/>
<path d="M79.1726 956.377C82.5381 957.273 85.2671 955.186 85.2671 951.718L73.0781 948.476C73.0781 951.944 75.8071 955.481 79.1726 956.377Z" fill="#FF9A00"/>
<path d="M114.829 965.857C118.194 966.754 120.923 964.667 120.923 961.198L108.734 957.956C108.734 961.425 111.46 964.961 114.829 965.857Z" fill="#FF9A00"/>
<path opacity="0.2" d="M172.303 508.04V521H149.633V508.04H136.215V485.37H149.633V473H172.303V485.37H184.215V508.04H172.303Z" fill="#3DCE94"/>
<path d="M519.027 694.834L518.273 701.403C518.266 701.466 518.207 701.515 518.144 701.504C518.088 701.497 518.046 701.455 518.043 701.403L517.285 694.83C517.229 694.346 517.575 693.907 518.057 693.851C518.539 693.795 518.975 694.142 519.031 694.627C519.034 694.697 519.034 694.767 519.027 694.834Z" fill="#F37343"/>
<path d="M526.709 698.629L521.574 702.758C521.511 702.807 521.42 702.796 521.371 702.736C521.329 702.684 521.329 702.607 521.371 702.554L525.477 697.389C525.781 697.007 526.332 696.947 526.713 697.252C527.093 697.558 527.153 698.113 526.849 698.495C526.804 698.541 526.755 698.59 526.709 698.629Z" fill="#F37343"/>
<path d="M510.838 697.386L515.035 702.46C515.132 702.575 515.115 702.751 515 702.846C514.898 702.93 514.748 702.93 514.651 702.846L509.606 698.626C509.232 698.313 509.183 697.759 509.49 697.383C509.801 697.007 510.353 696.958 510.726 697.267C510.768 697.309 510.807 697.348 510.838 697.386Z" fill="#F37343"/>
<path d="M506.98 705.022L513.516 705.784C513.578 705.791 513.627 705.85 513.617 705.914C513.61 705.97 513.568 706.012 513.516 706.015L506.98 706.777C506.498 706.833 506.062 706.486 506.006 706.001C505.95 705.517 506.296 705.078 506.777 705.022C506.844 705.015 506.914 705.015 506.98 705.022Z" fill="#F37343"/>
<path d="M509.517 713.259L514.562 709.039C514.677 708.94 514.852 708.958 514.946 709.074C515.03 709.176 515.03 709.326 514.946 709.425L510.75 714.498C510.439 714.874 509.887 714.923 509.514 714.614C509.14 714.301 509.091 713.747 509.399 713.371C509.437 713.332 509.479 713.29 509.517 713.259Z" fill="#F37343"/>
<path d="M517.111 717.141L517.868 710.569C517.875 710.506 517.935 710.457 517.997 710.467C518.053 710.474 518.095 710.516 518.099 710.569L518.856 717.141C518.912 717.626 518.567 718.065 518.085 718.121C517.603 718.177 517.167 717.83 517.111 717.345C517.104 717.275 517.104 717.205 517.111 717.141Z" fill="#F37343"/>
<path d="M525.303 714.586L521.107 709.513C521.009 709.397 521.026 709.221 521.141 709.127C521.243 709.042 521.393 709.042 521.491 709.127L526.535 713.347C526.909 713.659 526.958 714.214 526.651 714.59C526.34 714.965 525.788 715.014 525.415 714.706C525.376 714.667 525.334 714.625 525.303 714.586Z" fill="#F37343"/>
<path d="M529.164 706.95L522.628 706.188C522.565 706.181 522.516 706.121 522.527 706.058C522.534 706.002 522.576 705.96 522.628 705.956L529.164 705.194C529.645 705.138 530.082 705.486 530.138 705.97C530.194 706.455 529.848 706.894 529.366 706.95C529.296 706.96 529.227 706.957 529.164 706.95Z" fill="#F37343"/>
<path d="M526.921 734.805C527.343 733.896 529.927 728.064 527.148 721.773C525.151 717.258 521.541 715.098 520.295 714.428C519.136 714.491 515.03 714.849 511.797 718.135C509.105 720.87 506.787 725.877 508.801 730.473C511.364 736.315 518.786 736.603 519.802 736.627C523.081 736.701 525.615 735.532 526.921 734.805Z" fill="url(#paint3_linear_5199_8539)"/>
<path d="M537.595 662.403C536.457 659.651 534.875 654.802 535.151 648.711C535.315 645.08 535.748 635.587 543.181 629.401C550.369 623.414 561.297 622.863 569.365 627.645C576.096 631.637 578.708 638.076 579.49 640.284C576.519 644.139 571.467 649.69 563.779 654.328C553.138 660.753 542.964 662.091 537.595 662.403Z" fill="url(#paint4_linear_5199_8539)"/>
<path d="M591.786 770.599C575.803 775.044 555.627 774.444 541.068 767.569C523.333 759.196 518.375 742.6 518.438 727.945C519.245 713.189 521.381 698.573 524.935 684.045C529.558 669.338 537.944 655.034 554.133 645.414C564.491 639.26 576.941 635.57 590.106 638.498C601.24 642.044 607.039 650.628 610.928 658.629C615.858 668.772 618.857 679.133 619.761 689.933C620.592 699.128 622.488 708.073 625.49 717.012C633.67 739.036 621.702 762.503 591.786 770.599Z" fill="url(#paint5_radial_5199_8539)"/>
<path d="M609.165 679.957C607.556 679.648 600.901 678.177 596.247 671.882C590.574 664.207 592.463 655.567 592.756 654.328C595.825 647.615 602.72 643.707 609.539 644.652C616.954 645.677 621.426 652.053 622.781 657.487C625.089 666.735 618.522 673.82 617.593 674.789C614.528 677.984 611.068 679.36 609.165 679.957Z" fill="url(#paint6_linear_5199_8539)"/>
<path d="M567.054 702.747C566.722 704.292 570.392 707.726 574.344 706.848C577.301 706.191 579.647 703.295 579.074 701.919C578.076 699.507 567.56 700.381 567.054 702.747Z" fill="#F37343"/>
<path d="M562.291 697.642C560.395 695.735 557.32 695.735 555.424 697.642C553.528 699.548 553.528 702.641 555.424 704.548C557.32 706.454 560.395 706.454 562.291 704.548C564.19 702.641 564.19 699.548 562.291 697.642ZM561.659 703.912C560.113 705.468 557.606 705.468 556.059 703.912L561.659 698.281C563.206 699.833 563.206 702.353 561.659 703.912Z" fill="#F37343"/>
<path d="M590.703 697.642C588.807 695.735 585.732 695.735 583.836 697.642C581.94 699.548 581.94 702.641 583.836 704.548C585.732 706.454 588.807 706.454 590.703 704.548C592.599 702.641 592.599 699.548 590.703 697.642ZM590.068 703.912C588.521 705.468 586.014 705.468 584.468 703.912L590.068 698.281C591.618 699.833 591.618 702.353 590.068 703.912Z" fill="#F37343"/>
<path d="M606.931 630.194L606.174 637.668C606.167 637.732 606.111 637.781 606.045 637.774C605.989 637.767 605.947 637.725 605.94 637.668L605.182 630.194C605.133 629.709 605.483 629.277 605.968 629.228C606.45 629.179 606.879 629.53 606.928 630.018C606.938 630.071 606.938 630.134 606.931 630.194Z" fill="#F37343"/>
<path d="M615.702 634.425L609.931 639.189C609.868 639.238 609.777 639.231 609.728 639.168C609.683 639.115 609.686 639.038 609.728 638.985L614.466 633.182C614.773 632.806 615.325 632.75 615.702 633.059C616.075 633.368 616.131 633.923 615.824 634.302C615.785 634.348 615.743 634.39 615.702 634.425Z" fill="#F37343"/>
<path d="M597.654 633.182L602.486 638.894C602.584 639.01 602.57 639.182 602.455 639.281C602.35 639.368 602.2 639.365 602.102 639.281L596.422 634.422C596.052 634.106 596.01 633.551 596.321 633.179C596.631 632.806 597.187 632.764 597.557 633.077C597.588 633.112 597.623 633.151 597.654 633.182Z" fill="#F37343"/>
<path d="M593.346 641.903L600.778 642.665C600.841 642.672 600.89 642.728 600.883 642.795C600.876 642.851 600.834 642.893 600.778 642.9L593.346 643.662C592.864 643.711 592.434 643.36 592.385 642.872C592.337 642.388 592.686 641.956 593.171 641.907C593.227 641.896 593.29 641.896 593.346 641.903Z" fill="#F37343"/>
<path d="M596.32 651.235L602 646.376C602.116 646.278 602.287 646.292 602.384 646.408C602.472 646.513 602.468 646.664 602.384 646.762L597.552 652.474C597.238 652.847 596.687 652.889 596.317 652.576C595.946 652.26 595.905 651.706 596.215 651.333C596.25 651.298 596.285 651.263 596.32 651.235Z" fill="#F37343"/>
<path d="M604.991 655.564L605.748 648.089C605.755 648.026 605.811 647.977 605.877 647.984C605.933 647.991 605.975 648.033 605.982 648.089L606.74 655.564C606.789 656.049 606.439 656.48 605.954 656.53C605.472 656.579 605.043 656.228 604.994 655.74C604.987 655.684 604.987 655.62 604.991 655.564Z" fill="#F37343"/>
<path d="M614.27 652.572L609.438 646.86C609.34 646.744 609.354 646.572 609.47 646.474C609.574 646.386 609.724 646.389 609.822 646.474L615.506 651.333C615.876 651.649 615.918 652.204 615.607 652.576C615.296 652.948 614.741 652.99 614.371 652.677C614.336 652.642 614.301 652.607 614.27 652.572Z" fill="#F37343"/>
<path d="M618.577 643.855L611.144 643.093C611.082 643.086 611.033 643.03 611.04 642.964C611.047 642.907 611.089 642.865 611.144 642.858L618.577 642.096C619.059 642.047 619.489 642.398 619.537 642.886C619.586 643.371 619.237 643.803 618.752 643.852C618.696 643.862 618.633 643.859 618.577 643.855Z" fill="#F37343"/>
<path d="M838.454 603.875C839.262 617.67 835.36 631.683 825.059 641.254C814.861 650.73 800.376 654.603 786.767 654.771C785.133 654.801 784.316 654.823 782.682 654.88C769.028 655.32 754.48 652.405 743.721 643.434C734.415 635.673 729.503 624.156 728.524 612.242L837.629 590.789C837.904 595.153 838.179 599.514 838.454 603.875Z" fill="url(#paint7_linear_5199_8539)"/>
<path d="M837.5 590.958C838.739 597.247 815.359 607.147 785.284 613.069C755.209 618.987 729.823 618.689 728.584 612.396C727.345 606.106 750.724 596.206 780.8 590.285C810.875 584.363 836.261 584.665 837.5 590.958Z" fill="url(#paint8_linear_5199_8539)"/>
<path d="M750.532 615.867C734.961 616.284 730.278 613.712 729.966 612.124C729.641 610.466 732.988 606.948 743.5 602.498C753.277 598.359 766.619 594.514 781.075 591.666C793.424 589.237 805.668 587.751 815.555 587.486C831.126 587.069 835.809 589.641 836.121 591.23C836.446 592.887 833.099 596.405 822.587 600.855C812.81 604.994 799.468 608.84 785.012 611.687C772.663 614.116 760.416 615.602 750.532 615.867Z" fill="url(#paint9_radial_5199_8539)"/>
<path d="M774.115 599.793C773.372 600.321 770.097 602.644 770.584 604.164C771.629 607.434 789.344 604.686 794.818 600.49C795.447 600.007 797.1 598.741 796.789 597.743C796.555 596.988 795.299 596.709 794.378 596.544C788.29 595.465 782.119 596.929 779.868 597.512C776.46 598.397 775.197 599.027 774.115 599.793Z" fill="#FFE6CC"/>
<path d="M763.492 603.888C763.801 603.241 767.226 603.764 767.238 604.212C767.248 604.602 764.703 605.445 763.758 604.506C763.715 604.461 763.379 604.126 763.492 603.888Z" fill="#063B01"/>
<path d="M785.399 609.133C785.755 609.449 786.442 609.554 786.817 609.281C787.677 608.647 786.817 606.021 786.178 606.007C785.571 605.995 784.489 608.325 785.399 609.133Z" fill="#063B01"/>
<path d="M771.219 609.344C771.358 609.698 772.939 609.758 774.011 608.925C774.743 608.355 775.257 607.355 774.998 607.113C774.497 606.649 770.986 608.754 771.219 609.344Z" fill="#063B01"/>
<path d="M800.245 603.734C799.087 604.411 796.652 602.817 796.807 602.318C796.91 601.985 798.18 602.099 799.604 602.229C800.385 602.299 800.689 602.389 800.797 602.607C800.967 602.94 800.652 603.495 800.245 603.734Z" fill="#063B01"/>
<path d="M782.086 594.569C781.755 594.368 780.68 594.845 780.649 595.278C780.641 595.369 780.725 595.49 780.889 595.731C781.163 596.131 781.298 596.327 781.407 596.331C781.814 596.338 782.525 594.835 782.086 594.569Z" fill="#063B01"/>
<path d="M771.885 597.485C771.261 597.508 770.687 597.959 770.746 598.206C770.856 598.639 773.03 598.724 773.174 598.317C773.262 598.065 772.645 597.454 771.885 597.485Z" fill="#063B01"/>
<path d="M801.338 594.79C801.337 594.499 800.203 594.066 799.195 594.409C798.503 594.645 797.852 595.248 797.971 595.487C798.204 595.948 801.344 595.278 801.338 594.79Z" fill="#063B01"/>
<path d="M766.868 600.388C766.749 600.152 767.098 599.676 767.524 599.472C768.598 598.962 770.258 600.139 770.157 600.44C770.134 600.507 770.029 600.503 768.517 600.526C767.237 600.543 766.95 600.554 766.868 600.388Z" fill="#A2C71E"/>
<path d="M790.24 593.403C790.592 592.917 791.302 592.694 791.489 592.875C791.821 593.192 790.749 594.979 790.304 594.875C790.033 594.816 789.811 593.997 790.24 593.403Z" fill="#063B01"/>
<path d="M797.549 592.877C797.532 592.618 796.981 592.363 796.501 592.386C795.299 592.443 794.467 594.244 794.708 594.459C794.761 594.507 794.851 594.451 796.18 593.767C797.305 593.186 797.561 593.06 797.549 592.877Z" fill="#A2C71E"/>
<path d="M777.51 609.541C777.827 609.988 779.522 609.859 780.254 608.899C780.949 607.985 780.619 606.535 780.106 606.394C779.809 606.311 779.458 606.678 778.918 607.236C778.365 607.813 777.171 609.059 777.51 609.541Z" fill="#A2C71E"/>
<path d="M766.28 607.252C766.249 607.53 766.561 607.781 766.781 607.887C767.961 608.449 770.181 606.593 769.981 606.181C769.765 605.727 766.376 606.386 766.28 607.252Z" fill="#A2C71E"/>
<path d="M787.014 593.834C786.858 593.631 786.315 593.544 785.974 593.658C785.122 593.948 785.498 595.541 785.796 595.659C785.863 595.686 785.897 595.625 786.5 594.812C787.004 594.125 787.123 593.975 787.014 593.834Z" fill="#A2C71E"/>
<path d="M793.889 606.217C793.862 606.65 792.757 607.171 791.876 606.899C790.793 606.564 790.337 605.113 790.672 604.802C790.871 604.618 791.36 604.815 792.194 605.154C793.123 605.526 793.91 605.845 793.889 606.217Z" fill="#A2C71E"/>
<path d="M776.724 595.692C776.418 595.679 775.912 595.766 775.838 596.007C775.702 596.449 777.037 597.406 777.507 597.145C777.773 596.997 777.824 596.431 777.559 596.066C777.297 595.719 776.843 595.696 776.724 595.692Z" fill="#A2C71E"/>
<path d="M802.312 597.224C802.521 597.421 802.444 597.802 802.341 598.016C801.796 599.153 798.834 599.025 798.717 598.583C798.585 598.106 801.664 596.606 802.312 597.224Z" fill="#A2C71E"/>
<path d="M777.121 577.656C747.211 583.112 723.898 592.651 725.051 598.956C725.094 599.198 725.179 599.432 725.295 599.659C726.309 602.186 727.324 604.717 728.338 607.245C729.633 610.476 732.584 612.748 736.041 613.166C748.4 614.652 765.505 615.252 785.292 611.522C804.16 607.964 819.329 601.625 830.231 595.927C834.209 593.85 836.176 589.256 834.96 584.937C834.434 583.064 833.908 581.195 833.379 579.324C833.374 579.281 833.37 579.238 833.362 579.196C832.208 572.887 807.03 572.197 777.121 577.656Z" fill="url(#paint10_linear_5199_8539)"/>
<path d="M814.919 590.484C829.562 585.172 832.978 581.063 832.687 579.471C832.383 577.809 827.98 575.761 816.569 575.469C805.956 575.196 792.132 576.502 777.637 579.145C765.256 581.405 753.318 584.505 744.02 587.878C729.378 593.19 725.962 597.298 726.252 598.891C726.557 600.553 730.96 602.6 742.371 602.893C752.984 603.166 766.808 601.86 781.303 599.217C793.683 596.956 805.621 593.857 814.919 590.484Z" fill="url(#paint11_radial_5199_8539)"/>
<path d="M787.085 584.161C787.97 584.38 791.868 585.343 791.972 586.936C792.196 590.362 774.704 594.289 768.075 592.389C767.313 592.169 765.31 591.597 765.234 590.554C765.176 589.766 766.243 589.046 767.039 588.556C772.31 585.323 778.588 584.426 780.896 584.145C784.391 583.72 785.798 583.844 787.085 584.161Z" fill="#FFE6CC"/>
<path d="M798.474 584.08C797.95 583.591 794.955 585.331 795.108 585.753C795.24 586.119 797.918 585.972 798.453 584.752C798.477 584.695 798.667 584.26 798.474 584.08Z" fill="#063B01"/>
<path d="M780.004 596.983C779.788 597.408 779.184 597.758 778.738 597.64C777.706 597.365 777.545 594.607 778.134 594.359C778.698 594.125 780.554 595.899 780.004 596.983Z" fill="#063B01"/>
<path d="M793.278 591.988C793.278 592.368 791.829 593.002 790.527 592.62C789.637 592.357 788.793 591.615 788.945 591.295C789.241 590.68 793.279 591.353 793.278 591.988Z" fill="#063B01"/>
<path d="M764.214 597.394C765.538 597.599 767.221 595.224 766.894 594.817C766.676 594.545 765.536 595.115 764.258 595.758C763.558 596.109 763.308 596.304 763.287 596.547C763.254 596.917 763.747 597.32 764.214 597.394Z" fill="#063B01"/>
<path d="M777.755 582.217C777.99 581.908 779.165 581.959 779.352 582.351C779.393 582.433 779.359 582.576 779.294 582.86C779.186 583.332 779.132 583.565 779.032 583.608C778.659 583.762 777.444 582.625 777.755 582.217Z" fill="#063B01"/>
<path d="M788.319 581.195C788.909 580.988 789.608 581.197 789.643 581.449C789.699 581.892 787.707 582.767 787.425 582.441C787.247 582.24 787.6 581.444 788.319 581.195Z" fill="#063B01"/>
<path d="M759.92 589.471C759.814 589.199 760.711 588.381 761.775 588.331C762.505 588.298 763.332 588.621 763.309 588.887C763.263 589.399 760.096 589.925 759.92 589.471Z" fill="#063B01"/>
<path d="M794.05 582.059C794.074 581.797 793.575 581.481 793.104 581.447C791.918 581.366 790.804 583.069 791.008 583.312C791.054 583.366 791.15 583.324 792.565 582.791C793.76 582.34 794.031 582.245 794.05 582.059Z" fill="#A2C71E"/>
<path d="M769.742 584.116C769.236 583.792 768.494 583.845 768.386 584.082C768.194 584.498 769.845 585.769 770.221 585.509C770.449 585.356 770.359 584.511 769.742 584.116Z" fill="#063B01"/>
<path d="M762.75 586.303C762.671 586.055 763.09 585.616 763.545 585.462C764.685 585.075 766.119 586.446 765.973 586.734C765.94 586.798 765.837 586.78 764.349 586.629C763.087 586.501 762.802 586.478 762.75 586.303Z" fill="#A2C71E"/>
<path d="M787.495 594.473C787.363 595.006 785.739 595.506 784.706 594.88C783.726 594.288 783.501 592.814 783.927 592.495C784.172 592.309 784.634 592.522 785.34 592.844C786.069 593.177 787.637 593.899 787.495 594.473Z" fill="#A2C71E"/>
<path d="M797.107 588.233C797.238 588.48 797.04 588.828 796.874 589.008C795.981 589.962 793.236 589.048 793.271 588.591C793.306 588.09 796.701 587.463 797.107 588.233Z" fill="#A2C71E"/>
<path d="M772.903 583.336C772.974 583.09 773.448 582.81 773.807 582.792C774.705 582.75 774.939 584.37 774.705 584.589C774.652 584.638 774.598 584.594 773.74 584.059C773.019 583.604 772.853 583.507 772.903 583.336Z" fill="#A2C71E"/>
<path d="M771.035 597.378C771.218 597.77 772.438 597.851 773.158 597.276C774.043 596.567 773.936 595.05 773.51 594.883C773.258 594.784 772.875 595.147 772.223 595.768C771.494 596.454 770.878 597.039 771.035 597.378Z" fill="#A2C71E"/>
<path d="M783.16 581.297C783.439 581.173 783.942 581.069 784.1 581.266C784.388 581.628 783.496 583.007 782.963 582.936C782.661 582.896 782.406 582.388 782.52 581.951C782.633 581.533 783.05 581.344 783.16 581.297Z" fill="#A2C71E"/>
<path d="M759.908 592.091C759.786 592.351 759.998 592.678 760.172 592.838C761.095 593.697 763.804 592.494 763.751 592.04C763.696 591.549 760.285 591.279 759.908 592.091Z" fill="#A2C71E"/>
<path d="M776.846 564.946C806.677 559.073 831.865 559.415 833.103 565.705C833.152 565.945 833.159 566.194 833.134 566.448C833.116 569.171 833.097 571.898 833.079 574.621C833.057 578.102 831.142 581.297 828.078 582.951C817.121 588.859 801.424 595.679 781.645 599.451C762.784 603.048 746.347 602.703 734.116 601.392C729.654 600.915 726.141 597.36 725.692 592.895C725.496 590.96 725.301 589.029 725.108 587.094C725.097 587.052 725.085 587.01 725.077 586.968C723.835 580.675 747.015 570.816 776.846 564.946Z" fill="url(#paint12_linear_5199_8539)"/>
<path d="M838.451 569.526L831.55 571.914C831.491 571.933 831.458 572.001 831.48 572.06C831.499 572.112 831.549 572.142 831.602 572.134L838.839 571.168C839.307 571.106 839.639 570.68 839.578 570.215C839.516 569.75 839.087 569.425 838.618 569.486C838.562 569.495 838.503 569.51 838.451 569.526Z" fill="#F3C344"/>
<path d="M837.689 578.922L831.209 575.664C831.077 575.597 830.917 575.651 830.851 575.779C830.791 575.896 830.826 576.036 830.93 576.11L836.791 580.36C837.17 580.634 837.708 580.553 837.986 580.174C838.267 579.798 838.186 579.266 837.807 578.992C837.771 578.965 837.728 578.942 837.689 578.922Z" fill="#F3C344"/>
<path d="M746.788 590.334C731.217 590.751 726.534 588.178 726.222 586.59C725.896 584.932 729.244 581.415 739.756 576.965C749.533 572.826 762.875 568.98 777.331 566.133C789.68 563.704 801.924 562.218 811.811 561.953C827.382 561.536 832.064 564.108 832.377 565.696C832.702 567.354 829.355 570.872 818.843 575.322C809.066 579.461 795.724 583.306 781.268 586.153C768.919 588.583 756.672 590.069 746.788 590.334Z" fill="url(#paint13_radial_5199_8539)"/>
<path d="M770.369 574.26C769.626 574.789 766.351 577.112 766.837 578.632C767.883 581.902 785.598 579.154 791.071 574.958C791.701 574.475 793.354 573.209 793.043 572.211C792.809 571.455 791.553 571.177 790.632 571.012C784.544 569.933 778.373 571.397 776.122 571.98C772.714 572.864 771.45 573.495 770.369 574.26Z" fill="#FFE6CC"/>
<path d="M759.746 578.359C760.055 577.712 763.48 578.234 763.492 578.683C763.502 579.072 760.956 579.916 760.012 578.976C759.969 578.929 759.633 578.594 759.746 578.359Z" fill="#063B01"/>
<path d="M781.655 583.599C782.01 583.916 782.697 584.021 783.073 583.747C783.933 583.114 783.073 580.488 782.434 580.473C781.827 580.462 780.745 582.792 781.655 583.599Z" fill="#063B01"/>
<path d="M767.475 583.815C767.614 584.169 769.195 584.228 770.267 583.396C770.999 582.826 771.513 581.826 771.253 581.584C770.753 581.12 767.241 583.225 767.475 583.815Z" fill="#063B01"/>
<path d="M796.498 578.201C795.341 578.878 792.906 577.283 793.061 576.785C793.164 576.452 794.434 576.565 795.858 576.696C796.639 576.766 796.943 576.856 797.051 577.074C797.221 577.406 796.906 577.966 796.498 578.201Z" fill="#063B01"/>
<path d="M778.342 569.04C778.01 568.838 776.936 569.316 776.905 569.749C776.897 569.84 776.981 569.961 777.145 570.202C777.419 570.601 777.554 570.798 777.663 570.802C778.07 570.809 778.781 569.302 778.342 569.04Z" fill="#063B01"/>
<path d="M768.139 571.951C767.515 571.975 766.941 572.426 767 572.673C767.11 573.105 769.284 573.191 769.428 572.784C769.516 572.532 768.899 571.921 768.139 571.951Z" fill="#063B01"/>
<path d="M797.592 569.257C797.591 568.966 796.457 568.533 795.449 568.876C794.757 569.112 794.106 569.715 794.225 569.954C794.458 570.414 797.598 569.744 797.592 569.257Z" fill="#063B01"/>
<path d="M763.122 574.854C763.003 574.619 763.352 574.143 763.778 573.939C764.852 573.429 766.512 574.606 766.411 574.907C766.388 574.974 766.283 574.97 764.771 574.993C763.491 575.009 763.204 575.021 763.122 574.854Z" fill="#A2C71E"/>
<path d="M786.492 567.874C786.843 567.387 787.553 567.165 787.741 567.346C788.072 567.663 787 569.45 786.556 569.346C786.287 569.283 786.065 568.464 786.492 567.874Z" fill="#063B01"/>
<path d="M793.805 567.344C793.788 567.085 793.237 566.83 792.757 566.853C791.555 566.91 790.723 568.711 790.963 568.926C791.017 568.973 791.107 568.918 792.436 568.234C793.561 567.653 793.817 567.526 793.805 567.344Z" fill="#A2C71E"/>
<path d="M773.764 584.008C774.081 584.455 775.776 584.326 776.508 583.366C777.203 582.452 776.873 581.001 776.36 580.861C776.063 580.778 775.712 581.145 775.172 581.703C774.619 582.283 773.425 583.525 773.764 584.008Z" fill="#A2C71E"/>
<path d="M762.534 581.719C762.503 581.997 762.815 582.248 763.035 582.355C764.215 582.916 766.435 581.06 766.235 580.648C766.019 580.194 762.63 580.857 762.534 581.719Z" fill="#A2C71E"/>
<path d="M783.27 568.301C783.113 568.098 782.571 568.011 782.23 568.125C781.378 568.414 781.754 570.008 782.052 570.126C782.119 570.152 782.153 570.092 782.756 569.279C783.26 568.596 783.379 568.441 783.27 568.301Z" fill="#A2C71E"/>
<path d="M790.145 580.684C790.118 581.117 789.012 581.637 788.132 581.366C787.049 581.03 786.592 579.579 786.928 579.269C787.127 579.084 787.616 579.282 788.45 579.621C789.379 579.992 790.166 580.312 790.145 580.684Z" fill="#A2C71E"/>
<path d="M772.978 570.159C772.672 570.146 772.166 570.233 772.092 570.474C771.956 570.916 773.291 571.873 773.761 571.611C774.027 571.464 774.078 570.898 773.812 570.533C773.551 570.186 773.097 570.166 772.978 570.159Z" fill="#A2C71E"/>
<path d="M798.566 571.69C798.775 571.888 798.697 572.269 798.594 572.482C798.049 573.62 795.088 573.492 794.971 573.05C794.839 572.572 797.918 571.076 798.566 571.69Z" fill="#A2C71E"/>
<path d="M832.425 563.887C830.621 559.445 828.811 555.002 827.006 550.56C816.535 524.36 786.75 504.547 758.762 515.011C757.381 515.515 756.693 515.766 755.312 516.27C728.443 525.851 718.104 557.59 724.951 583.752L725.01 583.741C725.013 583.759 725.016 583.776 725.018 583.794C725.337 585.545 729.823 587.678 741.409 587.92C752.072 588.144 765.961 586.769 780.519 584.048C792.875 581.739 804.811 578.594 814.124 575.193C827.787 570.203 832.424 566.042 832.289 563.911L832.425 563.887Z" fill="url(#paint14_linear_5199_8539)"/>
<path d="M719.381 582.592L726.526 581.073C726.589 581.061 726.648 581.1 726.663 581.161C726.676 581.217 726.646 581.268 726.598 581.29L719.908 584.218C719.473 584.407 718.968 584.21 718.779 583.775C718.59 583.34 718.787 582.835 719.222 582.646C719.269 582.622 719.326 582.605 719.381 582.592Z" fill="#F3C344"/>
<path d="M720.678 573.173L726.815 577.126C726.88 577.17 726.9 577.256 726.856 577.321C726.818 577.379 726.746 577.398 726.686 577.375L719.895 574.691C719.454 574.516 719.239 574.019 719.414 573.578C719.589 573.137 720.086 572.922 720.527 573.097C720.58 573.119 720.63 573.146 720.678 573.173Z" fill="#F3C344"/>
<path d="M768.851 505.576L769.186 512.873C769.19 512.935 769.139 512.991 769.076 512.991C769.02 512.993 768.974 512.958 768.959 512.907L767.161 505.827C767.046 505.369 767.324 504.901 767.781 504.783C768.239 504.668 768.706 504.945 768.825 505.402C768.842 505.46 768.849 505.52 768.851 505.576Z" fill="#F3C344"/>
<path d="M777.936 508.386L773.034 513.797C772.98 513.854 772.893 513.86 772.836 513.806C772.786 513.761 772.777 513.686 772.809 513.63L776.563 507.367C776.807 506.961 777.334 506.828 777.74 507.072C778.146 507.315 778.279 507.842 778.035 508.248C778.009 508.299 777.97 508.347 777.936 508.386Z" fill="#F3C344"/>
<path d="M760.307 509.783L765.794 514.582C765.904 514.68 765.917 514.847 765.819 514.958C765.732 515.057 765.586 515.077 765.475 515.009L759.292 511.154C758.891 510.905 758.768 510.375 759.017 509.974C759.267 509.573 759.797 509.45 760.198 509.699C760.233 509.724 760.274 509.754 760.307 509.783Z" fill="#F3C344"/>
<path d="M767.142 571.257C764.914 571.525 763.324 573.551 763.592 575.779C763.861 578.007 765.886 579.598 768.115 579.329C770.343 579.06 771.933 577.035 771.664 574.807C771.398 572.574 769.373 570.987 767.142 571.257ZM764.34 575.689C764.12 573.872 765.417 572.219 767.234 572C769.051 571.781 770.704 573.077 770.924 574.894L764.34 575.689Z" fill="#C4CF4D"/>
<path d="M790.755 568.402C788.527 568.671 786.937 570.696 787.205 572.925C787.474 575.153 789.5 576.743 791.728 576.474C793.956 576.206 795.546 574.18 795.278 571.952C795.008 569.721 792.983 568.134 790.755 568.402ZM787.95 572.836C787.73 571.019 789.027 569.366 790.844 569.146C792.661 568.927 794.314 570.224 794.534 572.041L787.95 572.836Z" fill="#C4CF4D"/>
<path d="M777.864 576.937C777.685 575.812 778.546 573.496 779.737 573.987C780.646 574.361 781.76 576.358 781.801 577.4C781.879 579.362 778.169 578.876 777.864 576.937Z" fill="#C4CF4D"/>
<defs>
<radialGradient id="paint0_radial_5199_8539" cx="0" cy="0" r="1" gradientUnits="userSpaceOnUse" gradientTransform="translate(102.813 956.523) scale(83.69 76.9994)">
<stop stop-color="#F3EBD9"/>
<stop offset="0.4134" stop-color="#F4EAD7"/>
<stop offset="0.6395" stop-color="#F6E7CF"/>
<stop offset="0.8198" stop-color="#F9E2C1"/>
<stop offset="0.9759" stop-color="#FEDAAE"/>
<stop offset="1" stop-color="#FFD9AA"/>
</radialGradient>
<radialGradient id="paint1_radial_5199_8539" cx="0" cy="0" r="1" gradientUnits="userSpaceOnUse" gradientTransform="translate(209.872 954.639) scale(85.7124 78.8602)">
<stop stop-color="#F3EBD9"/>
<stop offset="0.4134" stop-color="#F4EAD7"/>
<stop offset="0.6395" stop-color="#F6E7CF"/>
<stop offset="0.8198" stop-color="#F9E2C1"/>
<stop offset="0.9759" stop-color="#FEDAAE"/>
<stop offset="1" stop-color="#FFD9AA"/>
</radialGradient>
<radialGradient id="paint2_radial_5199_8539" cx="0" cy="0" r="1" gradientUnits="userSpaceOnUse" gradientTransform="translate(152.105 904.51) scale(102.408 94.2215)">
<stop stop-color="#F3EBDA"/>
<stop offset="0.416" stop-color="#F4EAD8"/>
<stop offset="0.6436" stop-color="#F6E7D0"/>
<stop offset="0.825" stop-color="#F9E2C2"/>
<stop offset="0.9821" stop-color="#FEDBAF"/>
<stop offset="1" stop-color="#FFDAAC"/>
</radialGradient>
<linearGradient id="paint3_linear_5199_8539" x1="509.716" y1="731.565" x2="519.529" y2="726.162" gradientUnits="userSpaceOnUse">
<stop stop-color="#FFB5B5"/>
<stop offset="0.1947" stop-color="#FFB7AB"/>
<stop offset="0.5228" stop-color="#FFBD91"/>
<stop offset="0.9419" stop-color="#FEC766"/>
<stop offset="1" stop-color="#FEC860"/>
</linearGradient>
<linearGradient id="paint4_linear_5199_8539" x1="539.364" y1="620.024" x2="554.651" y2="644.264" gradientUnits="userSpaceOnUse">
<stop stop-color="#FFB5B5"/>
<stop offset="0.1947" stop-color="#FFB7AB"/>
<stop offset="0.5228" stop-color="#FFBD91"/>
<stop offset="0.9419" stop-color="#FEC766"/>
<stop offset="1" stop-color="#FEC860"/>
</linearGradient>
<radialGradient id="paint5_radial_5199_8539" cx="0" cy="0" r="1" gradientUnits="userSpaceOnUse" gradientTransform="translate(575.255 729.692) scale(57.8517 58.1775)">
<stop stop-color="#FFDF9C"/>
<stop offset="0.2933" stop-color="#FCD894"/>
<stop offset="0.7483" stop-color="#F5C67E"/>
<stop offset="1" stop-color="#F0BA6F"/>
</radialGradient>
<linearGradient id="paint6_linear_5199_8539" x1="634.119" y1="651.535" x2="593.249" y2="667.465" gradientUnits="userSpaceOnUse">
<stop stop-color="white"/>
<stop offset="0.2538" stop-color="#FFB5B5"/>
<stop offset="0.3991" stop-color="#FFB7AB"/>
<stop offset="0.6439" stop-color="#FFBD91"/>
<stop offset="0.9567" stop-color="#FEC766"/>
<stop offset="1" stop-color="#FEC860"/>
</linearGradient>
<linearGradient id="paint7_linear_5199_8539" x1="784.394" y1="641.319" x2="781.452" y2="531.541" gradientUnits="userSpaceOnUse">
<stop stop-color="#6A4727"/>
<stop offset="0.1931" stop-color="#734D2A"/>
<stop offset="0.5059" stop-color="#8B5E31"/>
<stop offset="0.8973" stop-color="#B27A3D"/>
<stop offset="1" stop-color="#BD8240"/>
</linearGradient>
<linearGradient id="paint8_linear_5199_8539" x1="728.3" y1="603.143" x2="837.781" y2="600.208" gradientUnits="userSpaceOnUse">
<stop stop-color="#6A4727"/>
<stop offset="0.1931" stop-color="#734D2A"/>
<stop offset="0.5059" stop-color="#8B5E31"/>
<stop offset="0.8973" stop-color="#B27A3D"/>
<stop offset="1" stop-color="#BD8240"/>
</linearGradient>
<radialGradient id="paint9_radial_5199_8539" cx="0" cy="0" r="1" gradientUnits="userSpaceOnUse" gradientTransform="translate(783.027 601.686) rotate(-11.2248) scale(53.5846 10.6711)">
<stop stop-color="#C4CF4D"/>
<stop offset="0.2634" stop-color="#C6D24D"/>
<stop offset="0.4274" stop-color="#CCDA4E"/>
<stop offset="0.5637" stop-color="#D5E950"/>
<stop offset="0.6193" stop-color="#DBF151"/>
<stop offset="1" stop-color="#C4CF4D"/>
</radialGradient>
<linearGradient id="paint10_linear_5199_8539" x1="729.958" y1="612.583" x2="832.071" y2="575.538" gradientUnits="userSpaceOnUse">
<stop stop-color="#6A4727"/>
<stop offset="0.1931" stop-color="#734D2A"/>
<stop offset="0.5059" stop-color="#8B5E31"/>
<stop offset="0.8973" stop-color="#B27A3D"/>
<stop offset="1" stop-color="#BD8240"/>
</linearGradient>
<radialGradient id="paint11_radial_5199_8539" cx="0" cy="0" r="1" gradientUnits="userSpaceOnUse" gradientTransform="translate(779.611 589.266) rotate(169.75) scale(53.5846 10.6711)">
<stop stop-color="#C4CF4D"/>
<stop offset="0.2634" stop-color="#C6D24D"/>
<stop offset="0.4274" stop-color="#CCDA4E"/>
<stop offset="0.5637" stop-color="#D5E950"/>
<stop offset="0.6193" stop-color="#DBF151"/>
<stop offset="1" stop-color="#C4CF4D"/>
</radialGradient>
<linearGradient id="paint12_linear_5199_8539" x1="833.521" y1="580.181" x2="724.935" y2="583.092" gradientUnits="userSpaceOnUse">
<stop stop-color="#6A4727"/>
<stop offset="0.1931" stop-color="#734D2A"/>
<stop offset="0.5059" stop-color="#8B5E31"/>
<stop offset="0.8973" stop-color="#B27A3D"/>
<stop offset="1" stop-color="#BD8240"/>
</linearGradient>
<radialGradient id="paint13_radial_5199_8539" cx="0" cy="0" r="1" gradientUnits="userSpaceOnUse" gradientTransform="translate(779.285 576.153) rotate(-11.2248) scale(53.5846 10.6711)">
<stop stop-color="#C4CF4D"/>
<stop offset="0.2634" stop-color="#C6D24D"/>
<stop offset="0.4274" stop-color="#CCDA4E"/>
<stop offset="0.5637" stop-color="#D5E950"/>
<stop offset="0.6193" stop-color="#DBF151"/>
<stop offset="1" stop-color="#C4CF4D"/>
</radialGradient>
<linearGradient id="paint14_linear_5199_8539" x1="804.543" y1="644.62" x2="764.575" y2="535.173" gradientUnits="userSpaceOnUse">
<stop stop-color="#6A4727"/>
<stop offset="0.1931" stop-color="#734D2A"/>
<stop offset="0.5059" stop-color="#8B5E31"/>
<stop offset="0.8973" stop-color="#B27A3D"/>
<stop offset="1" stop-color="#BD8240"/>
</linearGradient>
</defs>
</svg>
