<svg width="1342" height="1024" viewBox="0 0 1342 1024" fill="none" xmlns="http://www.w3.org/2000/svg">
<path d="M972.922 399.431L169 867.129L388.777 996L1171.01 535.542C1176.79 511.216 1168.6 498.377 1163.78 494.998C1115.58 466.487 1015.72 407.457 1001.84 399.431C987.959 391.406 976.778 396.087 972.922 399.431Z" fill="#F4EFEF" stroke="black" stroke-linejoin="round"/>
<path d="M366 785C382.24 791.859 450.1 831.858 482 851" stroke="black"/>
<path d="M451 734.857C467.24 741.82 535.1 782.425 567 801.857" stroke="black"/>
<path d="M536 685.715C552.24 692.574 620.1 732.573 652 751.715" stroke="black"/>
<path d="M621 636.57C637.24 643.429 705.1 683.428 737 702.57" stroke="black"/>
<path d="M706 587.428C722.24 594.287 790.1 634.286 822 653.428" stroke="black"/>
<path d="M791 537.285C807.38 544.248 875.825 584.853 908 604.285" stroke="black"/>
<path d="M877 487.143C893.1 494.105 960.375 534.711 992 554.143" stroke="black"/>
<path d="M961 437C977.24 443.963 1045.1 484.568 1077 504" stroke="black"/>
<path d="M341.037 967.974L1163 497" stroke="black"/>
<ellipse cx="535.093" cy="883.231" rx="17.7269" ry="12.8657" transform="rotate(-54.8943 535.093 883.231)" fill="#8FE3C1"/>
<ellipse cx="826.042" cy="715.487" rx="17.7269" ry="12.8657" transform="rotate(-54.8943 826.042 715.487)" fill="#8FE3C1"/>
<ellipse cx="973.554" cy="631.608" rx="17.7269" ry="12.8657" transform="rotate(-54.8943 973.554 631.608)" fill="#8FE3C1"/>
<ellipse cx="1118.17" cy="547.729" rx="17.7269" ry="12.8657" transform="rotate(-54.8943 1118.17 547.729)" fill="#8FE3C1"/>
<ellipse cx="681.423" cy="799.365" rx="17.7269" ry="12.8657" transform="rotate(-54.8943 681.423 799.365)" fill="#8FE3C1"/>
<path d="M628.629 734.113C629.438 747.909 625.536 761.921 615.235 771.492C605.037 780.969 590.552 784.841 576.943 785.009C575.309 785.039 574.492 785.061 572.858 785.119C559.204 785.558 544.656 782.643 533.896 773.672C524.59 765.912 519.678 754.394 518.699 742.481L627.805 721.027C628.08 725.391 628.355 729.752 628.629 734.113Z" fill="url(#paint0_linear_5199_11774)"/>
<path d="M627.676 721.194C628.915 727.483 605.535 737.383 575.46 743.305C545.384 749.223 519.998 748.925 518.759 742.632C517.521 736.343 540.9 726.443 570.976 720.521C601.051 714.599 626.437 714.901 627.676 721.194Z" fill="url(#paint1_linear_5199_11774)"/>
<path d="M540.708 746.103C525.137 746.521 520.454 743.948 520.142 742.36C519.816 740.702 523.164 737.184 533.676 732.734C543.452 728.595 556.795 724.75 571.251 721.903C583.6 719.474 595.844 717.988 605.731 717.723C621.302 717.305 625.984 719.878 626.297 721.466C626.622 723.124 623.275 726.641 612.763 731.091C602.986 735.231 589.644 739.076 575.188 741.923C562.839 744.352 550.592 745.838 540.708 746.103Z" fill="url(#paint2_radial_5199_11774)"/>
<path d="M564.291 730.03C563.547 730.559 560.273 732.881 560.759 734.402C561.805 737.672 579.52 734.923 584.993 730.728C585.622 730.244 587.276 728.979 586.965 727.98C586.731 727.225 585.474 726.946 584.554 726.782C578.466 725.703 572.295 727.166 570.044 727.75C566.636 728.634 565.372 729.264 564.291 730.03Z" fill="#FFE6CC"/>
<path d="M553.668 734.126C553.977 733.479 557.402 734.001 557.414 734.45C557.424 734.839 554.878 735.683 553.934 734.743C553.891 734.699 553.555 734.364 553.668 734.126Z" fill="#063B01"/>
<path d="M575.575 739.37C575.93 739.687 576.617 739.791 576.992 739.518C577.853 738.884 576.993 736.258 576.354 736.244C575.747 736.232 574.665 738.563 575.575 739.37Z" fill="#063B01"/>
<path d="M561.395 739.581C561.534 739.935 563.114 739.995 564.187 739.163C564.919 738.592 565.432 737.592 565.173 737.35C564.673 736.887 561.161 738.991 561.395 739.581Z" fill="#063B01"/>
<path d="M590.42 733.973C589.263 734.649 586.827 733.055 586.982 732.556C587.086 732.223 588.355 732.337 589.78 732.467C590.561 732.537 590.865 732.627 590.973 732.846C591.143 733.178 590.828 733.734 590.42 733.973Z" fill="#063B01"/>
<path d="M572.262 724.805C571.93 724.604 570.855 725.082 570.825 725.514C570.817 725.606 570.901 725.726 571.065 725.967C571.339 726.367 571.474 726.563 571.583 726.568C571.99 726.574 572.701 725.071 572.262 724.805Z" fill="#063B01"/>
<path d="M562.061 727.721C561.437 727.745 560.863 728.195 560.922 728.443C561.032 728.875 563.206 728.96 563.35 728.553C563.438 728.302 562.821 727.69 562.061 727.721Z" fill="#063B01"/>
<path d="M591.514 725.027C591.513 724.736 590.379 724.303 589.37 724.646C588.679 724.882 588.028 725.486 588.147 725.725C588.38 726.185 591.52 725.515 591.514 725.027Z" fill="#063B01"/>
<path d="M557.044 730.625C556.925 730.39 557.274 729.914 557.7 729.709C558.774 729.2 560.434 730.376 560.333 730.677C560.31 730.744 560.205 730.74 558.693 730.763C557.413 730.78 557.125 730.791 557.044 730.625Z" fill="#A2C71E"/>
<path d="M580.416 723.641C580.768 723.155 581.478 722.932 581.665 723.113C581.996 723.431 580.925 725.217 580.48 725.113C580.208 725.054 579.986 724.235 580.416 723.641Z" fill="#063B01"/>
<path d="M587.725 723.115C587.708 722.856 587.157 722.6 586.677 722.624C585.475 722.68 584.643 724.482 584.883 724.696C584.937 724.744 585.027 724.689 586.356 724.004C587.481 723.423 587.737 723.297 587.725 723.115Z" fill="#A2C71E"/>
<path d="M567.686 739.777C568.003 740.225 569.698 740.095 570.43 739.135C571.125 738.222 570.795 736.771 570.282 736.63C569.985 736.547 569.634 736.914 569.094 737.473C568.541 738.049 567.347 739.295 567.686 739.777Z" fill="#A2C71E"/>
<path d="M556.456 737.49C556.424 737.768 556.736 738.019 556.957 738.126C558.137 738.687 560.357 736.831 560.157 736.419C559.941 735.965 556.552 736.624 556.456 737.49Z" fill="#A2C71E"/>
<path d="M577.19 724.07C577.033 723.867 576.491 723.78 576.15 723.894C575.298 724.184 575.674 725.777 575.972 725.896C576.039 725.922 576.073 725.861 576.675 725.049C577.18 724.362 577.299 724.211 577.19 724.07Z" fill="#A2C71E"/>
<path d="M584.065 736.454C584.038 736.886 582.932 737.407 582.051 737.136C580.969 736.8 580.512 735.349 580.848 735.038C581.046 734.854 581.536 735.051 582.37 735.39C583.299 735.762 584.086 736.081 584.065 736.454Z" fill="#A2C71E"/>
<path d="M566.9 725.928C566.594 725.916 566.088 726.003 566.014 726.243C565.878 726.686 567.212 727.643 567.683 727.381C567.949 727.234 568 726.667 567.734 726.302C567.472 725.955 567.019 725.932 566.9 725.928Z" fill="#A2C71E"/>
<path d="M592.488 727.46C592.697 727.658 592.619 728.039 592.516 728.252C591.971 729.389 589.01 729.262 588.893 728.819C588.761 728.342 591.84 726.842 592.488 727.46Z" fill="#A2C71E"/>
<path d="M567.297 707.894C537.387 713.349 514.074 722.889 515.227 729.194C515.27 729.436 515.355 729.67 515.47 729.896C516.484 732.424 517.499 734.955 518.513 737.482C519.809 740.713 522.76 742.986 526.217 743.403C538.576 744.889 555.681 745.49 575.467 741.759C594.336 738.201 609.505 731.862 620.407 726.165C624.385 724.088 626.352 719.493 625.136 715.174C624.609 713.302 624.084 711.432 623.555 709.561C623.55 709.518 623.546 709.475 623.538 709.433C622.384 703.125 597.206 702.435 567.297 707.894Z" fill="url(#paint3_linear_5199_11774)"/>
<path d="M605.095 720.721C619.738 715.409 623.154 711.301 622.863 709.708C622.559 708.047 618.156 705.999 606.744 705.706C596.131 705.433 582.308 706.739 567.813 709.382C555.432 711.643 543.494 714.742 534.196 718.115C519.554 723.427 516.138 727.536 516.428 729.128C516.732 730.79 521.136 732.838 532.547 733.13C543.16 733.403 556.983 732.097 571.479 729.454C583.859 727.194 595.797 724.094 605.095 720.721Z" fill="url(#paint4_radial_5199_11774)"/>
<path d="M577.26 714.398C578.146 714.618 582.044 715.58 582.147 717.173C582.372 720.599 564.88 724.527 558.251 722.626C557.488 722.406 555.486 721.834 555.41 720.791C555.352 720.003 556.419 719.284 557.215 718.793C562.486 715.56 568.764 714.663 571.072 714.382C574.567 713.957 575.974 714.081 577.26 714.398Z" fill="#FFE6CC"/>
<path d="M588.65 714.319C588.126 713.83 585.13 715.569 585.283 715.991C585.416 716.357 588.094 716.21 588.629 714.99C588.653 714.933 588.842 714.499 588.65 714.319Z" fill="#063B01"/>
<path d="M570.179 727.219C569.964 727.644 569.36 727.994 568.914 727.876C567.882 727.601 567.72 724.843 568.31 724.596C568.874 724.361 570.73 726.135 570.179 727.219Z" fill="#063B01"/>
<path d="M583.454 722.224C583.454 722.604 582.005 723.238 580.702 722.856C579.812 722.594 578.969 721.851 579.121 721.531C579.417 720.916 583.455 721.589 583.454 722.224Z" fill="#063B01"/>
<path d="M554.39 727.631C555.714 727.837 557.397 725.461 557.07 725.054C556.852 724.782 555.712 725.353 554.434 725.995C553.733 726.347 553.483 726.542 553.463 726.784C553.43 727.155 553.923 727.558 554.39 727.631Z" fill="#063B01"/>
<path d="M567.931 712.455C568.166 712.146 569.341 712.198 569.527 712.589C569.568 712.671 569.534 712.814 569.47 713.099C569.361 713.571 569.308 713.803 569.208 713.847C568.834 714.001 567.62 712.863 567.931 712.455Z" fill="#063B01"/>
<path d="M578.495 711.432C579.084 711.226 579.783 711.435 579.819 711.687C579.875 712.129 577.883 713.005 577.6 712.678C577.423 712.478 577.776 711.682 578.495 711.432Z" fill="#063B01"/>
<path d="M550.096 719.707C549.99 719.436 550.887 718.618 551.951 718.568C552.681 718.534 553.507 718.857 553.484 719.123C553.439 719.636 550.272 720.162 550.096 719.707Z" fill="#063B01"/>
<path d="M584.225 712.296C584.25 712.034 583.751 711.719 583.28 711.684C582.094 711.603 580.98 713.306 581.184 713.549C581.23 713.603 581.326 713.561 582.741 713.029C583.935 712.577 584.207 712.482 584.225 712.296Z" fill="#A2C71E"/>
<path d="M559.917 714.354C559.412 714.03 558.67 714.083 558.562 714.32C558.37 714.737 560.021 716.007 560.397 715.747C560.625 715.594 560.535 714.75 559.917 714.354Z" fill="#063B01"/>
<path d="M552.925 716.541C552.847 716.293 553.266 715.854 553.721 715.7C554.86 715.313 556.294 716.684 556.149 716.972C556.116 717.036 556.012 717.018 554.525 716.867C553.262 716.74 552.978 716.716 552.925 716.541Z" fill="#A2C71E"/>
<path d="M577.67 724.711C577.539 725.244 575.914 725.744 574.882 725.119C573.902 724.526 573.677 723.052 574.102 722.734C574.348 722.547 574.81 722.761 575.516 723.083C576.245 723.415 577.813 724.137 577.67 724.711Z" fill="#A2C71E"/>
<path d="M587.283 718.469C587.414 718.717 587.216 719.065 587.05 719.244C586.157 720.199 583.411 719.285 583.447 718.828C583.482 718.326 586.877 717.699 587.283 718.469Z" fill="#A2C71E"/>
<path d="M563.079 713.572C563.15 713.326 563.623 713.047 563.982 713.028C564.881 712.986 565.114 714.606 564.881 714.825C564.827 714.875 564.774 714.83 563.916 714.295C563.195 713.84 563.029 713.743 563.079 713.572Z" fill="#A2C71E"/>
<path d="M561.211 727.614C561.394 728.007 562.613 728.087 563.334 727.512C564.218 726.803 564.112 725.286 563.686 725.12C563.434 725.021 563.051 725.384 562.399 726.004C561.67 726.69 561.054 727.276 561.211 727.614Z" fill="#A2C71E"/>
<path d="M573.335 711.534C573.615 711.411 574.118 711.306 574.275 711.503C574.563 711.865 573.672 713.244 573.139 713.173C572.837 713.133 572.582 712.625 572.696 712.188C572.809 711.77 573.226 711.582 573.335 711.534Z" fill="#A2C71E"/>
<path d="M550.084 722.328C549.962 722.589 550.174 722.915 550.348 723.076C551.271 723.935 553.98 722.732 553.927 722.277C553.872 721.786 550.461 721.516 550.084 722.328Z" fill="#A2C71E"/>
<path d="M567.022 695.184C596.853 689.311 622.04 689.653 623.279 695.943C623.328 696.184 623.334 696.433 623.31 696.686C623.291 699.409 623.273 702.136 623.255 704.859C623.232 708.34 621.318 711.535 618.254 713.189C607.297 719.097 591.599 725.917 571.821 729.69C552.96 733.286 536.523 732.941 524.292 731.63C519.83 731.153 516.317 727.598 515.868 723.133C515.672 721.198 515.476 719.267 515.284 717.332C515.273 717.29 515.261 717.248 515.253 717.206C514.01 710.914 537.191 701.054 567.022 695.184Z" fill="url(#paint5_linear_5199_11774)"/>
<path d="M628.626 699.763L621.726 702.152C621.667 702.171 621.633 702.238 621.656 702.297C621.675 702.349 621.725 702.38 621.777 702.371L629.014 701.405C629.483 701.344 629.815 700.917 629.754 700.452C629.692 699.987 629.262 699.662 628.794 699.724C628.738 699.732 628.679 699.748 628.626 699.763Z" fill="#F3C344"/>
<path d="M627.865 709.16L621.385 705.902C621.253 705.836 621.093 705.889 621.026 706.017C620.966 706.135 621.002 706.274 621.105 706.348L626.967 710.598C627.346 710.872 627.884 710.791 628.162 710.412C628.443 710.036 628.362 709.505 627.983 709.231C627.947 709.204 627.904 709.18 627.865 709.16Z" fill="#F3C344"/>
<path d="M536.964 720.572C521.393 720.989 516.71 718.417 516.397 716.829C516.072 715.171 519.42 711.653 529.932 707.203C539.708 703.064 553.05 699.219 567.507 696.372C579.855 693.942 592.099 692.456 601.987 692.191C617.557 691.774 622.24 694.347 622.553 695.935C622.878 697.592 619.53 701.11 609.018 705.56C599.242 709.699 585.9 713.545 571.443 716.392C559.095 718.821 546.847 720.307 536.964 720.572Z" fill="url(#paint6_radial_5199_11774)"/>
<path d="M560.545 704.497C559.801 705.025 556.527 707.348 557.013 708.868C558.059 712.139 575.774 709.39 581.247 705.194C581.876 704.711 583.53 703.446 583.219 702.447C582.985 701.692 581.728 701.413 580.808 701.248C574.72 700.17 568.549 701.633 566.298 702.216C562.89 703.101 561.626 703.731 560.545 704.497Z" fill="#FFE6CC"/>
<path d="M549.922 708.596C550.231 707.949 553.655 708.472 553.667 708.921C553.678 709.31 551.132 710.153 550.188 709.214C550.144 709.166 549.809 708.831 549.922 708.596Z" fill="#063B01"/>
<path d="M571.83 713.837C572.186 714.153 572.873 714.258 573.248 713.985C574.109 713.351 573.249 710.725 572.61 710.711C572.002 710.699 570.921 713.029 571.83 713.837Z" fill="#063B01"/>
<path d="M557.651 714.052C557.79 714.406 559.37 714.466 560.443 713.633C561.175 713.063 561.688 712.063 561.429 711.821C560.929 711.357 557.417 713.462 557.651 714.052Z" fill="#063B01"/>
<path d="M586.674 708.439C585.517 709.116 583.081 707.522 583.236 707.023C583.34 706.69 584.609 706.804 586.034 706.934C586.815 707.004 587.119 707.094 587.226 707.312C587.397 707.645 587.082 708.204 586.674 708.439Z" fill="#063B01"/>
<path d="M568.518 699.276C568.186 699.075 567.111 699.552 567.081 699.985C567.073 700.076 567.157 700.197 567.321 700.438C567.595 700.838 567.73 701.034 567.839 701.038C568.246 701.045 568.957 699.538 568.518 699.276Z" fill="#063B01"/>
<path d="M558.315 702.19C557.691 702.213 557.117 702.664 557.176 702.911C557.286 703.344 559.46 703.429 559.604 703.022C559.692 702.77 559.075 702.159 558.315 702.19Z" fill="#063B01"/>
<path d="M587.768 699.494C587.767 699.203 586.633 698.77 585.624 699.113C584.933 699.349 584.282 699.952 584.401 700.191C584.634 700.652 587.774 699.982 587.768 699.494Z" fill="#063B01"/>
<path d="M553.298 705.092C553.179 704.856 553.528 704.38 553.954 704.176C555.028 703.666 556.687 704.843 556.587 705.144C556.564 705.211 556.459 705.207 554.947 705.23C553.667 705.247 553.379 705.258 553.298 705.092Z" fill="#A2C71E"/>
<path d="M576.667 698.11C577.019 697.624 577.729 697.401 577.916 697.582C578.248 697.9 577.176 699.686 576.731 699.582C576.463 699.519 576.241 698.701 576.667 698.11Z" fill="#063B01"/>
<path d="M583.981 697.582C583.963 697.322 583.413 697.067 582.933 697.09C581.731 697.147 580.898 698.948 581.139 699.163C581.193 699.211 581.283 699.156 582.612 698.471C583.737 697.89 583.993 697.764 583.981 697.582Z" fill="#A2C71E"/>
<path d="M563.94 714.244C564.257 714.691 565.952 714.562 566.684 713.602C567.379 712.689 567.049 711.238 566.536 711.097C566.239 711.014 565.888 711.381 565.348 711.94C564.795 712.519 563.601 713.762 563.94 714.244Z" fill="#A2C71E"/>
<path d="M552.71 711.956C552.678 712.234 552.99 712.486 553.211 712.592C554.391 713.153 556.611 711.297 556.41 710.885C556.195 710.431 552.806 711.094 552.71 711.956Z" fill="#A2C71E"/>
<path d="M573.445 698.537C573.289 698.334 572.746 698.247 572.406 698.361C571.554 698.651 571.93 700.244 572.228 700.362C572.295 700.389 572.329 700.328 572.931 699.516C573.436 698.832 573.555 698.678 573.445 698.537Z" fill="#A2C71E"/>
<path d="M580.321 710.921C580.294 711.353 579.188 711.874 578.307 711.603C577.225 711.267 576.768 709.816 577.104 709.505C577.302 709.321 577.792 709.518 578.625 709.857C579.555 710.229 580.342 710.548 580.321 710.921Z" fill="#A2C71E"/>
<path d="M563.154 700.395C562.848 700.382 562.342 700.47 562.267 700.71C562.132 701.152 563.466 702.11 563.936 701.848C564.203 701.7 564.254 701.134 563.988 700.769C563.726 700.422 563.273 700.402 563.154 700.395Z" fill="#A2C71E"/>
<path d="M588.742 701.927C588.951 702.125 588.873 702.506 588.77 702.72C588.225 703.857 585.264 703.729 585.147 703.287C585.015 702.81 588.094 701.313 588.742 701.927Z" fill="#A2C71E"/>
<path d="M622.601 694.123C620.796 689.682 618.987 685.238 617.182 680.797C606.71 654.596 576.926 634.783 548.938 645.247C547.557 645.751 546.869 646.002 545.488 646.507C518.619 656.087 508.28 687.826 515.126 713.988L515.186 713.977C515.189 713.995 515.191 714.013 515.194 714.03C515.512 715.781 519.999 717.914 531.584 718.156C542.248 718.381 556.137 717.006 570.695 714.284C583.051 711.975 594.986 708.83 604.3 705.429C617.963 700.439 622.6 696.278 622.464 694.147L622.601 694.123Z" fill="url(#paint7_linear_5199_11774)"/>
<path d="M509.557 712.829L516.702 711.311C516.765 711.299 516.824 711.337 516.839 711.399C516.851 711.454 516.822 711.506 516.774 711.527L510.084 714.455C509.649 714.644 509.144 714.448 508.955 714.013C508.766 713.577 508.963 713.073 509.398 712.884C509.445 712.859 509.502 712.842 509.557 712.829Z" fill="#F3C344"/>
<path d="M510.854 703.409L516.991 707.363C517.055 707.406 517.076 707.492 517.032 707.557C516.994 707.616 516.922 707.634 516.861 707.612L510.071 704.927C509.63 704.752 509.415 704.256 509.59 703.815C509.765 703.374 510.262 703.159 510.703 703.334C510.756 703.356 510.806 703.382 510.854 703.409Z" fill="#F3C344"/>
<path d="M559.027 635.812L559.361 643.109C559.365 643.171 559.315 643.227 559.252 643.228C559.196 643.229 559.15 643.194 559.135 643.143L557.337 636.063C557.222 635.605 557.5 635.138 557.957 635.019C558.415 634.904 558.882 635.182 559.001 635.639C559.018 635.696 559.025 635.757 559.027 635.812Z" fill="#F3C344"/>
<path d="M568.112 638.623L563.21 644.035C563.156 644.092 563.069 644.098 563.012 644.044C562.962 643.999 562.953 643.923 562.985 643.867L566.739 637.604C566.983 637.198 567.509 637.065 567.916 637.309C568.322 637.553 568.455 638.079 568.211 638.486C568.185 638.536 568.146 638.584 568.112 638.623Z" fill="#F3C344"/>
<path d="M550.483 640.019L555.969 644.819C556.08 644.917 556.092 645.084 555.994 645.194C555.907 645.293 555.761 645.313 555.651 645.245L549.468 641.391C549.067 641.141 548.944 640.611 549.193 640.21C549.443 639.809 549.973 639.686 550.374 639.936C550.409 639.96 550.45 639.99 550.483 640.019Z" fill="#F3C344"/>
<path d="M557.318 701.494C555.09 701.762 553.499 703.788 553.768 706.016C554.036 708.245 556.062 709.835 558.29 709.566C560.519 709.298 562.109 707.272 561.84 705.044C561.574 702.811 559.549 701.224 557.318 701.494ZM554.515 705.926C554.296 704.11 555.593 702.456 557.41 702.237C559.227 702.018 560.88 703.315 561.099 705.131L554.515 705.926Z" fill="#C4CF4D"/>
<path d="M580.931 698.64C578.703 698.909 577.113 700.935 577.381 703.163C577.65 705.391 579.675 706.981 581.904 706.713C584.132 706.444 585.722 704.418 585.454 702.19C585.184 699.959 583.159 698.372 580.931 698.64ZM578.125 703.074C577.906 701.257 579.203 699.604 581.02 699.385C582.837 699.166 584.49 700.462 584.709 702.279L578.125 703.074Z" fill="#C4CF4D"/>
<path d="M568.04 707.175C567.861 706.05 568.721 703.734 569.912 704.225C570.822 704.599 571.936 706.597 571.977 707.638C572.055 709.6 568.345 709.114 568.04 707.175Z" fill="#C4CF4D"/>
<path d="M172.303 711.865V724.824H149.633V711.865H136.215V689.194H149.633V676.824H172.303V689.194H184.215V711.865H172.303Z" fill="#3DCE94"/>
<path d="M315.027 822.528L314.273 829.097C314.266 829.16 314.207 829.209 314.144 829.199C314.088 829.192 314.046 829.15 314.043 829.097L313.285 822.525C313.229 822.04 313.575 821.601 314.057 821.545C314.539 821.489 314.975 821.836 315.031 822.321C315.034 822.391 315.034 822.461 315.027 822.528Z" fill="#F37343"/>
<path d="M322.709 826.323L317.574 830.452C317.511 830.501 317.42 830.491 317.371 830.431C317.329 830.378 317.329 830.301 317.371 830.248L321.477 825.084C321.781 824.701 322.332 824.641 322.713 824.947C323.093 825.252 323.153 825.807 322.849 826.19C322.804 826.235 322.755 826.284 322.709 826.323Z" fill="#F37343"/>
<path d="M306.838 825.08L311.035 830.153C311.132 830.269 311.115 830.444 311 830.539C310.898 830.623 310.748 830.623 310.651 830.539L305.606 826.319C305.232 826.007 305.183 825.452 305.49 825.076C305.801 824.701 306.353 824.651 306.726 824.96C306.768 825.002 306.807 825.041 306.838 825.08Z" fill="#F37343"/>
<path d="M302.98 832.716L309.516 833.478C309.578 833.485 309.627 833.545 309.617 833.608C309.61 833.664 309.568 833.706 309.516 833.71L302.98 834.472C302.498 834.528 302.062 834.18 302.006 833.696C301.95 833.211 302.296 832.772 302.777 832.716C302.844 832.709 302.914 832.709 302.98 832.716Z" fill="#F37343"/>
<path d="M305.517 840.952L310.562 836.732C310.677 836.634 310.852 836.651 310.946 836.767C311.03 836.869 311.03 837.02 310.946 837.118L306.75 842.191C306.439 842.567 305.887 842.616 305.514 842.307C305.14 841.995 305.091 841.44 305.399 841.064C305.437 841.026 305.479 840.984 305.517 840.952Z" fill="#F37343"/>
<path d="M313.111 844.836L313.868 838.263C313.875 838.2 313.935 838.151 313.997 838.162C314.053 838.169 314.095 838.211 314.099 838.263L314.856 844.836C314.912 845.32 314.567 845.759 314.085 845.815C313.603 845.872 313.167 845.524 313.111 845.039C313.104 844.969 313.104 844.899 313.111 844.836Z" fill="#F37343"/>
<path d="M321.303 842.28L317.107 837.207C317.009 837.091 317.026 836.916 317.141 836.821C317.243 836.737 317.393 836.737 317.491 836.821L322.535 841.041C322.909 841.354 322.958 841.908 322.651 842.284C322.34 842.66 321.788 842.709 321.415 842.4C321.376 842.361 321.334 842.319 321.303 842.28Z" fill="#F37343"/>
<path d="M325.164 834.644L318.628 833.882C318.565 833.875 318.516 833.816 318.527 833.752C318.534 833.696 318.576 833.654 318.628 833.651L325.164 832.889C325.645 832.833 326.082 833.18 326.138 833.665C326.194 834.149 325.848 834.588 325.366 834.644C325.296 834.655 325.227 834.651 325.164 834.644Z" fill="#F37343"/>
<path d="M322.921 862.5C323.343 861.591 325.927 855.759 323.148 849.468C321.151 844.953 317.541 842.794 316.295 842.123C315.136 842.186 311.03 842.544 307.797 845.831C305.105 848.566 302.787 853.572 304.801 858.168C307.364 864.01 314.786 864.298 315.802 864.323C319.081 864.396 321.615 863.227 322.921 862.5Z" fill="url(#paint8_linear_5199_11774)"/>
<path d="M333.595 790.097C332.457 787.345 330.875 782.496 331.151 776.405C331.315 772.775 331.748 763.281 339.181 757.095C346.369 751.109 357.297 750.558 365.365 755.339C372.096 759.331 374.708 765.77 375.49 767.979C372.519 771.834 367.467 777.384 359.779 782.022C349.138 788.447 338.964 789.785 333.595 790.097Z" fill="url(#paint9_linear_5199_11774)"/>
<path d="M387.786 898.294C371.803 902.738 351.627 902.138 337.068 895.264C319.333 886.89 314.375 870.294 314.438 855.64C315.245 840.883 317.381 826.267 320.935 811.739C325.558 797.032 333.944 782.728 350.133 773.108C360.491 766.954 372.941 763.264 386.106 766.192C397.24 769.738 403.039 778.322 406.928 786.324C411.858 796.467 414.857 806.827 415.761 817.627C416.592 826.822 418.488 835.768 421.49 844.707C429.67 866.73 417.702 890.197 387.786 898.294Z" fill="url(#paint10_radial_5199_11774)"/>
<path d="M405.165 807.653C403.556 807.344 396.901 805.873 392.247 799.577C386.574 791.903 388.463 783.262 388.756 782.023C391.825 775.31 398.72 771.402 405.539 772.347C412.954 773.372 417.426 779.748 418.781 785.183C421.089 794.43 414.522 801.516 413.593 802.485C410.528 805.679 407.068 807.056 405.165 807.653Z" fill="url(#paint11_linear_5199_11774)"/>
<path d="M363.054 830.442C362.722 831.986 366.392 835.42 370.344 834.542C373.301 833.886 375.647 830.989 375.074 829.613C374.076 827.201 363.56 828.075 363.054 830.442Z" fill="#F37343"/>
<path d="M358.291 825.336C356.395 823.43 353.32 823.43 351.424 825.336C349.528 827.242 349.528 830.336 351.424 832.242C353.32 834.148 356.395 834.148 358.291 832.242C360.19 830.336 360.19 827.242 358.291 825.336ZM357.659 831.607C356.113 833.162 353.606 833.162 352.059 831.607L357.659 825.975C359.206 827.527 359.206 830.048 357.659 831.607Z" fill="#F37343"/>
<path d="M386.703 825.336C384.807 823.43 381.732 823.43 379.836 825.336C377.94 827.242 377.94 830.336 379.836 832.242C381.732 834.148 384.807 834.148 386.703 832.242C388.599 830.336 388.599 827.242 386.703 825.336ZM386.068 831.607C384.521 833.162 382.014 833.162 380.468 831.607L386.068 825.975C387.618 827.527 387.618 830.048 386.068 831.607Z" fill="#F37343"/>
<path d="M402.931 757.888L402.174 765.363C402.167 765.426 402.111 765.475 402.045 765.468C401.989 765.461 401.947 765.419 401.94 765.363L401.182 757.888C401.133 757.404 401.483 756.972 401.968 756.923C402.45 756.873 402.879 757.224 402.928 757.713C402.938 757.765 402.938 757.828 402.931 757.888Z" fill="#F37343"/>
<path d="M411.702 762.118L405.931 766.882C405.868 766.932 405.777 766.925 405.728 766.861C405.683 766.809 405.686 766.731 405.728 766.679L410.466 760.875C410.773 760.5 411.325 760.443 411.702 760.752C412.075 761.061 412.131 761.616 411.824 761.995C411.785 762.041 411.743 762.083 411.702 762.118Z" fill="#F37343"/>
<path d="M393.654 760.876L398.486 766.589C398.584 766.705 398.57 766.877 398.455 766.975C398.35 767.063 398.2 767.059 398.102 766.975L392.422 762.116C392.052 761.8 392.01 761.245 392.321 760.873C392.631 760.501 393.187 760.459 393.557 760.771C393.588 760.806 393.623 760.845 393.654 760.876Z" fill="#F37343"/>
<path d="M389.346 769.597L396.778 770.359C396.841 770.366 396.89 770.422 396.883 770.488C396.876 770.545 396.834 770.587 396.778 770.594L389.346 771.356C388.864 771.405 388.434 771.054 388.385 770.566C388.337 770.081 388.686 769.649 389.171 769.6C389.227 769.59 389.29 769.59 389.346 769.597Z" fill="#F37343"/>
<path d="M392.32 778.928L398 774.069C398.116 773.971 398.287 773.985 398.384 774.101C398.472 774.206 398.468 774.357 398.384 774.456L393.552 780.168C393.238 780.54 392.687 780.582 392.317 780.27C391.946 779.954 391.905 779.399 392.215 779.027C392.25 778.992 392.285 778.957 392.32 778.928Z" fill="#F37343"/>
<path d="M400.991 783.258L401.748 775.784C401.755 775.721 401.811 775.671 401.877 775.678C401.933 775.685 401.975 775.728 401.982 775.784L402.74 783.258C402.789 783.743 402.439 784.175 401.954 784.224C401.472 784.273 401.043 783.922 400.994 783.434C400.987 783.378 400.987 783.315 400.991 783.258Z" fill="#F37343"/>
<path d="M410.27 780.266L405.438 774.554C405.34 774.438 405.354 774.266 405.47 774.168C405.574 774.08 405.724 774.084 405.822 774.168L411.506 779.027C411.876 779.343 411.918 779.898 411.607 780.27C411.296 780.642 410.741 780.684 410.371 780.372C410.336 780.337 410.301 780.302 410.27 780.266Z" fill="#F37343"/>
<path d="M414.577 771.549L407.144 770.787C407.082 770.78 407.033 770.724 407.04 770.657C407.047 770.601 407.089 770.559 407.144 770.552L414.577 769.79C415.059 769.741 415.489 770.092 415.537 770.58C415.586 771.064 415.237 771.496 414.752 771.545C414.696 771.556 414.633 771.552 414.577 771.549Z" fill="#F37343"/>
<defs>
<linearGradient id="paint0_linear_5199_11774" x1="574.57" y1="771.558" x2="571.628" y2="661.78" gradientUnits="userSpaceOnUse">
<stop stop-color="#6A4727"/>
<stop offset="0.1931" stop-color="#734D2A"/>
<stop offset="0.5059" stop-color="#8B5E31"/>
<stop offset="0.8973" stop-color="#B27A3D"/>
<stop offset="1" stop-color="#BD8240"/>
</linearGradient>
<linearGradient id="paint1_linear_5199_11774" x1="518.476" y1="733.379" x2="627.957" y2="730.444" gradientUnits="userSpaceOnUse">
<stop stop-color="#6A4727"/>
<stop offset="0.1931" stop-color="#734D2A"/>
<stop offset="0.5059" stop-color="#8B5E31"/>
<stop offset="0.8973" stop-color="#B27A3D"/>
<stop offset="1" stop-color="#BD8240"/>
</linearGradient>
<radialGradient id="paint2_radial_5199_11774" cx="0" cy="0" r="1" gradientUnits="userSpaceOnUse" gradientTransform="translate(573.202 731.922) rotate(-11.2248) scale(53.5846 10.6711)">
<stop stop-color="#C4CF4D"/>
<stop offset="0.2634" stop-color="#C6D24D"/>
<stop offset="0.4274" stop-color="#CCDA4E"/>
<stop offset="0.5637" stop-color="#D5E950"/>
<stop offset="0.6193" stop-color="#DBF151"/>
<stop offset="1" stop-color="#C4CF4D"/>
</radialGradient>
<linearGradient id="paint3_linear_5199_11774" x1="520.133" y1="742.82" x2="622.247" y2="705.776" gradientUnits="userSpaceOnUse">
<stop stop-color="#6A4727"/>
<stop offset="0.1931" stop-color="#734D2A"/>
<stop offset="0.5059" stop-color="#8B5E31"/>
<stop offset="0.8973" stop-color="#B27A3D"/>
<stop offset="1" stop-color="#BD8240"/>
</linearGradient>
<radialGradient id="paint4_radial_5199_11774" cx="0" cy="0" r="1" gradientUnits="userSpaceOnUse" gradientTransform="translate(569.786 719.503) rotate(169.75) scale(53.5846 10.6711)">
<stop stop-color="#C4CF4D"/>
<stop offset="0.2634" stop-color="#C6D24D"/>
<stop offset="0.4274" stop-color="#CCDA4E"/>
<stop offset="0.5637" stop-color="#D5E950"/>
<stop offset="0.6193" stop-color="#DBF151"/>
<stop offset="1" stop-color="#C4CF4D"/>
</radialGradient>
<linearGradient id="paint5_linear_5199_11774" x1="623.697" y1="710.419" x2="515.111" y2="713.33" gradientUnits="userSpaceOnUse">
<stop stop-color="#6A4727"/>
<stop offset="0.1931" stop-color="#734D2A"/>
<stop offset="0.5059" stop-color="#8B5E31"/>
<stop offset="0.8973" stop-color="#B27A3D"/>
<stop offset="1" stop-color="#BD8240"/>
</linearGradient>
<radialGradient id="paint6_radial_5199_11774" cx="0" cy="0" r="1" gradientUnits="userSpaceOnUse" gradientTransform="translate(569.461 706.391) rotate(-11.2248) scale(53.5846 10.6711)">
<stop stop-color="#C4CF4D"/>
<stop offset="0.2634" stop-color="#C6D24D"/>
<stop offset="0.4274" stop-color="#CCDA4E"/>
<stop offset="0.5637" stop-color="#D5E950"/>
<stop offset="0.6193" stop-color="#DBF151"/>
<stop offset="1" stop-color="#C4CF4D"/>
</radialGradient>
<linearGradient id="paint7_linear_5199_11774" x1="594.719" y1="774.856" x2="554.751" y2="665.409" gradientUnits="userSpaceOnUse">
<stop stop-color="#6A4727"/>
<stop offset="0.1931" stop-color="#734D2A"/>
<stop offset="0.5059" stop-color="#8B5E31"/>
<stop offset="0.8973" stop-color="#B27A3D"/>
<stop offset="1" stop-color="#BD8240"/>
</linearGradient>
<linearGradient id="paint8_linear_5199_11774" x1="305.716" y1="859.26" x2="315.529" y2="853.857" gradientUnits="userSpaceOnUse">
<stop stop-color="#FFB5B5"/>
<stop offset="0.1947" stop-color="#FFB7AB"/>
<stop offset="0.5228" stop-color="#FFBD91"/>
<stop offset="0.9419" stop-color="#FEC766"/>
<stop offset="1" stop-color="#FEC860"/>
</linearGradient>
<linearGradient id="paint9_linear_5199_11774" x1="335.364" y1="747.718" x2="350.651" y2="771.958" gradientUnits="userSpaceOnUse">
<stop stop-color="#FFB5B5"/>
<stop offset="0.1947" stop-color="#FFB7AB"/>
<stop offset="0.5228" stop-color="#FFBD91"/>
<stop offset="0.9419" stop-color="#FEC766"/>
<stop offset="1" stop-color="#FEC860"/>
</linearGradient>
<radialGradient id="paint10_radial_5199_11774" cx="0" cy="0" r="1" gradientUnits="userSpaceOnUse" gradientTransform="translate(371.255 857.387) scale(57.8517 58.1775)">
<stop stop-color="#FFDF9C"/>
<stop offset="0.2933" stop-color="#FCD894"/>
<stop offset="0.7483" stop-color="#F5C67E"/>
<stop offset="1" stop-color="#F0BA6F"/>
</radialGradient>
<linearGradient id="paint11_linear_5199_11774" x1="430.119" y1="779.23" x2="389.249" y2="795.16" gradientUnits="userSpaceOnUse">
<stop stop-color="white"/>
<stop offset="0.2538" stop-color="#FFB5B5"/>
<stop offset="0.3991" stop-color="#FFB7AB"/>
<stop offset="0.6439" stop-color="#FFBD91"/>
<stop offset="0.9567" stop-color="#FEC766"/>
<stop offset="1" stop-color="#FEC860"/>
</linearGradient>
</defs>
</svg>
