<svg width="1342" height="1024" viewBox="0 0 1342 1024" fill="none" xmlns="http://www.w3.org/2000/svg">
<path d="M972.922 399.431L169 867.129L388.777 996L1171.01 535.542C1176.79 511.216 1168.6 498.377 1163.78 494.998C1115.58 466.487 1015.72 407.457 1001.84 399.431C987.959 391.406 976.778 396.087 972.922 399.431Z" fill="#F4EFEF" stroke="black" stroke-linejoin="round"/>
<path d="M366 785C382.24 791.859 450.1 831.858 482 851" stroke="black"/>
<path d="M451 734.857C467.24 741.82 535.1 782.425 567 801.857" stroke="black"/>
<path d="M536 685.714C552.24 692.573 620.1 732.572 652 751.714" stroke="black"/>
<path d="M621 636.571C637.24 643.43 705.1 683.429 737 702.571" stroke="black"/>
<path d="M706 587.428C722.24 594.287 790.1 634.287 822 653.428" stroke="black"/>
<path d="M791 537.286C807.38 544.248 875.825 584.854 908 604.286" stroke="black"/>
<path d="M877 487.143C893.1 494.106 960.375 534.711 992 554.143" stroke="black"/>
<path d="M961 437C977.24 443.963 1045.1 484.568 1077 504" stroke="black"/>
<path d="M341.037 967.974L1163 497" stroke="black"/>
<ellipse cx="535.093" cy="883.23" rx="17.7269" ry="12.8657" transform="rotate(-54.8943 535.093 883.23)" fill="#8FE3C1"/>
<ellipse cx="826.042" cy="715.487" rx="17.7269" ry="12.8657" transform="rotate(-54.8943 826.042 715.487)" fill="#8FE3C1"/>
<ellipse cx="973.554" cy="631.609" rx="17.7269" ry="12.8657" transform="rotate(-54.8943 973.554 631.609)" fill="#8FE3C1"/>
<ellipse cx="1118.17" cy="547.73" rx="17.7269" ry="12.8657" transform="rotate(-54.8943 1118.17 547.73)" fill="#8FE3C1"/>
<ellipse cx="681.423" cy="799.366" rx="17.7269" ry="12.8657" transform="rotate(-54.8943 681.423 799.366)" fill="#8FE3C1"/>
<path d="M987.5 117.896V216.439L899.5 167.146V64.6602L987.5 117.896Z" fill="#D9D9D9" stroke="#8FE3C1" stroke-width="3"/>
<path d="M1074.5 165.209L990.5 216.33V117.915L1074.5 62.7783V165.209Z" fill="#3DCE94" stroke="#8FE3C1" stroke-width="3"/>
<path d="M1073.13 60.5439L988.989 115.231L900.959 62.5146L989.02 11.7334L1073.13 60.5439Z" fill="#D9D9D9" stroke="#8FE3C1" stroke-width="3"/>
</svg>
