<svg width="1342" height="1024" viewBox="0 0 1342 1024" fill="none" xmlns="http://www.w3.org/2000/svg">
<path d="M972.922 399.431L169 867.129L388.777 996L1171.01 535.542C1176.79 511.216 1168.6 498.377 1163.78 494.998C1115.58 466.487 1015.72 407.457 1001.84 399.431C987.959 391.406 976.778 396.087 972.922 399.431Z" fill="#F4EFEF" stroke="black" stroke-linejoin="round"/>
<path d="M759 554C775.24 560.859 843.1 600.858 875 620" stroke="black"/>
<path d="M249 850.714C265.24 857.677 333.1 898.282 365 917.714" stroke="black"/>
<path d="M844 504C860.24 510.963 928.1 551.568 960 571" stroke="black"/>
<path d="M334 801.571C350.24 808.43 418.1 848.429 450 867.571" stroke="black"/>
<path d="M929 455C945.24 461.859 1013.1 501.858 1045 521" stroke="black"/>
<path d="M419 752.428C435.24 759.287 503.1 799.286 535 818.428" stroke="black"/>
<path d="M504 703.286C520.24 710.144 588.1 750.144 620 769.286" stroke="black"/>
<path d="M589 653.143C605.38 660.105 673.825 700.711 706 720.143" stroke="black"/>
<path d="M675 603C691.1 609.963 758.375 650.568 790 670" stroke="black"/>
<path d="M341.037 967.974L1163 497" stroke="black"/>
<ellipse cx="535.093" cy="883.231" rx="17.7269" ry="12.8657" transform="rotate(-54.8943 535.093 883.231)" fill="#8FE3C1"/>
<ellipse cx="826.042" cy="715.487" rx="17.7269" ry="12.8657" transform="rotate(-54.8943 826.042 715.487)" fill="#8FE3C1"/>
<ellipse cx="973.554" cy="631.609" rx="17.7269" ry="12.8657" transform="rotate(-54.8943 973.554 631.609)" fill="#8FE3C1"/>
<ellipse cx="1118.17" cy="547.73" rx="17.7269" ry="12.8657" transform="rotate(-54.8943 1118.17 547.73)" fill="#8FE3C1"/>
<ellipse cx="681.423" cy="799.366" rx="17.7269" ry="12.8657" transform="rotate(-54.8943 681.423 799.366)" fill="#8FE3C1"/>
<path d="M362.451 795.896V894.439L274.451 845.146V742.66L362.451 795.896Z" fill="#D9D9D9" stroke="#8FE3C1" stroke-width="3"/>
<path d="M449.451 843.209L365.451 894.33V795.915L449.451 740.778V843.209Z" fill="#3DCE94" stroke="#8FE3C1" stroke-width="3"/>
<path d="M448.086 738.544L363.94 793.231L275.91 740.515L363.971 689.733L448.086 738.544Z" fill="#D9D9D9" stroke="#8FE3C1" stroke-width="3"/>
<path d="M668.417 642.143L600.873 631.789C596.164 631.065 591.466 630.982 586.918 631.542C548.781 636.216 510.64 640.888 472.503 645.562C468.814 646.015 466.445 649.18 466.985 652.933L476.031 715.875C476.364 718.202 478.123 720.286 480.439 721.093C516.397 733.667 552.355 746.237 588.316 758.811C594.426 760.947 600.81 760.418 605.743 757.368C631.411 741.5 657.079 725.628 682.747 709.761C684.236 708.839 684.989 707.121 684.712 705.267C681.972 686.895 679.232 668.519 676.493 650.147C675.89 646.154 672.474 642.766 668.417 642.143Z" fill="#E5CA9A"/>
<path d="M466.862 652.108L476.101 716.404C476.371 718.282 477.723 719.955 479.468 720.571C516.323 733.531 553.181 746.491 590.036 759.447C592.85 760.435 595.33 758.31 594.896 755.28L582.847 671.444C582.538 669.298 580.832 667.465 578.807 667.1L471.049 647.764C468.467 647.301 466.469 649.374 466.862 652.108Z" fill="url(#paint0_radial_5187_5581)"/>
<path d="M585.92 671.155L597.815 753.914C598.292 757.232 601.89 759.361 604.405 757.813C630.648 741.698 656.89 725.58 683.129 709.465C684.383 708.696 685.011 707.173 684.758 705.521C681.889 686.808 679.019 668.095 676.146 649.378C675.712 646.55 672.944 644.481 670.47 645.135L588.464 666.867C586.677 667.34 585.626 669.114 585.92 671.155Z" fill="url(#paint1_radial_5187_5581)"/>
<path d="M587.066 631.51L472.465 645.729L582.571 664.397C583.107 664.487 583.639 664.47 584.14 664.341L670.386 642.428L602.591 631.806C597.342 630.981 592.125 630.884 587.066 631.51Z" fill="url(#paint2_radial_5187_5581)"/>
<path d="M525.661 709.305C521.972 708.289 519.06 703.851 518.706 703.287C518.104 702.334 518.174 701.315 518.867 701.006C519.561 700.699 520.612 701.221 521.215 702.174C521.309 702.324 523.555 705.851 525.78 705.882C527.192 705.91 528.159 704.56 528.594 703.287C528.856 702.519 529.778 702.407 530.664 703.054C531.544 703.694 532.045 704.839 531.785 705.607C531.379 706.8 530.104 709.569 527.041 709.506C526.572 709.503 526.11 709.43 525.661 709.305Z" fill="#FF9A00"/>
<path d="M507.3 703.534C510.794 704.498 513.187 702.254 512.651 698.526L500.006 695.041C500.545 698.769 503.811 702.571 507.3 703.534Z" fill="#FF9A00"/>
<path d="M544.289 713.726C547.782 714.689 550.175 712.446 549.639 708.717L536.994 705.232C537.534 708.961 540.799 712.762 544.289 713.726Z" fill="#FF9A00"/>
<path d="M867.487 558.064C869.621 552.735 870.248 547.939 870.41 544.579C871.558 542.753 873.73 538.76 874.034 533.243C874.383 526.908 872.071 522.221 871.021 520.356C872.152 510.545 869.757 505.085 867.386 501.921C866.103 500.209 862.183 493.839 855.516 492.194C843.101 489.132 835.611 505.607 822.3 505.877C815.518 506.012 806.31 501.958 795.151 484.409C787.572 478.163 777.857 477.102 771.261 481.415C766.773 484.35 764.987 488.955 764.324 491.08C761.726 493.208 758.253 496.573 755.245 501.461C750.682 508.885 749.538 516.018 749.208 519.953C741.927 531.697 741.556 540.858 741.872 545.568C742.618 556.631 746.082 564.799 746.082 564.799C746.317 567.385 746.496 571.385 745.895 576.214C745.211 581.72 744.154 583.156 744.235 586.265C744.408 592.973 749.637 597.917 752.667 600.781C761.774 609.39 768.491 606.898 773.194 614.555C776.371 619.729 774.204 622.326 777.454 625.101C784.414 631.043 799.393 623.413 800.909 622.622C806.813 619.537 810.711 615.506 812.933 612.823C819.721 610.002 830.009 604.734 840.052 595.083C847.974 587.475 853.068 579.709 856.235 573.931C859.206 571.323 864.248 566.156 867.487 558.064Z" fill="url(#paint3_radial_5187_5581)"/>
<path d="M764.056 574.25C768.761 571.497 774.12 567.781 779.498 562.773C781.834 560.597 783.907 558.426 785.734 556.332C785.103 556.301 784.471 556.271 783.838 556.243C783.24 556.892 782.55 557.582 781.769 558.283C780.97 559 780.091 559.718 779.123 560.406C773.813 564.181 768.237 565.463 764.244 565.91C764.179 568.69 764.118 571.469 764.056 574.25Z" fill="url(#paint4_radial_5187_5581)"/>
<path d="M758.794 573.27C755.887 568.841 751.788 561.136 750.965 550.928C750.697 547.614 750.82 544.595 751.125 541.964C751.593 542.39 752.06 542.816 752.527 543.245C752.54 546.636 752.965 551.641 754.996 557.26C756.469 561.329 758.353 564.527 759.969 566.843C759.578 568.983 759.186 571.127 758.794 573.27Z" fill="url(#paint5_radial_5187_5581)"/>
<path d="M764.356 545.506C763.047 538.819 762.053 530.272 762.548 520.395C762.844 514.469 763.622 509.147 764.576 504.543C765.044 504.969 765.512 505.395 765.978 505.825C765.444 510.151 765.147 515.677 765.748 522.028C766.331 528.185 767.599 533.403 768.887 537.464C767.378 540.143 765.866 542.823 764.356 545.506Z" fill="url(#paint6_radial_5187_5581)"/>
<path d="M810.334 592.868C808.515 587.227 806.868 580.028 806.539 571.597C806.414 568.396 806.491 565.396 806.699 562.633C807.167 563.059 807.635 563.485 808.101 563.914C808.063 564.795 808.061 565.771 808.116 566.819C808.116 566.819 808.203 568.444 808.48 570.192C808.837 572.426 810.876 578.827 814.521 587.088C813.128 589.017 811.73 590.941 810.334 592.868Z" fill="url(#paint7_radial_5187_5581)"/>
<path d="M840.771 537.54C845.498 533.82 850.943 528.676 855.919 521.731C857.643 519.324 859.123 516.967 860.394 514.714C859.764 514.552 859.136 514.393 858.506 514.231C857.763 515.84 856.801 517.584 855.542 519.363C851.359 525.278 846.066 528.512 842.628 530.192C842.01 532.641 841.39 535.088 840.771 537.54Z" fill="url(#paint8_radial_5187_5581)"/>
<path d="M831.682 568.05C835.579 566.298 841.463 563.077 847.17 557.34C853.952 550.521 857.313 543.335 858.934 539.069C858.391 538.942 857.844 538.817 857.301 538.691C855.644 541.981 852.532 547.124 847.049 551.876C842.583 555.75 838.159 557.963 835.045 559.223C833.925 562.166 832.802 565.107 831.682 568.05Z" fill="url(#paint9_radial_5187_5581)"/>
<path d="M814.406 594.559C818.696 593.696 826.811 591.436 834.542 584.874C839.118 580.989 842.09 576.847 843.941 573.741C843.24 573.75 842.542 573.76 841.841 573.769C840.221 575.972 837.644 578.929 833.826 581.568C828.061 585.557 822.402 586.793 819.236 587.238C817.626 589.681 816.017 592.12 814.406 594.559Z" fill="url(#paint10_radial_5187_5581)"/>
<path d="M826.975 564.29C830.622 556.417 832.519 550.541 835.054 542.685C840.275 526.499 843.121 512.647 844.75 502.804C845.41 502.178 846.068 501.547 846.728 500.92C845.19 524.957 838.006 580.956 795.015 618.989C788.705 624.571 782.191 629.263 775.68 633.216C775.616 628.577 775.555 623.939 775.489 619.304C777.838 618.25 780.821 616.795 784.455 614.597C784.455 614.597 791.133 610.626 797.308 605.432C804.449 599.428 816.323 585.295 826.975 564.29Z" fill="url(#paint11_radial_5187_5581)"/>
<path d="M799.261 501.938C797.972 500.442 796.68 498.945 795.391 497.45C790.24 502.309 750.529 540.915 758.829 589.024C760.815 600.528 765.143 610.247 769.979 618.1C771.281 613.242 772.58 608.382 773.882 603.524C770.161 596.688 768.114 590.289 766.999 584.749C758.64 543.304 793.716 507.445 799.261 501.938Z" fill="url(#paint12_radial_5187_5581)"/>
<path d="M776.892 607.139C776.29 606.964 775.79 606.54 775.523 605.966C771.534 597.5 770.253 589.665 771.72 582.675C771.889 581.862 772.095 581.074 772.292 580.313C772.938 577.812 773.55 575.45 772.979 572.335C772.426 569.317 771.088 567.408 769.392 564.988C768.937 564.337 768.463 563.662 767.976 562.924C767.766 562.611 762.851 555.092 760.064 544.123C757.977 535.915 758.842 526.462 762.557 516.753C761.982 510.023 762.946 503.201 765.353 496.992C767.044 492.632 769.424 488.582 772.423 484.946C773.071 481.944 774.541 477.743 777.872 473.754C781.593 469.301 785.975 467.048 789.215 465.919C794.129 459.464 799.577 455.664 805.42 454.618C808.465 454.072 810.552 454.464 812.76 454.876C814.817 455.26 817.149 455.697 821.048 455.565C825.343 455.419 827.925 454.716 829.998 454.154C832.072 453.589 833.865 453.102 835.988 453.72C836.429 453.849 836.862 454.019 837.313 454.238C844.413 457.704 845.163 468.819 845.611 475.461C846.064 482.162 845.247 488.878 843.189 495.43C843.532 497.766 843.607 500.133 843.415 502.474C843.096 506.335 842.063 510.072 840.344 513.599C841.229 516.25 841.73 518.997 841.83 521.778C841.998 526.379 841.047 531.039 839.074 535.321C841.191 541.495 843.482 552.36 838.044 561.746C837.919 561.962 837.757 562.156 837.568 562.32C832.285 566.866 826.757 570.427 821.129 572.907C817.692 574.424 814.977 575.679 809.569 578.187C804.473 580.547 803.935 580.862 803.458 581.413C802.02 583.074 801.948 584.832 801.938 588.049C801.933 590.148 801.925 592.528 801.322 595.279C800.212 600.342 797.359 605.113 792.846 609.46C792.32 609.968 791.579 610.183 790.868 610.035L777.06 607.173C777.006 607.169 776.949 607.155 776.892 607.139Z" fill="url(#paint13_radial_5187_5581)"/>
<path d="M793.251 504.343C795.582 507.703 798.206 509.954 800.17 511.363C800.616 510.148 801.066 508.934 801.513 507.72C799.804 506.839 797.055 505.14 794.6 502.09C791.409 498.132 790.433 494.033 790.092 492.015C789.442 491.41 788.789 490.803 788.141 490.194C788.419 493.107 789.361 498.734 793.251 504.343Z" fill="url(#paint14_radial_5187_5581)"/>
<path d="M815.104 491.51C817.559 491.713 821.056 491.727 825.116 490.808C828.648 490.009 831.473 488.763 833.492 487.681C832.934 487.38 832.38 487.079 831.822 486.778C830.19 487.432 828.165 488.081 825.792 488.501C821.986 489.173 818.706 489 816.353 488.673C815.934 489.618 815.519 490.564 815.104 491.51Z" fill="url(#paint15_radial_5187_5581)"/>
<path d="M801.018 535.814C800.487 538.257 799.957 540.697 799.423 543.14C802.88 543.028 808.256 542.437 814.304 539.959C820.735 537.326 825.191 533.683 827.773 531.223C826.822 531.176 825.866 531.132 824.915 531.085C822.064 532.879 816.909 535.562 810.02 536.205C806.468 536.542 803.391 536.245 801.018 535.814Z" fill="url(#paint16_radial_5187_5581)"/>
<path d="M807.295 509.684C806.842 510.758 806.39 511.832 805.937 512.906C808.544 512.898 811.643 512.664 815.057 511.944C821.758 510.533 826.908 507.838 830.29 505.669C829.506 505.671 828.724 505.677 827.94 505.679C824.676 507.097 820.301 508.582 815.006 509.284C812.162 509.665 809.565 509.749 807.295 509.684Z" fill="url(#paint17_radial_5187_5581)"/>
<path d="M822.576 549.35C819.98 551.744 814.914 555.75 807.457 557.723C803.272 558.832 799.578 558.97 796.84 558.841C796.375 561.285 795.905 563.732 795.439 566.176C799.113 565.609 804.013 564.437 809.354 561.9C817.316 558.112 822.611 553.007 825.618 549.603C824.604 549.52 823.588 549.436 822.576 549.35Z" fill="url(#paint18_radial_5187_5581)"/>
<path d="M803.94 482.001C805.774 486.032 808.698 488.275 810.11 489.223C810.64 488.358 811.169 487.493 811.698 486.627C810.463 485.928 807.862 484.228 806.044 480.947C803.544 476.441 804.228 472.029 804.474 470.752C804.092 470.177 803.705 469.6 803.323 469.025C802.871 470.406 801.212 476.007 803.94 482.001Z" fill="url(#paint19_radial_5187_5581)"/>
<path d="M793.714 541.894C794.149 539.145 794.587 536.401 795.022 533.652C792.976 532.165 790.596 530.123 788.297 527.382C783.747 521.958 781.683 516.373 780.694 512.789C779.901 512.511 779.107 512.236 778.314 511.958C779.227 516.794 781.139 523.691 785.441 531.001C788.156 535.614 791.13 539.209 793.714 541.894Z" fill="url(#paint20_radial_5187_5581)"/>
<path d="M791.155 557.698C788.155 555.246 784.814 552.125 781.505 548.213C776.143 541.869 772.698 535.612 770.483 530.677C769.734 530.411 768.98 530.148 768.23 529.882C769.577 535.244 772.272 543.157 777.961 551.354C781.969 557.129 786.283 561.337 789.786 564.253C790.241 562.069 790.699 559.886 791.155 557.698Z" fill="url(#paint21_radial_5187_5581)"/>
<path d="M806.593 511.658C810.937 496.322 817.703 484.063 817.703 484.063C821.749 476.731 825.814 471.162 828.596 467.624L827.181 466.795C824.604 469.834 820.782 474.568 816.62 480.69C816.62 480.69 807.893 493.525 800.85 509.701C793.754 525.996 779.235 574.873 764.898 642.31C763.533 648.741 767.574 655.158 773.984 656.399C774.156 656.431 774.328 656.463 774.501 656.491C774.674 656.52 774.852 656.542 775.024 656.563C782.627 657.483 789.405 651.563 789.856 643.868C794.781 559.703 802.517 526.041 806.593 511.658Z" fill="url(#paint22_radial_5187_5581)"/>
<path d="M799.446 522.07C798.873 523.482 801.779 527.342 805.675 527.161C808.592 527.024 811.298 524.658 810.991 523.257C810.448 520.801 800.326 519.907 799.446 522.07Z" fill="#534741"/>
<path d="M795.783 516.44C794.304 514.318 791.386 513.815 789.267 515.314C787.148 516.813 786.632 519.75 788.111 521.872C789.59 523.995 792.508 524.497 794.627 522.999C796.746 521.5 797.265 518.563 795.783 516.44ZM794.134 522.292C792.404 523.517 790.026 523.102 788.82 521.374L795.077 516.943C796.286 518.673 795.864 521.068 794.134 522.292Z" fill="#534741"/>
<path d="M822.738 521.101C821.259 518.979 818.341 518.476 816.222 519.975C814.103 521.474 813.587 524.411 815.066 526.534C816.545 528.656 819.463 529.158 821.582 527.66C823.702 526.157 824.217 523.223 822.738 521.101ZM821.09 526.95C819.36 528.175 816.982 527.76 815.776 526.031L822.033 521.601C823.238 523.333 822.816 525.728 821.09 526.95Z" fill="#534741"/>
<path d="M935.027 461.123L934.273 467.692C934.266 467.755 934.207 467.805 934.144 467.794C934.088 467.787 934.046 467.745 934.043 467.692L933.285 461.12C933.229 460.635 933.575 460.196 934.057 460.14C934.539 460.084 934.975 460.432 935.031 460.916C935.034 460.986 935.034 461.057 935.027 461.123Z" fill="#F37343"/>
<path d="M942.709 464.919L937.574 469.048C937.511 469.097 937.42 469.086 937.371 469.027C937.329 468.974 937.329 468.897 937.371 468.844L941.477 463.679C941.781 463.297 942.332 463.237 942.713 463.542C943.093 463.848 943.153 464.403 942.849 464.785C942.804 464.831 942.755 464.88 942.709 464.919Z" fill="#F37343"/>
<path d="M926.838 463.676L931.035 468.749C931.132 468.865 931.115 469.041 931 469.135C930.898 469.22 930.748 469.22 930.651 469.135L925.606 464.915C925.232 464.603 925.183 464.048 925.49 463.672C925.801 463.297 926.353 463.248 926.726 463.557C926.768 463.599 926.807 463.637 926.838 463.676Z" fill="#F37343"/>
<path d="M922.98 471.312L929.516 472.074C929.578 472.081 929.627 472.14 929.617 472.204C929.61 472.26 929.568 472.302 929.516 472.305L922.98 473.067C922.498 473.124 922.062 472.776 922.006 472.291C921.95 471.807 922.296 471.368 922.777 471.312C922.844 471.305 922.914 471.305 922.98 471.312Z" fill="#F37343"/>
<path d="M925.517 479.549L930.562 475.329C930.677 475.23 930.852 475.248 930.946 475.364C931.03 475.466 931.03 475.617 930.946 475.715L926.75 480.788C926.439 481.164 925.887 481.213 925.514 480.904C925.14 480.591 925.091 480.037 925.399 479.661C925.437 479.622 925.479 479.58 925.517 479.549Z" fill="#F37343"/>
<path d="M933.111 483.432L933.868 476.86C933.875 476.796 933.935 476.747 933.997 476.758C934.053 476.765 934.095 476.807 934.099 476.86L934.856 483.432C934.912 483.917 934.567 484.355 934.085 484.412C933.603 484.468 933.167 484.12 933.111 483.636C933.104 483.565 933.104 483.495 933.111 483.432Z" fill="#F37343"/>
<path d="M941.303 480.876L937.107 475.802C937.009 475.687 937.026 475.511 937.141 475.416C937.243 475.332 937.393 475.332 937.491 475.416L942.535 479.636C942.909 479.949 942.958 480.504 942.651 480.879C942.34 481.255 941.788 481.304 941.415 480.995C941.376 480.956 941.334 480.914 941.303 480.876Z" fill="#F37343"/>
<path d="M945.164 473.239L938.628 472.478C938.565 472.471 938.516 472.411 938.527 472.348C938.534 472.291 938.576 472.249 938.628 472.246L945.164 471.484C945.645 471.428 946.082 471.775 946.138 472.26C946.194 472.744 945.848 473.183 945.366 473.239C945.296 473.25 945.227 473.246 945.164 473.239Z" fill="#F37343"/>
<path d="M942.921 501.095C943.343 500.186 945.927 494.354 943.148 488.063C941.151 483.548 937.541 481.388 936.295 480.718C935.136 480.781 931.03 481.139 927.797 484.425C925.105 487.16 922.787 492.167 924.801 496.763C927.364 502.605 934.786 502.893 935.802 502.917C939.081 502.991 941.615 501.822 942.921 501.095Z" fill="url(#paint23_linear_5187_5581)"/>
<path d="M953.595 428.693C952.457 425.941 950.875 421.092 951.151 415.001C951.315 411.37 951.748 401.877 959.181 395.691C966.369 389.704 977.297 389.153 985.365 393.935C992.096 397.927 994.708 404.366 995.49 406.574C992.519 410.429 987.467 415.98 979.779 420.618C969.138 427.043 958.964 428.381 953.595 428.693Z" fill="url(#paint24_linear_5187_5581)"/>
<path d="M1007.79 536.889C991.803 541.334 971.627 540.733 957.068 533.859C939.333 525.485 934.375 508.889 934.438 494.235C935.245 479.478 937.381 464.862 940.935 450.334C945.558 435.627 953.944 421.324 970.133 411.704C980.491 405.549 992.941 401.859 1006.11 404.787C1017.24 408.333 1023.04 416.917 1026.93 424.919C1031.86 435.062 1034.86 445.423 1035.76 456.222C1036.59 465.417 1038.49 474.363 1041.49 483.302C1049.67 505.326 1037.7 528.793 1007.79 536.889Z" fill="url(#paint25_radial_5187_5581)"/>
<path d="M1025.17 446.248C1023.56 445.939 1016.9 444.468 1012.25 438.173C1006.57 430.498 1008.46 421.857 1008.76 420.618C1011.83 413.905 1018.72 409.998 1025.54 410.942C1032.95 411.967 1037.43 418.343 1038.78 423.778C1041.09 433.026 1034.52 440.111 1033.59 441.08C1030.53 444.275 1027.07 445.651 1025.17 446.248Z" fill="url(#paint26_linear_5187_5581)"/>
<path d="M983.054 469.037C982.722 470.582 986.392 474.016 990.344 473.138C993.301 472.481 995.647 469.585 995.074 468.209C994.076 465.797 983.56 466.671 983.054 469.037Z" fill="#F37343"/>
<path d="M978.291 463.932C976.395 462.026 973.32 462.026 971.424 463.932C969.528 465.839 969.528 468.932 971.424 470.838C973.32 472.745 976.395 472.745 978.291 470.838C980.19 468.932 980.19 465.839 978.291 463.932ZM977.659 470.203C976.113 471.758 973.606 471.758 972.059 470.203L977.659 464.571C979.206 466.123 979.206 468.644 977.659 470.203Z" fill="#F37343"/>
<path d="M1006.7 463.932C1004.81 462.026 1001.73 462.026 999.836 463.932C997.94 465.839 997.94 468.932 999.836 470.838C1001.73 472.745 1004.81 472.745 1006.7 470.838C1008.6 468.932 1008.6 465.839 1006.7 463.932ZM1006.07 470.203C1004.52 471.758 1002.01 471.758 1000.47 470.203L1006.07 464.571C1007.62 466.123 1007.62 468.644 1006.07 470.203Z" fill="#F37343"/>
<path d="M1022.93 396.484L1022.17 403.959C1022.17 404.022 1022.11 404.071 1022.04 404.064C1021.99 404.057 1021.95 404.015 1021.94 403.959L1021.18 396.484C1021.13 396 1021.48 395.568 1021.97 395.519C1022.45 395.47 1022.88 395.821 1022.93 396.309C1022.94 396.361 1022.94 396.425 1022.93 396.484Z" fill="#F37343"/>
<path d="M1031.7 400.715L1025.93 405.479C1025.87 405.528 1025.78 405.521 1025.73 405.458C1025.68 405.405 1025.69 405.328 1025.73 405.276L1030.47 399.472C1030.77 399.096 1031.32 399.04 1031.7 399.349C1032.08 399.658 1032.13 400.213 1031.82 400.592C1031.79 400.638 1031.74 400.68 1031.7 400.715Z" fill="#F37343"/>
<path d="M1013.65 399.472L1018.49 405.184C1018.58 405.3 1018.57 405.472 1018.45 405.57C1018.35 405.658 1018.2 405.654 1018.1 405.57L1012.42 400.711C1012.05 400.395 1012.01 399.84 1012.32 399.468C1012.63 399.096 1013.19 399.054 1013.56 399.366C1013.59 399.401 1013.62 399.44 1013.65 399.472Z" fill="#F37343"/>
<path d="M1009.35 408.193L1016.78 408.955C1016.84 408.962 1016.89 409.018 1016.88 409.085C1016.88 409.141 1016.83 409.183 1016.78 409.19L1009.35 409.952C1008.86 410.001 1008.43 409.65 1008.39 409.162C1008.34 408.677 1008.69 408.246 1009.17 408.196C1009.23 408.186 1009.29 408.186 1009.35 408.193Z" fill="#F37343"/>
<path d="M1012.32 417.525L1018 412.666C1018.12 412.568 1018.29 412.582 1018.38 412.698C1018.47 412.803 1018.47 412.954 1018.38 413.052L1013.55 418.764C1013.24 419.137 1012.69 419.179 1012.32 418.866C1011.95 418.55 1011.9 417.996 1012.22 417.623C1012.25 417.588 1012.29 417.553 1012.32 417.525Z" fill="#F37343"/>
<path d="M1020.99 421.854L1021.75 414.379C1021.76 414.316 1021.81 414.267 1021.88 414.274C1021.93 414.281 1021.98 414.323 1021.98 414.379L1022.74 421.854C1022.79 422.338 1022.44 422.77 1021.95 422.819C1021.47 422.868 1021.04 422.517 1020.99 422.029C1020.99 421.973 1020.99 421.91 1020.99 421.854Z" fill="#F37343"/>
<path d="M1030.27 418.863L1025.44 413.15C1025.34 413.035 1025.35 412.863 1025.47 412.764C1025.57 412.676 1025.72 412.68 1025.82 412.764L1031.51 417.623C1031.88 417.939 1031.92 418.494 1031.61 418.866C1031.3 419.238 1030.74 419.28 1030.37 418.968C1030.34 418.933 1030.3 418.898 1030.27 418.863Z" fill="#F37343"/>
<path d="M1034.58 410.145L1027.14 409.383C1027.08 409.376 1027.03 409.32 1027.04 409.253C1027.05 409.197 1027.09 409.155 1027.14 409.148L1034.58 408.386C1035.06 408.337 1035.49 408.688 1035.54 409.176C1035.59 409.66 1035.24 410.092 1034.75 410.141C1034.7 410.152 1034.63 410.148 1034.58 410.145Z" fill="#F37343"/>
<path d="M1036.89 318V401.316" stroke="black"/>
<path d="M937.105 308V391.316" stroke="black"/>
<path d="M966.893 266V349.316" stroke="black"/>
<defs>
<radialGradient id="paint0_radial_5187_5581" cx="0" cy="0" r="1" gradientUnits="userSpaceOnUse" gradientTransform="translate(530.865 703.68) scale(83.379 82.7746)">
<stop stop-color="#F3EBD9"/>
<stop offset="0.4134" stop-color="#F4EAD7"/>
<stop offset="0.6395" stop-color="#F6E7CF"/>
<stop offset="0.8198" stop-color="#F9E2C1"/>
<stop offset="0.9759" stop-color="#FEDAAE"/>
<stop offset="1" stop-color="#FFD9AA"/>
</radialGradient>
<radialGradient id="paint1_radial_5187_5581" cx="0" cy="0" r="1" gradientUnits="userSpaceOnUse" gradientTransform="translate(637.235 701.656) scale(85.3939 84.7749)">
<stop stop-color="#F3EBD9"/>
<stop offset="0.4134" stop-color="#F4EAD7"/>
<stop offset="0.6395" stop-color="#F6E7CF"/>
<stop offset="0.8198" stop-color="#F9E2C1"/>
<stop offset="0.9759" stop-color="#FEDAAE"/>
<stop offset="1" stop-color="#FFD9AA"/>
</radialGradient>
<radialGradient id="paint2_radial_5187_5581" cx="0" cy="0" r="1" gradientUnits="userSpaceOnUse" gradientTransform="translate(571.94 647.765) scale(102.028 101.288)">
<stop stop-color="#F3EBDA"/>
<stop offset="0.416" stop-color="#F4EAD8"/>
<stop offset="0.6436" stop-color="#F6E7D0"/>
<stop offset="0.825" stop-color="#F9E2C2"/>
<stop offset="0.9821" stop-color="#FEDBAF"/>
<stop offset="1" stop-color="#FFDAAC"/>
</radialGradient>
<radialGradient id="paint3_radial_5187_5581" cx="0" cy="0" r="1" gradientUnits="userSpaceOnUse" gradientTransform="translate(800.845 550.688) rotate(26.7617) scale(70.1352 94.1029)">
<stop stop-color="#5AA668"/>
<stop offset="0.4873" stop-color="#56965F"/>
<stop offset="1" stop-color="#508054"/>
</radialGradient>
<radialGradient id="paint4_radial_5187_5581" cx="0" cy="0" r="1" gradientUnits="userSpaceOnUse" gradientTransform="translate(779.856 709.68) rotate(-105.684) scale(35.8657 62.6165)">
<stop stop-color="#C8DE90"/>
<stop offset="0.457" stop-color="#B8DE8E"/>
<stop offset="1" stop-color="#9FDE8C"/>
</radialGradient>
<radialGradient id="paint5_radial_5187_5581" cx="0" cy="0" r="1" gradientUnits="userSpaceOnUse" gradientTransform="translate(689.72 653.413) rotate(-29.2133) scale(28.2303 49.2861)">
<stop stop-color="#C8DE90"/>
<stop offset="0.457" stop-color="#B8DE8E"/>
<stop offset="1" stop-color="#9FDE8C"/>
</radialGradient>
<radialGradient id="paint6_radial_5187_5581" cx="0" cy="0" r="1" gradientUnits="userSpaceOnUse" gradientTransform="translate(556.897 683.609) rotate(-29.2133) scale(64.944 113.383)">
<stop stop-color="#C8DE90"/>
<stop offset="0.457" stop-color="#B8DE8E"/>
<stop offset="1" stop-color="#9FDE8C"/>
</radialGradient>
<radialGradient id="paint7_radial_5187_5581" cx="0" cy="0" r="1" gradientUnits="userSpaceOnUse" gradientTransform="translate(713.398 678.219) rotate(-29.2133) scale(34.1917 59.6939)">
<stop stop-color="#C8DE90"/>
<stop offset="0.457" stop-color="#B8DE8E"/>
<stop offset="1" stop-color="#9FDE8C"/>
</radialGradient>
<radialGradient id="paint8_radial_5187_5581" cx="0" cy="0" r="1" gradientUnits="userSpaceOnUse" gradientTransform="translate(897.888 757.263) rotate(-105.684) scale(58.8866 102.808)">
<stop stop-color="#C8DE90"/>
<stop offset="0.457" stop-color="#B8DE8E"/>
<stop offset="1" stop-color="#9FDE8C"/>
</radialGradient>
<radialGradient id="paint9_radial_5187_5581" cx="0" cy="0" r="1" gradientUnits="userSpaceOnUse" gradientTransform="translate(889.024 824.461) rotate(-105.684) scale(68.3297 119.294)">
<stop stop-color="#C8DE90"/>
<stop offset="0.457" stop-color="#B8DE8E"/>
<stop offset="1" stop-color="#9FDE8C"/>
</radialGradient>
<radialGradient id="paint10_radial_5187_5581" cx="0" cy="0" r="1" gradientUnits="userSpaceOnUse" gradientTransform="translate(821.77 744.551) rotate(-105.684) scale(39.4732 68.9148)">
<stop stop-color="#C8DE90"/>
<stop offset="0.457" stop-color="#B8DE8E"/>
<stop offset="1" stop-color="#9FDE8C"/>
</radialGradient>
<radialGradient id="paint11_radial_5187_5581" cx="0" cy="0" r="1" gradientUnits="userSpaceOnUse" gradientTransform="translate(780.111 622.406) rotate(-57.4006) scale(99.7179 131.802)">
<stop stop-color="#C8DE90"/>
<stop offset="0.457" stop-color="#B8DE8E"/>
<stop offset="1" stop-color="#9FDE8C"/>
</radialGradient>
<radialGradient id="paint12_radial_5187_5581" cx="0" cy="0" r="1" gradientUnits="userSpaceOnUse" gradientTransform="translate(765.681 608.715) rotate(-78.7637) scale(93.9384 124.178)">
<stop stop-color="#C8DE90"/>
<stop offset="0.457" stop-color="#B8DE8E"/>
<stop offset="1" stop-color="#9FDE8C"/>
</radialGradient>
<radialGradient id="paint13_radial_5187_5581" cx="0" cy="0" r="1" gradientUnits="userSpaceOnUse" gradientTransform="translate(802.047 529.138) rotate(16.2317) scale(58.9818 91.0862)">
<stop stop-color="#4CCC4F"/>
<stop offset="0.4873" stop-color="#56BC5E"/>
<stop offset="1" stop-color="#64A671"/>
</radialGradient>
<radialGradient id="paint14_radial_5187_5581" cx="0" cy="0" r="1" gradientUnits="userSpaceOnUse" gradientTransform="translate(785.368 571.062) rotate(-80.2923) scale(22.4 38.9066)">
<stop stop-color="#E6FFA6"/>
<stop offset="0.4072" stop-color="#D6FFA4"/>
<stop offset="1" stop-color="#B7FFA1"/>
</radialGradient>
<radialGradient id="paint15_radial_5187_5581" cx="0" cy="0" r="1" gradientUnits="userSpaceOnUse" gradientTransform="translate(785.369 571.062) rotate(-80.2922) scale(22.4 38.9065)">
<stop stop-color="#E6FFA6"/>
<stop offset="0.4072" stop-color="#D6FFA4"/>
<stop offset="1" stop-color="#B7FFA1"/>
</radialGradient>
<radialGradient id="paint16_radial_5187_5581" cx="0" cy="0" r="1" gradientUnits="userSpaceOnUse" gradientTransform="translate(785.368 571.062) rotate(-80.2923) scale(22.4 38.9066)">
<stop stop-color="#E6FFA6"/>
<stop offset="0.4072" stop-color="#D6FFA4"/>
<stop offset="1" stop-color="#B7FFA1"/>
</radialGradient>
<radialGradient id="paint17_radial_5187_5581" cx="0" cy="0" r="1" gradientUnits="userSpaceOnUse" gradientTransform="translate(785.369 571.062) rotate(-80.2923) scale(22.4 38.9066)">
<stop stop-color="#E6FFA6"/>
<stop offset="0.4072" stop-color="#D6FFA4"/>
<stop offset="1" stop-color="#B7FFA1"/>
</radialGradient>
<radialGradient id="paint18_radial_5187_5581" cx="0" cy="0" r="1" gradientUnits="userSpaceOnUse" gradientTransform="translate(787.798 575.985) rotate(-91.5728) scale(22.3818 38.944)">
<stop stop-color="#E6FFA6"/>
<stop offset="0.4072" stop-color="#D6FFA4"/>
<stop offset="1" stop-color="#B7FFA1"/>
</radialGradient>
<radialGradient id="paint19_radial_5187_5581" cx="0" cy="0" r="1" gradientUnits="userSpaceOnUse" gradientTransform="translate(785.368 571.062) rotate(-80.2922) scale(22.4 38.9066)">
<stop stop-color="#E6FFA6"/>
<stop offset="0.4072" stop-color="#D6FFA4"/>
<stop offset="1" stop-color="#B7FFA1"/>
</radialGradient>
<radialGradient id="paint20_radial_5187_5581" cx="0" cy="0" r="1" gradientUnits="userSpaceOnUse" gradientTransform="translate(785.368 571.062) rotate(-80.2923) scale(22.4 38.9066)">
<stop stop-color="#E6FFA6"/>
<stop offset="0.4072" stop-color="#D6FFA4"/>
<stop offset="1" stop-color="#B7FFA1"/>
</radialGradient>
<radialGradient id="paint21_radial_5187_5581" cx="0" cy="0" r="1" gradientUnits="userSpaceOnUse" gradientTransform="translate(785.368 571.062) rotate(-80.2923) scale(22.4 38.9066)">
<stop stop-color="#E6FFA6"/>
<stop offset="0.4072" stop-color="#D6FFA4"/>
<stop offset="1" stop-color="#B7FFA1"/>
</radialGradient>
<radialGradient id="paint22_radial_5187_5581" cx="0" cy="0" r="1" gradientUnits="userSpaceOnUse" gradientTransform="translate(769.197 639.591) rotate(-65.6046) scale(83.7777 110.679)">
<stop stop-color="#E6FFA6"/>
<stop offset="0.4072" stop-color="#D6FFA4"/>
<stop offset="1" stop-color="#B7FFA1"/>
</radialGradient>
<linearGradient id="paint23_linear_5187_5581" x1="925.716" y1="497.855" x2="935.529" y2="492.452" gradientUnits="userSpaceOnUse">
<stop stop-color="#FFB5B5"/>
<stop offset="0.1947" stop-color="#FFB7AB"/>
<stop offset="0.5228" stop-color="#FFBD91"/>
<stop offset="0.9419" stop-color="#FEC766"/>
<stop offset="1" stop-color="#FEC860"/>
</linearGradient>
<linearGradient id="paint24_linear_5187_5581" x1="955.364" y1="386.314" x2="970.651" y2="410.554" gradientUnits="userSpaceOnUse">
<stop stop-color="#FFB5B5"/>
<stop offset="0.1947" stop-color="#FFB7AB"/>
<stop offset="0.5228" stop-color="#FFBD91"/>
<stop offset="0.9419" stop-color="#FEC766"/>
<stop offset="1" stop-color="#FEC860"/>
</linearGradient>
<radialGradient id="paint25_radial_5187_5581" cx="0" cy="0" r="1" gradientUnits="userSpaceOnUse" gradientTransform="translate(991.255 495.982) scale(57.8517 58.1775)">
<stop stop-color="#FFDF9C"/>
<stop offset="0.2933" stop-color="#FCD894"/>
<stop offset="0.7483" stop-color="#F5C67E"/>
<stop offset="1" stop-color="#F0BA6F"/>
</radialGradient>
<linearGradient id="paint26_linear_5187_5581" x1="1050.12" y1="417.825" x2="1009.25" y2="433.755" gradientUnits="userSpaceOnUse">
<stop stop-color="white"/>
<stop offset="0.2538" stop-color="#FFB5B5"/>
<stop offset="0.3991" stop-color="#FFB7AB"/>
<stop offset="0.6439" stop-color="#FFBD91"/>
<stop offset="0.9567" stop-color="#FEC766"/>
<stop offset="1" stop-color="#FEC860"/>
</linearGradient>
</defs>
</svg>
