<svg width="1342" height="1024" viewBox="0 0 1342 1024" fill="none" xmlns="http://www.w3.org/2000/svg">
<path d="M972.922 399.431L169 867.129L388.777 996L1171.01 535.542C1176.79 511.216 1168.6 498.377 1163.78 494.998C1115.58 466.487 1015.72 407.457 1001.84 399.431C987.959 391.406 976.778 396.087 972.922 399.431Z" fill="#F4EFEF" stroke="black" stroke-linejoin="round"/>
<path d="M759 554C775.24 560.859 843.1 600.858 875 620" stroke="black"/>
<path d="M249 850.715C265.24 857.678 333.1 898.283 365 917.715" stroke="black"/>
<path d="M844 504C860.24 510.963 928.1 551.568 960 571" stroke="black"/>
<path d="M334 801.57C350.24 808.429 418.1 848.428 450 867.57" stroke="black"/>
<path d="M929 455C945.24 461.859 1013.1 501.858 1045 521" stroke="black"/>
<path d="M419 752.428C435.24 759.287 503.1 799.286 535 818.428" stroke="black"/>
<path d="M504 703.285C520.24 710.144 588.1 750.143 620 769.285" stroke="black"/>
<path d="M589 653.143C605.38 660.105 673.825 700.711 706 720.143" stroke="black"/>
<path d="M675 603C691.1 609.963 758.375 650.568 790 670" stroke="black"/>
<path d="M341.037 967.974L1163 497" stroke="black"/>
<ellipse cx="535.093" cy="883.231" rx="17.7269" ry="12.8657" transform="rotate(-54.8943 535.093 883.231)" fill="#8FE3C1"/>
<ellipse cx="826.042" cy="715.487" rx="17.7269" ry="12.8657" transform="rotate(-54.8943 826.042 715.487)" fill="#8FE3C1"/>
<ellipse cx="973.554" cy="631.608" rx="17.7269" ry="12.8657" transform="rotate(-54.8943 973.554 631.608)" fill="#8FE3C1"/>
<ellipse cx="1118.17" cy="547.729" rx="17.7269" ry="12.8657" transform="rotate(-54.8943 1118.17 547.729)" fill="#8FE3C1"/>
<ellipse cx="681.423" cy="799.365" rx="17.7269" ry="12.8657" transform="rotate(-54.8943 681.423 799.365)" fill="#8FE3C1"/>
<path d="M420.629 845.707C421.438 859.502 417.536 873.515 407.235 883.086C397.037 892.562 382.552 896.435 368.943 896.603C367.309 896.633 366.492 896.655 364.858 896.713C351.204 897.152 336.656 894.237 325.896 885.266C316.59 877.505 311.678 865.988 310.699 854.074L419.805 832.621C420.08 836.985 420.355 841.346 420.629 845.707Z" fill="url(#paint0_linear_5199_11994)"/>
<path d="M419.676 832.788C420.915 839.077 397.535 848.977 367.46 854.899C337.384 860.817 311.998 860.519 310.759 854.226C309.521 847.936 332.9 838.036 362.976 832.115C393.051 826.193 418.437 826.495 419.676 832.788Z" fill="url(#paint1_linear_5199_11994)"/>
<path d="M332.708 857.697C317.137 858.114 312.454 855.542 312.142 853.954C311.816 852.296 315.164 848.778 325.676 844.328C335.452 840.189 348.795 836.344 363.251 833.497C375.6 831.067 387.844 829.581 397.731 829.316C413.302 828.899 417.984 831.472 418.297 833.06C418.622 834.717 415.275 838.235 404.763 842.685C394.986 846.824 381.644 850.67 367.188 853.517C354.839 855.946 342.592 857.432 332.708 857.697Z" fill="url(#paint2_radial_5199_11994)"/>
<path d="M356.291 841.624C355.547 842.152 352.273 844.475 352.759 845.995C353.805 849.266 371.52 846.517 376.993 842.321C377.622 841.838 379.276 840.573 378.965 839.574C378.731 838.819 377.474 838.54 376.554 838.375C370.466 837.297 364.295 838.76 362.044 839.343C358.636 840.228 357.372 840.858 356.291 841.624Z" fill="#FFE6CC"/>
<path d="M345.668 845.719C345.977 845.073 349.402 845.595 349.414 846.044C349.424 846.433 346.878 847.276 345.934 846.337C345.891 846.292 345.555 845.958 345.668 845.719Z" fill="#063B01"/>
<path d="M367.575 850.964C367.93 851.28 368.617 851.385 368.992 851.112C369.853 850.478 368.993 847.852 368.354 847.838C367.747 847.826 366.665 850.156 367.575 850.964Z" fill="#063B01"/>
<path d="M353.395 851.175C353.534 851.529 355.114 851.589 356.187 850.756C356.919 850.186 357.432 849.186 357.173 848.944C356.673 848.48 353.161 850.585 353.395 851.175Z" fill="#063B01"/>
<path d="M382.42 845.566C381.263 846.243 378.827 844.649 378.982 844.15C379.086 843.817 380.355 843.931 381.78 844.061C382.561 844.131 382.865 844.221 382.973 844.439C383.143 844.772 382.828 845.327 382.42 845.566Z" fill="#063B01"/>
<path d="M364.262 836.399C363.93 836.198 362.855 836.676 362.825 837.108C362.817 837.199 362.901 837.32 363.065 837.561C363.339 837.961 363.474 838.157 363.583 838.161C363.99 838.168 364.701 836.665 364.262 836.399Z" fill="#063B01"/>
<path d="M354.061 839.315C353.437 839.338 352.863 839.789 352.922 840.036C353.032 840.469 355.206 840.554 355.35 840.147C355.438 839.895 354.821 839.284 354.061 839.315Z" fill="#063B01"/>
<path d="M383.514 836.621C383.513 836.33 382.379 835.897 381.37 836.24C380.679 836.476 380.028 837.079 380.147 837.318C380.38 837.779 383.52 837.109 383.514 836.621Z" fill="#063B01"/>
<path d="M349.044 842.219C348.925 841.983 349.274 841.507 349.7 841.303C350.774 840.793 352.434 841.97 352.333 842.271C352.31 842.338 352.205 842.334 350.693 842.357C349.413 842.374 349.125 842.385 349.044 842.219Z" fill="#A2C71E"/>
<path d="M372.416 835.235C372.768 834.749 373.478 834.526 373.665 834.707C373.996 835.024 372.925 836.811 372.48 836.707C372.208 836.648 371.986 835.829 372.416 835.235Z" fill="#063B01"/>
<path d="M379.725 834.709C379.708 834.449 379.157 834.194 378.677 834.217C377.475 834.274 376.643 836.075 376.883 836.29C376.937 836.338 377.027 836.283 378.356 835.598C379.481 835.017 379.737 834.891 379.725 834.709Z" fill="#A2C71E"/>
<path d="M359.686 851.371C360.003 851.818 361.698 851.689 362.43 850.729C363.125 849.816 362.795 848.365 362.282 848.224C361.985 848.141 361.634 848.508 361.094 849.066C360.541 849.643 359.347 850.889 359.686 851.371Z" fill="#A2C71E"/>
<path d="M348.456 849.084C348.424 849.362 348.736 849.613 348.957 849.719C350.137 850.281 352.357 848.425 352.157 848.013C351.941 847.559 348.552 848.218 348.456 849.084Z" fill="#A2C71E"/>
<path d="M369.19 835.664C369.033 835.461 368.491 835.374 368.15 835.488C367.298 835.778 367.674 837.371 367.972 837.489C368.039 837.516 368.073 837.455 368.675 836.642C369.18 835.955 369.299 835.805 369.19 835.664Z" fill="#A2C71E"/>
<path d="M376.065 848.048C376.038 848.48 374.932 849.001 374.051 848.73C372.969 848.394 372.512 846.943 372.848 846.632C373.046 846.448 373.536 846.645 374.37 846.984C375.299 847.356 376.086 847.675 376.065 848.048Z" fill="#A2C71E"/>
<path d="M358.9 837.522C358.594 837.509 358.088 837.597 358.014 837.837C357.878 838.279 359.212 839.236 359.683 838.975C359.949 838.827 360 838.261 359.734 837.896C359.472 837.549 359.019 837.526 358.9 837.522Z" fill="#A2C71E"/>
<path d="M384.488 839.054C384.697 839.252 384.619 839.633 384.516 839.846C383.971 840.983 381.01 840.856 380.893 840.413C380.761 839.936 383.84 838.436 384.488 839.054Z" fill="#A2C71E"/>
<path d="M359.297 819.487C329.387 824.943 306.074 834.482 307.227 840.787C307.27 841.029 307.355 841.263 307.47 841.49C308.484 844.018 309.499 846.548 310.513 849.076C311.809 852.307 314.76 854.58 318.217 854.997C330.576 856.483 347.681 857.083 367.467 853.353C386.336 849.795 401.505 843.456 412.407 837.758C416.385 835.681 418.352 831.087 417.136 826.768C416.609 824.895 416.084 823.026 415.555 821.155C415.55 821.112 415.546 821.069 415.538 821.027C414.384 814.718 389.206 814.028 359.297 819.487Z" fill="url(#paint3_linear_5199_11994)"/>
<path d="M397.095 832.315C411.738 827.003 415.154 822.894 414.863 821.302C414.559 819.64 410.156 817.592 398.744 817.3C388.131 817.027 374.308 818.333 359.813 820.976C347.432 823.236 335.494 826.336 326.196 829.709C311.554 835.021 308.138 839.129 308.428 840.722C308.732 842.384 313.136 844.431 324.547 844.724C335.16 844.997 348.983 843.691 363.479 841.048C375.859 838.787 387.797 835.688 397.095 832.315Z" fill="url(#paint4_radial_5199_11994)"/>
<path d="M369.26 825.992C370.146 826.211 374.044 827.174 374.147 828.767C374.372 832.193 356.88 836.121 350.251 834.22C349.488 834 347.486 833.428 347.41 832.385C347.352 831.597 348.419 830.877 349.215 830.387C354.486 827.154 360.764 826.257 363.072 825.976C366.567 825.551 367.974 825.675 369.26 825.992Z" fill="#FFE6CC"/>
<path d="M380.65 825.912C380.126 825.423 377.13 827.163 377.283 827.585C377.416 827.951 380.094 827.804 380.629 826.584C380.653 826.527 380.842 826.093 380.65 825.912Z" fill="#063B01"/>
<path d="M362.179 838.813C361.964 839.238 361.36 839.588 360.914 839.47C359.882 839.195 359.72 836.437 360.31 836.189C360.874 835.955 362.73 837.729 362.179 838.813Z" fill="#063B01"/>
<path d="M375.454 833.818C375.454 834.198 374.005 834.832 372.702 834.45C371.812 834.187 370.969 833.445 371.121 833.125C371.417 832.51 375.455 833.183 375.454 833.818Z" fill="#063B01"/>
<path d="M346.39 839.225C347.714 839.431 349.397 837.055 349.07 836.648C348.852 836.376 347.712 836.946 346.434 837.589C345.733 837.94 345.483 838.136 345.463 838.378C345.43 838.748 345.923 839.151 346.39 839.225Z" fill="#063B01"/>
<path d="M359.931 824.049C360.166 823.74 361.341 823.791 361.527 824.183C361.568 824.265 361.534 824.408 361.47 824.692C361.361 825.164 361.308 825.397 361.208 825.44C360.834 825.594 359.62 824.457 359.931 824.049Z" fill="#063B01"/>
<path d="M370.495 823.026C371.084 822.819 371.783 823.028 371.819 823.281C371.875 823.723 369.883 824.598 369.6 824.272C369.423 824.071 369.776 823.275 370.495 823.026Z" fill="#063B01"/>
<path d="M342.096 831.301C341.99 831.029 342.887 830.211 343.951 830.161C344.681 830.128 345.507 830.451 345.484 830.717C345.439 831.23 342.272 831.755 342.096 831.301Z" fill="#063B01"/>
<path d="M376.225 823.89C376.25 823.628 375.751 823.312 375.28 823.278C374.094 823.197 372.98 824.9 373.184 825.143C373.23 825.197 373.326 825.155 374.741 824.623C375.935 824.171 376.207 824.076 376.225 823.89Z" fill="#A2C71E"/>
<path d="M351.917 825.948C351.412 825.624 350.67 825.677 350.562 825.914C350.37 826.33 352.021 827.601 352.397 827.341C352.625 827.188 352.535 826.343 351.917 825.948Z" fill="#063B01"/>
<path d="M344.925 828.135C344.847 827.887 345.266 827.448 345.721 827.294C346.86 826.907 348.294 828.278 348.149 828.566C348.116 828.63 348.012 828.612 346.525 828.461C345.262 828.333 344.978 828.31 344.925 828.135Z" fill="#A2C71E"/>
<path d="M369.67 836.305C369.539 836.838 367.914 837.338 366.882 836.712C365.902 836.12 365.677 834.646 366.102 834.327C366.348 834.141 366.81 834.354 367.516 834.676C368.245 835.009 369.813 835.731 369.67 836.305Z" fill="#A2C71E"/>
<path d="M379.283 830.063C379.414 830.31 379.216 830.659 379.05 830.838C378.157 831.793 375.411 830.878 375.447 830.421C375.482 829.92 378.877 829.293 379.283 830.063Z" fill="#A2C71E"/>
<path d="M355.079 825.166C355.15 824.92 355.623 824.64 355.982 824.622C356.881 824.58 357.114 826.2 356.881 826.419C356.827 826.468 356.774 826.424 355.916 825.889C355.195 825.434 355.029 825.337 355.079 825.166Z" fill="#A2C71E"/>
<path d="M353.211 839.208C353.394 839.601 354.613 839.681 355.334 839.106C356.218 838.397 356.112 836.88 355.686 836.713C355.434 836.615 355.051 836.977 354.399 837.598C353.67 838.284 353.054 838.869 353.211 839.208Z" fill="#A2C71E"/>
<path d="M365.335 823.128C365.615 823.004 366.118 822.9 366.275 823.097C366.563 823.459 365.672 824.838 365.139 824.767C364.837 824.727 364.582 824.219 364.696 823.782C364.809 823.364 365.226 823.175 365.335 823.128Z" fill="#A2C71E"/>
<path d="M342.084 833.922C341.962 834.183 342.174 834.509 342.348 834.669C343.271 835.528 345.98 834.326 345.927 833.871C345.872 833.38 342.461 833.11 342.084 833.922Z" fill="#A2C71E"/>
<path d="M359.022 806.778C388.853 800.905 414.04 801.247 415.279 807.537C415.328 807.777 415.334 808.026 415.31 808.28C415.291 811.003 415.273 813.73 415.255 816.453C415.232 819.934 413.318 823.129 410.254 824.783C399.297 830.691 383.599 837.511 363.821 841.283C344.96 844.88 328.523 844.535 316.292 843.224C311.83 842.747 308.317 839.192 307.868 834.727C307.672 832.792 307.476 830.861 307.284 828.926C307.273 828.884 307.261 828.842 307.253 828.8C306.01 822.507 329.191 812.648 359.022 806.778Z" fill="url(#paint5_linear_5199_11994)"/>
<path d="M420.626 811.357L413.726 813.745C413.667 813.765 413.633 813.832 413.656 813.891C413.675 813.943 413.725 813.973 413.777 813.965L421.014 812.999C421.483 812.937 421.815 812.511 421.754 812.046C421.692 811.581 421.262 811.256 420.794 811.317C420.738 811.326 420.679 811.342 420.626 811.357Z" fill="#F3C344"/>
<path d="M419.865 820.754L413.385 817.496C413.253 817.43 413.093 817.483 413.026 817.611C412.966 817.728 413.002 817.868 413.105 817.942L418.967 822.192C419.346 822.466 419.884 822.385 420.162 822.006C420.443 821.63 420.362 821.098 419.983 820.824C419.947 820.797 419.904 820.774 419.865 820.754Z" fill="#F3C344"/>
<path d="M328.964 832.166C313.393 832.583 308.71 830.01 308.397 828.422C308.072 826.764 311.42 823.247 321.932 818.797C331.708 814.658 345.05 810.812 359.507 807.965C371.855 805.536 384.099 804.05 393.987 803.785C409.557 803.368 414.24 805.94 414.553 807.528C414.878 809.186 411.53 812.704 401.018 817.154C391.242 821.293 377.9 825.138 363.443 827.985C351.095 830.415 338.847 831.901 328.964 832.166Z" fill="url(#paint6_radial_5199_11994)"/>
<path d="M352.545 816.091C351.801 816.619 348.527 818.942 349.013 820.462C350.059 823.732 367.774 820.984 373.247 816.788C373.876 816.305 375.53 815.039 375.219 814.041C374.985 813.286 373.728 813.007 372.808 812.842C366.72 811.763 360.549 813.227 358.298 813.81C354.89 814.694 353.626 815.325 352.545 816.091Z" fill="#FFE6CC"/>
<path d="M341.922 820.19C342.231 819.543 345.655 820.065 345.667 820.514C345.678 820.903 343.132 821.747 342.188 820.808C342.144 820.76 341.809 820.425 341.922 820.19Z" fill="#063B01"/>
<path d="M363.83 825.43C364.186 825.747 364.873 825.852 365.248 825.578C366.109 824.945 365.249 822.319 364.61 822.304C364.002 822.293 362.921 824.623 363.83 825.43Z" fill="#063B01"/>
<path d="M349.651 825.646C349.79 826 351.37 826.059 352.443 825.227C353.175 824.657 353.688 823.657 353.429 823.415C352.929 822.951 349.417 825.056 349.651 825.646Z" fill="#063B01"/>
<path d="M378.674 820.033C377.517 820.71 375.081 819.116 375.236 818.617C375.34 818.284 376.609 818.397 378.034 818.528C378.815 818.598 379.119 818.688 379.226 818.906C379.397 819.238 379.082 819.798 378.674 820.033Z" fill="#063B01"/>
<path d="M360.518 810.87C360.186 810.668 359.111 811.146 359.081 811.579C359.073 811.67 359.157 811.791 359.321 812.032C359.595 812.431 359.73 812.628 359.839 812.632C360.246 812.639 360.957 811.132 360.518 810.87Z" fill="#063B01"/>
<path d="M350.315 813.783C349.691 813.807 349.117 814.258 349.176 814.505C349.286 814.937 351.46 815.023 351.604 814.616C351.692 814.364 351.075 813.753 350.315 813.783Z" fill="#063B01"/>
<path d="M379.768 811.088C379.767 810.797 378.633 810.364 377.624 810.707C376.933 810.943 376.282 811.546 376.401 811.785C376.634 812.246 379.774 811.575 379.768 811.088Z" fill="#063B01"/>
<path d="M345.298 816.685C345.179 816.45 345.528 815.974 345.954 815.77C347.028 815.26 348.687 816.437 348.587 816.738C348.564 816.805 348.459 816.801 346.947 816.824C345.667 816.84 345.379 816.852 345.298 816.685Z" fill="#A2C71E"/>
<path d="M368.667 809.704C369.019 809.217 369.729 808.995 369.916 809.176C370.248 809.493 369.176 811.28 368.731 811.176C368.463 811.113 368.241 810.294 368.667 809.704Z" fill="#063B01"/>
<path d="M375.981 809.175C375.963 808.916 375.413 808.661 374.933 808.684C373.731 808.741 372.898 810.542 373.139 810.757C373.193 810.804 373.283 810.749 374.612 810.065C375.737 809.484 375.993 809.357 375.981 809.175Z" fill="#A2C71E"/>
<path d="M355.94 825.838C356.257 826.285 357.952 826.156 358.684 825.196C359.379 824.282 359.049 822.832 358.536 822.691C358.239 822.608 357.888 822.975 357.348 823.533C356.795 824.113 355.601 825.355 355.94 825.838Z" fill="#A2C71E"/>
<path d="M344.71 823.55C344.678 823.828 344.99 824.079 345.211 824.186C346.391 824.747 348.611 822.891 348.41 822.479C348.195 822.025 344.806 822.688 344.71 823.55Z" fill="#A2C71E"/>
<path d="M365.445 810.131C365.289 809.928 364.746 809.841 364.406 809.955C363.554 810.244 363.93 811.838 364.228 811.956C364.295 811.982 364.329 811.922 364.931 811.109C365.436 810.426 365.555 810.272 365.445 810.131Z" fill="#A2C71E"/>
<path d="M372.321 822.514C372.294 822.947 371.188 823.467 370.307 823.196C369.225 822.86 368.768 821.41 369.104 821.099C369.302 820.915 369.792 821.112 370.625 821.451C371.555 821.823 372.342 822.142 372.321 822.514Z" fill="#A2C71E"/>
<path d="M355.154 811.989C354.848 811.976 354.342 812.063 354.267 812.304C354.132 812.746 355.466 813.703 355.936 813.442C356.203 813.294 356.254 812.728 355.988 812.363C355.726 812.016 355.273 811.996 355.154 811.989Z" fill="#A2C71E"/>
<path d="M380.742 813.521C380.951 813.719 380.873 814.1 380.77 814.313C380.225 815.451 377.264 815.323 377.147 814.881C377.015 814.403 380.094 812.907 380.742 813.521Z" fill="#A2C71E"/>
<path d="M414.601 805.717C412.796 801.275 410.987 796.832 409.182 792.39C398.71 766.19 368.926 746.377 340.938 756.841C339.557 757.345 338.869 757.596 337.488 758.1C310.619 767.681 300.28 799.42 307.126 825.582L307.186 825.571C307.189 825.589 307.191 825.606 307.194 825.624C307.512 827.375 311.999 829.508 323.584 829.75C334.248 829.975 348.137 828.599 362.695 825.878C375.051 823.569 386.986 820.424 396.3 817.023C409.963 812.033 414.6 807.872 414.464 805.741L414.601 805.717Z" fill="url(#paint7_linear_5199_11994)"/>
<path d="M301.557 824.423L308.702 822.904C308.765 822.892 308.824 822.931 308.839 822.992C308.851 823.048 308.822 823.099 308.774 823.121L302.084 826.049C301.649 826.238 301.144 826.042 300.955 825.606C300.766 825.171 300.963 824.666 301.398 824.478C301.445 824.453 301.502 824.436 301.557 824.423Z" fill="#F3C344"/>
<path d="M302.854 815.003L308.991 818.957C309.055 819 309.076 819.086 309.032 819.151C308.994 819.209 308.922 819.228 308.861 819.205L302.071 816.521C301.63 816.346 301.415 815.85 301.59 815.409C301.765 814.967 302.262 814.753 302.703 814.928C302.756 814.949 302.806 814.976 302.854 815.003Z" fill="#F3C344"/>
<path d="M351.027 747.406L351.361 754.703C351.365 754.765 351.315 754.821 351.252 754.822C351.196 754.823 351.15 754.788 351.135 754.737L349.337 747.657C349.222 747.199 349.5 746.731 349.957 746.613C350.415 746.498 350.882 746.775 351.001 747.232C351.018 747.29 351.025 747.35 351.027 747.406Z" fill="#F3C344"/>
<path d="M360.112 750.217L355.21 755.628C355.156 755.685 355.069 755.691 355.012 755.637C354.962 755.592 354.953 755.517 354.985 755.461L358.739 749.198C358.983 748.792 359.509 748.659 359.916 748.903C360.322 749.147 360.455 749.673 360.211 750.08C360.185 750.13 360.146 750.178 360.112 750.217Z" fill="#F3C344"/>
<path d="M342.483 751.613L347.969 756.412C348.08 756.51 348.092 756.678 347.994 756.788C347.907 756.887 347.761 756.907 347.651 756.839L341.468 752.984C341.067 752.735 340.944 752.205 341.193 751.804C341.443 751.403 341.973 751.28 342.374 751.529C342.409 751.554 342.45 751.584 342.483 751.613Z" fill="#F3C344"/>
<path d="M349.318 813.088C347.09 813.356 345.499 815.382 345.768 817.61C346.036 819.838 348.062 821.429 350.29 821.16C352.519 820.891 354.109 818.866 353.84 816.638C353.574 814.405 351.549 812.818 349.318 813.088ZM346.515 817.52C346.296 815.703 347.593 814.05 349.41 813.831C351.227 813.612 352.88 814.908 353.099 816.725L346.515 817.52Z" fill="#C4CF4D"/>
<path d="M372.931 810.234C370.703 810.503 369.113 812.528 369.381 814.757C369.65 816.985 371.675 818.575 373.904 818.307C376.132 818.038 377.722 816.012 377.454 813.784C377.184 811.553 375.159 809.966 372.931 810.234ZM370.125 814.668C369.906 812.851 371.203 811.198 373.02 810.978C374.837 810.759 376.49 812.056 376.709 813.873L370.125 814.668Z" fill="#C4CF4D"/>
<path d="M360.04 818.769C359.861 817.644 360.721 815.328 361.912 815.819C362.822 816.193 363.936 818.19 363.977 819.232C364.055 821.194 360.345 820.708 360.04 818.769Z" fill="#C4CF4D"/>
<path d="M107.027 920.313L106.273 926.882C106.266 926.945 106.207 926.994 106.144 926.984C106.088 926.977 106.046 926.935 106.043 926.882L105.285 920.31C105.229 919.825 105.575 919.386 106.057 919.33C106.539 919.274 106.975 919.622 107.031 920.106C107.034 920.176 107.034 920.247 107.027 920.313Z" fill="#F37343"/>
<path d="M114.709 924.108L109.574 928.237C109.511 928.286 109.42 928.276 109.371 928.216C109.329 928.163 109.329 928.086 109.371 928.033L113.477 922.869C113.781 922.486 114.332 922.427 114.713 922.732C115.093 923.037 115.153 923.592 114.849 923.975C114.804 924.02 114.755 924.07 114.709 924.108Z" fill="#F37343"/>
<path d="M98.8381 922.865L103.035 927.938C103.132 928.054 103.115 928.23 103 928.324C102.898 928.409 102.748 928.409 102.651 928.324L97.6057 924.104C97.2321 923.792 97.1832 923.237 97.4905 922.861C97.8012 922.486 98.3528 922.437 98.7264 922.745C98.7683 922.788 98.8067 922.826 98.8381 922.865Z" fill="#F37343"/>
<path d="M94.98 930.501L101.516 931.263C101.578 931.27 101.627 931.33 101.617 931.393C101.61 931.449 101.568 931.491 101.516 931.495L94.98 932.257C94.4982 932.313 94.0618 931.965 94.0059 931.481C93.9501 930.996 94.2957 930.558 94.7775 930.501C94.8438 930.494 94.9136 930.494 94.98 930.501Z" fill="#F37343"/>
<path d="M97.5174 938.737L102.562 934.517C102.677 934.419 102.852 934.436 102.946 934.552C103.03 934.654 103.03 934.805 102.946 934.903L98.7498 939.977C98.439 940.352 97.8874 940.401 97.5139 940.092C97.1403 939.78 97.0914 939.225 97.3987 938.85C97.4371 938.811 97.479 938.769 97.5174 938.737Z" fill="#F37343"/>
<path d="M105.111 942.621L105.868 936.049C105.875 935.985 105.935 935.936 105.997 935.947C106.053 935.954 106.095 935.996 106.099 936.049L106.856 942.621C106.912 943.105 106.567 943.544 106.085 943.601C105.603 943.657 105.167 943.309 105.111 942.825C105.104 942.754 105.104 942.684 105.111 942.621Z" fill="#F37343"/>
<path d="M113.303 940.066L109.107 934.992C109.009 934.877 109.026 934.701 109.141 934.606C109.243 934.522 109.393 934.522 109.491 934.606L114.535 938.826C114.909 939.139 114.958 939.693 114.651 940.069C114.34 940.445 113.788 940.494 113.415 940.185C113.376 940.146 113.334 940.104 113.303 940.066Z" fill="#F37343"/>
<path d="M117.164 932.429L110.628 931.668C110.565 931.66 110.516 931.601 110.527 931.538C110.534 931.481 110.576 931.439 110.628 931.436L117.164 930.674C117.645 930.618 118.082 930.965 118.138 931.45C118.194 931.934 117.848 932.373 117.366 932.429C117.296 932.44 117.227 932.436 117.164 932.429Z" fill="#F37343"/>
<path d="M114.921 960.286C115.343 959.376 117.927 953.545 115.148 947.253C113.151 942.738 109.541 940.579 108.295 939.908C107.136 939.971 103.03 940.33 99.7969 943.616C97.1052 946.351 94.787 951.357 96.8015 955.953C99.364 961.795 106.786 962.083 107.802 962.108C111.081 962.181 113.615 961.012 114.921 960.286Z" fill="url(#paint8_linear_5199_11994)"/>
<path d="M125.595 887.883C124.457 885.13 122.875 880.281 123.151 874.19C123.315 870.56 123.748 861.066 131.181 854.88C138.369 848.894 149.297 848.343 157.365 853.125C164.096 857.116 166.708 863.555 167.49 865.764C164.519 869.619 159.467 875.17 151.779 879.808C141.138 886.232 130.964 887.57 125.595 887.883Z" fill="url(#paint9_linear_5199_11994)"/>
<path d="M179.786 996.079C163.803 1000.52 143.627 999.923 129.068 993.049C111.333 984.675 106.375 968.079 106.438 953.425C107.245 938.668 109.381 924.052 112.935 909.524C117.558 894.817 125.944 880.514 142.133 870.894C152.491 864.739 164.941 861.049 178.106 863.977C189.24 867.523 195.039 876.107 198.928 884.109C203.858 894.252 206.857 904.612 207.761 915.412C208.592 924.607 210.488 933.553 213.49 942.492C221.67 964.516 209.702 987.983 179.786 996.079Z" fill="url(#paint10_radial_5199_11994)"/>
<path d="M197.165 905.438C195.556 905.129 188.901 903.658 184.247 897.363C178.574 889.688 180.463 881.047 180.756 879.808C183.825 873.095 190.72 869.188 197.539 870.132C204.954 871.157 209.426 877.533 210.781 882.968C213.089 892.216 206.522 899.301 205.593 900.27C202.528 903.465 199.068 904.841 197.165 905.438Z" fill="url(#paint11_linear_5199_11994)"/>
<path d="M155.054 928.227C154.722 929.771 158.392 933.205 162.344 932.327C165.301 931.671 167.647 928.774 167.074 927.398C166.076 924.986 155.56 925.86 155.054 928.227Z" fill="#F37343"/>
<path d="M150.291 923.121C148.395 921.215 145.32 921.215 143.424 923.121C141.528 925.028 141.528 928.121 143.424 930.027C145.32 931.934 148.395 931.934 150.291 930.027C152.19 928.121 152.19 925.028 150.291 923.121ZM149.659 929.392C148.113 930.947 145.606 930.947 144.059 929.392L149.659 923.76C151.206 925.312 151.206 927.833 149.659 929.392Z" fill="#F37343"/>
<path d="M178.703 923.121C176.807 921.215 173.732 921.215 171.836 923.121C169.94 925.028 169.94 928.121 171.836 930.027C173.732 931.934 176.807 931.934 178.703 930.027C180.599 928.121 180.599 925.028 178.703 923.121ZM178.068 929.392C176.521 930.947 174.014 930.947 172.468 929.392L178.068 923.76C179.618 925.312 179.618 927.833 178.068 929.392Z" fill="#F37343"/>
<path d="M194.931 855.673L194.174 863.148C194.167 863.211 194.111 863.26 194.045 863.253C193.989 863.246 193.947 863.204 193.94 863.148L193.182 855.673C193.133 855.189 193.483 854.757 193.968 854.708C194.45 854.659 194.879 855.01 194.928 855.498C194.938 855.55 194.938 855.614 194.931 855.673Z" fill="#F37343"/>
<path d="M203.702 859.903L197.931 864.668C197.868 864.717 197.777 864.71 197.728 864.647C197.683 864.594 197.686 864.517 197.728 864.464L202.466 858.66C202.773 858.285 203.325 858.229 203.702 858.538C204.075 858.847 204.131 859.401 203.824 859.78C203.785 859.826 203.743 859.868 203.702 859.903Z" fill="#F37343"/>
<path d="M185.654 858.662L190.486 864.374C190.584 864.49 190.57 864.662 190.455 864.76C190.35 864.848 190.2 864.844 190.102 864.76L184.422 859.901C184.052 859.585 184.01 859.03 184.321 858.658C184.631 858.286 185.187 858.244 185.557 858.556C185.588 858.591 185.623 858.63 185.654 858.662Z" fill="#F37343"/>
<path d="M181.346 867.382L188.778 868.144C188.841 868.151 188.89 868.207 188.883 868.274C188.876 868.33 188.834 868.372 188.778 868.379L181.346 869.141C180.864 869.19 180.434 868.839 180.385 868.351C180.337 867.866 180.686 867.435 181.171 867.385C181.227 867.375 181.29 867.375 181.346 867.382Z" fill="#F37343"/>
<path d="M184.32 876.714L190 871.854C190.116 871.756 190.287 871.77 190.384 871.886C190.472 871.991 190.468 872.142 190.384 872.241L185.552 877.953C185.238 878.325 184.687 878.367 184.317 878.055C183.946 877.739 183.905 877.184 184.215 876.812C184.25 876.777 184.285 876.742 184.32 876.714Z" fill="#F37343"/>
<path d="M192.991 881.044L193.748 873.569C193.755 873.506 193.811 873.457 193.877 873.464C193.933 873.471 193.975 873.513 193.982 873.569L194.74 881.044C194.789 881.528 194.439 881.96 193.954 882.009C193.472 882.058 193.043 881.707 192.994 881.219C192.987 881.163 192.987 881.1 192.991 881.044Z" fill="#F37343"/>
<path d="M202.27 878.052L197.438 872.339C197.34 872.224 197.354 872.051 197.47 871.953C197.574 871.865 197.724 871.869 197.822 871.953L203.506 876.812C203.876 877.128 203.918 877.683 203.607 878.055C203.296 878.427 202.741 878.469 202.371 878.157C202.336 878.122 202.301 878.087 202.27 878.052Z" fill="#F37343"/>
<path d="M206.577 869.334L199.144 868.572C199.082 868.565 199.033 868.509 199.04 868.442C199.047 868.386 199.089 868.344 199.144 868.337L206.577 867.575C207.059 867.526 207.489 867.877 207.537 868.365C207.586 868.849 207.237 869.281 206.752 869.33C206.696 869.341 206.633 869.337 206.577 869.334Z" fill="#F37343"/>
<path opacity="0.2" d="M172.303 508.04V521H149.633V508.04H136.215V485.37H149.633V473H172.303V485.37H184.215V508.04H172.303Z" fill="#3DCE94"/>
<defs>
<linearGradient id="paint0_linear_5199_11994" x1="366.57" y1="883.151" x2="363.628" y2="773.373" gradientUnits="userSpaceOnUse">
<stop stop-color="#6A4727"/>
<stop offset="0.1931" stop-color="#734D2A"/>
<stop offset="0.5059" stop-color="#8B5E31"/>
<stop offset="0.8973" stop-color="#B27A3D"/>
<stop offset="1" stop-color="#BD8240"/>
</linearGradient>
<linearGradient id="paint1_linear_5199_11994" x1="310.476" y1="844.973" x2="419.957" y2="842.038" gradientUnits="userSpaceOnUse">
<stop stop-color="#6A4727"/>
<stop offset="0.1931" stop-color="#734D2A"/>
<stop offset="0.5059" stop-color="#8B5E31"/>
<stop offset="0.8973" stop-color="#B27A3D"/>
<stop offset="1" stop-color="#BD8240"/>
</linearGradient>
<radialGradient id="paint2_radial_5199_11994" cx="0" cy="0" r="1" gradientUnits="userSpaceOnUse" gradientTransform="translate(365.202 843.516) rotate(-11.2248) scale(53.5846 10.6711)">
<stop stop-color="#C4CF4D"/>
<stop offset="0.2634" stop-color="#C6D24D"/>
<stop offset="0.4274" stop-color="#CCDA4E"/>
<stop offset="0.5637" stop-color="#D5E950"/>
<stop offset="0.6193" stop-color="#DBF151"/>
<stop offset="1" stop-color="#C4CF4D"/>
</radialGradient>
<linearGradient id="paint3_linear_5199_11994" x1="312.133" y1="854.414" x2="414.247" y2="817.369" gradientUnits="userSpaceOnUse">
<stop stop-color="#6A4727"/>
<stop offset="0.1931" stop-color="#734D2A"/>
<stop offset="0.5059" stop-color="#8B5E31"/>
<stop offset="0.8973" stop-color="#B27A3D"/>
<stop offset="1" stop-color="#BD8240"/>
</linearGradient>
<radialGradient id="paint4_radial_5199_11994" cx="0" cy="0" r="1" gradientUnits="userSpaceOnUse" gradientTransform="translate(361.786 831.097) rotate(169.75) scale(53.5846 10.6711)">
<stop stop-color="#C4CF4D"/>
<stop offset="0.2634" stop-color="#C6D24D"/>
<stop offset="0.4274" stop-color="#CCDA4E"/>
<stop offset="0.5637" stop-color="#D5E950"/>
<stop offset="0.6193" stop-color="#DBF151"/>
<stop offset="1" stop-color="#C4CF4D"/>
</radialGradient>
<linearGradient id="paint5_linear_5199_11994" x1="415.697" y1="822.013" x2="307.111" y2="824.924" gradientUnits="userSpaceOnUse">
<stop stop-color="#6A4727"/>
<stop offset="0.1931" stop-color="#734D2A"/>
<stop offset="0.5059" stop-color="#8B5E31"/>
<stop offset="0.8973" stop-color="#B27A3D"/>
<stop offset="1" stop-color="#BD8240"/>
</linearGradient>
<radialGradient id="paint6_radial_5199_11994" cx="0" cy="0" r="1" gradientUnits="userSpaceOnUse" gradientTransform="translate(361.461 817.985) rotate(-11.2248) scale(53.5846 10.6711)">
<stop stop-color="#C4CF4D"/>
<stop offset="0.2634" stop-color="#C6D24D"/>
<stop offset="0.4274" stop-color="#CCDA4E"/>
<stop offset="0.5637" stop-color="#D5E950"/>
<stop offset="0.6193" stop-color="#DBF151"/>
<stop offset="1" stop-color="#C4CF4D"/>
</radialGradient>
<linearGradient id="paint7_linear_5199_11994" x1="386.719" y1="886.45" x2="346.751" y2="777.003" gradientUnits="userSpaceOnUse">
<stop stop-color="#6A4727"/>
<stop offset="0.1931" stop-color="#734D2A"/>
<stop offset="0.5059" stop-color="#8B5E31"/>
<stop offset="0.8973" stop-color="#B27A3D"/>
<stop offset="1" stop-color="#BD8240"/>
</linearGradient>
<linearGradient id="paint8_linear_5199_11994" x1="97.7161" y1="957.045" x2="107.529" y2="951.643" gradientUnits="userSpaceOnUse">
<stop stop-color="#FFB5B5"/>
<stop offset="0.1947" stop-color="#FFB7AB"/>
<stop offset="0.5228" stop-color="#FFBD91"/>
<stop offset="0.9419" stop-color="#FEC766"/>
<stop offset="1" stop-color="#FEC860"/>
</linearGradient>
<linearGradient id="paint9_linear_5199_11994" x1="127.364" y1="845.503" x2="142.651" y2="869.743" gradientUnits="userSpaceOnUse">
<stop stop-color="#FFB5B5"/>
<stop offset="0.1947" stop-color="#FFB7AB"/>
<stop offset="0.5228" stop-color="#FFBD91"/>
<stop offset="0.9419" stop-color="#FEC766"/>
<stop offset="1" stop-color="#FEC860"/>
</linearGradient>
<radialGradient id="paint10_radial_5199_11994" cx="0" cy="0" r="1" gradientUnits="userSpaceOnUse" gradientTransform="translate(163.255 955.172) scale(57.8517 58.1775)">
<stop stop-color="#FFDF9C"/>
<stop offset="0.2933" stop-color="#FCD894"/>
<stop offset="0.7483" stop-color="#F5C67E"/>
<stop offset="1" stop-color="#F0BA6F"/>
</radialGradient>
<linearGradient id="paint11_linear_5199_11994" x1="222.119" y1="877.015" x2="181.249" y2="892.945" gradientUnits="userSpaceOnUse">
<stop stop-color="white"/>
<stop offset="0.2538" stop-color="#FFB5B5"/>
<stop offset="0.3991" stop-color="#FFB7AB"/>
<stop offset="0.6439" stop-color="#FFBD91"/>
<stop offset="0.9567" stop-color="#FEC766"/>
<stop offset="1" stop-color="#FEC860"/>
</linearGradient>
</defs>
</svg>
