<svg width="47" height="14" viewBox="0 0 47 14" fill="none" xmlns="http://www.w3.org/2000/svg">
<rect width="47" height="14" rx="7" fill="#E0AA5F"/>
<path d="M5.275 5.19H7.579V5.91H5.275V5.19ZM4.789 6.756H7.858V7.485H4.789V6.756ZM4.906 8.043L5.437 7.89C5.509 8.148 5.575 8.427 5.635 8.727C5.701 9.027 5.746 9.285 5.77 9.501L5.203 9.672C5.185 9.45 5.146 9.189 5.086 8.889C5.032 8.583 4.972 8.301 4.906 8.043ZM4.681 10.203C4.939 10.155 5.239 10.098 5.581 10.032C5.929 9.966 6.298 9.894 6.688 9.816C7.078 9.738 7.468 9.66 7.858 9.582L7.903 10.257C7.369 10.383 6.832 10.509 6.292 10.635C5.752 10.761 5.272 10.872 4.852 10.968L4.681 10.203ZM7.237 7.8L7.849 7.98C7.771 8.256 7.69 8.538 7.606 8.826C7.522 9.114 7.444 9.36 7.372 9.564L6.877 9.393C6.919 9.249 6.964 9.084 7.012 8.898C7.06 8.706 7.102 8.514 7.138 8.322C7.18 8.13 7.213 7.956 7.237 7.8ZM6.04 5.496H6.742V10.311L6.04 10.428V5.496ZM6.301 2.85L6.931 3.147C6.769 3.495 6.574 3.84 6.346 4.182C6.124 4.518 5.884 4.836 5.626 5.136C5.374 5.43 5.116 5.688 4.852 5.91C4.84 5.844 4.813 5.757 4.771 5.649C4.735 5.535 4.693 5.421 4.645 5.307C4.597 5.193 4.555 5.1 4.519 5.028C4.855 4.776 5.185 4.458 5.509 4.074C5.833 3.684 6.097 3.276 6.301 2.85ZM6.076 3.912L6.4 3.282C6.622 3.408 6.841 3.549 7.057 3.705C7.279 3.855 7.483 4.008 7.669 4.164C7.861 4.314 8.023 4.455 8.155 4.587L7.786 5.298C7.66 5.154 7.501 5.001 7.309 4.839C7.117 4.671 6.916 4.509 6.706 4.353C6.496 4.191 6.286 4.044 6.076 3.912ZM8.29 3.282H12.124V4.056H8.992V11.31H8.29V3.282ZM11.98 3.282H12.7V10.383C12.7 10.599 12.676 10.767 12.628 10.887C12.58 11.007 12.493 11.103 12.367 11.175C12.235 11.241 12.061 11.283 11.845 11.301C11.635 11.319 11.38 11.328 11.08 11.328C11.074 11.256 11.056 11.172 11.026 11.076C11.002 10.98 10.975 10.884 10.945 10.788C10.915 10.692 10.879 10.608 10.837 10.536C11.053 10.548 11.254 10.554 11.44 10.554C11.626 10.554 11.752 10.554 11.818 10.554C11.878 10.554 11.92 10.539 11.944 10.509C11.968 10.485 11.98 10.44 11.98 10.374V3.282ZM9.442 4.857H11.53V5.559H9.442V4.857ZM9.559 6.36H10.09V9.618H9.559V6.36ZM9.829 6.36H11.404V9.114H9.829V8.448H10.855V7.026H9.829V6.36ZM16.84 6.513L17.434 6.306C17.536 6.498 17.629 6.705 17.713 6.927C17.803 7.149 17.881 7.365 17.947 7.575C18.019 7.779 18.067 7.962 18.091 8.124L17.452 8.376C17.428 8.214 17.383 8.028 17.317 7.818C17.257 7.602 17.185 7.38 17.101 7.152C17.017 6.924 16.93 6.711 16.84 6.513ZM15.895 8.844L16.498 8.709C16.552 8.997 16.603 9.309 16.651 9.645C16.699 9.981 16.729 10.272 16.741 10.518L16.102 10.671C16.09 10.425 16.063 10.131 16.021 9.789C15.985 9.447 15.943 9.132 15.895 8.844ZM14.896 8.763L15.571 8.871C15.529 9.267 15.469 9.663 15.391 10.059C15.319 10.455 15.235 10.791 15.139 11.067C15.067 11.031 14.962 10.989 14.824 10.941C14.692 10.893 14.581 10.857 14.491 10.833C14.593 10.563 14.674 10.242 14.734 9.87C14.8 9.498 14.854 9.129 14.896 8.763ZM14.761 6.36C14.749 6.3 14.725 6.225 14.689 6.135C14.659 6.039 14.626 5.943 14.59 5.847C14.56 5.745 14.527 5.658 14.491 5.586C14.581 5.562 14.665 5.511 14.743 5.433C14.827 5.349 14.914 5.238 15.004 5.1C15.052 5.034 15.121 4.926 15.211 4.776C15.301 4.626 15.4 4.449 15.508 4.245C15.622 4.035 15.733 3.813 15.841 3.579C15.955 3.345 16.054 3.108 16.138 2.868L16.93 3.192C16.786 3.522 16.621 3.852 16.435 4.182C16.255 4.506 16.066 4.818 15.868 5.118C15.67 5.418 15.469 5.688 15.265 5.928V5.937C15.265 5.937 15.238 5.952 15.184 5.982C15.136 6.012 15.079 6.048 15.013 6.09C14.947 6.132 14.887 6.177 14.833 6.225C14.785 6.273 14.761 6.318 14.761 6.36ZM14.761 6.351L14.743 5.748L15.112 5.514L16.678 5.388C16.66 5.49 16.642 5.607 16.624 5.739C16.612 5.871 16.603 5.982 16.597 6.072C16.249 6.108 15.964 6.141 15.742 6.171C15.52 6.195 15.343 6.219 15.211 6.243C15.085 6.261 14.989 6.279 14.923 6.297C14.857 6.315 14.803 6.333 14.761 6.351ZM14.824 8.403C14.812 8.349 14.788 8.277 14.752 8.187C14.722 8.091 14.689 7.992 14.653 7.89C14.623 7.788 14.59 7.701 14.554 7.629C14.662 7.611 14.77 7.551 14.878 7.449C14.992 7.341 15.118 7.203 15.256 7.035C15.334 6.951 15.445 6.816 15.589 6.63C15.739 6.438 15.901 6.213 16.075 5.955C16.255 5.691 16.435 5.409 16.615 5.109C16.795 4.809 16.957 4.506 17.101 4.2L17.821 4.641C17.593 5.049 17.344 5.454 17.074 5.856C16.804 6.252 16.522 6.63 16.228 6.99C15.934 7.35 15.637 7.68 15.337 7.98V7.998C15.337 7.998 15.31 8.013 15.256 8.043C15.208 8.067 15.148 8.1 15.076 8.142C15.01 8.184 14.95 8.229 14.896 8.277C14.848 8.325 14.824 8.367 14.824 8.403ZM14.824 8.403L14.788 7.782L15.157 7.53L17.551 7.188C17.533 7.29 17.521 7.407 17.515 7.539C17.515 7.671 17.518 7.779 17.524 7.863C16.978 7.953 16.537 8.028 16.201 8.088C15.871 8.142 15.613 8.19 15.427 8.232C15.247 8.268 15.115 8.301 15.031 8.331C14.947 8.355 14.878 8.379 14.824 8.403ZM16.867 8.673L17.452 8.484C17.542 8.712 17.629 8.961 17.713 9.231C17.803 9.501 17.869 9.735 17.911 9.933L17.29 10.149C17.26 9.951 17.203 9.714 17.119 9.438C17.035 9.162 16.951 8.907 16.867 8.673ZM17.929 3.309H21.187V4.11H17.929V3.309ZM20.98 3.309H21.07L21.205 3.273L21.79 3.354C21.754 3.636 21.709 3.939 21.655 4.263C21.607 4.587 21.556 4.911 21.502 5.235C21.448 5.559 21.391 5.862 21.331 6.144L20.539 6.063C20.599 5.775 20.656 5.466 20.71 5.136C20.77 4.8 20.824 4.479 20.872 4.173C20.92 3.867 20.956 3.612 20.98 3.408V3.309ZM19.108 5.874H21.961V6.63H18.973L19.108 5.874ZM21.727 5.874H21.88L22.024 5.838L22.564 6.027C22.414 6.891 22.186 7.659 21.88 8.331C21.574 8.997 21.205 9.576 20.773 10.068C20.341 10.554 19.861 10.953 19.333 11.265C19.273 11.163 19.192 11.049 19.09 10.923C18.988 10.797 18.889 10.698 18.793 10.626C19.267 10.368 19.702 10.017 20.098 9.573C20.494 9.129 20.833 8.607 21.115 8.007C21.397 7.407 21.601 6.75 21.727 6.036V5.874ZM18.757 3.624H19.594C19.582 4.458 19.555 5.241 19.513 5.973C19.477 6.705 19.411 7.389 19.315 8.025C19.219 8.655 19.078 9.237 18.892 9.771C18.712 10.299 18.475 10.779 18.181 11.211C18.133 11.163 18.064 11.103 17.974 11.031C17.884 10.965 17.788 10.896 17.686 10.824C17.59 10.758 17.509 10.707 17.443 10.671C17.833 10.167 18.121 9.564 18.307 8.862C18.493 8.154 18.613 7.359 18.667 6.477C18.727 5.595 18.757 4.644 18.757 3.624ZM19.918 6.369C20.062 6.987 20.263 7.569 20.521 8.115C20.779 8.661 21.097 9.141 21.475 9.555C21.853 9.963 22.3 10.278 22.816 10.5C22.75 10.554 22.681 10.623 22.609 10.707C22.537 10.791 22.468 10.878 22.402 10.968C22.336 11.058 22.282 11.139 22.24 11.211C21.706 10.935 21.244 10.566 20.854 10.104C20.464 9.642 20.137 9.108 19.873 8.502C19.609 7.896 19.393 7.233 19.225 6.513L19.918 6.369ZM26.047 6.045V7.305H30.727V6.045H26.047ZM25.327 5.496H31.483V7.854H25.327V5.496ZM26.83 4.524H29.998V5.1H26.83V4.524ZM28.018 5.685H28.72V7.575H28.018V5.685ZM26.497 6.288L27.091 6.099C27.193 6.255 27.286 6.426 27.37 6.612C27.46 6.798 27.52 6.96 27.55 7.098L26.92 7.314C26.89 7.17 26.836 7.002 26.758 6.81C26.68 6.618 26.593 6.444 26.497 6.288ZM29.62 6.063L30.34 6.261C30.238 6.453 30.136 6.645 30.034 6.837C29.938 7.023 29.848 7.182 29.764 7.314L29.179 7.125C29.251 6.981 29.332 6.807 29.422 6.603C29.512 6.399 29.578 6.219 29.62 6.063ZM25.849 8.223H31.042V11.22H30.169V8.799H26.686V11.256H25.849V8.223ZM26.335 9.303H30.529V9.879H26.335V9.303ZM26.335 10.392H30.538V10.977H26.335V10.392ZM28.288 2.85L29.044 3.12C28.72 3.54 28.324 3.918 27.856 4.254C27.388 4.59 26.881 4.887 26.335 5.145C25.789 5.397 25.231 5.61 24.661 5.784C24.631 5.73 24.589 5.661 24.535 5.577C24.481 5.493 24.424 5.409 24.364 5.325C24.304 5.241 24.247 5.175 24.193 5.127C24.745 4.983 25.282 4.803 25.804 4.587C26.326 4.365 26.8 4.11 27.226 3.822C27.658 3.528 28.012 3.204 28.288 2.85ZM28.819 3.201C29.023 3.405 29.269 3.603 29.557 3.795C29.851 3.981 30.169 4.155 30.511 4.317C30.859 4.479 31.219 4.623 31.591 4.749C31.969 4.875 32.341 4.98 32.707 5.064C32.617 5.136 32.518 5.238 32.41 5.37C32.308 5.502 32.227 5.619 32.167 5.721C31.801 5.619 31.429 5.493 31.051 5.343C30.673 5.187 30.307 5.013 29.953 4.821C29.605 4.623 29.278 4.41 28.972 4.182C28.672 3.954 28.405 3.717 28.171 3.471L28.819 3.201ZM36.235 3.894V4.677H40.24V3.894H36.235ZM35.38 3.219H41.14V5.352H35.38V3.219ZM35.83 7.494V8.016H40.6V7.494H35.83ZM35.83 8.583V9.123H40.6V8.583H35.83ZM35.83 6.405V6.918H40.6V6.405H35.83ZM34.984 5.793H41.482V9.726H34.984V5.793ZM36.712 9.636L37.486 10.158C37.246 10.302 36.964 10.443 36.64 10.581C36.322 10.725 35.992 10.854 35.65 10.968C35.308 11.088 34.981 11.187 34.669 11.265C34.597 11.175 34.498 11.07 34.372 10.95C34.246 10.83 34.132 10.728 34.03 10.644C34.348 10.572 34.678 10.482 35.02 10.374C35.362 10.26 35.683 10.14 35.983 10.014C36.283 9.882 36.526 9.756 36.712 9.636ZM38.809 10.221L39.556 9.672C39.874 9.756 40.207 9.858 40.555 9.978C40.909 10.098 41.248 10.218 41.572 10.338C41.902 10.458 42.187 10.569 42.427 10.671L41.68 11.274C41.452 11.166 41.173 11.049 40.843 10.923C40.519 10.797 40.177 10.671 39.817 10.545C39.463 10.419 39.127 10.311 38.809 10.221Z" fill="black"/>
</svg>
