<svg width="219" height="176" viewBox="0 0 219 176" fill="none" xmlns="http://www.w3.org/2000/svg">
<path d="M131.566 169.454H87.4338C42.4652 169.454 6 132.862 6 87.7173C6 42.5922 42.4652 6 87.4338 6H131.566C176.554 6 212.999 42.5922 212.999 87.7173C213.019 132.862 176.554 169.454 131.566 169.454Z" stroke="#3DCE94" stroke-width="12" stroke-miterlimit="10" stroke-linecap="round" stroke-linejoin="round"/>
<path d="M108.897 105.077C99.4982 105.077 93.4661 96.017 92.7461 94.865C91.5007 92.9123 92.0845 90.3154 94.0498 89.0657C96.0151 87.816 98.5836 88.4018 99.829 90.3739C100.024 90.6863 104.635 97.9306 110.531 96.4856C114.267 95.5874 117.342 91.565 118.976 88.0894C119.969 86 122.44 85.0823 124.561 86.0781C126.643 87.074 127.538 89.5734 126.565 91.6822C125.028 94.9235 120.591 102.695 112.496 104.648C111.232 104.96 110.025 105.077 108.897 105.077Z" fill="#3DCE94"/>
</svg>
