<svg width="78" height="78" viewBox="0 0 78 78" fill="none" xmlns="http://www.w3.org/2000/svg">
<g filter="url(#filter0_di_3390_1209)">
<path d="M4 38C4 18.67 19.67 3 39 3C58.33 3 74 18.67 74 38C74 57.33 58.33 73 39 73C19.67 73 4 57.33 4 38Z" fill="url(#paint0_linear_3390_1209)" fill-opacity="0.77" shape-rendering="crispEdges"/>
<path d="M39 3.5C58.0538 3.5 73.5 18.9462 73.5 38C73.5 57.0538 58.0538 72.5 39 72.5C19.9462 72.5 4.5 57.0538 4.5 38C4.5 18.9462 19.9462 3.5 39 3.5Z" stroke="white" stroke-opacity="0.03" shape-rendering="crispEdges"/>
<path d="M52.4907 43.2558C53.3253 44.1969 53.2423 45.6356 52.305 46.4743C51.3638 47.3166 49.9177 47.2353 49.0768 46.2929L39 35L28.9293 46.2941C28.0893 47.2362 26.6449 47.3198 25.7018 46.4809C24.7607 45.6438 24.6733 44.2036 25.5062 43.2589L36.7162 30.5447C37.9082 29.1927 40.0149 29.1896 41.2109 30.538L52.4907 43.2558Z" fill="white"/>
</g>
<defs>
<filter id="filter0_di_3390_1209" x="0.5" y="0.5" width="77" height="77" filterUnits="userSpaceOnUse" color-interpolation-filters="sRGB">
<feFlood flood-opacity="0" result="BackgroundImageFix"/>
<feColorMatrix in="SourceAlpha" type="matrix" values="0 0 0 0 0 0 0 0 0 0 0 0 0 0 0 0 0 0 127 0" result="hardAlpha"/>
<feOffset dy="1"/>
<feGaussianBlur stdDeviation="1.75"/>
<feComposite in2="hardAlpha" operator="out"/>
<feColorMatrix type="matrix" values="0 0 0 0 0 0 0 0 0 0 0 0 0 0 0 0 0 0 0.14 0"/>
<feBlend mode="normal" in2="BackgroundImageFix" result="effect1_dropShadow_3390_1209"/>
<feBlend mode="normal" in="SourceGraphic" in2="effect1_dropShadow_3390_1209" result="shape"/>
<feColorMatrix in="SourceAlpha" type="matrix" values="0 0 0 0 0 0 0 0 0 0 0 0 0 0 0 0 0 0 127 0" result="hardAlpha"/>
<feOffset dx="2" dy="-1"/>
<feGaussianBlur stdDeviation="1"/>
<feComposite in2="hardAlpha" operator="arithmetic" k2="-1" k3="1"/>
<feColorMatrix type="matrix" values="0 0 0 0 1 0 0 0 0 1 0 0 0 0 1 0 0 0 0.43 0"/>
<feBlend mode="normal" in2="shape" result="effect2_innerShadow_3390_1209"/>
</filter>
<linearGradient id="paint0_linear_3390_1209" x1="39" y1="3" x2="39" y2="73" gradientUnits="userSpaceOnUse">
<stop stop-color="#3DCE94"/>
<stop offset="1" stop-color="#67EBB6"/>
</linearGradient>
</defs>
</svg>
