<svg width="120" height="120" viewBox="0 0 120 120" fill="none" xmlns="http://www.w3.org/2000/svg">
<path opacity="0.5" d="M60.46 103.053C36.62 103.053 17 83.4328 17 59.5928C17 35.7528 36.62 16.1328 60.46 16.1328C51.5 30.6228 42.53 45.1028 33.57 59.5928C42.53 74.0828 51.5 88.5728 60.46 103.053Z" fill="#3DCE94"/>
<path d="M60.46 103.043C84.4623 103.043 103.92 83.5854 103.92 59.5831C103.92 35.5808 84.4623 16.123 60.46 16.123C36.4577 16.123 17 35.5808 17 59.5831C17 83.5854 36.4577 103.043 60.46 103.043Z" stroke="#2A2324" stroke-width="7" stroke-miterlimit="10" stroke-linecap="round" stroke-linejoin="round"/>
<path d="M80.1101 59.583H36.8101" stroke="#2A2324" stroke-width="7" stroke-miterlimit="10" stroke-linecap="round" stroke-linejoin="round"/>
<path d="M80.11 59.5829L59.54 40.5029" stroke="#2A2324" stroke-width="7" stroke-miterlimit="10" stroke-linecap="round" stroke-linejoin="round"/>
<path d="M80.11 59.583L59.54 78.663" stroke="#2A2324" stroke-width="7" stroke-miterlimit="10" stroke-linecap="round" stroke-linejoin="round"/>
</svg>
