<svg width="120" height="120" viewBox="0 0 120 120" fill="none" xmlns="http://www.w3.org/2000/svg">
<g opacity="0.5">
<path d="M99.7201 10.7363C100.78 10.7363 101.83 10.7363 102.89 10.7363C106.45 11.7663 108.57 14.1062 109.23 17.7562C109.23 18.2862 109.23 18.8163 109.23 19.3463C108.89 21.6963 107.69 23.5262 105.98 25.1462C103.68 27.3262 101.48 29.6163 99.2401 31.8563C98.0801 33.0163 98.0801 33.0163 98.9501 34.3663C104.92 43.5463 107.45 53.6262 106.53 64.5162C105.85 72.4462 103.27 79.7563 98.8301 86.3763C98.2201 87.2963 98.3001 87.8263 99.0701 88.5663C101.38 90.7863 103.58 93.1263 105.91 95.3463C107.61 96.9563 108.82 98.7963 109.23 101.116C109.23 101.646 109.23 102.176 109.23 102.706C108.56 106.736 106.21 109.156 102.21 109.956C101.53 109.956 100.85 109.956 100.17 109.956C97.9701 109.536 96.2401 108.366 94.7001 106.766C92.5401 104.506 90.2901 102.326 88.0701 100.116C86.7901 98.8363 86.8001 98.8563 85.3001 99.8263C76.0001 105.826 65.8101 108.306 54.8101 107.246C47.0201 106.496 39.8301 103.906 33.3301 99.5062C32.4901 98.9362 32.0001 99.0363 31.3301 99.7363C29.0201 102.116 26.6101 104.406 24.3201 106.806C22.7901 108.416 21.0501 109.566 18.8401 109.956C18.1601 109.956 17.4801 109.956 16.8001 109.956C13.3201 109.266 11.0801 107.206 10.0001 103.836C10.0001 102.626 10.0001 101.416 10.0001 100.216C10.5501 98.3563 11.6201 96.8462 13.0001 95.5062C15.3301 93.2462 17.5701 90.8862 19.9101 88.6462C20.7601 87.8362 20.8201 87.2462 20.1601 86.2562C15.5701 79.3962 13.0001 71.8063 12.4701 63.5863C11.7801 52.8463 14.3801 42.9363 20.4001 33.9663C20.8801 33.2563 20.8401 32.8363 20.2301 32.2463C17.8801 29.9563 15.6101 27.5863 13.2401 25.3063C11.8001 23.9163 10.6101 22.4063 10.0001 20.4763C10.0001 19.2663 10.0001 18.0563 10.0001 16.8563C10.9101 13.6863 12.9801 11.6863 16.1201 10.7363C17.2501 10.7363 18.3901 10.7363 19.5201 10.7363C21.4501 11.3063 23.0201 12.4063 24.4101 13.8563C26.7101 16.2463 29.1201 18.5363 31.4201 20.9263C32.0901 21.6163 32.5401 21.6163 33.3201 21.0963C40.3501 16.3463 48.1501 13.7163 56.6001 13.2163C67.1201 12.5963 76.8601 15.1763 85.6501 21.0563C86.5301 21.6463 87.0301 21.5463 87.7301 20.8163C90.0301 18.4263 92.4301 16.1262 94.7501 13.7562C96.1701 12.3062 97.7401 11.2063 99.7201 10.7363Z" fill="#3DCE94"/>
</g>
</svg>
