<svg width="120" height="120" viewBox="0 0 120 120" fill="none" xmlns="http://www.w3.org/2000/svg">
<g clip-path="url(#clip0_1859_509)">
<g opacity="0.5">
<path d="M60.7201 120.616C60.0801 120.616 59.4301 120.616 58.7901 120.616C53.8501 119.396 52.3902 115.876 52.5302 112.026C52.6402 109.136 52.5302 106.236 52.5602 103.336C52.5701 102.396 52.2901 101.936 51.2901 101.746C45.7501 100.656 40.6301 98.5263 35.9601 95.3463C35.2701 94.8763 34.8401 94.8763 34.2401 95.4963C31.9201 97.8763 29.5401 100.206 27.2001 102.566C25.2501 104.526 22.9001 105.236 20.2301 104.656C17.5301 104.076 15.7301 102.356 14.9301 99.7263C14.1201 97.0463 14.7001 94.6063 16.6401 92.5863C19.0501 90.0863 21.5202 87.6563 24.0002 85.2263C24.5702 84.6663 24.6102 84.2364 24.1602 83.5664C20.9302 78.8064 18.7601 73.5864 17.6801 67.9264C17.5301 67.1164 17.1602 66.8064 16.3102 66.8164C12.9102 66.8564 9.52015 66.8364 6.12015 66.8264C5.59015 66.8264 5.04014 66.8064 4.52014 66.6864C1.45014 65.9564 -0.289844 63.9064 -1.08984 60.9564C-1.08984 60.0264 -1.08984 59.0964 -1.08984 58.1664C0.570156 53.7864 2.69015 52.3264 7.40015 52.3164C10.3301 52.3164 13.2602 52.2863 16.1902 52.3363C17.1202 52.3563 17.5401 52.0363 17.7101 51.1263C18.7801 45.5763 20.9201 40.4664 24.0801 35.7964C24.6201 34.9964 24.5001 34.5164 23.8601 33.8864C21.5101 31.5964 19.1902 29.2564 16.8802 26.9264C13.8902 23.9164 13.8201 19.4464 16.7001 16.5464C19.6401 13.5764 24.0901 13.6264 27.1401 16.6664C29.4701 18.9864 31.8101 21.2964 34.1001 23.6564C34.7301 24.2964 35.1902 24.4464 36.0002 23.8964C40.6602 20.7164 45.7901 18.5964 51.3301 17.5264C52.2201 17.3564 52.5901 16.9664 52.5701 16.0264C52.5201 13.0264 52.5501 10.0264 52.5501 7.01636C52.5501 2.46636 54.0801 0.286328 58.3501 -1.26367C59.3501 -1.26367 60.3501 -1.26367 61.3501 -1.26367C61.4801 -1.21367 61.6102 -1.15364 61.7502 -1.10364C64.9002 -0.0336376 66.7701 2.07642 67.0401 5.45642C67.3201 8.95642 67.1202 12.4564 67.1402 15.9564C67.1402 16.9264 67.4701 17.3564 68.4201 17.5464C73.9301 18.6064 79.0001 20.7463 83.6501 23.8763C84.4301 24.3963 84.8901 24.3764 85.5501 23.6964C87.9101 21.2564 90.3002 18.8463 92.7502 16.4963C94.9302 14.3963 97.5302 13.8263 100.37 14.8763C105.39 16.7363 106.66 22.9664 102.84 26.9364C100.56 29.3064 98.2201 31.6164 95.8601 33.9064C95.1601 34.5864 95.1001 35.0864 95.6501 35.9064C98.7801 40.5564 100.87 45.6564 101.96 51.1464C102.14 52.0764 102.56 52.3763 103.48 52.3663C106.52 52.3263 109.55 52.3463 112.59 52.3563C117.15 52.3563 119.59 54.2263 120.8 58.6263C120.8 59.3463 120.8 60.0564 120.8 60.7764C119.47 65.2264 117.26 66.8663 112.6 66.8663C109.53 66.8663 106.45 66.8863 103.38 66.8463C102.54 66.8363 102.15 67.1464 102 67.9564C100.93 73.6164 98.7502 78.8263 95.5202 83.5963C95.0302 84.3163 95.1301 84.7264 95.7201 85.3064C98.1001 87.6264 100.44 89.9863 102.79 92.3463C105.75 95.3163 105.84 99.8763 103.01 102.746C100.15 105.646 95.5301 105.586 92.5301 102.616C90.2001 100.296 87.8602 97.9863 85.5602 95.6263C84.9302 94.9763 84.4701 94.8664 83.6701 95.4064C79.0301 98.5564 73.9402 100.666 68.4402 101.766C67.4702 101.956 67.1302 102.376 67.1402 103.336C67.1802 106.336 67.1601 109.346 67.1501 112.346C67.1401 113.526 67.0801 114.706 66.6601 115.826C65.6401 118.566 63.5501 120.056 60.7201 120.616Z" fill="#3DCE94"/>
</g>
</g>
<defs>
<clipPath id="clip0_1859_509">
<rect width="120" height="120" fill="white"/>
</clipPath>
</defs>
</svg>
