<svg width="120" height="120" viewBox="0 0 120 120" fill="none" xmlns="http://www.w3.org/2000/svg">
<path opacity="0.5" d="M41.4409 53.887C39.0409 53.157 37.0909 53.167 35.8609 53.277C30.4609 53.767 24.2809 57.497 23.6009 62.577C23.5709 62.777 23.5509 62.9771 23.5409 63.1771C23.0309 69.7571 22.5309 76.3371 22.0209 82.9171C21.7109 86.9171 24.8909 90.327 28.9209 90.327H33.8409C35.0209 90.327 36.1909 90.327 37.3709 90.327C37.0509 84.887 37.0709 78.3271 37.9609 70.9871C38.7409 64.4371 40.0409 58.697 41.4409 53.887Z" fill="#3DCE94"/>
<path d="M87.9409 53.017H78.7609C77.8609 53.017 77.2809 52.057 77.7209 51.267L81.5309 44.3071C83.4209 40.8571 84.4009 36.9871 84.3909 33.0571C84.3709 29.0271 83.5409 25.597 82.5309 22.877C81.7909 20.877 79.0009 20.737 78.0409 22.647C75.8709 26.947 72.9809 31.867 69.1509 36.987C65.1409 42.357 60.8309 46.957 54.5409 52.637C54.5309 52.647 54.5209 52.657 54.5109 52.667C52.8509 54.167 50.6109 54.887 48.3709 54.637C44.2009 54.177 40.0309 53.727 35.8609 53.267C29.9309 52.617 24.3909 56.687 23.6009 62.567C23.5709 62.767 23.5509 62.967 23.5409 63.167C23.0309 69.747 22.5309 76.327 22.0209 82.907C21.7109 86.907 24.8909 90.317 28.9209 90.317H33.8409H44.2109C45.8409 90.527 48.0609 91.0971 49.9309 92.7471C51.1409 93.8171 51.3909 94.617 52.4809 95.717C53.6309 96.867 55.5609 98.197 58.9809 98.777H75.3909H84.5709C90.2109 98.777 95.1209 94.2271 95.5309 88.6171L97.4109 63.167C97.8109 57.567 93.5809 53.017 87.9409 53.017Z" stroke="#2A2324" stroke-width="7" stroke-miterlimit="10" stroke-linecap="round" stroke-linejoin="round"/>
<path d="M41.4409 53.8872C39.6809 59.2272 37.9609 65.9972 37.1309 73.9472C36.4909 80.1172 36.5208 85.6472 36.8408 90.3172" stroke="#2A2324" stroke-width="7" stroke-miterlimit="10" stroke-linecap="round" stroke-linejoin="round"/>
</svg>
