<svg width="120" height="120" viewBox="0 0 120 120" fill="none" xmlns="http://www.w3.org/2000/svg">
<path opacity="0.5" d="M59.9525 26.8766C49.4425 16.3666 32.3925 16.3666 21.8825 26.8766C11.3725 37.3866 11.3725 54.4366 21.8825 64.9466L59.9525 103.017L98.0225 64.9466C108.533 54.4366 108.533 37.3866 98.0225 26.8766C87.5125 16.3666 70.4625 16.3666 59.9525 26.8766Z" fill="#3DCE94"/>
<path d="M59.9525 26.8766C49.4425 16.3666 32.3925 16.3666 21.8825 26.8766C11.3725 37.3866 11.3725 54.4366 21.8825 64.9466L59.9525 103.017L98.0225 64.9466C108.533 54.4366 108.533 37.3866 98.0225 26.8766C87.5125 16.3666 70.4625 16.3666 59.9525 26.8766Z" stroke="#2A2324" stroke-width="7" stroke-miterlimit="10" stroke-linecap="round" stroke-linejoin="round"/>
</svg>
