<svg width="120" height="120" viewBox="0 0 120 120" fill="none" xmlns="http://www.w3.org/2000/svg">
<path opacity="0.5" d="M60.4402 88.0625C71.8891 88.0625 81.1702 78.7814 81.1702 67.3325C81.1702 55.8837 71.8891 46.6025 60.4402 46.6025C48.9913 46.6025 39.7102 55.8837 39.7102 67.3325C39.7102 78.7814 48.9913 88.0625 60.4402 88.0625Z" fill="#3DCE94"/>
<path d="M93.3401 51.4424C90.5001 43.3724 82.8401 37.5825 73.8001 37.5825C70.4201 37.5825 67.2301 38.4125 64.4101 39.8425C61.2401 32.4625 53.9101 27.2925 45.3601 27.2925C33.9101 27.2925 24.6301 36.5725 24.6301 48.0225C24.6301 49.2525 24.7601 50.4524 24.9601 51.6324C14.8301 52.9924 7.00012 61.6525 7.00012 72.1525C7.00012 83.6025 16.2801 92.8824 27.7301 92.8824C49.5301 92.8824 71.3301 92.8824 93.1301 92.8824C104.58 92.8824 113.86 83.6025 113.86 72.1525C113.87 60.7725 104.69 51.5424 93.3401 51.4424Z" stroke="#2A2324" stroke-width="7" stroke-miterlimit="10" stroke-linecap="round" stroke-linejoin="round"/>
<path d="M60.4402 79.2924V56.4023" stroke="#2A2324" stroke-width="7" stroke-miterlimit="10" stroke-linecap="round" stroke-linejoin="round"/>
<path d="M60.4402 79.2921L71.1102 68.4121" stroke="#2A2324" stroke-width="7" stroke-miterlimit="10" stroke-linecap="round" stroke-linejoin="round"/>
<path d="M60.4401 79.2921L49.7701 68.4121" stroke="#2A2324" stroke-width="7" stroke-miterlimit="10" stroke-linecap="round" stroke-linejoin="round"/>
</svg>
