<svg width="101" height="101" viewBox="0 0 101 101" fill="none" xmlns="http://www.w3.org/2000/svg">
<path opacity="0.5" d="M42.4652 72.1266C35.8252 74.2366 29.1852 76.3467 22.5452 78.4567C24.6552 71.8267 26.7752 65.1866 28.8852 58.5566C33.4252 63.0766 37.9452 67.5966 42.4652 72.1266Z" fill="#3DCE94"/>
<path opacity="0.5" d="M73.8852 13.5565C74.9652 11.8465 77.0752 9.00649 80.6752 6.76649C82.8652 5.39649 84.9552 4.09649 87.6752 4.26649C92.1052 4.52649 96.9052 8.57648 97.0252 13.6265C97.1152 17.1165 94.9252 19.6166 94.2452 20.3466L87.4552 27.1365C82.9352 22.6065 78.4052 18.0865 73.8852 13.5565Z" fill="#3DCE94"/>
<path d="M28.8952 58.5466C43.8952 43.5466 58.8852 28.5566 73.8852 13.5566L28.8952 58.5466Z" fill="#3DCE94" fill-opacity="0.5"/>
<path d="M42.4652 72.1266C35.8252 74.2366 29.1852 76.3467 22.5452 78.4567C24.6552 71.8267 26.7752 65.1867 28.8852 58.5567C46.1452 41.2967 63.4052 24.0366 80.6652 6.77664C84.3752 3.06664 90.3952 3.06664 94.1052 6.77664L94.2452 6.91666C97.9552 10.6267 97.9552 16.6467 94.2452 20.3567L42.4652 72.1266Z" stroke="#2A2324" stroke-width="7" stroke-miterlimit="10" stroke-linecap="round" stroke-linejoin="round"/>
<path d="M48.6452 7.67676H23.7952C12.8452 7.67676 3.9552 16.5567 3.9552 27.5167V52.3668" stroke="#2A2324" stroke-width="7" stroke-miterlimit="10" stroke-linecap="round" stroke-linejoin="round"/>
<path d="M3.9552 52.3667V77.2167C3.9552 88.1667 12.8352 97.0566 23.7952 97.0566H48.6452" stroke="#2A2324" stroke-width="7" stroke-miterlimit="10" stroke-linecap="round" stroke-linejoin="round"/>
<path d="M48.6452 97.0566H73.4952C84.4552 97.0566 93.3352 88.1767 93.3352 77.2167V52.3667" stroke="#2A2324" stroke-width="7" stroke-miterlimit="10" stroke-linecap="round" stroke-linejoin="round"/>
<path d="M73.8852 13.5566L87.4552 27.1366" stroke="#2A2324" stroke-width="7" stroke-miterlimit="10" stroke-linecap="round" stroke-linejoin="round"/>
</svg>
