<svg width="121" height="120" viewBox="0 0 121 120" fill="none" xmlns="http://www.w3.org/2000/svg">
<path d="M71.9951 101.609H49.315C26.195 101.609 7.46503 82.8691 7.46503 59.7591C7.46503 36.6391 26.205 17.9091 49.315 17.9091H71.9951C95.1151 17.9091 113.845 36.6491 113.845 59.7591C113.855 82.8691 95.1151 101.609 71.9951 101.609Z" fill="#98E1C4"/>
<path d="M79.825 59.729H41.475" stroke="#2A2324" stroke-width="7" stroke-miterlimit="10" stroke-linecap="round" stroke-linejoin="round"/>
<path d="M71.9851 101.589H49.3051C26.1851 101.589 7.45508 82.8492 7.45508 59.7392C7.45508 36.6192 26.1951 17.8892 49.3051 17.8892H71.9851C95.1051 17.8892 113.835 36.6292 113.835 59.7392C113.845 82.8492 95.1051 101.589 71.9851 101.589Z" stroke="#2A2324" stroke-width="7" stroke-miterlimit="10" stroke-linecap="round" stroke-linejoin="round"/>
</svg>
