<svg width="120" height="120" viewBox="0 0 120 120" fill="none" xmlns="http://www.w3.org/2000/svg">
<path opacity="0.5" d="M111.845 42.8986C111.845 31.9486 102.965 23.0586 92.0051 23.0586H78.5051H42.2951H28.7951C17.8451 23.0586 8.95508 31.9386 8.95508 42.8986V44.9386H111.835V42.8986H111.845Z" fill="#3DCE94"/>
<path d="M92.0151 23.0684H78.5151H42.3051H28.8051C17.8551 23.0684 8.96509 31.9483 8.96509 42.9083V52.6183V67.6183V77.6083C8.96509 88.5683 17.8451 97.4484 28.8051 97.4484H42.3051H78.5151H92.0151C102.975 97.4484 111.855 88.5683 111.855 77.6083V67.7683V52.7683V42.8983C111.845 31.9483 102.965 23.0684 92.0151 23.0684Z" stroke="#2A2324" stroke-width="7" stroke-miterlimit="10"/>
<path d="M48.9751 81.9683H29.7951" stroke="#2A2324" stroke-width="7" stroke-miterlimit="10" stroke-linecap="round" stroke-linejoin="round"/>
<path d="M68.1551 63.5386H29.7951" stroke="#2A2324" stroke-width="7" stroke-miterlimit="10" stroke-linecap="round" stroke-linejoin="round"/>
<path d="M8.9751 44.9385H111.845" stroke="#2A2324" stroke-width="7" stroke-miterlimit="10" stroke-linecap="round" stroke-linejoin="round"/>
</svg>
