<svg width="120" height="120" viewBox="0 0 120 120" fill="none" xmlns="http://www.w3.org/2000/svg">
<path opacity="0.5" d="M66.3252 15.0586C68.2552 19.1586 70.4652 24.9686 71.6052 32.2086C72.0952 35.3086 72.3152 38.2086 72.3652 40.8386C72.4352 44.3686 75.2152 47.2686 78.7552 47.3486C81.0652 47.4086 83.5552 47.5885 86.1852 47.9485C93.9252 49.0185 100.175 51.2986 104.615 53.3286C104.605 32.1886 87.4652 15.0586 66.3252 15.0586Z" fill="#3DCE94"/>
<path d="M66.3251 15.0586C68.2551 19.1586 70.4651 24.9686 71.6051 32.2086C72.0951 35.3086 72.3151 38.2086 72.3651 40.8386C72.4351 44.3686 75.2151 47.2686 78.7551 47.3486C81.0651 47.4086 83.5551 47.5885 86.1851 47.9485C93.9251 49.0185 100.175 51.2986 104.615 53.3286C104.605 32.1886 87.4651 15.0586 66.3251 15.0586Z" stroke="#2A2324" stroke-width="7" stroke-miterlimit="10"/>
<path d="M66.3251 15.0586C64.2451 15.0586 62.1651 15.0586 60.0951 15.0586C51.7551 15.0586 43.4051 15.0586 35.0651 15.0586C33.7451 15.0586 26.7151 15.1886 21.0351 20.8686C17.4451 24.4586 15.2251 29.4186 15.2251 34.8986V84.6086C15.2251 95.5586 24.1051 104.449 35.0651 104.449H84.7751C95.7251 104.449 104.615 95.5686 104.615 84.6086V59.2086C104.615 57.6986 104.615 56.1886 104.615 54.6786" stroke="#2A2324" stroke-width="7" stroke-miterlimit="10"/>
<path d="M59.9151 65.4688H40.7351" stroke="#2A2324" stroke-width="7" stroke-miterlimit="10" stroke-linecap="round" stroke-linejoin="round"/>
<path d="M79.0951 83.8887H40.7351" stroke="#2A2324" stroke-width="7" stroke-miterlimit="10" stroke-linecap="round" stroke-linejoin="round"/>
</svg>
