<svg width="120" height="120" viewBox="0 0 120 120" fill="none" xmlns="http://www.w3.org/2000/svg">
<path opacity="0.5" d="M72.7263 51.1689V74.6289C71.6063 75.2989 67.2263 77.7589 60.6163 77.7589C54.0163 77.7589 49.6263 75.2989 48.5063 74.6289C48.5063 66.8089 48.5063 58.9889 48.5063 51.1689C56.5863 51.1689 64.6563 51.1689 72.7263 51.1689Z" fill="#3DCE94"/>
<path d="M98.9663 102.439C73.3063 102.439 47.6463 102.439 21.9763 102.439C20.3663 102.439 18.8163 100.679 18.8663 98.8893C19.3463 79.9493 20.9063 60.9093 23.4763 42.1393C23.6463 40.8793 24.8263 39.9893 26.3063 39.9893C49.0863 39.9893 71.8563 39.9893 94.6363 39.9893C96.1163 39.9893 97.2963 40.8793 97.4663 42.1393C100.046 60.9093 101.596 79.9493 102.076 98.8893C102.126 100.679 100.576 102.439 98.9663 102.439Z" stroke="#2A2324" stroke-width="7" stroke-miterlimit="10" stroke-linecap="round" stroke-linejoin="round"/>
<path d="M48.5163 39.9992V27.9392C48.5163 21.8392 53.9363 16.8892 60.6263 16.8892C67.3163 16.8892 72.7363 21.8392 72.7363 27.9392V40.0092" stroke="#2A2324" stroke-width="7" stroke-miterlimit="10" stroke-linecap="round" stroke-linejoin="round"/>
<path d="M48.5163 54.6489V66.7189C48.5163 72.8189 53.9363 77.7689 60.6263 77.7689C67.3163 77.7689 72.7363 72.8189 72.7363 66.7189V54.6489" stroke="#2A2324" stroke-width="7" stroke-miterlimit="10" stroke-linecap="round" stroke-linejoin="round"/>
</svg>
