<svg width="1342" height="1024" viewBox="0 0 1342 1024" fill="none" xmlns="http://www.w3.org/2000/svg">
<g clip-path="url(#clip0_5199_12068)">
<path d="M972.922 399.431L169 867.129L388.777 996L1171.01 535.542C1176.79 511.216 1168.6 498.377 1163.78 494.998C1115.58 466.487 1015.72 407.457 1001.84 399.431C987.959 391.406 976.778 396.087 972.922 399.431Z" fill="#F4EFEF" stroke="black" stroke-linejoin="round"/>
<path d="M759 554C775.24 560.859 843.1 600.858 875 620" stroke="black"/>
<path d="M249 850.715C265.24 857.678 333.1 898.283 365 917.715" stroke="black"/>
<path d="M844 504C860.24 510.963 928.1 551.568 960 571" stroke="black"/>
<path d="M334 801.57C350.24 808.429 418.1 848.428 450 867.57" stroke="black"/>
<path d="M929 455C945.24 461.859 1013.1 501.858 1045 521" stroke="black"/>
<path d="M419 752.428C435.24 759.287 503.1 799.286 535 818.428" stroke="black"/>
<path d="M504 703.285C520.24 710.144 588.1 750.143 620 769.285" stroke="black"/>
<path d="M589 653.143C605.38 660.105 673.825 700.711 706 720.143" stroke="black"/>
<path d="M675 603C691.1 609.963 758.375 650.568 790 670" stroke="black"/>
<path d="M341.037 967.974L1163 497" stroke="black"/>
<ellipse cx="535.093" cy="883.231" rx="17.7269" ry="12.8657" transform="rotate(-54.8943 535.093 883.231)" fill="#8FE3C1"/>
<ellipse cx="826.042" cy="715.487" rx="17.7269" ry="12.8657" transform="rotate(-54.8943 826.042 715.487)" fill="#8FE3C1"/>
<ellipse cx="973.554" cy="631.608" rx="17.7269" ry="12.8657" transform="rotate(-54.8943 973.554 631.608)" fill="#8FE3C1"/>
<ellipse cx="1118.17" cy="547.729" rx="17.7269" ry="12.8657" transform="rotate(-54.8943 1118.17 547.729)" fill="#8FE3C1"/>
<ellipse cx="681.423" cy="799.365" rx="17.7269" ry="12.8657" transform="rotate(-54.8943 681.423 799.365)" fill="#8FE3C1"/>
<path d="M413.143 861.336C409.775 874.738 401.848 886.934 389.15 892.973C376.579 898.953 361.599 898.301 348.566 894.378C346.999 893.916 346.213 893.692 344.637 893.257C331.48 889.579 318.477 882.433 310.905 870.647C304.357 860.452 303.127 847.992 305.767 836.333L416.283 848.605C415.236 852.851 414.189 857.093 413.143 861.336Z" fill="url(#paint0_linear_5199_12068)"/>
<path d="M416.111 848.726C415.405 855.098 390.132 857.527 359.666 854.151C329.201 850.773 305.074 842.871 305.78 836.497C306.486 830.125 331.758 827.696 362.225 831.071C392.691 834.447 416.817 842.352 416.111 848.726Z" fill="url(#paint1_linear_5199_12068)"/>
<path d="M325.675 846.394C310.697 842.12 307.002 838.261 307.18 836.652C307.367 834.973 311.616 832.622 322.979 831.531C333.547 830.516 347.428 830.851 362.072 832.473C374.581 833.861 386.707 836.117 396.218 838.831C411.196 843.105 414.892 846.964 414.713 848.573C414.526 850.252 410.277 852.603 398.914 853.694C388.346 854.709 374.465 854.374 359.821 852.752C347.312 851.364 335.183 849.107 325.675 846.394Z" fill="url(#paint2_radial_5199_12068)"/>
<path d="M352.994 838.135C352.126 838.417 348.305 839.65 348.313 841.246C348.329 844.679 366.053 847.373 372.533 845.013C373.278 844.74 375.235 844.029 375.238 842.983C375.241 842.193 374.126 841.55 373.298 841.117C367.814 838.261 361.488 837.805 359.166 837.686C355.65 837.507 354.255 837.729 352.994 838.135Z" fill="#FFE6CC"/>
<path d="M341.631 838.855C342.12 838.331 345.23 839.857 345.107 840.288C345 840.663 342.318 840.704 341.699 839.524C341.671 839.469 341.452 839.049 341.631 838.855Z" fill="#063B01"/>
<path d="M360.957 850.432C361.202 850.841 361.826 851.147 362.266 850.998C363.276 850.652 363.244 847.889 362.639 847.684C362.063 847.49 360.332 849.389 360.957 850.432Z" fill="#063B01"/>
<path d="M347.366 846.379C347.393 846.759 348.883 847.29 350.155 846.818C351.025 846.493 351.815 845.694 351.64 845.385C351.302 844.792 347.321 845.746 347.366 846.379Z" fill="#063B01"/>
<path d="M376.736 849.737C375.429 850.035 373.584 847.783 373.882 847.354C374.08 847.068 375.257 847.557 376.577 848.108C377.301 848.41 377.564 848.587 377.601 848.827C377.664 849.195 377.197 849.631 376.736 849.737Z" fill="#063B01"/>
<path d="M362.165 835.545C361.909 835.253 360.741 835.386 360.582 835.79C360.547 835.874 360.59 836.015 360.675 836.294C360.816 836.757 360.886 836.985 360.989 837.022C361.375 837.15 362.504 835.93 362.165 835.545Z" fill="#063B01"/>
<path d="M351.56 835.264C350.957 835.099 350.275 835.357 350.257 835.611C350.232 836.056 352.28 836.79 352.539 836.444C352.699 836.231 352.294 835.463 351.56 835.264Z" fill="#063B01"/>
<path d="M380.463 841.532C380.55 841.254 379.597 840.5 378.533 840.525C377.802 840.543 377 840.923 377.042 841.186C377.126 841.696 380.323 841.999 380.463 841.532Z" fill="#063B01"/>
<path d="M345.903 836.528C345.861 836.268 346.336 835.919 346.804 835.852C347.981 835.688 349.211 837.308 349.025 837.565C348.983 837.622 348.884 837.587 347.435 837.155C346.209 836.787 345.931 836.711 345.903 836.528Z" fill="#A2C71E"/>
<path d="M370.295 836.879C370.777 836.52 371.521 836.521 371.645 836.75C371.866 837.152 370.308 838.535 369.915 838.302C369.673 838.164 369.707 837.316 370.295 836.879Z" fill="#063B01"/>
<path d="M377.424 838.571C377.485 838.318 377.037 837.909 376.572 837.787C375.408 837.481 374.074 838.949 374.239 839.226C374.276 839.288 374.378 839.262 375.852 839.008C377.099 838.791 377.381 838.748 377.424 838.571Z" fill="#A2C71E"/>
<path d="M353.308 848.453C353.476 848.975 355.132 849.36 356.118 848.664C357.055 848.001 357.175 846.519 356.729 846.231C356.47 846.062 356.025 846.307 355.343 846.678C354.642 847.061 353.129 847.892 353.308 848.453Z" fill="#A2C71E"/>
<path d="M343.282 842.901C343.169 843.157 343.391 843.49 343.569 843.658C344.526 844.547 347.201 843.443 347.133 842.99C347.064 842.492 343.633 842.104 343.282 842.901Z" fill="#A2C71E"/>
<path d="M367.087 836.321C366.998 836.081 366.507 835.835 366.148 835.841C365.248 835.862 365.129 837.495 365.377 837.697C365.434 837.742 365.484 837.695 366.303 837.1C366.99 836.596 367.148 836.488 367.087 836.321Z" fill="#A2C71E"/>
<path d="M369.931 850.197C369.775 850.602 368.564 850.767 367.806 850.244C366.874 849.599 366.873 848.078 367.287 847.882C367.531 847.766 367.939 848.101 368.633 848.674C369.408 849.308 370.063 849.848 369.931 850.197Z" fill="#A2C71E"/>
<path d="M356.714 835.008C356.426 834.904 355.917 834.835 355.774 835.042C355.512 835.423 356.498 836.737 357.025 836.628C357.323 836.567 357.542 836.043 357.398 835.615C357.252 835.205 356.827 835.047 356.714 835.008Z" fill="#A2C71E"/>
<path d="M380.663 844.146C380.803 844.397 380.614 844.737 380.452 844.91C379.591 845.831 376.804 844.821 376.826 844.364C376.843 843.869 380.23 843.362 380.663 844.146Z" fill="#A2C71E"/>
<path d="M362.505 817.923C332.336 814.152 307.234 816.257 306.442 822.618C306.411 822.861 306.422 823.11 306.464 823.361C306.673 826.076 306.882 828.795 307.091 831.51C307.357 834.981 309.49 838.034 312.663 839.47C324.007 844.596 340.143 850.301 360.137 852.679C379.204 854.946 395.576 853.451 407.685 851.287C412.103 850.499 415.358 846.707 415.494 842.222C415.554 840.278 415.614 838.337 415.67 836.393C415.679 836.351 415.687 836.308 415.692 836.266C416.484 829.902 392.674 821.689 362.505 817.923Z" fill="url(#paint3_linear_5199_12068)"/>
<path d="M394.712 841.498C410.274 840.825 414.765 837.93 414.966 836.324C415.174 834.648 411.588 831.373 400.79 827.67C390.748 824.225 377.17 821.324 362.549 819.496C350.061 817.937 337.743 817.312 327.861 817.739C312.3 818.413 307.808 821.307 307.608 822.913C307.399 824.59 310.985 827.865 321.783 831.568C331.825 835.012 345.404 837.914 360.024 839.742C372.512 841.301 384.83 841.926 394.712 841.498Z" fill="url(#paint4_radial_5199_12068)"/>
<path d="M370.059 827.115C370.837 827.591 374.267 829.679 373.888 831.229C373.074 834.564 355.21 833.063 349.456 829.261C348.795 828.822 347.056 827.676 347.297 826.658C347.477 825.888 348.711 825.522 349.618 825.294C355.616 823.791 361.874 824.819 364.16 825.243C367.622 825.887 368.926 826.427 370.059 827.115Z" fill="#FFE6CC"/>
<path d="M380.945 830.457C380.591 829.833 377.212 830.594 377.231 831.042C377.248 831.431 379.847 832.095 380.723 831.091C380.763 831.044 381.074 830.686 380.945 830.457Z" fill="#063B01"/>
<path d="M359.455 837.223C359.122 837.564 358.441 837.716 358.051 837.469C357.149 836.898 357.822 834.218 358.459 834.159C359.067 834.104 360.306 836.354 359.455 837.223Z" fill="#063B01"/>
<path d="M373.619 836.441C373.504 836.804 371.932 836.974 370.804 836.219C370.034 835.701 369.451 834.74 369.693 834.48C370.159 833.982 373.81 835.836 373.619 836.441Z" fill="#063B01"/>
<path d="M344.268 832.876C345.47 833.47 347.788 831.709 347.598 831.222C347.472 830.898 346.213 831.1 344.802 831.329C344.028 831.454 343.73 831.565 343.638 831.79C343.495 832.133 343.845 832.666 344.268 832.876Z" fill="#063B01"/>
<path d="M361.739 822.462C362.056 822.238 363.161 822.639 363.222 823.068C363.236 823.159 363.161 823.285 363.014 823.537C362.769 823.955 362.648 824.16 362.54 824.172C362.137 824.207 361.32 822.757 361.739 822.462Z" fill="#063B01"/>
<path d="M372.125 824.656C372.749 824.636 373.353 825.045 373.311 825.296C373.232 825.735 371.069 825.972 370.898 825.576C370.789 825.332 371.364 824.678 372.125 824.656Z" fill="#063B01"/>
<path d="M342.551 824.03C342.531 823.74 343.633 823.228 344.662 823.5C345.369 823.687 346.06 824.243 345.959 824.49C345.762 824.965 342.583 824.517 342.551 824.03Z" fill="#063B01"/>
<path d="M377.332 827.201C377.434 826.958 377.053 826.508 376.613 826.334C375.506 825.901 373.933 827.19 374.055 827.484C374.082 827.549 374.187 827.538 375.697 827.455C376.971 827.382 377.259 827.373 377.332 827.201Z" fill="#A2C71E"/>
<path d="M353.527 821.87C353.142 821.41 352.418 821.237 352.244 821.431C351.936 821.771 353.13 823.478 353.566 823.343C353.83 823.265 353.997 822.433 353.527 821.87Z" fill="#063B01"/>
<path d="M346.201 821.857C346.2 821.597 346.731 821.304 347.212 821.293C348.415 821.266 349.371 823.004 349.146 823.235C349.096 823.287 349.002 823.238 347.628 822.648C346.462 822.147 346.198 822.039 346.201 821.857Z" fill="#A2C71E"/>
<path d="M367.354 837.076C367.069 837.545 365.37 837.534 364.572 836.628C363.815 835.769 364.043 834.295 364.544 834.119C364.835 834.015 365.211 834.357 365.788 834.876C366.384 835.412 367.663 836.571 367.354 837.076Z" fill="#A2C71E"/>
<path d="M378.396 834.007C378.447 834.282 378.153 834.555 377.941 834.677C376.803 835.319 374.458 833.623 374.63 833.198C374.813 832.73 378.24 833.15 378.396 834.007Z" fill="#A2C71E"/>
<path d="M356.776 822.074C356.917 821.86 357.453 821.736 357.801 821.826C358.671 822.055 358.407 823.671 358.118 823.81C358.053 823.841 358.015 823.782 357.357 823.014C356.806 822.364 356.677 822.222 356.776 822.074Z" fill="#A2C71E"/>
<path d="M350.782 834.908C350.839 835.338 351.978 835.78 352.838 835.448C353.894 835.037 354.248 833.558 353.891 833.271C353.68 833.101 353.206 833.332 352.398 833.729C351.497 834.165 350.734 834.538 350.782 834.908Z" fill="#A2C71E"/>
<path d="M367.172 823.207C367.476 823.173 367.987 823.224 368.078 823.459C368.244 823.891 366.98 824.939 366.493 824.711C366.217 824.582 366.126 824.021 366.365 823.639C366.599 823.274 367.053 823.219 367.172 823.207Z" fill="#A2C71E"/>
<path d="M341.754 826.526C341.56 826.739 341.664 827.113 341.782 827.319C342.405 828.415 345.35 828.081 345.436 827.631C345.531 827.146 342.358 825.865 341.754 826.526Z" fill="#A2C71E"/>
<path d="M366.055 805.715C396.274 809.063 420.198 816.947 419.492 823.318C419.466 823.563 419.398 823.802 419.298 824.036C418.464 826.629 417.628 829.224 416.794 831.817C415.728 835.131 412.943 837.604 409.524 838.262C397.299 840.61 380.278 842.406 360.279 840.07C341.208 837.842 325.632 832.581 314.358 827.66C310.245 825.867 307.96 821.422 308.871 817.028C309.265 815.123 309.658 813.222 310.055 811.318C310.057 811.275 310.058 811.231 310.063 811.189C310.766 804.813 335.837 802.363 366.055 805.715Z" fill="url(#paint5_linear_5199_12068)"/>
<path d="M423.448 828.568L416.149 828.776C416.087 828.776 416.035 828.831 416.039 828.894C416.041 828.949 416.08 828.993 416.132 829.001L423.326 830.251C423.791 830.333 424.236 830.026 424.317 829.564C424.398 829.102 424.085 828.662 423.62 828.581C423.564 828.572 423.503 828.569 423.448 828.568Z" fill="#F3C344"/>
<path d="M419.902 837.302L414.698 832.25C414.592 832.147 414.424 832.15 414.322 832.252C414.229 832.346 414.221 832.49 414.298 832.592L418.614 838.405C418.893 838.78 419.431 838.864 419.809 838.585C420.19 838.311 420.273 837.78 419.993 837.405C419.967 837.368 419.933 837.333 419.902 837.302Z" fill="#F3C344"/>
<path d="M329.765 820.913C314.787 816.64 311.091 812.78 311.27 811.172C311.457 809.493 315.706 807.141 327.069 806.051C337.637 805.036 351.518 805.371 366.162 806.993C378.671 808.38 390.796 810.637 400.308 813.351C415.286 817.624 418.981 821.484 418.803 823.092C418.616 824.771 414.367 827.122 403.004 828.213C392.436 829.228 378.555 828.893 363.91 827.271C351.402 825.883 339.273 823.626 329.765 820.913Z" fill="url(#paint6_radial_5199_12068)"/>
<path d="M357.082 812.655C356.214 812.936 352.393 814.169 352.401 815.765C352.417 819.199 370.141 821.892 376.621 819.532C377.366 819.26 379.323 818.549 379.326 817.503C379.329 816.712 378.214 816.07 377.386 815.636C371.902 812.78 365.576 812.325 363.254 812.206C359.738 812.027 358.343 812.249 357.082 812.655Z" fill="#FFE6CC"/>
<path d="M345.719 813.379C346.208 812.855 349.318 814.38 349.195 814.812C349.088 815.186 346.406 815.227 345.787 814.048C345.76 813.989 345.541 813.569 345.719 813.379Z" fill="#063B01"/>
<path d="M365.045 824.951C365.29 825.36 365.914 825.666 366.353 825.518C367.364 825.172 367.332 822.409 366.727 822.203C366.151 822.01 364.42 823.909 365.045 824.951Z" fill="#063B01"/>
<path d="M351.454 820.901C351.481 821.281 352.97 821.811 354.243 821.339C355.113 821.015 355.902 820.215 355.728 819.906C355.39 819.314 351.408 820.268 351.454 820.901Z" fill="#063B01"/>
<path d="M380.826 824.256C379.519 824.554 377.674 822.303 377.972 821.873C378.17 821.587 379.347 822.076 380.667 822.628C381.391 822.929 381.654 823.106 381.691 823.347C381.754 823.715 381.286 824.154 380.826 824.256Z" fill="#063B01"/>
<path d="M366.253 810.068C365.997 809.776 364.828 809.91 364.67 810.313C364.634 810.398 364.678 810.538 364.763 810.818C364.904 811.281 364.974 811.509 365.077 811.545C365.463 811.674 366.593 810.45 366.253 810.068Z" fill="#063B01"/>
<path d="M355.647 809.785C355.045 809.621 354.363 809.878 354.345 810.132C354.32 810.577 356.368 811.311 356.627 810.966C356.787 810.752 356.382 809.984 355.647 809.785Z" fill="#063B01"/>
<path d="M384.553 816.051C384.64 815.773 383.687 815.02 382.623 815.045C381.892 815.062 381.09 815.443 381.132 815.706C381.216 816.215 384.412 816.518 384.553 816.051Z" fill="#063B01"/>
<path d="M349.991 811.048C349.949 810.788 350.424 810.438 350.892 810.371C352.069 810.207 353.299 811.828 353.113 812.085C353.071 812.142 352.972 812.106 351.523 811.675C350.297 811.306 350.019 811.231 349.991 811.048Z" fill="#A2C71E"/>
<path d="M374.379 811.402C374.86 811.043 375.604 811.044 375.729 811.272C375.949 811.675 374.391 813.057 373.998 812.825C373.761 812.684 373.795 811.837 374.379 811.402Z" fill="#063B01"/>
<path d="M381.512 813.09C381.573 812.838 381.125 812.429 380.66 812.307C379.496 812 378.162 813.469 378.327 813.746C378.364 813.808 378.466 813.782 379.939 813.528C381.187 813.311 381.469 813.267 381.512 813.09Z" fill="#A2C71E"/>
<path d="M357.396 822.973C357.564 823.495 359.22 823.88 360.206 823.184C361.143 822.521 361.263 821.038 360.817 820.75C360.558 820.582 360.113 820.826 359.431 821.197C358.729 821.584 357.217 822.411 357.396 822.973Z" fill="#A2C71E"/>
<path d="M347.372 817.42C347.258 817.676 347.481 818.009 347.659 818.177C348.616 819.066 351.291 817.962 351.223 817.509C351.154 817.011 347.722 816.626 347.372 817.42Z" fill="#A2C71E"/>
<path d="M371.177 810.841C371.088 810.6 370.597 810.354 370.237 810.361C369.338 810.382 369.219 812.014 369.467 812.217C369.524 812.262 369.574 812.214 370.392 811.62C371.079 811.119 371.238 811.008 371.177 810.841Z" fill="#A2C71E"/>
<path d="M374.018 824.717C373.863 825.121 372.652 825.286 371.893 824.763C370.961 824.118 370.961 822.597 371.375 822.401C371.619 822.285 372.027 822.62 372.721 823.194C373.495 823.827 374.151 824.368 374.018 824.717Z" fill="#A2C71E"/>
<path d="M360.802 809.527C360.514 809.423 360.005 809.355 359.862 809.562C359.6 809.943 360.586 811.256 361.113 811.148C361.411 811.087 361.63 810.562 361.486 810.135C361.34 809.725 360.914 809.57 360.802 809.527Z" fill="#A2C71E"/>
<path d="M384.751 818.664C384.891 818.916 384.703 819.256 384.54 819.428C383.679 820.35 380.893 819.339 380.914 818.882C380.931 818.387 384.317 817.884 384.751 818.664Z" fill="#A2C71E"/>
<path d="M419.393 821.381C419.004 816.603 418.611 811.821 418.222 807.043C416.094 778.907 393.627 751.071 363.789 752.654C362.321 752.721 361.588 752.754 360.12 752.821C331.614 753.898 312.228 781.073 310.91 808.083L310.97 808.091C310.967 808.108 310.964 808.126 310.961 808.144C310.74 809.909 314.38 813.29 325.359 816.998C335.464 820.411 349.125 823.267 363.829 825.039C376.309 826.544 388.638 827.125 398.543 826.675C413.073 826.015 418.745 823.436 419.255 821.363L419.393 821.381Z" fill="url(#paint7_linear_5199_12068)"/>
<path d="M305.945 805.305L313.216 806C313.28 806.008 313.324 806.062 313.32 806.125C313.316 806.181 313.272 806.222 313.22 806.228L305.96 807.014C305.488 807.064 305.065 806.725 305.016 806.253C304.966 805.781 305.305 805.359 305.777 805.309C305.829 805.3 305.889 805.301 305.945 805.305Z" fill="#F3C344"/>
<path d="M310.006 796.709L314.675 802.322C314.723 802.383 314.717 802.471 314.656 802.52C314.601 802.564 314.528 802.561 314.477 802.521L308.805 797.923C308.436 797.623 308.38 797.085 308.68 796.717C308.979 796.349 309.517 796.293 309.885 796.592C309.929 796.629 309.97 796.669 310.006 796.709Z" fill="#F3C344"/>
<path d="M376.245 746.681L374.375 753.742C374.36 753.803 374.295 753.841 374.234 753.822C374.181 753.807 374.147 753.76 374.148 753.707L374.558 746.414C374.586 745.942 374.99 745.579 375.462 745.604C375.934 745.631 376.296 746.036 376.272 746.508C376.271 746.567 376.26 746.628 376.245 746.681Z" fill="#F3C344"/>
<path d="M384.066 752.086L377.767 755.778C377.698 755.816 377.613 755.796 377.575 755.727C377.541 755.669 377.555 755.595 377.602 755.55L383.063 750.703C383.417 750.388 383.959 750.42 384.274 750.774C384.588 751.129 384.557 751.671 384.202 751.985C384.162 752.026 384.111 752.06 384.066 752.086Z" fill="#F3C344"/>
<path d="M366.831 748.131L370.625 754.356C370.701 754.482 370.662 754.645 370.536 754.721C370.423 754.79 370.278 754.765 370.193 754.667L365.451 749.135C365.143 748.776 365.185 748.234 365.544 747.926C365.902 747.618 366.444 747.66 366.752 748.019C366.778 748.053 366.808 748.093 366.831 748.131Z" fill="#F3C344"/>
<path d="M354.906 808.823C352.7 808.41 350.575 809.866 350.162 812.072C349.75 814.278 351.205 816.403 353.411 816.815C355.618 817.227 357.742 815.772 358.155 813.566C358.57 811.356 357.115 809.235 354.906 808.823ZM350.903 812.21C351.239 810.411 352.972 809.223 354.771 809.559C356.569 809.895 357.758 811.628 357.422 813.427L350.903 812.21Z" fill="#C4CF4D"/>
<path d="M378.287 813.184C376.08 812.772 373.956 814.227 373.543 816.433C373.131 818.639 374.586 820.764 376.792 821.176C378.998 821.589 381.123 820.133 381.536 817.927C381.948 815.718 380.493 813.596 378.287 813.184ZM374.28 816.572C374.616 814.773 376.349 813.585 378.148 813.921C379.947 814.257 381.135 815.99 380.799 817.789L374.28 816.572Z" fill="#C4CF4D"/>
<path d="M363.43 817.459C363.596 816.332 365.112 814.381 366.101 815.207C366.856 815.836 367.32 818.076 367.046 819.082C366.532 820.977 363.139 819.4 363.43 817.459Z" fill="#C4CF4D"/>
<path d="M124.812 1024.96C123.664 1022.21 122.068 1017.36 122.346 1011.27C122.512 1007.64 122.949 998.148 130.446 991.962C137.697 985.976 148.719 985.425 156.858 990.207C163.647 994.199 166.281 1000.64 167.07 1002.85C164.073 1006.7 158.978 1012.25 151.223 1016.89C140.486 1023.31 130.228 1024.65 124.812 1024.96Z" fill="url(#paint8_linear_5199_12068)"/>
<path d="M179.473 1133.16C163.352 1137.61 143.001 1137.01 128.316 1130.13C110.426 1121.76 105.425 1105.16 105.489 1090.51C106.302 1075.75 108.458 1061.13 112.042 1046.61C116.705 1031.9 125.164 1017.6 141.493 1007.98C151.942 1001.82 164.5 998.131 177.779 1001.06C189.01 1004.61 194.859 1013.19 198.782 1021.19C203.754 1031.33 206.779 1041.69 207.692 1052.49C208.53 1061.69 210.442 1070.63 213.47 1079.57C221.718 1101.6 209.649 1125.06 179.473 1133.16Z" fill="url(#paint9_radial_5199_12068)"/>
<path d="M197.004 1042.52C195.38 1042.21 188.668 1040.74 183.974 1034.44C178.251 1026.77 180.156 1018.13 180.452 1016.89C183.548 1010.18 190.503 1006.27 197.38 1007.21C204.86 1008.24 209.371 1014.62 210.738 1020.05C213.065 1029.3 206.441 1036.38 205.505 1037.35C202.413 1040.55 198.923 1041.92 197.004 1042.52Z" fill="url(#paint10_linear_5199_12068)"/>
<path d="M211.262 937.287V997.068" stroke="black"/>
<path d="M100.738 924.373V984.154" stroke="black"/>
<path d="M119.158 894.236V954.017" stroke="black"/>
<path d="M172.303 803.822V816.781H149.633V803.822H136.215V781.151H149.633V768.781H172.303V781.151H184.215V803.822H172.303Z" fill="#3DCE94"/>
</g>
<defs>
<linearGradient id="paint0_linear_5199_12068" x1="350.339" y1="880.834" x2="380.471" y2="775.231" gradientUnits="userSpaceOnUse">
<stop stop-color="#6A4727"/>
<stop offset="0.1931" stop-color="#734D2A"/>
<stop offset="0.5059" stop-color="#8B5E31"/>
<stop offset="0.8973" stop-color="#B27A3D"/>
<stop offset="1" stop-color="#BD8240"/>
</linearGradient>
<linearGradient id="paint1_linear_5199_12068" x1="308.286" y1="827.585" x2="413.603" y2="857.635" gradientUnits="userSpaceOnUse">
<stop stop-color="#6A4727"/>
<stop offset="0.1931" stop-color="#734D2A"/>
<stop offset="0.5059" stop-color="#8B5E31"/>
<stop offset="0.8973" stop-color="#B27A3D"/>
<stop offset="1" stop-color="#BD8240"/>
</linearGradient>
<radialGradient id="paint2_radial_5199_12068" cx="0" cy="0" r="1" gradientUnits="userSpaceOnUse" gradientTransform="translate(360.928 842.616) rotate(6.23578) scale(53.5846 10.6711)">
<stop stop-color="#C4CF4D"/>
<stop offset="0.2634" stop-color="#C6D24D"/>
<stop offset="0.4274" stop-color="#CCDA4E"/>
<stop offset="0.5637" stop-color="#D5E950"/>
<stop offset="0.6193" stop-color="#DBF151"/>
<stop offset="1" stop-color="#C4CF4D"/>
</radialGradient>
<linearGradient id="paint3_linear_5199_12068" x1="307.035" y1="837.088" x2="415.558" y2="832.39" gradientUnits="userSpaceOnUse">
<stop stop-color="#6A4727"/>
<stop offset="0.1931" stop-color="#734D2A"/>
<stop offset="0.5059" stop-color="#8B5E31"/>
<stop offset="0.8973" stop-color="#B27A3D"/>
<stop offset="1" stop-color="#BD8240"/>
</linearGradient>
<radialGradient id="paint4_radial_5199_12068" cx="0" cy="0" r="1" gradientUnits="userSpaceOnUse" gradientTransform="translate(361.395 829.742) rotate(-172.79) scale(53.5846 10.6711)">
<stop stop-color="#C4CF4D"/>
<stop offset="0.2634" stop-color="#C6D24D"/>
<stop offset="0.4274" stop-color="#CCDA4E"/>
<stop offset="0.5637" stop-color="#D5E950"/>
<stop offset="0.6193" stop-color="#DBF151"/>
<stop offset="1" stop-color="#C4CF4D"/>
</radialGradient>
<linearGradient id="paint5_linear_5199_12068" x1="415.547" y1="837.253" x2="311.091" y2="807.449" gradientUnits="userSpaceOnUse">
<stop stop-color="#6A4727"/>
<stop offset="0.1931" stop-color="#734D2A"/>
<stop offset="0.5059" stop-color="#8B5E31"/>
<stop offset="0.8973" stop-color="#B27A3D"/>
<stop offset="1" stop-color="#BD8240"/>
</linearGradient>
<radialGradient id="paint6_radial_5199_12068" cx="0" cy="0" r="1" gradientUnits="userSpaceOnUse" gradientTransform="translate(365.02 817.137) rotate(6.23578) scale(53.5846 10.6711)">
<stop stop-color="#C4CF4D"/>
<stop offset="0.2634" stop-color="#C6D24D"/>
<stop offset="0.4274" stop-color="#CCDA4E"/>
<stop offset="0.5637" stop-color="#D5E950"/>
<stop offset="0.6193" stop-color="#DBF151"/>
<stop offset="1" stop-color="#C4CF4D"/>
</radialGradient>
<linearGradient id="paint7_linear_5199_12068" x1="368.572" y1="890.028" x2="363.285" y2="773.632" gradientUnits="userSpaceOnUse">
<stop stop-color="#6A4727"/>
<stop offset="0.1931" stop-color="#734D2A"/>
<stop offset="0.5059" stop-color="#8B5E31"/>
<stop offset="0.8973" stop-color="#B27A3D"/>
<stop offset="1" stop-color="#BD8240"/>
</linearGradient>
<linearGradient id="paint8_linear_5199_12068" x1="126.596" y1="982.585" x2="141.825" y2="1006.94" gradientUnits="userSpaceOnUse">
<stop stop-color="#FFB5B5"/>
<stop offset="0.1947" stop-color="#FFB7AB"/>
<stop offset="0.5228" stop-color="#FFBD91"/>
<stop offset="0.9419" stop-color="#FEC766"/>
<stop offset="1" stop-color="#FEC860"/>
</linearGradient>
<radialGradient id="paint9_radial_5199_12068" cx="0" cy="0" r="1" gradientUnits="userSpaceOnUse" gradientTransform="translate(162.799 1092.25) scale(58.3539 58.1775)">
<stop stop-color="#FFDF9C"/>
<stop offset="0.2933" stop-color="#FCD894"/>
<stop offset="0.7483" stop-color="#F5C67E"/>
<stop offset="1" stop-color="#F0BA6F"/>
</radialGradient>
<linearGradient id="paint10_linear_5199_12068" x1="222.173" y1="1014.1" x2="181.043" y2="1030.27" gradientUnits="userSpaceOnUse">
<stop stop-color="white"/>
<stop offset="0.2538" stop-color="#FFB5B5"/>
<stop offset="0.3991" stop-color="#FFB7AB"/>
<stop offset="0.6439" stop-color="#FFBD91"/>
<stop offset="0.9567" stop-color="#FEC766"/>
<stop offset="1" stop-color="#FEC860"/>
</linearGradient>
<clipPath id="clip0_5199_12068">
<rect width="1342" height="1024" fill="white"/>
</clipPath>
</defs>
</svg>
