<svg width="1342" height="1024" viewBox="0 0 1342 1024" fill="none" xmlns="http://www.w3.org/2000/svg">
<path d="M972.922 399.431L169 867.129L388.777 996L1171.01 535.542C1176.79 511.216 1168.6 498.377 1163.78 494.998C1115.58 466.487 1015.72 407.457 1001.84 399.431C987.959 391.406 976.778 396.087 972.922 399.431Z" fill="#F4EFEF" stroke="black" stroke-linejoin="round"/>
<path d="M366 785C382.24 791.859 450.1 831.858 482 851" stroke="black"/>
<path d="M451 734.857C467.24 741.82 535.1 782.425 567 801.857" stroke="black"/>
<path d="M536 685.714C552.24 692.573 620.1 732.572 652 751.714" stroke="black"/>
<path d="M621 636.571C637.24 643.43 705.1 683.429 737 702.571" stroke="black"/>
<path d="M706 587.429C722.24 594.288 790.1 634.287 822 653.429" stroke="black"/>
<path d="M791 537.285C807.38 544.248 875.825 584.853 908 604.285" stroke="black"/>
<path d="M877 487.143C893.1 494.105 960.375 534.711 992 554.143" stroke="black"/>
<path d="M961 437C977.24 443.963 1045.1 484.568 1077 504" stroke="black"/>
<path d="M341.037 967.974L1163 497" stroke="black"/>
<ellipse cx="535.093" cy="883.231" rx="17.7269" ry="12.8657" transform="rotate(-54.8943 535.093 883.231)" fill="#8FE3C1"/>
<ellipse cx="826.042" cy="715.487" rx="17.7269" ry="12.8657" transform="rotate(-54.8943 826.042 715.487)" fill="#8FE3C1"/>
<ellipse cx="973.554" cy="631.609" rx="17.7269" ry="12.8657" transform="rotate(-54.8943 973.554 631.609)" fill="#8FE3C1"/>
<ellipse cx="1118.17" cy="547.73" rx="17.7269" ry="12.8657" transform="rotate(-54.8943 1118.17 547.73)" fill="#8FE3C1"/>
<ellipse cx="681.423" cy="799.366" rx="17.7269" ry="12.8657" transform="rotate(-54.8943 681.423 799.366)" fill="#8FE3C1"/>
<path d="M494.311 760.084L429.813 749.729C425.314 749.005 420.63 748.922 415.893 749.482C376.17 754.157 336.448 758.828 296.722 763.503C292.881 763.955 289.508 767.121 288.871 770.874L278.16 833.814C277.763 836.141 278.873 838.225 280.94 839.032C313.057 851.606 345.171 864.177 377.288 876.751C382.746 878.887 389.314 878.358 395.221 875.308C425.954 859.439 456.69 843.568 487.423 827.7C489.208 826.778 490.501 825.059 490.807 823.205C493.836 804.833 496.862 786.457 499.891 768.084C500.549 764.095 498.183 760.707 494.311 760.084Z" fill="#E5CA9A"/>
<path d="M289.011 770.049L278.068 834.343C277.748 836.221 278.577 837.894 280.138 838.51C313.032 851.47 345.926 864.43 378.823 877.387C381.336 878.375 384.492 876.25 385.005 873.22L399.273 789.382C399.638 787.235 398.503 785.402 396.584 785.037L294.575 765.704C292.132 765.242 289.475 767.315 289.011 770.049Z" fill="url(#paint0_radial_5199_5955)"/>
<path d="M402.443 789.096L388.357 871.856C387.792 875.175 390.733 877.303 393.741 875.755C425.128 859.64 456.517 843.522 487.904 827.406C489.404 826.638 490.515 825.114 490.778 823.462C493.783 804.749 496.784 786.035 499.789 767.318C500.242 764.49 498.116 762.421 495.428 763.075L406.34 784.807C404.404 785.28 402.791 787.054 402.443 789.096Z" fill="url(#paint1_radial_5199_5955)"/>
<path d="M416.053 749.45L296.637 763.666L401.208 782.335C401.718 782.425 402.259 782.408 402.797 782.279L496.193 760.365L431.53 749.742C426.529 748.922 421.324 748.824 416.053 749.45Z" fill="url(#paint2_radial_5199_5955)"/>
<path d="M330.009 827.247C326.628 826.232 325.103 821.793 324.924 821.23C324.618 820.277 325.012 819.257 325.803 818.948C326.597 818.642 327.482 819.164 327.788 820.117C327.837 820.266 328.979 823.793 331.204 823.825C332.613 823.852 334.005 822.503 334.841 821.23C335.347 820.461 336.303 820.35 336.992 820.997C337.674 821.637 337.814 822.781 337.312 823.55C336.528 824.743 334.381 827.512 331.327 827.449C330.86 827.446 330.42 827.372 330.009 827.247Z" fill="#FF9A00"/>
<path d="M313.408 821.477C316.606 822.44 319.716 820.197 320.348 816.468L308.762 812.982C308.129 816.711 310.21 820.513 313.408 821.477Z" fill="#FF9A00"/>
<path d="M347.304 831.668C350.502 832.631 353.612 830.388 354.245 826.659L342.658 823.174C342.026 826.903 344.106 830.704 347.304 831.668Z" fill="#FF9A00"/>
<path d="M662.018 673.636C664.152 668.308 664.779 663.512 664.942 660.151C666.09 658.326 668.261 654.332 668.565 648.815C668.914 642.48 666.602 637.794 665.553 635.928C666.683 626.117 664.289 620.658 661.917 617.493C660.634 615.781 656.714 609.411 650.047 607.766C637.632 604.704 630.143 621.179 616.831 621.449C610.049 621.585 600.841 617.531 589.683 599.982C582.103 593.735 572.388 592.675 565.792 596.987C561.304 599.922 559.518 604.527 558.855 606.652C556.257 608.78 552.784 612.145 549.777 617.033C545.213 624.457 544.07 631.59 543.739 635.526C536.458 647.269 536.087 656.43 536.404 661.14C537.149 672.204 540.613 680.371 540.613 680.371C540.848 682.957 541.027 686.957 540.426 691.786C539.742 697.292 538.685 698.728 538.766 701.837C538.939 708.546 544.169 713.489 547.198 716.353C556.306 724.962 563.022 722.471 567.725 730.128C570.902 735.302 568.735 737.898 571.985 740.673C578.946 746.615 593.924 738.986 595.44 738.194C601.345 735.109 605.242 731.078 607.464 728.395C614.253 725.574 624.54 720.306 634.584 710.656C642.505 703.047 647.599 695.281 650.766 689.503C653.737 686.895 658.779 681.728 662.018 673.636Z" fill="url(#paint3_radial_5199_5955)"/>
<path d="M558.587 689.823C563.293 687.07 568.651 683.353 574.029 678.345C576.365 676.169 578.439 673.999 580.266 671.904C579.634 671.874 579.002 671.843 578.369 671.815C577.772 672.464 577.082 673.154 576.3 673.855C575.501 674.572 574.623 675.29 573.655 675.978C568.344 679.753 562.768 681.035 558.775 681.482C558.71 684.262 558.649 687.041 558.587 689.823Z" fill="url(#paint4_radial_5199_5955)"/>
<path d="M553.325 688.842C550.418 684.413 546.32 676.709 545.496 666.5C545.229 663.186 545.351 660.168 545.656 657.536C546.124 657.962 546.592 658.388 547.058 658.817C547.071 662.208 547.496 667.213 549.528 672.832C551.001 676.901 552.884 680.099 554.501 682.416C554.11 684.556 553.717 686.699 553.325 688.842Z" fill="url(#paint5_radial_5199_5955)"/>
<path d="M558.887 661.077C557.578 654.39 556.584 645.844 557.079 635.966C557.375 630.041 558.153 624.719 559.107 620.115C559.575 620.541 560.043 620.967 560.509 621.396C559.976 625.722 559.679 631.248 560.28 637.599C560.863 643.757 562.13 648.975 563.418 653.035C561.91 655.714 560.397 658.395 558.887 661.077Z" fill="url(#paint6_radial_5199_5955)"/>
<path d="M604.865 708.44C603.046 702.799 601.399 695.599 601.07 687.169C600.945 683.968 601.022 680.968 601.23 678.205C601.698 678.631 602.166 679.057 602.632 679.486C602.594 680.367 602.593 681.343 602.647 682.391C602.647 682.391 602.734 684.015 603.011 685.764C603.369 687.998 605.407 694.399 609.052 702.66C607.66 704.589 606.262 706.512 604.865 708.44Z" fill="url(#paint7_radial_5199_5955)"/>
<path d="M635.302 653.112C640.029 649.391 645.475 644.248 650.451 637.302C652.174 634.895 653.654 632.539 654.925 630.286C654.295 630.123 653.667 629.965 653.038 629.802C652.294 631.412 651.332 633.155 650.073 634.935C645.891 640.849 640.597 644.084 637.159 645.764C636.542 648.212 635.921 650.66 635.302 653.112Z" fill="url(#paint8_radial_5199_5955)"/>
<path d="M626.213 683.621C630.11 681.87 635.994 678.648 641.701 672.911C648.483 666.093 651.845 658.906 653.465 654.64C652.922 654.514 652.375 654.389 651.832 654.262C650.175 657.552 647.063 662.695 641.581 667.447C637.114 671.322 632.69 673.534 629.577 674.794C628.457 677.737 627.333 680.678 626.213 683.621Z" fill="url(#paint9_radial_5199_5955)"/>
<path d="M608.937 710.13C613.227 709.268 621.343 707.007 629.073 700.446C633.65 696.56 636.621 692.419 638.473 689.312C637.772 689.321 637.074 689.332 636.373 689.341C634.753 691.544 632.175 694.501 628.358 697.14C622.593 701.129 616.934 702.365 613.767 702.809C612.157 705.252 610.549 707.692 608.937 710.13Z" fill="url(#paint10_radial_5199_5955)"/>
<path d="M621.507 679.862C625.153 671.988 627.05 666.112 629.585 658.256C634.806 642.07 637.652 628.219 639.282 618.376C639.941 617.749 640.599 617.118 641.259 616.492C639.721 640.529 632.537 696.527 589.546 734.56C583.236 740.142 576.722 744.835 570.211 748.787C570.147 744.148 570.086 739.511 570.021 734.875C572.369 733.822 575.352 732.367 578.987 730.168C578.987 730.168 585.664 726.197 591.839 721.004C598.981 714.999 610.854 700.866 621.507 679.862Z" fill="url(#paint11_radial_5199_5955)"/>
<path d="M593.793 617.509C592.503 616.014 591.211 614.517 589.922 613.021C584.771 617.88 545.06 656.487 553.36 704.596C555.346 716.099 559.675 725.818 564.51 733.671C565.812 728.813 567.111 723.953 568.414 719.095C564.692 712.259 562.645 705.86 561.53 700.321C553.171 658.875 588.247 623.017 593.793 617.509Z" fill="url(#paint12_radial_5199_5955)"/>
<path d="M571.423 722.711C570.821 722.535 570.321 722.112 570.054 721.537C566.066 713.072 564.784 705.237 566.251 698.247C566.421 697.434 566.626 696.646 566.824 695.885C567.469 693.384 568.081 691.022 567.51 687.907C566.958 684.889 565.62 682.979 563.923 680.56C563.468 679.908 562.995 679.234 562.507 678.496C562.298 678.183 557.382 670.664 554.595 659.695C552.508 651.487 553.373 642.034 557.088 632.325C556.513 625.595 557.478 618.773 559.885 612.564C561.576 608.203 563.956 604.153 566.955 600.518C567.602 597.516 569.072 593.314 572.403 589.326C576.124 584.873 580.506 582.619 583.747 581.491C588.66 575.036 594.109 571.236 599.952 570.189C602.996 569.643 605.083 570.035 607.291 570.448C609.349 570.831 611.68 571.269 615.579 571.136C619.874 570.991 622.456 570.288 624.529 569.726C626.603 569.161 628.397 568.674 630.519 569.292C630.961 569.421 631.393 569.59 631.844 569.809C638.945 573.276 639.694 584.39 640.142 591.032C640.595 597.734 639.778 604.45 637.72 611.002C638.063 613.337 638.138 615.705 637.946 618.046C637.627 621.907 636.594 625.644 634.875 629.17C635.76 631.821 636.262 634.569 636.361 637.349C636.53 641.951 635.578 646.611 633.605 650.893C635.722 657.067 638.013 667.932 632.575 677.318C632.45 677.534 632.288 677.728 632.099 677.892C626.816 682.438 621.288 685.999 615.661 688.478C612.223 689.995 609.508 691.251 604.1 693.758C599.004 696.119 598.466 696.433 597.989 696.985C596.552 698.646 596.479 700.404 596.469 703.62C596.464 705.72 596.456 708.1 595.853 710.851C594.743 715.914 591.891 720.685 587.378 725.031C586.851 725.54 586.11 725.755 585.399 725.606L571.591 722.745C571.538 722.74 571.48 722.727 571.423 722.711Z" fill="url(#paint13_radial_5199_5955)"/>
<path d="M587.782 619.914C590.113 623.275 592.737 625.526 594.701 626.935C595.147 625.72 595.597 624.506 596.044 623.292C594.336 622.411 591.586 620.711 589.131 617.662C585.941 613.704 584.965 609.605 584.623 607.587C583.974 606.981 583.321 606.375 582.672 605.766C582.95 608.679 583.892 614.306 587.782 619.914Z" fill="url(#paint14_radial_5199_5955)"/>
<path d="M609.635 607.082C612.09 607.285 615.587 607.298 619.648 606.379C623.18 605.581 626.004 604.335 628.023 603.253C627.465 602.951 626.911 602.651 626.354 602.35C624.722 603.004 622.696 603.653 620.323 604.073C616.517 604.744 613.237 604.572 610.884 604.245C610.465 605.19 610.05 606.136 609.635 607.082Z" fill="url(#paint15_radial_5199_5955)"/>
<path d="M595.549 651.385C595.018 653.829 594.488 656.269 593.954 658.711C597.411 658.6 602.787 658.009 608.835 655.531C615.266 652.898 619.722 649.255 622.304 646.795C621.353 646.748 620.397 646.704 619.446 646.657C616.595 648.451 611.441 651.134 604.551 651.777C600.999 652.113 597.922 651.817 595.549 651.385Z" fill="url(#paint16_radial_5199_5955)"/>
<path d="M601.826 625.255C601.373 626.33 600.921 627.404 600.468 628.478C603.076 628.469 606.174 628.235 609.588 627.515C616.289 626.104 621.439 623.409 624.821 621.24C624.037 621.242 623.255 621.248 622.471 621.25C619.208 622.668 614.832 624.153 609.537 624.855C606.693 625.236 604.096 625.321 601.826 625.255Z" fill="url(#paint17_radial_5199_5955)"/>
<path d="M617.107 664.922C614.512 667.316 609.445 671.322 601.988 673.295C597.803 674.404 594.109 674.541 591.372 674.413C590.906 676.857 590.436 679.304 589.97 681.748C593.645 681.181 598.545 680.009 603.885 677.471C611.848 673.684 617.142 668.579 620.149 665.175C619.136 665.092 618.119 665.008 617.107 664.922Z" fill="url(#paint18_radial_5199_5955)"/>
<path d="M598.471 597.572C600.305 601.603 603.229 603.846 604.642 604.795C605.171 603.929 605.7 603.064 606.229 602.199C604.994 601.499 602.394 599.799 600.576 596.519C598.076 592.012 598.759 587.6 599.006 586.324C598.623 585.748 598.237 585.172 597.854 584.596C597.402 585.977 595.743 591.578 598.471 597.572Z" fill="url(#paint19_radial_5199_5955)"/>
<path d="M588.245 657.466C588.68 654.717 589.118 651.973 589.553 649.224C587.507 647.736 585.127 645.695 582.828 642.954C578.278 637.53 576.214 631.945 575.225 628.361C574.432 628.083 573.639 627.808 572.846 627.529C573.758 632.366 575.67 639.262 579.972 646.573C582.687 651.186 585.661 654.781 588.245 657.466Z" fill="url(#paint20_radial_5199_5955)"/>
<path d="M585.686 673.27C582.686 670.818 579.345 667.697 576.036 663.785C570.675 657.441 567.229 651.183 565.014 646.249C564.265 645.983 563.511 645.72 562.762 645.454C564.108 650.815 566.803 658.729 572.492 666.926C576.5 672.7 580.815 676.909 584.317 679.825C584.772 677.641 585.231 675.458 585.686 673.27Z" fill="url(#paint21_radial_5199_5955)"/>
<path d="M601.124 627.229C605.468 611.894 612.234 599.635 612.234 599.635C616.28 592.302 620.346 586.733 623.127 583.195L621.712 582.366C619.135 585.405 615.314 590.139 611.151 596.261C611.151 596.261 602.424 609.096 595.381 625.272C588.285 641.567 573.766 690.444 559.43 757.881C558.064 764.313 562.105 770.729 568.515 771.97C568.687 772.002 568.859 772.034 569.032 772.062C569.205 772.091 569.384 772.113 569.555 772.134C577.159 773.054 583.936 767.135 584.387 759.439C589.312 675.275 597.048 641.612 601.124 627.229Z" fill="url(#paint22_radial_5199_5955)"/>
<path d="M593.977 637.641C593.404 639.053 596.311 642.914 600.206 642.732C603.123 642.595 605.83 640.23 605.522 638.828C604.979 636.372 594.857 635.479 593.977 637.641Z" fill="#534741"/>
<path d="M590.314 632.012C588.836 629.89 585.917 629.387 583.798 630.886C581.679 632.385 581.164 635.322 582.642 637.445C584.121 639.567 587.04 640.07 589.159 638.571C591.277 637.072 591.797 634.136 590.314 632.012ZM588.665 637.864C586.935 639.089 584.557 638.674 583.351 636.946L589.608 632.516C590.818 634.245 590.395 636.64 588.665 637.864Z" fill="#534741"/>
<path d="M617.27 636.672C615.791 634.55 612.872 634.048 610.753 635.546C608.635 637.045 608.119 639.983 609.597 642.105C611.076 644.227 613.995 644.73 616.114 643.231C618.233 641.729 618.748 638.795 617.27 636.672ZM615.621 642.521C613.891 643.746 611.513 643.331 610.307 641.603L616.564 637.172C617.769 638.904 617.347 641.299 615.621 642.521Z" fill="#534741"/>
<path d="M172.303 711.865V724.824H149.633V711.865H136.215V689.194H149.633V676.824H172.303V689.194H184.215V711.865H172.303Z" fill="#3DCE94"/>
<path d="M727.027 577.343L726.273 583.911C726.266 583.975 726.207 584.024 726.144 584.013C726.088 584.006 726.046 583.964 726.043 583.911L725.285 577.339C725.229 576.855 725.575 576.416 726.057 576.359C726.539 576.303 726.975 576.651 727.031 577.135C727.034 577.206 727.034 577.276 727.027 577.343Z" fill="#F37343"/>
<path d="M734.709 581.138L729.574 585.266C729.511 585.316 729.42 585.305 729.371 585.245C729.329 585.193 729.329 585.115 729.371 585.063L733.477 579.898C733.781 579.515 734.332 579.456 734.713 579.761C735.093 580.067 735.153 580.621 734.849 581.004C734.804 581.05 734.755 581.099 734.709 581.138Z" fill="#F37343"/>
<path d="M718.838 579.895L723.035 584.968C723.132 585.084 723.115 585.26 723 585.355C722.898 585.439 722.748 585.439 722.651 585.355L717.606 581.134C717.232 580.822 717.183 580.267 717.49 579.892C717.801 579.516 718.353 579.467 718.726 579.776C718.768 579.818 718.807 579.857 718.838 579.895Z" fill="#F37343"/>
<path d="M714.98 587.531L721.516 588.293C721.578 588.3 721.627 588.359 721.617 588.422C721.61 588.479 721.568 588.521 721.516 588.524L714.98 589.286C714.498 589.342 714.062 588.995 714.006 588.51C713.95 588.026 714.296 587.587 714.777 587.531C714.844 587.524 714.914 587.524 714.98 587.531Z" fill="#F37343"/>
<path d="M717.517 595.767L722.562 591.547C722.677 591.449 722.852 591.467 722.946 591.582C723.03 591.684 723.03 591.835 722.946 591.934L718.75 597.007C718.439 597.383 717.887 597.432 717.514 597.123C717.14 596.81 717.091 596.256 717.399 595.88C717.437 595.841 717.479 595.799 717.517 595.767Z" fill="#F37343"/>
<path d="M725.111 599.65L725.868 593.078C725.875 593.015 725.935 592.966 725.997 592.976C726.053 592.983 726.095 593.025 726.099 593.078L726.856 599.65C726.912 600.135 726.567 600.574 726.085 600.63C725.603 600.686 725.167 600.338 725.111 599.854C725.104 599.784 725.104 599.713 725.111 599.65Z" fill="#F37343"/>
<path d="M733.303 597.095L729.107 592.022C729.009 591.906 729.026 591.73 729.141 591.635C729.243 591.551 729.393 591.551 729.491 591.635L734.535 595.856C734.909 596.168 734.958 596.723 734.651 597.098C734.34 597.474 733.788 597.523 733.415 597.214C733.376 597.176 733.334 597.134 733.303 597.095Z" fill="#F37343"/>
<path d="M737.164 589.459L730.628 588.697C730.565 588.69 730.516 588.63 730.527 588.567C730.534 588.511 730.576 588.469 730.628 588.465L737.164 587.703C737.645 587.647 738.082 587.995 738.138 588.479C738.194 588.964 737.848 589.403 737.366 589.459C737.296 589.469 737.227 589.466 737.164 589.459Z" fill="#F37343"/>
<path d="M734.921 617.314C735.343 616.405 737.927 610.573 735.148 604.281C733.151 599.766 729.541 597.607 728.295 596.937C727.136 597 723.03 597.358 719.797 600.644C717.105 603.379 714.787 608.386 716.801 612.981C719.364 618.824 726.786 619.111 727.802 619.136C731.081 619.21 733.615 618.041 734.921 617.314Z" fill="url(#paint23_linear_5199_5955)"/>
<path d="M745.595 544.912C744.457 542.159 742.875 537.311 743.151 531.219C743.315 527.589 743.748 518.096 751.181 511.909C758.369 505.923 769.297 505.372 777.365 510.154C784.096 514.146 786.708 520.585 787.49 522.793C784.519 526.648 779.467 532.199 771.779 536.837C761.138 543.262 750.964 544.599 745.595 544.912Z" fill="url(#paint24_linear_5199_5955)"/>
<path d="M799.786 653.108C783.803 657.553 763.627 656.953 749.068 650.078C731.333 641.705 726.375 625.109 726.438 610.454C727.245 595.698 729.381 581.082 732.935 566.554C737.558 551.846 745.944 537.543 762.133 527.923C772.491 521.768 784.941 518.078 798.106 521.006C809.24 524.552 815.039 533.137 818.928 541.138C823.858 551.281 826.857 561.642 827.761 572.441C828.592 581.636 830.488 590.582 833.49 599.521C841.67 621.545 829.702 645.012 799.786 653.108Z" fill="url(#paint25_radial_5199_5955)"/>
<path d="M817.165 562.466C815.556 562.157 808.901 560.686 804.247 554.391C798.574 546.716 800.463 538.076 800.756 536.836C803.825 530.124 810.72 526.216 817.539 527.16C824.954 528.186 829.426 534.561 830.781 539.996C833.089 549.244 826.522 556.329 825.593 557.298C822.528 560.493 819.068 561.869 817.165 562.466Z" fill="url(#paint26_linear_5199_5955)"/>
<path d="M775.054 585.256C774.722 586.801 778.392 590.234 782.344 589.357C785.301 588.7 787.647 585.804 787.074 584.427C786.076 582.015 775.56 582.89 775.054 585.256Z" fill="#F37343"/>
<path d="M770.291 580.151C768.395 578.244 765.32 578.244 763.424 580.151C761.528 582.057 761.528 585.15 763.424 587.056C765.32 588.963 768.395 588.963 770.291 587.056C772.19 585.15 772.19 582.057 770.291 580.151ZM769.659 586.421C768.113 587.976 765.606 587.976 764.059 586.421L769.659 580.79C771.206 582.341 771.206 584.862 769.659 586.421Z" fill="#F37343"/>
<path d="M798.703 580.151C796.807 578.244 793.732 578.244 791.836 580.151C789.94 582.057 789.94 585.15 791.836 587.056C793.732 588.963 796.807 588.963 798.703 587.056C800.599 585.15 800.599 582.057 798.703 580.151ZM798.068 586.421C796.521 587.976 794.014 587.976 792.468 586.421L798.068 580.79C799.618 582.341 799.618 584.862 798.068 586.421Z" fill="#F37343"/>
<path d="M814.931 512.703L814.174 520.177C814.167 520.24 814.111 520.29 814.045 520.283C813.989 520.276 813.947 520.233 813.94 520.177L813.182 512.703C813.133 512.218 813.483 511.786 813.968 511.737C814.45 511.688 814.879 512.039 814.928 512.527C814.938 512.58 814.938 512.643 814.931 512.703Z" fill="#F37343"/>
<path d="M823.702 516.934L817.931 521.698C817.868 521.747 817.777 521.74 817.728 521.677C817.683 521.624 817.686 521.547 817.728 521.494L822.466 515.691C822.773 515.315 823.325 515.259 823.702 515.568C824.075 515.877 824.131 516.432 823.824 516.811C823.785 516.856 823.743 516.898 823.702 516.934Z" fill="#F37343"/>
<path d="M805.654 515.691L810.486 521.403C810.584 521.519 810.57 521.691 810.455 521.789C810.35 521.877 810.2 521.874 810.102 521.789L804.422 516.93C804.052 516.614 804.01 516.06 804.321 515.687C804.631 515.315 805.187 515.273 805.557 515.586C805.588 515.621 805.623 515.659 805.654 515.691Z" fill="#F37343"/>
<path d="M801.346 524.412L808.778 525.174C808.841 525.181 808.89 525.237 808.883 525.304C808.876 525.36 808.834 525.402 808.778 525.409L801.346 526.171C800.864 526.22 800.434 525.869 800.385 525.381C800.337 524.897 800.686 524.465 801.171 524.416C801.227 524.405 801.29 524.405 801.346 524.412Z" fill="#F37343"/>
<path d="M804.32 533.744L810 528.885C810.116 528.786 810.287 528.8 810.384 528.916C810.472 529.022 810.468 529.173 810.384 529.271L805.552 534.983C805.238 535.355 804.687 535.398 804.317 535.085C803.946 534.769 803.905 534.214 804.215 533.842C804.25 533.807 804.285 533.772 804.32 533.744Z" fill="#F37343"/>
<path d="M812.991 538.073L813.748 530.598C813.755 530.535 813.811 530.486 813.877 530.493C813.933 530.5 813.975 530.542 813.982 530.598L814.74 538.073C814.789 538.557 814.439 538.989 813.954 539.038C813.472 539.088 813.043 538.736 812.994 538.248C812.987 538.192 812.987 538.129 812.991 538.073Z" fill="#F37343"/>
<path d="M822.27 535.081L817.438 529.369C817.34 529.253 817.354 529.081 817.47 528.982C817.574 528.895 817.724 528.898 817.822 528.982L823.506 533.842C823.876 534.158 823.918 534.712 823.607 535.084C823.296 535.457 822.741 535.499 822.371 535.186C822.336 535.151 822.301 535.116 822.27 535.081Z" fill="#F37343"/>
<path d="M826.577 526.364L819.144 525.602C819.082 525.595 819.033 525.539 819.04 525.472C819.047 525.416 819.089 525.374 819.144 525.367L826.577 524.605C827.059 524.556 827.489 524.907 827.537 525.395C827.586 525.88 827.237 526.311 826.752 526.361C826.696 526.371 826.633 526.368 826.577 526.364Z" fill="#F37343"/>
<path d="M1046.9 477.978C1047.71 491.774 1043.81 505.787 1033.51 515.357C1023.31 524.834 1008.83 528.706 995.218 528.875C993.584 528.904 992.767 528.926 991.134 528.984C977.479 529.424 962.931 526.508 952.172 517.538C942.866 509.777 937.954 498.26 936.975 486.346L1046.08 464.892C1046.36 469.257 1046.63 473.618 1046.9 477.978Z" fill="url(#paint27_linear_5199_5955)"/>
<path d="M1045.95 465.061C1047.19 471.35 1023.81 481.251 993.735 487.172C963.66 493.091 938.274 492.792 937.035 486.499C935.796 480.21 959.176 470.31 989.251 464.388C1019.33 458.466 1044.71 458.768 1045.95 465.061Z" fill="url(#paint28_linear_5199_5955)"/>
<path d="M958.983 489.97C943.412 490.388 938.73 487.815 938.417 486.227C938.092 484.569 941.439 481.051 951.951 476.601C961.728 472.462 975.07 468.617 989.526 465.77C1001.87 463.341 1014.12 461.855 1024.01 461.59C1039.58 461.172 1044.26 463.745 1044.57 465.333C1044.9 466.991 1041.55 470.509 1031.04 474.959C1021.26 479.098 1007.92 482.943 993.463 485.79C981.114 488.219 968.867 489.705 958.983 489.97Z" fill="url(#paint29_radial_5199_5955)"/>
<path d="M982.567 473.896C981.823 474.425 978.548 476.748 979.035 478.268C980.08 481.538 997.795 478.79 1003.27 474.594C1003.9 474.11 1005.55 472.845 1005.24 471.846C1005.01 471.091 1003.75 470.813 1002.83 470.648C996.741 469.569 990.57 471.033 988.319 471.616C984.911 472.5 983.648 473.13 982.567 473.896Z" fill="#FFE6CC"/>
<path d="M971.944 477.992C972.253 477.345 975.677 477.867 975.689 478.316C975.699 478.705 973.154 479.549 972.209 478.609C972.166 478.565 971.831 478.23 971.944 477.992Z" fill="#063B01"/>
<path d="M993.85 483.236C994.206 483.553 994.893 483.657 995.268 483.384C996.128 482.75 995.268 480.124 994.629 480.11C994.022 480.098 992.941 482.429 993.85 483.236Z" fill="#063B01"/>
<path d="M979.67 483.448C979.809 483.802 981.39 483.861 982.462 483.029C983.194 482.458 983.708 481.459 983.449 481.216C982.949 480.753 979.437 482.857 979.67 483.448Z" fill="#063B01"/>
<path d="M1008.7 477.838C1007.54 478.515 1005.1 476.92 1005.26 476.421C1005.36 476.089 1006.63 476.202 1008.06 476.332C1008.84 476.403 1009.14 476.493 1009.25 476.711C1009.42 477.043 1009.1 477.599 1008.7 477.838Z" fill="#063B01"/>
<path d="M990.537 468.673C990.206 468.471 989.131 468.949 989.1 469.381C989.092 469.473 989.176 469.593 989.341 469.835C989.614 470.234 989.75 470.431 989.858 470.435C990.266 470.441 990.976 468.938 990.537 468.673Z" fill="#063B01"/>
<path d="M980.336 471.588C979.712 471.612 979.138 472.062 979.198 472.31C979.307 472.742 981.482 472.828 981.625 472.42C981.713 472.169 981.097 471.557 980.336 471.588Z" fill="#063B01"/>
<path d="M1009.79 468.894C1009.79 468.602 1008.65 468.17 1007.65 468.512C1006.95 468.748 1006.3 469.352 1006.42 469.591C1006.66 470.051 1009.8 469.381 1009.79 468.894Z" fill="#063B01"/>
<path d="M975.319 474.491C975.201 474.256 975.549 473.78 975.975 473.575C977.049 473.066 978.709 474.242 978.608 474.543C978.585 474.611 978.48 474.606 976.968 474.629C975.688 474.646 975.401 474.657 975.319 474.491Z" fill="#A2C71E"/>
<path d="M998.691 467.507C999.043 467.02 999.753 466.798 999.94 466.979C1000.27 467.296 999.2 469.082 998.755 468.979C998.484 468.919 998.262 468.101 998.691 467.507Z" fill="#063B01"/>
<path d="M1006 466.981C1005.98 466.722 1005.43 466.466 1004.95 466.49C1003.75 466.547 1002.92 468.348 1003.16 468.562C1003.21 468.61 1003.3 468.555 1004.63 467.87C1005.76 467.289 1006.01 467.163 1006 466.981Z" fill="#A2C71E"/>
<path d="M985.961 483.644C986.279 484.092 987.973 483.962 988.705 483.002C989.4 482.089 989.07 480.638 988.558 480.498C988.261 480.414 987.909 480.782 987.37 481.34C986.817 481.916 985.622 483.162 985.961 483.644Z" fill="#A2C71E"/>
<path d="M974.731 481.355C974.7 481.633 975.012 481.884 975.232 481.991C976.412 482.552 978.633 480.696 978.432 480.284C978.216 479.83 974.827 480.489 974.731 481.355Z" fill="#A2C71E"/>
<path d="M995.465 467.937C995.309 467.734 994.766 467.647 994.425 467.762C993.573 468.051 993.949 469.644 994.247 469.763C994.315 469.789 994.348 469.729 994.951 468.916C995.455 468.229 995.574 468.078 995.465 467.937Z" fill="#A2C71E"/>
<path d="M1002.34 480.321C1002.31 480.753 1001.21 481.274 1000.33 481.003C999.244 480.667 998.788 479.216 999.123 478.905C999.322 478.721 999.811 478.919 1000.64 479.258C1001.57 479.629 1002.36 479.948 1002.34 480.321Z" fill="#A2C71E"/>
<path d="M985.175 469.796C984.87 469.783 984.363 469.87 984.289 470.111C984.153 470.553 985.488 471.51 985.958 471.248C986.224 471.101 986.276 470.534 986.01 470.17C985.748 469.822 985.295 469.799 985.175 469.796Z" fill="#A2C71E"/>
<path d="M1010.76 471.327C1010.97 471.525 1010.89 471.906 1010.79 472.119C1010.25 473.257 1007.29 473.129 1007.17 472.687C1007.04 472.209 1010.12 470.709 1010.76 471.327Z" fill="#A2C71E"/>
<path d="M985.573 451.76C955.662 457.215 932.349 466.755 933.502 473.06C933.545 473.302 933.63 473.536 933.746 473.763C934.76 476.29 935.775 478.821 936.789 481.348C938.084 484.58 941.035 486.852 944.492 487.269C956.851 488.755 973.956 489.356 993.743 485.625C1012.61 482.067 1027.78 475.728 1038.68 470.031C1042.66 467.954 1044.63 463.36 1043.41 459.04C1042.88 457.168 1042.36 455.299 1041.83 453.428C1041.83 453.384 1041.82 453.341 1041.81 453.299C1040.66 446.991 1015.48 446.301 985.573 451.76Z" fill="url(#paint30_linear_5199_5955)"/>
<path d="M1023.37 464.587C1038.01 459.275 1041.43 455.167 1041.14 453.575C1040.83 451.913 1036.43 449.865 1025.02 449.572C1014.41 449.299 1000.58 450.606 986.088 453.249C973.707 455.509 961.769 458.608 952.472 461.982C937.829 467.294 934.413 471.402 934.703 472.994C935.008 474.656 939.411 476.704 950.822 476.997C961.435 477.269 975.259 475.963 989.754 473.32C1002.13 471.06 1014.07 467.96 1023.37 464.587Z" fill="url(#paint31_radial_5199_5955)"/>
<path d="M995.536 458.264C996.421 458.484 1000.32 459.447 1000.42 461.039C1000.65 464.465 983.156 468.393 976.526 466.492C975.764 466.273 973.762 465.701 973.685 464.657C973.627 463.869 974.694 463.15 975.49 462.66C980.761 459.427 987.039 458.529 989.348 458.248C992.843 457.823 994.249 457.947 995.536 458.264Z" fill="#FFE6CC"/>
<path d="M1006.93 458.184C1006.4 457.695 1003.41 459.435 1003.56 459.857C1003.69 460.223 1006.37 460.076 1006.9 458.856C1006.93 458.798 1007.12 458.364 1006.93 458.184Z" fill="#063B01"/>
<path d="M988.455 471.087C988.24 471.512 987.635 471.861 987.189 471.743C986.157 471.469 985.996 468.71 986.585 468.463C987.149 468.228 989.005 470.002 988.455 471.087Z" fill="#063B01"/>
<path d="M1001.73 466.091C1001.73 466.472 1000.28 467.106 998.978 466.724C998.088 466.461 997.244 465.718 997.396 465.398C997.692 464.784 1001.73 465.456 1001.73 466.091Z" fill="#063B01"/>
<path d="M972.665 471.497C973.99 471.703 975.672 469.328 975.346 468.92C975.128 468.649 973.988 469.219 972.71 469.862C972.009 470.213 971.759 470.408 971.738 470.65C971.705 471.021 972.198 471.424 972.665 471.497Z" fill="#063B01"/>
<path d="M986.206 456.321C986.441 456.012 987.616 456.063 987.803 456.454C987.844 456.536 987.81 456.679 987.745 456.964C987.637 457.436 987.583 457.668 987.483 457.712C987.11 457.866 985.895 456.728 986.206 456.321Z" fill="#063B01"/>
<path d="M996.77 455.298C997.36 455.092 998.059 455.301 998.094 455.553C998.15 455.995 996.158 456.871 995.876 456.544C995.698 456.344 996.051 455.548 996.77 455.298Z" fill="#063B01"/>
<path d="M968.371 463.574C968.265 463.303 969.163 462.485 970.226 462.435C970.957 462.401 971.783 462.725 971.76 462.99C971.715 463.503 968.547 464.029 968.371 463.574Z" fill="#063B01"/>
<path d="M1002.5 456.163C1002.52 455.9 1002.03 455.585 1001.55 455.551C1000.37 455.47 999.255 457.172 999.459 457.415C999.505 457.469 999.602 457.427 1001.02 456.895C1002.21 456.443 1002.48 456.348 1002.5 456.163Z" fill="#A2C71E"/>
<path d="M978.193 458.219C977.687 457.895 976.945 457.948 976.837 458.185C976.645 458.602 978.296 459.872 978.672 459.613C978.9 459.459 978.81 458.615 978.193 458.219Z" fill="#063B01"/>
<path d="M971.201 460.406C971.122 460.159 971.541 459.719 971.996 459.565C973.136 459.178 974.57 460.55 974.424 460.837C974.392 460.901 974.288 460.883 972.8 460.732C971.538 460.605 971.253 460.581 971.201 460.406Z" fill="#A2C71E"/>
<path d="M995.946 468.577C995.814 469.109 994.19 469.609 993.157 468.984C992.177 468.392 991.952 466.917 992.378 466.599C992.624 466.413 993.085 466.626 993.792 466.948C994.52 467.28 996.088 468.003 995.946 468.577Z" fill="#A2C71E"/>
<path d="M1005.56 462.337C1005.69 462.584 1005.49 462.932 1005.32 463.112C1004.43 464.066 1001.69 463.152 1001.72 462.695C1001.76 462.193 1005.15 461.566 1005.56 462.337Z" fill="#A2C71E"/>
<path d="M981.354 457.44C981.426 457.194 981.899 456.914 982.258 456.896C983.156 456.853 983.39 458.473 983.156 458.693C983.103 458.742 983.05 458.698 982.191 458.162C981.47 457.707 981.305 457.611 981.354 457.44Z" fill="#A2C71E"/>
<path d="M979.486 471.482C979.67 471.874 980.889 471.954 981.609 471.379C982.494 470.67 982.387 469.153 981.961 468.987C981.709 468.888 981.326 469.251 980.674 469.872C979.946 470.558 979.33 471.143 979.486 471.482Z" fill="#A2C71E"/>
<path d="M991.611 455.401C991.89 455.277 992.394 455.173 992.551 455.369C992.839 455.731 991.947 457.11 991.414 457.039C991.112 456.999 990.857 456.491 990.971 456.054C991.084 455.636 991.501 455.448 991.611 455.401Z" fill="#A2C71E"/>
<path d="M968.359 466.194C968.238 466.455 968.449 466.781 968.623 466.942C969.547 467.801 972.256 466.598 972.203 466.143C972.147 465.652 968.736 465.382 968.359 466.194Z" fill="#A2C71E"/>
<path d="M985.297 439.049C1015.13 433.176 1040.32 433.519 1041.55 439.808C1041.6 440.049 1041.61 440.298 1041.58 440.551C1041.57 443.274 1041.55 446.001 1041.53 448.724C1041.51 452.205 1039.59 455.4 1036.53 457.055C1025.57 462.962 1009.87 469.783 990.096 473.555C971.235 477.151 954.798 476.806 942.567 475.495C938.105 475.019 934.593 471.464 934.143 466.999C933.947 465.064 933.752 463.132 933.56 461.197C933.548 461.155 933.536 461.113 933.528 461.072C932.286 454.779 955.466 444.919 985.297 439.049Z" fill="url(#paint32_linear_5199_5955)"/>
<path d="M1046.9 443.629L1040 446.018C1039.94 446.037 1039.91 446.105 1039.93 446.164C1039.95 446.216 1040 446.246 1040.05 446.238L1047.29 445.272C1047.76 445.21 1048.09 444.783 1048.03 444.318C1047.97 443.853 1047.54 443.528 1047.07 443.59C1047.01 443.598 1046.95 443.614 1046.9 443.629Z" fill="#F3C344"/>
<path d="M1046.14 453.025L1039.66 449.768C1039.53 449.701 1039.37 449.754 1039.3 449.883C1039.24 450 1039.28 450.139 1039.38 450.214L1045.24 454.463C1045.62 454.738 1046.16 454.656 1046.44 454.277C1046.72 453.901 1046.64 453.37 1046.26 453.096C1046.22 453.069 1046.18 453.045 1046.14 453.025Z" fill="#F3C344"/>
<path d="M955.239 464.437C939.668 464.855 934.985 462.282 934.673 460.694C934.348 459.036 937.695 455.518 948.207 451.068C957.984 446.929 971.326 443.084 985.782 440.237C998.131 437.808 1010.37 436.322 1020.26 436.057C1035.83 435.639 1040.52 438.212 1040.83 439.8C1041.15 441.458 1037.81 444.975 1027.29 449.425C1017.52 453.565 1004.18 457.41 989.719 460.257C977.37 462.686 965.123 464.172 955.239 464.437Z" fill="url(#paint33_radial_5199_5955)"/>
<path d="M978.82 448.364C978.077 448.893 974.802 451.215 975.289 452.736C976.334 456.006 994.049 453.257 999.523 449.062C1000.15 448.578 1001.81 447.313 1001.49 446.314C1001.26 445.559 1000 445.28 999.084 445.116C992.995 444.037 986.824 445.5 984.573 446.083C981.165 446.968 979.902 447.598 978.82 448.364Z" fill="#FFE6CC"/>
<path d="M968.197 452.463C968.506 451.816 971.931 452.338 971.943 452.787C971.953 453.176 969.408 454.02 968.463 453.08C968.42 453.032 968.084 452.697 968.197 452.463Z" fill="#063B01"/>
<path d="M990.106 457.703C990.462 458.02 991.149 458.124 991.524 457.851C992.384 457.217 991.524 454.591 990.885 454.577C990.278 454.565 989.196 456.896 990.106 457.703Z" fill="#063B01"/>
<path d="M975.926 457.918C976.065 458.272 977.646 458.332 978.718 457.5C979.45 456.929 979.964 455.929 979.705 455.687C979.204 455.223 975.693 457.328 975.926 457.918Z" fill="#063B01"/>
<path d="M1004.95 452.305C1003.79 452.981 1001.36 451.387 1001.51 450.888C1001.62 450.556 1002.88 450.669 1004.31 450.799C1005.09 450.869 1005.39 450.959 1005.5 451.178C1005.67 451.51 1005.36 452.069 1004.95 452.305Z" fill="#063B01"/>
<path d="M986.793 443.143C986.462 442.942 985.387 443.42 985.356 443.852C985.348 443.944 985.432 444.064 985.596 444.305C985.87 444.705 986.005 444.901 986.114 444.905C986.521 444.912 987.232 443.405 986.793 443.143Z" fill="#063B01"/>
<path d="M976.59 446.055C975.966 446.079 975.392 446.529 975.451 446.777C975.561 447.209 977.735 447.294 977.879 446.887C977.967 446.636 977.351 446.024 976.59 446.055Z" fill="#063B01"/>
<path d="M1006.04 443.36C1006.04 443.069 1004.91 442.636 1003.9 442.979C1003.21 443.215 1002.56 443.819 1002.68 444.058C1002.91 444.518 1006.05 443.848 1006.04 443.36Z" fill="#063B01"/>
<path d="M971.573 448.958C971.455 448.723 971.803 448.247 972.229 448.042C973.303 447.533 974.963 448.709 974.862 449.01C974.839 449.077 974.734 449.073 973.222 449.096C971.942 449.113 971.655 449.124 971.573 448.958Z" fill="#A2C71E"/>
<path d="M994.943 441.977C995.295 441.491 996.004 441.268 996.192 441.449C996.523 441.767 995.452 443.553 995.007 443.449C994.738 443.386 994.517 442.568 994.943 441.977Z" fill="#063B01"/>
<path d="M1002.26 441.448C1002.24 441.189 1001.69 440.933 1001.21 440.957C1000.01 441.013 999.174 442.815 999.415 443.029C999.469 443.077 999.558 443.022 1000.89 442.337C1002.01 441.756 1002.27 441.63 1002.26 441.448Z" fill="#A2C71E"/>
<path d="M982.215 458.111C982.532 458.559 984.227 458.429 984.959 457.469C985.654 456.556 985.324 455.105 984.811 454.964C984.514 454.881 984.163 455.248 983.624 455.807C983.071 456.386 981.876 457.629 982.215 458.111Z" fill="#A2C71E"/>
<path d="M970.985 455.822C970.954 456.101 971.266 456.352 971.486 456.458C972.666 457.019 974.886 455.164 974.686 454.751C974.47 454.298 971.081 454.96 970.985 455.822Z" fill="#A2C71E"/>
<path d="M991.721 442.404C991.565 442.201 991.022 442.114 990.681 442.228C989.829 442.518 990.205 444.111 990.503 444.23C990.571 444.256 990.604 444.195 991.207 443.383C991.711 442.699 991.83 442.545 991.721 442.404Z" fill="#A2C71E"/>
<path d="M998.596 454.788C998.569 455.22 997.464 455.741 996.583 455.47C995.5 455.134 995.044 453.683 995.379 453.372C995.578 453.188 996.067 453.385 996.901 453.724C997.83 454.096 998.617 454.415 998.596 454.788Z" fill="#A2C71E"/>
<path d="M981.429 444.262C981.123 444.249 980.617 444.337 980.543 444.577C980.407 445.02 981.742 445.977 982.212 445.715C982.478 445.568 982.53 445.001 982.264 444.636C982.002 444.289 981.549 444.27 981.429 444.262Z" fill="#A2C71E"/>
<path d="M1007.02 445.794C1007.23 445.991 1007.15 446.373 1007.05 446.586C1006.5 447.723 1003.54 447.596 1003.42 447.153C1003.29 446.676 1006.37 445.179 1007.02 445.794Z" fill="#A2C71E"/>
<path d="M1040.88 437.99C1039.07 433.549 1037.26 429.105 1035.46 424.664C1024.99 398.463 995.201 378.651 967.213 389.114C965.833 389.618 965.144 389.87 963.764 390.374C936.894 399.954 926.555 431.694 933.402 457.855L933.461 457.845C933.464 457.862 933.467 457.88 933.469 457.898C933.788 459.648 938.274 461.781 949.86 462.024C960.524 462.248 974.412 460.873 988.97 458.151C1001.33 455.842 1013.26 452.697 1022.58 449.296C1036.24 444.307 1040.88 440.145 1040.74 438.014L1040.88 437.99Z" fill="url(#paint34_linear_5199_5955)"/>
<path d="M927.833 456.696L934.977 455.177C935.04 455.165 935.099 455.203 935.114 455.265C935.127 455.32 935.097 455.372 935.049 455.393L928.359 458.322C927.924 458.51 927.419 458.314 927.23 457.879C927.042 457.444 927.238 456.939 927.673 456.75C927.72 456.725 927.777 456.708 927.833 456.696Z" fill="#F3C344"/>
<path d="M929.129 447.277L935.266 451.23C935.331 451.274 935.351 451.36 935.307 451.424C935.269 451.483 935.197 451.502 935.137 451.479L928.347 448.795C927.906 448.62 927.691 448.123 927.866 447.682C928.041 447.241 928.537 447.026 928.978 447.201C929.031 447.223 929.082 447.249 929.129 447.277Z" fill="#F3C344"/>
<path d="M977.302 379.679L977.637 386.976C977.641 387.038 977.59 387.094 977.527 387.095C977.472 387.097 977.425 387.061 977.41 387.011L975.613 379.93C975.498 379.472 975.775 379.005 976.232 378.886C976.69 378.771 977.158 379.049 977.276 379.506C977.293 379.563 977.3 379.624 977.302 379.679Z" fill="#F3C344"/>
<path d="M986.387 382.489L981.485 387.901C981.432 387.958 981.344 387.964 981.287 387.91C981.237 387.865 981.228 387.79 981.26 387.733L985.014 381.471C985.258 381.064 985.785 380.932 986.191 381.175C986.597 381.419 986.73 381.946 986.486 382.352C986.46 382.403 986.421 382.45 986.387 382.489Z" fill="#F3C344"/>
<path d="M968.758 383.886L974.245 388.686C974.355 388.784 974.368 388.951 974.27 389.061C974.183 389.16 974.037 389.18 973.926 389.112L967.743 385.258C967.342 385.008 967.219 384.478 967.469 384.077C967.718 383.676 968.248 383.553 968.649 383.803C968.684 383.827 968.725 383.857 968.758 383.886Z" fill="#F3C344"/>
<path d="M975.593 445.36C973.365 445.629 971.775 447.654 972.043 449.883C972.312 452.111 974.338 453.701 976.566 453.432C978.794 453.164 980.384 451.138 980.116 448.91C979.849 446.677 977.825 445.09 975.593 445.36ZM972.791 449.793C972.572 447.976 973.868 446.322 975.685 446.103C977.502 445.884 979.156 447.181 979.375 448.998L972.791 449.793Z" fill="#C4CF4D"/>
<path d="M999.206 442.506C996.978 442.774 995.388 444.8 995.657 447.028C995.925 449.256 997.951 450.847 1000.18 450.578C1002.41 450.309 1004 448.284 1003.73 446.056C1003.46 443.824 1001.43 442.237 999.206 442.506ZM996.401 446.939C996.182 445.122 997.478 443.469 999.295 443.25C1001.11 443.031 1002.77 444.328 1002.98 446.144L996.401 446.939Z" fill="#C4CF4D"/>
<path d="M986.315 451.041C986.136 449.915 986.997 447.599 988.188 448.09C989.097 448.464 990.211 450.462 990.252 451.504C990.33 453.465 986.62 452.979 986.315 451.041Z" fill="#C4CF4D"/>
<defs>
<radialGradient id="paint0_radial_5199_5955" cx="0" cy="0" r="1" gradientUnits="userSpaceOnUse" gradientTransform="translate(337.003 821.633) scale(83.6325 82.7766)">
<stop stop-color="#F3EBD9"/>
<stop offset="0.4134" stop-color="#F4EAD7"/>
<stop offset="0.6395" stop-color="#F6E7CF"/>
<stop offset="0.8198" stop-color="#F9E2C1"/>
<stop offset="0.9759" stop-color="#FEDAAE"/>
<stop offset="1" stop-color="#FFD9AA"/>
</radialGradient>
<radialGradient id="paint1_radial_5199_5955" cx="0" cy="0" r="1" gradientUnits="userSpaceOnUse" gradientTransform="translate(444.332 819.608) scale(85.6536 84.777)">
<stop stop-color="#F3EBD9"/>
<stop offset="0.4134" stop-color="#F4EAD7"/>
<stop offset="0.6395" stop-color="#F6E7CF"/>
<stop offset="0.8198" stop-color="#F9E2C1"/>
<stop offset="0.9759" stop-color="#FEDAAE"/>
<stop offset="1" stop-color="#FFD9AA"/>
</radialGradient>
<radialGradient id="paint2_radial_5199_5955" cx="0" cy="0" r="1" gradientUnits="userSpaceOnUse" gradientTransform="translate(395.778 765.717) scale(102.338 101.291)">
<stop stop-color="#F3EBDA"/>
<stop offset="0.416" stop-color="#F4EAD8"/>
<stop offset="0.6436" stop-color="#F6E7D0"/>
<stop offset="0.825" stop-color="#F9E2C2"/>
<stop offset="0.9821" stop-color="#FEDBAF"/>
<stop offset="1" stop-color="#FFDAAC"/>
</radialGradient>
<radialGradient id="paint3_radial_5199_5955" cx="0" cy="0" r="1" gradientUnits="userSpaceOnUse" gradientTransform="translate(595.376 666.26) rotate(26.7617) scale(70.1352 94.1029)">
<stop stop-color="#5AA668"/>
<stop offset="0.4873" stop-color="#56965F"/>
<stop offset="1" stop-color="#508054"/>
</radialGradient>
<radialGradient id="paint4_radial_5199_5955" cx="0" cy="0" r="1" gradientUnits="userSpaceOnUse" gradientTransform="translate(574.387 825.253) rotate(-105.684) scale(35.8657 62.6165)">
<stop stop-color="#C8DE90"/>
<stop offset="0.457" stop-color="#B8DE8E"/>
<stop offset="1" stop-color="#9FDE8C"/>
</radialGradient>
<radialGradient id="paint5_radial_5199_5955" cx="0" cy="0" r="1" gradientUnits="userSpaceOnUse" gradientTransform="translate(484.251 768.985) rotate(-29.2133) scale(28.2303 49.2861)">
<stop stop-color="#C8DE90"/>
<stop offset="0.457" stop-color="#B8DE8E"/>
<stop offset="1" stop-color="#9FDE8C"/>
</radialGradient>
<radialGradient id="paint6_radial_5199_5955" cx="0" cy="0" r="1" gradientUnits="userSpaceOnUse" gradientTransform="translate(351.428 799.181) rotate(-29.2133) scale(64.944 113.383)">
<stop stop-color="#C8DE90"/>
<stop offset="0.457" stop-color="#B8DE8E"/>
<stop offset="1" stop-color="#9FDE8C"/>
</radialGradient>
<radialGradient id="paint7_radial_5199_5955" cx="0" cy="0" r="1" gradientUnits="userSpaceOnUse" gradientTransform="translate(507.929 793.791) rotate(-29.2133) scale(34.1917 59.6939)">
<stop stop-color="#C8DE90"/>
<stop offset="0.457" stop-color="#B8DE8E"/>
<stop offset="1" stop-color="#9FDE8C"/>
</radialGradient>
<radialGradient id="paint8_radial_5199_5955" cx="0" cy="0" r="1" gradientUnits="userSpaceOnUse" gradientTransform="translate(692.419 872.835) rotate(-105.684) scale(58.8866 102.808)">
<stop stop-color="#C8DE90"/>
<stop offset="0.457" stop-color="#B8DE8E"/>
<stop offset="1" stop-color="#9FDE8C"/>
</radialGradient>
<radialGradient id="paint9_radial_5199_5955" cx="0" cy="0" r="1" gradientUnits="userSpaceOnUse" gradientTransform="translate(683.555 940.032) rotate(-105.684) scale(68.3297 119.294)">
<stop stop-color="#C8DE90"/>
<stop offset="0.457" stop-color="#B8DE8E"/>
<stop offset="1" stop-color="#9FDE8C"/>
</radialGradient>
<radialGradient id="paint10_radial_5199_5955" cx="0" cy="0" r="1" gradientUnits="userSpaceOnUse" gradientTransform="translate(616.301 860.123) rotate(-105.684) scale(39.4732 68.9148)">
<stop stop-color="#C8DE90"/>
<stop offset="0.457" stop-color="#B8DE8E"/>
<stop offset="1" stop-color="#9FDE8C"/>
</radialGradient>
<radialGradient id="paint11_radial_5199_5955" cx="0" cy="0" r="1" gradientUnits="userSpaceOnUse" gradientTransform="translate(574.643 737.977) rotate(-57.4006) scale(99.7179 131.802)">
<stop stop-color="#C8DE90"/>
<stop offset="0.457" stop-color="#B8DE8E"/>
<stop offset="1" stop-color="#9FDE8C"/>
</radialGradient>
<radialGradient id="paint12_radial_5199_5955" cx="0" cy="0" r="1" gradientUnits="userSpaceOnUse" gradientTransform="translate(560.212 724.286) rotate(-78.7637) scale(93.9384 124.178)">
<stop stop-color="#C8DE90"/>
<stop offset="0.457" stop-color="#B8DE8E"/>
<stop offset="1" stop-color="#9FDE8C"/>
</radialGradient>
<radialGradient id="paint13_radial_5199_5955" cx="0" cy="0" r="1" gradientUnits="userSpaceOnUse" gradientTransform="translate(596.578 644.709) rotate(16.2317) scale(58.9818 91.0862)">
<stop stop-color="#4CCC4F"/>
<stop offset="0.4873" stop-color="#56BC5E"/>
<stop offset="1" stop-color="#64A671"/>
</radialGradient>
<radialGradient id="paint14_radial_5199_5955" cx="0" cy="0" r="1" gradientUnits="userSpaceOnUse" gradientTransform="translate(579.899 686.634) rotate(-80.2923) scale(22.4 38.9066)">
<stop stop-color="#E6FFA6"/>
<stop offset="0.4072" stop-color="#D6FFA4"/>
<stop offset="1" stop-color="#B7FFA1"/>
</radialGradient>
<radialGradient id="paint15_radial_5199_5955" cx="0" cy="0" r="1" gradientUnits="userSpaceOnUse" gradientTransform="translate(579.9 686.634) rotate(-80.2922) scale(22.4 38.9065)">
<stop stop-color="#E6FFA6"/>
<stop offset="0.4072" stop-color="#D6FFA4"/>
<stop offset="1" stop-color="#B7FFA1"/>
</radialGradient>
<radialGradient id="paint16_radial_5199_5955" cx="0" cy="0" r="1" gradientUnits="userSpaceOnUse" gradientTransform="translate(579.9 686.634) rotate(-80.2923) scale(22.4 38.9066)">
<stop stop-color="#E6FFA6"/>
<stop offset="0.4072" stop-color="#D6FFA4"/>
<stop offset="1" stop-color="#B7FFA1"/>
</radialGradient>
<radialGradient id="paint17_radial_5199_5955" cx="0" cy="0" r="1" gradientUnits="userSpaceOnUse" gradientTransform="translate(579.9 686.633) rotate(-80.2923) scale(22.4 38.9066)">
<stop stop-color="#E6FFA6"/>
<stop offset="0.4072" stop-color="#D6FFA4"/>
<stop offset="1" stop-color="#B7FFA1"/>
</radialGradient>
<radialGradient id="paint18_radial_5199_5955" cx="0" cy="0" r="1" gradientUnits="userSpaceOnUse" gradientTransform="translate(582.33 691.557) rotate(-91.5728) scale(22.3818 38.944)">
<stop stop-color="#E6FFA6"/>
<stop offset="0.4072" stop-color="#D6FFA4"/>
<stop offset="1" stop-color="#B7FFA1"/>
</radialGradient>
<radialGradient id="paint19_radial_5199_5955" cx="0" cy="0" r="1" gradientUnits="userSpaceOnUse" gradientTransform="translate(579.9 686.633) rotate(-80.2922) scale(22.4 38.9066)">
<stop stop-color="#E6FFA6"/>
<stop offset="0.4072" stop-color="#D6FFA4"/>
<stop offset="1" stop-color="#B7FFA1"/>
</radialGradient>
<radialGradient id="paint20_radial_5199_5955" cx="0" cy="0" r="1" gradientUnits="userSpaceOnUse" gradientTransform="translate(579.899 686.634) rotate(-80.2923) scale(22.4 38.9066)">
<stop stop-color="#E6FFA6"/>
<stop offset="0.4072" stop-color="#D6FFA4"/>
<stop offset="1" stop-color="#B7FFA1"/>
</radialGradient>
<radialGradient id="paint21_radial_5199_5955" cx="0" cy="0" r="1" gradientUnits="userSpaceOnUse" gradientTransform="translate(579.899 686.634) rotate(-80.2923) scale(22.4 38.9066)">
<stop stop-color="#E6FFA6"/>
<stop offset="0.4072" stop-color="#D6FFA4"/>
<stop offset="1" stop-color="#B7FFA1"/>
</radialGradient>
<radialGradient id="paint22_radial_5199_5955" cx="0" cy="0" r="1" gradientUnits="userSpaceOnUse" gradientTransform="translate(563.728 755.162) rotate(-65.6046) scale(83.7777 110.679)">
<stop stop-color="#E6FFA6"/>
<stop offset="0.4072" stop-color="#D6FFA4"/>
<stop offset="1" stop-color="#B7FFA1"/>
</radialGradient>
<linearGradient id="paint23_linear_5199_5955" x1="717.716" y1="614.074" x2="727.529" y2="608.671" gradientUnits="userSpaceOnUse">
<stop stop-color="#FFB5B5"/>
<stop offset="0.1947" stop-color="#FFB7AB"/>
<stop offset="0.5228" stop-color="#FFBD91"/>
<stop offset="0.9419" stop-color="#FEC766"/>
<stop offset="1" stop-color="#FEC860"/>
</linearGradient>
<linearGradient id="paint24_linear_5199_5955" x1="747.364" y1="502.533" x2="762.651" y2="526.772" gradientUnits="userSpaceOnUse">
<stop stop-color="#FFB5B5"/>
<stop offset="0.1947" stop-color="#FFB7AB"/>
<stop offset="0.5228" stop-color="#FFBD91"/>
<stop offset="0.9419" stop-color="#FEC766"/>
<stop offset="1" stop-color="#FEC860"/>
</linearGradient>
<radialGradient id="paint25_radial_5199_5955" cx="0" cy="0" r="1" gradientUnits="userSpaceOnUse" gradientTransform="translate(783.255 612.201) scale(57.8517 58.1775)">
<stop stop-color="#FFDF9C"/>
<stop offset="0.2933" stop-color="#FCD894"/>
<stop offset="0.7483" stop-color="#F5C67E"/>
<stop offset="1" stop-color="#F0BA6F"/>
</radialGradient>
<linearGradient id="paint26_linear_5199_5955" x1="842.119" y1="534.043" x2="801.249" y2="549.974" gradientUnits="userSpaceOnUse">
<stop stop-color="white"/>
<stop offset="0.2538" stop-color="#FFB5B5"/>
<stop offset="0.3991" stop-color="#FFB7AB"/>
<stop offset="0.6439" stop-color="#FFBD91"/>
<stop offset="0.9567" stop-color="#FEC766"/>
<stop offset="1" stop-color="#FEC860"/>
</linearGradient>
<linearGradient id="paint27_linear_5199_5955" x1="992.846" y1="515.423" x2="989.903" y2="405.645" gradientUnits="userSpaceOnUse">
<stop stop-color="#6A4727"/>
<stop offset="0.1931" stop-color="#734D2A"/>
<stop offset="0.5059" stop-color="#8B5E31"/>
<stop offset="0.8973" stop-color="#B27A3D"/>
<stop offset="1" stop-color="#BD8240"/>
</linearGradient>
<linearGradient id="paint28_linear_5199_5955" x1="936.751" y1="477.246" x2="1046.23" y2="474.311" gradientUnits="userSpaceOnUse">
<stop stop-color="#6A4727"/>
<stop offset="0.1931" stop-color="#734D2A"/>
<stop offset="0.5059" stop-color="#8B5E31"/>
<stop offset="0.8973" stop-color="#B27A3D"/>
<stop offset="1" stop-color="#BD8240"/>
</linearGradient>
<radialGradient id="paint29_radial_5199_5955" cx="0" cy="0" r="1" gradientUnits="userSpaceOnUse" gradientTransform="translate(991.478 475.789) rotate(-11.2248) scale(53.5846 10.6711)">
<stop stop-color="#C4CF4D"/>
<stop offset="0.2634" stop-color="#C6D24D"/>
<stop offset="0.4274" stop-color="#CCDA4E"/>
<stop offset="0.5637" stop-color="#D5E950"/>
<stop offset="0.6193" stop-color="#DBF151"/>
<stop offset="1" stop-color="#C4CF4D"/>
</radialGradient>
<linearGradient id="paint30_linear_5199_5955" x1="938.409" y1="486.686" x2="1040.52" y2="449.642" gradientUnits="userSpaceOnUse">
<stop stop-color="#6A4727"/>
<stop offset="0.1931" stop-color="#734D2A"/>
<stop offset="0.5059" stop-color="#8B5E31"/>
<stop offset="0.8973" stop-color="#B27A3D"/>
<stop offset="1" stop-color="#BD8240"/>
</linearGradient>
<radialGradient id="paint31_radial_5199_5955" cx="0" cy="0" r="1" gradientUnits="userSpaceOnUse" gradientTransform="translate(988.062 463.37) rotate(169.75) scale(53.5846 10.6711)">
<stop stop-color="#C4CF4D"/>
<stop offset="0.2634" stop-color="#C6D24D"/>
<stop offset="0.4274" stop-color="#CCDA4E"/>
<stop offset="0.5637" stop-color="#D5E950"/>
<stop offset="0.6193" stop-color="#DBF151"/>
<stop offset="1" stop-color="#C4CF4D"/>
</radialGradient>
<linearGradient id="paint32_linear_5199_5955" x1="1041.97" y1="454.285" x2="933.386" y2="457.195" gradientUnits="userSpaceOnUse">
<stop stop-color="#6A4727"/>
<stop offset="0.1931" stop-color="#734D2A"/>
<stop offset="0.5059" stop-color="#8B5E31"/>
<stop offset="0.8973" stop-color="#B27A3D"/>
<stop offset="1" stop-color="#BD8240"/>
</linearGradient>
<radialGradient id="paint33_radial_5199_5955" cx="0" cy="0" r="1" gradientUnits="userSpaceOnUse" gradientTransform="translate(987.737 450.257) rotate(-11.2248) scale(53.5846 10.6711)">
<stop stop-color="#C4CF4D"/>
<stop offset="0.2634" stop-color="#C6D24D"/>
<stop offset="0.4274" stop-color="#CCDA4E"/>
<stop offset="0.5637" stop-color="#D5E950"/>
<stop offset="0.6193" stop-color="#DBF151"/>
<stop offset="1" stop-color="#C4CF4D"/>
</radialGradient>
<linearGradient id="paint34_linear_5199_5955" x1="1012.99" y1="518.723" x2="973.027" y2="409.276" gradientUnits="userSpaceOnUse">
<stop stop-color="#6A4727"/>
<stop offset="0.1931" stop-color="#734D2A"/>
<stop offset="0.5059" stop-color="#8B5E31"/>
<stop offset="0.8973" stop-color="#B27A3D"/>
<stop offset="1" stop-color="#BD8240"/>
</linearGradient>
</defs>
</svg>
