<svg width="1342" height="1024" viewBox="0 0 1342 1024" fill="none" xmlns="http://www.w3.org/2000/svg">
<path d="M972.922 399.431L169 867.129L388.777 996L1171.01 535.542C1176.79 511.216 1168.6 498.377 1163.78 494.998C1115.58 466.487 1015.72 407.457 1001.84 399.431C987.959 391.406 976.778 396.087 972.922 399.431Z" fill="#F4EFEF" stroke="black" stroke-linejoin="round"/>
<path d="M759 554C775.24 560.859 843.1 600.858 875 620" stroke="black"/>
<path d="M249 850.714C265.24 857.677 333.1 898.282 365 917.714" stroke="black"/>
<path d="M844 504C860.24 510.963 928.1 551.568 960 571" stroke="black"/>
<path d="M334 801.571C350.24 808.43 418.1 848.429 450 867.571" stroke="black"/>
<path d="M929 455C945.24 461.859 1013.1 501.858 1045 521" stroke="black"/>
<path d="M419 752.429C435.24 759.288 503.1 799.287 535 818.429" stroke="black"/>
<path d="M504 703.286C520.24 710.145 588.1 750.144 620 769.286" stroke="black"/>
<path d="M589 653.143C605.38 660.105 673.825 700.711 706 720.143" stroke="black"/>
<path d="M675 603C691.1 609.963 758.375 650.568 790 670" stroke="black"/>
<path d="M341.037 967.974L1163 497" stroke="black"/>
<ellipse cx="535.093" cy="883.231" rx="17.7269" ry="12.8657" transform="rotate(-54.8943 535.093 883.231)" fill="#8FE3C1"/>
<ellipse cx="826.042" cy="715.487" rx="17.7269" ry="12.8657" transform="rotate(-54.8943 826.042 715.487)" fill="#8FE3C1"/>
<ellipse cx="973.554" cy="631.609" rx="17.7269" ry="12.8657" transform="rotate(-54.8943 973.554 631.609)" fill="#8FE3C1"/>
<ellipse cx="1118.17" cy="547.73" rx="17.7269" ry="12.8657" transform="rotate(-54.8943 1118.17 547.73)" fill="#8FE3C1"/>
<ellipse cx="681.423" cy="799.366" rx="17.7269" ry="12.8657" transform="rotate(-54.8943 681.423 799.366)" fill="#8FE3C1"/>
<path d="M423.849 750.221C423.358 744.502 421.751 739.937 420.375 736.864C420.583 734.716 420.73 730.173 418.505 725.11C415.951 719.296 411.747 716.152 409.957 714.959C406.533 705.689 401.904 701.893 398.336 700.135C396.406 699.184 389.991 695.262 383.243 696.795C370.678 699.651 371.394 717.735 359.53 723.969C353.484 727.145 343.357 727.671 325.363 717.026C315.71 714.861 306.481 718.289 302.495 725.11C299.782 729.752 300.26 734.667 300.625 736.864C299.249 739.934 297.645 744.502 297.151 750.221C296.403 758.905 298.603 765.789 300.088 769.452C298.849 783.217 302.663 791.564 305.081 795.627C310.762 805.17 317.58 810.904 317.58 810.904C318.962 813.107 320.935 816.598 322.58 821.181C324.458 826.405 324.156 828.163 325.637 830.903C328.83 836.815 335.778 838.875 339.802 840.068C351.901 843.653 356.821 838.405 364.523 843.124C369.727 846.313 368.951 849.608 373.134 850.622C382.093 852.794 392.125 839.236 393.132 837.847C397.051 832.433 398.736 827.079 399.522 823.682C404.357 818.107 411.235 808.77 415.909 795.63C419.596 785.269 420.667 776.042 420.902 769.456C422.397 765.789 424.597 758.905 423.849 750.221Z" fill="url(#paint0_radial_5199_7736)"/>
<path d="M335.364 809.514C338.68 805.167 342.231 799.679 345.301 792.991C346.635 790.086 347.726 787.286 348.617 784.651C348.017 784.865 347.417 785.079 346.817 785.297C346.512 786.125 346.136 787.027 345.68 787.974C345.213 788.942 344.673 789.942 344.038 790.949C340.554 796.472 335.859 799.795 332.314 801.739C333.329 804.331 334.346 806.921 335.364 809.514Z" fill="url(#paint1_radial_5199_7736)"/>
<path d="M330.085 810.626C325.668 807.651 318.874 802.107 314.162 792.995C312.632 790.038 311.579 787.203 310.846 784.655C311.446 784.869 312.046 785.083 312.646 785.301C313.969 788.427 316.299 792.887 320.362 797.297C323.306 800.49 326.296 802.721 328.696 804.241C329.159 806.367 329.622 808.497 330.085 810.626Z" fill="url(#paint2_radial_5199_7736)"/>
<path d="M324.531 782.851C320.728 777.178 316.499 769.666 313.141 760.354C311.127 754.768 309.794 749.554 308.902 744.937C309.502 745.151 310.102 745.365 310.702 745.582C311.878 749.782 313.738 754.999 316.752 760.634C319.675 766.097 322.872 770.43 325.64 773.687C325.272 776.739 324.9 779.795 324.531 782.851Z" fill="url(#paint3_radial_5199_7736)"/>
<path d="M385.639 808.96C381.766 804.448 377.449 798.43 373.884 790.771C372.53 787.862 371.442 785.062 370.568 782.431C371.168 782.645 371.768 782.859 372.368 783.076C372.674 783.904 373.049 784.806 373.505 785.753C373.505 785.753 374.214 787.22 375.148 788.729C376.344 790.655 380.716 795.785 387.303 802.016C386.752 804.332 386.194 806.644 385.639 808.96Z" fill="url(#paint4_radial_5199_7736)"/>
<path d="M392.585 746.189C395.547 740.94 398.627 734.102 400.575 725.779C401.249 722.895 401.715 720.151 402.028 717.583C401.379 717.674 400.733 717.769 400.084 717.86C400.014 719.632 399.792 721.611 399.308 723.737C397.701 730.804 394.024 735.821 391.473 738.691C391.845 741.189 392.213 743.687 392.585 746.189Z" fill="url(#paint5_radial_5199_7736)"/>
<path d="M395.917 777.852C398.868 774.74 403.1 769.509 406.195 762.021C409.873 753.123 410.224 745.197 410.083 740.636C409.529 740.727 408.971 740.822 408.416 740.913C408.146 744.586 407.237 750.53 403.971 757.021C401.311 762.312 398.047 766.052 395.637 768.41C395.731 771.558 395.823 774.705 395.917 777.852Z" fill="url(#paint6_radial_5199_7736)"/>
<path d="M390.082 808.96C393.742 806.518 400.423 801.318 405.083 792.294C407.841 786.95 409.006 781.985 409.529 778.406C408.88 778.683 408.234 778.961 407.585 779.238C406.929 781.894 405.672 785.613 403.139 789.515C399.314 795.409 394.524 798.721 391.749 800.346C391.194 803.22 390.64 806.09 390.082 808.96Z" fill="url(#paint7_radial_5199_7736)"/>
<path d="M390.083 776.185C390.434 767.515 389.929 761.361 389.251 753.133C387.855 736.182 385.149 722.299 382.862 712.583C383.234 711.752 383.602 710.917 383.974 710.085C391.834 732.874 406.793 787.346 381.476 838.958C377.76 846.533 373.51 853.365 368.977 859.512C367.124 855.252 365.275 850.993 363.422 846.737C365.201 844.863 367.415 842.376 369.949 838.951C369.949 838.951 374.63 832.723 378.37 825.559C382.697 817.275 388.287 799.668 390.083 776.185Z" fill="url(#paint8_radial_5199_7736)"/>
<path d="M341.476 729.247C339.718 728.32 337.956 727.394 336.198 726.468C333.138 732.864 309.968 783.245 335.366 825.068C341.44 835.068 349.062 842.555 356.476 848.12C355.922 843.12 355.364 838.121 354.81 833.121C348.813 828.1 344.549 822.879 341.476 818.121C318.46 782.529 338.282 736.39 341.476 729.247Z" fill="url(#paint9_radial_5199_7736)"/>
<path d="M353.694 835.068C353.062 835.068 352.459 834.801 352.038 834.324C345.781 827.31 342.321 820.145 341.76 813.023C341.693 812.195 341.669 811.381 341.644 810.595C341.56 808.012 341.483 805.574 340.048 802.742C338.658 799.998 336.823 798.539 334.496 796.69C333.872 796.192 333.223 795.676 332.542 795.104C332.251 794.862 325.366 789.016 319.562 779.262C315.218 771.964 313.376 762.645 314.218 752.284C311.755 745.983 310.755 739.162 311.323 732.527C311.723 727.867 312.878 723.313 314.748 718.983C314.523 715.92 314.755 711.475 316.846 706.714C319.183 701.398 322.783 698.009 325.598 696.019C328.521 688.447 332.714 683.276 338.069 680.637C340.858 679.262 342.988 679.055 345.241 678.834C347.339 678.627 349.718 678.395 353.452 677.178C357.564 675.837 359.863 674.441 361.709 673.322C363.554 672.199 365.151 671.23 367.379 671.23C367.842 671.23 368.309 671.273 368.807 671.357C376.657 672.701 380.531 683.163 382.847 689.416C385.184 695.724 386.296 702.401 386.163 709.268C387.156 711.415 387.9 713.668 388.377 715.969C389.163 719.766 389.222 723.643 388.559 727.509C390.166 729.808 391.43 732.306 392.314 734.948C393.781 739.32 394.181 744.06 393.486 748.723C397.283 754.06 402.578 763.852 399.977 774.385C399.918 774.627 399.816 774.859 399.679 775.069C395.858 780.911 391.521 785.876 386.78 789.83C383.885 792.248 381.615 794.213 377.095 798.132C372.836 801.823 372.404 802.276 372.099 802.939C371.179 804.935 371.607 806.644 372.509 809.735C373.099 811.752 373.765 814.04 373.962 816.851C374.323 822.022 372.916 827.401 369.783 832.836C369.418 833.471 368.762 833.885 368.032 833.941L353.866 835.054C353.813 835.064 353.754 835.068 353.694 835.068Z" fill="url(#paint10_radial_5199_7736)"/>
<path d="M340.389 731.786C343.596 734.362 346.772 735.79 349.07 736.593C349.158 735.302 349.249 734.011 349.337 732.72C347.435 732.351 344.294 731.488 341.056 729.246C336.848 726.337 334.743 722.674 333.841 720.832C333.041 720.432 332.238 720.032 331.438 719.629C332.532 722.348 335.038 727.488 340.389 731.786Z" fill="url(#paint11_radial_5199_7736)"/>
<path d="M357.887 713.356C360.318 712.865 363.705 711.9 367.371 709.882C370.561 708.128 372.94 706.142 374.586 704.539C373.961 704.405 373.34 704.272 372.716 704.139C371.323 705.223 369.547 706.412 367.371 707.479C363.88 709.188 360.659 709.938 358.29 710.282C358.153 711.307 358.02 712.331 357.887 713.356Z" fill="url(#paint12_radial_5199_7736)"/>
<path d="M356.818 759.835C356.997 762.329 357.176 764.82 357.352 767.315C360.664 766.241 365.696 764.171 370.844 760.101C376.318 755.775 379.595 751.031 381.395 747.947C380.462 748.168 379.525 748.393 378.592 748.614C376.342 751.133 372.118 755.151 365.636 757.694C362.296 759.01 359.236 759.585 356.818 759.835Z" fill="url(#paint13_radial_5199_7736)"/>
<path d="M355.484 732.99C355.351 734.148 355.217 735.306 355.084 736.464C357.603 735.727 360.533 734.636 363.632 732.99C369.713 729.762 373.931 725.734 376.587 722.706C375.829 722.927 375.075 723.152 374.317 723.373C371.562 725.646 367.751 728.295 362.828 730.45C360.186 731.611 357.698 732.418 355.484 732.99Z" fill="url(#paint14_radial_5199_7736)"/>
<path d="M381.502 766.806C379.67 769.831 375.905 775.094 369.252 779.073C365.519 781.308 361.985 782.472 359.301 783.114C359.543 785.592 359.782 788.072 360.024 790.549C363.417 788.977 367.824 786.483 372.27 782.553C378.898 776.69 382.572 770.308 384.516 766.199C383.513 766.403 382.506 766.606 381.502 766.806Z" fill="url(#paint15_radial_5199_7736)"/>
<path d="M344.396 707.345C347.312 710.703 350.775 712.04 352.41 712.555C352.677 711.576 352.944 710.597 353.21 709.619C351.817 709.292 348.821 708.387 346.133 705.745C342.438 702.117 341.848 697.689 341.725 696.394C341.192 695.949 340.655 695.503 340.122 695.058C340.076 696.51 340.059 702.352 344.396 707.345Z" fill="url(#paint16_radial_5199_7736)"/>
<path d="M351.476 767.715C351.119 764.953 350.764 762.196 350.406 759.434C348.006 758.578 345.125 757.284 342.125 755.294C336.188 751.357 332.609 746.572 330.637 743.407C329.791 743.361 328.945 743.319 328.1 743.273C330.352 747.663 334.156 753.75 340.388 759.568C344.322 763.238 348.217 765.859 351.476 767.715Z" fill="url(#paint17_radial_5199_7736)"/>
<path d="M353.48 783.606C349.883 782.09 345.767 780.027 341.458 777.195C334.476 772.603 329.37 767.557 325.829 763.438C325.029 763.392 324.226 763.35 323.426 763.305C326.247 768.076 331.096 774.922 338.921 781.202C344.434 785.627 349.799 788.462 354.014 790.283C353.835 788.058 353.659 785.834 353.48 783.606Z" fill="url(#paint18_radial_5199_7736)"/>
<path d="M355.365 735.082C355.221 719.142 358.291 705.479 358.291 705.479C360.126 697.307 362.481 690.823 364.169 686.648L362.565 686.248C360.934 689.887 358.579 695.5 356.288 702.542C356.288 702.542 351.484 717.307 349.256 734.808C347.01 752.439 346.817 803.43 352.059 872.193C352.561 878.751 358.288 883.782 364.839 883.182C365.014 883.165 365.19 883.147 365.365 883.126C365.541 883.105 365.72 883.077 365.892 883.049C373.506 881.807 378.384 874.228 376.64 866.713C357.554 784.519 355.498 750.032 355.365 735.082Z" fill="url(#paint19_radial_5199_7736)"/>
<path d="M351.403 747.077C351.248 748.593 355.154 751.487 358.87 750.224C361.653 749.277 363.6 746.249 362.905 744.989C361.684 742.782 351.641 744.754 351.403 747.077Z" fill="#534741"/>
<path d="M346.265 742.695C344.233 741.071 341.268 741.404 339.644 743.436C338.019 745.467 338.352 748.432 340.384 750.057C342.416 751.681 345.381 751.348 347.006 749.316C348.63 747.285 348.3 744.32 346.265 742.695ZM346.328 748.776C345.002 750.435 342.584 750.702 340.928 749.379L345.725 743.376C347.384 744.699 347.655 747.116 346.328 748.776Z" fill="#534741"/>
<path d="M373.658 739.636C371.626 738.011 368.661 738.345 367.036 740.376C365.412 742.408 365.745 745.372 367.777 746.997C369.808 748.621 372.773 748.288 374.398 746.257C376.023 744.222 375.689 741.26 373.658 739.636ZM373.721 745.713C372.394 747.372 369.977 747.639 368.321 746.316L373.117 740.313C374.774 741.639 375.044 744.057 373.721 745.713Z" fill="#534741"/>
<path d="M249.741 899.269L183.44 889.636C178.816 888.963 174.114 888.886 169.469 889.407C130.514 893.755 91.5556 898.101 52.6009 902.449C48.8345 902.87 46 905.811 46 909.305V967.857C46 970.021 47.463 971.959 49.6715 972.71C83.9525 984.407 118.23 996.1 152.511 1007.8C158.335 1009.78 164.819 1009.29 170.211 1006.45C198.263 991.693 226.316 976.929 254.369 962.168C255.997 961.311 257 959.713 256.989 957.988C256.891 940.898 256.792 923.804 256.69 906.714C256.669 902.999 253.726 899.848 249.741 899.269Z" fill="#E5CA9A"/>
<path d="M46 908.539V968.349C46 970.096 47.1148 971.652 48.7817 972.225C83.9067 984.281 119.032 996.336 154.153 1008.39C156.836 1009.31 159.632 1007.33 159.632 1004.51V926.522C159.632 924.526 158.183 922.821 156.203 922.481L50.8285 904.498C48.307 904.067 46 905.996 46 908.539Z" fill="url(#paint20_radial_5199_7736)"/>
<path d="M162.752 926.257V1003.24C162.752 1006.33 166.054 1008.31 168.804 1006.87C197.469 991.878 226.134 976.884 254.795 961.893C256.163 961.178 257.018 959.761 257 958.224C256.817 940.817 256.638 923.409 256.455 905.999C256.427 903.368 253.948 901.443 251.37 902.051L165.921 922.267C164.067 922.707 162.752 924.357 162.752 926.257Z" fill="url(#paint21_radial_5199_7736)"/>
<path d="M169.62 889.378L52.541 902.605L160.364 919.97C160.888 920.055 161.426 920.038 161.946 919.919L251.675 899.534L185.16 889.65C180.015 888.886 174.789 888.796 169.62 889.378Z" fill="url(#paint22_radial_5199_7736)"/>
<path d="M96.7681 961.745C93.2092 960.8 90.9303 956.672 90.6525 956.147C90.1848 955.261 90.4028 954.313 91.1413 954.025C91.8834 953.74 92.861 954.225 93.3287 955.112C93.4026 955.251 95.1469 958.532 97.3765 958.561C98.7902 958.587 99.9542 957.332 100.573 956.147C100.946 955.432 101.888 955.329 102.683 955.931C103.474 956.526 103.812 957.59 103.439 958.305C102.859 959.415 101.182 961.991 98.115 961.933C97.6508 961.929 97.2006 961.861 96.7681 961.745Z" fill="#FF9A00"/>
<path d="M79.1726 956.377C82.5381 957.273 85.2671 955.186 85.2671 951.718L73.0781 948.476C73.0781 951.944 75.8071 955.481 79.1726 956.377Z" fill="#FF9A00"/>
<path d="M114.829 965.857C118.194 966.754 120.923 964.667 120.923 961.198L108.734 957.956C108.734 961.425 111.46 964.961 114.829 965.857Z" fill="#FF9A00"/>
<path opacity="0.5" d="M172.303 623.612V636.571H149.633V623.612H136.215V600.941H149.633V588.571H172.303V600.941H184.215V623.612H172.303Z" fill="#3DCE94"/>
<path d="M528.046 729.453C528.472 728.543 531.078 722.712 528.275 716.42C526.26 711.905 522.619 709.746 521.362 709.075C520.193 709.138 516.051 709.497 512.791 712.783C510.075 715.518 507.737 720.524 509.769 725.12C512.354 730.962 519.841 731.25 520.865 731.275C524.172 731.348 526.729 730.179 528.046 729.453Z" fill="url(#paint23_linear_5199_7736)"/>
<path d="M538.812 657.051C537.664 654.298 536.068 649.449 536.346 643.358C536.512 639.728 536.949 630.234 544.446 624.048C551.697 618.062 562.719 617.511 570.858 622.293C577.647 626.284 580.281 632.723 581.07 634.932C578.073 638.787 572.978 644.338 565.223 648.975C554.486 655.4 544.228 656.738 538.812 657.051Z" fill="url(#paint24_linear_5199_7736)"/>
<path d="M593.473 765.247C577.352 769.692 557.001 769.091 542.316 762.217C524.426 753.843 519.425 737.247 519.489 722.593C520.302 707.836 522.458 693.22 526.042 678.692C530.705 663.985 539.164 649.682 555.493 640.062C565.942 633.907 578.5 630.217 591.779 633.145C603.01 636.691 608.859 645.275 612.782 653.277C617.754 663.42 620.779 673.78 621.692 684.58C622.53 693.775 624.442 702.721 627.47 711.66C635.718 733.684 623.649 757.151 593.473 765.247Z" fill="url(#paint25_radial_5199_7736)"/>
<path d="M611.004 674.605C609.38 674.296 602.668 672.825 597.974 666.53C592.251 658.855 594.156 650.214 594.452 648.975C597.548 642.262 604.503 638.355 611.38 639.299C618.86 640.324 623.371 646.7 624.738 652.135C627.065 661.383 620.441 668.468 619.505 669.437C616.413 672.632 612.923 674.008 611.004 674.605Z" fill="url(#paint26_linear_5199_7736)"/>
<path d="M568.527 697.395C568.192 698.939 571.894 702.373 575.88 701.495C578.863 700.839 581.229 697.942 580.652 696.566C579.644 694.154 569.038 695.028 568.527 697.395Z" fill="#F37343"/>
<path d="M563.722 692.289C561.81 690.383 558.708 690.383 556.795 692.289C554.883 694.196 554.883 697.289 556.795 699.195C558.708 701.102 561.81 701.102 563.722 699.195C565.635 697.289 565.635 694.196 563.722 692.289ZM563.085 698.56C561.525 700.115 558.996 700.115 557.436 698.56L563.085 692.928C564.645 694.48 564.645 697.001 563.085 698.56Z" fill="#F37343"/>
<path d="M592.381 692.289C590.468 690.383 587.366 690.383 585.454 692.289C583.541 694.196 583.541 697.289 585.454 699.195C587.366 701.102 590.468 701.102 592.381 699.195C594.293 697.289 594.293 694.196 592.381 692.289ZM591.74 698.56C590.18 700.115 587.651 700.115 586.091 698.56L591.74 692.928C593.3 694.48 593.3 697.001 591.74 698.56Z" fill="#F37343"/>
<path d="M784.017 650.398C782.384 650.384 781.567 650.384 779.934 650.398C766.334 650.595 751.76 647.111 741.318 637.908C730.771 628.61 726.499 614.706 726.937 600.89C727.378 588.631 727.823 576.373 728.265 564.114C729.113 535.902 750.281 507.066 780.141 507.294C781.609 507.294 782.342 507.294 783.811 507.294C813.667 507.066 834.838 535.902 835.686 564.114C836.128 576.373 836.573 588.631 837.015 600.89C837.611 614.647 833.096 628.688 822.633 637.908C812.125 647.17 797.67 650.472 784.017 650.398Z" fill="url(#paint27_linear_5199_7736)"/>
<path d="M783.786 503.351L783.046 510.621C783.039 510.684 782.983 510.73 782.92 510.723C782.864 510.715 782.822 510.673 782.818 510.621L782.079 503.351C782.03 502.881 782.373 502.46 782.847 502.411C783.316 502.362 783.737 502.706 783.786 503.179C783.789 503.235 783.789 503.299 783.786 503.351Z" fill="#F3C344"/>
<path d="M792.352 507.466L786.712 512.101C786.653 512.15 786.565 512.143 786.516 512.08C786.474 512.027 786.474 511.954 786.516 511.901L791.146 506.256C791.448 505.891 791.987 505.838 792.352 506.137C792.716 506.438 792.769 506.979 792.471 507.343C792.436 507.393 792.394 507.435 792.352 507.466Z" fill="#F3C344"/>
<path d="M774.718 506.26L779.436 511.814C779.531 511.926 779.517 512.094 779.405 512.189C779.303 512.277 779.156 512.273 779.058 512.189L773.513 507.467C773.151 507.162 773.109 506.621 773.414 506.26C773.719 505.898 774.259 505.856 774.62 506.162C774.655 506.193 774.69 506.228 774.718 506.26Z" fill="#F3C344"/>
<path d="M722.944 571.703L730.207 572.443C730.27 572.45 730.315 572.506 730.308 572.569C730.301 572.626 730.259 572.668 730.207 572.671L722.944 573.411C722.474 573.461 722.054 573.117 722.005 572.643C721.956 572.173 722.299 571.752 722.772 571.703C722.828 571.699 722.891 571.699 722.944 571.703Z" fill="#F3C344"/>
<path d="M727.055 563.128L731.685 568.773C731.734 568.833 731.727 568.921 731.664 568.97C731.612 569.012 731.538 569.012 731.486 568.97L725.849 564.339C725.485 564.037 725.432 563.497 725.73 563.132C726.032 562.767 726.571 562.714 726.936 563.013C726.981 563.048 727.023 563.09 727.055 563.128Z" fill="#F3C344"/>
<path d="M725.85 580.779L731.399 576.057C731.511 575.962 731.679 575.976 731.774 576.088C731.862 576.19 731.858 576.338 731.774 576.436L727.056 581.986C726.751 582.348 726.211 582.39 725.85 582.084C725.489 581.779 725.447 581.239 725.752 580.878C725.784 580.842 725.819 580.807 725.85 580.779Z" fill="#F3C344"/>
<path d="M841.056 571.703L833.794 572.443C833.731 572.45 833.685 572.506 833.692 572.569C833.699 572.626 833.741 572.668 833.794 572.671L841.056 573.411C841.526 573.461 841.947 573.117 841.996 572.643C842.045 572.173 841.701 571.752 841.228 571.703C841.172 571.699 841.112 571.699 841.056 571.703Z" fill="#F3C344"/>
<path d="M836.944 563.129L832.313 568.774C832.264 568.834 832.271 568.921 832.334 568.97C832.387 569.013 832.461 569.013 832.513 568.97L838.153 564.336C838.518 564.034 838.57 563.494 838.272 563.129C837.971 562.764 837.431 562.711 837.066 563.01C837.021 563.048 836.979 563.09 836.944 563.129Z" fill="#F3C344"/>
<path d="M838.15 580.779L832.602 576.057C832.489 575.962 832.321 575.976 832.227 576.088C832.139 576.19 832.142 576.338 832.227 576.436L836.944 581.99C837.249 582.351 837.789 582.393 838.15 582.088C838.511 581.783 838.553 581.242 838.248 580.881C838.22 580.842 838.185 580.807 838.15 580.779Z" fill="#F3C344"/>
<path d="M777.922 571.784C777.645 573.071 780.715 575.927 784.021 575.198C786.495 574.65 788.455 572.24 787.978 571.093C787.144 569.082 778.346 569.816 777.922 571.784Z" fill="#C4CF4D"/>
<path d="M773.94 567.532C772.352 565.943 769.783 565.943 768.195 567.532C766.607 569.121 766.607 571.693 768.195 573.282C769.783 574.872 772.352 574.872 773.94 573.282C775.524 571.696 775.524 569.121 773.94 567.532ZM773.41 572.752C772.117 574.047 770.017 574.047 768.724 572.752L773.41 568.062C774.704 569.356 774.704 571.458 773.41 572.752Z" fill="#C4CF4D"/>
<path d="M797.705 567.532C796.117 565.943 793.548 565.943 791.96 567.532C790.373 569.121 790.373 571.693 791.96 573.282C793.548 574.872 796.117 574.872 797.705 573.282C799.293 571.696 799.293 569.121 797.705 567.532ZM797.176 572.752C795.883 574.047 793.783 574.047 792.49 572.752L797.176 568.062C798.469 569.356 798.469 571.458 797.176 572.752Z" fill="#C4CF4D"/>
<defs>
<radialGradient id="paint0_radial_5199_7736" cx="0" cy="0" r="1" gradientUnits="userSpaceOnUse" gradientTransform="translate(360.502 773.644) scale(70.6889 94.1068)">
<stop stop-color="#5AA668"/>
<stop offset="0.4873" stop-color="#56965F"/>
<stop offset="1" stop-color="#508054"/>
</radialGradient>
<radialGradient id="paint1_radial_5199_7736" cx="0" cy="0" r="1" gradientUnits="userSpaceOnUse" gradientTransform="translate(402.422 928.529) rotate(-128.456) scale(35.975 62.9218)">
<stop stop-color="#C8DE90"/>
<stop offset="0.457" stop-color="#B8DE8E"/>
<stop offset="1" stop-color="#9FDE8C"/>
</radialGradient>
<radialGradient id="paint2_radial_5199_7736" cx="0" cy="0" r="1" gradientUnits="userSpaceOnUse" gradientTransform="translate(296.767 911.132) rotate(-51.5441) scale(28.3163 49.5264)">
<stop stop-color="#C8DE90"/>
<stop offset="0.457" stop-color="#B8DE8E"/>
<stop offset="1" stop-color="#9FDE8C"/>
</radialGradient>
<radialGradient id="paint3_radial_5199_7736" cx="0" cy="0" r="1" gradientUnits="userSpaceOnUse" gradientTransform="translate(184.798 989.957) rotate(-51.5441) scale(65.1419 113.936)">
<stop stop-color="#C8DE90"/>
<stop offset="0.457" stop-color="#B8DE8E"/>
<stop offset="1" stop-color="#9FDE8C"/>
</radialGradient>
<radialGradient id="paint4_radial_5199_7736" cx="0" cy="0" r="1" gradientUnits="userSpaceOnUse" gradientTransform="translate(328.397 924.96) rotate(-51.5441) scale(34.2959 59.9849)">
<stop stop-color="#C8DE90"/>
<stop offset="0.457" stop-color="#B8DE8E"/>
<stop offset="1" stop-color="#9FDE8C"/>
</radialGradient>
<radialGradient id="paint5_radial_5199_7736" cx="0" cy="0" r="1" gradientUnits="userSpaceOnUse" gradientTransform="translate(530.688 927.207) rotate(-128.456) scale(59.0661 103.309)">
<stop stop-color="#C8DE90"/>
<stop offset="0.457" stop-color="#B8DE8E"/>
<stop offset="1" stop-color="#9FDE8C"/>
</radialGradient>
<radialGradient id="paint6_radial_5199_7736" cx="0" cy="0" r="1" gradientUnits="userSpaceOnUse" gradientTransform="translate(548.412 992.666) rotate(-128.456) scale(68.538 119.876)">
<stop stop-color="#C8DE90"/>
<stop offset="0.457" stop-color="#B8DE8E"/>
<stop offset="1" stop-color="#9FDE8C"/>
</radialGradient>
<radialGradient id="paint7_radial_5199_7736" cx="0" cy="0" r="1" gradientUnits="userSpaceOnUse" gradientTransform="translate(454.917 944.659) rotate(-128.456) scale(39.5935 69.2507)">
<stop stop-color="#C8DE90"/>
<stop offset="0.457" stop-color="#B8DE8E"/>
<stop offset="1" stop-color="#9FDE8C"/>
</radialGradient>
<radialGradient id="paint8_radial_5199_7736" cx="0" cy="0" r="1" gradientUnits="userSpaceOnUse" gradientTransform="translate(368.923 847.829) rotate(-79.8736) scale(99.7421 132.815)">
<stop stop-color="#C8DE90"/>
<stop offset="0.457" stop-color="#B8DE8E"/>
<stop offset="1" stop-color="#9FDE8C"/>
</radialGradient>
<radialGradient id="paint9_radial_5199_7736" cx="0" cy="0" r="1" gradientUnits="userSpaceOnUse" gradientTransform="translate(349.006 840.933) rotate(-100.126) scale(93.9671 125.125)">
<stop stop-color="#C8DE90"/>
<stop offset="0.457" stop-color="#B8DE8E"/>
<stop offset="1" stop-color="#9FDE8C"/>
</radialGradient>
<radialGradient id="paint10_radial_5199_7736" cx="0" cy="0" r="1" gradientUnits="userSpaceOnUse" gradientTransform="translate(355.921 753.137) scale(59.4443 91.0948)">
<stop stop-color="#4CCC4F"/>
<stop offset="0.4873" stop-color="#56BC5E"/>
<stop offset="1" stop-color="#64A671"/>
</radialGradient>
<radialGradient id="paint11_radial_5199_7736" cx="0" cy="0" r="1" gradientUnits="userSpaceOnUse" gradientTransform="translate(351.67 798.056) rotate(-96.6708) scale(22.4088 39.2001)">
<stop stop-color="#E6FFA6"/>
<stop offset="0.4072" stop-color="#D6FFA4"/>
<stop offset="1" stop-color="#B7FFA1"/>
</radialGradient>
<radialGradient id="paint12_radial_5199_7736" cx="0" cy="0" r="1" gradientUnits="userSpaceOnUse" gradientTransform="translate(351.668 798.056) rotate(-96.6708) scale(22.4087 39.2)">
<stop stop-color="#E6FFA6"/>
<stop offset="0.4072" stop-color="#D6FFA4"/>
<stop offset="1" stop-color="#B7FFA1"/>
</radialGradient>
<radialGradient id="paint13_radial_5199_7736" cx="0" cy="0" r="1" gradientUnits="userSpaceOnUse" gradientTransform="translate(351.67 798.056) rotate(-96.6708) scale(22.4088 39.2001)">
<stop stop-color="#E6FFA6"/>
<stop offset="0.4072" stop-color="#D6FFA4"/>
<stop offset="1" stop-color="#B7FFA1"/>
</radialGradient>
<radialGradient id="paint14_radial_5199_7736" cx="0" cy="0" r="1" gradientUnits="userSpaceOnUse" gradientTransform="translate(351.669 798.056) rotate(-96.6708) scale(22.4088 39.2001)">
<stop stop-color="#E6FFA6"/>
<stop offset="0.4072" stop-color="#D6FFA4"/>
<stop offset="1" stop-color="#B7FFA1"/>
</radialGradient>
<radialGradient id="paint15_radial_5199_7736" cx="0" cy="0" r="1" gradientUnits="userSpaceOnUse" gradientTransform="translate(355.413 802.104) rotate(-108.022) scale(22.4114 39.2012)">
<stop stop-color="#E6FFA6"/>
<stop offset="0.4072" stop-color="#D6FFA4"/>
<stop offset="1" stop-color="#B7FFA1"/>
</radialGradient>
<radialGradient id="paint16_radial_5199_7736" cx="0" cy="0" r="1" gradientUnits="userSpaceOnUse" gradientTransform="translate(351.67 798.056) rotate(-96.6708) scale(22.4088 39.2001)">
<stop stop-color="#E6FFA6"/>
<stop offset="0.4072" stop-color="#D6FFA4"/>
<stop offset="1" stop-color="#B7FFA1"/>
</radialGradient>
<radialGradient id="paint17_radial_5199_7736" cx="0" cy="0" r="1" gradientUnits="userSpaceOnUse" gradientTransform="translate(351.669 798.056) rotate(-96.6708) scale(22.4088 39.2001)">
<stop stop-color="#E6FFA6"/>
<stop offset="0.4072" stop-color="#D6FFA4"/>
<stop offset="1" stop-color="#B7FFA1"/>
</radialGradient>
<radialGradient id="paint18_radial_5199_7736" cx="0" cy="0" r="1" gradientUnits="userSpaceOnUse" gradientTransform="translate(351.669 798.056) rotate(-96.6708) scale(22.4088 39.2001)">
<stop stop-color="#E6FFA6"/>
<stop offset="0.4072" stop-color="#D6FFA4"/>
<stop offset="1" stop-color="#B7FFA1"/>
</radialGradient>
<radialGradient id="paint19_radial_5199_7736" cx="0" cy="0" r="1" gradientUnits="userSpaceOnUse" gradientTransform="translate(355.447 868.381) rotate(-81.87) scale(83.7786 111.557)">
<stop stop-color="#E6FFA6"/>
<stop offset="0.4072" stop-color="#D6FFA4"/>
<stop offset="1" stop-color="#B7FFA1"/>
</radialGradient>
<radialGradient id="paint20_radial_5199_7736" cx="0" cy="0" r="1" gradientUnits="userSpaceOnUse" gradientTransform="translate(102.813 956.523) scale(83.69 76.9994)">
<stop stop-color="#F3EBD9"/>
<stop offset="0.4134" stop-color="#F4EAD7"/>
<stop offset="0.6395" stop-color="#F6E7CF"/>
<stop offset="0.8198" stop-color="#F9E2C1"/>
<stop offset="0.9759" stop-color="#FEDAAE"/>
<stop offset="1" stop-color="#FFD9AA"/>
</radialGradient>
<radialGradient id="paint21_radial_5199_7736" cx="0" cy="0" r="1" gradientUnits="userSpaceOnUse" gradientTransform="translate(209.872 954.639) scale(85.7124 78.8602)">
<stop stop-color="#F3EBD9"/>
<stop offset="0.4134" stop-color="#F4EAD7"/>
<stop offset="0.6395" stop-color="#F6E7CF"/>
<stop offset="0.8198" stop-color="#F9E2C1"/>
<stop offset="0.9759" stop-color="#FEDAAE"/>
<stop offset="1" stop-color="#FFD9AA"/>
</radialGradient>
<radialGradient id="paint22_radial_5199_7736" cx="0" cy="0" r="1" gradientUnits="userSpaceOnUse" gradientTransform="translate(152.105 904.51) scale(102.408 94.2215)">
<stop stop-color="#F3EBDA"/>
<stop offset="0.416" stop-color="#F4EAD8"/>
<stop offset="0.6436" stop-color="#F6E7D0"/>
<stop offset="0.825" stop-color="#F9E2C2"/>
<stop offset="0.9821" stop-color="#FEDBAF"/>
<stop offset="1" stop-color="#FFDAAC"/>
</radialGradient>
<linearGradient id="paint23_linear_5199_7736" x1="510.691" y1="726.213" x2="520.55" y2="720.738" gradientUnits="userSpaceOnUse">
<stop stop-color="#FFB5B5"/>
<stop offset="0.1947" stop-color="#FFB7AB"/>
<stop offset="0.5228" stop-color="#FFBD91"/>
<stop offset="0.9419" stop-color="#FEC766"/>
<stop offset="1" stop-color="#FEC860"/>
</linearGradient>
<linearGradient id="paint24_linear_5199_7736" x1="540.596" y1="614.671" x2="555.825" y2="639.03" gradientUnits="userSpaceOnUse">
<stop stop-color="#FFB5B5"/>
<stop offset="0.1947" stop-color="#FFB7AB"/>
<stop offset="0.5228" stop-color="#FFBD91"/>
<stop offset="0.9419" stop-color="#FEC766"/>
<stop offset="1" stop-color="#FEC860"/>
</linearGradient>
<radialGradient id="paint25_radial_5199_7736" cx="0" cy="0" r="1" gradientUnits="userSpaceOnUse" gradientTransform="translate(576.799 724.34) scale(58.3539 58.1775)">
<stop stop-color="#FFDF9C"/>
<stop offset="0.2933" stop-color="#FCD894"/>
<stop offset="0.7483" stop-color="#F5C67E"/>
<stop offset="1" stop-color="#F0BA6F"/>
</radialGradient>
<linearGradient id="paint26_linear_5199_7736" x1="636.173" y1="646.181" x2="595.043" y2="662.352" gradientUnits="userSpaceOnUse">
<stop stop-color="white"/>
<stop offset="0.2538" stop-color="#FFB5B5"/>
<stop offset="0.3991" stop-color="#FFB7AB"/>
<stop offset="0.6439" stop-color="#FFBD91"/>
<stop offset="0.9567" stop-color="#FEC766"/>
<stop offset="1" stop-color="#FEC860"/>
</linearGradient>
<linearGradient id="paint27_linear_5199_7736" x1="781.987" y1="636.884" x2="781.987" y2="527.032" gradientUnits="userSpaceOnUse">
<stop stop-color="#6A4727"/>
<stop offset="0.1931" stop-color="#734D2A"/>
<stop offset="0.5059" stop-color="#8B5E31"/>
<stop offset="0.8973" stop-color="#B27A3D"/>
<stop offset="1" stop-color="#BD8240"/>
</linearGradient>
</defs>
</svg>
