<svg width="1342" height="1024" viewBox="0 0 1342 1024" fill="none" xmlns="http://www.w3.org/2000/svg">
<path d="M972.922 399.431L169 867.129L388.777 996L1171.01 535.542C1176.79 511.216 1168.6 498.377 1163.78 494.998C1115.58 466.487 1015.72 407.457 1001.84 399.431C987.959 391.406 976.778 396.087 972.922 399.431Z" fill="#F4EFEF" stroke="black" stroke-linejoin="round"/>
<path d="M759 554C775.24 560.859 843.1 600.858 875 620" stroke="black"/>
<path d="M249 850.715C265.24 857.678 333.1 898.283 365 917.715" stroke="black"/>
<path d="M844 504C860.24 510.963 928.1 551.568 960 571" stroke="black"/>
<path d="M334 801.57C350.24 808.429 418.1 848.428 450 867.57" stroke="black"/>
<path d="M929 455C945.24 461.859 1013.1 501.858 1045 521" stroke="black"/>
<path d="M419 752.428C435.24 759.287 503.1 799.286 535 818.428" stroke="black"/>
<path d="M504 703.285C520.24 710.144 588.1 750.143 620 769.285" stroke="black"/>
<path d="M589 653.143C605.38 660.105 673.825 700.711 706 720.143" stroke="black"/>
<path d="M675 603C691.1 609.963 758.375 650.568 790 670" stroke="black"/>
<path d="M341.037 967.974L1163 497" stroke="black"/>
<ellipse cx="535.093" cy="883.231" rx="17.7269" ry="12.8657" transform="rotate(-54.8943 535.093 883.231)" fill="#8FE3C1"/>
<ellipse cx="826.042" cy="715.487" rx="17.7269" ry="12.8657" transform="rotate(-54.8943 826.042 715.487)" fill="#8FE3C1"/>
<ellipse cx="973.554" cy="631.608" rx="17.7269" ry="12.8657" transform="rotate(-54.8943 973.554 631.608)" fill="#8FE3C1"/>
<ellipse cx="1118.17" cy="547.729" rx="17.7269" ry="12.8657" transform="rotate(-54.8943 1118.17 547.729)" fill="#8FE3C1"/>
<ellipse cx="681.423" cy="799.365" rx="17.7269" ry="12.8657" transform="rotate(-54.8943 681.423 799.365)" fill="#8FE3C1"/>
<path d="M118.761 960.01C119.187 959.101 121.793 953.269 118.99 946.978C116.975 942.463 113.334 940.303 112.077 939.633C110.908 939.696 106.766 940.054 103.505 943.34C100.79 946.075 98.4519 951.082 100.484 955.678C103.069 961.52 110.556 961.808 111.58 961.832C114.887 961.906 117.444 960.737 118.761 960.01Z" fill="url(#paint0_linear_5199_11846)"/>
<path d="M129.526 887.607C128.378 884.855 126.783 880.006 127.061 873.915C127.227 870.284 127.663 860.791 135.161 854.605C142.412 848.619 153.434 848.067 161.573 852.849C168.362 856.841 170.996 863.28 171.785 865.488C168.788 869.343 163.693 874.894 155.938 879.532C145.201 885.957 134.943 887.295 129.526 887.607Z" fill="url(#paint1_linear_5199_11846)"/>
<path d="M184.188 995.803C168.066 1000.25 147.715 999.648 133.03 992.773C115.141 984.4 110.14 967.804 110.204 953.149C111.017 938.393 113.172 923.777 116.757 909.249C121.42 894.542 129.879 880.238 146.208 870.618C156.657 864.464 169.214 860.774 182.494 863.702C193.724 867.248 199.574 875.832 203.497 883.833C208.469 893.976 211.494 904.337 212.406 915.137C213.244 924.332 215.157 933.278 218.185 942.216C226.433 964.24 214.364 987.707 184.188 995.803Z" fill="url(#paint2_radial_5199_11846)"/>
<path d="M201.718 905.162C200.095 904.853 193.383 903.382 188.689 897.087C182.966 889.412 184.871 880.772 185.167 879.533C188.263 872.82 195.218 868.912 202.095 869.857C209.575 870.882 214.086 877.258 215.452 882.693C217.78 891.94 211.156 899.025 210.219 899.994C207.128 903.189 203.638 904.566 201.718 905.162Z" fill="url(#paint3_linear_5199_11846)"/>
<path d="M159.242 927.951C158.907 929.496 162.608 932.93 166.595 932.052C169.578 931.396 171.944 928.499 171.367 927.123C170.359 924.711 159.752 925.585 159.242 927.951Z" fill="#F37343"/>
<path d="M154.437 922.846C152.525 920.939 149.423 920.939 147.51 922.846C145.598 924.752 145.598 927.845 147.51 929.752C149.423 931.658 152.525 931.658 154.437 929.752C156.349 927.845 156.349 924.752 154.437 922.846ZM153.8 929.116C152.24 930.672 149.711 930.672 148.151 929.116L153.8 923.485C155.36 925.037 155.36 927.557 153.8 929.116Z" fill="#F37343"/>
<path d="M183.095 922.846C181.183 920.939 178.081 920.939 176.169 922.846C174.256 924.752 174.256 927.845 176.169 929.752C178.081 931.658 181.183 931.658 183.095 929.752C185.008 927.845 185.008 924.752 183.095 922.846ZM182.455 929.116C180.894 930.672 178.366 930.672 176.806 929.116L182.455 923.485C184.015 925.037 184.015 927.557 182.455 929.116Z" fill="#F37343"/>
<path d="M366.017 898.742C364.384 898.728 363.567 898.728 361.934 898.742C348.334 898.938 333.76 895.454 323.318 886.252C312.771 876.954 308.499 863.05 308.937 849.234C309.378 836.975 309.823 824.716 310.265 812.458C311.113 784.246 332.281 755.41 362.141 755.638C363.609 755.638 364.342 755.638 365.811 755.638C395.667 755.41 416.838 784.246 417.686 812.458C418.128 824.716 418.573 836.975 419.015 849.234C419.611 862.99 415.096 877.031 404.633 886.252C394.125 895.514 379.67 898.815 366.017 898.742Z" fill="url(#paint4_linear_5199_11846)"/>
<path d="M365.786 751.695L365.046 758.965C365.039 759.028 364.983 759.073 364.92 759.066C364.864 759.059 364.822 759.017 364.818 758.965L364.079 751.695C364.03 751.225 364.373 750.804 364.847 750.755C365.316 750.706 365.737 751.049 365.786 751.523C365.789 751.579 365.789 751.642 365.786 751.695Z" fill="#F3C344"/>
<path d="M374.352 755.81L368.712 760.445C368.653 760.494 368.565 760.487 368.516 760.424C368.474 760.371 368.474 760.297 368.516 760.245L373.146 754.6C373.448 754.235 373.987 754.182 374.352 754.48C374.716 754.782 374.769 755.322 374.471 755.687C374.436 755.736 374.394 755.778 374.352 755.81Z" fill="#F3C344"/>
<path d="M356.718 754.603L361.436 760.157C361.531 760.269 361.517 760.437 361.405 760.532C361.303 760.62 361.156 760.616 361.058 760.532L355.513 755.81C355.151 755.504 355.109 754.964 355.414 754.603C355.719 754.241 356.259 754.199 356.62 754.504C356.655 754.536 356.69 754.571 356.718 754.603Z" fill="#F3C344"/>
<path d="M304.944 820.048L312.207 820.788C312.27 820.795 312.315 820.851 312.308 820.914C312.301 820.97 312.259 821.012 312.207 821.016L304.944 821.756C304.474 821.805 304.054 821.461 304.005 820.988C303.956 820.518 304.299 820.097 304.772 820.048C304.828 820.044 304.891 820.044 304.944 820.048Z" fill="#F3C344"/>
<path d="M309.055 811.473L313.685 817.118C313.734 817.178 313.727 817.266 313.664 817.315C313.612 817.357 313.538 817.357 313.486 817.315L307.849 812.683C307.485 812.382 307.432 811.841 307.73 811.477C308.032 811.112 308.571 811.059 308.936 811.357C308.981 811.392 309.023 811.434 309.055 811.473Z" fill="#F3C344"/>
<path d="M307.85 829.123L313.399 824.401C313.511 824.306 313.679 824.32 313.774 824.432C313.862 824.534 313.858 824.681 313.774 824.78L309.056 830.33C308.751 830.691 308.211 830.733 307.85 830.428C307.489 830.123 307.447 829.583 307.752 829.221C307.784 829.186 307.819 829.151 307.85 829.123Z" fill="#F3C344"/>
<path d="M423.056 820.048L415.794 820.788C415.731 820.795 415.685 820.851 415.692 820.914C415.699 820.97 415.741 821.012 415.794 821.016L423.056 821.756C423.526 821.805 423.947 821.461 423.996 820.988C424.045 820.518 423.701 820.097 423.228 820.048C423.172 820.044 423.112 820.044 423.056 820.048Z" fill="#F3C344"/>
<path d="M418.944 811.473L414.313 817.118C414.264 817.177 414.271 817.265 414.334 817.314C414.387 817.356 414.461 817.356 414.513 817.314L420.153 812.68C420.518 812.378 420.57 811.838 420.272 811.473C419.971 811.108 419.431 811.055 419.066 811.353C419.021 811.392 418.979 811.434 418.944 811.473Z" fill="#F3C344"/>
<path d="M420.15 829.123L414.602 824.401C414.489 824.306 414.321 824.32 414.227 824.432C414.139 824.534 414.142 824.681 414.227 824.78L418.944 830.334C419.249 830.695 419.789 830.737 420.15 830.432C420.511 830.127 420.553 829.586 420.248 829.225C420.22 829.186 420.185 829.151 420.15 829.123Z" fill="#F3C344"/>
<path d="M359.922 820.128C359.645 821.416 362.715 824.272 366.021 823.542C368.495 822.995 370.455 820.585 369.978 819.437C369.144 817.427 360.346 818.16 359.922 820.128Z" fill="#C4CF4D"/>
<path d="M355.94 815.876C354.352 814.286 351.783 814.286 350.195 815.876C348.607 817.465 348.607 820.037 350.195 821.626C351.783 823.215 354.352 823.215 355.94 821.626C357.524 820.04 357.524 817.465 355.94 815.876ZM355.41 821.096C354.117 822.391 352.017 822.391 350.724 821.096L355.41 816.405C356.704 817.7 356.704 819.802 355.41 821.096Z" fill="#C4CF4D"/>
<path d="M379.705 815.876C378.117 814.286 375.548 814.286 373.96 815.876C372.373 817.465 372.373 820.037 373.96 821.626C375.548 823.215 378.117 823.215 379.705 821.626C381.293 820.04 381.293 817.465 379.705 815.876ZM379.176 821.096C377.883 822.391 375.783 822.391 374.49 821.096L379.176 816.405C380.469 817.7 380.469 819.802 379.176 821.096Z" fill="#C4CF4D"/>
<path opacity="0.5" d="M172.303 623.611V636.57H149.633V623.611H136.215V600.941H149.633V588.57H172.303V600.941H184.215V623.611H172.303Z" fill="#3DCE94"/>
<defs>
<linearGradient id="paint0_linear_5199_11846" x1="101.406" y1="956.771" x2="111.264" y2="951.296" gradientUnits="userSpaceOnUse">
<stop stop-color="#FFB5B5"/>
<stop offset="0.1947" stop-color="#FFB7AB"/>
<stop offset="0.5228" stop-color="#FFBD91"/>
<stop offset="0.9419" stop-color="#FEC766"/>
<stop offset="1" stop-color="#FEC860"/>
</linearGradient>
<linearGradient id="paint1_linear_5199_11846" x1="131.31" y1="845.228" x2="146.54" y2="869.586" gradientUnits="userSpaceOnUse">
<stop stop-color="#FFB5B5"/>
<stop offset="0.1947" stop-color="#FFB7AB"/>
<stop offset="0.5228" stop-color="#FFBD91"/>
<stop offset="0.9419" stop-color="#FEC766"/>
<stop offset="1" stop-color="#FEC860"/>
</linearGradient>
<radialGradient id="paint2_radial_5199_11846" cx="0" cy="0" r="1" gradientUnits="userSpaceOnUse" gradientTransform="translate(167.513 954.896) scale(58.3539 58.1775)">
<stop stop-color="#FFDF9C"/>
<stop offset="0.2933" stop-color="#FCD894"/>
<stop offset="0.7483" stop-color="#F5C67E"/>
<stop offset="1" stop-color="#F0BA6F"/>
</radialGradient>
<linearGradient id="paint3_linear_5199_11846" x1="226.888" y1="876.739" x2="185.758" y2="892.91" gradientUnits="userSpaceOnUse">
<stop stop-color="white"/>
<stop offset="0.2538" stop-color="#FFB5B5"/>
<stop offset="0.3991" stop-color="#FFB7AB"/>
<stop offset="0.6439" stop-color="#FFBD91"/>
<stop offset="0.9567" stop-color="#FEC766"/>
<stop offset="1" stop-color="#FEC860"/>
</linearGradient>
<linearGradient id="paint4_linear_5199_11846" x1="363.987" y1="885.227" x2="363.987" y2="775.376" gradientUnits="userSpaceOnUse">
<stop stop-color="#6A4727"/>
<stop offset="0.1931" stop-color="#734D2A"/>
<stop offset="0.5059" stop-color="#8B5E31"/>
<stop offset="0.8973" stop-color="#B27A3D"/>
<stop offset="1" stop-color="#BD8240"/>
</linearGradient>
</defs>
</svg>
