<svg width="1342" height="1024" viewBox="0 0 1342 1024" fill="none" xmlns="http://www.w3.org/2000/svg">
<path d="M972.922 399.431L169 867.129L388.777 996L1171.01 535.542C1176.79 511.216 1168.6 498.377 1163.78 494.998C1115.58 466.487 1015.72 407.457 1001.84 399.431C987.959 391.406 976.778 396.087 972.922 399.431Z" fill="#F4EFEF" stroke="black" stroke-linejoin="round"/>
<path d="M759 554C775.24 560.859 843.1 600.858 875 620" stroke="black"/>
<path d="M249 850.714C265.24 857.677 333.1 898.282 365 917.714" stroke="black"/>
<path d="M844 504C860.24 510.963 928.1 551.568 960 571" stroke="black"/>
<path d="M334 801.571C350.24 808.43 418.1 848.429 450 867.571" stroke="black"/>
<path d="M929 455C945.24 461.859 1013.1 501.858 1045 521" stroke="black"/>
<path d="M419 752.428C435.24 759.287 503.1 799.286 535 818.428" stroke="black"/>
<path d="M504 703.286C520.24 710.145 588.1 750.144 620 769.286" stroke="black"/>
<path d="M589 653.143C605.38 660.105 673.825 700.711 706 720.143" stroke="black"/>
<path d="M675 603C691.1 609.963 758.375 650.568 790 670" stroke="black"/>
<path d="M341.037 967.974L1163 497" stroke="black"/>
<ellipse cx="535.093" cy="883.23" rx="17.7269" ry="12.8657" transform="rotate(-54.8943 535.093 883.23)" fill="#8FE3C1"/>
<ellipse cx="826.042" cy="715.487" rx="17.7269" ry="12.8657" transform="rotate(-54.8943 826.042 715.487)" fill="#8FE3C1"/>
<ellipse cx="973.554" cy="631.609" rx="17.7269" ry="12.8657" transform="rotate(-54.8943 973.554 631.609)" fill="#8FE3C1"/>
<ellipse cx="1118.17" cy="547.73" rx="17.7269" ry="12.8657" transform="rotate(-54.8943 1118.17 547.73)" fill="#8FE3C1"/>
<ellipse cx="681.423" cy="799.366" rx="17.7269" ry="12.8657" transform="rotate(-54.8943 681.423 799.366)" fill="#8FE3C1"/>
<path d="M782.5 554.896V653.439L694.5 604.146V501.66L782.5 554.896Z" fill="#D9D9D9" stroke="#8FE3C1" stroke-width="3"/>
<path d="M869.5 602.209L785.5 653.33V554.915L869.5 499.778V602.209Z" fill="#3DCE94" stroke="#8FE3C1" stroke-width="3"/>
<path d="M868.135 497.544L783.989 552.231L695.959 499.515L784.02 448.733L868.135 497.544Z" fill="#D9D9D9" stroke="#8FE3C1" stroke-width="3"/>
<path d="M1078.74 60.0393L1012.44 49.6846C1007.82 48.9611 1003.11 48.8776 998.469 49.4376C959.514 54.1124 920.556 58.7837 881.601 63.4585C877.834 63.9106 875 67.0724 875 70.8289V133.771C875 136.098 876.463 138.182 878.671 138.989C912.952 151.562 947.23 164.133 981.511 176.707C987.335 178.842 993.819 178.314 999.211 175.263C1027.26 159.396 1055.32 143.524 1083.37 127.656C1085 126.735 1086 125.016 1085.99 123.163C1085.89 104.79 1085.79 86.4149 1085.69 68.0428C1085.67 64.0498 1082.73 60.6619 1078.74 60.0393Z" fill="#E5CA9A"/>
<path d="M875 70.0045V134.3C875 136.178 876.115 137.851 877.782 138.467C912.907 151.427 948.032 164.387 983.153 177.343C985.836 178.331 988.632 176.206 988.632 173.176V89.3366C988.632 87.1906 987.183 85.3575 985.203 84.9923L879.828 65.6602C877.307 65.1976 875 67.2706 875 70.0045Z" fill="url(#paint0_radial_5187_5565)"/>
<path d="M991.752 89.0514V171.809C991.752 175.128 995.054 177.256 997.804 175.708C1026.47 159.594 1055.13 143.476 1083.8 127.361C1085.16 126.592 1086.02 125.069 1086 123.417C1085.82 104.704 1085.64 85.9906 1085.45 67.2741C1085.43 64.4463 1082.95 62.3767 1080.37 63.0306L994.921 84.7627C993.067 85.2358 991.752 87.0097 991.752 89.0514Z" fill="url(#paint1_radial_5187_5565)"/>
<path d="M998.62 49.4064L881.541 63.6254L989.364 82.2932C989.888 82.3836 990.426 82.3662 990.946 82.2375L1080.68 60.3246L1014.16 49.6985C1009.02 48.8777 1003.79 48.7803 998.62 49.4064Z" fill="url(#paint2_radial_5187_5565)"/>
<path d="M925.768 127.201C922.209 126.185 919.93 121.747 919.653 121.184C919.185 120.23 919.403 119.211 920.141 118.902C920.883 118.596 921.861 119.117 922.329 120.07C922.403 120.22 924.147 123.747 926.376 123.778C927.79 123.806 928.954 122.457 929.573 121.184C929.946 120.415 930.888 120.304 931.683 120.95C932.474 121.59 932.812 122.735 932.439 123.504C931.859 124.697 930.182 127.465 927.115 127.403C926.651 127.399 926.201 127.326 925.768 127.201Z" fill="#FF9A00"/>
<path d="M908.173 121.43C911.538 122.394 914.267 120.15 914.267 116.422L902.078 112.937C902.078 116.665 904.807 120.467 908.173 121.43Z" fill="#FF9A00"/>
<path d="M943.829 131.622C947.194 132.585 949.923 130.342 949.923 126.613L937.734 123.128C937.734 126.856 940.46 130.658 943.829 131.622Z" fill="#FF9A00"/>
<defs>
<radialGradient id="paint0_radial_5187_5565" cx="0" cy="0" r="1" gradientUnits="userSpaceOnUse" gradientTransform="translate(931.813 121.588) scale(83.69 82.7744)">
<stop stop-color="#F3EBD9"/>
<stop offset="0.4134" stop-color="#F4EAD7"/>
<stop offset="0.6395" stop-color="#F6E7CF"/>
<stop offset="0.8198" stop-color="#F9E2C1"/>
<stop offset="0.9759" stop-color="#FEDAAE"/>
<stop offset="1" stop-color="#FFD9AA"/>
</radialGradient>
<radialGradient id="paint1_radial_5187_5565" cx="0" cy="0" r="1" gradientUnits="userSpaceOnUse" gradientTransform="translate(1038.87 119.563) scale(85.7124 84.7747)">
<stop stop-color="#F3EBD9"/>
<stop offset="0.4134" stop-color="#F4EAD7"/>
<stop offset="0.6395" stop-color="#F6E7CF"/>
<stop offset="0.8198" stop-color="#F9E2C1"/>
<stop offset="0.9759" stop-color="#FEDAAE"/>
<stop offset="1" stop-color="#FFD9AA"/>
</radialGradient>
<radialGradient id="paint2_radial_5187_5565" cx="0" cy="0" r="1" gradientUnits="userSpaceOnUse" gradientTransform="translate(981.105 65.6729) scale(102.408 101.288)">
<stop stop-color="#F3EBDA"/>
<stop offset="0.416" stop-color="#F4EAD8"/>
<stop offset="0.6436" stop-color="#F6E7D0"/>
<stop offset="0.825" stop-color="#F9E2C2"/>
<stop offset="0.9821" stop-color="#FEDBAF"/>
<stop offset="1" stop-color="#FFDAAC"/>
</radialGradient>
</defs>
</svg>
