<svg width="1342" height="1024" viewBox="0 0 1342 1024" fill="none" xmlns="http://www.w3.org/2000/svg">
<path d="M972.922 399.431L169 867.129L388.777 996L1171.01 535.542C1176.79 511.216 1168.6 498.377 1163.78 494.998C1115.58 466.487 1015.72 407.457 1001.84 399.431C987.959 391.406 976.778 396.087 972.922 399.431Z" fill="#F4EFEF" stroke="black" stroke-linejoin="round"/>
<path d="M366 785C382.24 791.859 450.1 831.858 482 851" stroke="black"/>
<path d="M451 734.857C467.24 741.82 535.1 782.425 567 801.857" stroke="black"/>
<path d="M536 685.715C552.24 692.574 620.1 732.573 652 751.715" stroke="black"/>
<path d="M621 636.57C637.24 643.429 705.1 683.428 737 702.57" stroke="black"/>
<path d="M706 587.428C722.24 594.287 790.1 634.286 822 653.428" stroke="black"/>
<path d="M791 537.285C807.38 544.248 875.825 584.853 908 604.285" stroke="black"/>
<path d="M877 487.143C893.1 494.105 960.375 534.711 992 554.143" stroke="black"/>
<path d="M961 437C977.24 443.963 1045.1 484.568 1077 504" stroke="black"/>
<path d="M341.037 967.974L1163 497" stroke="black"/>
<ellipse cx="535.093" cy="883.231" rx="17.7269" ry="12.8657" transform="rotate(-54.8943 535.093 883.231)" fill="#8FE3C1"/>
<ellipse cx="826.042" cy="715.487" rx="17.7269" ry="12.8657" transform="rotate(-54.8943 826.042 715.487)" fill="#8FE3C1"/>
<ellipse cx="973.554" cy="631.608" rx="17.7269" ry="12.8657" transform="rotate(-54.8943 973.554 631.608)" fill="#8FE3C1"/>
<ellipse cx="1118.17" cy="547.729" rx="17.7269" ry="12.8657" transform="rotate(-54.8943 1118.17 547.729)" fill="#8FE3C1"/>
<ellipse cx="681.423" cy="799.365" rx="17.7269" ry="12.8657" transform="rotate(-54.8943 681.423 799.365)" fill="#8FE3C1"/>
<path d="M319.046 862.43C319.472 861.521 322.078 855.689 319.275 849.398C317.26 844.883 313.619 842.723 312.362 842.053C311.193 842.116 307.051 842.474 303.791 845.76C301.075 848.495 298.737 853.502 300.769 858.098C303.354 863.94 310.841 864.228 311.865 864.252C315.172 864.326 317.729 863.157 319.046 862.43Z" fill="url(#paint0_linear_5199_10322)"/>
<path d="M329.812 790.027C328.664 787.275 327.068 782.426 327.346 776.335C327.512 772.704 327.949 763.211 335.446 757.025C342.697 751.038 353.719 750.487 361.858 755.269C368.647 759.261 371.281 765.7 372.07 767.908C369.073 771.763 363.978 777.314 356.223 781.952C345.486 788.377 335.228 789.715 329.812 790.027Z" fill="url(#paint1_linear_5199_10322)"/>
<path d="M384.473 898.223C368.352 902.668 348.001 902.068 333.316 895.193C315.426 886.82 310.425 870.224 310.489 855.569C311.302 840.813 313.458 826.197 317.042 811.669C321.705 796.962 330.164 782.658 346.493 773.038C356.942 766.884 369.5 763.194 382.779 766.122C394.01 769.668 399.859 778.252 403.782 786.253C408.754 796.396 411.779 806.757 412.692 817.557C413.53 826.752 415.442 835.697 418.47 844.636C426.718 866.66 414.649 890.127 384.473 898.223Z" fill="url(#paint2_radial_5199_10322)"/>
<path d="M402.004 807.582C400.38 807.273 393.668 805.802 388.974 799.507C383.251 791.832 385.156 783.192 385.452 781.953C388.548 775.24 395.503 771.332 402.38 772.277C409.86 773.302 414.371 779.678 415.738 785.112C418.065 794.36 411.441 801.445 410.505 802.414C407.413 805.609 403.923 806.985 402.004 807.582Z" fill="url(#paint3_linear_5199_10322)"/>
<path d="M359.527 830.371C359.192 831.916 362.894 835.35 366.88 834.472C369.863 833.815 372.229 830.919 371.652 829.543C370.644 827.131 360.038 828.005 359.527 830.371Z" fill="#F37343"/>
<path d="M354.722 825.266C352.81 823.359 349.708 823.359 347.795 825.266C345.883 827.172 345.883 830.265 347.795 832.172C349.708 834.078 352.81 834.078 354.722 832.172C356.635 830.265 356.635 827.172 354.722 825.266ZM354.085 831.536C352.525 833.092 349.996 833.092 348.436 831.536L354.085 825.905C355.645 827.457 355.645 829.977 354.085 831.536Z" fill="#F37343"/>
<path d="M383.381 825.266C381.468 823.359 378.366 823.359 376.454 825.266C374.541 827.172 374.541 830.265 376.454 832.172C378.366 834.078 381.468 834.078 383.381 832.172C385.293 830.265 385.293 827.172 383.381 825.266ZM382.74 831.536C381.18 833.092 378.651 833.092 377.091 831.536L382.74 825.905C384.3 827.457 384.3 829.977 382.74 831.536Z" fill="#F37343"/>
<path opacity="0.5" d="M172.303 623.611V636.57H149.633V623.611H136.215V600.941H149.633V588.57H172.303V600.941H184.215V623.611H172.303Z" fill="#3DCE94"/>
<path d="M223.564 880.848C223.073 875.129 221.466 870.564 220.09 867.491C220.297 865.343 220.445 860.8 218.22 855.737C215.666 849.923 211.462 846.779 209.672 845.586C206.247 836.316 201.619 832.52 198.05 830.762C196.12 829.811 189.706 825.889 182.958 827.422C170.393 830.278 171.108 848.362 159.245 854.596C153.199 857.772 143.072 858.298 125.078 847.653C115.424 845.488 106.196 848.916 102.21 855.737C99.4972 860.379 99.9745 865.294 100.339 867.491C98.9639 870.561 97.3603 875.129 96.8655 880.848C96.1181 889.532 98.3182 896.416 99.8025 900.079C98.5639 913.844 102.378 922.191 104.796 926.254C110.477 935.797 117.295 941.531 117.295 941.531C118.677 943.734 120.649 947.225 122.295 951.807C124.172 957.032 123.871 958.79 125.351 961.53C128.545 967.442 135.492 969.502 139.517 970.695C151.616 974.28 156.536 969.032 164.238 973.751C169.442 976.94 168.666 980.235 172.849 981.249C181.807 983.421 191.84 969.863 192.847 968.474C196.766 963.06 198.45 957.706 199.236 954.309C204.072 948.734 210.949 939.397 215.623 926.257C219.311 915.896 220.382 906.668 220.617 900.083C222.111 896.416 224.312 889.532 223.564 880.848Z" fill="url(#paint4_radial_5199_10322)"/>
<path d="M135.079 940.142C138.395 935.794 141.946 930.307 145.016 923.619C146.349 920.714 147.441 917.914 148.332 915.279C147.732 915.493 147.132 915.707 146.532 915.925C146.227 916.753 145.851 917.655 145.395 918.602C144.928 919.57 144.388 920.57 143.753 921.577C140.268 927.1 135.573 930.423 132.029 932.366C133.043 934.959 134.061 937.549 135.079 940.142Z" fill="url(#paint5_radial_5199_10322)"/>
<path d="M129.8 941.252C125.382 938.277 118.589 932.733 113.877 923.621C112.347 920.664 111.294 917.829 110.561 915.281C111.161 915.495 111.761 915.709 112.361 915.927C113.684 919.053 116.014 923.513 120.077 927.923C123.021 931.116 126.011 933.347 128.411 934.867C128.874 936.993 129.337 939.123 129.8 941.252Z" fill="url(#paint6_radial_5199_10322)"/>
<path d="M124.246 913.479C120.442 907.806 116.214 900.294 112.856 890.982C110.842 885.396 109.508 880.182 108.617 875.564C109.217 875.778 109.817 875.992 110.417 876.21C111.593 880.41 113.453 885.627 116.467 891.262C119.39 896.725 122.586 901.058 125.355 904.314C124.987 907.367 124.615 910.423 124.246 913.479Z" fill="url(#paint7_radial_5199_10322)"/>
<path d="M185.354 939.586C181.48 935.074 177.164 929.056 173.599 921.397C172.245 918.488 171.157 915.688 170.283 913.057C170.883 913.271 171.483 913.485 172.083 913.702C172.389 914.53 172.764 915.432 173.22 916.379C173.22 916.379 173.929 917.846 174.862 919.355C176.059 921.281 180.431 926.411 187.018 932.642C186.467 934.958 185.909 937.27 185.354 939.586Z" fill="url(#paint8_radial_5199_10322)"/>
<path d="M192.3 876.817C195.261 871.568 198.342 864.73 200.29 856.407C200.964 853.523 201.43 850.779 201.743 848.211C201.093 848.302 200.448 848.397 199.799 848.488C199.728 850.26 199.507 852.239 199.023 854.365C197.416 861.432 193.739 866.449 191.188 869.319C191.559 871.817 191.928 874.315 192.3 876.817Z" fill="url(#paint9_radial_5199_10322)"/>
<path d="M195.632 908.478C198.583 905.366 202.815 900.135 205.91 892.647C209.587 883.749 209.938 875.823 209.798 871.262C209.244 871.353 208.686 871.448 208.131 871.539C207.861 875.212 206.952 881.156 203.685 887.647C201.026 892.938 197.762 896.678 195.352 899.036C195.446 902.184 195.538 905.331 195.632 908.478Z" fill="url(#paint10_radial_5199_10322)"/>
<path d="M189.797 939.587C193.457 937.145 200.138 931.945 204.798 922.921C207.556 917.577 208.721 912.612 209.244 909.033C208.594 909.31 207.949 909.588 207.3 909.865C206.643 912.521 205.387 916.24 202.854 920.142C199.029 926.036 194.239 929.348 191.464 930.973C190.909 933.846 190.355 936.717 189.797 939.587Z" fill="url(#paint11_radial_5199_10322)"/>
<path d="M189.798 906.813C190.149 898.143 189.644 891.989 188.966 883.761C187.57 866.81 184.864 852.927 182.576 843.211C182.948 842.38 183.317 841.544 183.689 840.713C191.549 863.502 206.508 917.974 181.19 969.586C177.474 977.161 173.225 983.993 168.691 990.14C166.839 985.88 164.989 981.621 163.137 977.365C164.916 975.491 167.13 973.004 169.663 969.579C169.663 969.579 174.344 963.351 178.085 956.187C182.412 947.903 188.001 930.296 189.798 906.813Z" fill="url(#paint12_radial_5199_10322)"/>
<path d="M141.19 859.873C139.432 858.946 137.671 858.02 135.913 857.094C132.853 863.49 109.683 913.871 135.081 955.694C141.155 965.694 148.777 973.181 156.191 978.746C155.637 973.746 155.079 968.746 154.525 963.747C148.528 958.726 144.264 953.505 141.19 948.747C118.175 913.155 137.997 867.016 141.19 859.873Z" fill="url(#paint13_radial_5199_10322)"/>
<path d="M153.409 965.694C152.777 965.694 152.174 965.428 151.753 964.951C145.496 957.937 142.036 950.772 141.475 943.65C141.408 942.822 141.384 942.007 141.359 941.222C141.275 938.639 141.198 936.201 139.762 933.369C138.373 930.625 136.538 929.166 134.211 927.317C133.587 926.818 132.937 926.303 132.257 925.731C131.966 925.489 125.081 919.643 119.277 909.889C114.933 902.591 113.091 893.272 113.933 882.911C111.47 876.61 110.47 869.789 111.038 863.154C111.438 858.494 112.592 853.94 114.463 849.61C114.238 846.547 114.47 842.102 116.561 837.341C118.898 832.025 122.498 828.636 125.312 826.646C128.235 819.074 132.429 813.903 137.783 811.264C140.573 809.889 142.703 809.682 144.956 809.461C147.054 809.254 149.433 809.022 153.167 807.805C157.279 806.464 159.578 805.068 161.423 803.949C163.269 802.826 164.866 801.857 167.094 801.857C167.557 801.857 168.024 801.9 168.522 801.984C176.372 803.328 180.246 813.79 182.561 820.043C184.898 826.351 186.011 833.028 185.877 839.895C186.871 842.042 187.614 844.295 188.092 846.596C188.878 850.393 188.937 854.27 188.274 858.136C189.881 860.435 191.144 862.933 192.029 865.575C193.495 869.947 193.895 874.687 193.201 879.35C196.997 884.686 202.292 894.479 199.692 905.012C199.633 905.254 199.531 905.486 199.394 905.696C195.573 911.538 191.236 916.503 186.495 920.457C183.6 922.875 181.33 924.84 176.81 928.759C172.55 932.45 172.119 932.903 171.813 933.566C170.894 935.562 171.322 937.271 172.224 940.362C172.814 942.379 173.48 944.667 173.677 947.478C174.038 952.649 172.631 958.028 169.498 963.463C169.133 964.098 168.476 964.512 167.747 964.568L153.581 965.68C153.528 965.691 153.469 965.694 153.409 965.694Z" fill="url(#paint14_radial_5199_10322)"/>
<path d="M140.104 862.413C143.311 864.989 146.487 866.417 148.785 867.22C148.873 865.929 148.964 864.638 149.052 863.347C147.15 862.978 144.009 862.115 140.77 859.873C136.563 856.964 134.458 853.301 133.556 851.459C132.756 851.059 131.952 850.659 131.152 850.256C132.247 852.975 134.753 858.115 140.104 862.413Z" fill="url(#paint15_radial_5199_10322)"/>
<path d="M157.602 843.983C160.033 843.492 163.419 842.527 167.086 840.509C170.276 838.755 172.655 836.769 174.301 835.166C173.676 835.032 173.055 834.899 172.431 834.766C171.037 835.85 169.262 837.039 167.086 838.106C163.595 839.815 160.374 840.565 158.005 840.909C157.868 841.934 157.735 842.958 157.602 843.983Z" fill="url(#paint16_radial_5199_10322)"/>
<path d="M156.533 890.462C156.712 892.956 156.891 895.447 157.067 897.942C160.379 896.868 165.411 894.798 170.559 890.728C176.033 886.402 179.31 881.658 181.11 878.574C180.177 878.795 179.24 879.02 178.306 879.241C176.057 881.76 171.832 885.777 165.351 888.321C162.011 889.637 158.951 890.212 156.533 890.462Z" fill="url(#paint17_radial_5199_10322)"/>
<path d="M155.199 863.618C155.066 864.776 154.932 865.934 154.799 867.091C157.318 866.355 160.248 865.263 163.347 863.618C169.428 860.39 173.646 856.362 176.302 853.334C175.544 853.555 174.789 853.78 174.032 854.001C171.277 856.274 167.466 858.923 162.543 861.078C159.901 862.239 157.413 863.046 155.199 863.618Z" fill="url(#paint18_radial_5199_10322)"/>
<path d="M181.217 897.433C179.385 900.458 175.62 905.721 168.967 909.699C165.234 911.934 161.7 913.099 159.016 913.741C159.258 916.219 159.496 918.699 159.738 921.176C163.132 919.604 167.539 917.11 171.985 913.18C178.613 907.317 182.287 900.935 184.231 896.826C183.228 897.03 182.221 897.233 181.217 897.433Z" fill="url(#paint19_radial_5199_10322)"/>
<path d="M144.111 837.973C147.027 841.331 150.49 842.667 152.125 843.183C152.392 842.204 152.658 841.225 152.925 840.247C151.532 839.92 148.535 839.015 145.848 836.373C142.153 832.745 141.563 828.317 141.44 827.022C140.907 826.577 140.37 826.131 139.837 825.686C139.791 827.138 139.773 832.98 144.111 837.973Z" fill="url(#paint20_radial_5199_10322)"/>
<path d="M151.191 898.342C150.833 895.58 150.479 892.823 150.121 890.061C147.721 889.205 144.84 887.91 141.84 885.921C135.903 881.984 132.323 877.199 130.351 874.034C129.506 873.988 128.66 873.946 127.814 873.9C130.067 878.29 133.871 884.377 140.103 890.195C144.036 893.865 147.931 896.486 151.191 898.342Z" fill="url(#paint21_radial_5199_10322)"/>
<path d="M153.195 914.233C149.598 912.717 145.482 910.654 141.173 907.822C134.19 903.23 129.085 898.184 125.544 894.065C124.744 894.019 123.941 893.977 123.141 893.932C125.962 898.703 130.811 905.549 138.636 911.829C144.149 916.254 149.514 919.089 153.728 920.91C153.549 918.685 153.374 916.461 153.195 914.233Z" fill="url(#paint22_radial_5199_10322)"/>
<path d="M155.08 865.709C154.936 849.769 158.006 836.106 158.006 836.106C159.841 827.934 162.196 821.45 163.884 817.275L162.28 816.875C160.648 820.513 158.294 826.127 156.002 833.169C156.002 833.169 151.199 847.934 148.971 865.435C146.725 883.066 146.532 934.057 151.774 1002.82C152.276 1009.38 158.003 1014.41 164.554 1013.81C164.729 1013.79 164.905 1013.77 165.08 1013.75C165.256 1013.73 165.435 1013.7 165.607 1013.68C173.221 1012.43 178.099 1004.86 176.355 997.34C157.269 915.146 155.213 880.659 155.08 865.709Z" fill="url(#paint23_radial_5199_10322)"/>
<path d="M151.118 877.704C150.963 879.22 154.869 882.114 158.585 880.851C161.367 879.904 163.315 876.876 162.62 875.616C161.399 873.409 151.356 875.381 151.118 877.704Z" fill="#534741"/>
<path d="M145.98 873.321C143.948 871.697 140.983 872.03 139.359 874.062C137.734 876.093 138.067 879.058 140.099 880.682C142.131 882.307 145.096 881.974 146.72 879.942C148.345 877.911 148.015 874.946 145.98 873.321ZM146.043 879.402C144.717 881.061 142.299 881.328 140.643 880.005L145.44 874.002C147.099 875.325 147.37 877.742 146.043 879.402Z" fill="#534741"/>
<path d="M173.373 870.263C171.341 868.638 168.376 868.972 166.751 871.003C165.126 873.035 165.46 875.999 167.491 877.624C169.523 879.248 172.488 878.915 174.113 876.884C175.738 874.849 175.404 871.887 173.373 870.263ZM173.436 876.34C172.109 877.999 169.692 878.266 168.035 876.943L172.832 870.94C174.488 872.266 174.759 874.684 173.436 876.34Z" fill="#534741"/>
<path d="M576.391 783.767C574.757 783.753 573.94 783.753 572.307 783.767C558.707 783.964 544.133 780.48 533.691 771.277C523.144 761.98 518.872 748.075 519.31 734.259C519.751 722 520.196 709.742 520.638 697.483C521.486 669.272 542.654 640.435 572.514 640.663C573.982 640.663 574.715 640.663 576.184 640.663C606.04 640.435 627.211 669.272 628.059 697.483C628.501 709.742 628.946 722 629.388 734.259C629.984 748.016 625.469 762.057 615.006 771.277C604.498 780.539 590.043 783.841 576.391 783.767Z" fill="url(#paint24_linear_5199_10322)"/>
<path d="M576.159 636.72L575.419 643.99C575.412 644.053 575.356 644.099 575.293 644.092C575.237 644.085 575.195 644.043 575.192 643.99L574.452 636.72C574.403 636.25 574.746 635.829 575.22 635.78C575.689 635.731 576.11 636.075 576.159 636.548C576.162 636.605 576.162 636.668 576.159 636.72Z" fill="#F3C344"/>
<path d="M584.725 640.835L579.085 645.47C579.026 645.519 578.938 645.512 578.889 645.449C578.847 645.396 578.847 645.323 578.889 645.27L583.519 639.625C583.821 639.26 584.36 639.207 584.725 639.506C585.09 639.807 585.142 640.348 584.844 640.713C584.809 640.762 584.767 640.804 584.725 640.835Z" fill="#F3C344"/>
<path d="M567.091 639.628L571.809 645.182C571.904 645.294 571.89 645.463 571.778 645.557C571.676 645.645 571.529 645.642 571.431 645.557L565.886 640.835C565.525 640.53 565.482 639.989 565.787 639.628C566.092 639.267 566.632 639.225 566.993 639.53C567.028 639.561 567.063 639.596 567.091 639.628Z" fill="#F3C344"/>
<path d="M515.317 705.073L522.58 705.813C522.643 705.82 522.688 705.876 522.681 705.94C522.674 705.996 522.632 706.038 522.58 706.041L515.317 706.782C514.847 706.831 514.427 706.487 514.378 706.013C514.329 705.543 514.672 705.122 515.145 705.073C515.201 705.069 515.265 705.069 515.317 705.073Z" fill="#F3C344"/>
<path d="M519.428 696.498L524.058 702.144C524.107 702.203 524.1 702.291 524.037 702.34C523.985 702.382 523.911 702.382 523.859 702.34L518.222 697.709C517.858 697.407 517.805 696.867 518.103 696.502C518.405 696.137 518.944 696.084 519.309 696.383C519.354 696.418 519.397 696.46 519.428 696.498Z" fill="#F3C344"/>
<path d="M518.223 714.148L523.772 709.426C523.884 709.331 524.052 709.345 524.147 709.458C524.235 709.559 524.231 709.707 524.147 709.805L519.429 715.355C519.124 715.717 518.584 715.759 518.223 715.454C517.862 715.148 517.82 714.608 518.125 714.247C518.157 714.212 518.192 714.177 518.223 714.148Z" fill="#F3C344"/>
<path d="M633.429 705.073L626.167 705.813C626.104 705.82 626.058 705.876 626.065 705.94C626.072 705.996 626.114 706.038 626.167 706.041L633.429 706.782C633.899 706.831 634.32 706.487 634.369 706.013C634.418 705.543 634.074 705.122 633.601 705.073C633.545 705.069 633.485 705.069 633.429 705.073Z" fill="#F3C344"/>
<path d="M629.317 696.498L624.687 702.143C624.637 702.203 624.644 702.291 624.708 702.34C624.76 702.382 624.834 702.382 624.886 702.34L630.526 697.705C630.891 697.403 630.943 696.863 630.645 696.498C630.344 696.133 629.804 696.081 629.439 696.379C629.394 696.417 629.352 696.459 629.317 696.498Z" fill="#F3C344"/>
<path d="M630.523 714.148L624.975 709.426C624.862 709.331 624.694 709.345 624.6 709.458C624.512 709.559 624.515 709.707 624.6 709.805L629.317 715.359C629.622 715.72 630.162 715.762 630.523 715.457C630.884 715.152 630.926 714.612 630.621 714.25C630.593 714.212 630.558 714.177 630.523 714.148Z" fill="#F3C344"/>
<path d="M570.295 705.154C570.018 706.441 573.088 709.297 576.394 708.568C578.868 708.02 580.828 705.61 580.351 704.463C579.517 702.452 570.719 703.186 570.295 705.154Z" fill="#C4CF4D"/>
<path d="M566.313 700.901C564.725 699.312 562.156 699.312 560.568 700.901C558.98 702.49 558.98 705.062 560.568 706.651C562.156 708.241 564.725 708.241 566.313 706.651C567.897 705.066 567.897 702.49 566.313 700.901ZM565.783 706.122C564.49 707.416 562.39 707.416 561.097 706.122L565.783 701.431C567.077 702.725 567.077 704.827 565.783 706.122Z" fill="#C4CF4D"/>
<path d="M590.078 700.901C588.491 699.312 585.921 699.312 584.333 700.901C582.746 702.49 582.746 705.062 584.333 706.651C585.921 708.241 588.491 708.241 590.078 706.651C591.666 705.066 591.666 702.49 590.078 700.901ZM589.549 706.122C588.256 707.416 586.156 707.416 584.863 706.122L589.549 701.431C590.842 702.725 590.842 704.827 589.549 706.122Z" fill="#C4CF4D"/>
<defs>
<linearGradient id="paint0_linear_5199_10322" x1="301.691" y1="859.191" x2="311.55" y2="853.716" gradientUnits="userSpaceOnUse">
<stop stop-color="#FFB5B5"/>
<stop offset="0.1947" stop-color="#FFB7AB"/>
<stop offset="0.5228" stop-color="#FFBD91"/>
<stop offset="0.9419" stop-color="#FEC766"/>
<stop offset="1" stop-color="#FEC860"/>
</linearGradient>
<linearGradient id="paint1_linear_5199_10322" x1="331.596" y1="747.648" x2="346.825" y2="772.006" gradientUnits="userSpaceOnUse">
<stop stop-color="#FFB5B5"/>
<stop offset="0.1947" stop-color="#FFB7AB"/>
<stop offset="0.5228" stop-color="#FFBD91"/>
<stop offset="0.9419" stop-color="#FEC766"/>
<stop offset="1" stop-color="#FEC860"/>
</linearGradient>
<radialGradient id="paint2_radial_5199_10322" cx="0" cy="0" r="1" gradientUnits="userSpaceOnUse" gradientTransform="translate(367.799 857.316) scale(58.3539 58.1775)">
<stop stop-color="#FFDF9C"/>
<stop offset="0.2933" stop-color="#FCD894"/>
<stop offset="0.7483" stop-color="#F5C67E"/>
<stop offset="1" stop-color="#F0BA6F"/>
</radialGradient>
<linearGradient id="paint3_linear_5199_10322" x1="427.173" y1="779.159" x2="386.043" y2="795.33" gradientUnits="userSpaceOnUse">
<stop stop-color="white"/>
<stop offset="0.2538" stop-color="#FFB5B5"/>
<stop offset="0.3991" stop-color="#FFB7AB"/>
<stop offset="0.6439" stop-color="#FFBD91"/>
<stop offset="0.9567" stop-color="#FEC766"/>
<stop offset="1" stop-color="#FEC860"/>
</linearGradient>
<radialGradient id="paint4_radial_5199_10322" cx="0" cy="0" r="1" gradientUnits="userSpaceOnUse" gradientTransform="translate(160.217 904.271) scale(70.6889 94.1068)">
<stop stop-color="#5AA668"/>
<stop offset="0.4873" stop-color="#56965F"/>
<stop offset="1" stop-color="#508054"/>
</radialGradient>
<radialGradient id="paint5_radial_5199_10322" cx="0" cy="0" r="1" gradientUnits="userSpaceOnUse" gradientTransform="translate(202.137 1059.16) rotate(-128.456) scale(35.975 62.9218)">
<stop stop-color="#C8DE90"/>
<stop offset="0.457" stop-color="#B8DE8E"/>
<stop offset="1" stop-color="#9FDE8C"/>
</radialGradient>
<radialGradient id="paint6_radial_5199_10322" cx="0" cy="0" r="1" gradientUnits="userSpaceOnUse" gradientTransform="translate(96.4815 1041.76) rotate(-51.5441) scale(28.3163 49.5264)">
<stop stop-color="#C8DE90"/>
<stop offset="0.457" stop-color="#B8DE8E"/>
<stop offset="1" stop-color="#9FDE8C"/>
</radialGradient>
<radialGradient id="paint7_radial_5199_10322" cx="0" cy="0" r="1" gradientUnits="userSpaceOnUse" gradientTransform="translate(-15.4868 1120.59) rotate(-51.5441) scale(65.1419 113.936)">
<stop stop-color="#C8DE90"/>
<stop offset="0.457" stop-color="#B8DE8E"/>
<stop offset="1" stop-color="#9FDE8C"/>
</radialGradient>
<radialGradient id="paint8_radial_5199_10322" cx="0" cy="0" r="1" gradientUnits="userSpaceOnUse" gradientTransform="translate(128.112 1055.59) rotate(-51.5441) scale(34.2959 59.9849)">
<stop stop-color="#C8DE90"/>
<stop offset="0.457" stop-color="#B8DE8E"/>
<stop offset="1" stop-color="#9FDE8C"/>
</radialGradient>
<radialGradient id="paint9_radial_5199_10322" cx="0" cy="0" r="1" gradientUnits="userSpaceOnUse" gradientTransform="translate(330.403 1057.83) rotate(-128.456) scale(59.0661 103.309)">
<stop stop-color="#C8DE90"/>
<stop offset="0.457" stop-color="#B8DE8E"/>
<stop offset="1" stop-color="#9FDE8C"/>
</radialGradient>
<radialGradient id="paint10_radial_5199_10322" cx="0" cy="0" r="1" gradientUnits="userSpaceOnUse" gradientTransform="translate(348.127 1123.29) rotate(-128.456) scale(68.538 119.876)">
<stop stop-color="#C8DE90"/>
<stop offset="0.457" stop-color="#B8DE8E"/>
<stop offset="1" stop-color="#9FDE8C"/>
</radialGradient>
<radialGradient id="paint11_radial_5199_10322" cx="0" cy="0" r="1" gradientUnits="userSpaceOnUse" gradientTransform="translate(254.632 1075.29) rotate(-128.456) scale(39.5935 69.2507)">
<stop stop-color="#C8DE90"/>
<stop offset="0.457" stop-color="#B8DE8E"/>
<stop offset="1" stop-color="#9FDE8C"/>
</radialGradient>
<radialGradient id="paint12_radial_5199_10322" cx="0" cy="0" r="1" gradientUnits="userSpaceOnUse" gradientTransform="translate(168.638 978.457) rotate(-79.8736) scale(99.7421 132.815)">
<stop stop-color="#C8DE90"/>
<stop offset="0.457" stop-color="#B8DE8E"/>
<stop offset="1" stop-color="#9FDE8C"/>
</radialGradient>
<radialGradient id="paint13_radial_5199_10322" cx="0" cy="0" r="1" gradientUnits="userSpaceOnUse" gradientTransform="translate(148.721 971.559) rotate(-100.126) scale(93.9671 125.125)">
<stop stop-color="#C8DE90"/>
<stop offset="0.457" stop-color="#B8DE8E"/>
<stop offset="1" stop-color="#9FDE8C"/>
</radialGradient>
<radialGradient id="paint14_radial_5199_10322" cx="0" cy="0" r="1" gradientUnits="userSpaceOnUse" gradientTransform="translate(155.636 883.764) scale(59.4443 91.0948)">
<stop stop-color="#4CCC4F"/>
<stop offset="0.4873" stop-color="#56BC5E"/>
<stop offset="1" stop-color="#64A671"/>
</radialGradient>
<radialGradient id="paint15_radial_5199_10322" cx="0" cy="0" r="1" gradientUnits="userSpaceOnUse" gradientTransform="translate(151.385 928.683) rotate(-96.6708) scale(22.4088 39.2001)">
<stop stop-color="#E6FFA6"/>
<stop offset="0.4072" stop-color="#D6FFA4"/>
<stop offset="1" stop-color="#B7FFA1"/>
</radialGradient>
<radialGradient id="paint16_radial_5199_10322" cx="0" cy="0" r="1" gradientUnits="userSpaceOnUse" gradientTransform="translate(151.383 928.683) rotate(-96.6708) scale(22.4087 39.2)">
<stop stop-color="#E6FFA6"/>
<stop offset="0.4072" stop-color="#D6FFA4"/>
<stop offset="1" stop-color="#B7FFA1"/>
</radialGradient>
<radialGradient id="paint17_radial_5199_10322" cx="0" cy="0" r="1" gradientUnits="userSpaceOnUse" gradientTransform="translate(151.385 928.683) rotate(-96.6708) scale(22.4088 39.2001)">
<stop stop-color="#E6FFA6"/>
<stop offset="0.4072" stop-color="#D6FFA4"/>
<stop offset="1" stop-color="#B7FFA1"/>
</radialGradient>
<radialGradient id="paint18_radial_5199_10322" cx="0" cy="0" r="1" gradientUnits="userSpaceOnUse" gradientTransform="translate(151.384 928.684) rotate(-96.6708) scale(22.4088 39.2001)">
<stop stop-color="#E6FFA6"/>
<stop offset="0.4072" stop-color="#D6FFA4"/>
<stop offset="1" stop-color="#B7FFA1"/>
</radialGradient>
<radialGradient id="paint19_radial_5199_10322" cx="0" cy="0" r="1" gradientUnits="userSpaceOnUse" gradientTransform="translate(155.128 932.731) rotate(-108.022) scale(22.4114 39.2012)">
<stop stop-color="#E6FFA6"/>
<stop offset="0.4072" stop-color="#D6FFA4"/>
<stop offset="1" stop-color="#B7FFA1"/>
</radialGradient>
<radialGradient id="paint20_radial_5199_10322" cx="0" cy="0" r="1" gradientUnits="userSpaceOnUse" gradientTransform="translate(151.384 928.684) rotate(-96.6708) scale(22.4088 39.2001)">
<stop stop-color="#E6FFA6"/>
<stop offset="0.4072" stop-color="#D6FFA4"/>
<stop offset="1" stop-color="#B7FFA1"/>
</radialGradient>
<radialGradient id="paint21_radial_5199_10322" cx="0" cy="0" r="1" gradientUnits="userSpaceOnUse" gradientTransform="translate(151.384 928.683) rotate(-96.6708) scale(22.4088 39.2001)">
<stop stop-color="#E6FFA6"/>
<stop offset="0.4072" stop-color="#D6FFA4"/>
<stop offset="1" stop-color="#B7FFA1"/>
</radialGradient>
<radialGradient id="paint22_radial_5199_10322" cx="0" cy="0" r="1" gradientUnits="userSpaceOnUse" gradientTransform="translate(151.384 928.683) rotate(-96.6708) scale(22.4088 39.2001)">
<stop stop-color="#E6FFA6"/>
<stop offset="0.4072" stop-color="#D6FFA4"/>
<stop offset="1" stop-color="#B7FFA1"/>
</radialGradient>
<radialGradient id="paint23_radial_5199_10322" cx="0" cy="0" r="1" gradientUnits="userSpaceOnUse" gradientTransform="translate(155.161 999.008) rotate(-81.87) scale(83.7786 111.557)">
<stop stop-color="#E6FFA6"/>
<stop offset="0.4072" stop-color="#D6FFA4"/>
<stop offset="1" stop-color="#B7FFA1"/>
</radialGradient>
<linearGradient id="paint24_linear_5199_10322" x1="574.36" y1="770.253" x2="574.36" y2="660.401" gradientUnits="userSpaceOnUse">
<stop stop-color="#6A4727"/>
<stop offset="0.1931" stop-color="#734D2A"/>
<stop offset="0.5059" stop-color="#8B5E31"/>
<stop offset="0.8973" stop-color="#B27A3D"/>
<stop offset="1" stop-color="#BD8240"/>
</linearGradient>
</defs>
</svg>
