<svg width="1342" height="1024" viewBox="0 0 1342 1024" fill="none" xmlns="http://www.w3.org/2000/svg">
<path d="M972.922 399.431L169 867.129L388.777 996L1171.01 535.542C1176.79 511.216 1168.6 498.377 1163.78 494.998C1115.58 466.487 1015.72 407.457 1001.84 399.431C987.959 391.406 976.778 396.087 972.922 399.431Z" fill="#F4EFEF" stroke="black" stroke-linejoin="round"/>
<path d="M366 785C382.24 791.859 450.1 831.858 482 851" stroke="black"/>
<path d="M451 734.857C467.24 741.82 535.1 782.425 567 801.857" stroke="black"/>
<path d="M536 685.714C552.24 692.573 620.1 732.572 652 751.714" stroke="black"/>
<path d="M621 636.571C637.24 643.43 705.1 683.429 737 702.571" stroke="black"/>
<path d="M706 587.429C722.24 594.288 790.1 634.287 822 653.429" stroke="black"/>
<path d="M791 537.285C807.38 544.248 875.825 584.853 908 604.285" stroke="black"/>
<path d="M877 487.143C893.1 494.105 960.375 534.711 992 554.143" stroke="black"/>
<path d="M961 437C977.24 443.963 1045.1 484.568 1077 504" stroke="black"/>
<path d="M341.037 967.974L1163 497" stroke="black"/>
<ellipse cx="535.093" cy="883.231" rx="17.7269" ry="12.8657" transform="rotate(-54.8943 535.093 883.231)" fill="#8FE3C1"/>
<ellipse cx="826.042" cy="715.487" rx="17.7269" ry="12.8657" transform="rotate(-54.8943 826.042 715.487)" fill="#8FE3C1"/>
<ellipse cx="973.554" cy="631.609" rx="17.7269" ry="12.8657" transform="rotate(-54.8943 973.554 631.609)" fill="#8FE3C1"/>
<ellipse cx="1118.17" cy="547.73" rx="17.7269" ry="12.8657" transform="rotate(-54.8943 1118.17 547.73)" fill="#8FE3C1"/>
<ellipse cx="681.423" cy="799.366" rx="17.7269" ry="12.8657" transform="rotate(-54.8943 681.423 799.366)" fill="#8FE3C1"/>
<path d="M159.5 912.896V1011.44L71.5 962.146V859.66L159.5 912.896Z" fill="#D9D9D9" stroke="#8FE3C1" stroke-width="3"/>
<path d="M246.5 960.209L162.5 1011.33V912.915L246.5 857.778V960.209Z" fill="#3DCE94" stroke="#8FE3C1" stroke-width="3"/>
<path d="M245.135 855.544L160.989 910.231L72.959 857.515L161.02 806.733L245.135 855.544Z" fill="#D9D9D9" stroke="#8FE3C1" stroke-width="3"/>
<path d="M494.311 762.198L429.813 751.843C425.314 751.12 420.63 751.036 415.892 751.596C376.17 756.271 336.448 760.943 296.722 765.617C292.881 766.07 289.508 769.235 288.871 772.988L278.16 835.929C277.763 838.256 278.873 840.339 280.94 841.146C313.057 853.72 345.171 866.291 377.288 878.865C382.746 881.001 389.314 880.472 395.221 877.422C425.954 861.554 456.69 845.682 487.423 829.814C489.208 828.892 490.501 827.174 490.807 825.32C493.836 806.947 496.862 788.571 499.891 770.198C500.549 766.209 498.183 762.821 494.311 762.198Z" fill="#E5CA9A"/>
<path d="M289.011 772.163L278.068 836.457C277.748 838.335 278.577 840.008 280.138 840.624C313.032 853.584 345.926 866.545 378.823 879.501C381.336 880.489 384.492 878.364 385.005 875.334L399.273 791.496C399.638 789.35 398.503 787.517 396.584 787.151L294.575 767.819C292.132 767.356 289.475 769.429 289.011 772.163Z" fill="url(#paint0_radial_5187_5572)"/>
<path d="M402.443 791.21L388.357 873.97C387.792 877.289 390.733 879.418 393.741 877.87C425.128 861.755 456.517 845.636 487.904 829.521C489.404 828.752 490.515 827.229 490.778 825.576C493.783 806.863 496.784 788.149 499.789 769.432C500.242 766.604 498.116 764.535 495.428 765.189L406.34 786.921C404.404 787.395 402.791 789.168 402.443 791.21Z" fill="url(#paint1_radial_5187_5572)"/>
<path d="M416.053 751.565L296.637 765.781L401.208 784.449C401.718 784.539 402.259 784.522 402.797 784.393L496.193 762.48L431.53 751.857C426.529 751.036 421.324 750.938 416.053 751.565Z" fill="url(#paint2_radial_5187_5572)"/>
<path d="M330.009 829.362C326.628 828.346 325.103 823.907 324.924 823.344C324.618 822.391 325.012 821.372 325.803 821.062C326.597 820.756 327.482 821.278 327.788 822.231C327.837 822.38 328.979 825.908 331.204 825.939C332.613 825.967 334.005 824.617 334.841 823.344C335.347 822.575 336.303 822.464 336.992 823.111C337.674 823.751 337.814 824.895 337.312 825.664C336.528 826.857 334.381 829.626 331.327 829.563C330.86 829.56 330.42 829.487 330.009 829.362Z" fill="#FF9A00"/>
<path d="M313.408 823.591C316.606 824.554 319.716 822.311 320.348 818.582L308.762 815.097C308.129 818.825 310.21 822.627 313.408 823.591Z" fill="#FF9A00"/>
<path d="M347.304 833.782C350.502 834.746 353.612 832.502 354.245 828.773L342.658 825.288C342.026 829.017 344.106 832.819 347.304 833.782Z" fill="#FF9A00"/>
<path d="M635.849 632.058C635.358 626.339 633.751 621.774 632.375 618.701C632.583 616.553 632.73 612.01 630.505 606.947C627.951 601.133 623.747 597.989 621.957 596.796C618.533 587.526 613.904 583.73 610.336 581.972C608.406 581.021 601.991 577.098 595.243 578.632C582.678 581.488 583.394 599.571 571.53 605.806C565.484 608.982 555.357 609.508 537.363 598.863C527.71 596.698 518.481 600.126 514.495 606.947C511.782 611.589 512.26 616.504 512.625 618.701C511.249 621.771 509.645 626.339 509.151 632.058C508.403 640.742 510.603 647.626 512.088 651.289C510.849 665.054 514.663 673.401 517.081 677.464C522.762 687.007 529.58 692.741 529.58 692.741C530.962 694.944 532.935 698.435 534.58 703.017C536.458 708.242 536.156 710 537.637 712.74C540.83 718.652 547.778 720.712 551.802 721.905C563.901 725.49 568.821 720.241 576.523 724.961C581.727 728.15 580.951 731.445 585.134 732.459C594.093 734.63 604.125 721.073 605.132 719.684C609.051 714.27 610.736 708.915 611.522 705.519C616.357 699.944 623.235 690.607 627.909 677.467C631.596 667.106 632.667 657.878 632.902 651.293C634.397 647.626 636.597 640.742 635.849 632.058Z" fill="url(#paint3_radial_5187_5572)"/>
<path d="M547.364 691.351C550.68 687.003 554.231 681.516 557.301 674.828C558.635 671.923 559.726 669.123 560.617 666.488C560.017 666.702 559.417 666.916 558.817 667.134C558.512 667.962 558.136 668.864 557.68 669.811C557.213 670.779 556.673 671.779 556.038 672.786C552.554 678.309 547.859 681.632 544.314 683.575C545.329 686.168 546.346 688.758 547.364 691.351Z" fill="url(#paint4_radial_5187_5572)"/>
<path d="M542.085 692.463C537.668 689.488 530.874 683.944 526.162 674.832C524.632 671.874 523.579 669.039 522.846 666.492C523.446 666.706 524.046 666.92 524.646 667.138C525.969 670.264 528.299 674.724 532.362 679.134C535.306 682.327 538.296 684.558 540.696 686.078C541.159 688.204 541.622 690.334 542.085 692.463Z" fill="url(#paint5_radial_5187_5572)"/>
<path d="M536.531 664.688C532.728 659.015 528.499 651.503 525.141 642.191C523.127 636.605 521.794 631.391 520.902 626.773C521.502 626.987 522.102 627.201 522.702 627.419C523.878 631.619 525.738 636.836 528.752 642.471C531.675 647.934 534.872 652.267 537.64 655.523C537.272 658.576 536.9 661.632 536.531 664.688Z" fill="url(#paint6_radial_5187_5572)"/>
<path d="M597.639 690.797C593.766 686.284 589.449 680.267 585.884 672.608C584.53 669.699 583.442 666.899 582.568 664.268C583.168 664.482 583.768 664.696 584.368 664.913C584.674 665.741 585.049 666.643 585.505 667.59C585.505 667.59 586.214 669.057 587.148 670.566C588.344 672.492 592.716 677.622 599.303 683.853C598.752 686.169 598.194 688.481 597.639 690.797Z" fill="url(#paint7_radial_5187_5572)"/>
<path d="M604.585 628.026C607.547 622.777 610.627 615.939 612.575 607.616C613.249 604.732 613.715 601.988 614.028 599.42C613.379 599.511 612.733 599.606 612.084 599.697C612.014 601.469 611.792 603.448 611.308 605.574C609.701 612.641 606.024 617.658 603.473 620.528C603.845 623.026 604.213 625.524 604.585 628.026Z" fill="url(#paint8_radial_5187_5572)"/>
<path d="M607.917 659.689C610.868 656.577 615.1 651.345 618.195 643.858C621.873 634.96 622.224 627.034 622.083 622.473C621.529 622.564 620.971 622.659 620.416 622.75C620.146 626.423 619.237 632.367 615.971 638.858C613.311 644.149 610.047 647.889 607.637 650.247C607.731 653.395 607.823 656.542 607.917 659.689Z" fill="url(#paint9_radial_5187_5572)"/>
<path d="M602.082 690.797C605.742 688.355 612.423 683.155 617.083 674.13C619.841 668.787 621.006 663.822 621.529 660.243C620.88 660.52 620.234 660.798 619.585 661.075C618.929 663.731 617.672 667.45 615.139 671.352C611.314 677.246 606.524 680.558 603.749 682.183C603.194 685.056 602.64 687.927 602.082 690.797Z" fill="url(#paint10_radial_5187_5572)"/>
<path d="M602.083 658.022C602.434 649.352 601.929 643.197 601.251 634.97C599.855 618.019 597.149 604.136 594.862 594.42C595.234 593.588 595.602 592.753 595.974 591.922C603.834 614.711 618.793 669.183 593.476 720.795C589.76 728.37 585.51 735.202 580.977 741.349C579.124 737.089 577.275 732.83 575.422 728.574C577.201 726.7 579.415 724.213 581.949 720.788C581.949 720.788 586.63 714.56 590.37 707.396C594.697 699.112 600.287 681.505 602.083 658.022Z" fill="url(#paint11_radial_5187_5572)"/>
<path d="M553.476 611.084C551.718 610.157 549.956 609.231 548.198 608.305C545.138 614.701 521.968 665.082 547.366 706.905C553.44 716.905 561.062 724.392 568.476 729.957C567.922 724.957 567.364 719.957 566.81 714.958C560.813 709.937 556.549 704.716 553.476 699.958C530.46 664.366 550.282 618.227 553.476 611.084Z" fill="url(#paint12_radial_5187_5572)"/>
<path d="M565.694 716.904C565.062 716.904 564.459 716.638 564.038 716.161C557.781 709.147 554.321 701.982 553.76 694.86C553.693 694.031 553.669 693.217 553.644 692.432C553.56 689.849 553.483 687.411 552.048 684.579C550.658 681.835 548.823 680.376 546.496 678.527C545.872 678.028 545.223 677.513 544.542 676.941C544.251 676.699 537.366 670.853 531.562 661.099C527.218 653.801 525.376 644.482 526.218 634.121C523.755 627.819 522.755 620.999 523.323 614.364C523.723 609.704 524.878 605.15 526.748 600.82C526.523 597.757 526.755 593.312 528.846 588.551C531.183 583.235 534.783 579.846 537.598 577.856C540.521 570.284 544.714 565.113 550.069 562.474C552.858 561.099 554.988 560.892 557.241 560.671C559.339 560.464 561.718 560.232 565.452 559.015C569.564 557.674 571.863 556.278 573.709 555.159C575.554 554.036 577.151 553.067 579.379 553.067C579.842 553.067 580.309 553.109 580.807 553.194C588.657 554.538 592.531 565 594.847 571.253C597.184 577.561 598.296 584.238 598.163 591.105C599.156 593.252 599.9 595.505 600.377 597.806C601.163 601.603 601.222 605.48 600.559 609.346C602.166 611.645 603.43 614.143 604.314 616.785C605.781 621.157 606.181 625.897 605.486 630.56C609.283 635.896 614.578 645.689 611.977 656.222C611.918 656.464 611.816 656.696 611.679 656.906C607.858 662.748 603.521 667.713 598.78 671.667C595.885 674.085 593.615 676.05 589.095 679.969C584.836 683.66 584.404 684.112 584.099 684.776C583.179 686.772 583.607 688.481 584.509 691.572C585.099 693.589 585.765 695.877 585.962 698.687C586.323 703.859 584.916 709.238 581.783 714.673C581.418 715.308 580.762 715.722 580.032 715.778L565.866 716.89C565.813 716.901 565.754 716.904 565.694 716.904Z" fill="url(#paint13_radial_5187_5572)"/>
<path d="M552.389 613.623C555.596 616.199 558.772 617.627 561.07 618.43C561.158 617.139 561.249 615.848 561.337 614.557C559.435 614.188 556.294 613.325 553.056 611.083C548.848 608.174 546.743 604.511 545.841 602.669C545.041 602.269 544.238 601.869 543.438 601.466C544.532 604.185 547.038 609.325 552.389 613.623Z" fill="url(#paint14_radial_5187_5572)"/>
<path d="M569.887 595.193C572.318 594.702 575.705 593.737 579.371 591.719C582.561 589.965 584.94 587.979 586.586 586.376C585.961 586.242 585.34 586.109 584.716 585.976C583.323 587.06 581.547 588.249 579.371 589.316C575.88 591.025 572.659 591.775 570.29 592.119C570.153 593.144 570.02 594.168 569.887 595.193Z" fill="url(#paint15_radial_5187_5572)"/>
<path d="M568.818 641.672C568.997 644.166 569.176 646.657 569.352 649.152C572.664 648.078 577.696 646.008 582.844 641.938C588.318 637.612 591.595 632.868 593.395 629.784C592.462 630.005 591.525 630.23 590.592 630.451C588.342 632.97 584.118 636.987 577.636 639.531C574.296 640.847 571.236 641.422 568.818 641.672Z" fill="url(#paint16_radial_5187_5572)"/>
<path d="M567.484 614.827C567.351 615.985 567.217 617.143 567.084 618.3C569.603 617.564 572.533 616.472 575.632 614.827C581.713 611.599 585.931 607.571 588.587 604.543C587.829 604.764 587.075 604.989 586.317 605.21C583.562 607.483 579.751 610.132 574.828 612.287C572.186 613.448 569.698 614.255 567.484 614.827Z" fill="url(#paint17_radial_5187_5572)"/>
<path d="M593.502 648.643C591.67 651.668 587.905 656.931 581.252 660.909C577.519 663.144 573.985 664.309 571.301 664.951C571.543 667.429 571.782 669.909 572.024 672.386C575.417 670.814 579.824 668.32 584.27 664.39C590.898 658.527 594.572 652.145 596.516 648.036C595.513 648.24 594.506 648.443 593.502 648.643Z" fill="url(#paint18_radial_5187_5572)"/>
<path d="M556.396 589.182C559.312 592.54 562.775 593.876 564.41 594.392C564.677 593.413 564.944 592.434 565.21 591.455C563.817 591.129 560.821 590.224 558.133 587.582C554.438 583.954 553.848 579.526 553.725 578.231C553.192 577.786 552.655 577.34 552.122 576.895C552.076 578.347 552.059 584.189 556.396 589.182Z" fill="url(#paint19_radial_5187_5572)"/>
<path d="M563.476 649.552C563.119 646.79 562.764 644.033 562.406 641.271C560.006 640.415 557.125 639.12 554.125 637.131C548.188 633.194 544.609 628.408 542.637 625.244C541.791 625.198 540.945 625.156 540.1 625.11C542.352 629.5 546.156 635.587 552.388 641.405C556.322 645.075 560.217 647.696 563.476 649.552Z" fill="url(#paint20_radial_5187_5572)"/>
<path d="M565.48 665.443C561.883 663.927 557.767 661.864 553.458 659.032C546.476 654.44 541.37 649.394 537.829 645.275C537.029 645.229 536.226 645.187 535.426 645.142C538.247 649.913 543.096 656.759 550.921 663.039C556.434 667.464 561.799 670.299 566.014 672.12C565.835 669.895 565.659 667.671 565.48 665.443Z" fill="url(#paint21_radial_5187_5572)"/>
<path d="M567.365 616.919C567.221 600.979 570.291 587.316 570.291 587.316C572.126 579.144 574.481 572.66 576.169 568.485L574.565 568.085C572.934 571.723 570.579 577.337 568.288 584.379C568.288 584.379 563.484 599.144 561.256 616.645C559.01 634.276 558.817 685.267 564.059 754.03C564.561 760.588 570.288 765.619 576.839 765.019C577.014 765.002 577.19 764.984 577.365 764.963C577.541 764.942 577.72 764.914 577.892 764.886C585.506 763.644 590.384 756.065 588.64 748.55C569.554 666.356 567.498 631.869 567.365 616.919Z" fill="url(#paint22_radial_5187_5572)"/>
<path d="M563.403 628.914C563.248 630.429 567.154 633.324 570.87 632.061C573.653 631.114 575.6 628.086 574.905 626.826C573.684 624.619 563.641 626.591 563.403 628.914Z" fill="#534741"/>
<path d="M558.265 624.532C556.233 622.908 553.268 623.241 551.644 625.273C550.019 627.304 550.352 630.269 552.384 631.893C554.416 633.518 557.381 633.185 559.006 631.153C560.63 629.122 560.3 626.157 558.265 624.532ZM558.328 630.613C557.002 632.272 554.584 632.539 552.928 631.216L557.725 625.213C559.384 626.536 559.655 628.953 558.328 630.613Z" fill="#534741"/>
<path d="M585.658 621.473C583.626 619.848 580.661 620.181 579.036 622.213C577.412 624.245 577.745 627.209 579.777 628.834C581.808 630.458 584.773 630.125 586.398 628.094C588.023 626.059 587.689 623.097 585.658 621.473ZM585.721 627.55C584.394 629.209 581.977 629.476 580.321 628.153L585.117 622.15C586.774 623.476 587.044 625.894 585.721 627.55Z" fill="#534741"/>
<path d="M736.046 610.952C736.472 610.042 739.078 604.211 736.275 597.919C734.26 593.404 730.619 591.245 729.362 590.574C728.193 590.637 724.051 590.996 720.791 594.282C718.075 597.017 715.737 602.023 717.769 606.619C720.354 612.461 727.841 612.749 728.865 612.774C732.172 612.847 734.729 611.678 736.046 610.952Z" fill="url(#paint23_linear_5187_5572)"/>
<path d="M746.812 538.55C745.664 535.797 744.068 530.948 744.346 524.857C744.512 521.227 744.949 511.733 752.446 505.547C759.697 499.561 770.719 499.01 778.858 503.792C785.647 507.783 788.281 514.222 789.07 516.431C786.073 520.286 780.978 525.837 773.223 530.474C762.486 536.899 752.228 538.237 746.812 538.55Z" fill="url(#paint24_linear_5187_5572)"/>
<path d="M801.473 646.746C785.352 651.191 765.001 650.59 750.316 643.716C732.426 635.342 727.425 618.746 727.489 604.092C728.302 589.335 730.458 574.719 734.042 560.191C738.705 545.484 747.164 531.181 763.493 521.561C773.942 515.406 786.5 511.716 799.779 514.644C811.01 518.19 816.859 526.774 820.782 534.776C825.754 544.919 828.779 555.279 829.692 566.079C830.53 575.274 832.442 584.22 835.47 593.159C843.718 615.183 831.649 638.65 801.473 646.746Z" fill="url(#paint25_radial_5187_5572)"/>
<path d="M819.004 556.104C817.38 555.795 810.668 554.324 805.974 548.029C800.251 540.354 802.156 531.713 802.452 530.474C805.548 523.761 812.503 519.854 819.38 520.798C826.86 521.823 831.371 528.199 832.738 533.634C835.065 542.882 828.441 549.967 827.505 550.936C824.413 554.131 820.923 555.507 819.004 556.104Z" fill="url(#paint26_linear_5187_5572)"/>
<path d="M776.527 578.894C776.192 580.438 779.894 583.872 783.88 582.994C786.863 582.338 789.229 579.441 788.652 578.065C787.644 575.653 777.038 576.527 776.527 578.894Z" fill="#F37343"/>
<path d="M771.722 573.788C769.81 571.882 766.708 571.882 764.795 573.788C762.883 575.695 762.883 578.788 764.795 580.694C766.708 582.601 769.81 582.601 771.722 580.694C773.635 578.788 773.635 575.695 771.722 573.788ZM771.085 580.059C769.525 581.614 766.996 581.614 765.436 580.059L771.085 574.427C772.645 575.979 772.645 578.5 771.085 580.059Z" fill="#F37343"/>
<path d="M800.381 573.788C798.468 571.882 795.366 571.882 793.454 573.788C791.541 575.695 791.541 578.788 793.454 580.694C795.366 582.601 798.468 582.601 800.381 580.694C802.293 578.788 802.293 575.695 800.381 573.788ZM799.74 580.059C798.18 581.614 795.651 581.614 794.091 580.059L799.74 574.427C801.3 575.979 801.3 578.5 799.74 580.059Z" fill="#F37343"/>
<path d="M991.33 181.823C989.697 181.809 988.88 181.809 987.247 181.823C973.647 182.02 959.072 178.536 948.631 169.333C938.084 160.036 933.811 146.132 934.249 132.315C934.691 120.057 935.136 107.798 935.578 95.5394C936.426 67.3277 957.593 38.4916 987.453 38.7196C988.922 38.7196 989.655 38.7196 991.123 38.7196C1020.98 38.4916 1042.15 67.3277 1043 95.5394C1043.44 107.798 1043.89 120.057 1044.33 132.315C1044.92 146.072 1040.41 160.113 1029.95 169.333C1019.44 178.596 1004.98 181.897 991.33 181.823Z" fill="url(#paint27_linear_5187_5572)"/>
<path d="M991.098 34.776L990.359 42.0456C990.352 42.1087 990.296 42.1543 990.233 42.1473C990.177 42.1403 990.134 42.0982 990.131 42.0456L989.391 34.776C989.342 34.3059 989.686 33.8848 990.159 33.8357C990.629 33.7866 991.049 34.1304 991.098 34.6041C991.102 34.6602 991.102 34.7234 991.098 34.776Z" fill="#F3C344"/>
<path d="M999.664 38.8916L994.025 43.5262C993.965 43.5754 993.877 43.5684 993.828 43.5052C993.786 43.4526 993.786 43.3789 993.828 43.3263L998.459 37.6811C998.76 37.3162 999.3 37.2636 999.664 37.5618C1000.03 37.8636 1000.08 38.4039 999.784 38.7688C999.749 38.8179 999.707 38.86 999.664 38.8916Z" fill="#F3C344"/>
<path d="M982.031 37.6847L986.749 43.2386C986.843 43.3509 986.829 43.5193 986.717 43.614C986.615 43.7017 986.468 43.6982 986.37 43.614L980.825 38.8916C980.464 38.5864 980.422 38.046 980.727 37.6847C981.032 37.3233 981.572 37.2812 981.933 37.5864C981.968 37.618 982.003 37.6531 982.031 37.6847Z" fill="#F3C344"/>
<path d="M930.257 103.128L937.519 103.868C937.582 103.875 937.628 103.932 937.621 103.995C937.614 104.051 937.572 104.093 937.519 104.096L930.257 104.837C929.787 104.886 929.366 104.542 929.317 104.068C929.268 103.598 929.612 103.177 930.085 103.128C930.141 103.125 930.204 103.125 930.257 103.128Z" fill="#F3C344"/>
<path d="M934.368 94.5536L938.998 100.199C939.047 100.258 939.04 100.346 938.977 100.395C938.924 100.437 938.851 100.437 938.798 100.395L933.162 95.764C932.797 95.4623 932.745 94.922 933.043 94.5571C933.344 94.1922 933.884 94.1396 934.248 94.4378C934.294 94.4729 934.336 94.515 934.368 94.5536Z" fill="#F3C344"/>
<path d="M933.163 112.205L938.712 107.482C938.824 107.387 938.992 107.402 939.087 107.514C939.174 107.616 939.171 107.763 939.087 107.861L934.369 113.412C934.064 113.773 933.524 113.815 933.163 113.51C932.802 113.205 932.76 112.664 933.065 112.303C933.096 112.268 933.131 112.233 933.163 112.205Z" fill="#F3C344"/>
<path d="M1048.37 103.128L1041.11 103.868C1041.04 103.875 1041 103.932 1041 103.995C1041.01 104.051 1041.05 104.093 1041.11 104.096L1048.37 104.837C1048.84 104.886 1049.26 104.542 1049.31 104.068C1049.36 103.598 1049.01 103.177 1048.54 103.128C1048.48 103.125 1048.42 103.125 1048.37 103.128Z" fill="#F3C344"/>
<path d="M1044.26 94.5532L1039.63 100.198C1039.58 100.258 1039.58 100.346 1039.65 100.395C1039.7 100.437 1039.77 100.437 1039.83 100.395L1045.47 95.7601C1045.83 95.4584 1045.88 94.9181 1045.58 94.5532C1045.28 94.1883 1044.74 94.1357 1044.38 94.4339C1044.33 94.4725 1044.29 94.5146 1044.26 94.5532Z" fill="#F3C344"/>
<path d="M1045.46 112.205L1039.91 107.482C1039.8 107.387 1039.63 107.402 1039.54 107.514C1039.45 107.616 1039.45 107.763 1039.54 107.861L1044.26 113.415C1044.56 113.776 1045.1 113.819 1045.46 113.513C1045.82 113.208 1045.87 112.668 1045.56 112.306C1045.53 112.268 1045.5 112.233 1045.46 112.205Z" fill="#F3C344"/>
<path d="M985.234 103.209C984.957 104.496 988.028 107.352 991.333 106.622C993.808 106.075 995.767 103.665 995.29 102.517C994.456 100.507 985.658 101.24 985.234 103.209Z" fill="#C4CF4D"/>
<path d="M981.252 98.9567C979.664 97.3673 977.095 97.3673 975.507 98.9567C973.919 100.546 973.919 103.118 975.507 104.707C977.095 106.296 979.664 106.296 981.252 104.707C982.836 103.121 982.836 100.546 981.252 98.9567ZM980.723 104.177C979.429 105.472 977.33 105.472 976.037 104.177L980.723 99.4864C982.016 100.781 982.016 102.883 980.723 104.177Z" fill="#C4CF4D"/>
<path d="M1005.02 98.9567C1003.43 97.3673 1000.86 97.3673 999.273 98.9567C997.685 100.546 997.685 103.118 999.273 104.707C1000.86 106.296 1003.43 106.296 1005.02 104.707C1006.61 103.121 1006.61 100.546 1005.02 98.9567ZM1004.49 104.177C1003.2 105.472 1001.1 105.472 999.802 104.177L1004.49 99.4864C1005.78 100.781 1005.78 102.883 1004.49 104.177Z" fill="#C4CF4D"/>
<defs>
<radialGradient id="paint0_radial_5187_5572" cx="0" cy="0" r="1" gradientUnits="userSpaceOnUse" gradientTransform="translate(337.003 823.748) scale(83.6325 82.7766)">
<stop stop-color="#F3EBD9"/>
<stop offset="0.4134" stop-color="#F4EAD7"/>
<stop offset="0.6395" stop-color="#F6E7CF"/>
<stop offset="0.8198" stop-color="#F9E2C1"/>
<stop offset="0.9759" stop-color="#FEDAAE"/>
<stop offset="1" stop-color="#FFD9AA"/>
</radialGradient>
<radialGradient id="paint1_radial_5187_5572" cx="0" cy="0" r="1" gradientUnits="userSpaceOnUse" gradientTransform="translate(444.332 821.723) scale(85.6536 84.777)">
<stop stop-color="#F3EBD9"/>
<stop offset="0.4134" stop-color="#F4EAD7"/>
<stop offset="0.6395" stop-color="#F6E7CF"/>
<stop offset="0.8198" stop-color="#F9E2C1"/>
<stop offset="0.9759" stop-color="#FEDAAE"/>
<stop offset="1" stop-color="#FFD9AA"/>
</radialGradient>
<radialGradient id="paint2_radial_5187_5572" cx="0" cy="0" r="1" gradientUnits="userSpaceOnUse" gradientTransform="translate(395.778 767.832) scale(102.338 101.291)">
<stop stop-color="#F3EBDA"/>
<stop offset="0.416" stop-color="#F4EAD8"/>
<stop offset="0.6436" stop-color="#F6E7D0"/>
<stop offset="0.825" stop-color="#F9E2C2"/>
<stop offset="0.9821" stop-color="#FEDBAF"/>
<stop offset="1" stop-color="#FFDAAC"/>
</radialGradient>
<radialGradient id="paint3_radial_5187_5572" cx="0" cy="0" r="1" gradientUnits="userSpaceOnUse" gradientTransform="translate(572.502 655.481) scale(70.6889 94.1068)">
<stop stop-color="#5AA668"/>
<stop offset="0.4873" stop-color="#56965F"/>
<stop offset="1" stop-color="#508054"/>
</radialGradient>
<radialGradient id="paint4_radial_5187_5572" cx="0" cy="0" r="1" gradientUnits="userSpaceOnUse" gradientTransform="translate(614.422 810.366) rotate(-128.456) scale(35.975 62.9218)">
<stop stop-color="#C8DE90"/>
<stop offset="0.457" stop-color="#B8DE8E"/>
<stop offset="1" stop-color="#9FDE8C"/>
</radialGradient>
<radialGradient id="paint5_radial_5187_5572" cx="0" cy="0" r="1" gradientUnits="userSpaceOnUse" gradientTransform="translate(508.767 792.969) rotate(-51.5441) scale(28.3163 49.5264)">
<stop stop-color="#C8DE90"/>
<stop offset="0.457" stop-color="#B8DE8E"/>
<stop offset="1" stop-color="#9FDE8C"/>
</radialGradient>
<radialGradient id="paint6_radial_5187_5572" cx="0" cy="0" r="1" gradientUnits="userSpaceOnUse" gradientTransform="translate(396.798 871.794) rotate(-51.5441) scale(65.1419 113.936)">
<stop stop-color="#C8DE90"/>
<stop offset="0.457" stop-color="#B8DE8E"/>
<stop offset="1" stop-color="#9FDE8C"/>
</radialGradient>
<radialGradient id="paint7_radial_5187_5572" cx="0" cy="0" r="1" gradientUnits="userSpaceOnUse" gradientTransform="translate(540.397 806.797) rotate(-51.5441) scale(34.2959 59.9849)">
<stop stop-color="#C8DE90"/>
<stop offset="0.457" stop-color="#B8DE8E"/>
<stop offset="1" stop-color="#9FDE8C"/>
</radialGradient>
<radialGradient id="paint8_radial_5187_5572" cx="0" cy="0" r="1" gradientUnits="userSpaceOnUse" gradientTransform="translate(742.688 809.044) rotate(-128.456) scale(59.0661 103.309)">
<stop stop-color="#C8DE90"/>
<stop offset="0.457" stop-color="#B8DE8E"/>
<stop offset="1" stop-color="#9FDE8C"/>
</radialGradient>
<radialGradient id="paint9_radial_5187_5572" cx="0" cy="0" r="1" gradientUnits="userSpaceOnUse" gradientTransform="translate(760.412 874.503) rotate(-128.456) scale(68.538 119.876)">
<stop stop-color="#C8DE90"/>
<stop offset="0.457" stop-color="#B8DE8E"/>
<stop offset="1" stop-color="#9FDE8C"/>
</radialGradient>
<radialGradient id="paint10_radial_5187_5572" cx="0" cy="0" r="1" gradientUnits="userSpaceOnUse" gradientTransform="translate(666.917 826.496) rotate(-128.456) scale(39.5935 69.2507)">
<stop stop-color="#C8DE90"/>
<stop offset="0.457" stop-color="#B8DE8E"/>
<stop offset="1" stop-color="#9FDE8C"/>
</radialGradient>
<radialGradient id="paint11_radial_5187_5572" cx="0" cy="0" r="1" gradientUnits="userSpaceOnUse" gradientTransform="translate(580.923 729.666) rotate(-79.8736) scale(99.7421 132.815)">
<stop stop-color="#C8DE90"/>
<stop offset="0.457" stop-color="#B8DE8E"/>
<stop offset="1" stop-color="#9FDE8C"/>
</radialGradient>
<radialGradient id="paint12_radial_5187_5572" cx="0" cy="0" r="1" gradientUnits="userSpaceOnUse" gradientTransform="translate(561.006 722.77) rotate(-100.126) scale(93.9671 125.125)">
<stop stop-color="#C8DE90"/>
<stop offset="0.457" stop-color="#B8DE8E"/>
<stop offset="1" stop-color="#9FDE8C"/>
</radialGradient>
<radialGradient id="paint13_radial_5187_5572" cx="0" cy="0" r="1" gradientUnits="userSpaceOnUse" gradientTransform="translate(567.921 634.973) scale(59.4443 91.0948)">
<stop stop-color="#4CCC4F"/>
<stop offset="0.4873" stop-color="#56BC5E"/>
<stop offset="1" stop-color="#64A671"/>
</radialGradient>
<radialGradient id="paint14_radial_5187_5572" cx="0" cy="0" r="1" gradientUnits="userSpaceOnUse" gradientTransform="translate(563.67 679.893) rotate(-96.6708) scale(22.4088 39.2001)">
<stop stop-color="#E6FFA6"/>
<stop offset="0.4072" stop-color="#D6FFA4"/>
<stop offset="1" stop-color="#B7FFA1"/>
</radialGradient>
<radialGradient id="paint15_radial_5187_5572" cx="0" cy="0" r="1" gradientUnits="userSpaceOnUse" gradientTransform="translate(563.668 679.893) rotate(-96.6708) scale(22.4087 39.2)">
<stop stop-color="#E6FFA6"/>
<stop offset="0.4072" stop-color="#D6FFA4"/>
<stop offset="1" stop-color="#B7FFA1"/>
</radialGradient>
<radialGradient id="paint16_radial_5187_5572" cx="0" cy="0" r="1" gradientUnits="userSpaceOnUse" gradientTransform="translate(563.67 679.893) rotate(-96.6708) scale(22.4088 39.2001)">
<stop stop-color="#E6FFA6"/>
<stop offset="0.4072" stop-color="#D6FFA4"/>
<stop offset="1" stop-color="#B7FFA1"/>
</radialGradient>
<radialGradient id="paint17_radial_5187_5572" cx="0" cy="0" r="1" gradientUnits="userSpaceOnUse" gradientTransform="translate(563.669 679.893) rotate(-96.6708) scale(22.4088 39.2001)">
<stop stop-color="#E6FFA6"/>
<stop offset="0.4072" stop-color="#D6FFA4"/>
<stop offset="1" stop-color="#B7FFA1"/>
</radialGradient>
<radialGradient id="paint18_radial_5187_5572" cx="0" cy="0" r="1" gradientUnits="userSpaceOnUse" gradientTransform="translate(567.413 683.941) rotate(-108.022) scale(22.4114 39.2012)">
<stop stop-color="#E6FFA6"/>
<stop offset="0.4072" stop-color="#D6FFA4"/>
<stop offset="1" stop-color="#B7FFA1"/>
</radialGradient>
<radialGradient id="paint19_radial_5187_5572" cx="0" cy="0" r="1" gradientUnits="userSpaceOnUse" gradientTransform="translate(563.67 679.893) rotate(-96.6708) scale(22.4088 39.2001)">
<stop stop-color="#E6FFA6"/>
<stop offset="0.4072" stop-color="#D6FFA4"/>
<stop offset="1" stop-color="#B7FFA1"/>
</radialGradient>
<radialGradient id="paint20_radial_5187_5572" cx="0" cy="0" r="1" gradientUnits="userSpaceOnUse" gradientTransform="translate(563.669 679.892) rotate(-96.6708) scale(22.4088 39.2001)">
<stop stop-color="#E6FFA6"/>
<stop offset="0.4072" stop-color="#D6FFA4"/>
<stop offset="1" stop-color="#B7FFA1"/>
</radialGradient>
<radialGradient id="paint21_radial_5187_5572" cx="0" cy="0" r="1" gradientUnits="userSpaceOnUse" gradientTransform="translate(563.669 679.893) rotate(-96.6708) scale(22.4088 39.2001)">
<stop stop-color="#E6FFA6"/>
<stop offset="0.4072" stop-color="#D6FFA4"/>
<stop offset="1" stop-color="#B7FFA1"/>
</radialGradient>
<radialGradient id="paint22_radial_5187_5572" cx="0" cy="0" r="1" gradientUnits="userSpaceOnUse" gradientTransform="translate(567.447 750.218) rotate(-81.87) scale(83.7786 111.557)">
<stop stop-color="#E6FFA6"/>
<stop offset="0.4072" stop-color="#D6FFA4"/>
<stop offset="1" stop-color="#B7FFA1"/>
</radialGradient>
<linearGradient id="paint23_linear_5187_5572" x1="718.691" y1="607.712" x2="728.55" y2="602.237" gradientUnits="userSpaceOnUse">
<stop stop-color="#FFB5B5"/>
<stop offset="0.1947" stop-color="#FFB7AB"/>
<stop offset="0.5228" stop-color="#FFBD91"/>
<stop offset="0.9419" stop-color="#FEC766"/>
<stop offset="1" stop-color="#FEC860"/>
</linearGradient>
<linearGradient id="paint24_linear_5187_5572" x1="748.596" y1="496.17" x2="763.825" y2="520.529" gradientUnits="userSpaceOnUse">
<stop stop-color="#FFB5B5"/>
<stop offset="0.1947" stop-color="#FFB7AB"/>
<stop offset="0.5228" stop-color="#FFBD91"/>
<stop offset="0.9419" stop-color="#FEC766"/>
<stop offset="1" stop-color="#FEC860"/>
</linearGradient>
<radialGradient id="paint25_radial_5187_5572" cx="0" cy="0" r="1" gradientUnits="userSpaceOnUse" gradientTransform="translate(784.799 605.839) scale(58.3539 58.1775)">
<stop stop-color="#FFDF9C"/>
<stop offset="0.2933" stop-color="#FCD894"/>
<stop offset="0.7483" stop-color="#F5C67E"/>
<stop offset="1" stop-color="#F0BA6F"/>
</radialGradient>
<linearGradient id="paint26_linear_5187_5572" x1="844.173" y1="527.68" x2="803.043" y2="543.851" gradientUnits="userSpaceOnUse">
<stop stop-color="white"/>
<stop offset="0.2538" stop-color="#FFB5B5"/>
<stop offset="0.3991" stop-color="#FFB7AB"/>
<stop offset="0.6439" stop-color="#FFBD91"/>
<stop offset="0.9567" stop-color="#FEC766"/>
<stop offset="1" stop-color="#FEC860"/>
</linearGradient>
<linearGradient id="paint27_linear_5187_5572" x1="989.299" y1="168.309" x2="989.299" y2="58.4573" gradientUnits="userSpaceOnUse">
<stop stop-color="#6A4727"/>
<stop offset="0.1931" stop-color="#734D2A"/>
<stop offset="0.5059" stop-color="#8B5E31"/>
<stop offset="0.8973" stop-color="#B27A3D"/>
<stop offset="1" stop-color="#BD8240"/>
</linearGradient>
</defs>
</svg>
