<svg width="1342" height="1024" viewBox="0 0 1342 1024" fill="none" xmlns="http://www.w3.org/2000/svg">
<path d="M972.922 399.431L169 867.129L388.777 996L1171.01 535.542C1176.79 511.216 1168.6 498.377 1163.78 494.998C1115.58 466.487 1015.72 407.457 1001.84 399.431C987.959 391.406 976.778 396.087 972.922 399.431Z" fill="#F4EFEF" stroke="black" stroke-linejoin="round"/>
<path d="M759 554C775.24 560.859 843.1 600.858 875 620" stroke="black"/>
<path d="M249 850.714C265.24 857.677 333.1 898.282 365 917.714" stroke="black"/>
<path d="M844 504C860.24 510.963 928.1 551.568 960 571" stroke="black"/>
<path d="M334 801.571C350.24 808.43 418.1 848.429 450 867.571" stroke="black"/>
<path d="M929 455C945.24 461.859 1013.1 501.858 1045 521" stroke="black"/>
<path d="M419 752.428C435.24 759.287 503.1 799.286 535 818.428" stroke="black"/>
<path d="M504 703.286C520.24 710.144 588.1 750.144 620 769.286" stroke="black"/>
<path d="M589 653.143C605.38 660.105 673.825 700.711 706 720.143" stroke="black"/>
<path d="M675 603C691.1 609.963 758.375 650.568 790 670" stroke="black"/>
<path d="M341.037 967.974L1163 497" stroke="black"/>
<ellipse cx="535.093" cy="883.23" rx="17.7269" ry="12.8657" transform="rotate(-54.8943 535.093 883.23)" fill="#8FE3C1"/>
<ellipse cx="826.042" cy="715.487" rx="17.7269" ry="12.8657" transform="rotate(-54.8943 826.042 715.487)" fill="#8FE3C1"/>
<ellipse cx="973.554" cy="631.609" rx="17.7269" ry="12.8657" transform="rotate(-54.8943 973.554 631.609)" fill="#8FE3C1"/>
<ellipse cx="1118.17" cy="547.73" rx="17.7269" ry="12.8657" transform="rotate(-54.8943 1118.17 547.73)" fill="#8FE3C1"/>
<ellipse cx="681.423" cy="799.366" rx="17.7269" ry="12.8657" transform="rotate(-54.8943 681.423 799.366)" fill="#8FE3C1"/>
<path d="M782.5 554.896V653.439L694.5 604.146V501.66L782.5 554.896Z" fill="#D9D9D9" stroke="#8FE3C1" stroke-width="3"/>
<path d="M869.5 602.209L785.5 653.33V554.915L869.5 499.778V602.209Z" fill="#3DCE94" stroke="#8FE3C1" stroke-width="3"/>
<path d="M868.135 497.544L783.989 552.231L695.959 499.515L784.02 448.733L868.135 497.544Z" fill="#D9D9D9" stroke="#8FE3C1" stroke-width="3"/>
<path d="M1078.74 422.269L1012.44 412.637C1007.82 411.964 1003.11 411.886 998.469 412.407C959.514 416.756 920.556 421.101 881.601 425.45C877.834 425.87 875 428.812 875 432.306V490.857C875 493.022 876.463 494.96 878.671 495.71C912.952 507.407 947.23 519.1 981.511 530.797C987.335 532.784 993.819 532.292 999.211 529.454C1027.26 514.694 1055.32 499.93 1083.37 485.169C1085 484.311 1086 482.713 1085.99 480.989C1085.89 463.898 1085.79 446.805 1085.69 429.714C1085.67 426 1082.73 422.848 1078.74 422.269Z" fill="#E5CA9A"/>
<path d="M875 431.539V491.349C875 493.096 876.115 494.652 877.782 495.225C912.907 507.281 948.032 519.336 983.153 531.389C985.836 532.308 988.632 530.331 988.632 527.513V449.522C988.632 447.526 987.183 445.821 985.203 445.481L879.828 427.498C877.307 427.067 875 428.996 875 431.539Z" fill="url(#paint0_radial_5187_5558)"/>
<path d="M991.752 449.257V526.241C991.752 529.328 995.054 531.308 997.804 529.868C1026.47 514.878 1055.13 499.884 1083.8 484.894C1085.16 484.179 1086.02 482.762 1086 481.225C1085.82 463.817 1085.64 446.41 1085.45 428.999C1085.43 426.369 1082.95 424.444 1080.37 425.052L994.921 445.268C993.067 445.708 991.752 447.358 991.752 449.257Z" fill="url(#paint1_radial_5187_5558)"/>
<path d="M998.62 412.378L881.541 425.605L989.364 442.97C989.888 443.055 990.426 443.038 990.946 442.919L1080.68 422.534L1014.16 412.65C1009.02 411.886 1003.79 411.796 998.62 412.378Z" fill="url(#paint2_radial_5187_5558)"/>
<path d="M925.768 484.745C922.209 483.8 919.93 479.672 919.653 479.147C919.185 478.261 919.403 477.313 920.141 477.025C920.883 476.74 921.861 477.225 922.329 478.112C922.403 478.251 924.147 481.532 926.376 481.561C927.79 481.587 928.954 480.332 929.573 479.147C929.946 478.432 930.888 478.329 931.683 478.931C932.474 479.526 932.812 480.59 932.439 481.305C931.859 482.415 930.182 484.991 927.115 484.933C926.651 484.929 926.201 484.861 925.768 484.745Z" fill="#FF9A00"/>
<path d="M908.173 479.377C911.538 480.273 914.267 478.186 914.267 474.718L902.078 471.476C902.078 474.944 904.807 478.481 908.173 479.377Z" fill="#FF9A00"/>
<path d="M943.829 488.857C947.194 489.754 949.923 487.667 949.923 484.198L937.734 480.956C937.734 484.425 940.46 487.961 943.829 488.857Z" fill="#FF9A00"/>
<path d="M886 323V406.316" stroke="black"/>
<path d="M1080 325V408.316" stroke="black"/>
<path d="M937.734 283V366.316" stroke="black"/>
<defs>
<radialGradient id="paint0_radial_5187_5558" cx="0" cy="0" r="1" gradientUnits="userSpaceOnUse" gradientTransform="translate(931.813 479.523) scale(83.69 76.9994)">
<stop stop-color="#F3EBD9"/>
<stop offset="0.4134" stop-color="#F4EAD7"/>
<stop offset="0.6395" stop-color="#F6E7CF"/>
<stop offset="0.8198" stop-color="#F9E2C1"/>
<stop offset="0.9759" stop-color="#FEDAAE"/>
<stop offset="1" stop-color="#FFD9AA"/>
</radialGradient>
<radialGradient id="paint1_radial_5187_5558" cx="0" cy="0" r="1" gradientUnits="userSpaceOnUse" gradientTransform="translate(1038.87 477.64) scale(85.7124 78.8602)">
<stop stop-color="#F3EBD9"/>
<stop offset="0.4134" stop-color="#F4EAD7"/>
<stop offset="0.6395" stop-color="#F6E7CF"/>
<stop offset="0.8198" stop-color="#F9E2C1"/>
<stop offset="0.9759" stop-color="#FEDAAE"/>
<stop offset="1" stop-color="#FFD9AA"/>
</radialGradient>
<radialGradient id="paint2_radial_5187_5558" cx="0" cy="0" r="1" gradientUnits="userSpaceOnUse" gradientTransform="translate(981.105 427.51) scale(102.408 94.2215)">
<stop stop-color="#F3EBDA"/>
<stop offset="0.416" stop-color="#F4EAD8"/>
<stop offset="0.6436" stop-color="#F6E7D0"/>
<stop offset="0.825" stop-color="#F9E2C2"/>
<stop offset="0.9821" stop-color="#FEDBAF"/>
<stop offset="1" stop-color="#FFDAAC"/>
</radialGradient>
</defs>
</svg>
