<svg width="350" height="425" viewBox="0 0 350 425" fill="none" xmlns="http://www.w3.org/2000/svg">
<path d="M37.5988 200.503L35.4388 219.213C35.4188 219.393 35.2488 219.533 35.0688 219.503C34.9088 219.483 34.7888 219.363 34.7788 219.213L32.6088 200.493C32.4488 199.113 33.4388 197.863 34.8188 197.703C36.1988 197.543 37.4488 198.533 37.6088 199.913C37.6188 200.113 37.6188 200.313 37.5988 200.503Z" fill="#F37343"/>
<path d="M59.5988 211.313L44.8888 223.073C44.7088 223.213 44.4487 223.183 44.3087 223.013C44.1887 222.863 44.1887 222.643 44.3087 222.493L56.0688 207.783C56.9388 206.693 58.5188 206.523 59.6088 207.393C60.6988 208.263 60.8688 209.843 59.9988 210.933C59.8688 211.063 59.7288 211.203 59.5988 211.313Z" fill="#F37343"/>
<path d="M14.138 207.773L26.158 222.223C26.438 222.553 26.388 223.053 26.058 223.323C25.768 223.563 25.338 223.563 25.058 223.323L10.608 211.303C9.53802 210.413 9.39802 208.833 10.278 207.763C11.168 206.693 12.748 206.553 13.818 207.433C13.938 207.553 14.048 207.663 14.138 207.773Z" fill="#F37343"/>
<path d="M3.08821 229.523L21.8082 231.693C21.9882 231.713 22.1282 231.883 22.0982 232.063C22.0782 232.223 21.9582 232.343 21.8082 232.353L3.08821 234.523C1.70821 234.683 0.458211 233.693 0.298211 232.313C0.138211 230.933 1.12821 229.683 2.50821 229.523C2.69821 229.503 2.89821 229.503 3.08821 229.523Z" fill="#F37343"/>
<path d="M10.3583 252.983L24.8083 240.963C25.1383 240.683 25.6383 240.733 25.9083 241.063C26.1483 241.353 26.1483 241.783 25.9083 242.063L13.8883 256.513C12.9983 257.583 11.4183 257.723 10.3483 256.843C9.27826 255.953 9.13826 254.373 10.0183 253.303C10.1283 253.193 10.2483 253.073 10.3583 252.983Z" fill="#F37343"/>
<path d="M32.1087 264.043L34.2787 245.323C34.2987 245.143 34.4688 245.003 34.6488 245.033C34.8088 245.053 34.9288 245.173 34.9388 245.323L37.1087 264.043C37.2687 265.423 36.2788 266.673 34.8988 266.833C33.5188 266.993 32.2687 266.003 32.1087 264.623C32.0888 264.423 32.0888 264.223 32.1087 264.043Z" fill="#F37343"/>
<path d="M55.5684 256.763L43.5484 242.313C43.2684 241.983 43.3184 241.483 43.6484 241.213C43.9384 240.973 44.3684 240.973 44.6484 241.213L59.0984 253.233C60.1684 254.123 60.3084 255.703 59.4284 256.773C58.5384 257.843 56.9584 257.983 55.8884 257.103C55.7784 256.993 55.6584 256.873 55.5684 256.763Z" fill="#F37343"/>
<path d="M66.6283 235.013L47.9083 232.843C47.7283 232.823 47.5883 232.653 47.6183 232.473C47.6383 232.313 47.7583 232.193 47.9083 232.183L66.6283 230.013C68.0083 229.853 69.2583 230.843 69.4183 232.223C69.5783 233.603 68.5883 234.853 67.2083 235.013C67.0083 235.043 66.8083 235.033 66.6283 235.013Z" fill="#F37343"/>
<path d="M60.2087 314.353C61.4187 311.763 68.8187 295.153 60.8587 277.233C55.1387 264.373 44.7987 258.223 41.2287 256.313C37.9087 256.493 26.1487 257.513 16.8887 266.873C9.17871 274.663 2.53872 288.923 8.30872 302.013C15.6487 318.653 36.9087 319.473 39.8187 319.543C49.2087 319.753 56.4687 316.423 60.2087 314.353Z" fill="url(#paint0_linear_2569_1898)"/>
<path d="M90.7784 108.133C87.5184 100.293 82.9884 86.4832 83.7784 69.1332C84.2484 58.7932 85.4884 31.7532 106.778 14.1332C127.368 -2.91676 158.668 -4.48676 181.778 9.13324C201.058 20.5032 208.538 38.8432 210.778 45.1332C202.268 56.1132 187.798 71.9232 165.778 85.1332C135.298 103.433 106.158 107.243 90.7784 108.133Z" fill="url(#paint1_linear_2569_1898)"/>
<path d="M245.998 416.303C200.218 428.963 142.428 427.253 100.728 407.673C49.9279 383.823 35.7279 336.553 35.9079 294.813C38.2179 252.783 44.3379 211.153 54.5179 169.773C67.7579 127.883 91.7779 87.1433 138.148 59.7433C167.818 42.2133 203.478 31.7033 241.188 40.0433C273.078 50.1433 289.688 74.5933 300.828 97.3833C314.948 126.273 323.538 155.783 326.128 186.543C328.508 212.733 333.938 238.213 342.538 263.673C365.968 326.403 331.688 393.243 245.998 416.303Z" fill="url(#paint2_radial_2569_1898)"/>
<path d="M295.778 158.133C291.168 157.253 272.108 153.063 258.778 135.133C242.528 113.273 247.938 88.6633 248.778 85.1333C257.568 66.0133 277.318 54.8833 296.848 57.5733C318.088 60.4933 330.898 78.6533 334.778 94.1333C341.388 120.473 322.578 140.653 319.918 143.413C311.138 152.513 301.228 156.433 295.778 158.133Z" fill="url(#paint3_linear_2569_1898)"/>
<path d="M175.158 223.043C174.208 227.443 184.718 237.223 196.038 234.723C204.508 232.853 211.228 224.603 209.588 220.683C206.728 213.813 176.608 216.303 175.158 223.043Z" fill="#F37343"/>
<path d="M161.518 208.503C156.088 203.073 147.278 203.073 141.848 208.503C136.418 213.933 136.418 222.743 141.848 228.173C147.278 233.603 156.088 233.603 161.518 228.173C166.958 222.743 166.958 213.933 161.518 208.503ZM159.708 226.363C155.278 230.793 148.098 230.793 143.668 226.363L159.708 210.323C164.138 214.743 164.138 221.923 159.708 226.363Z" fill="#F37343"/>
<path d="M242.899 208.503C237.469 203.073 228.659 203.073 223.229 208.503C217.799 213.933 217.799 222.743 223.229 228.173C228.659 233.603 237.469 233.603 242.899 228.173C248.329 222.743 248.329 213.933 242.899 208.503ZM241.079 226.363C236.649 230.793 229.469 230.793 225.039 226.363L241.079 210.323C245.519 214.743 245.519 221.923 241.079 226.363Z" fill="#F37343"/>
<path d="M289.379 16.3933L287.209 37.6833C287.189 37.8633 287.029 38.0033 286.839 37.9833C286.679 37.9633 286.559 37.8433 286.539 37.6833L284.369 16.3933C284.229 15.0133 285.229 13.7833 286.619 13.6433C287.999 13.5033 289.229 14.5033 289.369 15.8933C289.399 16.0433 289.399 16.2233 289.379 16.3933Z" fill="#F37343"/>
<path d="M314.499 28.4433L297.969 42.0133C297.789 42.1533 297.529 42.1333 297.389 41.9533C297.259 41.8033 297.269 41.5833 297.389 41.4333L310.959 24.9033C311.839 23.8333 313.419 23.6733 314.499 24.5533C315.569 25.4333 315.729 27.0133 314.849 28.0933C314.739 28.2233 314.619 28.3433 314.499 28.4433Z" fill="#F37343"/>
<path d="M262.809 24.9034L276.649 41.1734C276.929 41.5034 276.889 41.9934 276.559 42.2734C276.259 42.5234 275.829 42.5134 275.549 42.2734L259.279 28.4334C258.219 27.5334 258.099 25.9534 258.989 24.8934C259.879 23.8334 261.469 23.7134 262.529 24.6034C262.619 24.7034 262.719 24.8134 262.809 24.9034Z" fill="#F37343"/>
<path d="M250.468 49.7433L271.758 51.9133C271.938 51.9333 272.078 52.0933 272.058 52.2833C272.038 52.4433 271.918 52.5633 271.758 52.5833L250.468 54.7533C249.088 54.8933 247.858 53.8933 247.718 52.5033C247.578 51.1233 248.578 49.8933 249.968 49.7533C250.128 49.7233 250.308 49.7233 250.468 49.7433Z" fill="#F37343"/>
<path d="M258.988 76.3233L275.258 62.4833C275.588 62.2033 276.078 62.2433 276.358 62.5733C276.608 62.8733 276.598 63.3033 276.358 63.5833L262.518 79.8533C261.618 80.9133 260.038 81.0333 258.978 80.1433C257.918 79.2433 257.798 77.6633 258.688 76.6033C258.788 76.5033 258.888 76.4033 258.988 76.3233Z" fill="#F37343"/>
<path d="M283.818 88.6533L285.988 67.3633C286.008 67.1833 286.168 67.0433 286.358 67.0633C286.518 67.0833 286.638 67.2033 286.658 67.3633L288.828 88.6533C288.968 90.0333 287.968 91.2633 286.578 91.4033C285.198 91.5433 283.968 90.5433 283.828 89.1533C283.808 88.9933 283.808 88.8133 283.818 88.6533Z" fill="#F37343"/>
<path d="M310.397 80.1334L296.557 63.8634C296.277 63.5334 296.317 63.0434 296.647 62.7634C296.947 62.5134 297.377 62.5234 297.657 62.7634L313.937 76.6034C314.997 77.5034 315.117 79.0834 314.227 80.1434C313.337 81.2034 311.747 81.3234 310.687 80.4334C310.587 80.3334 310.487 80.2334 310.397 80.1334Z" fill="#F37343"/>
<path d="M322.738 55.3033L301.448 53.1333C301.268 53.1133 301.128 52.9533 301.148 52.7633C301.168 52.6033 301.288 52.4833 301.448 52.4633L322.738 50.2933C324.118 50.1533 325.348 51.1533 325.488 52.5433C325.628 53.9233 324.628 55.1533 323.238 55.2933C323.078 55.3233 322.898 55.3133 322.738 55.3033Z" fill="#F37343"/>
<defs>
<linearGradient id="paint0_linear_2569_1898" x1="10.9287" y1="305.124" x2="38.9633" y2="289.603" gradientUnits="userSpaceOnUse">
<stop stop-color="#FFB5B5"/>
<stop offset="0.1947" stop-color="#FFB7AB"/>
<stop offset="0.5228" stop-color="#FFBD91"/>
<stop offset="0.9419" stop-color="#FEC766"/>
<stop offset="1" stop-color="#FEC860"/>
</linearGradient>
<linearGradient id="paint1_linear_2569_1898" x1="95.8461" y1="-12.5737" x2="139.281" y2="56.6871" gradientUnits="userSpaceOnUse">
<stop stop-color="#FFB5B5"/>
<stop offset="0.1947" stop-color="#FFB7AB"/>
<stop offset="0.5228" stop-color="#FFBD91"/>
<stop offset="0.9419" stop-color="#FEC766"/>
<stop offset="1" stop-color="#FEC860"/>
</linearGradient>
<radialGradient id="paint2_radial_2569_1898" cx="0" cy="0" r="1" gradientUnits="userSpaceOnUse" gradientTransform="translate(198.649 299.789) scale(165.705 165.705)">
<stop stop-color="#FFDF9C"/>
<stop offset="0.2933" stop-color="#FCD894"/>
<stop offset="0.7483" stop-color="#F5C67E"/>
<stop offset="1" stop-color="#F0BA6F"/>
</radialGradient>
<linearGradient id="paint3_linear_2569_1898" x1="367.253" y1="77.1779" x2="250.365" y2="122.996" gradientUnits="userSpaceOnUse">
<stop stop-color="white"/>
<stop offset="0.2538" stop-color="#FFB5B5"/>
<stop offset="0.3991" stop-color="#FFB7AB"/>
<stop offset="0.6439" stop-color="#FFBD91"/>
<stop offset="0.9567" stop-color="#FEC766"/>
<stop offset="1" stop-color="#FEC860"/>
</linearGradient>
</defs>
</svg>
