<svg width="164" height="201" viewBox="0 0 164 201" fill="none" xmlns="http://www.w3.org/2000/svg">
<path d="M25.7116 148.884C26.2856 147.657 29.7961 139.79 26.0199 131.303C23.3064 125.212 18.4012 122.3 16.7076 121.395C15.1326 121.48 9.55377 121.963 5.1609 126.396C1.50334 130.086 -1.64662 136.84 1.09062 143.039C4.57266 150.92 14.6582 151.309 16.0387 151.342C20.4932 151.441 23.9373 149.864 25.7116 148.884Z" fill="url(#paint0_linear_4373_2310)"/>
<path d="M40.2135 51.214C38.6669 47.5009 36.518 40.9602 36.8927 32.7429C37.1157 27.8456 37.7039 15.039 47.8037 6.69378C57.5715 -1.38144 72.4199 -2.12502 83.3831 4.32568C92.5294 9.71074 96.0778 18.3969 97.1405 21.376C93.1034 26.5763 86.2389 34.0643 75.7928 40.3208C61.3286 48.988 47.5096 50.7925 40.2135 51.214Z" fill="url(#paint1_linear_4373_2310)"/>
<path d="M113.849 197.169C92.1317 203.165 64.7166 202.356 44.9345 193.082C20.8354 181.786 14.099 159.398 14.1844 139.629C15.2802 119.723 18.1835 100.006 23.0128 80.4079C29.2938 60.5679 40.6887 41.2727 62.6862 28.2955C76.7614 19.9929 93.6782 15.0152 111.568 18.9652C126.696 23.7487 134.576 35.3287 139.86 46.1225C146.559 59.8054 150.634 73.7819 151.862 88.3505C152.991 100.755 155.567 112.822 159.647 124.881C170.757 154.591 154.5 186.248 113.849 197.169Z" fill="url(#paint2_radial_4373_2310)"/>
<path d="M137.463 74.8952C135.277 74.4784 126.235 72.4939 119.911 64.0019C112.202 53.6486 114.769 41.9928 115.167 40.3209C119.337 31.2653 128.706 25.9939 137.971 27.268C148.047 28.6509 154.124 37.2519 155.965 44.5835C159.101 57.0586 150.177 66.6163 148.915 67.9235C144.75 72.2334 140.049 74.09 137.463 74.8952Z" fill="url(#paint3_linear_4373_2310)"/>
<path d="M80.2432 105.638C79.7926 107.722 84.7784 112.354 90.1485 111.17C94.1666 110.284 97.3545 106.376 96.5765 104.52C95.2198 101.266 80.9311 102.445 80.2432 105.638Z" fill="#F37343"/>
<path d="M73.773 98.7513C71.1971 96.1796 67.0177 96.1796 64.4417 98.7513C61.8658 101.323 61.8658 105.496 64.4417 108.067C67.0177 110.639 71.1971 110.639 73.773 108.067C76.349 105.496 76.349 101.323 73.773 98.7513ZM72.9144 107.21C70.8128 109.308 67.4067 109.308 65.3051 107.21L72.9144 99.6133C75.0159 101.707 75.0159 105.107 72.9144 107.21Z" fill="#F37343"/>
<path d="M112.378 98.7513C109.803 96.1796 105.623 96.1796 103.047 98.7513C100.471 101.323 100.471 105.496 103.047 108.067C105.623 110.639 109.803 110.639 112.378 108.067C114.954 105.496 114.954 101.323 112.378 98.7513ZM111.515 107.21C109.414 109.308 106.007 109.308 103.906 107.21L111.515 99.6133C113.617 101.707 113.617 105.107 111.515 107.21Z" fill="#F37343"/>
<defs>
<linearGradient id="paint0_linear_4373_2310" x1="2.33268" y1="144.514" x2="15.6219" y2="137.144" gradientUnits="userSpaceOnUse">
<stop stop-color="#FFB5B5"/>
<stop offset="0.1947" stop-color="#FFB7AB"/>
<stop offset="0.5228" stop-color="#FFBD91"/>
<stop offset="0.9419" stop-color="#FEC766"/>
<stop offset="1" stop-color="#FEC860"/>
</linearGradient>
<linearGradient id="paint1_linear_4373_2310" x1="42.6168" y1="-5.95514" x2="63.1738" y2="26.8783" gradientUnits="userSpaceOnUse">
<stop stop-color="#FFB5B5"/>
<stop offset="0.1947" stop-color="#FFB7AB"/>
<stop offset="0.5228" stop-color="#FFBD91"/>
<stop offset="0.9419" stop-color="#FEC766"/>
<stop offset="1" stop-color="#FEC860"/>
</linearGradient>
<radialGradient id="paint2_radial_4373_2310" cx="0" cy="0" r="1" gradientUnits="userSpaceOnUse" gradientTransform="translate(91.3867 141.986) scale(78.609 78.4811)">
<stop stop-color="#FFDF9C"/>
<stop offset="0.2933" stop-color="#FCD894"/>
<stop offset="0.7483" stop-color="#F5C67E"/>
<stop offset="1" stop-color="#F0BA6F"/>
</radialGradient>
<linearGradient id="paint3_linear_4373_2310" x1="171.369" y1="36.5523" x2="115.943" y2="58.3139" gradientUnits="userSpaceOnUse">
<stop stop-color="white"/>
<stop offset="0.2538" stop-color="#FFB5B5"/>
<stop offset="0.3991" stop-color="#FFB7AB"/>
<stop offset="0.6439" stop-color="#FFBD91"/>
<stop offset="0.9567" stop-color="#FEC766"/>
<stop offset="1" stop-color="#FEC860"/>
</linearGradient>
</defs>
</svg>
