<svg width="367" height="607" viewBox="0 0 367 607" fill="none" xmlns="http://www.w3.org/2000/svg">
<path d="M366.677 240.46C366.468 224.101 362.848 210.792 359.577 201.77C360.611 195.709 361.974 182.824 356.702 167.971C350.648 150.914 339.353 141.105 334.514 137.343C326.705 110.282 314.338 98.5299 304.56 92.7923C299.272 89.6888 281.855 77.2067 262.358 80.1642C226.05 85.6737 224.33 137.225 189.315 152.485C171.472 160.256 142.579 159.649 93.6456 125.654C66.6582 117.496 39.7163 125.324 26.9702 143.885C18.2969 156.516 18.6326 170.588 19.2138 176.907C14.6667 185.349 9.16034 198.001 6.56658 214.155C2.63913 238.684 7.46309 258.709 10.9213 269.429C4.54261 308.298 13.6505 332.816 19.6786 344.868C33.844 373.175 52.0319 390.887 52.0319 390.887C55.5039 397.437 60.3841 407.77 64.1102 421.137C68.3612 436.377 67.1385 441.311 70.7783 449.408C78.6265 466.876 97.9463 474.173 109.138 478.4C142.782 491.105 157.855 477.206 178.766 492.219C192.895 502.366 190.006 511.57 201.684 515.32C226.695 523.354 258.025 486.899 261.175 483.159C273.44 468.584 279.339 453.714 282.278 444.223C297.179 429.379 318.666 404.268 334.679 367.888C347.312 339.202 352.27 313.194 354.306 294.522C359.316 284.411 366.998 265.3 366.677 240.46Z" fill="url(#paint0_radial_1858_560)"/>
<path d="M110.122 396.12C119.572 383.73 129.692 368.09 138.442 349.03C142.242 340.75 145.352 332.77 147.892 325.26C146.182 325.87 144.472 326.48 142.762 327.1C141.892 329.46 140.822 332.03 139.522 334.73C138.192 337.49 136.652 340.34 134.842 343.21C124.912 358.95 111.532 368.42 101.432 373.96C104.322 381.35 107.222 388.73 110.122 396.12Z" fill="url(#paint1_radial_1858_560)"/>
<path d="M95.082 399.29C82.492 390.81 63.132 375.01 49.702 349.04C45.342 340.61 42.342 332.53 40.252 325.27C41.962 325.88 43.672 326.49 45.382 327.11C49.152 336.02 55.792 348.73 67.372 361.3C75.762 370.4 84.282 376.76 91.122 381.09C92.442 387.15 93.762 393.22 95.082 399.29Z" fill="url(#paint2_radial_1858_560)"/>
<path d="M79.2529 320.13C68.4129 303.96 56.3629 282.55 46.7929 256.01C41.0529 240.09 37.2529 225.23 34.7129 212.07C36.4229 212.68 38.1329 213.29 39.8429 213.91C43.1929 225.88 48.4929 240.75 57.0829 256.81C65.4129 272.38 74.5229 284.73 82.4129 294.01C81.3629 302.71 80.3029 311.42 79.2529 320.13Z" fill="url(#paint3_radial_1858_560)"/>
<path d="M253.402 394.54C242.362 381.68 230.062 364.53 219.902 342.7C216.042 334.41 212.942 326.43 210.452 318.93C212.162 319.54 213.872 320.15 215.582 320.77C216.452 323.13 217.522 325.7 218.822 328.4C218.822 328.4 220.842 332.58 223.502 336.88C226.912 342.37 239.372 356.99 258.142 374.75C256.572 381.35 254.982 387.94 253.402 394.54Z" fill="url(#paint4_radial_1858_560)"/>
<path d="M273.192 215.64C281.632 200.68 290.412 181.19 295.962 157.47C297.882 149.25 299.212 141.43 300.102 134.11C298.252 134.37 296.412 134.64 294.562 134.9C294.362 139.95 293.732 145.59 292.352 151.65C287.772 171.79 277.292 186.09 270.022 194.27C271.082 201.39 272.132 208.51 273.192 215.64Z" fill="url(#paint5_radial_1858_560)"/>
<path d="M282.693 305.88C291.103 297.01 303.163 282.1 311.983 260.76C322.463 235.4 323.463 212.81 323.063 199.81C321.483 200.07 319.893 200.34 318.313 200.6C317.543 211.07 314.953 228.01 305.643 246.51C298.063 261.59 288.763 272.25 281.893 278.97C282.163 287.94 282.423 296.91 282.693 305.88Z" fill="url(#paint6_radial_1858_560)"/>
<path d="M266.062 394.54C276.493 387.58 295.533 372.76 308.812 347.04C316.673 331.81 319.992 317.66 321.482 307.46C319.632 308.25 317.793 309.04 315.943 309.83C314.073 317.4 310.492 328 303.272 339.12C292.372 355.92 278.722 365.36 270.812 369.99C269.233 378.18 267.653 386.36 266.062 394.54Z" fill="url(#paint7_radial_1858_560)"/>
<path d="M266.062 301.13C267.062 276.42 265.622 258.88 263.692 235.43C259.712 187.12 252.002 147.55 245.482 119.86C246.542 117.49 247.592 115.11 248.652 112.74C271.052 177.69 313.682 332.94 241.532 480.04C230.942 501.63 218.832 521.1 205.912 538.62C200.632 526.48 195.362 514.34 190.082 502.21C195.152 496.87 201.462 489.78 208.682 480.02C208.682 480.02 222.022 462.27 232.682 441.85C245.012 418.24 260.942 368.06 266.062 301.13Z" fill="url(#paint8_radial_1858_560)"/>
<path d="M123.857 167.299C118.79 164.772 113.712 162.244 108.645 159.716C100.333 178.136 37.5164 323.161 112.533 440.719C130.473 468.827 152.663 489.678 174.14 505.064C172.244 490.852 170.337 476.641 168.44 462.43C151.035 448.504 138.557 433.898 129.497 420.537C61.665 320.582 115.213 187.857 123.857 167.299Z" fill="url(#paint9_radial_1858_560)"/>
<path d="M180.405 468.656C178.615 468.853 176.823 468.285 175.481 467.064C155.575 449.141 143.543 429.92 139.736 409.917C139.289 407.592 138.966 405.293 138.652 403.074C137.609 395.784 136.632 388.9 131.685 381.325C126.894 373.984 121.241 370.42 114.075 365.906C112.151 364.689 110.151 363.43 108.045 362.022C107.144 361.426 85.8221 347.009 66.3446 321.182C51.7668 301.859 43.6472 276.031 42.8075 246.415C33.8678 229.33 28.9116 210.317 28.4565 191.343C28.1392 178.018 29.9917 164.757 33.942 151.908C32.3523 143.3 31.6245 130.634 36.0667 116.494C41.0321 100.708 50.1756 89.9847 57.5283 83.4726C63.4514 61.1119 73.72 45.1548 88.0673 36.0131C95.5416 31.2482 101.511 29.9987 107.824 28.6713C113.703 27.4316 120.371 26.0351 130.568 21.4237C141.801 16.3465 147.877 11.6749 152.757 7.92942C157.636 4.17405 161.857 0.93357 168.169 0.239998C169.481 0.0958211 170.817 0.0698206 172.254 0.153287C194.909 1.51703 209.14 29.9528 217.647 46.9453C226.231 64.0903 231.46 82.6602 233.22 102.155C236.702 107.929 239.51 114.079 241.578 120.451C244.987 130.962 246.363 141.927 245.688 153.088C250.956 159.098 255.312 165.782 258.639 172.992C264.155 184.921 266.764 198.226 266.247 211.652C278.664 225.59 296.712 251.684 292.625 282.334C292.532 283.039 292.316 283.726 291.993 284.365C282.987 302.105 272.247 317.521 260.048 330.199C252.6 337.949 246.781 344.222 235.198 356.732C224.279 368.515 223.198 369.931 222.539 371.905C220.556 377.847 222.301 382.555 225.818 391.031C228.116 396.564 230.717 402.837 232.148 410.738C234.782 425.277 232.47 440.953 225.286 457.326C224.45 459.239 222.72 460.616 220.67 461.002L180.887 468.563C180.742 468.609 180.574 468.637 180.405 468.656Z" fill="url(#paint10_radial_1858_560)"/>
<path d="M110.561 180.199C120.448 186.497 129.888 189.554 136.649 191.115C136.496 187.429 136.352 183.743 136.199 180.058C130.697 179.606 121.532 178.138 111.659 172.795C98.8351 165.864 91.7307 156.142 88.6026 151.204C86.2117 150.32 83.8109 149.437 81.4189 148.542C85.3668 155.905 94.0642 169.688 110.561 180.199Z" fill="url(#paint11_radial_1858_560)"/>
<path d="M154.395 122.537C161.13 120.388 170.422 116.601 180.182 109.744C188.671 103.781 194.792 97.414 198.955 92.3591C197.144 92.1757 195.343 91.9913 193.533 91.808C189.924 95.3132 185.264 99.2356 179.433 102.935C170.075 108.862 161.184 111.992 154.581 113.703C154.512 116.649 154.453 119.593 154.395 122.537Z" fill="url(#paint12_radial_1858_560)"/>
<path d="M165.832 254.547C167.116 261.559 168.398 268.561 169.672 275.574C178.721 271.501 192.331 264.07 205.646 250.937C219.806 236.977 227.614 222.518 231.753 213.22C229.178 214.137 226.593 215.065 224.018 215.981C218.431 223.819 207.713 236.515 190.146 245.739C181.092 250.506 172.604 253.089 165.832 254.547Z" fill="url(#paint13_radial_1858_560)"/>
<path d="M153.698 178.91C153.681 182.231 153.663 185.553 153.646 188.875C160.554 186.003 168.514 182 176.779 176.373C193 165.336 203.695 152.611 210.277 143.206C208.198 144.068 206.131 144.939 204.053 145.801C196.958 153.1 186.987 161.791 173.712 169.427C166.588 173.539 159.792 176.6 153.698 178.91Z" fill="url(#paint14_radial_1858_560)"/>
<path d="M237.931 266.614C233.684 275.753 224.656 291.835 207.048 305.178C197.168 312.672 187.521 317.072 180.116 319.727C181.573 326.669 183.021 333.623 184.478 340.565C193.601 335.056 205.31 326.616 216.68 314.099C233.632 295.426 242.053 276.201 246.281 263.956C243.501 264.845 240.712 265.735 237.931 266.614Z" fill="url(#paint15_radial_1858_560)"/>
<path d="M114.304 109.709C123.61 118.314 133.837 121.023 138.629 121.975C139.08 119.119 139.531 116.263 139.981 113.406C135.934 112.916 127.163 111.284 118.726 104.636C107.13 95.5076 104.082 83.1465 103.331 79.5168C101.681 78.4205 100.021 77.3252 98.3718 76.2288C98.6948 80.3582 100.464 96.9141 114.304 109.709Z" fill="url(#paint16_radial_1858_560)"/>
<path d="M153.156 278.535C151.283 270.824 149.42 263.121 147.547 255.409C140.481 253.731 131.917 250.96 122.799 246.258C104.755 236.953 93.126 224.509 86.5544 216.156C84.1446 216.29 81.736 216.434 79.3262 216.568C87.0742 228.302 99.7443 244.365 119.209 258.905C131.494 268.079 143.344 274.291 153.156 278.535Z" fill="url(#paint17_radial_1858_560)"/>
<path d="M163.779 322.93C153.118 319.756 140.816 315.192 127.728 308.512C106.517 297.674 90.4837 284.969 79.1718 274.401C76.8913 274.521 74.6018 274.652 72.3213 274.771C81.7986 287.412 97.6669 305.296 121.789 320.653C138.782 331.472 154.863 337.833 167.368 341.68C166.169 335.434 164.979 329.187 163.779 322.93Z" fill="url(#paint18_radial_1858_560)"/>
<path d="M154.011 184.871C148.642 139.757 153.086 100.095 153.086 100.095C155.741 76.3728 160.392 57.2705 163.874 44.9163L159.207 44.2823C155.717 55.0981 150.795 71.7353 146.496 92.3984C146.496 92.3984 137.484 135.722 136.62 185.997C135.747 236.646 151.074 381.166 187.33 574.342C190.793 592.764 208.581 605.235 226.953 601.496C227.445 601.392 227.936 601.288 228.427 601.174C228.917 601.059 229.415 600.924 229.894 600.791C251.077 594.902 262.535 571.913 255.255 551.164C175.603 324.246 159.043 227.184 154.011 184.871Z" fill="url(#paint19_radial_1858_560)"/>
<path d="M146.522 220.09C146.557 224.432 158.521 231.417 168.655 226.682C176.242 223.132 180.817 213.947 178.456 210.595C174.31 204.722 146.475 213.435 146.522 220.09Z" fill="#534741"/>
<path d="M130.606 209.273C124.345 205.304 116.049 207.171 112.079 213.432C108.11 219.693 109.977 227.989 116.238 231.958C122.499 235.928 130.795 234.061 134.765 227.8C138.734 221.539 136.877 213.242 130.606 209.273ZM132.678 226.48C129.437 231.595 122.671 233.103 117.568 229.871L129.287 211.37C134.401 214.601 135.919 221.366 132.678 226.48Z" fill="#534741"/>
<path d="M207.247 192.08C200.986 188.11 192.69 189.977 188.72 196.238C184.75 202.499 186.617 210.795 192.879 214.765C199.14 218.735 207.435 216.867 211.405 210.606C215.374 204.335 213.508 196.049 207.247 192.08ZM209.317 209.276C206.077 214.391 199.311 215.899 194.207 212.667L205.927 194.166C211.031 197.408 212.549 204.173 209.317 209.276Z" fill="#534741"/>
<defs>
<radialGradient id="paint0_radial_1858_560" cx="0" cy="0" r="1" gradientUnits="userSpaceOnUse" gradientTransform="translate(181.763 293.887) rotate(4.17788) scale(201.451 268.213)">
<stop stop-color="#5AA668"/>
<stop offset="0.4873" stop-color="#56965F"/>
<stop offset="1" stop-color="#508054"/>
</radialGradient>
<radialGradient id="paint1_radial_1858_560" cx="0" cy="0" r="1" gradientUnits="userSpaceOnUse" gradientTransform="translate(301.227 735.323) rotate(-128.453) scale(102.528 179.323)">
<stop stop-color="#C8DE90"/>
<stop offset="0.457" stop-color="#B8DE8E"/>
<stop offset="1" stop-color="#9FDE8C"/>
</radialGradient>
<radialGradient id="paint2_radial_1858_560" cx="0" cy="0" r="1" gradientUnits="userSpaceOnUse" gradientTransform="translate(0.129116 685.74) rotate(-51.5466) scale(80.7011 141.147)">
<stop stop-color="#C8DE90"/>
<stop offset="0.457" stop-color="#B8DE8E"/>
<stop offset="1" stop-color="#9FDE8C"/>
</radialGradient>
<radialGradient id="paint3_radial_1858_560" cx="0" cy="0" r="1" gradientUnits="userSpaceOnUse" gradientTransform="translate(-318.962 910.4) rotate(-51.5466) scale(185.654 324.709)">
<stop stop-color="#C8DE90"/>
<stop offset="0.457" stop-color="#B8DE8E"/>
<stop offset="1" stop-color="#9FDE8C"/>
</radialGradient>
<radialGradient id="paint4_radial_1858_560" cx="0" cy="0" r="1" gradientUnits="userSpaceOnUse" gradientTransform="translate(90.2709 725.152) rotate(-51.5466) scale(97.7429 170.953)">
<stop stop-color="#C8DE90"/>
<stop offset="0.457" stop-color="#B8DE8E"/>
<stop offset="1" stop-color="#9FDE8C"/>
</radialGradient>
<radialGradient id="paint5_radial_1858_560" cx="0" cy="0" r="1" gradientUnits="userSpaceOnUse" gradientTransform="translate(666.762 731.556) rotate(-128.453) scale(168.338 294.423)">
<stop stop-color="#C8DE90"/>
<stop offset="0.457" stop-color="#B8DE8E"/>
<stop offset="1" stop-color="#9FDE8C"/>
</radialGradient>
<radialGradient id="paint6_radial_1858_560" cx="0" cy="0" r="1" gradientUnits="userSpaceOnUse" gradientTransform="translate(717.276 918.119) rotate(-128.453) scale(195.332 341.637)">
<stop stop-color="#C8DE90"/>
<stop offset="0.457" stop-color="#B8DE8E"/>
<stop offset="1" stop-color="#9FDE8C"/>
</radialGradient>
<radialGradient id="paint7_radial_1858_560" cx="0" cy="0" r="1" gradientUnits="userSpaceOnUse" gradientTransform="translate(450.831 781.296) rotate(-128.453) scale(112.841 197.36)">
<stop stop-color="#C8DE90"/>
<stop offset="0.457" stop-color="#B8DE8E"/>
<stop offset="1" stop-color="#9FDE8C"/>
</radialGradient>
<radialGradient id="paint8_radial_1858_560" cx="0" cy="0" r="1" gradientUnits="userSpaceOnUse" gradientTransform="translate(205.76 505.323) rotate(-79.8745) scale(284.273 378.503)">
<stop stop-color="#C8DE90"/>
<stop offset="0.457" stop-color="#B8DE8E"/>
<stop offset="1" stop-color="#9FDE8C"/>
</radialGradient>
<radialGradient id="paint9_radial_1858_560" cx="0" cy="0" r="1" gradientUnits="userSpaceOnUse" gradientTransform="translate(152.401 485.058) rotate(-101.401) scale(267.814 356.588)">
<stop stop-color="#C8DE90"/>
<stop offset="0.457" stop-color="#B8DE8E"/>
<stop offset="1" stop-color="#9FDE8C"/>
</radialGradient>
<radialGradient id="paint10_radial_1858_560" cx="0" cy="0" r="1" gradientUnits="userSpaceOnUse" gradientTransform="translate(161.209 235.849) rotate(-6.27058) scale(169.406 259.628)">
<stop stop-color="#4CCC4F"/>
<stop offset="0.4873" stop-color="#56BC5E"/>
<stop offset="1" stop-color="#64A671"/>
</radialGradient>
<radialGradient id="paint11_radial_1858_560" cx="0" cy="0" r="1" gradientUnits="userSpaceOnUse" gradientTransform="translate(163.147 364.431) rotate(-102.941) scale(63.8669 111.714)">
<stop stop-color="#E6FFA6"/>
<stop offset="0.4072" stop-color="#D6FFA4"/>
<stop offset="1" stop-color="#B7FFA1"/>
</radialGradient>
<radialGradient id="paint12_radial_1858_560" cx="0" cy="0" r="1" gradientUnits="userSpaceOnUse" gradientTransform="translate(163.147 364.431) rotate(-102.941) scale(63.8668 111.714)">
<stop stop-color="#E6FFA6"/>
<stop offset="0.4072" stop-color="#D6FFA4"/>
<stop offset="1" stop-color="#B7FFA1"/>
</radialGradient>
<radialGradient id="paint13_radial_1858_560" cx="0" cy="0" r="1" gradientUnits="userSpaceOnUse" gradientTransform="translate(163.148 364.432) rotate(-102.941) scale(63.8669 111.714)">
<stop stop-color="#E6FFA6"/>
<stop offset="0.4072" stop-color="#D6FFA4"/>
<stop offset="1" stop-color="#B7FFA1"/>
</radialGradient>
<radialGradient id="paint14_radial_1858_560" cx="0" cy="0" r="1" gradientUnits="userSpaceOnUse" gradientTransform="translate(163.147 364.431) rotate(-102.941) scale(63.8669 111.714)">
<stop stop-color="#E6FFA6"/>
<stop offset="0.4072" stop-color="#D6FFA4"/>
<stop offset="1" stop-color="#B7FFA1"/>
</radialGradient>
<radialGradient id="paint15_radial_1858_560" cx="0" cy="0" r="1" gradientUnits="userSpaceOnUse" gradientTransform="translate(175.015 374.735) rotate(-114.291) scale(63.874 111.718)">
<stop stop-color="#E6FFA6"/>
<stop offset="0.4072" stop-color="#D6FFA4"/>
<stop offset="1" stop-color="#B7FFA1"/>
</radialGradient>
<radialGradient id="paint16_radial_1858_560" cx="0" cy="0" r="1" gradientUnits="userSpaceOnUse" gradientTransform="translate(163.147 364.432) rotate(-102.941) scale(63.8669 111.714)">
<stop stop-color="#E6FFA6"/>
<stop offset="0.4072" stop-color="#D6FFA4"/>
<stop offset="1" stop-color="#B7FFA1"/>
</radialGradient>
<radialGradient id="paint17_radial_1858_560" cx="0" cy="0" r="1" gradientUnits="userSpaceOnUse" gradientTransform="translate(163.147 364.432) rotate(-102.941) scale(63.8669 111.714)">
<stop stop-color="#E6FFA6"/>
<stop offset="0.4072" stop-color="#D6FFA4"/>
<stop offset="1" stop-color="#B7FFA1"/>
</radialGradient>
<radialGradient id="paint18_radial_1858_560" cx="0" cy="0" r="1" gradientUnits="userSpaceOnUse" gradientTransform="translate(163.147 364.431) rotate(-102.941) scale(63.8669 111.714)">
<stop stop-color="#E6FFA6"/>
<stop offset="0.4072" stop-color="#D6FFA4"/>
<stop offset="1" stop-color="#B7FFA1"/>
</radialGradient>
<radialGradient id="paint19_radial_1858_560" cx="0" cy="0" r="1" gradientUnits="userSpaceOnUse" gradientTransform="translate(195.738 562.487) rotate(-88.1413) scale(238.776 317.919)">
<stop stop-color="#E6FFA6"/>
<stop offset="0.4072" stop-color="#D6FFA4"/>
<stop offset="1" stop-color="#B7FFA1"/>
</radialGradient>
</defs>
</svg>
