<svg width="444" height="343" viewBox="0 0 444 343" fill="none" xmlns="http://www.w3.org/2000/svg">
<path d="M374.362 155.398C381.912 145.848 387.002 135.088 385.902 123.738C384.362 107.818 371.362 97.5476 363.412 90.8076C317.762 52.1376 333.853 153.519 304.413 134.839C249.053 99.7092 163.173 118.588 150.483 123.738C124.473 134.298 122.068 106.272 79.7979 144.892C49.7879 172.312 29.3807 142.435 8.04218 166.288C6.79218 170.108 -0.134549 186.411 1.83423 241.215C2.81423 242.265 6.10849 254.194 25.0996 256.864C38.0194 258.681 77.0034 242.574 95.2534 243.334C175.033 246.624 142.653 238.904 185.973 254.614C205.493 261.694 220.148 230.803 245.878 238.363C260.928 242.783 266.942 252.74 284.752 234.54C295.302 223.76 345.823 274.534 352.623 254.614C367.323 211.534 422.77 256.618 439.823 208.776C441.953 196.176 434.952 188.558 374.362 155.398Z" fill="url(#paint0_radial_4822_4214)"/>
<path d="M183.462 200.667C190.662 200.667 196.492 194.827 196.492 187.637C196.492 180.437 190.662 174.607 183.462 174.607C176.262 174.607 170.432 180.447 170.432 187.637C170.432 194.837 176.262 200.667 183.462 200.667ZM183.462 177.007C189.332 177.007 194.092 181.767 194.092 187.637C194.092 193.507 189.332 198.267 183.462 198.267L183.462 177.007Z" fill="white"/>
<path d="M259.712 200.667C266.912 200.667 272.742 194.827 272.742 187.637C272.742 180.437 266.912 174.607 259.712 174.607C252.512 174.607 246.682 180.447 246.682 187.637C246.682 194.837 252.512 200.667 259.712 200.667ZM259.712 177.007C265.582 177.007 270.342 181.767 270.342 187.637C270.342 193.507 265.582 198.267 259.712 198.267L259.712 177.007Z" fill="white"/>
<path d="M221.093 202.618C213.483 202.618 208.603 195.308 208.013 194.378C207.013 192.798 207.483 190.708 209.063 189.698C210.653 188.698 212.743 189.168 213.743 190.748C213.903 190.988 217.633 196.848 222.403 195.678C225.423 194.958 227.913 191.708 229.243 188.908C230.043 187.218 232.053 186.488 233.753 187.288C235.443 188.088 236.163 190.108 235.373 191.798C234.133 194.418 230.543 200.688 223.993 202.268C222.983 202.508 222.013 202.618 221.093 202.618Z" fill="white"/>
<path d="M338.295 179.164C356.105 175.883 374.789 162.478 382.143 143.077C385.043 136.917 386.553 130.427 385.913 123.737C384.373 107.817 371.373 97.5475 363.423 90.8075C317.773 52.1375 307.031 139.683 277.591 121.003C235.727 94.4394 190.017 113.252 163.596 113.252C152.111 114.063 108.393 94.8524 66.1229 133.472C36.1129 160.892 28.7101 132.929 8.05274 166.287C7.75274 167.187 6.21273 172.097 4.55273 179.627C15.6792 172.195 29.5507 167.574 48.8694 179.627C68.1882 191.681 70.0837 192.592 84.4661 193.406C98.8485 194.219 111.425 174.622 127.151 161.678C142.877 148.734 141.008 143.121 177.525 150.283C214.043 157.445 190.963 152.376 218.281 159.841C245.599 167.307 237.069 150.155 259.193 166.287C281.317 182.42 282.758 163.519 299.136 164.71C315.513 165.902 322.36 179.164 338.295 179.164Z" fill="url(#paint1_radial_4822_4214)"/>
<path d="M337.7 270.861C364.803 272.974 407.039 255.251 427.777 236.607C441.608 224.173 439.712 208.924 440.02 207.708C438.196 209.146 431.228 222.789 417.824 226.527C405.509 229.962 387.234 223.501 374.026 224.982C359.765 226.581 327.381 242.626 320.641 237.516C298.191 220.526 301.463 217.778 285.033 206.008C269.263 194.708 227.526 219.846 181.146 231.386C142.586 240.976 129.142 214.304 97.882 221.944C77.652 226.884 23.1797 256.991 1.4541 240.801C5.03128 249.13 8.81624 254.468 15.4185 261.053C37.0445 280.362 88.2478 253.75 93.731 253.973C162.676 260.539 158.798 265.198 176.793 277.149C204.665 289.018 222.166 269.39 249.924 253.973C277.682 238.555 292.52 267.338 337.7 270.861Z" fill="url(#paint2_radial_4822_4214)"/>
<defs>
<radialGradient id="paint0_radial_4822_4214" cx="0" cy="0" r="1" gradientUnits="userSpaceOnUse" gradientTransform="translate(213.543 38.2561) rotate(88.2464) scale(275.754 353.197)">
<stop stop-color="#412817"/>
<stop offset="0.124" stop-color="#593726"/>
<stop offset="0.2874" stop-color="#724735"/>
<stop offset="0.4368" stop-color="#81513E"/>
<stop offset="0.5584" stop-color="#865441"/>
<stop offset="0.6734" stop-color="#82523F"/>
<stop offset="0.7754" stop-color="#784B38"/>
<stop offset="0.8725" stop-color="#663F2D"/>
<stop offset="0.9659" stop-color="#4C2F1E"/>
<stop offset="1" stop-color="#412817"/>
</radialGradient>
<radialGradient id="paint1_radial_4822_4214" cx="0" cy="0" r="1" gradientUnits="userSpaceOnUse" gradientTransform="translate(192.54 165.111) scale(215.587 215.587)">
<stop stop-color="#DFBF98"/>
<stop offset="0.5161" stop-color="#B18D76"/>
<stop offset="0.7742" stop-color="#9F7968"/>
<stop offset="0.823" stop-color="#A8836F"/>
<stop offset="0.9052" stop-color="#BF9D83"/>
<stop offset="1" stop-color="#E0C3A0"/>
</radialGradient>
<radialGradient id="paint2_radial_4822_4214" cx="0" cy="0" r="1" gradientUnits="userSpaceOnUse" gradientTransform="translate(233.926 266.084) rotate(90.1632) scale(104.107 204.289)">
<stop stop-color="#DFBF98"/>
<stop offset="0.443" stop-color="#B18D76"/>
<stop offset="0.6645" stop-color="#9F7968"/>
<stop offset="0.737" stop-color="#A8836F"/>
<stop offset="0.8592" stop-color="#BF9D83"/>
<stop offset="1" stop-color="#E0C3A0"/>
</radialGradient>
</defs>
</svg>
