<svg width="508" height="524" viewBox="0 0 508 524" fill="none" xmlns="http://www.w3.org/2000/svg">
<path d="M362.817 248.536C336.052 286.341 329.32 318.009 328.402 340.541C327.035 374.292 338.449 393.506 325.811 423.143C322.608 430.647 311.552 456.588 285.48 464.51C262.102 471.606 232.338 462.54 219.945 443.224C202.534 416.068 229.187 385.706 234.144 329.556C236.51 302.726 234.021 264.33 211 216C261.623 226.852 312.225 237.694 362.817 248.536Z" fill="url(#paint0_radial_1850_329)"/>
<path d="M434.864 242.341C415.144 205.67 409.398 175.715 400.013 136.191C396.05 119.493 361.487 84.4847 320.164 66.2612C284.156 50.3908 251.658 50.217 238.603 50.723C193.487 52.4686 148.463 72.3153 138.636 86.3961C115.379 119.691 99.0075 145.453 67.1977 172.297C50.0866 186.736 42.416 203.618 42.3826 220.198C42.3297 251.761 82.4511 275.253 109.953 291.571C124.768 300.359 224.886 357.803 351.23 337.537C382.805 332.474 475.92 318.702 434.864 242.341Z" fill="url(#paint1_radial_1850_329)"/>
<path d="M155.576 214C148.079 214 142 220.085 142 227.588C142 235.092 148.079 241.177 155.576 241.177C163.073 241.177 169.152 235.092 169.152 227.588C169.142 220.085 163.073 214 155.576 214ZM144.499 227.588C144.499 221.463 149.456 216.501 155.576 216.501C161.696 216.501 166.653 221.463 166.653 227.588H144.499Z" fill="white"/>
<path d="M234.993 214C227.496 214 221.417 220.085 221.417 227.588C221.417 235.092 227.496 241.177 234.993 241.177C242.49 241.177 248.569 235.092 248.569 227.588C248.569 220.085 242.49 214 234.993 214ZM223.916 227.588C223.916 221.463 228.873 216.501 234.993 216.501C241.113 216.501 246.07 221.463 246.07 227.588H223.916Z" fill="white"/>
<path d="M188.838 237.144C188.695 233.336 192.469 225.996 196.233 228.109C199.089 229.712 201.986 236.797 201.71 240.258C201.18 246.802 189.083 243.708 188.838 237.144Z" fill="white"/>
<defs>
<radialGradient id="paint0_radial_1850_329" cx="0" cy="0" r="1" gradientUnits="userSpaceOnUse" gradientTransform="translate(276.251 259.201) rotate(-170.511) scale(187.764 187.922)">
<stop stop-color="#8D4531"/>
<stop offset="0.1432" stop-color="#A76953"/>
<stop offset="0.3272" stop-color="#C39078"/>
<stop offset="0.4961" stop-color="#D8AD93"/>
<stop offset="0.643" stop-color="#E5BEA3"/>
<stop offset="0.7513" stop-color="#E9C4A9"/>
<stop offset="1" stop-color="#E5D87A"/>
</radialGradient>
<radialGradient id="paint1_radial_1850_329" cx="0" cy="0" r="1" gradientUnits="userSpaceOnUse" gradientTransform="translate(282.712 67.0003) rotate(98.404) scale(198.948 397.563)">
<stop stop-color="#FFB575"/>
<stop offset="0.048" stop-color="#F5AD70"/>
<stop offset="0.2367" stop-color="#D1925F"/>
<stop offset="0.4272" stop-color="#B57C51"/>
<stop offset="0.6177" stop-color="#A16D48"/>
<stop offset="0.8085" stop-color="#956442"/>
<stop offset="1" stop-color="#916140"/>
</radialGradient>
</defs>
</svg>
