<svg width="191" height="196" viewBox="0 0 191 196" fill="none" xmlns="http://www.w3.org/2000/svg">
<path d="M131.375 94.2968C118.911 111.903 115.776 126.652 115.348 137.145C114.712 152.864 120.027 161.812 114.142 175.615C112.65 179.11 107.501 191.191 95.3603 194.881C84.4733 198.185 70.6128 193.963 64.8415 184.968C56.7333 172.32 69.145 158.18 71.4535 132.03C72.5555 119.534 71.3965 101.652 60.6758 79.1438C84.2501 84.198 107.815 89.2474 131.375 94.2968Z" fill="url(#paint0_radial_4373_2267)"/>
<path d="M181.962 72.7345C169.745 57.6766 164.506 44.473 156.768 27.209C153.5 19.9154 134.638 6.91146 114.146 2.17585C96.2908 -1.94641 81.409 0.806518 75.481 2.17585C54.9942 6.9067 36.1272 19.9106 32.8592 27.209C25.1214 44.4683 19.8774 57.6814 7.66518 72.7345C1.09593 80.8316 -0.941825 89.2236 0.487926 96.812C3.21443 111.257 23.6157 118.507 37.6187 123.576C45.1617 126.305 95.9678 143.859 151.999 123.576C166.002 118.507 207.398 104.091 181.962 72.7345Z" fill="url(#paint1_radial_4373_2267)"/>
<path d="M59.6016 66.6962C56.1103 66.6962 53.2793 69.5299 53.2793 73.0246C53.2793 76.5192 56.1103 79.353 59.6016 79.353C63.0928 79.353 65.9238 76.5192 65.9238 73.0246C65.9191 69.5299 63.0928 66.6962 59.6016 66.6962ZM54.443 73.0246C54.443 70.1718 56.7515 67.861 59.6016 67.861C62.4516 67.861 64.7601 70.1718 64.7601 73.0246H54.443Z" fill="white"/>
<path d="M96.5859 66.6962C93.0947 66.6962 90.2637 69.5299 90.2637 73.0246C90.2637 76.5192 93.0947 79.353 96.5859 79.353C100.077 79.353 102.908 76.5192 102.908 73.0246C102.908 69.5299 100.077 66.6962 96.5859 66.6962ZM91.4274 73.0246C91.4274 70.1718 93.7359 67.861 96.5859 67.861C99.4359 67.861 101.744 70.1718 101.744 73.0246H91.4274Z" fill="white"/>
<path d="M75.0917 77.4749C75.0252 75.7014 76.7827 72.2828 78.5354 73.267C79.8654 74.0135 81.2144 77.3132 81.0862 78.925C80.8392 81.9727 75.2057 80.5321 75.0917 77.4749Z" fill="white"/>
<defs>
<radialGradient id="paint0_radial_4373_2267" cx="0" cy="0" r="1" gradientUnits="userSpaceOnUse" gradientTransform="translate(91.0624 99.2637) rotate(-170.511) scale(87.4393 87.5197)">
<stop stop-color="#8D4531"/>
<stop offset="0.1432" stop-color="#A76953"/>
<stop offset="0.3272" stop-color="#C39078"/>
<stop offset="0.4961" stop-color="#D8AD93"/>
<stop offset="0.643" stop-color="#E5BEA3"/>
<stop offset="0.7513" stop-color="#E9C4A9"/>
<stop offset="1" stop-color="#E5D87A"/>
</radialGradient>
<radialGradient id="paint1_radial_4373_2267" cx="0" cy="0" r="1" gradientUnits="userSpaceOnUse" gradientTransform="translate(97.0775 5.77825) rotate(87.618) scale(92.6547 185.14)">
<stop stop-color="#FFB575"/>
<stop offset="0.048" stop-color="#F5AD70"/>
<stop offset="0.2367" stop-color="#D1925F"/>
<stop offset="0.4272" stop-color="#B57C51"/>
<stop offset="0.6177" stop-color="#A16D48"/>
<stop offset="0.8085" stop-color="#956442"/>
<stop offset="1" stop-color="#916140"/>
</radialGradient>
</defs>
</svg>
