<svg width="124" height="166" viewBox="0 0 124 166" fill="none" xmlns="http://www.w3.org/2000/svg">
<path d="M110.971 66.9444C97.4935 46.1093 84.0164 26.7756 70.5392 5.1401C66.2702 -1.71337 56.8386 -1.71337 52.5696 5.1401C39.0925 26.7756 25.6153 46.1093 12.1382 66.9444C-9.22088 99.9661 -1.61947 135.072 29.8463 157.086C39.3064 163.703 50.1119 166 61.5592 166C73.0064 166 83.8119 163.703 93.2721 157.086C124.728 135.072 132.33 99.9661 110.971 66.9444Z" fill="url(#paint0_radial_4373_2203)"/>
<path d="M61.313 82.7874C57.6621 82.7874 55.3232 79.292 55.0379 78.8468C54.5578 78.0937 54.7812 77.0896 55.5419 76.6113C56.3025 76.1329 57.3055 76.3555 57.7857 77.1133C57.8617 77.2317 59.6539 80.0262 61.9405 79.4673C63.3905 79.1215 64.5884 77.568 65.2207 76.2276C65.6058 75.4177 66.5708 75.0672 67.3884 75.4556C68.2014 75.8392 68.5484 76.8055 68.1633 77.6154C67.5691 78.8705 65.8434 81.8686 62.7011 82.6217C62.221 82.7353 61.7551 82.7874 61.313 82.7874Z" fill="#DCE7EA"/>
<path d="M43.2572 82.1007C46.7132 82.1007 49.5085 79.311 49.5085 75.8724H37.0059C37.0059 79.311 39.8059 82.1007 43.2572 82.1007Z" fill="#DCE7EA"/>
<path d="M79.8431 82.1007C83.2992 82.1007 86.0944 79.311 86.0944 75.8724H73.5918C73.5918 79.311 76.3918 82.1007 79.8431 82.1007Z" fill="#DCE7EA"/>
<defs>
<radialGradient id="paint0_radial_4373_2203" cx="0" cy="0" r="1" gradientUnits="userSpaceOnUse" gradientTransform="translate(61.551 82.9997) scale(73.2207 97.1268)">
<stop stop-color="#6C635D"/>
<stop offset="0.346" stop-color="#5C5551"/>
<stop offset="1" stop-color="#333333"/>
</radialGradient>
</defs>
</svg>
