<svg width="414" height="629" viewBox="0 0 414 629" fill="none" xmlns="http://www.w3.org/2000/svg">
<path d="M217.644 374.01C220.33 351.409 240.581 337.033 247.606 332.511C248.578 327.151 251.187 317.15 259.008 307.548C263.474 302.066 268.252 298.409 271.936 296.064C272.788 290.779 274.827 282.651 280.163 274.205C283.127 269.511 286.366 265.91 289.163 263.251C292.087 254.741 297.754 241.62 308.958 228.708C317.199 219.209 330.741 203.6 343.927 206.139C352.26 207.751 351.518 214.874 366.745 227.058C379.969 237.636 385.397 236.168 392.766 244.028C398.236 249.862 404.243 260.271 404.121 280.144C406.65 283.65 412.326 292.545 413.017 305.293C413.615 316.387 410.124 324.835 408.209 328.725C408.623 335.47 408.407 345.201 405.285 356.306C400.544 373.173 391.529 384.559 386.142 390.398C385.697 398.355 382.959 433.359 359.01 447.89C344.998 456.394 324.577 454.398 283.742 450.427C282.558 450.307 280.022 450.036 276.867 449.081C276.867 449.081 270.781 447.23 265.126 442.944C214.06 404.169 217.644 374.01 217.644 374.01Z" fill="url(#paint0_radial_4852_2840)"/>
<path d="M315.107 319.47C308.397 324.29 301.867 326.82 297.167 328.19C297.127 325.59 297.087 322.99 297.047 320.39C300.907 319.86 307.297 318.46 314.037 314.31C322.797 308.92 327.407 301.8 329.417 298.2C331.067 297.48 332.717 296.76 334.367 296.05C331.887 301.37 326.307 311.42 315.107 319.47Z" fill="url(#paint1_radial_4852_2840)"/>
<path d="M300.816 262.589C297.016 259.359 291.996 254.369 287.506 247.269C283.596 241.089 281.346 235.279 280.006 230.859C281.236 231.229 282.456 231.599 283.686 231.969C285.086 235.229 287.056 239.049 289.846 243.039C294.326 249.439 299.266 253.889 303.096 256.799C302.336 258.719 301.576 260.649 300.816 262.589Z" fill="url(#paint2_radial_4852_2840)"/>
<path d="M291.507 343.629C288.457 347.619 285.397 351.609 282.347 355.599C277.967 350.139 271.817 341.099 267.667 328.589C263.257 315.279 262.987 303.689 263.377 296.529C264.697 297.939 266.027 299.339 267.347 300.749C268.337 307.459 270.997 318.869 279.067 330.309C283.227 336.199 287.727 340.539 291.507 343.629Z" fill="url(#paint3_radial_4852_2840)"/>
<path d="M298.406 298.269C297.786 300.529 297.156 302.779 296.536 305.039C292.396 301.769 287.766 297.529 283.226 292.129C274.326 281.529 269.506 270.849 266.836 263.199C268.076 264.189 269.316 265.169 270.566 266.159C273.986 272.469 279.086 280.279 286.626 288.009C290.686 292.159 294.716 295.539 298.406 298.269Z" fill="url(#paint4_radial_4852_2840)"/>
<path d="M288.498 412C292.23 404.591 295.266 399.331 296.448 397.082C312.694 366.121 320.817 350.64 326.936 332.839C329.478 325.44 336.731 303.307 340.427 273.384C342.338 257.921 342.787 244.451 342.707 233.796L346.006 234.174C346.664 243.289 347.06 255.265 346.281 269.268C344.342 303.778 336.382 329.098 334.702 334.318C333.638 337.62 332.675 340.361 331.622 343.019C322.863 365.264 316.686 376.375 304.02 401.359C298.281 412.667 289.801 429.372 282.68 448.559C274.762 469.892 271.49 486.311 270.02 492.969C264.779 516.718 252.188 554.07 219.822 613.65C213.628 620.283 203.419 620.742 197.149 615.259C191.633 610.427 190.176 601.895 194.035 594.996C218.275 574.041 231.858 553.497 239.837 538.28C248.119 522.497 256.485 497.955 273.227 448.861C275.045 443.508 279.67 429.539 288.498 412Z" fill="url(#paint5_radial_4852_2840)"/>
<path d="M263.069 364.764C264.37 371.754 267.726 384.316 277.428 396.514C282.87 403.353 288.685 408.053 293.28 411.166C291.077 415.654 288.863 420.151 286.661 424.64C281.393 419.284 274.865 411.47 269.298 400.926C260.98 385.204 258.59 370.597 257.84 361.49C259.577 362.577 261.322 363.676 263.069 364.764Z" fill="url(#paint6_radial_4852_2840)"/>
<path d="M319.667 272.87C313.587 279.42 306.547 281.89 303.227 282.81C302.757 280.83 302.287 278.84 301.807 276.86C304.627 276.3 310.707 274.67 316.277 269.54C323.937 262.49 325.407 253.64 325.747 251.05C326.847 250.19 327.947 249.33 329.057 248.47C329.057 251.39 328.707 263.12 319.667 272.87Z" fill="url(#paint7_radial_4852_2840)"/>
<path d="M278.547 381.2C280.527 375.97 282.507 370.74 284.497 365.51C289.587 364.95 295.817 363.76 302.617 361.27C316.057 356.34 325.287 348.65 330.607 343.38C332.277 343.69 333.957 343.99 335.627 344.3C329.177 351.83 318.907 361.97 304.017 370.44C294.617 375.77 285.787 379.09 278.547 381.2Z" fill="url(#paint8_radial_4852_2840)"/>
<path d="M289.927 425.608C297.767 425.302 306.961 424.342 317.079 422.057C333.465 418.36 346.64 412.481 356.215 407.245C357.756 407.733 359.298 408.21 360.829 408.697C352.142 415.669 338.172 425.116 319.01 431.394C305.507 435.81 293.407 437.349 284.187 437.792C286.104 433.731 288.01 429.669 289.927 425.608Z" fill="url(#paint9_radial_4852_2840)"/>
<path d="M112.277 347.169C105.199 320.999 121.212 296.103 126.966 287.987C125.669 281.623 124.1 269.416 128.486 255.321C130.989 247.277 134.648 241.108 137.671 236.882C136.271 230.664 134.908 220.78 137.059 209.068C138.258 202.561 140.231 197.136 142.146 192.966C141.593 182.26 142.039 165.247 148.681 145.983C153.573 131.823 161.607 108.545 177.315 105.501C187.242 103.576 189.593 111.789 211.833 118.493C231.147 124.321 236.502 120.27 248.135 125.689C256.776 129.705 268.049 138.546 276.733 160.562C281.085 163.319 291.311 170.63 297.733 184.408C303.326 196.405 303.216 207.294 302.832 212.45C306.287 219.727 310.371 230.577 311.852 244.241C314.105 264.994 309.193 281.589 305.839 290.436C308.879 299.437 321.407 339.344 301.388 366.041C289.679 381.662 266.222 388.535 219.306 402.282C217.955 402.68 215.022 403.506 211.104 403.851C211.104 403.851 203.558 404.517 195.397 402.279C121.714 382.104 112.277 347.169 112.277 347.169Z" fill="url(#paint10_radial_4852_2840)"/>
<path d="M238.746 289.69C236.346 295.17 233.946 300.65 231.546 306.14C224.936 301.06 215.246 292.35 206.896 279.05C198.016 264.9 194.426 251.57 192.836 243.17C194.766 244.42 196.696 245.67 198.626 246.93C201.676 254.41 207.986 266.87 220.576 277.81C227.056 283.44 233.496 287.19 238.746 289.69Z" fill="url(#paint11_radial_4852_2840)"/>
<path d="M216.016 335.112C216.718 328.489 217.429 321.856 218.131 315.233C223.83 313.057 230.657 309.804 237.732 304.886C251.735 295.149 260.057 283.501 264.601 275.826C266.626 275.675 268.651 275.525 270.666 275.374C265.508 285.994 256.721 300.778 242.111 315.031C232.905 324.01 223.726 330.494 216.016 335.112Z" fill="url(#paint12_radial_4852_2840)"/>
<path d="M176.186 299.17C180.366 306.53 189.036 319.38 204.696 329.34C213.486 334.93 221.866 337.96 228.246 339.67C227.506 345.59 226.766 351.5 226.026 357.42C218.006 353.43 207.626 347.17 197.246 337.47C181.766 323 173.396 307.48 169.016 297.52C171.406 298.08 173.796 298.63 176.186 299.17Z" fill="url(#paint13_radial_4852_2840)"/>
<path d="M214.197 368.404C222.728 364.585 232.474 359.435 242.638 352.421C259.114 341.059 271.066 328.71 279.317 318.658C281.232 318.513 283.146 318.358 285.062 318.212C278.558 329.78 267.311 346.429 248.915 361.871C235.95 372.759 223.265 379.827 213.271 384.409C213.576 379.078 213.881 373.736 214.197 368.404Z" fill="url(#paint14_radial_4852_2840)"/>
<path d="M240.486 261.205C232.941 267.537 225.42 271.125 219.955 273.179C219.672 270.089 219.388 267.01 219.115 263.919C223.652 262.943 231.119 260.699 238.754 255.163C248.669 247.972 253.514 239.1 255.576 234.643C257.468 233.637 259.371 232.642 261.263 231.636C258.806 238.186 253.076 250.626 240.486 261.205Z" fill="url(#paint15_radial_4852_2840)"/>
<path d="M233.456 194.659C227.946 192.449 220.376 188.719 212.616 182.399C205.856 176.899 201.116 171.189 197.926 166.709C199.456 166.659 200.976 166.619 202.506 166.569C205.326 169.719 208.996 173.289 213.656 176.729C221.146 182.259 228.406 185.409 233.846 187.249C233.706 189.719 233.576 192.189 233.456 194.659Z" fill="url(#paint16_radial_4852_2840)"/>
<path d="M238.326 231.03C238.566 233.81 238.816 236.59 239.056 239.37C233.076 237.44 226.136 234.64 218.826 230.49C204.486 222.36 194.656 212.44 188.496 205.02C190.296 205.6 192.086 206.19 193.886 206.77C200.326 212.4 209.276 218.99 220.916 224.47C227.156 227.42 233.056 229.51 238.326 231.03Z" fill="url(#paint17_radial_4852_2840)"/>
<path d="M207.467 357.684C208.298 347.831 209.314 340.671 209.625 337.662C213.832 296.222 215.935 275.492 214.792 253.101C214.319 243.793 212.502 216.109 203.286 181.384C198.529 163.438 193.042 148.342 188.224 136.617L192.037 135.576C196.809 145.361 202.575 158.421 207.927 174.255C221.121 213.268 223.57 244.785 224.024 251.311C224.309 255.431 224.461 258.888 224.491 262.301C224.696 290.786 222.799 305.809 219.887 339.054C218.572 354.098 216.614 376.333 217.266 400.711C217.992 427.808 221.66 447.41 223 455.423C227.765 484.002 230.427 530.888 221.121 611.129C217.217 621.215 206.143 626.251 196.769 622.973C188.525 620.089 183.122 611.306 184.33 601.965C201.816 568.024 207.706 539.286 209.767 518.919C211.91 497.786 210.256 466.94 206.948 405.239C206.603 398.497 205.502 381 207.467 357.684Z" fill="url(#paint18_radial_4852_2840)"/>
<path d="M236.047 204.965C229.246 213.153 221.024 216.546 217.135 217.861C216.448 215.532 215.752 213.204 215.065 210.865C218.376 210.009 225.509 207.682 231.806 201.221C240.466 192.34 241.629 181.71 241.865 178.604C243.123 177.51 244.38 176.416 245.627 175.323C245.81 178.798 246.165 192.778 236.047 204.965Z" fill="url(#paint19_radial_4852_2840)"/>
<path d="M218.779 333.899C218.778 307.311 197.265 287.841 189.741 281.624C189.345 275.272 187.702 263.308 179.95 251.094C175.528 244.121 170.487 239.223 166.536 235.988C166.273 229.743 165.035 220.03 160.006 209.5C157.212 203.647 153.947 199.016 151.072 195.555C148.849 185.276 144.086 169.278 132.868 152.748C124.618 140.586 111.055 120.612 95.4077 121.746C85.5222 122.458 85.3872 130.834 66.0562 142.871C49.2571 153.325 43.155 150.864 33.5207 158.972C26.3759 164.989 17.9588 176.238 15.3629 199.309C11.9531 203.034 4.13418 212.568 1.58304 227.255C-0.644497 240.043 2.24789 250.315 3.92569 255.106C2.51569 262.883 1.4223 274.193 3.5189 287.505C6.69491 307.724 15.5816 322.18 21.0273 329.699C20.4448 338.996 18.7978 379.979 44.5792 400.144C59.6626 411.938 83.6321 412.441 131.561 413.458C132.942 413.484 135.934 413.521 139.729 412.848C139.729 412.848 147.039 411.548 154.198 407.342C218.778 369.379 218.779 333.899 218.779 333.899Z" fill="url(#paint20_radial_4852_2840)"/>
<path d="M84.7859 253.109C92.2659 259.219 99.6959 262.629 105.076 264.569C105.306 261.539 105.546 258.509 105.776 255.479C101.316 254.579 93.9559 252.489 86.3959 247.169C76.5759 240.259 71.7059 231.619 69.6259 227.269C67.7559 226.309 65.8759 225.359 64.0059 224.399C66.5159 230.789 72.3059 242.909 84.7859 253.109Z" fill="url(#paint21_radial_4852_2840)"/>
<path d="M106.425 231.08C111.755 228.72 119.025 224.79 126.415 218.32C132.835 212.69 137.285 206.92 140.245 202.42C138.745 202.43 137.255 202.44 135.755 202.45C133.105 205.64 129.645 209.27 125.195 212.81C118.055 218.5 111.055 221.84 105.785 223.84C106.005 226.25 106.215 228.66 106.425 231.08Z" fill="url(#paint22_radial_4852_2840)"/>
<path d="M129.086 329.489C130.756 335.119 132.426 340.739 134.096 346.369C141.146 342.229 151.636 334.929 161.376 322.999C171.736 310.309 176.856 297.769 179.416 289.789C177.386 290.769 175.356 291.759 173.326 292.739C169.446 299.649 161.796 310.999 148.216 320.119C141.226 324.829 134.496 327.689 129.086 329.489Z" fill="url(#paint23_radial_4852_2840)"/>
<path d="M112.836 282.729C113.616 285.349 114.386 287.979 115.166 290.599C119.936 286.689 125.256 281.639 130.446 275.239C140.616 262.669 146.026 250.099 148.976 241.109C147.546 242.289 146.116 243.459 144.686 244.639C140.826 252.089 135.026 261.309 126.376 270.499C121.726 275.419 117.096 279.459 112.836 282.729Z" fill="url(#paint24_radial_4852_2840)"/>
<path d="M172.165 331.088C169.689 339.021 164.063 353.123 151.133 365.944C143.877 373.134 136.478 377.786 130.719 380.748C132.665 386.262 134.6 391.776 136.546 397.3C143.404 391.811 152.046 383.647 159.968 372.189C171.783 355.095 176.578 338.483 178.692 328.018C176.516 329.031 174.341 330.055 172.165 331.088Z" fill="url(#paint25_radial_4852_2840)"/>
<path d="M81.4669 202.969C88.8869 210.319 97.2369 212.839 101.157 213.749C101.607 211.409 102.057 209.069 102.517 206.729C99.1969 206.209 92.0169 204.619 85.2569 198.909C75.9569 191.069 73.8069 180.799 73.2869 177.799C71.9569 176.849 70.6269 175.899 69.2969 174.959C69.4369 178.359 70.4269 192.039 81.4669 202.969Z" fill="url(#paint26_radial_4852_2840)"/>
<path d="M123.196 320.179C120.986 314.029 118.766 307.879 116.556 301.729C110.616 300.979 103.356 299.469 95.4763 296.429C79.8763 290.409 69.2363 281.249 63.1263 274.989C61.1663 275.319 59.2063 275.639 57.2363 275.969C64.6263 284.889 76.4263 296.929 93.6563 307.109C104.526 313.529 114.786 317.579 123.196 320.179Z" fill="url(#paint27_radial_4852_2840)"/>
<path d="M124.53 372.307C115.482 370.879 104.93 368.486 93.5181 364.444C75.0124 357.906 60.5466 349.267 50.1623 341.869C48.3102 342.215 46.4584 342.57 44.6063 342.916C53.7265 352.205 68.6265 365.094 89.9858 375.014C105.042 382.007 118.86 385.45 129.497 387.24C127.845 382.259 126.192 377.278 124.53 372.307Z" fill="url(#paint28_radial_4852_2840)"/>
<path d="M131.34 368.2C128.035 359.088 125.235 352.575 124.177 349.79C109.598 311.625 102.298 292.548 97.6608 271.055C95.7314 262.12 90.3666 235.443 90.204 200.217C90.1182 182.013 91.4543 166.316 93.0125 153.974L89.131 153.959C87.1173 164.452 84.9955 178.288 83.9755 194.637C81.4619 234.951 87.2094 265.41 88.444 271.711C89.2218 275.693 89.9631 279.006 90.8122 282.226C97.9061 309.251 103.544 322.987 114.8 353.71C119.892 367.62 127.427 388.172 133.048 411.411C139.293 437.246 140.831 456.754 141.615 464.677C144.418 492.957 153.884 538.019 183.215 611.603C189.486 620.152 201.267 622.094 209.295 616.595C216.369 611.751 219.222 602.058 215.702 593.522C190.467 565.861 177.544 540.16 170.382 521.4C162.954 501.946 156.626 472.312 143.972 413.054C142.593 406.606 139.16 389.765 131.34 368.2Z" fill="url(#paint29_radial_4852_2840)"/>
<path d="M283.534 282.66C289.231 250.898 267.693 223.026 260.036 213.99C260.924 206.317 261.523 191.668 254.883 175.412C251.088 166.137 246.111 159.193 242.09 154.492C243.118 146.97 243.716 135.107 239.959 121.44C237.876 113.849 234.969 107.623 232.278 102.866C231.826 90.1187 229.556 69.983 219.69 47.832C212.436 31.535 200.509 4.76701 181.572 2.7715C169.606 1.50889 167.653 11.4852 141.979 21.7285C119.675 30.6222 112.908 26.3788 99.6711 33.9964C89.8446 39.6505 77.3882 51.2962 69.3385 78.2901C64.4679 82.0113 53.0793 91.7242 46.8906 108.728C41.4923 123.536 42.7441 136.422 43.7274 142.501C40.3786 151.485 36.6558 164.772 36.2977 181.129C35.7647 205.965 43.2843 225.141 48.1773 235.287C45.4886 246.273 34.7445 294.885 61.234 324.482C76.7305 341.801 105.249 347.537 162.295 359.01C163.94 359.345 167.501 360.017 172.181 360.026C172.181 360.026 181.2 360.036 190.646 356.551C275.936 325.057 283.534 282.66 283.534 282.66Z" fill="url(#paint30_radial_4852_2840)"/>
<path d="M119.923 190.507C129.517 197.244 138.81 200.723 145.493 202.587C145.506 198.898 145.529 195.209 145.541 191.521C140.065 190.821 130.975 188.943 121.353 183.16C108.855 175.658 102.195 165.626 99.2928 160.552C96.9442 159.561 94.5856 158.571 92.2363 157.57C95.8386 165.104 103.907 179.264 119.923 190.507Z" fill="url(#paint31_radial_4852_2840)"/>
<path d="M155.622 104.634C162.448 102.79 171.901 99.4252 181.959 93.0147C190.708 87.4401 197.11 81.3556 201.496 76.4932C199.696 76.2286 197.905 75.9632 196.104 75.6986C192.341 79.0376 187.51 82.7462 181.518 86.1789C171.902 91.6791 162.879 94.4053 156.206 95.8177C156.005 98.7567 155.813 101.695 155.622 104.634Z" fill="url(#paint32_radial_4852_2840)"/>
<path d="M154.03 225.575C154.996 232.638 155.962 239.69 156.919 246.753C166.142 243.092 180.073 236.282 193.966 223.762C208.74 210.453 217.191 196.36 221.744 187.259C219.13 188.058 216.507 188.869 213.893 189.669C207.959 197.246 196.68 209.447 178.715 217.871C169.446 222.226 160.85 224.424 154.03 225.575Z" fill="url(#paint33_radial_4852_2840)"/>
<path d="M149.283 161.9C149.117 165.217 148.95 168.535 148.783 171.852C155.813 169.295 163.945 165.654 172.455 160.405C189.157 150.109 200.414 137.88 207.413 128.78C205.298 129.548 203.193 130.325 201.078 131.093C193.662 138.064 183.31 146.298 169.704 153.328C162.403 157.115 155.476 159.877 149.283 161.9Z" fill="url(#paint34_radial_4852_2840)"/>
<path d="M228.846 255.734C224.191 264.672 214.449 280.332 196.258 292.868C186.05 299.91 176.214 303.871 168.698 306.189C169.841 313.19 170.974 320.202 172.117 327.203C181.479 322.11 193.555 314.206 205.478 302.214C223.254 284.323 232.532 265.497 237.307 253.455C234.48 254.218 231.663 254.981 228.846 255.734Z" fill="url(#paint35_radial_4852_2840)"/>
<path d="M122.679 117.349C131.588 126.365 141.683 129.532 146.428 130.699C147.006 127.866 147.585 125.033 148.164 122.2C144.143 121.527 135.454 119.502 127.326 112.48C116.152 102.839 113.663 90.3536 113.077 86.6938C111.478 85.5242 109.87 84.3553 108.271 83.1858C108.398 87.3262 109.419 103.945 122.679 117.349Z" fill="url(#paint36_radial_4852_2840)"/>
<path d="M159.814 293.714C158.29 285.926 156.776 278.147 155.252 270.359C148.269 268.364 139.839 265.21 130.941 260.102C113.334 249.994 102.278 237.039 96.0891 228.399C93.6757 228.425 91.263 228.46 88.8496 228.485C96.0613 240.556 107.995 257.173 126.785 272.576C138.645 282.293 150.203 289.033 159.814 293.714Z" fill="url(#paint37_radial_4852_2840)"/>
<path d="M164.715 330.064C154.209 326.413 142.124 321.3 129.351 314.037C108.65 302.255 93.2043 288.841 82.3798 277.774C80.0962 277.791 77.8032 277.819 75.5195 277.836C84.418 290.89 99.4648 309.471 122.87 325.899C139.359 337.472 155.138 344.551 167.457 348.957C166.54 342.663 165.622 336.359 164.715 330.064Z" fill="url(#paint38_radial_4852_2840)"/>
<path d="M171.733 304.922C169.733 293.326 167.79 284.944 167.11 281.4C157.856 232.685 153.24 208.332 152.291 181.657C151.897 170.57 151.201 137.556 158.555 95.4255C162.352 73.6561 167.305 55.1991 171.817 40.7889L167.183 39.9453C162.532 52.0397 157.035 68.1267 152.318 87.4403C140.688 135.057 141.02 172.684 141.152 180.472C141.228 185.387 141.414 189.504 141.735 193.551C144.425 227.348 148.217 244.971 155.078 284.09C158.184 301.797 162.788 327.965 164.525 356.933C166.452 389.136 164.117 412.765 163.356 422.404C160.643 456.79 162.302 512.659 181.592 606.843C187.258 618.402 200.908 623.244 211.688 618.39C221.173 614.121 226.668 603.145 224.278 592.196C200.054 553.755 190.119 520.275 185.569 496.328C180.851 471.49 179.644 434.742 177.219 361.245C176.952 353.216 176.458 332.354 171.733 304.922Z" fill="url(#paint39_radial_4852_2840)"/>
<path d="M142.517 205.535C142.727 209.87 154.97 216.366 164.899 211.216C172.327 207.36 176.532 197.99 174.038 194.744C169.653 189.044 142.189 198.892 142.517 205.535Z" fill="white"/>
<path d="M126.17 195.375C119.747 191.661 111.542 193.864 107.828 200.286C104.123 206.708 106.316 214.914 112.738 218.628C119.16 222.332 127.366 220.14 131.08 213.717C134.795 207.295 132.592 199.08 126.17 195.375ZM128.936 212.473C125.906 217.709 119.208 219.503 113.972 216.474L124.925 197.51C130.17 200.539 131.965 207.237 128.936 212.473Z" fill="white"/>
<path d="M202.049 175.071C195.626 171.356 187.421 173.559 183.707 179.981C180.002 186.403 182.195 194.609 188.617 198.323C195.039 202.028 203.245 199.835 206.959 193.413C210.664 186.991 208.47 178.775 202.049 175.071ZM204.815 192.178C201.786 197.414 195.088 199.209 189.852 196.179L200.804 177.215C206.049 180.234 207.834 186.933 204.815 192.178Z" fill="white"/>
<path d="M211.148 622.913C211.737 620.861 210.723 618.492 209.151 618.212C208.208 618.042 207.069 617.925 205.779 617.969C203.389 618.043 201.481 618.616 200.232 619.128C199.304 619.508 198.892 621.038 199.402 622.268C199.816 623.253 200.311 624.243 200.596 625.237C200.956 626.477 201.634 627.505 202.519 627.869C203.158 628.138 204.061 628.321 205.342 628.298C206.273 628.278 207.037 628.159 207.667 627.988C209.194 627.569 210.404 625.978 210.889 623.862C210.969 623.556 211.059 623.24 211.148 622.913Z" fill="url(#paint40_radial_4852_2840)"/>
<defs>
<radialGradient id="paint0_radial_4852_2840" cx="0" cy="0" r="1" gradientUnits="userSpaceOnUse" gradientTransform="translate(323.207 332.337) rotate(-159.372) scale(98.0077 150.203)">
<stop stop-color="#659D4E"/>
<stop offset="0.4873" stop-color="#618D55"/>
<stop offset="1" stop-color="#5C775E"/>
</radialGradient>
<radialGradient id="paint1_radial_4852_2840" cx="0" cy="0" r="1" gradientUnits="userSpaceOnUse" gradientTransform="translate(285.06 450.949) rotate(-80.2617) scale(45.0368 78.7777)">
<stop stop-color="#BBDB4C"/>
<stop offset="0.2627" stop-color="#B6D75C"/>
<stop offset="0.7757" stop-color="#ABCB86"/>
<stop offset="1" stop-color="#A5C69B"/>
</radialGradient>
<radialGradient id="paint2_radial_4852_2840" cx="0" cy="0" r="1" gradientUnits="userSpaceOnUse" gradientTransform="translate(229.49 417.766) rotate(-54.4208) scale(45.0375 78.7828)">
<stop stop-color="#BBDB4C"/>
<stop offset="0.2627" stop-color="#B6D75C"/>
<stop offset="0.7757" stop-color="#ABCB86"/>
<stop offset="1" stop-color="#A5C69B"/>
</radialGradient>
<radialGradient id="paint3_radial_4852_2840" cx="0" cy="0" r="1" gradientUnits="userSpaceOnUse" gradientTransform="translate(257.995 413.685) rotate(-49.9902) scale(45.0376 78.7842)">
<stop stop-color="#BBDB4C"/>
<stop offset="0.2627" stop-color="#B6D75C"/>
<stop offset="0.7757" stop-color="#ABCB86"/>
<stop offset="1" stop-color="#A5C69B"/>
</radialGradient>
<radialGradient id="paint4_radial_4852_2840" cx="0" cy="0" r="1" gradientUnits="userSpaceOnUse" gradientTransform="translate(256.154 422.416) rotate(-61.305) scale(45.0439 78.7767)">
<stop stop-color="#BBDB4C"/>
<stop offset="0.2627" stop-color="#B6D75C"/>
<stop offset="0.7757" stop-color="#ABCB86"/>
<stop offset="1" stop-color="#A5C69B"/>
</radialGradient>
<radialGradient id="paint5_radial_4852_2840" cx="0" cy="0" r="1" gradientUnits="userSpaceOnUse" gradientTransform="translate(225.8 594.099) rotate(-77.5025) scale(137.13 182.574)">
<stop stop-color="#BBDB4C"/>
<stop offset="0.2627" stop-color="#B6D75C"/>
<stop offset="0.7757" stop-color="#ABCB86"/>
<stop offset="1" stop-color="#A5C69B"/>
</radialGradient>
<radialGradient id="paint6_radial_4852_2840" cx="0" cy="0" r="1" gradientUnits="userSpaceOnUse" gradientTransform="translate(287.349 449.642) rotate(-51.3485) scale(45.0406 78.7833)">
<stop stop-color="#BBDB4C"/>
<stop offset="0.2627" stop-color="#B6D75C"/>
<stop offset="0.7757" stop-color="#ABCB86"/>
<stop offset="1" stop-color="#A5C69B"/>
</radialGradient>
<radialGradient id="paint7_radial_4852_2840" cx="0" cy="0" r="1" gradientUnits="userSpaceOnUse" gradientTransform="translate(298.885 454.672) rotate(-81.4675) scale(45.036 78.776)">
<stop stop-color="#BBDB4C"/>
<stop offset="0.2627" stop-color="#B6D75C"/>
<stop offset="0.7757" stop-color="#ABCB86"/>
<stop offset="1" stop-color="#A5C69B"/>
</radialGradient>
<radialGradient id="paint8_radial_4852_2840" cx="0" cy="0" r="1" gradientUnits="userSpaceOnUse" gradientTransform="translate(264.146 440.473) rotate(-69.9386) scale(45.0432 78.7823)">
<stop stop-color="#BBDB4C"/>
<stop offset="0.2627" stop-color="#B6D75C"/>
<stop offset="0.7757" stop-color="#ABCB86"/>
<stop offset="1" stop-color="#A5C69B"/>
</radialGradient>
<radialGradient id="paint9_radial_4852_2840" cx="0" cy="0" r="1" gradientUnits="userSpaceOnUse" gradientTransform="translate(283.195 454.12) rotate(-62.7082) scale(45.0432 78.7823)">
<stop stop-color="#BBDB4C"/>
<stop offset="0.2627" stop-color="#B6D75C"/>
<stop offset="0.7757" stop-color="#ABCB86"/>
<stop offset="1" stop-color="#A5C69B"/>
</radialGradient>
<radialGradient id="paint10_radial_4852_2840" cx="0" cy="0" r="1" gradientUnits="userSpaceOnUse" gradientTransform="translate(210.532 254.147) rotate(178.732) scale(116.767 178.956)">
<stop stop-color="#5EAF3D"/>
<stop offset="0.4873" stop-color="#5B9F49"/>
<stop offset="1" stop-color="#568959"/>
</radialGradient>
<radialGradient id="paint11_radial_4852_2840" cx="0" cy="0" r="1" gradientUnits="userSpaceOnUse" gradientTransform="translate(219.635 379.87) rotate(-63.7704) scale(53.658 93.8527)">
<stop stop-color="#D6ED68"/>
<stop offset="0.3566" stop-color="#C6E26B"/>
<stop offset="1" stop-color="#9FC972"/>
</radialGradient>
<radialGradient id="paint12_radial_4852_2840" cx="0" cy="0" r="1" gradientUnits="userSpaceOnUse" gradientTransform="translate(217.14 407.648) rotate(-84.6038) scale(53.6599 93.8549)">
<stop stop-color="#D6ED68"/>
<stop offset="0.3566" stop-color="#C6E26B"/>
<stop offset="1" stop-color="#9FC972"/>
</radialGradient>
<radialGradient id="paint13_radial_4852_2840" cx="0" cy="0" r="1" gradientUnits="userSpaceOnUse" gradientTransform="translate(236.391 385.436) rotate(-70.4054) scale(53.6598 93.8558)">
<stop stop-color="#D6ED68"/>
<stop offset="0.3566" stop-color="#C6E26B"/>
<stop offset="1" stop-color="#9FC972"/>
</radialGradient>
<radialGradient id="paint14_radial_4852_2840" cx="0" cy="0" r="1" gradientUnits="userSpaceOnUse" gradientTransform="translate(219.276 402.786) rotate(-84.6038) scale(53.6599 93.8549)">
<stop stop-color="#D6ED68"/>
<stop offset="0.3566" stop-color="#C6E26B"/>
<stop offset="1" stop-color="#9FC972"/>
</radialGradient>
<radialGradient id="paint15_radial_4852_2840" cx="0" cy="0" r="1" gradientUnits="userSpaceOnUse" gradientTransform="translate(216.98 420.337) rotate(-84.6038) scale(53.6599 93.8549)">
<stop stop-color="#D6ED68"/>
<stop offset="0.3566" stop-color="#C6E26B"/>
<stop offset="1" stop-color="#9FC972"/>
</radialGradient>
<radialGradient id="paint16_radial_4852_2840" cx="0" cy="0" r="1" gradientUnits="userSpaceOnUse" gradientTransform="translate(211.319 396.795) rotate(-72.9769) scale(53.6615 93.8515)">
<stop stop-color="#D6ED68"/>
<stop offset="0.3566" stop-color="#C6E26B"/>
<stop offset="1" stop-color="#9FC972"/>
</radialGradient>
<radialGradient id="paint17_radial_4852_2840" cx="0" cy="0" r="1" gradientUnits="userSpaceOnUse" gradientTransform="translate(243.144 386.915) rotate(-81.7571) scale(53.6599 93.8549)">
<stop stop-color="#D6ED68"/>
<stop offset="0.3566" stop-color="#C6E26B"/>
<stop offset="1" stop-color="#9FC972"/>
</radialGradient>
<radialGradient id="paint18_radial_4852_2840" cx="0" cy="0" r="1" gradientUnits="userSpaceOnUse" gradientTransform="translate(219.201 586.871) rotate(-99.3982) scale(163.375 217.51)">
<stop stop-color="#D6ED68"/>
<stop offset="0.3566" stop-color="#C6E26B"/>
<stop offset="1" stop-color="#9FC972"/>
</radialGradient>
<radialGradient id="paint19_radial_4852_2840" cx="0" cy="0" r="1" gradientUnits="userSpaceOnUse" gradientTransform="translate(223.423 422.394) rotate(-84.6038) scale(53.6599 93.8549)">
<stop stop-color="#D6ED68"/>
<stop offset="0.3566" stop-color="#C6E26B"/>
<stop offset="1" stop-color="#9FC972"/>
</radialGradient>
<radialGradient id="paint20_radial_4852_2840" cx="0" cy="0" r="1" gradientUnits="userSpaceOnUse" gradientTransform="translate(102.015 271.011) rotate(-13.8524) scale(114.512 175.493)">
<stop stop-color="#659D4E"/>
<stop offset="0.4873" stop-color="#618D55"/>
<stop offset="1" stop-color="#5C775E"/>
</radialGradient>
<radialGradient id="paint21_radial_4852_2840" cx="0" cy="0" r="1" gradientUnits="userSpaceOnUse" gradientTransform="translate(110.207 408.756) rotate(-96.1903) scale(52.6263 92.0365)">
<stop stop-color="#BBCE63"/>
<stop offset="0.3512" stop-color="#B5CC73"/>
<stop offset="1" stop-color="#A5C69B"/>
</radialGradient>
<radialGradient id="paint22_radial_4852_2840" cx="0" cy="0" r="1" gradientUnits="userSpaceOnUse" gradientTransform="translate(135.027 428.536) rotate(-109.116) scale(52.6188 92.0385)">
<stop stop-color="#BBCE63"/>
<stop offset="0.3512" stop-color="#B5CC73"/>
<stop offset="1" stop-color="#A5C69B"/>
</radialGradient>
<radialGradient id="paint23_radial_4852_2840" cx="0" cy="0" r="1" gradientUnits="userSpaceOnUse" gradientTransform="translate(136.611 419.827) rotate(-109.116) scale(52.6188 92.0385)">
<stop stop-color="#BBCE63"/>
<stop offset="0.3512" stop-color="#B5CC73"/>
<stop offset="1" stop-color="#A5C69B"/>
</radialGradient>
<radialGradient id="paint24_radial_4852_2840" cx="0" cy="0" r="1" gradientUnits="userSpaceOnUse" gradientTransform="translate(164.522 427.04) rotate(-119.724) scale(52.6166 92.0442)">
<stop stop-color="#BBCE63"/>
<stop offset="0.3512" stop-color="#B5CC73"/>
<stop offset="1" stop-color="#A5C69B"/>
</radialGradient>
<radialGradient id="paint25_radial_4852_2840" cx="0" cy="0" r="1" gradientUnits="userSpaceOnUse" gradientTransform="translate(132.672 426.344) rotate(-121.869) scale(52.6194 92.0391)">
<stop stop-color="#BBCE63"/>
<stop offset="0.3512" stop-color="#B5CC73"/>
<stop offset="1" stop-color="#A5C69B"/>
</radialGradient>
<radialGradient id="paint26_radial_4852_2840" cx="0" cy="0" r="1" gradientUnits="userSpaceOnUse" gradientTransform="translate(114.691 414.303) rotate(-100.985) scale(52.6166 92.0391)">
<stop stop-color="#BBCE63"/>
<stop offset="0.3512" stop-color="#B5CC73"/>
<stop offset="1" stop-color="#A5C69B"/>
</radialGradient>
<radialGradient id="paint27_radial_4852_2840" cx="0" cy="0" r="1" gradientUnits="userSpaceOnUse" gradientTransform="translate(138.987 389.745) rotate(-109.116) scale(52.6188 92.0385)">
<stop stop-color="#BBCE63"/>
<stop offset="0.3512" stop-color="#B5CC73"/>
<stop offset="1" stop-color="#A5C69B"/>
</radialGradient>
<radialGradient id="paint28_radial_4852_2840" cx="0" cy="0" r="1" gradientUnits="userSpaceOnUse" gradientTransform="translate(128.518 406.354) rotate(-110.519) scale(52.6188 92.0385)">
<stop stop-color="#BBCE63"/>
<stop offset="0.3512" stop-color="#B5CC73"/>
<stop offset="1" stop-color="#A5C69B"/>
</radialGradient>
<radialGradient id="paint29_radial_4852_2840" cx="0" cy="0" r="1" gradientUnits="userSpaceOnUse" gradientTransform="translate(178.888 588.03) rotate(-95.7214) scale(160.218 213.302)">
<stop stop-color="#BBCE63"/>
<stop offset="0.3512" stop-color="#B5CC73"/>
<stop offset="1" stop-color="#A5C69B"/>
</radialGradient>
<radialGradient id="paint30_radial_4852_2840" cx="0" cy="0" r="1" gradientUnits="userSpaceOnUse" gradientTransform="translate(157.405 182.492) rotate(-3.68949) scale(138.977 212.993)">
<stop stop-color="#6EAB6F"/>
<stop offset="0.4225" stop-color="#62A05F"/>
<stop offset="1" stop-color="#4E8C42"/>
</radialGradient>
<radialGradient id="paint31_radial_4852_2840" cx="0" cy="0" r="1" gradientUnits="userSpaceOnUse" gradientTransform="translate(164.108 377.085) rotate(-100.36) scale(63.8669 111.714)">
<stop stop-color="#DAFF7C"/>
<stop offset="0.3057" stop-color="#CAF675"/>
<stop offset="0.9031" stop-color="#9FDF61"/>
<stop offset="1" stop-color="#98DB5E"/>
</radialGradient>
<radialGradient id="paint32_radial_4852_2840" cx="0" cy="0" r="1" gradientUnits="userSpaceOnUse" gradientTransform="translate(153.434 346.841) rotate(-100.36) scale(63.8669 111.714)">
<stop stop-color="#DAFF7C"/>
<stop offset="0.3057" stop-color="#CAF675"/>
<stop offset="0.9031" stop-color="#9FDF61"/>
<stop offset="1" stop-color="#98DB5E"/>
</radialGradient>
<radialGradient id="paint33_radial_4852_2840" cx="0" cy="0" r="1" gradientUnits="userSpaceOnUse" gradientTransform="translate(146.349 335.399) rotate(-100.36) scale(63.8669 111.714)">
<stop stop-color="#DAFF7C"/>
<stop offset="0.3057" stop-color="#CAF675"/>
<stop offset="0.9031" stop-color="#9FDF61"/>
<stop offset="1" stop-color="#98DB5E"/>
</radialGradient>
<radialGradient id="paint34_radial_4852_2840" cx="0" cy="0" r="1" gradientUnits="userSpaceOnUse" gradientTransform="translate(150.325 347.834) rotate(-100.36) scale(63.8669 111.714)">
<stop stop-color="#DAFF7C"/>
<stop offset="0.3057" stop-color="#CAF675"/>
<stop offset="0.9031" stop-color="#9FDF61"/>
<stop offset="1" stop-color="#98DB5E"/>
</radialGradient>
<radialGradient id="paint35_radial_4852_2840" cx="0" cy="0" r="1" gradientUnits="userSpaceOnUse" gradientTransform="translate(161.027 360.924) rotate(-111.71) scale(63.874 111.718)">
<stop stop-color="#DAFF7C"/>
<stop offset="0.3057" stop-color="#CAF675"/>
<stop offset="0.9031" stop-color="#9FDF61"/>
<stop offset="1" stop-color="#98DB5E"/>
</radialGradient>
<radialGradient id="paint36_radial_4852_2840" cx="0" cy="0" r="1" gradientUnits="userSpaceOnUse" gradientTransform="translate(159.953 374.181) rotate(-100.36) scale(63.8669 111.714)">
<stop stop-color="#DAFF7C"/>
<stop offset="0.3057" stop-color="#CAF675"/>
<stop offset="0.9031" stop-color="#9FDF61"/>
<stop offset="1" stop-color="#98DB5E"/>
</radialGradient>
<radialGradient id="paint37_radial_4852_2840" cx="0" cy="0" r="1" gradientUnits="userSpaceOnUse" gradientTransform="translate(165.889 380.142) rotate(-100.36) scale(63.8669 111.714)">
<stop stop-color="#DAFF7C"/>
<stop offset="0.3057" stop-color="#CAF675"/>
<stop offset="0.9031" stop-color="#9FDF61"/>
<stop offset="1" stop-color="#98DB5E"/>
</radialGradient>
<radialGradient id="paint38_radial_4852_2840" cx="0" cy="0" r="1" gradientUnits="userSpaceOnUse" gradientTransform="translate(162.171 371.658) rotate(-100.36) scale(63.8669 111.714)">
<stop stop-color="#DAFF7C"/>
<stop offset="0.3057" stop-color="#CAF675"/>
<stop offset="0.9031" stop-color="#9FDF61"/>
<stop offset="1" stop-color="#98DB5E"/>
</radialGradient>
<radialGradient id="paint39_radial_4852_2840" cx="0" cy="0" r="1" gradientUnits="userSpaceOnUse" gradientTransform="translate(181.523 577.759) rotate(-85.5602) scale(194.442 258.89)">
<stop stop-color="#DAFF7C"/>
<stop offset="0.3057" stop-color="#CAF675"/>
<stop offset="0.9031" stop-color="#9FDF61"/>
<stop offset="1" stop-color="#98DB5E"/>
</radialGradient>
<radialGradient id="paint40_radial_4852_2840" cx="0" cy="0" r="1" gradientUnits="userSpaceOnUse" gradientTransform="translate(205.485 619.017) rotate(88.0868) scale(4.38193 16.957)">
<stop stop-color="#D19C59"/>
<stop offset="1" stop-color="#AF755D"/>
</radialGradient>
</defs>
</svg>
