<svg width="171" height="297" viewBox="0 0 171 297" fill="none" xmlns="http://www.w3.org/2000/svg">
<path d="M81.9498 175.176C81.8645 164.378 90.5267 156.403 93.5595 153.856C93.6969 151.275 94.3271 146.412 97.4309 141.426C99.2032 138.58 101.231 136.573 102.823 135.249C102.909 132.711 103.383 128.764 105.387 124.471C106.501 122.084 107.808 120.196 108.965 118.778C109.832 114.598 111.713 108.085 116.21 101.338C119.518 96.3761 124.953 88.221 131.303 88.629C135.316 88.8899 135.392 92.2867 143.277 97.1114C150.124 101.3 152.588 100.285 156.522 103.544C159.441 105.964 162.885 110.504 164.013 119.864C165.411 121.363 168.61 125.211 169.695 131.169C170.638 136.355 169.501 140.539 168.832 142.484C169.43 145.634 169.908 150.226 169.103 155.639C167.88 163.861 164.321 169.758 162.137 172.827C162.402 176.599 163.203 193.236 152.811 201.505C146.732 206.344 137.013 206.624 117.58 207.194C117.016 207.208 115.807 207.232 114.267 206.971C114.267 206.971 111.296 206.463 108.382 204.784C82.0636 189.583 81.9498 175.176 81.9498 175.176Z" fill="url(#paint0_radial_4373_2217)"/>
<path d="M141.316 151.56C138.136 153.846 135.042 155.046 132.815 155.696C132.796 154.463 132.777 153.229 132.758 151.996C134.587 151.745 137.615 151.08 140.809 149.112C144.96 146.555 147.144 143.177 148.097 141.469C148.879 141.127 149.66 140.786 150.442 140.449C149.267 142.973 146.623 147.741 141.316 151.56Z" fill="url(#paint1_radial_4373_2217)"/>
<path d="M134.545 124.575C132.744 123.043 130.365 120.675 128.238 117.307C126.385 114.375 125.319 111.619 124.684 109.522C125.266 109.698 125.845 109.873 126.427 110.049C127.091 111.595 128.024 113.408 129.346 115.3C131.469 118.337 133.81 120.448 135.625 121.828C135.265 122.739 134.905 123.655 134.545 124.575Z" fill="url(#paint2_radial_4373_2217)"/>
<path d="M130.132 163.021C128.687 164.914 127.237 166.807 125.792 168.7C123.716 166.11 120.802 161.821 118.835 155.886C116.746 149.572 116.618 144.073 116.802 140.677C117.428 141.346 118.058 142.01 118.684 142.679C119.153 145.862 120.413 151.275 124.237 156.702C126.209 159.496 128.341 161.555 130.132 163.021Z" fill="url(#paint3_radial_4373_2217)"/>
<path d="M133.403 141.502C133.109 142.574 132.811 143.642 132.517 144.714C130.555 143.162 128.361 141.151 126.21 138.589C121.993 133.56 119.709 128.494 118.443 124.865C119.031 125.334 119.619 125.799 120.211 126.269C121.831 129.262 124.248 132.967 127.821 136.635C129.745 138.603 131.655 140.207 133.403 141.502Z" fill="url(#paint4_radial_4373_2217)"/>
<path d="M117.523 188.825C118.836 185.115 119.95 182.458 120.371 181.329C126.162 165.787 129.057 158.016 130.872 149.273C131.626 145.639 133.715 134.789 133.668 120.486C133.644 113.094 133.052 106.728 132.379 101.718L133.952 101.699C134.805 105.95 135.706 111.562 136.175 118.199C137.321 134.557 135.09 146.948 134.611 149.505C134.308 151.123 134.019 152.47 133.682 153.785C130.891 164.777 128.65 170.375 124.186 182.89C122.163 188.554 119.173 196.923 116.969 206.378C114.519 216.891 113.96 224.813 113.666 228.035C112.619 239.525 108.928 257.856 97.2659 287.829C94.7497 291.321 89.9779 292.146 86.7035 289.94C83.8224 287.995 82.6283 284.067 84.0309 280.59C94.1763 269.28 99.3367 258.8 102.18 251.162C105.132 243.239 107.601 231.189 112.543 207.085C113.079 204.456 114.42 197.606 117.523 188.825Z" fill="url(#paint5_radial_4373_2217)"/>
<path d="M102.753 168.112C103.782 171.324 106.108 177.035 111.396 182.197C114.363 185.091 117.377 186.955 119.722 188.146C118.955 190.39 118.182 192.639 117.415 194.883C114.619 192.677 111.084 189.389 107.838 184.759C102.99 177.856 100.995 171.124 100.1 166.883C100.981 167.291 101.867 167.704 102.753 168.112Z" fill="url(#paint6_radial_4373_2217)"/>
<path d="M143.477 129.452C140.596 132.559 137.26 133.731 135.687 134.168C135.464 133.228 135.241 132.284 135.014 131.345C136.35 131.079 139.231 130.306 141.87 127.872C145.5 124.528 146.197 120.329 146.358 119.1C146.879 118.692 147.4 118.284 147.926 117.876C147.926 119.262 147.761 124.827 143.477 129.452Z" fill="url(#paint7_radial_4373_2217)"/>
<path d="M123.992 180.845C124.93 178.364 125.869 175.883 126.812 173.401C129.224 173.136 132.176 172.571 135.398 171.39C141.767 169.051 146.14 165.403 148.661 162.903C149.453 163.05 150.249 163.192 151.04 163.339C147.984 166.911 143.117 171.722 136.061 175.74C131.607 178.269 127.423 179.844 123.992 180.845Z" fill="url(#paint8_radial_4373_2217)"/>
<path d="M119.006 195.144C122.674 194.532 126.939 193.531 131.559 191.851C139.041 189.133 144.884 185.58 149.073 182.543C149.826 182.681 150.58 182.814 151.329 182.951C147.661 186.751 141.657 192.032 133.023 196.13C126.939 199.015 121.343 200.462 117.035 201.221C117.694 199.195 118.348 197.169 119.006 195.144Z" fill="url(#paint9_radial_4373_2217)"/>
<path d="M52.6319 160.692C49.8977 148.125 58.0624 136.706 60.9766 132.996C60.5122 129.95 60.0573 124.129 62.4645 117.554C63.8387 113.801 65.7152 110.964 67.2458 109.033C66.7293 106.054 66.317 101.339 67.6107 95.8401C68.3309 92.7849 69.3924 90.261 70.397 88.3302C70.3875 83.2445 70.9988 75.1938 74.5954 66.2227C77.2443 59.6284 81.5943 48.7881 89.1003 47.7159C93.8437 47.0375 94.763 50.9846 105.131 54.685C114.134 57.9015 116.764 56.1083 122.143 58.95C126.137 61.0564 131.265 65.5111 134.856 76.1473C136.851 77.5563 141.519 81.2615 144.234 87.9412C146.599 93.7574 146.291 98.9143 145.987 101.348C147.452 104.878 149.129 110.115 149.508 116.624C150.086 126.511 147.371 134.258 145.575 138.371C146.802 142.707 151.792 161.911 141.69 174.089C135.78 181.215 124.517 183.919 101.989 189.327C101.34 189.484 99.9328 189.807 98.0705 189.878C98.0705 189.878 94.4834 190.015 90.6735 188.763C56.2759 177.467 52.6319 160.692 52.6319 160.692Z" fill="url(#paint10_radial_4373_2217)"/>
<path d="M105.132 137.432C103.995 140.031 102.857 142.631 101.72 145.236C98.5879 142.826 93.9962 138.694 90.0395 132.384C85.8316 125.671 84.1304 119.347 83.377 115.362C84.2915 115.955 85.2061 116.548 86.1206 117.146C87.5659 120.694 90.556 126.606 96.5219 131.796C99.5925 134.467 102.644 136.246 105.132 137.432Z" fill="url(#paint11_radial_4373_2217)"/>
<path d="M102.014 157.423C102.502 154.302 102.995 151.175 103.483 148.054C106.231 147.157 109.539 145.777 113.003 143.613C119.859 139.329 124.072 134.006 126.403 130.477C127.365 130.453 128.327 130.429 129.284 130.406C126.593 135.316 122.086 142.114 114.836 148.523C110.268 152.561 105.771 155.417 102.014 157.423Z" fill="url(#paint12_radial_4373_2217)"/>
<path d="M75.4874 141.929C77.4682 145.421 81.5766 151.517 88.9972 156.242C93.1625 158.894 97.1334 160.331 100.157 161.143C99.806 163.951 99.4554 166.755 99.1047 169.563C95.3043 167.671 90.3857 164.701 85.467 160.099C78.1316 153.234 74.1654 145.871 72.0898 141.146C73.2224 141.412 74.3549 141.673 75.4874 141.929Z" fill="url(#paint13_radial_4373_2217)"/>
<path d="M100.37 173.155C104.497 171.546 109.231 169.336 114.206 166.252C122.272 161.257 128.219 155.687 132.36 151.118C133.27 151.095 134.18 151.066 135.09 151.042C131.739 156.37 126.025 163.994 116.955 170.878C110.563 175.731 104.393 178.781 99.5547 180.717C99.8248 178.198 100.095 175.674 100.37 173.155Z" fill="url(#paint14_radial_4373_2217)"/>
<path d="M115.335 122.981C111.615 125.804 107.971 127.327 105.336 128.171C105.275 126.701 105.213 125.235 105.156 123.764C107.327 123.408 110.914 122.521 114.657 120.078C119.519 116.904 122.021 112.815 123.101 110.751C124.021 110.319 124.945 109.892 125.864 109.46C124.547 112.506 121.542 118.266 115.335 122.981Z" fill="url(#paint15_radial_4373_2217)"/>
<path d="M102.625 92.3484C100.014 91.2999 96.4273 89.5304 92.7501 86.5321C89.5468 83.9229 87.3007 81.214 85.7891 79.0886C86.5141 79.0649 87.2343 79.0459 87.9594 79.0222C89.2956 80.5166 91.0347 82.2102 93.2429 83.8422C96.7921 86.4657 100.232 87.9601 102.81 88.833C102.744 90.0048 102.682 91.1766 102.625 92.3484Z" fill="url(#paint16_radial_4373_2217)"/>
<path d="M104.933 109.603C105.047 110.922 105.165 112.24 105.279 113.559C102.445 112.644 99.1565 111.315 95.6925 109.347C88.8974 105.49 84.2393 100.783 81.3203 97.2633C82.1733 97.5385 83.0215 97.8184 83.8744 98.0935C86.9261 100.764 91.1672 103.891 96.6829 106.491C99.6398 107.89 102.436 108.882 104.933 109.603Z" fill="url(#paint17_radial_4373_2217)"/>
<path d="M97.4359 167.917C98.0614 163.268 98.7106 159.9 98.9285 158.481C101.895 138.945 103.378 129.172 103.364 118.536C103.359 114.114 103.151 100.954 99.6062 84.2834C97.777 75.6681 95.5357 68.3859 93.5312 62.7167L95.3604 62.3135C97.3885 67.0623 99.8099 73.3862 101.971 81.0147C107.297 99.8108 107.714 114.802 107.776 117.905C107.813 119.864 107.804 121.506 107.738 123.123C107.164 136.625 105.913 143.699 103.752 159.383C102.776 166.48 101.326 176.969 101.061 188.535C100.767 201.392 102.042 210.766 102.487 214.594C104.07 228.248 104.226 250.526 97.9334 288.327C95.8484 293.014 90.489 295.14 86.1295 293.365C82.296 291.805 79.9456 287.516 80.737 283.118C89.8114 267.448 93.2754 253.97 94.7301 244.368C96.2417 234.406 96.1849 219.751 96.0711 190.437C96.0664 187.235 95.9574 178.919 97.4359 167.917Z" fill="url(#paint18_radial_4373_2217)"/>
<path d="M114.558 96.2291C111.146 99.9485 107.175 101.362 105.303 101.894C105.033 100.774 104.758 99.6544 104.488 98.53C106.076 98.2027 109.506 97.2681 112.639 94.3552C116.946 90.3512 117.747 85.3414 117.932 83.8755C118.553 83.3868 119.173 82.8982 119.789 82.4095C119.794 84.0605 119.633 90.6927 114.558 96.2291Z" fill="url(#paint19_radial_4373_2217)"/>
<path d="M102.208 157.969C102.516 145.359 92.5509 135.876 89.0585 132.839C88.9448 129.822 88.305 124.129 84.7748 118.247C82.7609 114.888 80.4295 112.506 78.5956 110.926C78.5435 107.961 78.0696 103.341 75.8093 98.2881C74.5536 95.4796 73.0609 93.2451 71.7388 91.5704C70.8053 86.6698 68.7346 79.027 63.6121 71.0569C59.8449 65.1932 53.6515 55.5627 46.2261 55.9185C41.5349 56.1415 41.3738 60.1123 32.0766 65.5965C23.9972 70.3596 21.1351 69.1214 16.4771 72.855C13.0226 75.6255 8.90474 80.863 7.40733 91.7744C5.74881 93.5013 1.93423 97.9323 0.555287 104.868C-0.648322 110.907 0.602673 115.813 1.3419 118.104C0.583719 121.776 -0.0654722 127.127 0.773264 133.466C2.04321 143.091 6.08526 150.051 8.57777 153.68C8.19394 158.083 6.93821 177.5 18.9174 187.363C25.9259 193.132 37.2749 193.649 59.9681 194.688C60.622 194.717 62.0389 194.769 63.8443 194.494C63.8443 194.494 67.3224 193.962 70.7627 192.051C101.796 174.796 102.208 157.969 102.208 157.969Z" fill="url(#paint20_radial_4373_2217)"/>
<path d="M32.1769 120.078C35.7214 122.976 39.2422 124.594 41.7916 125.514C41.9006 124.077 42.0143 122.64 42.1233 121.202C40.0099 120.775 36.5222 119.784 32.9398 117.26C28.2865 113.982 25.9788 109.883 24.9932 107.819C24.1071 107.364 23.2162 106.913 22.3301 106.457C23.5195 109.489 26.2631 115.239 32.1769 120.078Z" fill="url(#paint21_radial_4373_2217)"/>
<path d="M42.4302 109.626C44.9559 108.507 48.4009 106.642 51.9027 103.573C54.9449 100.902 57.0536 98.1646 58.4562 96.0298C57.7454 96.0345 57.0394 96.0393 56.3286 96.044C55.0729 97.5574 53.4333 99.2795 51.3246 100.959C47.9412 103.658 44.6242 105.243 42.127 106.192C42.2312 107.335 42.3307 108.478 42.4302 109.626Z" fill="url(#paint22_radial_4373_2217)"/>
<path d="M53.168 156.313C53.9593 158.984 54.7507 161.65 55.542 164.321C58.8827 162.357 63.8536 158.894 68.469 153.234C73.3782 147.214 75.8044 141.265 77.0174 137.479C76.0555 137.944 75.0936 138.414 74.1316 138.879C72.293 142.157 68.668 147.541 62.233 151.868C58.9207 154.102 55.7316 155.459 53.168 156.313Z" fill="url(#paint23_radial_4373_2217)"/>
<path d="M45.4688 134.13C45.8384 135.373 46.2032 136.62 46.5728 137.863C48.8332 136.008 51.3541 133.613 53.8135 130.576C58.6326 124.613 61.1962 118.65 62.5941 114.385C61.9165 114.945 61.2389 115.5 60.5613 116.059C58.7322 119.594 55.9837 123.968 51.8848 128.328C49.6814 130.662 47.4874 132.578 45.4688 134.13Z" fill="url(#paint24_radial_4373_2217)"/>
<path d="M80.1594 156.095C78.8942 159.828 76.0653 166.451 69.7913 172.381C66.2705 175.707 62.7118 177.828 59.9492 179.165C60.8069 181.803 61.6599 184.441 62.5176 187.083C65.8298 184.56 70.0188 180.788 73.9045 175.446C79.6998 167.476 82.1639 159.653 83.2869 154.714C82.2444 155.17 81.2019 155.63 80.1594 156.095Z" fill="url(#paint25_radial_4373_2217)"/>
<path d="M30.6028 96.2908C34.1189 99.7777 38.0756 100.973 39.9332 101.405C40.1464 100.295 40.3597 99.1847 40.5776 98.0746C39.0044 97.8279 35.6021 97.0736 32.3988 94.3647C27.9919 90.6453 26.9731 85.7731 26.7266 84.3499C26.0964 83.8992 25.4662 83.4485 24.8359 83.0026C24.9023 84.6156 25.3714 91.1055 30.6028 96.2908Z" fill="url(#paint26_radial_4373_2217)"/>
<path d="M50.377 151.896C49.3298 148.979 48.2778 146.061 47.2306 143.143C44.4158 142.788 40.9756 142.071 37.2416 140.629C29.8493 137.773 24.8074 133.428 21.9121 130.458C20.9834 130.614 20.0546 130.766 19.1211 130.923C22.6229 135.154 28.2145 140.866 36.3791 145.696C41.53 148.742 46.3918 150.663 50.377 151.896Z" fill="url(#paint27_radial_4373_2217)"/>
<path d="M57.1161 175.09C52.8466 174.307 47.8758 173.05 42.5164 171.001C33.8258 167.685 27.0732 163.42 22.2399 159.791C21.3585 159.933 20.4771 160.08 19.5957 160.222C23.8083 164.734 30.7172 171.02 40.7205 175.973C47.7715 179.464 54.2777 181.258 59.2959 182.23C58.5709 179.849 57.8458 177.467 57.1161 175.09Z" fill="url(#paint28_radial_4373_2217)"/>
<path d="M60.3889 173.221C58.9294 168.861 57.6784 165.74 57.2093 164.407C50.7458 146.137 47.5093 137.005 45.5617 126.757C44.7514 122.497 42.5196 109.783 42.8513 93.0742C43.0218 84.44 43.8369 77.0107 44.7183 71.1755L42.8797 71.1233C41.804 76.0761 40.6383 82.6135 39.9654 90.3559C38.3069 109.446 40.6762 123.958 41.188 126.961C41.5102 128.859 41.823 130.439 42.1879 131.976C45.2348 144.875 47.7463 151.455 52.7218 166.157C54.9726 172.813 58.3039 182.648 60.6969 193.735C63.3553 206.06 63.8576 215.33 64.1371 219.097C65.137 232.541 69.0985 254.023 82.1392 289.262C85.0108 293.389 90.5692 294.447 94.4359 291.933C97.8429 289.717 99.3072 285.153 97.7387 281.064C86.1054 267.652 80.2816 255.313 77.1067 246.332C73.8134 237.02 71.1598 222.892 65.8525 194.641C65.2744 191.567 63.8433 183.54 60.3889 173.221Z" fill="url(#paint29_radial_4373_2217)"/>
<path d="M137.038 135.747C140.701 120.884 131.366 107.031 128.02 102.52C128.674 98.9143 129.404 91.9974 126.76 84.0984C125.248 79.5915 123.106 76.1521 121.348 73.8037C122.064 70.2741 122.708 64.6761 121.348 58.0913C120.595 54.4336 119.41 51.3973 118.282 49.0632C118.458 43.0145 117.998 33.4124 114.008 22.6244C111.075 14.6875 106.251 1.65069 97.3567 0.127838C91.7367 -0.835215 90.5094 3.82824 78.0563 7.89393C67.2381 11.4235 64.1674 9.20805 57.6755 12.4103C52.8564 14.7871 46.6109 19.9202 41.9812 32.4541C39.5645 34.0671 33.8829 38.3179 30.438 46.1788C27.4337 53.0246 27.6327 59.1634 27.9123 62.0716C26.0547 66.2227 23.8892 72.3995 23.221 80.1324C22.2117 91.874 25.1828 101.182 27.1873 106.135C25.5809 111.254 19.0179 133.94 30.6417 148.761C37.4416 157.433 50.7524 161.019 77.3787 168.192C78.1464 168.401 79.8096 168.828 82.0226 168.975C82.0226 168.975 86.2873 169.255 90.8601 167.893C132.152 155.587 137.038 135.747 137.038 135.747Z" fill="url(#paint30_radial_4373_2217)"/>
<path d="M62.4788 87.1252C66.8099 90.6074 71.0984 92.5382 74.2022 93.6246C74.3207 91.8788 74.4439 90.133 74.5623 88.3871C71.994 87.889 67.7529 86.722 63.3792 83.6905C57.6976 79.7576 54.8544 74.8048 53.6366 72.3141C52.5562 71.7733 51.471 71.2325 50.3906 70.6869C51.8643 74.3636 55.2477 81.3137 62.4788 87.1252Z" fill="url(#paint31_radial_4373_2217)"/>
<path d="M81.9785 47.5593C85.2624 46.8951 89.8351 45.5905 94.787 42.8626C99.0944 40.4906 102.307 37.8054 104.53 35.6374C103.686 35.4571 102.847 35.2768 102.004 35.0966C100.123 36.5625 97.7249 38.1707 94.787 39.6129C90.0721 41.9233 85.722 42.9386 82.5235 43.4035C82.3386 44.7888 82.1586 46.174 81.9785 47.5593Z" fill="url(#paint32_radial_4373_2217)"/>
<path d="M77.5391 104.768C77.7807 108.141 78.0224 111.51 78.2593 114.883C82.7326 113.431 89.5278 110.632 96.4793 105.129C103.872 99.2795 108.297 92.8655 110.728 88.6954C109.468 88.9943 108.203 89.2979 106.942 89.5968C103.905 93.0031 98.1994 98.4351 89.4472 101.875C84.9313 103.654 80.7992 104.432 77.5391 104.768Z" fill="url(#paint33_radial_4373_2217)"/>
<path d="M77.2355 74.4774C77.0554 76.0429 76.8754 77.6085 76.6953 79.174C80.0976 78.1777 84.0544 76.7023 88.2386 74.4774C96.4506 70.1128 102.146 64.6665 105.734 60.5724C104.71 60.8713 103.691 61.1749 102.668 61.4738C98.9479 64.5479 93.8017 68.1297 87.1534 71.0426C83.5853 72.6129 80.2256 73.7088 77.2355 74.4774Z" fill="url(#paint34_radial_4373_2217)"/>
<path d="M111.999 121.33C109.525 125.42 104.441 132.536 95.4563 137.915C90.4144 140.937 85.6426 142.513 82.0176 143.381C82.3445 146.73 82.6668 150.084 82.9937 153.433C87.576 151.308 93.5277 147.935 99.5315 142.622C108.483 134.694 113.444 126.065 116.069 120.509C114.709 120.785 113.354 121.06 111.999 121.33Z" fill="url(#paint35_radial_4373_2217)"/>
<path d="M66.0149 52.5739C69.9527 57.114 74.6297 58.9215 76.8379 59.6189C77.198 58.2953 77.5582 56.9717 77.9183 55.6481C76.0371 55.2069 71.9903 53.9829 68.3605 50.4106C63.3707 45.5052 62.5747 39.5182 62.4088 37.7676C61.6885 37.1651 60.9635 36.5626 60.2432 35.9601C60.1769 37.9241 60.1532 45.8231 66.0149 52.5739Z" fill="url(#paint36_radial_4373_2217)"/>
<path d="M78.1976 137.204C77.7143 133.47 77.2357 129.741 76.7523 126.008C73.5111 124.85 69.6207 123.1 65.5692 120.41C57.5514 115.087 52.718 108.616 50.0549 104.337C48.9129 104.275 47.7709 104.218 46.6289 104.156C49.6711 110.091 54.8078 118.322 63.2236 126.188C68.5355 131.15 73.7954 134.694 78.1976 137.204Z" fill="url(#paint37_radial_4373_2217)"/>
<path d="M79.4066 154.563C74.5495 152.513 68.9911 149.724 63.1721 145.895C53.7422 139.685 46.8475 132.863 42.0663 127.293C40.9859 127.232 39.9007 127.175 38.8203 127.113C42.6302 133.565 49.1789 142.821 59.7461 151.313C67.1904 157.295 74.4358 161.128 80.1269 163.591C79.8852 160.583 79.6435 157.57 79.4066 154.563Z" fill="url(#paint38_radial_4373_2217)"/>
<path d="M83.4903 142.873C82.898 137.322 82.2346 133.295 82.0213 131.596C79.1308 108.251 77.6902 96.5801 78.0551 83.9229C78.2067 78.6617 78.8844 63.0109 83.6467 43.2896C86.106 33.0993 89.0108 24.5125 91.5839 17.8281L89.4183 17.2872C86.85 22.871 83.7604 30.3193 80.9409 39.3188C73.9894 61.507 72.999 79.3306 72.8237 83.0215C72.7099 85.3508 72.672 87.3054 72.7005 89.2315C72.9421 105.314 74.1979 113.773 76.2497 132.502C77.1785 140.98 78.5574 153.509 78.4958 167.277C78.4247 182.581 76.6003 193.697 75.9464 198.237C73.615 214.433 72.6957 240.934 78.946 286.112C81.2726 291.757 87.5797 294.466 92.8254 292.497C97.4408 290.766 100.374 285.737 99.5779 280.48C89.2951 261.542 85.6179 245.388 84.1964 233.912C82.7226 222.009 83.2723 204.575 84.3669 169.706C84.4854 165.896 84.8882 156.005 83.4903 142.873Z" fill="url(#paint39_radial_4373_2217)"/>
<path d="M72.7052 94.9292C72.6721 96.9881 78.2636 100.437 83.116 98.3022C86.7457 96.7035 89.0203 92.3958 87.9399 90.7828C86.0397 87.9506 72.7526 91.7744 72.7052 94.9292Z" fill="white"/>
<path d="M65.285 89.6206C62.3613 87.666 58.414 88.4582 56.4617 91.3854C54.5141 94.3125 55.3007 98.2643 58.2245 100.219C61.1482 102.169 65.0955 101.381 67.0478 98.4541C69.0001 95.527 68.2087 91.5704 65.285 89.6206ZM66.0716 97.7994C64.4795 100.186 61.2572 100.831 58.8737 99.2368L64.6311 90.5931C67.0194 92.1871 67.6638 95.4131 66.0716 97.7994Z" fill="white"/>
<path d="M101.787 82.3242C98.8632 80.3696 94.916 81.1619 92.9637 84.089C91.0161 87.0161 91.8027 90.9679 94.7264 92.9225C97.6502 94.8723 101.597 94.0848 103.55 91.1577C105.497 88.2306 104.711 84.274 101.787 82.3242ZM102.574 90.5077C100.981 92.894 97.7591 93.5392 95.3756 91.9452L101.133 83.3014C103.521 84.8907 104.161 88.1167 102.574 90.5077Z" fill="white"/>
<path d="M92.432 294.623C92.7731 293.669 92.3656 292.516 91.6311 292.336C91.1904 292.227 90.655 292.137 90.0437 292.118C88.9112 292.08 87.9919 292.293 87.3853 292.497C86.9352 292.649 86.6935 293.361 86.8973 293.958C87.0631 294.438 87.2669 294.921 87.3711 295.401C87.5038 295.998 87.7929 296.506 88.2004 296.705C88.4942 296.852 88.9159 296.966 89.5224 296.995C89.9631 297.014 90.328 296.98 90.6313 296.919C91.3658 296.767 91.9865 296.051 92.2803 295.064C92.3277 294.921 92.3798 294.774 92.432 294.623Z" fill="url(#paint40_radial_4373_2217)"/>
<defs>
<radialGradient id="paint0_radial_4373_2217" cx="0" cy="0" r="1" gradientUnits="userSpaceOnUse" gradientTransform="translate(129.089 149.26) rotate(-166.588) scale(46.445 71.2536)">
<stop stop-color="#659D4E"/>
<stop offset="0.4873" stop-color="#618D55"/>
<stop offset="1" stop-color="#5C775E"/>
</radialGradient>
<radialGradient id="paint1_radial_4373_2217" cx="0" cy="0" r="1" gradientUnits="userSpaceOnUse" gradientTransform="translate(127.078 213.934) rotate(-80.2727) scale(21.3652 37.331)">
<stop stop-color="#BBDB4C"/>
<stop offset="0.2627" stop-color="#B6D75C"/>
<stop offset="0.7757" stop-color="#ABCB86"/>
<stop offset="1" stop-color="#A5C69B"/>
</radialGradient>
<radialGradient id="paint2_radial_4373_2217" cx="0" cy="0" r="1" gradientUnits="userSpaceOnUse" gradientTransform="translate(100.746 198.192) rotate(-54.4521) scale(21.3579 37.3468)">
<stop stop-color="#BBDB4C"/>
<stop offset="0.2627" stop-color="#B6D75C"/>
<stop offset="0.7757" stop-color="#ABCB86"/>
<stop offset="1" stop-color="#A5C69B"/>
</radialGradient>
<radialGradient id="paint3_radial_4373_2217" cx="0" cy="0" r="1" gradientUnits="userSpaceOnUse" gradientTransform="translate(114.252 196.257) rotate(-50.0228) scale(21.3561 37.3507)">
<stop stop-color="#BBDB4C"/>
<stop offset="0.2627" stop-color="#B6D75C"/>
<stop offset="0.7757" stop-color="#ABCB86"/>
<stop offset="1" stop-color="#A5C69B"/>
</radialGradient>
<radialGradient id="paint4_radial_4373_2217" cx="0" cy="0" r="1" gradientUnits="userSpaceOnUse" gradientTransform="translate(113.382 200.398) rotate(-61.3329) scale(21.3636 37.3392)">
<stop stop-color="#BBDB4C"/>
<stop offset="0.2627" stop-color="#B6D75C"/>
<stop offset="0.7757" stop-color="#ABCB86"/>
<stop offset="1" stop-color="#A5C69B"/>
</radialGradient>
<radialGradient id="paint5_radial_4373_2217" cx="0" cy="0" r="1" gradientUnits="userSpaceOnUse" gradientTransform="translate(98.91 278.271) rotate(-84.739) scale(65.0554 86.5158)">
<stop stop-color="#BBDB4C"/>
<stop offset="0.2627" stop-color="#B6D75C"/>
<stop offset="0.7757" stop-color="#ABCB86"/>
<stop offset="1" stop-color="#A5C69B"/>
</radialGradient>
<radialGradient id="paint6_radial_4373_2217" cx="0" cy="0" r="1" gradientUnits="userSpaceOnUse" gradientTransform="translate(119.229 206.608) rotate(-58.6084) scale(21.361 37.3441)">
<stop stop-color="#BBDB4C"/>
<stop offset="0.2627" stop-color="#B6D75C"/>
<stop offset="0.7757" stop-color="#ABCB86"/>
<stop offset="1" stop-color="#A5C69B"/>
</radialGradient>
<radialGradient id="paint7_radial_4373_2217" cx="0" cy="0" r="1" gradientUnits="userSpaceOnUse" gradientTransform="translate(133.629 215.701) rotate(-81.4772) scale(21.365 37.3299)">
<stop stop-color="#BBDB4C"/>
<stop offset="0.2627" stop-color="#B6D75C"/>
<stop offset="0.7757" stop-color="#ABCB86"/>
<stop offset="1" stop-color="#A5C69B"/>
</radialGradient>
<radialGradient id="paint8_radial_4373_2217" cx="0" cy="0" r="1" gradientUnits="userSpaceOnUse" gradientTransform="translate(117.168 208.965) rotate(-69.9599) scale(21.3661 37.337)">
<stop stop-color="#BBDB4C"/>
<stop offset="0.2627" stop-color="#B6D75C"/>
<stop offset="0.7757" stop-color="#ABCB86"/>
<stop offset="1" stop-color="#A5C69B"/>
</radialGradient>
<radialGradient id="paint9_radial_4373_2217" cx="0" cy="0" r="1" gradientUnits="userSpaceOnUse" gradientTransform="translate(117.542 208.965) rotate(-69.9599) scale(21.366 37.337)">
<stop stop-color="#BBDB4C"/>
<stop offset="0.2627" stop-color="#B6D75C"/>
<stop offset="0.7757" stop-color="#ABCB86"/>
<stop offset="1" stop-color="#A5C69B"/>
</radialGradient>
<radialGradient id="paint10_radial_4373_2217" cx="0" cy="0" r="1" gradientUnits="userSpaceOnUse" gradientTransform="translate(101.323 118.93) rotate(-178.42) scale(55.3316 84.8986)">
<stop stop-color="#5EAF3D"/>
<stop offset="0.4873" stop-color="#5B9F49"/>
<stop offset="1" stop-color="#568959"/>
</radialGradient>
<radialGradient id="paint11_radial_4373_2217" cx="0" cy="0" r="1" gradientUnits="userSpaceOnUse" gradientTransform="translate(96.0761 180.214) rotate(-63.7966) scale(25.4502 44.4833)">
<stop stop-color="#D6ED68"/>
<stop offset="0.3566" stop-color="#C6E26B"/>
<stop offset="1" stop-color="#9FC972"/>
</radialGradient>
<radialGradient id="paint12_radial_4373_2217" cx="0" cy="0" r="1" gradientUnits="userSpaceOnUse" gradientTransform="translate(100.839 191.819) rotate(-81.7665) scale(25.4562 44.4753)">
<stop stop-color="#D6ED68"/>
<stop offset="0.3566" stop-color="#C6E26B"/>
<stop offset="1" stop-color="#9FC972"/>
</radialGradient>
<radialGradient id="paint13_radial_4373_2217" cx="0" cy="0" r="1" gradientUnits="userSpaceOnUse" gradientTransform="translate(104.016 182.855) rotate(-70.4264) scale(25.4534 44.4804)">
<stop stop-color="#D6ED68"/>
<stop offset="0.3566" stop-color="#C6E26B"/>
<stop offset="1" stop-color="#9FC972"/>
</radialGradient>
<radialGradient id="paint14_radial_4373_2217" cx="0" cy="0" r="1" gradientUnits="userSpaceOnUse" gradientTransform="translate(101.964 189.565) rotate(-81.7665) scale(25.4562 44.4753)">
<stop stop-color="#D6ED68"/>
<stop offset="0.3566" stop-color="#C6E26B"/>
<stop offset="1" stop-color="#9FC972"/>
</radialGradient>
<radialGradient id="paint15_radial_4373_2217" cx="0" cy="0" r="1" gradientUnits="userSpaceOnUse" gradientTransform="translate(100.465 197.828) rotate(-81.7665) scale(25.4562 44.4753)">
<stop stop-color="#D6ED68"/>
<stop offset="0.3566" stop-color="#C6E26B"/>
<stop offset="1" stop-color="#9FC972"/>
</radialGradient>
<radialGradient id="paint16_radial_4373_2217" cx="0" cy="0" r="1" gradientUnits="userSpaceOnUse" gradientTransform="translate(92.1356 188.244) rotate(-72.9954) scale(25.4551 44.4771)">
<stop stop-color="#D6ED68"/>
<stop offset="0.3566" stop-color="#C6E26B"/>
<stop offset="1" stop-color="#9FC972"/>
</radialGradient>
<radialGradient id="paint17_radial_4373_2217" cx="0" cy="0" r="1" gradientUnits="userSpaceOnUse" gradientTransform="translate(107.216 183.556) rotate(-81.7665) scale(25.4562 44.4753)">
<stop stop-color="#D6ED68"/>
<stop offset="0.3566" stop-color="#C6E26B"/>
<stop offset="1" stop-color="#9FC972"/>
</radialGradient>
<radialGradient id="paint18_radial_4373_2217" cx="0" cy="0" r="1" gradientUnits="userSpaceOnUse" gradientTransform="translate(97.5959 276.788) rotate(-96.544) scale(77.5056 103.071)">
<stop stop-color="#D6ED68"/>
<stop offset="0.3566" stop-color="#C6E26B"/>
<stop offset="1" stop-color="#9FC972"/>
</radialGradient>
<radialGradient id="paint19_radial_4373_2217" cx="0" cy="0" r="1" gradientUnits="userSpaceOnUse" gradientTransform="translate(103.466 198.955) rotate(-81.7665) scale(25.4562 44.4753)">
<stop stop-color="#D6ED68"/>
<stop offset="0.3566" stop-color="#C6E26B"/>
<stop offset="1" stop-color="#9FC972"/>
</radialGradient>
<radialGradient id="paint20_radial_4373_2217" cx="0" cy="0" r="1" gradientUnits="userSpaceOnUse" gradientTransform="translate(47.6244 126.787) rotate(-12.4633) scale(54.266 83.2513)">
<stop stop-color="#659D4E"/>
<stop offset="0.4873" stop-color="#618D55"/>
<stop offset="1" stop-color="#5C775E"/>
</radialGradient>
<radialGradient id="paint21_radial_4373_2217" cx="0" cy="0" r="1" gradientUnits="userSpaceOnUse" gradientTransform="translate(44.2229 193.918) rotate(-96.1832) scale(24.9661 43.6132)">
<stop stop-color="#BBCE63"/>
<stop offset="0.3512" stop-color="#B5CC73"/>
<stop offset="1" stop-color="#A5C69B"/>
</radialGradient>
<radialGradient id="paint22_radial_4373_2217" cx="0" cy="0" r="1" gradientUnits="userSpaceOnUse" gradientTransform="translate(55.9835 203.302) rotate(-109.096) scale(24.9598 43.6189)">
<stop stop-color="#BBCE63"/>
<stop offset="0.3512" stop-color="#B5CC73"/>
<stop offset="1" stop-color="#A5C69B"/>
</radialGradient>
<radialGradient id="paint23_radial_4373_2217" cx="0" cy="0" r="1" gradientUnits="userSpaceOnUse" gradientTransform="translate(56.7339 199.17) rotate(-109.096) scale(24.9598 43.6189)">
<stop stop-color="#BBCE63"/>
<stop offset="0.3512" stop-color="#B5CC73"/>
<stop offset="1" stop-color="#A5C69B"/>
</radialGradient>
<radialGradient id="paint24_radial_4373_2217" cx="0" cy="0" r="1" gradientUnits="userSpaceOnUse" gradientTransform="translate(69.961 202.592) rotate(-119.696) scale(24.9548 43.6286)">
<stop stop-color="#BBCE63"/>
<stop offset="0.3512" stop-color="#B5CC73"/>
<stop offset="1" stop-color="#A5C69B"/>
</radialGradient>
<radialGradient id="paint25_radial_4373_2217" cx="0" cy="0" r="1" gradientUnits="userSpaceOnUse" gradientTransform="translate(60.3454 200.813) rotate(-120.437) scale(24.9558 43.6268)">
<stop stop-color="#BBCE63"/>
<stop offset="0.3512" stop-color="#B5CC73"/>
<stop offset="1" stop-color="#A5C69B"/>
</radialGradient>
<radialGradient id="paint26_radial_4373_2217" cx="0" cy="0" r="1" gradientUnits="userSpaceOnUse" gradientTransform="translate(46.3466 196.55) rotate(-100.973) scale(24.9608 43.6157)">
<stop stop-color="#BBCE63"/>
<stop offset="0.3512" stop-color="#B5CC73"/>
<stop offset="1" stop-color="#A5C69B"/>
</radialGradient>
<radialGradient id="paint27_radial_4373_2217" cx="0" cy="0" r="1" gradientUnits="userSpaceOnUse" gradientTransform="translate(57.8597 184.899) rotate(-109.096) scale(24.9598 43.6189)">
<stop stop-color="#BBCE63"/>
<stop offset="0.3512" stop-color="#B5CC73"/>
<stop offset="1" stop-color="#A5C69B"/>
</radialGradient>
<radialGradient id="paint28_radial_4373_2217" cx="0" cy="0" r="1" gradientUnits="userSpaceOnUse" gradientTransform="translate(58.6104 191.284) rotate(-109.096) scale(24.9598 43.6189)">
<stop stop-color="#BBCE63"/>
<stop offset="0.3512" stop-color="#B5CC73"/>
<stop offset="1" stop-color="#A5C69B"/>
</radialGradient>
<radialGradient id="paint29_radial_4373_2217" cx="0" cy="0" r="1" gradientUnits="userSpaceOnUse" gradientTransform="translate(80.363 278.032) rotate(-94.3133) scale(76.0086 101.076)">
<stop stop-color="#BBCE63"/>
<stop offset="0.3512" stop-color="#B5CC73"/>
<stop offset="1" stop-color="#A5C69B"/>
</radialGradient>
<radialGradient id="paint30_radial_4373_2217" cx="0" cy="0" r="1" gradientUnits="userSpaceOnUse" gradientTransform="translate(80.4488 84.4745) scale(65.8559 101.046)">
<stop stop-color="#6EAB6F"/>
<stop offset="0.4225" stop-color="#62A05F"/>
<stop offset="1" stop-color="#4E8C42"/>
</radialGradient>
<radialGradient id="paint31_radial_4373_2217" cx="0" cy="0" r="1" gradientUnits="userSpaceOnUse" gradientTransform="translate(77.6838 176.805) rotate(-96.6626) scale(30.2986 52.9378)">
<stop stop-color="#DAFF7C"/>
<stop offset="0.3057" stop-color="#CAF675"/>
<stop offset="0.9031" stop-color="#9FDF61"/>
<stop offset="1" stop-color="#98DB5E"/>
</radialGradient>
<radialGradient id="paint32_radial_4373_2217" cx="0" cy="0" r="1" gradientUnits="userSpaceOnUse" gradientTransform="translate(73.5582 162.16) rotate(-96.6626) scale(30.2986 52.9378)">
<stop stop-color="#DAFF7C"/>
<stop offset="0.3057" stop-color="#CAF675"/>
<stop offset="0.9031" stop-color="#9FDF61"/>
<stop offset="1" stop-color="#98DB5E"/>
</radialGradient>
<radialGradient id="paint33_radial_4373_2217" cx="0" cy="0" r="1" gradientUnits="userSpaceOnUse" gradientTransform="translate(70.558 156.528) rotate(-96.6626) scale(30.2986 52.9378)">
<stop stop-color="#DAFF7C"/>
<stop offset="0.3057" stop-color="#CAF675"/>
<stop offset="0.9031" stop-color="#9FDF61"/>
<stop offset="1" stop-color="#98DB5E"/>
</radialGradient>
<radialGradient id="paint34_radial_4373_2217" cx="0" cy="0" r="1" gradientUnits="userSpaceOnUse" gradientTransform="translate(72.0582 162.536) rotate(-96.6626) scale(30.2986 52.9378)">
<stop stop-color="#DAFF7C"/>
<stop offset="0.3057" stop-color="#CAF675"/>
<stop offset="0.9031" stop-color="#9FDF61"/>
<stop offset="1" stop-color="#98DB5E"/>
</radialGradient>
<radialGradient id="paint35_radial_4373_2217" cx="0" cy="0" r="1" gradientUnits="userSpaceOnUse" gradientTransform="translate(76.721 169.06) rotate(-108.001) scale(30.2991 52.9446)">
<stop stop-color="#DAFF7C"/>
<stop offset="0.3057" stop-color="#CAF675"/>
<stop offset="0.9031" stop-color="#9FDF61"/>
<stop offset="1" stop-color="#98DB5E"/>
</radialGradient>
<radialGradient id="paint36_radial_4373_2217" cx="0" cy="0" r="1" gradientUnits="userSpaceOnUse" gradientTransform="translate(75.8094 175.303) rotate(-96.6626) scale(30.2986 52.9378)">
<stop stop-color="#DAFF7C"/>
<stop offset="0.3057" stop-color="#CAF675"/>
<stop offset="0.9031" stop-color="#9FDF61"/>
<stop offset="1" stop-color="#98DB5E"/>
</radialGradient>
<radialGradient id="paint37_radial_4373_2217" cx="0" cy="0" r="1" gradientUnits="userSpaceOnUse" gradientTransform="translate(78.4347 178.307) rotate(-96.6626) scale(30.2986 52.9378)">
<stop stop-color="#DAFF7C"/>
<stop offset="0.3057" stop-color="#CAF675"/>
<stop offset="0.9031" stop-color="#9FDF61"/>
<stop offset="1" stop-color="#98DB5E"/>
</radialGradient>
<radialGradient id="paint38_radial_4373_2217" cx="0" cy="0" r="1" gradientUnits="userSpaceOnUse" gradientTransform="translate(76.9351 174.176) rotate(-96.6626) scale(30.2986 52.9378)">
<stop stop-color="#DAFF7C"/>
<stop offset="0.3057" stop-color="#CAF675"/>
<stop offset="0.9031" stop-color="#9FDF61"/>
<stop offset="1" stop-color="#98DB5E"/>
</radialGradient>
<radialGradient id="paint39_radial_4373_2217" cx="0" cy="0" r="1" gradientUnits="userSpaceOnUse" gradientTransform="translate(79.8001 272.34) rotate(-81.88) scale(92.2429 122.681)">
<stop stop-color="#DAFF7C"/>
<stop offset="0.3057" stop-color="#CAF675"/>
<stop offset="0.9031" stop-color="#9FDF61"/>
<stop offset="1" stop-color="#98DB5E"/>
</radialGradient>
<radialGradient id="paint40_radial_4373_2217" cx="0" cy="0" r="1" gradientUnits="userSpaceOnUse" gradientTransform="translate(89.8729 292.605) rotate(91.7743) scale(2.07883 8.03527)">
<stop stop-color="#D19C59"/>
<stop offset="1" stop-color="#AF755D"/>
</radialGradient>
</defs>
</svg>
