<svg width="410" height="627" viewBox="0 0 410 627" fill="none" xmlns="http://www.w3.org/2000/svg">
<path d="M218.769 372.435C219.965 349.706 239.228 334.032 245.941 329.058C246.559 323.646 248.507 313.495 255.68 303.4C259.776 297.637 264.304 293.674 267.826 291.092C268.33 285.763 269.831 277.518 274.6 268.741C277.25 263.862 280.246 260.056 282.862 257.219C285.221 248.536 290.014 235.071 300.346 221.451C307.946 211.432 320.434 194.967 333.758 196.635C342.179 197.696 341.906 204.853 357.901 216.01C371.79 225.698 377.11 223.876 384.98 231.235C390.82 236.699 397.498 246.691 398.681 266.528C401.434 269.861 407.682 278.364 409.208 291.04C410.534 302.07 407.605 310.729 405.95 314.736C406.806 321.44 407.229 331.163 404.842 342.45C401.219 359.592 392.971 371.545 387.979 377.725C388.057 385.694 387.624 420.802 364.68 436.874C351.257 446.28 330.749 445.629 289.741 444.347C288.551 444.305 286.003 444.201 282.792 443.456C282.792 443.456 276.598 442.009 270.674 438.103C217.172 402.764 218.769 372.435 218.769 372.435Z" fill="url(#paint0_radial_4852_2736)"/>
<path d="M328.107 319.47C321.397 324.29 314.867 326.82 310.167 328.19C310.127 325.59 310.087 322.99 310.047 320.39C313.907 319.86 320.297 318.46 327.037 314.31C335.797 308.92 340.407 301.8 342.417 298.2C344.067 297.48 345.717 296.76 347.367 296.05C344.887 301.37 339.307 311.42 328.107 319.47Z" fill="url(#paint1_radial_4852_2736)"/>
<path d="M313.816 262.589C310.016 259.359 304.996 254.369 300.506 247.269C296.596 241.089 294.346 235.279 293.006 230.859C294.236 231.229 295.456 231.599 296.686 231.969C298.086 235.229 300.056 239.049 302.846 243.039C307.326 249.439 312.266 253.889 316.096 256.799C315.336 258.719 314.576 260.649 313.816 262.589Z" fill="url(#paint2_radial_4852_2736)"/>
<path d="M304.507 343.629C301.457 347.619 298.397 351.609 295.347 355.599C290.967 350.139 284.817 341.099 280.667 328.589C276.257 315.279 275.987 303.689 276.377 296.529C277.697 297.939 279.027 299.339 280.347 300.749C281.337 307.459 283.997 318.869 292.067 330.309C296.227 336.199 300.727 340.539 304.507 343.629Z" fill="url(#paint3_radial_4852_2736)"/>
<path d="M311.406 298.269C310.786 300.529 310.156 302.779 309.536 305.039C305.396 301.769 300.766 297.529 296.226 292.129C287.326 281.529 282.506 270.849 279.836 263.199C281.076 264.189 282.316 265.169 283.566 266.159C286.986 272.469 292.086 280.279 299.626 288.009C303.686 292.159 307.716 295.539 311.406 298.269Z" fill="url(#paint4_radial_4852_2736)"/>
<path d="M291.963 405.69C295.2 398.051 297.885 392.604 298.917 390.282C313.095 358.321 320.184 342.34 325.121 324.175C327.172 316.625 332.956 294.064 334.679 263.963C335.571 248.408 335.135 234.937 334.356 224.311L337.672 224.472C338.927 233.524 340.109 245.447 340.251 259.471C340.582 294.035 334.301 319.822 332.967 325.141C332.122 328.506 331.342 331.304 330.466 334.026C323.186 356.798 317.751 368.29 306.753 394.052C301.769 405.712 294.404 422.939 288.558 442.551C282.057 464.358 279.87 480.956 278.841 487.696C275.17 511.738 265.059 549.837 236.674 611.413C230.929 618.439 220.772 619.567 214.156 614.507C208.335 610.047 206.32 601.63 209.717 594.493C232.53 571.991 244.735 550.599 251.698 534.892C258.926 518.599 265.662 493.56 279.145 443.474C280.608 438.012 284.305 423.77 291.963 405.69Z" fill="url(#paint5_radial_4852_2736)"/>
<path d="M263.49 360.226C265.247 367.114 269.42 379.429 279.901 390.964C285.781 397.431 291.892 401.739 296.681 404.543C294.778 409.167 292.865 413.8 290.962 418.423C285.353 413.425 278.326 406.056 272.079 395.9C262.747 380.758 259.403 366.34 258.057 357.302C259.861 358.273 261.675 359.254 263.49 360.226Z" fill="url(#paint6_radial_4852_2736)"/>
<path d="M332.667 272.87C326.587 279.42 319.547 281.89 316.227 282.81C315.757 280.83 315.287 278.84 314.807 276.86C317.627 276.3 323.707 274.67 329.277 269.54C336.937 262.49 338.407 253.64 338.747 251.05C339.847 250.19 340.947 249.33 342.057 248.47C342.057 251.39 341.707 263.12 332.667 272.87Z" fill="url(#paint7_radial_4852_2736)"/>
<path d="M267.842 380.209C269.286 374.806 270.729 369.403 272.183 364C277.19 362.93 283.269 361.119 289.784 357.957C302.659 351.699 311.068 343.119 315.831 337.34C317.523 337.481 319.225 337.61 320.918 337.75C315.259 345.891 306.062 357.014 292.1 366.94C283.284 373.189 274.833 377.381 267.842 380.209Z" fill="url(#paint8_radial_4852_2736)"/>
<path d="M294.283 419.175C302.087 418.355 311.198 416.793 321.144 413.849C337.252 409.084 350.012 402.354 359.223 396.5C360.792 396.885 362.362 397.261 363.922 397.646C355.712 405.173 342.392 415.517 323.683 423.04C310.499 428.332 298.526 430.663 289.356 431.71C291.002 427.532 292.637 423.353 294.283 419.175Z" fill="url(#paint9_radial_4852_2736)"/>
<path d="M188.032 328.394C186.592 301.321 207.465 280.332 214.791 273.601C214.855 267.107 215.879 254.842 223.119 241.978C227.252 234.637 232.121 229.37 235.963 225.872C235.896 219.499 236.634 209.548 241.19 198.547C243.725 192.435 246.791 187.544 249.537 183.867C251.239 173.283 255.238 156.741 265.767 139.295C273.518 126.474 286.249 105.395 302.246 105.709C312.356 105.905 312.934 114.429 333.277 125.642C350.941 135.386 357.026 132.547 367.267 140.282C374.874 146.019 384.045 157.025 387.925 180.372C391.604 183.979 400.071 193.27 403.465 208.088C406.421 220.99 404.033 231.614 402.578 236.575C404.432 244.415 406.153 255.88 404.739 269.55C402.595 290.316 394.316 305.513 389.183 313.462C390.271 322.899 394.162 364.545 368.995 386.457C354.275 399.279 329.898 401.086 281.144 404.702C279.738 404.808 276.698 405.002 272.795 404.518C272.795 404.518 265.276 403.589 257.765 399.691C189.942 364.53 188.032 328.394 188.032 328.394Z" fill="url(#paint10_radial_4852_2736)"/>
<path d="M251.746 289.69C249.346 295.17 246.946 300.65 244.546 306.14C237.936 301.06 228.246 292.35 219.896 279.05C211.016 264.9 207.426 251.57 205.836 243.17C207.766 244.42 209.696 245.67 211.626 246.93C214.676 254.41 220.986 266.87 233.576 277.81C240.056 283.44 246.496 287.19 251.746 289.69Z" fill="url(#paint11_radial_4852_2736)"/>
<path d="M245.166 331.83C246.196 325.25 247.236 318.66 248.266 312.08C254.066 310.19 261.046 307.28 268.356 302.72C282.826 293.69 291.716 282.47 296.636 275.03C298.666 274.98 300.696 274.93 302.716 274.88C297.036 285.23 287.526 299.56 272.226 313.07C262.586 321.58 253.096 327.6 245.166 331.83Z" fill="url(#paint12_radial_4852_2736)"/>
<path d="M189.186 299.17C193.366 306.53 202.036 319.38 217.696 329.34C226.486 334.93 234.866 337.96 241.246 339.67C240.506 345.59 239.766 351.5 239.026 357.42C231.006 353.43 220.626 347.17 210.246 337.47C194.766 323 186.396 307.48 182.016 297.52C184.406 298.08 186.796 298.63 189.186 299.17Z" fill="url(#paint13_radial_4852_2736)"/>
<path d="M283.242 370.506C292.383 368.559 302.992 365.564 314.4 360.835C332.89 353.176 347.163 343.604 357.337 335.503C359.24 335.762 361.144 336.011 363.047 336.271C354.265 346.219 339.781 360.143 318.558 371.39C303.6 379.32 289.716 383.575 278.984 385.962C280.399 380.813 281.816 375.653 283.242 370.506Z" fill="url(#paint14_radial_4852_2736)"/>
<path d="M273.277 259.23C265.427 265.18 257.737 268.39 252.177 270.17C252.047 267.07 251.917 263.98 251.797 260.88C256.377 260.13 263.947 258.259 271.847 253.109C282.107 246.419 287.387 237.799 289.667 233.449C291.607 232.539 293.557 231.639 295.497 230.729C292.717 237.149 286.377 249.29 273.277 259.23Z" fill="url(#paint15_radial_4852_2736)"/>
<path d="M246.456 194.659C240.946 192.449 233.376 188.719 225.616 182.399C218.856 176.899 214.116 171.189 210.926 166.709C212.456 166.659 213.976 166.619 215.506 166.569C218.326 169.719 221.996 173.289 226.656 176.729C234.146 182.259 241.406 185.409 246.846 187.249C246.706 189.719 246.576 192.189 246.456 194.659Z" fill="url(#paint16_radial_4852_2736)"/>
<path d="M251.326 231.03C251.566 233.81 251.816 236.59 252.056 239.37C246.076 237.44 239.136 234.64 231.826 230.49C217.486 222.36 207.656 212.44 201.496 205.02C203.296 205.6 205.086 206.19 206.886 206.77C213.326 212.4 222.276 218.99 233.916 224.47C240.156 227.42 246.056 229.51 251.326 231.03Z" fill="url(#paint17_radial_4852_2736)"/>
<path d="M278.906 358.614C281.783 349.154 284.276 342.366 285.211 339.489C298.004 299.849 304.403 280.019 307.974 257.886C309.462 248.685 313.483 221.235 311.745 185.349C310.852 166.805 308.649 150.895 306.394 138.42L310.34 138.201C312.957 148.769 315.859 162.747 317.777 179.35C322.507 220.261 318.299 251.592 317.377 258.068C316.793 262.158 316.217 265.569 315.531 268.913C309.765 296.809 304.764 311.101 294.953 342.999C290.517 357.434 283.945 378.765 279.476 402.739C274.511 429.387 273.992 449.323 273.623 457.439C272.297 486.382 265.079 532.785 239.172 609.297C233.242 618.342 221.36 620.947 212.88 615.778C205.423 611.231 201.98 601.512 205.117 592.63C229.324 563.105 241.103 536.238 247.384 516.754C253.906 496.54 258.75 466.031 268.439 405.005C269.513 398.341 272.102 381.002 278.906 358.614Z" fill="url(#paint18_radial_4852_2736)"/>
<path d="M271.637 202.839C264.437 210.679 256.057 213.659 252.107 214.779C251.537 212.419 250.957 210.059 250.387 207.689C253.737 206.999 260.977 205.029 267.587 198.889C276.677 190.449 278.367 179.889 278.757 176.799C280.067 175.769 281.377 174.739 282.677 173.709C282.687 177.189 282.347 191.169 271.637 202.839Z" fill="url(#paint19_radial_4852_2736)"/>
<path d="M223.557 331.488C222.151 304.937 199.639 286.632 191.797 280.821C191.066 274.499 188.792 262.639 180.406 250.852C175.622 244.121 170.329 239.497 166.213 236.476C165.62 230.253 163.871 220.619 158.292 210.37C155.192 204.672 151.688 200.22 148.633 196.916C145.871 186.769 140.269 171.045 128.193 155.131C119.311 143.422 104.712 124.193 89.1466 126.151C79.3125 127.385 79.6204 135.756 60.9524 148.798C44.7293 160.126 38.5057 157.99 29.3133 166.596C22.4964 172.982 14.6855 184.661 13.3124 207.836C10.1042 211.736 2.80007 221.67 1.02862 236.471C-0.520009 249.359 2.91118 259.464 4.83977 264.159C3.84271 272 3.34853 283.352 6.1457 296.535C10.3857 316.557 20.0239 330.524 25.8594 337.745C25.7689 347.06 26.29 388.072 53.101 406.846C68.7865 417.827 92.7491 417.063 140.665 415.545C142.046 415.499 145.035 415.377 148.789 414.505C148.789 414.505 156.021 412.821 162.947 408.242C225.431 366.919 223.557 331.488 223.557 331.488Z" fill="url(#paint20_radial_4852_2736)"/>
<path d="M70.0362 263.277C77.966 268.791 85.6373 271.616 91.1511 273.135C91.1463 270.096 91.1514 267.057 91.1466 264.018C86.6304 263.465 79.1308 261.95 71.1823 257.23C60.8577 251.1 55.3345 242.862 52.9246 238.686C50.986 237.873 49.0382 237.071 47.0996 236.259C50.0959 242.436 56.8053 254.072 70.0362 263.277Z" fill="url(#paint21_radial_4852_2736)"/>
<path d="M89.9076 239.642C95.0393 236.877 101.984 232.397 108.852 225.375C114.817 219.266 118.808 213.169 121.412 208.454C119.917 208.58 118.432 208.705 116.937 208.831C114.542 212.216 111.373 216.103 107.21 219.976C100.531 226.201 93.8097 230.072 88.71 232.473C89.1156 234.859 89.5112 237.245 89.9076 239.642Z" fill="url(#paint22_radial_4852_2736)"/>
<path d="M120.107 336.005C122.207 341.489 124.307 346.963 126.407 352.447C133.116 347.775 143.01 339.686 151.799 327.039C161.147 313.586 165.283 300.688 167.219 292.534C165.27 293.668 163.323 294.812 161.375 295.946C158.04 303.135 151.29 315.043 138.456 325.185C131.851 330.421 125.362 333.792 120.107 336.005Z" fill="url(#paint23_radial_4852_2736)"/>
<path d="M125.836 282.729C126.616 285.349 127.386 287.979 128.166 290.599C132.936 286.689 138.256 281.639 143.446 275.239C153.616 262.669 159.026 250.099 161.976 241.109C160.546 242.289 159.116 243.459 157.686 244.639C153.826 252.089 148.026 261.309 139.376 270.499C134.726 275.419 130.096 279.459 125.836 282.729Z" fill="url(#paint24_radial_4852_2736)"/>
<path d="M176.861 331.144C174.807 339.197 169.933 353.577 157.699 367.063C150.833 374.626 143.691 379.663 138.096 382.925C140.331 388.328 142.555 393.733 144.79 399.146C151.348 393.302 159.547 384.693 166.852 372.832C177.747 355.138 181.658 338.295 183.216 327.733C181.097 328.86 178.978 329.997 176.861 331.144Z" fill="url(#paint25_radial_4852_2736)"/>
<path d="M62.8529 213.543C70.8187 220.298 79.3385 222.165 83.3171 222.769C83.5849 220.402 83.8527 218.034 84.1305 215.665C80.7803 215.403 73.4989 214.373 66.3178 209.203C56.4398 202.105 53.5025 192.032 52.7522 189.081C51.3528 188.236 49.9534 187.392 48.5547 186.558C48.957 189.937 51.0013 203.499 62.8529 213.543Z" fill="url(#paint26_radial_4852_2736)"/>
<path d="M113.515 327.178C110.836 321.217 108.148 315.257 105.469 309.296C99.4886 309.008 92.1337 308.063 84.0423 305.641C68.0237 300.845 56.7077 292.535 50.1322 286.766C48.2035 287.246 46.2741 287.717 44.3355 288.198C52.3927 296.52 65.0879 307.612 83.0531 316.43C94.3867 321.991 104.929 325.236 113.515 327.178Z" fill="url(#paint27_radial_4852_2736)"/>
<path d="M131.471 374.824C122.36 373.875 111.697 372.043 100.087 368.61C81.2613 363.059 66.3592 355.197 55.5985 348.358C53.7672 348.801 51.9367 349.254 50.1055 349.696C59.7038 358.491 75.2642 370.574 97.1179 379.352C112.522 385.54 126.503 388.248 137.22 389.473C135.307 384.586 133.393 379.7 131.471 374.824Z" fill="url(#paint28_radial_4852_2736)"/>
<path d="M138.055 370.362C134.274 361.437 131.133 355.081 129.929 352.356C113.354 315.015 105.057 296.35 99.2896 275.133C96.8907 266.312 90.1237 239.956 88.0998 204.787C87.0522 186.614 87.5568 170.868 88.4607 158.461L84.5838 158.651C83.1274 169.235 81.7397 183.164 81.5852 199.545C81.2054 239.935 88.5544 270.047 90.1204 276.275C91.1075 280.21 92.0229 283.479 93.0409 286.65C101.553 313.262 107.909 326.681 120.773 356.767C126.593 370.387 135.204 390.512 142.044 413.422C149.645 438.891 152.212 458.29 153.414 466.161C157.708 494.253 169.542 538.752 202.72 610.683C209.435 618.889 221.302 620.205 229.028 614.291C235.835 609.079 238.173 599.249 234.206 590.911C207.545 564.622 193.282 539.64 185.139 521.284C176.693 502.25 168.808 472.992 153.04 414.486C151.322 408.119 147.004 391.483 138.055 370.362Z" fill="url(#paint29_radial_4852_2736)"/>
<path d="M357.449 300.745C369.001 270.614 353.07 239.199 347.243 228.887C349.554 221.517 352.888 207.24 349.414 190.027C347.425 180.205 343.838 172.451 340.77 167.079C343.19 159.883 346.002 148.343 344.873 134.214C344.251 126.367 342.563 119.706 340.811 114.529C342.758 101.923 344.303 81.7191 338.765 58.1111C334.695 40.7432 327.998 12.2137 309.77 6.703C298.253 3.21932 294.465 12.6527 267.326 17.9009C243.75 22.4552 237.899 17.0184 223.468 22.0191C212.756 25.7305 198.337 34.8343 185.369 59.8404C179.887 62.5824 166.879 69.9879 157.612 85.5296C149.533 99.063 148.347 111.955 148.173 118.111C143.199 126.308 137.051 138.662 133.633 154.661C128.453 178.957 132.244 199.202 135.148 210.086C130.447 220.373 110.78 266.109 131.25 300.147C143.225 320.064 170.162 331.046 224.046 353.011C225.599 353.648 228.971 354.976 233.566 355.862C233.566 355.862 242.424 357.563 252.355 355.91C342.037 340.966 357.449 300.745 357.449 300.745Z" fill="url(#paint30_radial_4852_2736)"/>
<path d="M214.019 179.552C222.179 187.968 230.655 193.128 236.871 196.212C237.575 192.591 238.289 188.972 238.993 185.351C233.745 183.638 225.168 180.088 216.801 172.603C205.93 162.892 201.27 151.789 199.37 146.261C197.249 144.847 195.118 143.432 192.998 142.009C195.124 150.084 200.394 165.506 214.019 179.552Z" fill="url(#paint31_radial_4852_2736)"/>
<path d="M265.183 101.893C272.233 101.362 282.149 99.8289 293.231 95.4178C302.871 91.5825 310.3 86.806 315.52 82.8523C313.8 82.2547 312.091 81.6583 310.372 81.0607C306.05 83.6351 300.609 86.3721 294.08 88.6206C283.603 92.2204 274.229 93.2066 267.409 93.3428C266.661 96.192 265.922 99.0424 265.183 101.893Z" fill="url(#paint32_radial_4852_2736)"/>
<path d="M240.945 220.392C240.57 227.511 240.197 234.619 239.812 241.736C249.559 239.87 264.519 235.792 280.513 226.098C297.521 215.796 308.464 203.537 314.643 195.451C311.925 195.746 309.197 196.05 306.479 196.346C299.229 202.677 285.863 212.547 266.637 217.453C256.716 219.993 247.86 220.54 240.945 220.392Z" fill="url(#paint33_radial_4852_2736)"/>
<path d="M248.221 156.955C247.435 160.182 246.649 163.41 245.863 166.637C253.248 165.443 261.919 163.392 271.262 159.832C289.598 152.85 302.948 142.947 311.529 135.321C309.307 135.679 307.094 136.048 304.873 136.405C296.281 141.863 284.569 148.009 269.886 152.364C262.004 154.715 254.683 156.129 248.221 156.955Z" fill="url(#paint34_radial_4852_2736)"/>
<path d="M308.781 264.043C302.533 271.95 290.028 285.505 269.809 294.409C258.462 299.412 248.058 301.459 240.24 302.327C240.05 309.418 239.849 316.518 239.659 323.609C249.81 320.361 263.154 314.862 277.114 305.318C297.928 291.077 310.571 274.324 317.519 263.391C314.6 263.611 311.69 263.832 308.781 264.043Z" fill="url(#paint35_radial_4852_2736)"/>
<path d="M230.442 108.207C237.503 118.733 246.825 123.736 251.267 125.772C252.366 123.098 253.466 120.423 254.566 117.749C250.742 116.334 242.587 112.716 235.919 104.295C226.751 92.7303 226.648 79.9994 226.758 76.2945C225.407 74.846 224.046 73.3962 222.695 71.9477C222.043 76.0384 219.931 92.554 230.442 108.207Z" fill="url(#paint36_radial_4852_2736)"/>
<path d="M233.854 288.408C233.816 280.472 233.788 272.548 233.751 264.612C227.266 261.343 219.576 256.665 211.795 249.979C196.395 236.749 187.963 221.951 183.504 212.304C181.129 211.876 178.752 211.459 176.377 211.031C181.198 224.24 189.805 242.8 205.374 261.452C215.202 273.22 225.291 282.008 233.854 288.408Z" fill="url(#paint37_radial_4852_2736)"/>
<path d="M231.851 325.032C222.215 319.476 211.304 312.188 200.119 302.658C181.994 287.204 169.337 271.132 160.779 258.233C158.533 257.821 156.276 257.418 154.029 257.007C160.322 271.498 171.619 292.57 191.53 313.095C205.556 327.554 219.727 337.466 231.002 344.104C231.281 337.75 231.562 331.385 231.851 325.032Z" fill="url(#paint38_radial_4852_2736)"/>
<path d="M243.458 301.65C243.667 289.886 243.33 281.288 243.327 277.68C243.371 228.093 243.402 203.306 247.471 176.927C249.163 165.962 254.669 133.403 269.791 93.3984C277.602 72.7269 285.928 55.5258 293.061 42.217L288.668 40.5197C281.831 51.5275 273.417 66.2988 265.162 84.3855C244.811 128.978 238.083 165.999 236.752 173.674C235.905 178.516 235.315 182.594 234.872 186.631C231.178 220.333 231.599 238.354 231.004 278.066C230.735 296.041 230.351 322.608 226.627 351.388C222.481 383.381 215.758 406.154 213.203 415.479C204.091 448.747 195.246 503.936 196.536 600.066C199.934 612.483 212.434 619.798 223.933 617.051C234.05 614.636 241.506 604.885 241.212 593.682C224.624 551.381 221.143 516.632 221.163 492.257C221.185 466.975 226.889 430.651 238.287 358.004C239.53 350.067 242.956 329.483 243.458 301.65Z" fill="url(#paint39_radial_4852_2736)"/>
<path d="M233.393 198.549C232.786 202.847 243.594 211.523 254.313 208.326C262.332 205.931 268.219 197.516 266.378 193.859C263.139 187.438 234.316 191.963 233.393 198.549Z" fill="white"/>
<path d="M219.242 185.504C213.63 180.652 205.157 181.277 200.305 186.889C195.462 192.502 196.077 200.974 201.689 205.826C207.302 210.669 215.774 210.054 220.626 204.442C225.479 198.83 224.855 190.347 219.242 185.504ZM218.753 202.817C214.796 207.392 207.88 207.899 203.305 203.942L217.619 187.368C222.204 191.326 222.711 198.242 218.753 202.817Z" fill="white"/>
<path d="M297.582 179.786C291.97 174.933 283.497 175.558 278.644 181.17C273.802 186.783 274.417 195.255 280.029 200.108C285.642 204.95 294.114 204.335 298.966 198.723C303.809 193.11 303.195 184.628 297.582 179.786ZM297.092 197.108C293.135 201.683 286.219 202.19 281.644 198.233L295.957 181.659C300.543 185.607 301.041 192.522 297.092 197.108Z" fill="white"/>
<path d="M222.556 621.393C223.52 619.488 222.968 616.97 221.477 616.401C220.582 616.058 219.484 615.729 218.209 615.53C215.848 615.154 213.867 615.36 212.543 615.628C211.561 615.828 210.869 617.254 211.14 618.557C211.362 619.603 211.662 620.668 211.756 621.698C211.877 622.983 212.35 624.12 213.151 624.643C213.728 625.028 214.582 625.376 215.844 625.594C216.762 625.749 217.535 625.775 218.186 625.725C219.764 625.6 221.251 624.264 222.124 622.277C222.26 621.991 222.408 621.697 222.556 621.393Z" fill="url(#paint40_radial_4852_2736)"/>
<defs>
<radialGradient id="paint0_radial_4852_2736" cx="0" cy="0" r="1" gradientUnits="userSpaceOnUse" gradientTransform="translate(321.368 323.921) rotate(-163.136) scale(98.0077 150.203)">
<stop stop-color="#659D4E"/>
<stop offset="0.4873" stop-color="#618D55"/>
<stop offset="1" stop-color="#5C775E"/>
</radialGradient>
<radialGradient id="paint1_radial_4852_2736" cx="0" cy="0" r="1" gradientUnits="userSpaceOnUse" gradientTransform="translate(298.06 450.949) rotate(-80.2617) scale(45.0368 78.7777)">
<stop stop-color="#BBDB4C"/>
<stop offset="0.2627" stop-color="#B6D75C"/>
<stop offset="0.7757" stop-color="#ABCB86"/>
<stop offset="1" stop-color="#A5C69B"/>
</radialGradient>
<radialGradient id="paint2_radial_4852_2736" cx="0" cy="0" r="1" gradientUnits="userSpaceOnUse" gradientTransform="translate(242.49 417.766) rotate(-54.4208) scale(45.0375 78.7828)">
<stop stop-color="#BBDB4C"/>
<stop offset="0.2627" stop-color="#B6D75C"/>
<stop offset="0.7757" stop-color="#ABCB86"/>
<stop offset="1" stop-color="#A5C69B"/>
</radialGradient>
<radialGradient id="paint3_radial_4852_2736" cx="0" cy="0" r="1" gradientUnits="userSpaceOnUse" gradientTransform="translate(270.995 413.685) rotate(-49.9902) scale(45.0376 78.7842)">
<stop stop-color="#BBDB4C"/>
<stop offset="0.2627" stop-color="#B6D75C"/>
<stop offset="0.7757" stop-color="#ABCB86"/>
<stop offset="1" stop-color="#A5C69B"/>
</radialGradient>
<radialGradient id="paint4_radial_4852_2736" cx="0" cy="0" r="1" gradientUnits="userSpaceOnUse" gradientTransform="translate(269.154 422.416) rotate(-61.305) scale(45.0439 78.7767)">
<stop stop-color="#BBDB4C"/>
<stop offset="0.2627" stop-color="#B6D75C"/>
<stop offset="0.7757" stop-color="#ABCB86"/>
<stop offset="1" stop-color="#A5C69B"/>
</radialGradient>
<radialGradient id="paint5_radial_4852_2736" cx="0" cy="0" r="1" gradientUnits="userSpaceOnUse" gradientTransform="translate(241.355 591.512) rotate(-81.2668) scale(137.13 182.574)">
<stop stop-color="#BBDB4C"/>
<stop offset="0.2627" stop-color="#B6D75C"/>
<stop offset="0.7757" stop-color="#ABCB86"/>
<stop offset="1" stop-color="#A5C69B"/>
</radialGradient>
<radialGradient id="paint6_radial_4852_2736" cx="0" cy="0" r="1" gradientUnits="userSpaceOnUse" gradientTransform="translate(293.29 443.326) rotate(-55.1128) scale(45.0406 78.7833)">
<stop stop-color="#BBDB4C"/>
<stop offset="0.2627" stop-color="#B6D75C"/>
<stop offset="0.7757" stop-color="#ABCB86"/>
<stop offset="1" stop-color="#A5C69B"/>
</radialGradient>
<radialGradient id="paint7_radial_4852_2736" cx="0" cy="0" r="1" gradientUnits="userSpaceOnUse" gradientTransform="translate(311.885 454.672) rotate(-81.4675) scale(45.036 78.776)">
<stop stop-color="#BBDB4C"/>
<stop offset="0.2627" stop-color="#B6D75C"/>
<stop offset="0.7757" stop-color="#ABCB86"/>
<stop offset="1" stop-color="#A5C69B"/>
</radialGradient>
<radialGradient id="paint8_radial_4852_2736" cx="0" cy="0" r="1" gradientUnits="userSpaceOnUse" gradientTransform="translate(259.481 440.63) rotate(-75.7162) scale(45.0432 78.7823)">
<stop stop-color="#BBDB4C"/>
<stop offset="0.2627" stop-color="#B6D75C"/>
<stop offset="0.7757" stop-color="#ABCB86"/>
<stop offset="1" stop-color="#A5C69B"/>
</radialGradient>
<radialGradient id="paint9_radial_4852_2736" cx="0" cy="0" r="1" gradientUnits="userSpaceOnUse" gradientTransform="translate(289.438 448.068) rotate(-66.4725) scale(45.0432 78.7823)">
<stop stop-color="#BBDB4C"/>
<stop offset="0.2627" stop-color="#B6D75C"/>
<stop offset="0.7757" stop-color="#ABCB86"/>
<stop offset="1" stop-color="#A5C69B"/>
</radialGradient>
<radialGradient id="paint10_radial_4852_2736" cx="0" cy="0" r="1" gradientUnits="userSpaceOnUse" gradientTransform="translate(303.591 258.015) rotate(-169.178) scale(116.767 178.956)">
<stop stop-color="#5EAF3D"/>
<stop offset="0.4873" stop-color="#5B9F49"/>
<stop offset="1" stop-color="#568959"/>
</radialGradient>
<radialGradient id="paint11_radial_4852_2736" cx="0" cy="0" r="1" gradientUnits="userSpaceOnUse" gradientTransform="translate(232.635 379.87) rotate(-63.7704) scale(53.658 93.8527)">
<stop stop-color="#D6ED68"/>
<stop offset="0.3566" stop-color="#C6E26B"/>
<stop offset="1" stop-color="#9FC972"/>
</radialGradient>
<radialGradient id="paint12_radial_4852_2736" cx="0" cy="0" r="1" gradientUnits="userSpaceOnUse" gradientTransform="translate(242.687 404.332) rotate(-81.7571) scale(53.6599 93.8549)">
<stop stop-color="#D6ED68"/>
<stop offset="0.3566" stop-color="#C6E26B"/>
<stop offset="1" stop-color="#9FC972"/>
</radialGradient>
<radialGradient id="paint13_radial_4852_2736" cx="0" cy="0" r="1" gradientUnits="userSpaceOnUse" gradientTransform="translate(249.391 385.436) rotate(-70.4054) scale(53.6598 93.8558)">
<stop stop-color="#D6ED68"/>
<stop offset="0.3566" stop-color="#C6E26B"/>
<stop offset="1" stop-color="#9FC972"/>
</radialGradient>
<radialGradient id="paint14_radial_4852_2736" cx="0" cy="0" r="1" gradientUnits="userSpaceOnUse" gradientTransform="translate(281.007 405.189) rotate(-72.5134) scale(53.6599 93.8549)">
<stop stop-color="#D6ED68"/>
<stop offset="0.3566" stop-color="#C6E26B"/>
<stop offset="1" stop-color="#9FC972"/>
</radialGradient>
<radialGradient id="paint15_radial_4852_2736" cx="0" cy="0" r="1" gradientUnits="userSpaceOnUse" gradientTransform="translate(241.896 416.998) rotate(-81.7571) scale(53.6599 93.8549)">
<stop stop-color="#D6ED68"/>
<stop offset="0.3566" stop-color="#C6E26B"/>
<stop offset="1" stop-color="#9FC972"/>
</radialGradient>
<radialGradient id="paint16_radial_4852_2736" cx="0" cy="0" r="1" gradientUnits="userSpaceOnUse" gradientTransform="translate(224.319 396.795) rotate(-72.9769) scale(53.6615 93.8515)">
<stop stop-color="#D6ED68"/>
<stop offset="0.3566" stop-color="#C6E26B"/>
<stop offset="1" stop-color="#9FC972"/>
</radialGradient>
<radialGradient id="paint17_radial_4852_2736" cx="0" cy="0" r="1" gradientUnits="userSpaceOnUse" gradientTransform="translate(256.144 386.915) rotate(-81.7571) scale(53.6599 93.8549)">
<stop stop-color="#D6ED68"/>
<stop offset="0.3566" stop-color="#C6E26B"/>
<stop offset="1" stop-color="#9FC972"/>
</radialGradient>
<radialGradient id="paint18_radial_4852_2736" cx="0" cy="0" r="1" gradientUnits="userSpaceOnUse" gradientTransform="translate(242.376 585.175) rotate(-87.3078) scale(163.375 217.51)">
<stop stop-color="#D6ED68"/>
<stop offset="0.3566" stop-color="#C6E26B"/>
<stop offset="1" stop-color="#9FC972"/>
</radialGradient>
<radialGradient id="paint19_radial_4852_2736" cx="0" cy="0" r="1" gradientUnits="userSpaceOnUse" gradientTransform="translate(248.229 419.372) rotate(-81.7571) scale(53.6599 93.8549)">
<stop stop-color="#D6ED68"/>
<stop offset="0.3566" stop-color="#C6E26B"/>
<stop offset="1" stop-color="#9FC972"/>
</radialGradient>
<radialGradient id="paint20_radial_4852_2736" cx="0" cy="0" r="1" gradientUnits="userSpaceOnUse" gradientTransform="translate(103.633 274.858) rotate(-16.8816) scale(114.512 175.493)">
<stop stop-color="#659D4E"/>
<stop offset="0.4873" stop-color="#618D55"/>
<stop offset="1" stop-color="#5C775E"/>
</radialGradient>
<radialGradient id="paint21_radial_4852_2736" cx="0" cy="0" r="1" gradientUnits="userSpaceOnUse" gradientTransform="translate(107.409 416.494) rotate(-100.623) scale(52.6263 92.0365)">
<stop stop-color="#BBCE63"/>
<stop offset="0.3512" stop-color="#B5CC73"/>
<stop offset="1" stop-color="#A5C69B"/>
</radialGradient>
<radialGradient id="paint22_radial_4852_2736" cx="0" cy="0" r="1" gradientUnits="userSpaceOnUse" gradientTransform="translate(133.683 434.297) rotate(-113.549) scale(52.6188 92.0385)">
<stop stop-color="#BBCE63"/>
<stop offset="0.3512" stop-color="#B5CC73"/>
<stop offset="1" stop-color="#A5C69B"/>
</radialGradient>
<radialGradient id="paint23_radial_4852_2736" cx="0" cy="0" r="1" gradientUnits="userSpaceOnUse" gradientTransform="translate(134.591 425.491) rotate(-113.549) scale(52.6188 92.0385)">
<stop stop-color="#BBCE63"/>
<stop offset="0.3512" stop-color="#B5CC73"/>
<stop offset="1" stop-color="#A5C69B"/>
</radialGradient>
<radialGradient id="paint24_radial_4852_2736" cx="0" cy="0" r="1" gradientUnits="userSpaceOnUse" gradientTransform="translate(177.522 427.04) rotate(-119.724) scale(52.6166 92.0442)">
<stop stop-color="#BBCE63"/>
<stop offset="0.3512" stop-color="#B5CC73"/>
<stop offset="1" stop-color="#A5C69B"/>
</radialGradient>
<radialGradient id="paint25_radial_4852_2736" cx="0" cy="0" r="1" gradientUnits="userSpaceOnUse" gradientTransform="translate(142.456 428.354) rotate(-124.898) scale(52.6194 92.0391)">
<stop stop-color="#BBCE63"/>
<stop offset="0.3512" stop-color="#B5CC73"/>
<stop offset="1" stop-color="#A5C69B"/>
</radialGradient>
<radialGradient id="paint26_radial_4852_2736" cx="0" cy="0" r="1" gradientUnits="userSpaceOnUse" gradientTransform="translate(112.31 421.678) rotate(-105.418) scale(52.6166 92.0391)">
<stop stop-color="#BBCE63"/>
<stop offset="0.3512" stop-color="#B5CC73"/>
<stop offset="1" stop-color="#A5C69B"/>
</radialGradient>
<radialGradient id="paint27_radial_4852_2736" cx="0" cy="0" r="1" gradientUnits="userSpaceOnUse" gradientTransform="translate(134.635 395.316) rotate(-113.549) scale(52.6188 92.0385)">
<stop stop-color="#BBCE63"/>
<stop offset="0.3512" stop-color="#B5CC73"/>
<stop offset="1" stop-color="#A5C69B"/>
</radialGradient>
<radialGradient id="paint28_radial_4852_2736" cx="0" cy="0" r="1" gradientUnits="userSpaceOnUse" gradientTransform="translate(137.253 408.612) rotate(-113.549) scale(52.6188 92.0385)">
<stop stop-color="#BBCE63"/>
<stop offset="0.3512" stop-color="#B5CC73"/>
<stop offset="1" stop-color="#A5C69B"/>
</radialGradient>
<radialGradient id="paint29_radial_4852_2736" cx="0" cy="0" r="1" gradientUnits="userSpaceOnUse" gradientTransform="translate(197.154 587.372) rotate(-98.7505) scale(160.218 213.302)">
<stop stop-color="#BBCE63"/>
<stop offset="0.3512" stop-color="#B5CC73"/>
<stop offset="1" stop-color="#A5C69B"/>
</radialGradient>
<radialGradient id="paint30_radial_4852_2736" cx="0" cy="0" r="1" gradientUnits="userSpaceOnUse" gradientTransform="translate(252.337 178.705) rotate(7.1166) scale(138.977 212.993)">
<stop stop-color="#6EAB6F"/>
<stop offset="0.4225" stop-color="#62A05F"/>
<stop offset="1" stop-color="#4E8C42"/>
</radialGradient>
<radialGradient id="paint31_radial_4852_2736" cx="0" cy="0" r="1" gradientUnits="userSpaceOnUse" gradientTransform="translate(222.44 371.105) rotate(-89.5536) scale(63.8669 111.714)">
<stop stop-color="#DAFF7C"/>
<stop offset="0.3057" stop-color="#CAF675"/>
<stop offset="0.9031" stop-color="#9FDF61"/>
<stop offset="1" stop-color="#98DB5E"/>
</radialGradient>
<radialGradient id="paint32_radial_4852_2736" cx="0" cy="0" r="1" gradientUnits="userSpaceOnUse" gradientTransform="translate(217.623 339.395) rotate(-89.5536) scale(63.8669 111.714)">
<stop stop-color="#DAFF7C"/>
<stop offset="0.3057" stop-color="#CAF675"/>
<stop offset="0.9031" stop-color="#9FDF61"/>
<stop offset="1" stop-color="#98DB5E"/>
</radialGradient>
<radialGradient id="paint33_radial_4852_2736" cx="0" cy="0" r="1" gradientUnits="userSpaceOnUse" gradientTransform="translate(212.81 326.829) rotate(-89.5536) scale(63.8669 111.714)">
<stop stop-color="#DAFF7C"/>
<stop offset="0.3057" stop-color="#CAF675"/>
<stop offset="0.9031" stop-color="#9FDF61"/>
<stop offset="1" stop-color="#98DB5E"/>
</radialGradient>
<radialGradient id="paint34_radial_4852_2736" cx="0" cy="0" r="1" gradientUnits="userSpaceOnUse" gradientTransform="translate(214.383 339.788) rotate(-89.5536) scale(63.8669 111.714)">
<stop stop-color="#DAFF7C"/>
<stop offset="0.3057" stop-color="#CAF675"/>
<stop offset="0.9031" stop-color="#9FDF61"/>
<stop offset="1" stop-color="#98DB5E"/>
</radialGradient>
<radialGradient id="paint35_radial_4852_2736" cx="0" cy="0" r="1" gradientUnits="userSpaceOnUse" gradientTransform="translate(222.443 354.653) rotate(-100.904) scale(63.8741 111.718)">
<stop stop-color="#DAFF7C"/>
<stop offset="0.3057" stop-color="#CAF675"/>
<stop offset="0.9031" stop-color="#9FDF61"/>
<stop offset="1" stop-color="#98DB5E"/>
</radialGradient>
<radialGradient id="paint36_radial_4852_2736" cx="0" cy="0" r="1" gradientUnits="userSpaceOnUse" gradientTransform="translate(218.903 367.473) rotate(-89.5536) scale(63.8669 111.714)">
<stop stop-color="#DAFF7C"/>
<stop offset="0.3057" stop-color="#CAF675"/>
<stop offset="0.9031" stop-color="#9FDF61"/>
<stop offset="1" stop-color="#98DB5E"/>
</radialGradient>
<radialGradient id="paint37_radial_4852_2736" cx="0" cy="0" r="1" gradientUnits="userSpaceOnUse" gradientTransform="translate(223.616 374.443) rotate(-89.5536) scale(63.8669 111.714)">
<stop stop-color="#DAFF7C"/>
<stop offset="0.3057" stop-color="#CAF675"/>
<stop offset="0.9031" stop-color="#9FDF61"/>
<stop offset="1" stop-color="#98DB5E"/>
</radialGradient>
<radialGradient id="paint38_radial_4852_2736" cx="0" cy="0" r="1" gradientUnits="userSpaceOnUse" gradientTransform="translate(221.554 365.411) rotate(-89.5536) scale(63.8669 111.714)">
<stop stop-color="#DAFF7C"/>
<stop offset="0.3057" stop-color="#CAF675"/>
<stop offset="0.9031" stop-color="#9FDF61"/>
<stop offset="1" stop-color="#98DB5E"/>
</radialGradient>
<radialGradient id="paint39_radial_4852_2736" cx="0" cy="0" r="1" gradientUnits="userSpaceOnUse" gradientTransform="translate(201.921 571.485) rotate(-74.7541) scale(194.442 258.89)">
<stop stop-color="#DAFF7C"/>
<stop offset="0.3057" stop-color="#CAF675"/>
<stop offset="0.9031" stop-color="#9FDF61"/>
<stop offset="1" stop-color="#98DB5E"/>
</radialGradient>
<radialGradient id="paint40_radial_4852_2736" cx="0" cy="0" r="1" gradientUnits="userSpaceOnUse" gradientTransform="translate(217.724 616.504) rotate(98.8929) scale(4.38193 16.957)">
<stop stop-color="#D19C59"/>
<stop offset="1" stop-color="#AF755D"/>
</radialGradient>
</defs>
</svg>
