<svg width="259" height="359" viewBox="0 0 259 359" fill="none" xmlns="http://www.w3.org/2000/svg">
<path d="M233.319 149.342C204.969 105.352 173.134 57.3317 144.784 11.6517C135.804 -2.81834 119.64 -2.81865 110.66 11.6514C82.3102 57.3314 53.7693 105.352 25.4193 149.342C-19.5107 219.062 -3.52072 293.182 62.6693 339.662C82.5693 353.632 105.299 358.482 129.379 358.482C153.459 358.482 176.189 353.632 196.089 339.662C262.259 293.182 278.249 219.062 233.319 149.342Z" fill="url(#paint0_radial_1890_136)"/>
<path d="M128.87 138.328C121.19 138.328 116.27 130.948 115.67 130.008C114.66 128.418 115.13 126.298 116.73 125.288C118.33 124.278 120.44 124.748 121.45 126.348C121.61 126.598 125.38 132.498 130.19 131.318C133.24 130.588 135.76 127.308 137.09 124.478C137.9 122.768 139.93 122.028 141.65 122.848C143.36 123.658 144.09 125.698 143.28 127.408C142.03 130.058 138.4 136.388 131.79 137.978C130.78 138.218 129.8 138.328 128.87 138.328Z" fill="#DCE7EA"/>
<path d="M90.8902 136.878C98.1602 136.878 104.04 130.988 104.04 123.728H77.7402C77.7402 130.988 83.6302 136.878 90.8902 136.878Z" fill="#DCE7EA"/>
<path d="M167.85 136.878C175.12 136.878 181 130.988 181 123.728H154.7C154.7 130.988 160.59 136.878 167.85 136.878Z" fill="#DCE7EA"/>
<defs>
<radialGradient id="paint0_radial_1890_136" cx="0" cy="0" r="1" gradientUnits="userSpaceOnUse" gradientTransform="translate(129.362 183.241) scale(154.024 205.068)">
<stop stop-color="#6C635D"/>
<stop offset="0.346" stop-color="#5C5551"/>
<stop offset="1" stop-color="#333333"/>
</radialGradient>
</defs>
</svg>
