<svg width="259" height="351" viewBox="0 0 259 351" fill="none" xmlns="http://www.w3.org/2000/svg">
<path d="M233.318 141.343C204.968 97.3526 185.309 78.0523 156.959 32.3723C147.979 17.9023 111.573 17.9023 102.593 32.3723C74.2429 78.0523 53.7683 97.3526 25.4183 141.343C-19.5117 211.063 -3.5217 285.183 62.6683 331.663C82.5683 345.633 105.298 350.483 129.378 350.483C153.458 350.483 176.188 345.633 196.088 331.663C262.258 285.183 278.248 211.063 233.318 141.343Z" fill="url(#paint0_radial_1890_135)"/>
<path d="M128.869 234.821C121.189 234.821 116.269 227.441 115.669 226.501C114.659 224.911 115.129 222.791 116.729 221.781C118.329 220.771 120.439 221.241 121.449 222.841C121.609 223.091 125.379 228.991 130.189 227.811C133.239 227.081 135.759 223.801 137.089 220.971C137.899 219.261 139.929 218.521 141.649 219.341C143.359 220.151 144.089 222.191 143.279 223.901C142.029 226.551 138.399 232.881 131.789 234.471C130.779 234.711 129.799 234.821 128.869 234.821Z" fill="#DCE7EA"/>
<path d="M90.8893 233.371C98.1593 233.371 104.039 227.481 104.039 220.221H77.7393C77.7393 227.481 83.6293 233.371 90.8893 233.371Z" fill="#DCE7EA"/>
<path d="M167.849 233.371C175.119 233.371 180.999 227.481 180.999 220.221H154.699C154.699 227.481 160.589 233.371 167.849 233.371Z" fill="#DCE7EA"/>
<defs>
<radialGradient id="paint0_radial_1890_135" cx="0" cy="0" r="1" gradientUnits="userSpaceOnUse" gradientTransform="translate(129.361 175.241) scale(154.024 205.068)">
<stop stop-color="#6C635D"/>
<stop offset="0.346" stop-color="#5C5551"/>
<stop offset="1" stop-color="#333333"/>
</radialGradient>
</defs>
</svg>
