<svg width="285" height="161" viewBox="0 0 285 161" fill="none" xmlns="http://www.w3.org/2000/svg">
<path d="M29.8251 141.677C47.5999 141.115 65.3699 140.553 83.1447 139.991C83.3721 115.996 83.5994 92.0018 83.8267 68.0072C65.8246 69.4098 47.8225 70.8123 29.8203 72.2149V141.677H29.8251Z" fill="#FFAD5C"/>
<path d="M65.64 74.6185C70.3477 74.0802 75.0554 73.5466 79.7679 73.0082C80.3268 58.9968 80.8857 44.9901 81.4445 30.9787C81.8518 20.7122 74.7192 12.9297 67.4113 15.664C66.1325 16.1409 64.8538 16.6226 63.575 17.0996C59.8761 18.488 57.6122 23.5409 58.4126 28.6317C60.8233 43.9606 63.234 59.2896 65.64 74.6185Z" fill="#5F634C"/>
<path d="M73.8815 74.6186C76.3633 81.5652 79.0913 92.1434 78.1441 104.842C76.799 122.872 68.5818 137.932 66.7773 137.427C65.2096 136.987 69.1264 124.997 69.1454 105.314C69.1596 92.729 67.573 82.4058 66.19 75.5253C66.1095 75.5725 66.0053 75.6292 65.8822 75.6953C65.6928 75.7945 65.437 75.9172 65.1623 76.0306C55.2258 80.0635 48.4815 87.9263 48.4815 96.965C48.4862 96.9839 48.4957 97.0028 48.5005 97.0217C49.7082 100.625 49.7082 104.521 48.5005 108.124L48.4815 108.181C48.4815 109.767 48.6947 118.202 57.8165 125.016C59.3794 126.183 61.8044 128.317 65.7022 129.328C71.1678 130.744 75.8045 129.2 77.6658 128.454C77.9263 131.127 77.9452 134.537 77.1922 138.371C75.3403 147.769 69.9553 153.965 67.2083 156.718C66.4505 157.1 65.598 157.317 64.6887 157.317H45.7109C33.4395 157.317 22.3284 152.359 14.2864 144.34C1.56512 131.656 1.27148 115.959 1.27148 113.007C1.65511 111.472 2.04346 109.933 2.43182 108.398C3.39326 104.573 3.39326 100.568 2.43182 96.7431C2.04346 95.2083 1.65985 93.6688 1.27148 92.134C1.27148 67.6625 21.1681 47.8236 45.7109 47.8236H62.1501C64.1488 47.8236 65.9816 48.5461 67.3978 49.7409C68.667 53.4952 69.9032 57.5423 71.0352 61.8681C72.2145 66.3402 73.1427 70.6045 73.8815 74.6186Z" fill="url(#paint0_radial_4373_2395)"/>
<path d="M64.3992 50.5343C60.5109 49.9109 54.8559 49.4103 48.1779 50.2745C43.6691 50.8554 26.7089 53.0513 15.1432 67.0627C8.46992 75.1522 7.39007 83.7517 6.19656 91.8317C5.57612 96.03 1.22831 125.573 18.4916 142.602C24.426 148.458 31.5208 151.457 32.1081 151.698C37.1331 153.771 42.5703 154.862 48.1731 154.862C53.2456 155.405 58.3228 155.953 63.3952 156.496C64.4324 156.661 65.4696 156.822 66.5116 156.987C66.5068 156.996 66.4973 157.006 66.4926 157.015C65.3133 158.734 63.362 159.764 61.2686 159.764H48.1731C35.646 159.764 23.8672 154.9 15.0105 146.069C12.8509 143.915 10.9327 141.587 9.26558 139.098C5.57612 133.592 4.02739 128.685 3.10858 125.687C-1.0403 112.171 0.124762 96.5117 0.470502 92.5637C0.787824 87.5344 2.4218 71.8985 14.5037 59.5824C16.4645 57.5848 21.7312 52.4138 30.2184 48.9098C36.74 46.218 42.3808 45.826 48.1731 45.3727C54.3823 44.8863 59.5968 45.1602 63.3099 45.5285L77.1821 47.7055C77.1821 47.7055 72.4649 49.1175 72.446 49.1223C69.7653 49.5898 67.0799 50.062 64.3992 50.5343Z" fill="#51422A"/>
<path d="M60.0222 71.941C57.8341 72.0024 55.6507 72.0685 53.4626 72.1299C41.9111 72.1299 32.5051 82.9442 32.4246 96.2756L32.9692 98.7785C33.2344 100.002 33.3671 101.253 33.3671 102.509C33.3671 103.765 33.2344 105.021 32.9692 106.24L32.4246 108.743C32.4483 111.312 32.9977 119.307 38.5864 125.767C42.56 130.362 47.8408 132.888 53.4626 132.888C56.0059 133.205 58.5492 133.521 61.0925 133.838C61.6135 133.932 62.1345 134.027 62.6555 134.121C62.6508 134.126 62.6508 134.13 62.646 134.135C62.054 135.136 61.0783 135.731 60.0269 135.731H53.4626C47.1872 135.731 41.2812 132.907 36.8434 127.774C34.0017 124.487 31.9936 120.506 30.8759 115.93C30.1181 112.828 29.957 110.211 29.957 108.563V108.389L30.5728 105.541C31.0037 103.553 31.0037 101.451 30.5728 99.4585L29.957 96.6109V96.6014C29.957 89.4942 32.3014 82.6278 36.5877 77.5276C38.861 74.817 41.5369 72.7249 44.4639 71.3271C47.7318 69.764 50.5593 69.5373 53.4626 69.2728C56.5743 68.9895 59.1886 69.1501 61.0499 69.3626C61.1826 69.4098 61.4052 69.5137 61.5946 69.7545C62.0161 70.274 61.9262 70.9776 61.912 71.0768C61.282 71.3696 60.6521 71.6577 60.0222 71.941Z" fill="url(#paint1_radial_4373_2395)"/>
<path d="M46.3264 125.144C47.6146 125.436 48.254 125.597 49.5754 126.074C49.9874 126.22 50.1342 126.551 49.9732 126.957C49.4522 128.26 49.1965 128.822 48.5145 129.998C47.4441 131.835 45.0334 132.511 43.2479 131.453C42.7127 131.136 42.3054 130.537 42.0496 129.975C41.7938 129.413 41.6186 128.714 41.737 128.1C42.1301 126.069 44.2519 124.671 46.3264 125.144Z" fill="#FFAD5C"/>
<path d="M39.0173 113.871C40.244 114.362 40.8455 114.622 42.0817 115.302C42.4653 115.515 42.56 115.864 42.3374 116.237C41.6175 117.441 41.2765 117.961 40.4193 119.014C39.0742 120.662 36.5829 120.95 34.9868 119.623C34.5085 119.226 34.2006 118.57 34.0396 117.975C33.8786 117.38 33.8123 116.662 34.0254 116.077C34.7311 114.126 37.0423 113.083 39.0173 113.871Z" fill="#FFAD5C"/>
<path d="M37.4314 99.6899C38.5444 100.403 39.089 100.771 40.1689 101.669C40.5052 101.947 40.5336 102.306 40.2399 102.632C39.3069 103.68 38.8759 104.124 37.8292 104.998C36.1952 106.363 33.6993 106.183 32.3779 104.582C31.98 104.101 31.8048 103.402 31.7575 102.788C31.7101 102.174 31.7811 101.456 32.0985 100.918C33.1688 99.1373 35.6411 98.5423 37.4314 99.6899Z" fill="#FFAD5C"/>
<path d="M47.1447 79.7282C48.4329 79.4354 49.0723 79.2749 50.3937 78.7979C50.8057 78.6515 50.9525 78.3209 50.7915 77.9148C50.2705 76.6114 50.0148 76.0495 49.3328 74.8736C48.2624 73.0366 45.8517 72.3613 44.0662 73.4191C43.531 73.7355 43.1237 74.3352 42.8679 74.8972C42.6122 75.4592 42.437 76.1581 42.5554 76.772C42.9485 78.7979 45.0702 80.1957 47.1447 79.7282Z" fill="#FFAD5C"/>
<path d="M38.199 91.6523C39.4257 91.1612 40.0271 90.9015 41.2633 90.2214C41.6469 90.0089 41.7416 89.6595 41.519 89.2864C40.7991 88.0822 40.4581 87.5627 39.6009 86.5096C38.2558 84.8615 35.7646 84.5734 34.1685 85.9004C33.6902 86.2971 33.3823 86.9535 33.2213 87.5486C33.0603 88.1436 32.9939 88.8614 33.2071 89.447C33.908 91.3926 36.224 92.441 38.199 91.6523Z" fill="#FFAD5C"/>
<path d="M120.759 51.4787C137.781 63.3084 140.732 84.2759 143.019 100.592C144.738 112.842 145.937 121.375 141.598 130.815C132.576 150.451 107.744 155.943 97.552 158.205C83.5519 161.308 71.5599 160.359 63.9395 159.15C68.2209 147.245 73.4118 128.397 73.4118 104.842C73.4118 92.1907 71.9151 72.706 63.9395 50.5343C65.5261 49.7598 97.0642 35.0117 120.759 51.4787Z" fill="#3A3E26"/>
<path d="M84.7734 48.173C91.3141 49.0892 102.349 51.6676 112.243 59.9791C131.794 76.3942 137.151 107 125.978 129.871C118.992 144.175 107.284 151.877 100.876 155.372C105.622 153.828 113.067 150.673 119.821 144.038C135.592 128.544 134.456 106.948 134.153 101.168C133.906 96.4361 132.429 68.2858 109.861 54.7844C100.138 48.9617 90.329 48.1589 84.7734 48.173Z" fill="#5F634C"/>
<path d="M79.0907 49.5898C78.9297 49.7503 85.745 55.3133 91.7694 63.7381C105.106 82.3869 105.694 102.679 105.741 105.711C106.002 122.135 100.536 134.305 97.5617 140.732C94.2559 147.877 90.5427 153.407 87.6158 157.261C91.1205 154.593 96.0935 150.182 100.403 143.566C108.625 130.943 109.175 118.409 109.388 111.453C109.506 107.642 109.871 85.6784 95.1795 65.646C87.9426 55.7714 79.2707 49.4103 79.0907 49.5898Z" fill="#5F634C"/>
<path d="M72.4598 49.1176C74.5816 54.3642 77.3665 62.1231 79.5641 71.7851C82.0174 82.5664 85.8869 100.389 81.9322 122.315C80.4592 130.48 77.196 143.117 69.1445 157.261C76.1398 148.104 79.8814 139.722 81.9322 134.121C93.2184 103.307 83.4004 74.9255 80.0377 65.646C77.4091 58.3782 74.4869 52.716 72.4598 49.1176Z" fill="#5F634C"/>
<path d="M197.476 51.7907C182.818 32.3816 175.24 22.9367 157.195 4.33517C151.588 -1.44506 144.9 -1.44506 139.293 4.33517C121.248 22.9367 113.67 31.4371 99.0116 51.7907C76.098 83.6056 82.937 129.163 114.286 151.112C123.711 157.71 136.844 160 148.249 160C159.649 160 172.787 157.71 182.212 151.112C213.551 129.163 221.11 83.0767 197.476 51.7907Z" fill="url(#paint2_radial_4373_2395)"/>
<path d="M148.002 77.0273C144.364 77.0273 142.034 73.5421 141.75 73.0982C141.272 72.3474 141.494 71.3462 142.252 70.8692C143.01 70.3923 144.009 70.6142 144.487 71.3698C144.563 71.4879 146.349 74.2741 148.627 73.7169C150.071 73.3721 151.265 71.8232 151.895 70.4867C152.278 69.6792 153.24 69.3297 154.054 69.717C154.864 70.0995 155.21 71.0629 154.826 71.8704C154.234 73.1218 152.515 76.1111 149.385 76.862C148.906 76.9753 148.442 77.0273 148.002 77.0273Z" fill="#FFFFF7"/>
<path d="M130.014 76.3472C133.457 76.3472 136.242 73.5657 136.242 70.1372H123.781C123.786 73.5657 126.576 76.3472 130.014 76.3472Z" fill="#FFFFF7"/>
<path d="M166.469 76.3472C169.912 76.3472 172.697 73.5657 172.697 70.1372H160.236C160.236 73.5657 163.026 76.3472 166.469 76.3472Z" fill="#FFFFF7"/>
<path d="M254.499 93.976C253.897 94.6513 253.4 95.4352 253.045 96.3088C249 106.216 241.114 112.941 232.049 112.941C232.03 112.936 232.011 112.927 231.992 112.922C228.379 111.718 224.471 111.718 220.858 112.922L220.801 112.941C219.21 112.941 210.751 112.729 203.916 103.633C202.188 101.333 200.724 98.6842 199.592 95.7705C199.417 95.3218 199.199 94.9015 198.944 94.5049C196.173 94.4624 193.407 94.4387 190.636 94.3018C186.824 94.1129 183.044 94.0232 179.222 94.1554C176.854 94.2357 174.481 94.3254 172.113 94.2687C171.73 95.0243 171.512 95.8744 171.512 96.7811V115.704C171.512 127.94 176.485 139.018 184.527 147.037C197.248 159.721 212.991 160.014 215.951 160.014C217.49 159.627 219.034 159.244 220.574 158.857C224.41 157.899 228.426 157.899 232.262 158.857C233.802 159.244 235.346 159.627 236.885 160.014C261.428 160.014 281.324 140.175 281.324 115.704V99.3123C281.324 97.3194 280.6 95.4918 279.401 94.0798C271.104 94.0185 262.801 93.9854 254.499 93.976Z" fill="url(#paint3_radial_4373_2395)"/>
<path d="M279.202 100.191C279.093 104.54 278.984 108.894 278.875 113.243C278.875 136.223 260.205 154.938 237.192 155.103L232.868 154.021C230.76 153.497 228.591 153.233 226.427 153.233C224.258 153.233 222.093 153.497 219.986 154.021L215.662 155.103C211.228 155.06 197.423 153.96 186.274 142.844C178.345 134.938 173.979 124.426 173.979 113.243C173.434 108.186 172.885 103.123 172.34 98.0656C172.174 97.0314 172.013 95.9972 171.847 94.9583C171.838 94.963 171.828 94.9724 171.819 94.9771C170.095 96.153 169.062 98.0987 169.062 100.186V113.243C169.062 125.734 173.941 137.479 182.797 146.31C188.471 151.967 195.348 155.958 203.239 158.182C208.6 159.688 213.114 160.005 215.96 160.005H216.263L221.179 158.777C224.613 157.917 228.241 157.917 231.675 158.777L236.591 160.005H236.61C248.881 160.005 260.731 155.334 269.54 146.815C274.219 142.286 277.828 136.964 280.244 131.146C282.943 124.643 283.337 119.019 283.791 113.243C284.279 107.052 284.004 101.853 283.635 98.1506C283.554 97.8909 283.374 97.447 282.962 97.0645C282.063 96.2239 280.85 96.4033 280.675 96.4316C280.187 97.6831 279.694 98.9345 279.202 100.191Z" fill="#51422A"/>
<path d="M257.142 101.428C257.08 103.61 257.014 105.787 256.953 107.968C256.953 119.486 246.107 128.865 232.737 128.945L230.226 128.402C229 128.138 227.745 128.006 226.485 128.006C225.225 128.006 223.965 128.138 222.743 128.402L220.233 128.945C217.657 128.922 209.638 128.374 203.159 122.802C198.551 118.839 196.017 113.574 196.017 107.968C195.7 105.433 195.382 102.897 195.065 100.361C194.97 99.8412 194.876 99.3217 194.781 98.8022C194.776 98.807 194.772 98.807 194.767 98.8117C193.763 99.402 193.166 100.375 193.166 101.423V107.968C193.166 114.226 195.998 120.114 201.146 124.539C204.443 127.373 208.435 129.375 213.025 130.49C216.136 131.245 218.76 131.406 220.413 131.406H220.588L223.444 130.792C225.438 130.362 227.546 130.362 229.544 130.792L232.4 131.406H232.41C239.538 131.406 246.424 129.068 251.539 124.794C254.258 122.528 256.356 119.859 257.758 116.941C259.325 113.683 259.553 110.863 259.818 107.968C260.102 104.866 259.941 102.259 259.728 100.403C259.681 100.271 259.576 100.049 259.335 99.8601C258.814 99.4398 258.108 99.5295 258.009 99.5437C257.715 100.172 257.426 100.8 257.142 101.428Z" fill="url(#paint4_radial_4373_2395)"/>
<path d="M203.784 115.085C203.49 113.801 203.329 113.163 202.851 111.846C202.704 111.435 202.373 111.288 201.965 111.449C200.658 111.968 200.094 112.223 198.915 112.903C197.073 113.971 196.396 116.374 197.456 118.155C197.774 118.688 198.375 119.094 198.939 119.35C199.502 119.605 200.203 119.779 200.819 119.661C202.856 119.269 204.258 117.158 203.784 115.085Z" fill="#FFAD5C"/>
<path d="M215.09 122.372C214.597 121.149 214.337 120.549 213.655 119.316C213.442 118.934 213.091 118.839 212.717 119.061C211.509 119.779 210.988 120.119 209.932 120.974C208.279 122.315 207.99 124.799 209.321 126.391C209.719 126.868 210.377 127.174 210.974 127.335C211.571 127.496 212.291 127.562 212.878 127.349C214.834 126.65 215.881 124.346 215.09 122.372Z" fill="#FFAD5C"/>
<path d="M229.312 123.954C228.597 122.844 228.227 122.301 227.328 121.224C227.048 120.889 226.688 120.861 226.361 121.153C225.31 122.084 224.865 122.514 223.989 123.557C222.62 125.186 222.8 127.675 224.405 128.993C224.888 129.389 225.589 129.564 226.205 129.611C226.821 129.659 227.541 129.588 228.081 129.271C229.866 128.204 230.463 125.744 229.312 123.954Z" fill="#FFAD5C"/>
<path d="M249.331 114.268C249.625 112.984 249.786 112.346 250.264 111.029C250.411 110.618 250.742 110.471 251.15 110.632C252.457 111.151 253.02 111.406 254.2 112.086C256.042 113.154 256.719 115.557 255.658 117.338C255.341 117.871 254.74 118.277 254.176 118.532C253.612 118.787 252.912 118.962 252.296 118.844C250.264 118.452 248.862 116.341 249.331 114.268Z" fill="#FFAD5C"/>
<path d="M237.372 123.189C237.865 121.966 238.125 121.366 238.807 120.133C239.02 119.751 239.371 119.656 239.745 119.878C240.953 120.596 241.474 120.936 242.53 121.791C244.183 123.132 244.472 125.616 243.141 127.208C242.743 127.685 242.085 127.992 241.488 128.152C240.891 128.313 240.171 128.379 239.584 128.166C237.633 127.467 236.581 125.163 237.372 123.189Z" fill="#FFAD5C"/>
<defs>
<radialGradient id="paint0_radial_4373_2395" cx="0" cy="0" r="1" gradientUnits="userSpaceOnUse" gradientTransform="translate(39.7424 102.513) rotate(-0.611323) scale(33.6148 65.0132)">
<stop stop-color="#FE601C"/>
<stop offset="0.2511" stop-color="#FE691A"/>
<stop offset="0.6565" stop-color="#FD8116"/>
<stop offset="1" stop-color="#FC9A11"/>
</radialGradient>
<radialGradient id="paint1_radial_4373_2395" cx="0" cy="0" r="1" gradientUnits="userSpaceOnUse" gradientTransform="translate(46.307 102.437) rotate(-90) scale(26.2192 26.2956)">
<stop stop-color="#FE601C"/>
<stop offset="0.2511" stop-color="#FE691A"/>
<stop offset="0.6565" stop-color="#FD8116"/>
<stop offset="1" stop-color="#FC9A11"/>
</radialGradient>
<radialGradient id="paint2_radial_4373_2395" cx="0" cy="0" r="1" gradientUnits="userSpaceOnUse" gradientTransform="translate(148.396 79.9956) scale(72.1073 95.725)">
<stop stop-color="#D2C96A"/>
<stop offset="0.346" stop-color="#C2BB5E"/>
<stop offset="1" stop-color="#999940"/>
</radialGradient>
<radialGradient id="paint3_radial_4373_2395" cx="0" cy="0" r="1" gradientUnits="userSpaceOnUse" gradientTransform="translate(226.454 127.031) rotate(-89.3851) scale(32.0388 62.3264)">
<stop stop-color="#FE601C"/>
<stop offset="0.2511" stop-color="#FE691A"/>
<stop offset="0.6565" stop-color="#FD8116"/>
<stop offset="1" stop-color="#FC9A11"/>
</radialGradient>
<radialGradient id="paint4_radial_4373_2395" cx="0" cy="0" r="1" gradientUnits="userSpaceOnUse" gradientTransform="translate(226.557 115.106) scale(26.2955 26.2192)">
<stop stop-color="#FE601C"/>
<stop offset="0.2511" stop-color="#FE691A"/>
<stop offset="0.6565" stop-color="#FD8116"/>
<stop offset="1" stop-color="#FC9A11"/>
</radialGradient>
</defs>
</svg>
