<svg width="600" height="377" viewBox="0 0 600 377" fill="none" xmlns="http://www.w3.org/2000/svg">
<path d="M109.478 290.478C144.12 275.992 178.752 261.51 213.395 247.024C195.737 199.379 178.079 151.733 160.421 104.088C125.965 120.408 91.5084 136.728 57.0521 153.048L109.468 290.482L109.478 290.478Z" fill="#FFAD5C"/>
<path d="M129.532 130.852C138.413 126.245 147.298 121.647 156.188 117.036C146.718 88.8936 137.251 60.7602 127.78 32.6176C120.837 11.9983 100.893 1.96691 88.539 12.8754C86.3762 14.7812 84.217 16.6964 82.0541 18.6022C75.8046 24.1324 75.1513 35.8333 80.5719 45.3034C96.895 73.8185 113.218 102.334 129.532 130.852Z" fill="#5F634C"/>
<path d="M145.789 124.652C155.927 136.529 169.291 155.406 177.005 181.243C187.957 217.929 183.11 253.908 179.169 254.266C175.745 254.576 174.424 227.906 159.609 188.948C150.14 164.037 139.22 144.806 131.299 132.233C131.176 132.387 131.013 132.577 130.82 132.801C130.522 133.14 130.11 133.575 129.653 134.006C113.094 149.462 105.722 170.093 112.543 187.977C112.566 188.01 112.599 188.041 112.623 188.074C117.724 194.295 120.664 202.003 121.001 210.041L121.006 210.167C122.203 213.307 128.988 229.834 152.126 236.453C156.09 237.585 162.484 239.984 170.937 239.051C182.788 237.741 190.77 231.197 193.879 228.32C196.41 233.413 199.02 240.145 200.428 248.298C203.866 268.285 197.918 284.596 194.576 292.11C193.37 293.437 191.852 294.508 190.058 295.192L152.619 309.471C128.41 318.704 102.748 317.254 80.8319 307.439C46.1636 291.914 33.7391 261.078 31.5119 255.238C31.1105 251.913 30.7149 248.574 30.3229 245.246C29.3332 236.954 26.3113 229.031 21.5281 222.186C19.6038 219.441 17.6853 216.684 15.761 213.94C-2.70532 165.521 21.5763 111.299 69.9943 92.8327L102.426 80.4636C106.369 78.9598 110.53 79.0102 114.225 80.3086C119.562 86.7817 125.055 93.859 130.552 101.566C136.253 109.527 141.302 117.266 145.789 124.652Z" fill="url(#paint0_radial_2620_1566)"/>
<path d="M108.908 84.1342C100.767 85.8265 89.2332 89.091 76.711 95.8254C68.2543 100.367 36.4522 117.473 24.2084 153.897C17.1478 174.924 21.5066 192.751 25.2493 209.636C27.1933 218.409 40.9095 280.133 87.8167 300.837C103.943 307.957 120.202 308.552 121.543 308.587C133.021 308.908 144.57 306.975 155.623 302.76C166.04 300.018 176.47 297.281 186.887 294.539C189.057 294.086 191.225 293.623 193.405 293.166C193.403 293.188 193.391 293.214 193.389 293.237C192.36 297.525 189.287 301.03 185.157 302.605L159.322 312.458C134.609 321.884 107.701 321.123 83.5649 310.314C77.6793 307.678 72.1383 304.515 66.9714 300.846C55.5377 292.727 48.7799 284.184 44.7044 278.943C26.3206 255.323 16.8023 223.463 14.5053 215.392C11.3361 205.203 2.76073 173.037 17.3023 139.578C19.6631 134.151 26.1511 119.957 40.2505 106.638C51.0853 96.4053 61.9176 91.3856 73.0027 86.1304C84.8849 80.4962 95.3788 77.1147 102.982 75.0497L131.992 68.9194C131.992 68.9194 123.751 75.2624 123.718 75.286C118.782 78.228 113.841 81.1829 108.908 84.1342Z" fill="#51422A"/>
<path d="M116.427 129.781C112.157 131.549 107.899 133.323 103.629 135.091C80.8402 143.782 70.4446 172.256 80.3456 198.693L83.3087 203.236C84.7549 205.456 85.9609 207.832 86.9088 210.318C87.8567 212.803 88.5429 215.388 88.9391 217.998L89.7534 223.36C91.7387 228.425 98.8556 243.83 114.756 252.407C126.062 258.509 138.387 259.534 149.478 255.304C154.734 254.017 159.99 252.729 165.246 251.441C166.345 251.236 167.444 251.031 168.543 250.826C168.538 250.839 168.541 250.848 168.535 250.861C168.123 253.288 166.647 255.199 164.573 255.99L151.623 260.929C139.243 265.651 125.46 264.507 112.832 257.69C104.746 253.325 97.7799 246.959 92.1218 238.746C88.2855 233.178 85.9936 228.123 84.7499 224.862L84.6181 224.516L83.684 218.419C83.034 214.161 81.4482 210.003 79.0941 206.384L75.7306 201.213L75.7234 201.195C70.3603 187.133 69.804 171.783 74.4112 158.467C76.8506 151.394 80.551 145.241 85.2705 140.273C90.538 134.722 95.945 132.146 101.473 129.438C107.398 126.536 112.677 124.887 116.509 123.907C116.806 123.9 117.324 123.938 117.879 124.272C119.103 124.983 119.456 126.443 119.503 126.65C118.481 127.703 117.456 128.747 116.427 129.781Z" fill="url(#paint1_radial_2620_1566)"/>
<path d="M129.555 245.35C132.318 244.96 133.7 244.797 136.667 244.746C137.59 244.726 138.129 245.27 138.118 246.194C138.074 249.165 137.994 250.469 137.535 253.309C136.81 257.749 132.564 260.899 128.243 260.15C126.948 259.926 125.692 259.046 124.764 258.127C123.835 257.207 122.962 255.956 122.732 254.652C121.975 250.339 125.107 245.977 129.555 245.35Z" fill="#FFAD5C"/>
<path d="M106.632 228.546C109.423 228.595 110.805 228.657 113.757 229.072C114.674 229.204 115.125 229.824 114.967 230.73C114.456 233.654 114.175 234.938 113.278 237.667C111.869 241.94 107.171 244.384 103.021 242.959C101.778 242.535 100.675 241.467 99.9087 240.411C99.142 239.355 98.4696 237.985 98.4482 236.666C98.3687 232.276 102.141 228.472 106.632 228.546Z" fill="#FFAD5C"/>
<path d="M92.8005 201.682C95.5344 202.255 96.8868 202.574 99.6942 203.537C100.568 203.835 100.895 204.524 100.561 205.389C99.5118 208.166 98.9964 209.368 97.5908 211.884C95.3971 215.814 90.3377 217.337 86.5228 215.164C85.3745 214.51 84.5014 213.259 83.9447 212.08C83.388 210.901 82.9865 209.427 83.2063 208.123C83.9744 203.796 88.4027 200.758 92.8005 201.682Z" fill="#FFAD5C"/>
<path d="M96.9008 154.878C99.2212 153.329 100.361 152.53 102.608 150.593C103.311 149.993 103.351 149.228 102.727 148.546C100.715 146.359 99.7869 145.44 97.5541 143.626C94.0563 140.797 88.7908 141.275 86.0666 144.711C85.2495 145.74 84.8985 147.233 84.818 148.537C84.7375 149.842 84.9193 151.356 85.6162 152.482C87.9204 156.194 93.1611 157.364 96.9008 154.878Z" fill="#FFAD5C"/>
<path d="M88.2476 185.202C90.297 183.307 91.2876 182.341 93.2131 180.065C93.8096 179.356 93.7328 178.593 93.0121 178.023C90.6832 176.182 89.6184 175.411 87.1326 173.972C83.2353 171.723 78.1033 173.028 75.9559 176.854C75.3115 177.999 75.1995 179.529 75.3309 180.828C75.4622 182.126 75.873 183.596 76.7354 184.594C79.5864 187.917 84.9465 188.248 88.2476 185.202Z" fill="#FFAD5C"/>
<path d="M220.809 43.5972C263.317 54.1953 284.96 93.4603 301.785 124.021C314.42 146.964 323.223 162.947 321.788 184.888C318.806 230.527 273.963 260.078 255.562 272.222C230.284 288.894 205.91 296.039 189.964 299.381C189.427 272.605 185.445 231.409 167.67 184.804C158.123 159.772 140.468 122.347 108.002 84.4804C110.548 81.7542 161.638 28.8448 220.809 43.5972Z" fill="#3A3E26"/>
<path d="M147.324 64.1317C160.919 61.0231 184.635 57.8216 210.426 66.8219C261.382 84.5896 295.045 141.115 290.262 194.772C287.275 228.329 269.99 252.378 259.985 264.113C268.182 257.487 280.489 245.644 288.806 227.435C308.228 184.912 289.69 143.039 284.73 131.831C280.673 122.654 256.516 68.0693 201.806 58.3365C178.23 54.1319 158.274 59.9236 147.324 64.1317Z" fill="#5F634C"/>
<path d="M137.178 71.2117C136.982 71.6505 154.625 77.5292 172.867 89.6652C213.251 116.528 229.722 156.235 232.103 162.198C245.011 194.499 243.412 222.689 242.394 237.644C241.264 254.268 238.112 268.003 235.245 277.829C240.146 269.913 246.629 257.445 250.139 241.112C256.834 209.95 248.46 184.739 243.631 170.816C240.989 163.186 225.134 119.455 181.034 90.8742C159.306 76.782 137.398 70.7212 137.178 71.2117Z" fill="#5F634C"/>
<path d="M123.744 75.2656C131.889 84.0498 143.237 97.3058 154.864 114.769C167.839 134.254 188.922 166.605 197.666 212.963C200.921 230.226 204.019 257.685 198.808 291.726C205.699 268.346 206.755 248.946 206.574 236.322C205.588 166.863 164.802 118.096 151.166 102.266C140.496 89.8644 130.458 80.8602 123.744 75.2656Z" fill="#5F634C"/>
<path d="M445.975 114.536C437.897 74.9569 433.3 55.3802 419.577 14.6016C415.311 1.92986 405.301 -2.83331 392.778 1.85034C352.479 16.9239 335.063 24.2878 298.581 44.4036C241.555 75.8461 219.25 149.111 250.497 204.392C259.893 221.009 277.916 233.802 294.988 241.925C312.053 250.045 333.355 255.964 352.176 252.773C414.768 242.142 459.004 178.338 445.975 114.536Z" fill="url(#paint2_radial_2620_1566)"/>
<path d="M353.889 117.184C348.444 114.594 347.445 107.702 347.337 106.833C347.157 105.365 348.206 104.021 349.681 103.844C351.156 103.668 352.493 104.713 352.669 106.188C352.699 106.419 353.381 111.874 357.189 112.66C359.598 113.171 362.491 111.696 364.388 110.138C365.54 109.199 367.228 109.359 368.171 110.521C369.11 111.672 368.94 113.364 367.789 114.304C366.008 115.761 361.3 119.024 356.077 117.921C355.28 117.751 354.548 117.498 353.889 117.184Z" fill="#FFFFF7"/>
<path d="M327.449 103.351C332.603 105.804 338.758 103.612 341.207 98.4645L322.555 89.5892C320.113 94.7397 322.302 100.902 327.449 103.351Z" fill="#FFFFF7"/>
<path d="M382.017 129.316C387.171 131.768 393.327 129.576 395.776 124.429L377.123 115.554C374.674 120.701 376.863 126.863 382.017 129.316Z" fill="#FFFFF7"/>
<path d="M500.676 166.831C500.421 168.726 500.476 170.69 500.886 172.643C505.51 194.818 499.643 215.926 483.762 226.609C483.723 226.623 483.679 226.629 483.64 226.643C475.886 228.786 469.04 233.391 464.133 239.765L464.055 239.865C461.268 241.741 446.197 251.336 423.474 243.409C417.727 241.406 412.032 238.476 406.605 234.69C405.768 234.108 404.89 233.627 403.973 233.231C399.069 236.422 394.195 239.64 389.179 242.664C382.276 246.825 375.549 251.122 369.009 255.858C364.956 258.79 360.905 261.744 356.689 264.435C356.91 266.215 357.533 267.965 358.604 269.558L380.97 302.806C395.431 324.305 417.238 337.91 440.804 342.521C478.083 349.816 506.009 331.778 511.195 328.289C513.434 325.795 515.687 323.303 517.926 320.809C523.514 314.604 530.55 309.871 538.404 307.034C541.558 305.9 544.715 304.753 547.87 303.619C590.867 274.696 602.277 216.391 573.353 173.394L553.98 144.593C551.624 141.092 548.195 138.735 544.427 137.666C529.817 147.337 515.233 157.063 500.676 166.831Z" fill="url(#paint3_radial_2620_1566)"/>
<path d="M551.301 148.637C556.25 156.407 561.205 164.186 566.155 171.956C593.315 212.331 582.726 267.216 542.604 294.627L533.751 297.823C529.439 299.386 525.326 301.477 521.534 304.028C517.734 306.584 514.254 309.6 511.182 313.005L504.884 320.001C497.068 325.15 471.58 339.487 438.909 333.094C415.676 328.547 395.601 315.223 382.384 295.575C375.452 287.33 368.507 279.083 361.575 270.839C360.062 269.217 358.557 267.589 357.039 265.959C357.028 265.979 357.023 266.006 357.012 266.026C355.381 270.124 355.872 274.759 358.339 278.426L373.772 301.369C388.535 323.315 410.962 338.202 436.916 343.281C453.543 346.534 470.307 345.441 486.759 340.051C497.932 336.379 506.214 331.616 511.201 328.262L511.732 327.904L518.893 319.953C523.893 314.397 530.249 310.121 537.28 307.585L547.344 303.949L547.377 303.926C568.876 289.465 584.116 267.294 589.48 241.944C592.325 228.472 592.357 214.868 589.713 201.799C586.757 187.192 580.798 176.846 574.768 166.163C568.305 154.71 561.679 145.898 556.656 139.828C556.208 139.467 555.368 138.899 554.194 138.712C551.624 138.296 549.712 140.04 549.438 140.296C550.063 143.07 550.679 145.849 551.301 148.637Z" fill="#51422A"/>
<path d="M514.114 176.809C516.585 180.715 519.042 184.618 521.513 188.524C535.126 208.762 527.21 238.022 503.881 253.92L498.842 255.924C496.38 256.905 494.025 258.151 491.818 259.636C489.611 261.121 487.56 262.838 485.732 264.742L481.976 268.655C477.434 271.65 462.739 280.137 444.802 277.981C432.046 276.45 421.384 270.185 414.758 260.336C411.205 256.254 407.652 252.172 404.099 248.091C403.319 247.29 402.539 246.489 401.759 245.687C401.756 245.701 401.748 245.707 401.745 245.721C400.684 247.941 400.788 250.354 402.027 252.196L409.763 263.696C417.159 274.69 429.081 281.699 443.33 283.407C452.454 284.5 461.815 283.313 471.173 279.863C477.517 277.524 482.303 274.714 485.199 272.766L485.506 272.559L489.784 268.115C492.769 265.01 496.462 262.526 500.471 260.926L506.2 258.639L506.217 258.628C518.704 250.228 528.006 238.005 531.916 224.468C533.999 217.281 534.522 210.121 533.528 203.341C532.423 195.768 529.489 190.547 526.533 185.148C523.363 179.361 520 174.971 517.433 171.961C517.194 171.785 516.749 171.518 516.103 171.47C514.693 171.346 513.563 172.335 513.406 172.477C513.634 173.927 513.87 175.371 514.114 176.809Z" fill="url(#paint4_radial_2620_1566)"/>
<path d="M436.778 263.687C434.745 261.776 433.709 260.846 431.314 259.095C430.571 258.546 429.818 258.679 429.294 259.441C427.618 261.895 426.932 263.007 425.669 265.592C423.703 269.638 425.357 274.659 429.32 276.537C430.507 277.101 432.041 277.106 433.33 276.89C434.618 276.673 436.053 276.154 436.992 275.221C440.097 272.133 440.058 266.771 436.778 263.687Z" fill="#FFAD5C"/>
<path d="M465.196 263.166C462.888 261.597 461.722 260.851 459.071 259.489C458.245 259.068 457.52 259.315 457.126 260.146C455.859 262.83 455.348 264.042 454.508 266.788C453.198 271.092 455.627 275.797 459.84 277.025C461.1 277.394 462.617 277.158 463.852 276.737C465.087 276.316 466.426 275.583 467.204 274.518C469.805 270.985 468.915 265.702 465.196 263.166Z" fill="#FFAD5C"/>
<path d="M491.983 249.185C489.418 248.078 488.129 247.559 485.28 246.728C484.394 246.468 483.73 246.842 483.504 247.742C482.761 250.616 482.489 251.895 482.188 254.762C481.716 259.237 484.972 263.398 489.342 263.821C490.657 263.949 492.092 263.429 493.226 262.787C494.361 262.144 495.538 261.171 496.11 259.979C497.977 256 496.115 250.973 491.983 249.185Z" fill="#FFAD5C"/>
<path d="M515.608 208.574C514.605 205.971 514.133 204.661 513.414 201.782C513.186 200.887 513.593 200.239 514.497 200.041C517.401 199.414 518.69 199.198 521.559 199.003C526.048 198.707 530.076 202.132 530.321 206.51C530.396 207.822 529.823 209.244 529.137 210.356C528.451 211.469 527.429 212.602 526.211 213.12C522.188 214.826 517.237 212.769 515.608 208.574Z" fill="#FFAD5C"/>
<path d="M505.202 238.34C504.619 235.611 504.367 234.25 504.105 231.281C504.026 230.358 504.528 229.779 505.446 229.728C508.41 229.566 509.725 229.549 512.585 229.806C517.066 230.215 520.508 234.239 520.058 238.603C519.924 239.91 519.134 241.225 518.278 242.211C517.423 243.196 516.239 244.161 514.959 244.479C510.715 245.551 506.149 242.741 505.202 238.34Z" fill="#FFAD5C"/>
<defs>
<radialGradient id="paint0_radial_2620_1566" cx="0" cy="0" r="1" gradientUnits="userSpaceOnUse" gradientTransform="translate(99.4884 205.528) rotate(-21.4896) scale(70.9748 137.669)">
<stop stop-color="#FE601C"/>
<stop offset="0.2511" stop-color="#FE691A"/>
<stop offset="0.6565" stop-color="#FD8116"/>
<stop offset="1" stop-color="#FC9A11"/>
</radialGradient>
<radialGradient id="paint1_radial_2620_1566" cx="0" cy="0" r="1" gradientUnits="userSpaceOnUse" gradientTransform="translate(112.382 200.438) rotate(-110.876) scale(55.5208 55.5208)">
<stop stop-color="#FE601C"/>
<stop offset="0.2511" stop-color="#FE691A"/>
<stop offset="0.6565" stop-color="#FD8116"/>
<stop offset="1" stop-color="#FC9A11"/>
</radialGradient>
<radialGradient id="paint2_radial_2620_1566" cx="0" cy="0" r="1" gradientUnits="userSpaceOnUse" gradientTransform="translate(352.359 121.922) rotate(25.4459) scale(119.534 159.148)">
<stop stop-color="#D2C96A"/>
<stop offset="0.346" stop-color="#C2BB5E"/>
<stop offset="1" stop-color="#999940"/>
</radialGradient>
<radialGradient id="paint3_radial_2620_1566" cx="0" cy="0" r="1" gradientUnits="userSpaceOnUse" gradientTransform="translate(490.613 257.959) rotate(-123.315) scale(67.8442 131.597)">
<stop stop-color="#FE601C"/>
<stop offset="0.2511" stop-color="#FE691A"/>
<stop offset="0.6565" stop-color="#FD8116"/>
<stop offset="1" stop-color="#FC9A11"/>
</radialGradient>
<radialGradient id="paint4_radial_2620_1566" cx="0" cy="0" r="1" gradientUnits="userSpaceOnUse" gradientTransform="translate(476.699 236.886) rotate(-33.9279) scale(55.5207 55.5208)">
<stop stop-color="#FE601C"/>
<stop offset="0.2511" stop-color="#FE691A"/>
<stop offset="0.6565" stop-color="#FD8116"/>
<stop offset="1" stop-color="#FC9A11"/>
</radialGradient>
</defs>
</svg>
