<svg width="801" height="800" viewBox="0 0 801 800" fill="none" xmlns="http://www.w3.org/2000/svg">
<path d="M729.925 263.163C727.838 260.646 725.75 258.139 723.663 255.622C718.243 256.281 709.934 256.513 700.648 253.493C679.101 246.488 669.452 227.58 667.379 223.268C664.65 227.194 658.022 235.55 646.36 240.066C625.41 248.193 606.376 236.921 603.937 235.425C602.203 238.861 594.855 252.398 578.177 259.113C560.582 266.186 545.115 260.621 541.732 259.309C539.914 263.652 533.984 276.263 519.764 284.415C500.743 295.33 481.626 289.81 478.294 288.787C485.756 312.896 474.837 336.631 456.756 343.931C438.528 351.281 420.3 338.988 418.743 337.906C416.146 340.275 401.971 352.733 381.831 350.918C370.903 349.933 362.987 345.173 359.05 342.381C353.897 345.358 348.735 348.334 343.583 351.301C342.308 348.825 330.946 325.927 342.434 305.843C346.032 299.554 350.826 295.367 354.724 292.702C355.74 270.373 367.717 250.991 385.943 242.924C399.774 236.798 412.916 239.076 418.497 240.407C420.024 237.225 428.949 219.484 450.192 212.457C469.626 206.03 485.969 213.007 489.626 214.68C490.727 211.954 497.402 196.115 515.199 189.19C535.769 181.183 553.712 191.872 555.722 193.116C556 192.044 560.016 177.788 574.555 172.9C589.615 167.83 601.771 177.584 602.459 178.162C603.928 176.729 613.109 168.006 626.135 169.289C632.36 169.901 636.962 172.552 639.421 174.272C640.439 173.695 652.775 166.919 665.756 173.314C677.111 178.91 680.072 190.207 680.467 191.816C692.619 188.215 705.536 192.43 712.546 202.103C721.577 214.557 715.843 229.193 715.493 230.054C722.975 230.182 729.775 234.396 733.053 240.962C736.647 248.168 735.414 257.002 729.925 263.163Z" fill="url(#paint0_radial_4822_3202)"/>
<path d="M136.525 668.321C160.567 602.58 191.839 539.839 231.562 482.881C250.21 456.148 270.916 430.162 292.933 406.163C314.085 383.105 337.193 361.012 361.228 340.994C384.34 321.748 409.229 303.674 434.71 287.751C459.253 272.415 485.271 258.474 511.686 246.635C561.731 224.201 614.993 208.629 669.521 200.598C670.345 200.479 670.954 199.715 670.875 198.897C670.796 198.078 670.057 197.503 669.234 197.612C614.396 204.812 560.693 219.628 510.128 241.364C483.408 252.848 457.044 266.45 432.14 281.473C406.256 297.089 380.952 314.883 357.41 333.879C332.893 353.659 309.298 375.544 287.647 398.422C265.095 422.268 243.82 448.135 224.619 474.782C183.633 531.667 150.761 594.673 125.839 660.505C124.159 664.948 125.228 670.394 128.189 672.577C131.14 674.759 134.839 672.884 136.476 668.456C136.49 668.427 136.493 668.408 136.507 668.379C136.511 668.349 136.513 668.34 136.525 668.321Z" fill="url(#paint1_radial_4822_3202)"/>
<path d="M490.964 247.891C486.661 241.516 478.441 240.953 473.217 242.609C470.241 243.553 468.152 245.244 466.928 246.439C464.725 245.501 460.7 244.161 455.722 244.689C445.325 245.796 439.541 254.106 438.628 255.465C437.998 255.126 426.906 249.455 415.933 255.863C405.345 262.04 404.512 273.847 404.46 274.738C403.529 274.61 389.485 272.874 381.211 282.923C373.156 292.709 374.022 309.492 384.445 316.878C391.169 321.646 400.712 321.684 408.958 317.426C415.479 323.378 424.59 325.466 432.721 322.777C442.206 319.637 448.817 310.521 449.051 300.066C460.863 307.622 474.974 307.914 484.324 300.981C488.414 297.949 493.741 291.937 494.632 283.238C495.562 274.109 491.053 267.464 489.814 265.76C494.112 260.475 494.512 253.152 490.964 247.891Z" fill="url(#paint2_radial_4822_3202)"/>
<path d="M678.99 189.04C674.395 186.047 667.262 187.713 664.148 193.483C663.841 192.855 658.466 182.377 646.99 181.266C638.074 180.406 629.292 185.56 625.283 194.175C618.335 191.263 610.581 192.157 605.22 196.579C597.697 202.784 597.246 214.007 601.621 221.552C606.117 229.315 617.008 235.423 625.097 230.759C630.577 227.605 633.482 220.262 632.256 212.503C633.491 214.096 641.028 223.528 653.205 224.089C665.743 224.669 678.048 215.618 682.564 201.612C684.411 196.758 682.733 191.481 678.99 189.04Z" fill="url(#paint3_radial_4822_3202)"/>
<path d="M611.899 191.752C617.95 192.582 623.529 188.35 624.36 182.298C625.191 176.247 620.958 170.668 614.907 169.837C608.855 169.007 603.276 173.239 602.445 179.291C601.615 185.342 605.847 190.921 611.899 191.752Z" fill="url(#paint4_radial_4822_3202)"/>
<path d="M604.102 221.639C610.154 222.47 615.733 218.237 616.563 212.186C617.394 206.134 613.161 200.555 607.11 199.725C601.058 198.894 595.479 203.126 594.649 209.178C593.818 215.23 598.05 220.809 604.102 221.639Z" fill="url(#paint5_radial_4822_3202)"/>
<path d="M564.274 207.795C570.325 208.626 575.904 204.393 576.735 198.342C577.566 192.29 573.333 186.711 567.282 185.881C561.23 185.05 555.651 189.283 554.82 195.334C553.99 201.386 558.222 206.965 564.274 207.795Z" fill="url(#paint6_radial_4822_3202)"/>
<path d="M513.457 248.887C519.509 249.718 525.088 245.485 525.919 239.434C526.749 233.382 522.517 227.803 516.465 226.973C510.414 226.142 504.835 230.374 504.004 236.426C503.173 242.478 507.406 248.057 513.457 248.887Z" fill="url(#paint7_radial_4822_3202)"/>
<path d="M491.291 285.949C497.343 286.779 502.922 282.547 503.753 276.495C504.583 270.444 500.351 264.865 494.299 264.034C488.248 263.204 482.669 267.436 481.838 273.488C481.007 279.539 485.24 285.118 491.291 285.949Z" fill="url(#paint8_radial_4822_3202)"/>
<path d="M386.725 249.28C392.777 250.11 398.356 245.878 399.186 239.826C400.017 233.775 395.784 228.196 389.733 227.365C383.681 226.535 378.102 230.767 377.272 236.819C376.441 242.87 380.674 248.449 386.725 249.28Z" fill="url(#paint9_radial_4822_3202)"/>
<path d="M389.006 320.027C395.058 320.857 400.637 316.625 401.467 310.573C402.298 304.522 398.065 298.943 392.014 298.112C385.962 297.282 380.383 301.514 379.553 307.566C378.722 313.617 382.955 319.196 389.006 320.027Z" fill="url(#paint10_radial_4822_3202)"/>
<path d="M438.817 320.575C442.302 321.053 445.515 318.615 445.994 315.13C446.472 311.645 444.035 308.431 440.549 307.953C437.064 307.475 433.851 309.912 433.372 313.398C432.894 316.883 435.331 320.096 438.817 320.575Z" fill="url(#paint11_radial_4822_3202)"/>
<path d="M506.081 313.434C509.566 313.912 512.779 311.475 513.258 307.989C513.736 304.504 511.298 301.291 507.813 300.812C504.327 300.334 501.114 302.772 500.636 306.257C500.157 309.743 502.595 312.956 506.081 313.434Z" fill="url(#paint12_radial_4822_3202)"/>
<path d="M463.715 253.063C467.201 253.541 470.414 251.104 470.892 247.618C471.371 244.133 468.933 240.92 465.448 240.441C461.962 239.963 458.749 242.401 458.271 245.886C457.792 249.371 460.23 252.585 463.715 253.063Z" fill="url(#paint13_radial_4822_3202)"/>
<path d="M524.204 275.375C527.689 275.853 530.902 273.415 531.381 269.93C531.859 266.444 529.421 263.231 525.936 262.753C522.45 262.274 519.237 264.712 518.759 268.198C518.281 271.683 520.718 274.896 524.204 275.375Z" fill="url(#paint14_radial_4822_3202)"/>
<path d="M529.821 217.683C533.306 218.161 536.519 215.724 536.998 212.238C537.476 208.753 535.038 205.54 531.553 205.061C528.068 204.583 524.854 207.021 524.376 210.506C523.898 213.992 526.335 217.205 529.821 217.683Z" fill="url(#paint15_radial_4822_3202)"/>
<path d="M716.729 243.183C722.78 244.014 728.36 239.781 729.19 233.73C730.021 227.678 725.788 222.099 719.737 221.268C713.685 220.438 708.106 224.67 707.275 230.722C706.445 236.773 710.677 242.353 716.729 243.183Z" fill="url(#paint16_radial_4822_3202)"/>
<path d="M641.821 222.537C647.872 223.367 653.451 219.135 654.282 213.083C655.112 207.032 650.88 201.453 644.828 200.622C638.777 199.791 633.198 204.024 632.367 210.075C631.537 216.127 635.769 221.706 641.821 222.537Z" fill="url(#paint17_radial_4822_3202)"/>
<path d="M674.747 206.291C680.798 207.122 686.377 202.89 687.208 196.838C688.038 190.786 683.806 185.207 677.754 184.377C671.703 183.546 666.124 187.779 665.293 193.83C664.463 199.882 668.695 205.461 674.747 206.291Z" fill="url(#paint18_radial_4822_3202)"/>
<path d="M579.944 276.181C585.995 277.012 591.574 272.779 592.405 266.728C593.235 260.676 589.003 255.097 582.951 254.267C576.9 253.436 571.321 257.668 570.49 263.72C569.66 269.772 573.892 275.351 579.944 276.181Z" fill="url(#paint19_radial_4822_3202)"/>
<path d="M461.252 303.901C467.304 304.731 472.883 300.499 473.714 294.447C474.544 288.396 470.312 282.817 464.26 281.986C458.208 281.156 452.629 285.388 451.799 291.44C450.968 297.491 455.201 303.07 461.252 303.901Z" fill="url(#paint20_radial_4822_3202)"/>
<path d="M431.456 279.613C437.507 280.443 443.086 276.211 443.917 270.159C444.747 264.108 440.515 258.529 434.463 257.698C428.412 256.868 422.833 261.1 422.002 267.152C421.172 273.203 425.404 278.782 431.456 279.613Z" fill="url(#paint21_radial_4822_3202)"/>
<path d="M447.266 242.881C453.318 243.712 458.897 239.479 459.727 233.428C460.558 227.376 456.325 221.797 450.274 220.967C444.222 220.136 438.643 224.369 437.813 230.42C436.982 236.472 441.215 242.051 447.266 242.881Z" fill="url(#paint22_radial_4822_3202)"/>
<path d="M343.914 309.902C349.966 310.732 355.545 306.5 356.376 300.448C357.206 294.397 352.974 288.818 346.922 287.987C340.871 287.157 335.292 291.389 334.461 297.441C333.63 303.492 337.863 309.071 343.914 309.902Z" fill="url(#paint23_radial_4822_3202)"/>
<path d="M380.434 280.484C383.919 280.962 387.133 278.525 387.611 275.039C388.089 271.554 385.652 268.341 382.166 267.862C378.681 267.384 375.468 269.822 374.989 273.307C374.511 276.792 376.949 280.006 380.434 280.484Z" fill="url(#paint24_radial_4822_3202)"/>
<path d="M592.252 246.65C595.738 247.128 598.951 244.691 599.429 241.205C599.908 237.72 597.47 234.507 593.985 234.028C590.499 233.55 587.286 235.988 586.808 239.473C586.329 242.958 588.767 246.172 592.252 246.65Z" fill="url(#paint25_radial_4822_3202)"/>
<path d="M489.7 222.523C493.185 223.001 496.398 220.564 496.877 217.078C497.355 213.593 494.917 210.38 491.432 209.901C487.947 209.423 484.733 211.861 484.255 215.346C483.777 218.831 486.214 222.045 489.7 222.523Z" fill="url(#paint26_radial_4822_3202)"/>
<path d="M488.637 248.277C492.123 248.755 495.336 246.318 495.814 242.832C496.292 239.347 493.855 236.134 490.369 235.655C486.884 235.177 483.671 237.615 483.192 241.1C482.714 244.585 485.152 247.799 488.637 248.277Z" fill="url(#paint27_radial_4822_3202)"/>
<path d="M546.854 254.56C550.339 255.038 553.553 252.601 554.031 249.115C554.509 245.63 552.072 242.417 548.586 241.938C545.101 241.46 541.888 243.898 541.409 247.383C540.931 250.868 543.369 254.082 546.854 254.56Z" fill="url(#paint28_radial_4822_3202)"/>
<path d="M684.381 229.488C687.867 229.966 691.08 227.528 691.558 224.043C692.037 220.558 689.599 217.344 686.114 216.866C682.628 216.388 679.415 218.825 678.937 222.311C678.458 225.796 680.896 229.009 684.381 229.488Z" fill="url(#paint29_radial_4822_3202)"/>
<path d="M730.936 264.695C734.421 265.173 737.635 262.735 738.113 259.25C738.591 255.765 736.154 252.552 732.668 252.073C729.183 251.595 725.97 254.032 725.491 257.518C725.013 261.003 727.451 264.216 730.936 264.695Z" fill="url(#paint30_radial_4822_3202)"/>
<path d="M367.631 325.522C365.197 322.957 361.423 323.317 359.176 324.462C357.896 325.114 357.072 326.041 356.612 326.674C355.537 326.415 353.61 326.111 351.396 326.725C346.759 328.007 344.757 332.224 344.451 332.908C344.142 332.805 338.678 331.066 334.178 334.799C329.838 338.403 330.346 343.822 330.391 344.232C329.955 344.243 323.447 344.52 320.455 349.702C317.531 354.751 319.199 362.308 324.48 364.87C327.896 366.53 332.231 365.833 335.652 363.264C339.062 365.478 343.357 365.735 346.839 363.901C350.907 361.764 353.22 357.126 352.541 352.359C358.471 354.899 364.908 353.965 368.626 350.115C370.25 348.43 372.224 345.3 371.967 341.288C371.708 337.073 369.147 334.4 368.463 333.721C370.007 331.006 369.641 327.645 367.631 325.522Z" fill="url(#paint31_radial_4822_3202)"/>
<path d="M491.562 415.175C489.375 416.48 484.266 418.988 477.706 418.906C470.219 418.817 462.132 414.194 457.553 408.287C455.971 409.664 449.582 414.955 439.808 415.42C429.496 415.913 422.502 410.683 420.98 409.485C419.243 411.407 413.746 416.749 405.093 418.973C397.705 420.876 389.076 419.329 382.403 415.657C382.534 427.576 374.819 439.366 363.028 441.947C356.035 443.48 348.417 439.78 343.346 435.107C336.84 438.969 329.054 440.686 321.635 439.143C315.767 437.923 311.849 434.842 309.959 433.099C306.751 434.405 303.561 435.734 300.367 437.092C297.867 428.684 298.981 419.096 304.916 412.33C307.739 409.114 311.029 407.133 313.606 405.933C317.299 394.62 326.845 384.049 338.788 381.459C347.578 379.557 354.711 382.009 357.61 383.316C363.999 376.481 372.091 373.342 380.398 372.241C387.44 371.31 395.618 373.937 401.692 378.737C406.662 373.413 413.637 369.879 420.811 369.531C428.655 369.154 436.32 372.366 441.624 378.363C442.004 377.87 447.316 371.382 456.074 371.696C465.144 372.022 469.132 379.302 469.347 379.715C470.434 379.299 477.25 376.853 483.55 380.221C486.569 381.836 488.236 384.104 489.058 385.469C489.703 385.406 497.557 384.808 502.397 390.802C506.625 396.035 505.326 402.115 505.137 402.977C506.666 409.193 503.76 414.85 499.493 416.374C495.824 417.658 492.215 415.567 491.562 415.175Z" fill="url(#paint32_radial_4822_3202)"/>
<path d="M488.728 398.09C434.577 394.918 381.206 402.461 329.708 420.769C306.403 429.733 284.339 440.534 262.998 453.502C248.152 463.123 234.188 473.45 220.836 484.76C221.01 486.803 221.194 488.847 221.379 490.881C235.526 478.408 250.35 467.109 266.232 456.631C287.202 443.652 308.895 432.831 331.837 423.787C382.71 405.252 435.138 397.74 489.186 400.121C490.088 400.174 490.719 399.766 490.584 399.203C490.448 398.649 489.62 398.142 488.728 398.09Z" fill="url(#paint33_radial_4822_3202)"/>
<path d="M374.1 405.696C371.126 403.391 366.159 404.132 363.704 407.903C363.533 407.456 360.45 399.987 352.658 398.585C346.61 397.492 340.32 400.525 337.09 406.189C332.5 403.813 327.147 403.986 323.232 406.699C317.741 410.518 316.803 418.162 319.372 423.571C321.994 429.099 328.741 433.336 334.911 431.185C341.081 429.033 342.689 421.876 342.781 421.424C343.302 422.626 344.567 425.03 347.221 426.656C348.152 427.228 350.366 428.38 354.508 428.201C361.911 427.875 371.917 422.708 375.842 414.485C377.371 411.283 376.516 407.582 374.1 405.696Z" fill="url(#paint34_radial_4822_3202)"/>
<path d="M493.242 408.672C497.247 409.222 500.94 406.421 501.489 402.415C502.039 398.41 499.238 394.718 495.232 394.168C491.227 393.618 487.535 396.42 486.985 400.425C486.435 404.43 489.237 408.122 493.242 408.672Z" fill="url(#paint35_radial_4822_3202)"/>
<path d="M476.957 386.048C480.962 386.598 484.654 383.797 485.204 379.791C485.754 375.786 482.953 372.094 478.947 371.544C474.942 370.994 471.25 373.796 470.7 377.801C470.15 381.806 472.952 385.498 476.957 386.048Z" fill="url(#paint36_radial_4822_3202)"/>
<path d="M432.931 400.668C436.937 401.218 440.629 398.417 441.179 394.412C441.728 390.406 438.927 386.714 434.922 386.164C430.917 385.615 427.224 388.416 426.675 392.421C426.125 396.426 428.926 400.119 432.931 400.668Z" fill="url(#paint37_radial_4822_3202)"/>
<path d="M406.791 413.948C410.796 414.497 414.488 411.696 415.038 407.691C415.588 403.686 412.786 399.993 408.781 399.444C404.776 398.894 401.084 401.695 400.534 405.7C399.984 409.705 402.786 413.398 406.791 413.948Z" fill="url(#paint38_radial_4822_3202)"/>
<path d="M372.892 400.15C376.897 400.699 380.59 397.898 381.14 393.893C381.689 389.888 378.888 386.195 374.883 385.646C370.878 385.096 367.185 387.897 366.636 391.902C366.086 395.908 368.887 399.6 372.892 400.15Z" fill="url(#paint39_radial_4822_3202)"/>
<path d="M312.166 425.408C316.171 425.957 319.863 423.156 320.413 419.151C320.963 415.146 318.161 411.453 314.156 410.903C310.151 410.354 306.459 413.155 305.909 417.16C305.359 421.165 308.161 424.858 312.166 425.408Z" fill="url(#paint40_radial_4822_3202)"/>
<path d="M339.308 435.764C343.313 436.314 347.006 433.512 347.556 429.507C348.105 425.502 345.304 421.81 341.299 421.26C337.294 420.71 333.601 423.511 333.052 427.517C332.502 431.522 335.303 435.214 339.308 435.764Z" fill="url(#paint41_radial_4822_3202)"/>
<path d="M365.454 419.346C367.757 419.662 369.881 418.051 370.197 415.747C370.513 413.444 368.902 411.32 366.599 411.004C364.295 410.688 362.171 412.299 361.855 414.603C361.539 416.906 363.15 419.03 365.454 419.346Z" fill="url(#paint42_radial_4822_3202)"/>
<path d="M384.973 426.347C387.277 426.663 389.4 425.052 389.717 422.748C390.033 420.445 388.422 418.321 386.118 418.005C383.815 417.689 381.691 419.3 381.375 421.604C381.059 423.907 382.67 426.031 384.973 426.347Z" fill="url(#paint43_radial_4822_3202)"/>
<path d="M401.344 388.116C403.648 388.433 405.772 386.821 406.088 384.518C406.404 382.214 404.793 380.091 402.489 379.775C400.186 379.458 398.062 381.07 397.746 383.373C397.43 385.677 399.041 387.8 401.344 388.116Z" fill="url(#paint44_radial_4822_3202)"/>
<path d="M452.135 412.459C454.439 412.775 456.563 411.164 456.879 408.861C457.195 406.557 455.584 404.433 453.28 404.117C450.977 403.801 448.853 405.412 448.537 407.716C448.221 410.019 449.832 412.143 452.135 412.459Z" fill="url(#paint45_radial_4822_3202)"/>
<path d="M459.729 395.736C462.033 396.052 464.156 394.441 464.472 392.137C464.789 389.834 463.178 387.71 460.874 387.394C458.57 387.078 456.447 388.689 456.131 390.992C455.815 393.296 457.426 395.419 459.729 395.736Z" fill="url(#paint46_radial_4822_3202)"/>
<path d="M613.09 526.193C607.498 469.91 559.349 434.49 533.737 416.236C459.771 363.517 376.466 369.527 346.909 373.143C346.909 373.143 336.593 372.998 318.603 377.508C311.475 379.296 308.43 381.911 304.454 384.57C298.755 388.385 297.124 396.296 301.305 401.738C301.34 401.784 301.375 401.831 301.41 401.878C301.433 401.906 301.455 401.934 301.478 401.962C304.295 405.509 308.973 406.971 313.422 406.135C321.818 404.563 332.141 403.381 343.909 403.672C360.158 404.069 373.629 407.125 383.313 410.107C375.273 410.911 367.233 411.714 359.193 412.517C282.465 420.182 224.507 489.385 233.177 566.013C242.554 648.922 335.182 682.511 346.275 686.619C386.661 701.568 422.761 698.163 439.648 696.386C456.277 694.634 492.202 690.482 527.894 668.003C540.026 660.37 621.338 609.164 613.09 526.193Z" fill="url(#paint47_radial_4822_3202)"/>
<path d="M423.368 555.475C412.851 556.526 405.105 547.099 404.161 545.897C402.56 543.856 402.918 540.896 404.969 539.294C407.02 537.692 409.98 538.05 411.572 540.102C411.824 540.418 417.787 547.993 424.212 545.713C428.291 544.291 431.285 539.459 432.72 535.406C433.591 532.958 436.266 531.675 438.736 532.554C441.185 533.425 442.459 536.122 441.588 538.571C440.239 542.364 436.139 551.526 427.302 554.61C425.97 555.065 424.652 555.347 423.368 555.475Z" fill="white"/>
<path d="M371.182 558.688C381.123 557.695 388.388 548.829 387.394 538.878L351.383 542.476C352.377 552.426 361.242 559.681 371.182 558.688Z" fill="white"/>
<path d="M476.538 548.164C486.478 547.171 493.743 538.305 492.749 528.355L456.738 531.952C457.732 541.903 466.597 549.157 476.538 548.164Z" fill="white"/>
<defs>
<radialGradient id="paint0_radial_4822_3202" cx="0" cy="0" r="1" gradientUnits="userSpaceOnUse" gradientTransform="translate(532.88 256.872) rotate(-6.01868) scale(153.557 204.447)">
<stop stop-color="#E16E39"/>
<stop offset="0.6705" stop-color="#D16F45"/>
<stop offset="1" stop-color="#C76F4D"/>
</radialGradient>
<radialGradient id="paint1_radial_4822_3202" cx="0" cy="0" r="1" gradientUnits="userSpaceOnUse" gradientTransform="translate(372.216 402.596) rotate(-43.1846) scale(260.077 346.289)">
<stop stop-color="#E1CD51"/>
<stop offset="0.3621" stop-color="#D4BF41"/>
<stop offset="1" stop-color="#B5A01B"/>
</radialGradient>
<radialGradient id="paint2_radial_4822_3202" cx="0" cy="0" r="1" gradientUnits="userSpaceOnUse" gradientTransform="translate(606.498 315.381) rotate(-6.01869) scale(123.184 123.184)">
<stop stop-color="#E1672F"/>
<stop offset="0.6705" stop-color="#D1693D"/>
<stop offset="1" stop-color="#C76B46"/>
</radialGradient>
<radialGradient id="paint3_radial_4822_3202" cx="0" cy="0" r="1" gradientUnits="userSpaceOnUse" gradientTransform="translate(606.496 315.38) rotate(-6.01869) scale(123.184 123.184)">
<stop stop-color="#E1672F"/>
<stop offset="0.6705" stop-color="#D1693D"/>
<stop offset="1" stop-color="#C76B46"/>
</radialGradient>
<radialGradient id="paint4_radial_4822_3202" cx="0" cy="0" r="1" gradientUnits="userSpaceOnUse" gradientTransform="translate(613.362 180.846) rotate(-43.1845) scale(11.0621 14.729)">
<stop stop-color="#E15329"/>
<stop offset="0.4305" stop-color="#D15132"/>
<stop offset="1" stop-color="#B54D41"/>
</radialGradient>
<radialGradient id="paint5_radial_4822_3202" cx="0" cy="0" r="1" gradientUnits="userSpaceOnUse" gradientTransform="translate(605.572 210.732) rotate(-43.1846) scale(11.0621 14.729)">
<stop stop-color="#E15329"/>
<stop offset="0.4305" stop-color="#D15132"/>
<stop offset="1" stop-color="#B54D41"/>
</radialGradient>
<radialGradient id="paint6_radial_4822_3202" cx="0" cy="0" r="1" gradientUnits="userSpaceOnUse" gradientTransform="translate(565.737 196.88) rotate(-43.1845) scale(11.0621 14.729)">
<stop stop-color="#E15329"/>
<stop offset="0.4305" stop-color="#D15132"/>
<stop offset="1" stop-color="#B54D41"/>
</radialGradient>
<radialGradient id="paint7_radial_4822_3202" cx="0" cy="0" r="1" gradientUnits="userSpaceOnUse" gradientTransform="translate(514.929 237.978) rotate(-43.1846) scale(11.0621 14.729)">
<stop stop-color="#E15329"/>
<stop offset="0.4305" stop-color="#D15132"/>
<stop offset="1" stop-color="#B54D41"/>
</radialGradient>
<radialGradient id="paint8_radial_4822_3202" cx="0" cy="0" r="1" gradientUnits="userSpaceOnUse" gradientTransform="translate(492.762 275.029) rotate(-43.1846) scale(11.0621 14.729)">
<stop stop-color="#E15329"/>
<stop offset="0.4305" stop-color="#D15132"/>
<stop offset="1" stop-color="#B54D41"/>
</radialGradient>
<radialGradient id="paint9_radial_4822_3202" cx="0" cy="0" r="1" gradientUnits="userSpaceOnUse" gradientTransform="translate(388.194 238.358) rotate(-43.1846) scale(11.0621 14.729)">
<stop stop-color="#E15329"/>
<stop offset="0.4305" stop-color="#D15132"/>
<stop offset="1" stop-color="#B54D41"/>
</radialGradient>
<radialGradient id="paint10_radial_4822_3202" cx="0" cy="0" r="1" gradientUnits="userSpaceOnUse" gradientTransform="translate(390.481 309.111) rotate(-43.1846) scale(11.0621 14.729)">
<stop stop-color="#E15329"/>
<stop offset="0.4305" stop-color="#D15132"/>
<stop offset="1" stop-color="#B54D41"/>
</radialGradient>
<radialGradient id="paint11_radial_4822_3202" cx="0" cy="0" r="1" gradientUnits="userSpaceOnUse" gradientTransform="translate(439.648 314.306) rotate(-43.1846) scale(6.36909 8.48034)">
<stop stop-color="#E15329"/>
<stop offset="0.4305" stop-color="#D15132"/>
<stop offset="1" stop-color="#B54D41"/>
</radialGradient>
<radialGradient id="paint12_radial_4822_3202" cx="0" cy="0" r="1" gradientUnits="userSpaceOnUse" gradientTransform="translate(506.915 307.169) rotate(-43.1846) scale(6.36909 8.48034)">
<stop stop-color="#E15329"/>
<stop offset="0.4305" stop-color="#D15132"/>
<stop offset="1" stop-color="#B54D41"/>
</radialGradient>
<radialGradient id="paint13_radial_4822_3202" cx="0" cy="0" r="1" gradientUnits="userSpaceOnUse" gradientTransform="translate(464.551 246.794) rotate(-43.1845) scale(6.36909 8.48036)">
<stop stop-color="#E15329"/>
<stop offset="0.4305" stop-color="#D15132"/>
<stop offset="1" stop-color="#B54D41"/>
</radialGradient>
<radialGradient id="paint14_radial_4822_3202" cx="0" cy="0" r="1" gradientUnits="userSpaceOnUse" gradientTransform="translate(525.031 269.108) rotate(-43.1846) scale(6.36909 8.48035)">
<stop stop-color="#E15329"/>
<stop offset="0.4305" stop-color="#D15132"/>
<stop offset="1" stop-color="#B54D41"/>
</radialGradient>
<radialGradient id="paint15_radial_4822_3202" cx="0" cy="0" r="1" gradientUnits="userSpaceOnUse" gradientTransform="translate(530.653 211.42) rotate(-43.1846) scale(6.36909 8.48035)">
<stop stop-color="#E15329"/>
<stop offset="0.4305" stop-color="#D15132"/>
<stop offset="1" stop-color="#B54D41"/>
</radialGradient>
<radialGradient id="paint16_radial_4822_3202" cx="0" cy="0" r="1" gradientUnits="userSpaceOnUse" gradientTransform="translate(718.181 232.195) rotate(-22.6637) scale(11.0623 14.7285)">
<stop stop-color="#E15329"/>
<stop offset="0.4305" stop-color="#D15132"/>
<stop offset="1" stop-color="#B54D41"/>
</radialGradient>
<radialGradient id="paint17_radial_4822_3202" cx="0" cy="0" r="1" gradientUnits="userSpaceOnUse" gradientTransform="translate(643.271 211.549) rotate(-22.6637) scale(11.0623 14.7285)">
<stop stop-color="#E15329"/>
<stop offset="0.4305" stop-color="#D15132"/>
<stop offset="1" stop-color="#B54D41"/>
</radialGradient>
<radialGradient id="paint18_radial_4822_3202" cx="0" cy="0" r="1" gradientUnits="userSpaceOnUse" gradientTransform="translate(676.201 195.314) rotate(-22.6637) scale(11.0623 14.7285)">
<stop stop-color="#E15329"/>
<stop offset="0.4305" stop-color="#D15132"/>
<stop offset="1" stop-color="#B54D41"/>
</radialGradient>
<radialGradient id="paint19_radial_4822_3202" cx="0" cy="0" r="1" gradientUnits="userSpaceOnUse" gradientTransform="translate(581.403 265.199) rotate(-22.6637) scale(11.0623 14.7285)">
<stop stop-color="#E15329"/>
<stop offset="0.4305" stop-color="#D15132"/>
<stop offset="1" stop-color="#B54D41"/>
</radialGradient>
<radialGradient id="paint20_radial_4822_3202" cx="0" cy="0" r="1" gradientUnits="userSpaceOnUse" gradientTransform="translate(462.705 292.916) rotate(-22.6636) scale(11.0623 14.7285)">
<stop stop-color="#E15329"/>
<stop offset="0.4305" stop-color="#D15132"/>
<stop offset="1" stop-color="#B54D41"/>
</radialGradient>
<radialGradient id="paint21_radial_4822_3202" cx="0" cy="0" r="1" gradientUnits="userSpaceOnUse" gradientTransform="translate(432.914 268.626) rotate(-22.6636) scale(11.0623 14.7285)">
<stop stop-color="#E15329"/>
<stop offset="0.4305" stop-color="#D15132"/>
<stop offset="1" stop-color="#B54D41"/>
</radialGradient>
<radialGradient id="paint22_radial_4822_3202" cx="0" cy="0" r="1" gradientUnits="userSpaceOnUse" gradientTransform="translate(448.723 231.895) rotate(-22.6637) scale(11.0623 14.7285)">
<stop stop-color="#E15329"/>
<stop offset="0.4305" stop-color="#D15132"/>
<stop offset="1" stop-color="#B54D41"/>
</radialGradient>
<radialGradient id="paint23_radial_4822_3202" cx="0" cy="0" r="1" gradientUnits="userSpaceOnUse" gradientTransform="translate(345.38 298.916) rotate(-22.6636) scale(11.0623 14.7285)">
<stop stop-color="#E15329"/>
<stop offset="0.4305" stop-color="#D15132"/>
<stop offset="1" stop-color="#B54D41"/>
</radialGradient>
<radialGradient id="paint24_radial_4822_3202" cx="0" cy="0" r="1" gradientUnits="userSpaceOnUse" gradientTransform="translate(381.256 274.144) rotate(-22.6637) scale(6.36924 8.48005)">
<stop stop-color="#E15329"/>
<stop offset="0.4305" stop-color="#D15132"/>
<stop offset="1" stop-color="#B54D41"/>
</radialGradient>
<radialGradient id="paint25_radial_4822_3202" cx="0" cy="0" r="1" gradientUnits="userSpaceOnUse" gradientTransform="translate(593.073 240.311) rotate(-22.6636) scale(6.36925 8.48006)">
<stop stop-color="#E15329"/>
<stop offset="0.4305" stop-color="#D15132"/>
<stop offset="1" stop-color="#B54D41"/>
</radialGradient>
<radialGradient id="paint26_radial_4822_3202" cx="0" cy="0" r="1" gradientUnits="userSpaceOnUse" gradientTransform="translate(490.516 216.186) rotate(-22.6636) scale(6.36925 8.48006)">
<stop stop-color="#E15329"/>
<stop offset="0.4305" stop-color="#D15132"/>
<stop offset="1" stop-color="#B54D41"/>
</radialGradient>
<radialGradient id="paint27_radial_4822_3202" cx="0" cy="0" r="1" gradientUnits="userSpaceOnUse" gradientTransform="translate(489.459 241.942) rotate(-22.6637) scale(6.36924 8.48005)">
<stop stop-color="#E15329"/>
<stop offset="0.4305" stop-color="#D15132"/>
<stop offset="1" stop-color="#B54D41"/>
</radialGradient>
<radialGradient id="paint28_radial_4822_3202" cx="0" cy="0" r="1" gradientUnits="userSpaceOnUse" gradientTransform="translate(547.671 248.218) rotate(-22.6637) scale(6.36924 8.48005)">
<stop stop-color="#E15329"/>
<stop offset="0.4305" stop-color="#D15132"/>
<stop offset="1" stop-color="#B54D41"/>
</radialGradient>
<radialGradient id="paint29_radial_4822_3202" cx="0" cy="0" r="1" gradientUnits="userSpaceOnUse" gradientTransform="translate(685.195 223.152) rotate(-22.6636) scale(6.36925 8.48006)">
<stop stop-color="#E15329"/>
<stop offset="0.4305" stop-color="#D15132"/>
<stop offset="1" stop-color="#B54D41"/>
</radialGradient>
<radialGradient id="paint30_radial_4822_3202" cx="0" cy="0" r="1" gradientUnits="userSpaceOnUse" gradientTransform="translate(731.75 258.351) rotate(-22.6637) scale(6.36924 8.48005)">
<stop stop-color="#E15329"/>
<stop offset="0.4305" stop-color="#D15132"/>
<stop offset="1" stop-color="#B54D41"/>
</radialGradient>
<radialGradient id="paint31_radial_4822_3202" cx="0" cy="0" r="1" gradientUnits="userSpaceOnUse" gradientTransform="translate(425.172 347.438) rotate(-15.4509) scale(56.6939 56.6939)">
<stop stop-color="#E1672F"/>
<stop offset="0.6705" stop-color="#D1693D"/>
<stop offset="1" stop-color="#C76B46"/>
</radialGradient>
<radialGradient id="paint32_radial_4822_3202" cx="0" cy="0" r="1" gradientUnits="userSpaceOnUse" gradientTransform="translate(403.418 407.112) rotate(6.22735) scale(77.4089 103.065)">
<stop stop-color="#E17239"/>
<stop offset="0.6705" stop-color="#D17345"/>
<stop offset="1" stop-color="#C7734D"/>
</radialGradient>
<radialGradient id="paint33_radial_4822_3202" cx="0" cy="0" r="1" gradientUnits="userSpaceOnUse" gradientTransform="translate(283.968 548.981) rotate(-57.2501) scale(180.589 240.44)">
<stop stop-color="#E1CF51"/>
<stop offset="0.4305" stop-color="#D1BF41"/>
<stop offset="1" stop-color="#B5A427"/>
</radialGradient>
<radialGradient id="paint34_radial_4822_3202" cx="0" cy="0" r="1" gradientUnits="userSpaceOnUse" gradientTransform="translate(317.396 487.426) rotate(-1.31702) scale(84.2643 84.2642)">
<stop stop-color="#E16C2F"/>
<stop offset="0.6705" stop-color="#D16E3D"/>
<stop offset="1" stop-color="#C76F46"/>
</radialGradient>
<radialGradient id="paint35_radial_4822_3202" cx="0" cy="0" r="1" gradientUnits="userSpaceOnUse" gradientTransform="translate(494.152 401.512) rotate(-14.4645) scale(7.31492 9.73965)">
<stop stop-color="#E15329"/>
<stop offset="0.4305" stop-color="#D15132"/>
<stop offset="1" stop-color="#B54D41"/>
</radialGradient>
<radialGradient id="paint36_radial_4822_3202" cx="0" cy="0" r="1" gradientUnits="userSpaceOnUse" gradientTransform="translate(477.868 378.882) rotate(-14.4645) scale(7.31493 9.73965)">
<stop stop-color="#E15329"/>
<stop offset="0.4305" stop-color="#D15132"/>
<stop offset="1" stop-color="#B54D41"/>
</radialGradient>
<radialGradient id="paint37_radial_4822_3202" cx="0" cy="0" r="1" gradientUnits="userSpaceOnUse" gradientTransform="translate(433.843 393.506) rotate(-14.4645) scale(7.31492 9.73964)">
<stop stop-color="#E15329"/>
<stop offset="0.4305" stop-color="#D15132"/>
<stop offset="1" stop-color="#B54D41"/>
</radialGradient>
<radialGradient id="paint38_radial_4822_3202" cx="0" cy="0" r="1" gradientUnits="userSpaceOnUse" gradientTransform="translate(407.709 406.783) rotate(-14.4645) scale(7.31492 9.73966)">
<stop stop-color="#E15329"/>
<stop offset="0.4305" stop-color="#D15132"/>
<stop offset="1" stop-color="#B54D41"/>
</radialGradient>
<radialGradient id="paint39_radial_4822_3202" cx="0" cy="0" r="1" gradientUnits="userSpaceOnUse" gradientTransform="translate(373.81 392.987) rotate(-14.4645) scale(7.31492 9.73966)">
<stop stop-color="#E15329"/>
<stop offset="0.4305" stop-color="#D15132"/>
<stop offset="1" stop-color="#B54D41"/>
</radialGradient>
<radialGradient id="paint40_radial_4822_3202" cx="0" cy="0" r="1" gradientUnits="userSpaceOnUse" gradientTransform="translate(313.089 418.239) rotate(-14.4645) scale(7.31492 9.73966)">
<stop stop-color="#E15329"/>
<stop offset="0.4305" stop-color="#D15132"/>
<stop offset="1" stop-color="#B54D41"/>
</radialGradient>
<radialGradient id="paint41_radial_4822_3202" cx="0" cy="0" r="1" gradientUnits="userSpaceOnUse" gradientTransform="translate(340.227 428.597) rotate(-14.4645) scale(7.31492 9.73964)">
<stop stop-color="#E15329"/>
<stop offset="0.4305" stop-color="#D15132"/>
<stop offset="1" stop-color="#B54D41"/>
</radialGradient>
<radialGradient id="paint42_radial_4822_3202" cx="0" cy="0" r="1" gradientUnits="userSpaceOnUse" gradientTransform="translate(365.946 415.266) rotate(-14.4645) scale(4.21158 5.60763)">
<stop stop-color="#E15329"/>
<stop offset="0.4305" stop-color="#D15132"/>
<stop offset="1" stop-color="#B54D41"/>
</radialGradient>
<radialGradient id="paint43_radial_4822_3202" cx="0" cy="0" r="1" gradientUnits="userSpaceOnUse" gradientTransform="translate(385.466 422.264) rotate(-14.4645) scale(4.21158 5.60763)">
<stop stop-color="#E15329"/>
<stop offset="0.4305" stop-color="#D15132"/>
<stop offset="1" stop-color="#B54D41"/>
</radialGradient>
<radialGradient id="paint44_radial_4822_3202" cx="0" cy="0" r="1" gradientUnits="userSpaceOnUse" gradientTransform="translate(401.841 384.03) rotate(-14.4645) scale(4.21158 5.60762)">
<stop stop-color="#E15329"/>
<stop offset="0.4305" stop-color="#D15132"/>
<stop offset="1" stop-color="#B54D41"/>
</radialGradient>
<radialGradient id="paint45_radial_4822_3202" cx="0" cy="0" r="1" gradientUnits="userSpaceOnUse" gradientTransform="translate(452.63 408.383) rotate(-14.4645) scale(4.21157 5.60761)">
<stop stop-color="#E15329"/>
<stop offset="0.4305" stop-color="#D15132"/>
<stop offset="1" stop-color="#B54D41"/>
</radialGradient>
<radialGradient id="paint46_radial_4822_3202" cx="0" cy="0" r="1" gradientUnits="userSpaceOnUse" gradientTransform="translate(460.22 391.658) rotate(-14.4645) scale(4.21158 5.60762)">
<stop stop-color="#E15329"/>
<stop offset="0.4305" stop-color="#D15132"/>
<stop offset="1" stop-color="#B54D41"/>
</radialGradient>
<radialGradient id="paint47_radial_4822_3202" cx="0" cy="0" r="1" gradientUnits="userSpaceOnUse" gradientTransform="translate(421.704 531.8) rotate(-5.70462) scale(178.733 178.733)">
<stop stop-color="#BE6009"/>
<stop offset="0.6447" stop-color="#B93325"/>
<stop offset="0.807" stop-color="#BB2835"/>
<stop offset="1" stop-color="#BF184E"/>
</radialGradient>
</defs>
</svg>
