<svg width="263" height="282" viewBox="0 0 263 282" fill="none" xmlns="http://www.w3.org/2000/svg">
<path d="M258.459 38.7477C257.315 37.6989 256.172 36.6548 255.029 35.606C252.525 36.2657 248.635 36.9111 244.076 36.0901C233.498 34.187 227.744 25.9198 226.492 24.0262C225.463 26.0479 222.887 30.4046 217.698 33.2805C208.377 38.4535 198.705 34.3816 197.462 33.8358C196.869 35.5633 194.289 42.402 186.884 46.6353C179.071 51.0964 171.444 49.4781 169.769 49.0794C169.195 51.2388 167.222 57.5508 161.065 62.3013C152.83 68.6608 143.49 67.2987 141.859 67.0329C146.92 77.8867 143.32 89.7513 135.294 94.35C127.201 98.9819 117.842 94.3785 117.041 93.9703C115.973 95.2517 110.115 102.024 100.533 102.47C95.3343 102.712 91.307 100.985 89.2768 99.9263C87.0474 101.659 84.8132 103.391 82.5837 105.118C81.8248 104.036 75.0083 94.0035 79.1115 83.819C80.397 80.6298 82.3798 78.3518 84.04 76.8473C83.077 66.2831 87.4553 56.3975 95.5003 51.4286C101.605 47.6557 107.928 47.8787 110.637 48.1445C111.149 46.5499 114.199 37.6325 123.729 32.9578C132.447 28.6818 140.578 30.9076 142.404 31.4581C142.746 30.1056 144.861 22.2275 152.778 17.8234C161.928 12.7311 171.05 16.5989 172.075 17.0545C172.136 16.5325 173.104 9.57034 179.622 6.33368C186.372 2.97837 192.714 6.77979 193.074 7.00759C193.672 6.23876 197.424 1.54513 203.628 1.30784C206.593 1.19394 208.927 2.14311 210.193 2.79329C210.635 2.45633 215.995 -1.52543 222.508 0.643421C228.205 2.54176 230.325 7.66251 230.614 8.39337C236.093 5.91605 242.435 7.06454 246.353 11.1602C251.4 16.4328 249.65 23.6845 249.541 24.1116C253.065 23.6892 256.533 25.2316 258.497 28.1076C260.65 31.2636 260.641 35.4968 258.459 38.7477Z" fill="url(#paint0_radial_4373_2341)"/>
<path d="M5.72529 267.535C12.7836 235.074 23.4328 203.556 38.427 174.213C45.4664 160.44 53.5208 146.886 62.32 134.182C70.773 121.975 80.2078 110.097 90.2119 99.1338C99.8317 88.5933 110.362 78.4894 121.31 69.3584C131.855 60.5643 143.183 52.3303 154.833 45.0597C176.904 31.2825 200.93 20.5237 226.037 13.2294C226.417 13.1202 226.654 12.7216 226.564 12.3419C226.474 11.9622 226.09 11.7392 225.71 11.8436C200.403 18.7678 176.121 29.1991 153.761 42.682C141.945 49.8055 130.432 57.9019 119.697 66.5726C108.541 75.5849 97.7967 85.5844 87.9587 96.0347C77.7127 106.917 68.036 118.729 59.3364 130.883C50.2763 143.55 41.9467 157.085 34.6417 170.853C19.0498 200.244 7.66538 231.989 0.199103 264.55C-0.303708 266.747 0.550122 269.239 2.08227 270.074C3.60968 270.909 5.22722 269.789 5.71106 267.602C5.7158 267.587 5.7158 267.578 5.72054 267.564C5.72054 267.549 5.72054 267.545 5.72529 267.535Z" fill="url(#paint1_radial_4373_2341)"/>
<path d="M145.175 46.9865C142.742 44.2672 138.842 44.5329 136.494 45.6482C135.157 46.2841 134.284 47.2143 133.786 47.855C132.69 47.556 130.712 47.1858 128.407 47.7553C123.592 48.9465 121.41 53.2273 121.069 53.9249C120.751 53.8063 115.172 51.8557 110.429 55.5765C105.851 59.1643 106.221 64.7692 106.255 65.1916C105.809 65.1916 99.0966 65.2817 95.8568 70.5401C92.7024 75.6609 94.1918 83.4962 99.5662 86.2963C103.034 88.1045 107.521 87.5065 111.121 84.9722C114.57 87.3499 118.986 87.7438 122.634 85.9546C126.889 83.8664 129.408 79.1538 128.843 74.2229C134.882 77.0134 141.532 76.2399 145.479 72.3767C147.205 70.6872 149.321 67.517 149.179 63.3691C149.027 59.0172 146.479 56.1839 145.787 55.4626C147.466 52.7005 147.182 49.2313 145.175 46.9865Z" fill="url(#paint2_radial_4373_2341)"/>
<path d="M229.743 7.18323C227.39 6.07271 224.146 7.31611 223.055 10.2301C222.87 9.9548 219.668 5.37507 214.203 5.59338C209.958 5.76423 206.163 8.7541 204.835 13.0633C201.382 12.1426 197.795 13.0633 195.561 15.4884C192.426 18.8912 192.938 24.1971 195.481 27.4622C198.094 30.8222 203.606 32.9911 207.107 30.2765C209.479 28.4398 210.371 24.7998 209.294 21.2309C209.977 21.9001 214.127 25.8486 219.886 25.3266C225.815 24.7903 231.014 19.7407 232.233 12.864C232.788 10.4626 231.659 8.08969 229.743 7.18323Z" fill="url(#paint3_radial_4373_2341)"/>
<path d="M198.387 12.7881C201.284 12.7881 203.633 10.4381 203.633 7.53918C203.633 4.64029 201.284 2.29028 198.387 2.29028C195.489 2.29028 193.141 4.64029 193.141 7.53918C193.141 10.4381 195.489 12.7881 198.387 12.7881Z" fill="url(#paint4_radial_4373_2341)"/>
<path d="M196.651 27.3435C199.548 27.3435 201.897 24.9935 201.897 22.0946C201.897 19.1957 199.548 16.8457 196.651 16.8457C193.753 16.8457 191.404 19.1957 191.404 22.0946C191.404 24.9935 193.753 27.3435 196.651 27.3435Z" fill="url(#paint5_radial_4373_2341)"/>
<path d="M177.041 23.4044C179.939 23.4044 182.288 21.0544 182.288 18.1555C182.288 15.2566 179.939 12.9066 177.041 12.9066C174.144 12.9066 171.795 15.2566 171.795 18.1555C171.795 21.0544 174.144 23.4044 177.041 23.4044Z" fill="url(#paint6_radial_4373_2341)"/>
<path d="M155.809 46.0041C158.706 46.0041 161.055 43.6541 161.055 40.7552C161.055 37.8564 158.706 35.5063 155.809 35.5063C152.911 35.5063 150.562 37.8564 150.562 40.7552C150.562 43.6541 152.911 46.0041 155.809 46.0041Z" fill="url(#paint7_radial_4373_2341)"/>
<path d="M147.783 64.8594C150.681 64.8594 153.03 62.5094 153.03 59.6105C153.03 56.7116 150.681 54.3616 147.783 54.3616C144.886 54.3616 142.537 56.7116 142.537 59.6105C142.537 62.5094 144.886 64.8594 147.783 64.8594Z" fill="url(#paint8_radial_4373_2341)"/>
<path d="M96.2795 54.3663C99.177 54.3663 101.526 52.0163 101.526 49.1174C101.526 46.2185 99.177 43.8685 96.2795 43.8685C93.3821 43.8685 91.0332 46.2185 91.0332 49.1174C91.0332 52.0163 93.3821 54.3663 96.2795 54.3663Z" fill="url(#paint9_radial_4373_2341)"/>
<path d="M101.914 87.4828C104.812 87.4828 107.161 85.1328 107.161 82.2339C107.161 79.335 104.812 76.985 101.914 76.985C99.0168 76.985 96.668 79.335 96.668 82.2339C96.668 85.1328 99.0168 87.4828 101.914 87.4828Z" fill="url(#paint10_radial_4373_2341)"/>
<path d="M125.358 84.5261C127.026 84.5261 128.379 83.1726 128.379 81.503C128.379 79.8333 127.026 78.4799 125.358 78.4799C123.689 78.4799 122.336 79.8333 122.336 81.503C122.336 83.1726 123.689 84.5261 125.358 84.5261Z" fill="url(#paint11_radial_4373_2341)"/>
<path d="M156.508 76.8283C158.177 76.8283 159.53 75.4748 159.53 73.8052C159.53 72.1356 158.177 70.7821 156.508 70.7821C154.839 70.7821 153.486 72.1356 153.486 73.8052C153.486 75.4748 154.839 76.8283 156.508 76.8283Z" fill="url(#paint12_radial_4373_2341)"/>
<path d="M132.703 51.1771C134.372 51.1771 135.725 49.8236 135.725 48.154C135.725 46.4843 134.372 45.1309 132.703 45.1309C131.034 45.1309 129.682 46.4843 129.682 48.154C129.682 49.8236 131.034 51.1771 132.703 51.1771Z" fill="url(#paint13_radial_4373_2341)"/>
<path d="M162.568 57.7643C164.237 57.7643 165.59 56.4109 165.59 54.7412C165.59 53.0716 164.237 51.7181 162.568 51.7181C160.9 51.7181 159.547 53.0716 159.547 54.7412C159.547 56.4109 160.9 57.7643 162.568 57.7643Z" fill="url(#paint14_radial_4373_2341)"/>
<path d="M161.488 30.2764C163.157 30.2764 164.51 28.9229 164.51 27.2533C164.51 25.5837 163.157 24.2302 161.488 24.2302C159.82 24.2302 158.467 25.5837 158.467 27.2533C158.467 28.9229 159.82 30.2764 161.488 30.2764Z" fill="url(#paint15_radial_4373_2341)"/>
<path d="M250.969 30.2052C253.866 30.2052 256.215 27.8552 256.215 24.9563C256.215 22.0574 253.866 19.7074 250.969 19.7074C248.072 19.7074 245.723 22.0574 245.723 24.9563C245.723 27.8552 248.072 30.2052 250.969 30.2052Z" fill="url(#paint16_radial_4373_2341)"/>
<path d="M214.434 25.3313C217.331 25.3313 219.68 22.9813 219.68 20.0824C219.68 17.1835 217.331 14.8335 214.434 14.8335C211.536 14.8335 209.188 17.1835 209.188 20.0824C209.188 22.9813 211.536 25.3313 214.434 25.3313Z" fill="url(#paint17_radial_4373_2341)"/>
<path d="M228.86 15.5691C231.757 15.5691 234.106 13.2191 234.106 10.3202C234.106 7.4213 231.757 5.07129 228.86 5.07129C225.962 5.07129 223.613 7.4213 223.613 10.3202C223.613 13.2191 225.962 15.5691 228.86 15.5691Z" fill="url(#paint18_radial_4373_2341)"/>
<path d="M188.815 54.5466C191.712 54.5466 194.061 52.1966 194.061 49.2977C194.061 46.3988 191.712 44.0488 188.815 44.0488C185.917 44.0488 183.568 46.3988 183.568 49.2977C183.568 52.1966 185.917 54.5466 188.815 54.5466Z" fill="url(#paint19_radial_4373_2341)"/>
<path d="M134.824 75.2385C137.722 75.2385 140.071 72.8885 140.071 69.9896C140.071 67.0907 137.722 64.7407 134.824 64.7407C131.927 64.7407 129.578 67.0907 129.578 69.9896C129.578 72.8885 131.927 75.2385 134.824 75.2385Z" fill="url(#paint20_radial_4373_2341)"/>
<path d="M119.256 65.7421C122.154 65.7421 124.502 63.392 124.502 60.4932C124.502 57.5943 122.154 55.2443 119.256 55.2443C116.359 55.2443 114.01 57.5943 114.01 60.4932C114.01 63.392 116.359 65.7421 119.256 65.7421Z" fill="url(#paint21_radial_4373_2341)"/>
<path d="M124.317 47.4517C127.214 47.4517 129.563 45.1016 129.563 42.2028C129.563 39.3039 127.214 36.9539 124.317 36.9539C121.419 36.9539 119.07 39.3039 119.07 42.2028C119.07 45.1016 121.419 47.4517 124.317 47.4517Z" fill="url(#paint22_radial_4373_2341)"/>
<path d="M80.0705 85.6318C82.968 85.6318 85.3169 83.2818 85.3169 80.3829C85.3169 77.484 82.968 75.134 80.0705 75.134C77.1731 75.134 74.8242 77.484 74.8242 80.3829C74.8242 83.2818 77.1731 85.6318 80.0705 85.6318Z" fill="url(#paint23_radial_4373_2341)"/>
<path d="M95.3341 69.4438C97.0029 69.4438 98.3557 68.0903 98.3557 66.4207C98.3557 64.7511 97.0029 63.3976 95.3341 63.3976C93.6653 63.3976 92.3125 64.7511 92.3125 66.4207C92.3125 68.0903 93.6653 69.4438 95.3341 69.4438Z" fill="url(#paint24_radial_4373_2341)"/>
<path d="M192.695 39.8677C194.364 39.8677 195.717 38.5142 195.717 36.8446C195.717 35.175 194.364 33.8215 192.695 33.8215C191.027 33.8215 189.674 35.175 189.674 36.8446C189.674 38.5142 191.027 39.8677 192.695 39.8677Z" fill="url(#paint25_radial_4373_2341)"/>
<path d="M142.945 35.1409C144.614 35.1409 145.967 33.7874 145.967 32.1178C145.967 30.4482 144.614 29.0947 142.945 29.0947C141.277 29.0947 139.924 30.4482 139.924 32.1178C139.924 33.7874 141.277 35.1409 142.945 35.1409Z" fill="url(#paint26_radial_4373_2341)"/>
<path d="M144.108 47.3188C145.776 47.3188 147.129 45.9653 147.129 44.2957C147.129 42.6261 145.776 41.2726 144.108 41.2726C142.439 41.2726 141.086 42.6261 141.086 44.2957C141.086 45.9653 142.439 47.3188 144.108 47.3188Z" fill="url(#paint27_radial_4373_2341)"/>
<path d="M171.871 46.5167C173.54 46.5167 174.893 45.1632 174.893 43.4936C174.893 41.8239 173.54 40.4705 171.871 40.4705C170.202 40.4705 168.85 41.8239 168.85 43.4936C168.85 45.1632 170.202 46.5167 171.871 46.5167Z" fill="url(#paint28_radial_4373_2341)"/>
<path d="M234.885 25.8533C236.554 25.8533 237.907 24.4998 237.907 22.8302C237.907 21.1606 236.554 19.8071 234.885 19.8071C233.216 19.8071 231.863 21.1606 231.863 22.8302C231.863 24.4998 233.216 25.8533 234.885 25.8533Z" fill="url(#paint29_radial_4373_2341)"/>
<path d="M259.033 39.4026C260.702 39.4026 262.055 38.0492 262.055 36.3795C262.055 34.7099 260.702 33.3564 259.033 33.3564C257.365 33.3564 256.012 34.7099 256.012 36.3795C256.012 38.0492 257.365 39.4026 259.033 39.4026Z" fill="url(#paint30_radial_4373_2341)"/>
<path d="M92.2237 91.4455C90.9145 90.3966 89.1641 90.8095 88.1822 91.4929C87.6225 91.8821 87.2952 92.3709 87.1197 92.6984C86.5979 92.6462 85.6729 92.6272 84.672 93.0591C82.5754 93.9608 81.9065 96.0727 81.8069 96.4144C81.6551 96.3859 78.9751 95.9208 77.1014 97.9663C75.2941 99.9405 75.8823 102.456 75.9297 102.646C75.7258 102.679 72.6852 103.229 71.6131 105.859C70.5648 108.421 71.8361 111.867 74.483 112.731C76.1954 113.291 78.1876 112.683 79.6297 111.255C81.3753 112.076 83.4102 111.919 84.9282 110.832C86.7022 109.565 87.4897 107.235 86.8635 105.038C89.814 105.849 92.7787 104.995 94.2776 102.945C94.9322 102.048 95.658 100.448 95.2785 98.5785C94.8848 96.6137 93.5092 95.5221 93.1439 95.2469C93.6942 93.8706 93.3052 92.314 92.2237 91.4455Z" fill="url(#paint31_radial_4373_2341)"/>
<path d="M156.245 125.601C155.301 126.356 153.062 127.865 149.974 128.25C146.45 128.691 142.352 127.039 139.818 124.557C139.164 125.307 136.503 128.207 131.939 129.056C127.125 129.953 123.501 127.946 122.709 127.481C122.016 128.496 119.777 131.363 115.854 132.967C112.505 134.338 108.35 134.168 104.977 132.872C105.808 138.467 102.942 144.509 97.5681 146.483C94.3804 147.655 90.5619 146.407 87.8771 144.537C85.0689 146.773 81.5208 148.082 77.9347 147.836C75.0981 147.641 73.0584 146.445 72.0575 145.747C70.6344 146.568 69.2209 147.399 67.8073 148.244C66.0902 144.452 65.9953 139.872 68.3481 136.308C69.4675 134.614 70.8859 133.47 72.0195 132.739C73.0252 127.182 76.8295 121.596 82.275 119.607C86.2833 118.146 89.7935 118.839 91.2402 119.266C93.8017 115.64 97.402 113.642 101.235 112.588C104.484 111.696 108.497 112.403 111.661 114.268C113.653 111.445 116.703 109.333 120.052 108.706C123.714 108.023 127.523 109.038 130.403 111.516C130.55 111.259 132.627 107.866 136.764 107.449C141.047 107.017 143.39 110.182 143.518 110.362C144.002 110.097 147.048 108.507 150.226 109.684C151.748 110.249 152.678 111.207 153.152 111.796C153.451 111.725 157.104 110.937 159.765 113.443C162.089 115.63 161.871 118.573 161.838 118.99C162.957 121.814 161.956 124.662 160.05 125.654C158.408 126.494 156.577 125.744 156.245 125.601Z" fill="url(#paint32_radial_4373_2341)"/>
<path d="M153.813 117.752C128.16 119.754 103.565 126.745 80.5444 138.676C70.1704 144.395 60.4984 150.897 51.3054 158.371C44.9491 163.853 39.053 169.609 33.5078 175.789C33.7213 176.738 33.9395 177.687 34.1577 178.631C40.0017 171.854 46.2394 165.585 53.0273 159.634C62.0447 152.178 71.5412 145.69 81.7398 139.957C104.452 127.96 128.606 121.045 154.159 118.677C154.586 118.644 154.856 118.411 154.757 118.155C154.657 117.904 154.235 117.718 153.813 117.752Z" fill="url(#paint33_radial_4373_2341)"/>
<path d="M100.433 128.724C98.8867 127.832 96.6004 128.501 95.6896 130.433C95.5805 130.233 93.6499 126.921 89.8978 126.764C86.9853 126.641 84.2246 128.473 83.0719 131.344C80.7618 130.523 78.2572 130.95 76.5923 132.478C74.2585 134.628 74.3107 138.282 75.8665 140.66C77.4556 143.09 80.8994 144.646 83.6601 143.237C86.4208 141.827 86.7149 138.358 86.7291 138.14C87.0517 138.671 87.8012 139.72 89.1531 140.313C89.6274 140.522 90.7421 140.921 92.6775 140.57C96.1355 139.938 100.504 136.863 101.818 132.744C102.331 131.14 101.69 129.455 100.433 128.724Z" fill="url(#paint34_radial_4373_2341)"/>
<path d="M156.617 122.436C158.534 122.436 160.089 120.88 160.089 118.962C160.089 117.043 158.534 115.488 156.617 115.488C154.699 115.488 153.145 117.043 153.145 118.962C153.145 120.88 154.699 122.436 156.617 122.436Z" fill="url(#paint35_radial_4373_2341)"/>
<path d="M147.503 112.849C149.421 112.849 150.976 111.294 150.976 109.375C150.976 107.457 149.421 105.901 147.503 105.901C145.586 105.901 144.031 107.457 144.031 109.375C144.031 111.294 145.586 112.849 147.503 112.849Z" fill="url(#paint36_radial_4373_2341)"/>
<path d="M127.757 122.564C129.675 122.564 131.23 121.009 131.23 119.09C131.23 117.171 129.675 115.616 127.757 115.616C125.84 115.616 124.285 117.171 124.285 119.09C124.285 121.009 125.84 122.564 127.757 122.564Z" fill="url(#paint37_radial_4373_2341)"/>
<path d="M116.33 130.494C118.247 130.494 119.802 128.939 119.802 127.02C119.802 125.102 118.247 123.546 116.33 123.546C114.412 123.546 112.857 125.102 112.857 127.02C112.857 128.939 114.412 130.494 116.33 130.494Z" fill="url(#paint38_radial_4373_2341)"/>
<path d="M99.5094 126.194C101.427 126.194 102.982 124.639 102.982 122.721C102.982 120.802 101.427 119.247 99.5094 119.247C97.5917 119.247 96.0371 120.802 96.0371 122.721C96.0371 124.639 97.5917 126.194 99.5094 126.194Z" fill="url(#paint39_radial_4373_2341)"/>
<path d="M72.5992 141.989C74.5169 141.989 76.0714 140.433 76.0714 138.515C76.0714 136.596 74.5169 135.041 72.5992 135.041C70.6815 135.041 69.127 136.596 69.127 138.515C69.127 140.433 70.6815 141.989 72.5992 141.989Z" fill="url(#paint40_radial_4373_2341)"/>
<path d="M86.023 145.107C87.9407 145.107 89.4953 143.551 89.4953 141.633C89.4953 139.714 87.9407 138.159 86.023 138.159C84.1054 138.159 82.5508 139.714 82.5508 141.633C82.5508 143.551 84.1054 145.107 86.023 145.107Z" fill="url(#paint41_radial_4373_2341)"/>
<path d="M97.2509 135.7C98.3538 135.7 99.2479 134.806 99.2479 133.702C99.2479 132.599 98.3538 131.704 97.2509 131.704C96.148 131.704 95.2539 132.599 95.2539 133.702C95.2539 134.806 96.148 135.7 97.2509 135.7Z" fill="url(#paint42_radial_4373_2341)"/>
<path d="M106.876 137.732C107.979 137.732 108.873 136.837 108.873 135.734C108.873 134.63 107.979 133.736 106.876 133.736C105.773 133.736 104.879 134.63 104.879 135.734C104.879 136.837 105.773 137.732 106.876 137.732Z" fill="url(#paint43_radial_4373_2341)"/>
<path d="M112.102 118.701C113.205 118.701 114.099 117.806 114.099 116.703C114.099 115.599 113.205 114.705 112.102 114.705C111 114.705 110.105 115.599 110.105 116.703C110.105 117.806 111 118.701 112.102 118.701Z" fill="url(#paint44_radial_4373_2341)"/>
<path d="M137.542 126.868C138.645 126.868 139.539 125.974 139.539 124.87C139.539 123.767 138.645 122.872 137.542 122.872C136.439 122.872 135.545 123.767 135.545 124.87C135.545 125.974 136.439 126.868 137.542 126.868Z" fill="url(#paint45_radial_4373_2341)"/>
<path d="M140.032 118.516C141.135 118.516 142.029 117.621 142.029 116.518C142.029 115.414 141.135 114.52 140.032 114.52C138.929 114.52 138.035 115.414 138.035 116.518C138.035 117.621 138.929 118.516 140.032 118.516Z" fill="url(#paint46_radial_4373_2341)"/>
<path d="M233.351 209.807C233.365 182.964 212.309 163.967 201.081 154.138C168.654 125.753 129.051 124.662 114.93 124.975C114.93 124.975 110.067 124.42 101.363 125.701C97.9146 126.209 96.354 127.3 94.3522 128.368C91.4824 129.901 90.3392 133.56 92.0563 136.327C92.0706 136.351 92.0848 136.374 92.099 136.398C92.1085 136.412 92.118 136.427 92.1275 136.441C93.2897 138.249 95.429 139.16 97.5683 138.975C101.605 138.629 106.534 138.557 112.074 139.25C119.725 140.204 125.939 142.283 130.37 144.148C126.537 144.148 122.704 144.148 118.871 144.148C82.2942 144.148 51.6749 174.094 52.154 210.689C52.671 250.284 94.8076 270.516 99.8499 272.979C118.207 281.943 135.407 282.038 143.462 281.996C151.393 281.953 168.545 281.687 186.452 272.756C192.538 269.723 233.332 249.378 233.351 209.807Z" fill="url(#paint47_radial_4373_2341)"/>
<path d="M142.424 226.55C137.41 226.55 134.199 221.733 133.81 221.121C133.15 220.081 133.459 218.7 134.502 218.041C135.546 217.381 136.926 217.69 137.581 218.734C137.685 218.895 140.142 222.753 143.282 221.98C145.275 221.5 146.916 219.36 147.784 217.514C148.311 216.399 149.634 215.919 150.758 216.451C151.873 216.978 152.347 218.311 151.821 219.427C151.005 221.154 148.638 225.288 144.321 226.327C143.671 226.479 143.036 226.55 142.424 226.55Z" fill="white"/>
<path d="M117.64 225.606C122.378 225.606 126.225 221.761 126.225 217.016H109.059C109.059 221.761 112.901 225.606 117.64 225.606Z" fill="white"/>
<path d="M167.862 225.606C172.601 225.606 176.448 221.761 176.448 217.016H159.281C159.281 221.761 163.123 225.606 167.862 225.606Z" fill="white"/>
<defs>
<radialGradient id="paint0_radial_4373_2341" cx="0" cy="0" r="1" gradientUnits="userSpaceOnUse" gradientTransform="translate(165.452 48.5048) rotate(-13.8399) scale(72.8421 97.0243)">
<stop stop-color="#E16E39"/>
<stop offset="0.6705" stop-color="#D16F45"/>
<stop offset="1" stop-color="#C76F4D"/>
</radialGradient>
<radialGradient id="paint1_radial_4373_2341" cx="0" cy="0" r="1" gradientUnits="userSpaceOnUse" gradientTransform="translate(99.3486 127.389) rotate(-51.013) scale(123.404 164.294)">
<stop stop-color="#E1CD51"/>
<stop offset="0.3621" stop-color="#D4BF41"/>
<stop offset="1" stop-color="#B5A01B"/>
</radialGradient>
<radialGradient id="paint2_radial_4373_2341" cx="0" cy="0" r="1" gradientUnits="userSpaceOnUse" gradientTransform="translate(203.823 71.2636) rotate(-13.8399) scale(58.4341 58.4595)">
<stop stop-color="#E1672F"/>
<stop offset="0.6705" stop-color="#D1693D"/>
<stop offset="1" stop-color="#C76B46"/>
</radialGradient>
<radialGradient id="paint3_radial_4373_2341" cx="0" cy="0" r="1" gradientUnits="userSpaceOnUse" gradientTransform="translate(203.823 71.2636) rotate(-13.8399) scale(58.4341 58.4595)">
<stop stop-color="#E1672F"/>
<stop offset="0.6705" stop-color="#D1693D"/>
<stop offset="1" stop-color="#C76B46"/>
</radialGradient>
<radialGradient id="paint4_radial_4373_2341" cx="0" cy="0" r="1" gradientUnits="userSpaceOnUse" gradientTransform="translate(198.371 7.5659) rotate(-51.013) scale(5.24886 6.98806)">
<stop stop-color="#E15329"/>
<stop offset="0.4305" stop-color="#D15132"/>
<stop offset="1" stop-color="#B54D41"/>
</radialGradient>
<radialGradient id="paint5_radial_4373_2341" cx="0" cy="0" r="1" gradientUnits="userSpaceOnUse" gradientTransform="translate(196.638 22.1203) rotate(-51.013) scale(5.24885 6.98805)">
<stop stop-color="#E15329"/>
<stop offset="0.4305" stop-color="#D15132"/>
<stop offset="1" stop-color="#B54D41"/>
</radialGradient>
<radialGradient id="paint6_radial_4373_2341" cx="0" cy="0" r="1" gradientUnits="userSpaceOnUse" gradientTransform="translate(177.025 18.1778) rotate(-51.013) scale(5.24886 6.98806)">
<stop stop-color="#E15329"/>
<stop offset="0.4305" stop-color="#D15132"/>
<stop offset="1" stop-color="#B54D41"/>
</radialGradient>
<radialGradient id="paint7_radial_4373_2341" cx="0" cy="0" r="1" gradientUnits="userSpaceOnUse" gradientTransform="translate(155.797 40.7798) rotate(-51.013) scale(5.24885 6.98805)">
<stop stop-color="#E15329"/>
<stop offset="0.4305" stop-color="#D15132"/>
<stop offset="1" stop-color="#B54D41"/>
</radialGradient>
<radialGradient id="paint8_radial_4373_2341" cx="0" cy="0" r="1" gradientUnits="userSpaceOnUse" gradientTransform="translate(147.77 59.6305) rotate(-51.013) scale(5.24885 6.98805)">
<stop stop-color="#E15329"/>
<stop offset="0.4305" stop-color="#D15132"/>
<stop offset="1" stop-color="#B54D41"/>
</radialGradient>
<radialGradient id="paint9_radial_4373_2341" cx="0" cy="0" r="1" gradientUnits="userSpaceOnUse" gradientTransform="translate(96.2656 49.1363) rotate(-51.013) scale(5.24885 6.98806)">
<stop stop-color="#E15329"/>
<stop offset="0.4305" stop-color="#D15132"/>
<stop offset="1" stop-color="#B54D41"/>
</radialGradient>
<radialGradient id="paint10_radial_4373_2341" cx="0" cy="0" r="1" gradientUnits="userSpaceOnUse" gradientTransform="translate(101.903 82.2551) rotate(-51.013) scale(5.24885 6.98806)">
<stop stop-color="#E15329"/>
<stop offset="0.4305" stop-color="#D15132"/>
<stop offset="1" stop-color="#B54D41"/>
</radialGradient>
<radialGradient id="paint11_radial_4373_2341" cx="0" cy="0" r="1" gradientUnits="userSpaceOnUse" gradientTransform="translate(125.344 81.5249) rotate(-51.013) scale(3.02208 4.02344)">
<stop stop-color="#E15329"/>
<stop offset="0.4305" stop-color="#D15132"/>
<stop offset="1" stop-color="#B54D41"/>
</radialGradient>
<radialGradient id="paint12_radial_4373_2341" cx="0" cy="0" r="1" gradientUnits="userSpaceOnUse" gradientTransform="translate(156.496 73.8285) rotate(-51.013) scale(3.02208 4.02344)">
<stop stop-color="#E15329"/>
<stop offset="0.4305" stop-color="#D15132"/>
<stop offset="1" stop-color="#B54D41"/>
</radialGradient>
<radialGradient id="paint13_radial_4373_2341" cx="0" cy="0" r="1" gradientUnits="userSpaceOnUse" gradientTransform="translate(132.692 48.1755) rotate(-51.013) scale(3.02208 4.02344)">
<stop stop-color="#E15329"/>
<stop offset="0.4305" stop-color="#D15132"/>
<stop offset="1" stop-color="#B54D41"/>
</radialGradient>
<radialGradient id="paint14_radial_4373_2341" cx="0" cy="0" r="1" gradientUnits="userSpaceOnUse" gradientTransform="translate(162.553 54.7644) rotate(-51.0131) scale(3.02208 4.02344)">
<stop stop-color="#E15329"/>
<stop offset="0.4305" stop-color="#D15132"/>
<stop offset="1" stop-color="#B54D41"/>
</radialGradient>
<radialGradient id="paint15_radial_4373_2341" cx="0" cy="0" r="1" gradientUnits="userSpaceOnUse" gradientTransform="translate(161.476 27.2781) rotate(-51.013) scale(3.02208 4.02344)">
<stop stop-color="#E15329"/>
<stop offset="0.4305" stop-color="#D15132"/>
<stop offset="1" stop-color="#B54D41"/>
</radialGradient>
<radialGradient id="paint16_radial_4373_2341" cx="0" cy="0" r="1" gradientUnits="userSpaceOnUse" gradientTransform="translate(250.943 24.945) rotate(-30.4906) scale(5.24808 6.989)">
<stop stop-color="#E15329"/>
<stop offset="0.4305" stop-color="#D15132"/>
<stop offset="1" stop-color="#B54D41"/>
</radialGradient>
<radialGradient id="paint17_radial_4373_2341" cx="0" cy="0" r="1" gradientUnits="userSpaceOnUse" gradientTransform="translate(214.407 20.0715) rotate(-30.4906) scale(5.24808 6.989)">
<stop stop-color="#E15329"/>
<stop offset="0.4305" stop-color="#D15132"/>
<stop offset="1" stop-color="#B54D41"/>
</radialGradient>
<radialGradient id="paint18_radial_4373_2341" cx="0" cy="0" r="1" gradientUnits="userSpaceOnUse" gradientTransform="translate(228.835 10.3141) rotate(-30.4906) scale(5.24808 6.989)">
<stop stop-color="#E15329"/>
<stop offset="0.4305" stop-color="#D15132"/>
<stop offset="1" stop-color="#B54D41"/>
</radialGradient>
<radialGradient id="paint19_radial_4373_2341" cx="0" cy="0" r="1" gradientUnits="userSpaceOnUse" gradientTransform="translate(188.792 49.2888) rotate(-30.4906) scale(5.24808 6.989)">
<stop stop-color="#E15329"/>
<stop offset="0.4305" stop-color="#D15132"/>
<stop offset="1" stop-color="#B54D41"/>
</radialGradient>
<radialGradient id="paint20_radial_4373_2341" cx="0" cy="0" r="1" gradientUnits="userSpaceOnUse" gradientTransform="translate(134.799 69.9799) rotate(-30.4906) scale(5.24809 6.98901)">
<stop stop-color="#E15329"/>
<stop offset="0.4305" stop-color="#D15132"/>
<stop offset="1" stop-color="#B54D41"/>
</radialGradient>
<radialGradient id="paint21_radial_4373_2341" cx="0" cy="0" r="1" gradientUnits="userSpaceOnUse" gradientTransform="translate(119.233 60.4824) rotate(-30.4906) scale(5.24809 6.989)">
<stop stop-color="#E15329"/>
<stop offset="0.4305" stop-color="#D15132"/>
<stop offset="1" stop-color="#B54D41"/>
</radialGradient>
<radialGradient id="paint22_radial_4373_2341" cx="0" cy="0" r="1" gradientUnits="userSpaceOnUse" gradientTransform="translate(124.293 42.1921) rotate(-30.4906) scale(5.24808 6.989)">
<stop stop-color="#E15329"/>
<stop offset="0.4305" stop-color="#D15132"/>
<stop offset="1" stop-color="#B54D41"/>
</radialGradient>
<radialGradient id="paint23_radial_4373_2341" cx="0" cy="0" r="1" gradientUnits="userSpaceOnUse" gradientTransform="translate(80.0506 80.3721) rotate(-30.4906) scale(5.24809 6.989)">
<stop stop-color="#E15329"/>
<stop offset="0.4305" stop-color="#D15132"/>
<stop offset="1" stop-color="#B54D41"/>
</radialGradient>
<radialGradient id="paint24_radial_4373_2341" cx="0" cy="0" r="1" gradientUnits="userSpaceOnUse" gradientTransform="translate(95.3115 66.4097) rotate(-30.4906) scale(3.02163 4.02398)">
<stop stop-color="#E15329"/>
<stop offset="0.4305" stop-color="#D15132"/>
<stop offset="1" stop-color="#B54D41"/>
</radialGradient>
<radialGradient id="paint25_radial_4373_2341" cx="0" cy="0" r="1" gradientUnits="userSpaceOnUse" gradientTransform="translate(192.672 36.8345) rotate(-30.4906) scale(3.02164 4.02399)">
<stop stop-color="#E15329"/>
<stop offset="0.4305" stop-color="#D15132"/>
<stop offset="1" stop-color="#B54D41"/>
</radialGradient>
<radialGradient id="paint26_radial_4373_2341" cx="0" cy="0" r="1" gradientUnits="userSpaceOnUse" gradientTransform="translate(142.92 32.1086) rotate(-30.4906) scale(3.02164 4.02399)">
<stop stop-color="#E15329"/>
<stop offset="0.4305" stop-color="#D15132"/>
<stop offset="1" stop-color="#B54D41"/>
</radialGradient>
<radialGradient id="paint27_radial_4373_2341" cx="0" cy="0" r="1" gradientUnits="userSpaceOnUse" gradientTransform="translate(144.085 44.2872) rotate(-30.4907) scale(3.02163 4.02398)">
<stop stop-color="#E15329"/>
<stop offset="0.4305" stop-color="#D15132"/>
<stop offset="1" stop-color="#B54D41"/>
</radialGradient>
<radialGradient id="paint28_radial_4373_2341" cx="0" cy="0" r="1" gradientUnits="userSpaceOnUse" gradientTransform="translate(171.846 43.482) rotate(-30.4907) scale(3.02163 4.02398)">
<stop stop-color="#E15329"/>
<stop offset="0.4305" stop-color="#D15132"/>
<stop offset="1" stop-color="#B54D41"/>
</radialGradient>
<radialGradient id="paint29_radial_4373_2341" cx="0" cy="0" r="1" gradientUnits="userSpaceOnUse" gradientTransform="translate(234.859 22.8217) rotate(-30.4906) scale(3.02164 4.02399)">
<stop stop-color="#E15329"/>
<stop offset="0.4305" stop-color="#D15132"/>
<stop offset="1" stop-color="#B54D41"/>
</radialGradient>
<radialGradient id="paint30_radial_4373_2341" cx="0" cy="0" r="1" gradientUnits="userSpaceOnUse" gradientTransform="translate(259.007 36.3676) rotate(-30.4907) scale(3.02163 4.02398)">
<stop stop-color="#E15329"/>
<stop offset="0.4305" stop-color="#D15132"/>
<stop offset="1" stop-color="#B54D41"/>
</radialGradient>
<radialGradient id="paint31_radial_4373_2341" cx="0" cy="0" r="1" gradientUnits="userSpaceOnUse" gradientTransform="translate(120.678 98.0368) rotate(-23.2758) scale(26.8948 26.9039)">
<stop stop-color="#E1672F"/>
<stop offset="0.6705" stop-color="#D1693D"/>
<stop offset="1" stop-color="#C76B46"/>
</radialGradient>
<radialGradient id="paint32_radial_4373_2341" cx="0" cy="0" r="1" gradientUnits="userSpaceOnUse" gradientTransform="translate(114.302 127.498) rotate(-1.5881) scale(36.719 48.9129)">
<stop stop-color="#E17239"/>
<stop offset="0.6705" stop-color="#D17345"/>
<stop offset="1" stop-color="#C7734D"/>
</radialGradient>
<radialGradient id="paint33_radial_4373_2341" cx="0" cy="0" r="1" gradientUnits="userSpaceOnUse" gradientTransform="translate(67.3185 201.91) rotate(-65.0756) scale(85.6971 114.063)">
<stop stop-color="#E1CF51"/>
<stop offset="0.4305" stop-color="#D1BF41"/>
<stop offset="1" stop-color="#B5A427"/>
</radialGradient>
<radialGradient id="paint34_radial_4373_2341" cx="0" cy="0" r="1" gradientUnits="userSpaceOnUse" gradientTransform="translate(79.0567 170.811) rotate(-9.13611) scale(39.9713 39.9899)">
<stop stop-color="#E16C2F"/>
<stop offset="0.6705" stop-color="#D16E3D"/>
<stop offset="1" stop-color="#C76F46"/>
</radialGradient>
<radialGradient id="paint35_radial_4373_2341" cx="0" cy="0" r="1" gradientUnits="userSpaceOnUse" gradientTransform="translate(156.582 119.011) rotate(-22.2891) scale(3.47008 4.62195)">
<stop stop-color="#E15329"/>
<stop offset="0.4305" stop-color="#D15132"/>
<stop offset="1" stop-color="#B54D41"/>
</radialGradient>
<radialGradient id="paint36_radial_4373_2341" cx="0" cy="0" r="1" gradientUnits="userSpaceOnUse" gradientTransform="translate(147.47 109.421) rotate(-22.289) scale(3.47009 4.62195)">
<stop stop-color="#E15329"/>
<stop offset="0.4305" stop-color="#D15132"/>
<stop offset="1" stop-color="#B54D41"/>
</radialGradient>
<radialGradient id="paint37_radial_4373_2341" cx="0" cy="0" r="1" gradientUnits="userSpaceOnUse" gradientTransform="translate(127.724 119.138) rotate(-22.289) scale(3.47008 4.62195)">
<stop stop-color="#E15329"/>
<stop offset="0.4305" stop-color="#D15132"/>
<stop offset="1" stop-color="#B54D41"/>
</radialGradient>
<radialGradient id="paint38_radial_4373_2341" cx="0" cy="0" r="1" gradientUnits="userSpaceOnUse" gradientTransform="translate(116.299 127.066) rotate(-22.2891) scale(3.47008 4.62196)">
<stop stop-color="#E15329"/>
<stop offset="0.4305" stop-color="#D15132"/>
<stop offset="1" stop-color="#B54D41"/>
</radialGradient>
<radialGradient id="paint39_radial_4373_2341" cx="0" cy="0" r="1" gradientUnits="userSpaceOnUse" gradientTransform="translate(99.4789 122.768) rotate(-22.2891) scale(3.47008 4.62196)">
<stop stop-color="#E15329"/>
<stop offset="0.4305" stop-color="#D15132"/>
<stop offset="1" stop-color="#B54D41"/>
</radialGradient>
<radialGradient id="paint40_radial_4373_2341" cx="0" cy="0" r="1" gradientUnits="userSpaceOnUse" gradientTransform="translate(72.5708 138.559) rotate(-22.2891) scale(3.47008 4.62196)">
<stop stop-color="#E15329"/>
<stop offset="0.4305" stop-color="#D15132"/>
<stop offset="1" stop-color="#B54D41"/>
</radialGradient>
<radialGradient id="paint41_radial_4373_2341" cx="0" cy="0" r="1" gradientUnits="userSpaceOnUse" gradientTransform="translate(85.9924 141.678) rotate(-22.289) scale(3.47008 4.62195)">
<stop stop-color="#E15329"/>
<stop offset="0.4305" stop-color="#D15132"/>
<stop offset="1" stop-color="#B54D41"/>
</radialGradient>
<radialGradient id="paint42_radial_4373_2341" cx="0" cy="0" r="1" gradientUnits="userSpaceOnUse" gradientTransform="translate(97.2192 133.75) rotate(-22.2891) scale(1.99791 2.6611)">
<stop stop-color="#E15329"/>
<stop offset="0.4305" stop-color="#D15132"/>
<stop offset="1" stop-color="#B54D41"/>
</radialGradient>
<radialGradient id="paint43_radial_4373_2341" cx="0" cy="0" r="1" gradientUnits="userSpaceOnUse" gradientTransform="translate(106.844 135.78) rotate(-22.2891) scale(1.99791 2.6611)">
<stop stop-color="#E15329"/>
<stop offset="0.4305" stop-color="#D15132"/>
<stop offset="1" stop-color="#B54D41"/>
</radialGradient>
<radialGradient id="paint44_radial_4373_2341" cx="0" cy="0" r="1" gradientUnits="userSpaceOnUse" gradientTransform="translate(112.072 116.747) rotate(-22.289) scale(1.99791 2.6611)">
<stop stop-color="#E15329"/>
<stop offset="0.4305" stop-color="#D15132"/>
<stop offset="1" stop-color="#B54D41"/>
</radialGradient>
<radialGradient id="paint45_radial_4373_2341" cx="0" cy="0" r="1" gradientUnits="userSpaceOnUse" gradientTransform="translate(137.512 124.92) rotate(-22.289) scale(1.9979 2.66109)">
<stop stop-color="#E15329"/>
<stop offset="0.4305" stop-color="#D15132"/>
<stop offset="1" stop-color="#B54D41"/>
</radialGradient>
<radialGradient id="paint46_radial_4373_2341" cx="0" cy="0" r="1" gradientUnits="userSpaceOnUse" gradientTransform="translate(140 116.567) rotate(-22.2891) scale(1.9979 2.6611)">
<stop stop-color="#E15329"/>
<stop offset="0.4305" stop-color="#D15132"/>
<stop offset="1" stop-color="#B54D41"/>
</radialGradient>
<radialGradient id="paint47_radial_4373_2341" cx="0" cy="0" r="1" gradientUnits="userSpaceOnUse" gradientTransform="translate(142.752 203.426) scale(84.782 84.8237)">
<stop stop-color="#BE6009"/>
<stop offset="0.6447" stop-color="#B93325"/>
<stop offset="0.807" stop-color="#BB2835"/>
<stop offset="1" stop-color="#BF184E"/>
</radialGradient>
</defs>
</svg>
