<svg width="419" height="620" viewBox="0 0 419 620" fill="none" xmlns="http://www.w3.org/2000/svg">
<path d="M356.044 389.523C352.211 428.736 335.016 466.475 301.765 488.869C268.844 511.043 226.332 515.535 187.927 509.982C183.311 509.342 181.001 509.041 176.374 508.481C137.722 503.672 98.0386 489.018 71.7076 458.987C48.9343 433.007 40.2001 398.393 42.7191 364.405L359.517 352.3C358.359 364.714 357.201 377.119 356.044 389.523Z" fill="url(#paint0_linear_2267_614)"/>
<path d="M359.08 352.717C359.783 370.98 289.55 388.509 202.22 391.869C114.891 395.218 43.5228 383.134 42.8206 364.862C42.1171 346.599 112.35 329.069 199.68 325.71C287.011 322.351 358.377 334.445 359.08 352.717Z" fill="url(#paint1_linear_2267_614)"/>
<path d="M103.102 384.358C59.0624 378.638 47.0125 369.318 46.835 364.707C46.6535 359.894 57.6402 351.469 89.218 343.59C118.587 336.262 157.868 331.341 199.846 329.725C235.701 328.352 270.845 329.589 298.81 333.221C342.85 338.942 354.9 348.261 355.077 352.873C355.259 357.686 344.272 366.111 312.694 373.989C283.326 381.317 244.044 386.239 202.067 387.855C166.211 389.228 131.058 387.99 103.102 384.358Z" fill="url(#paint2_radial_2267_614)"/>
<path d="M176.641 349.531C174.312 350.691 164.06 355.782 164.757 360.28C166.253 369.953 217.366 370.058 234.64 360.664C236.626 359.581 241.844 356.75 241.41 353.799C241.085 351.569 237.669 350.228 235.15 349.356C218.48 343.621 200.451 345.01 193.853 345.656C183.863 346.637 180.025 347.853 176.641 349.531Z" fill="#FFE6CC"/>
<path d="M144.907 356.361C146.064 354.675 155.478 357.663 155.313 358.932C155.17 360.033 147.626 361.282 145.382 358.217C145.28 358.073 144.484 356.981 144.907 356.361Z" fill="#063B01"/>
<path d="M204.289 380.833C205.151 381.883 207.039 382.481 208.217 381.878C210.92 380.474 209.662 372.697 207.868 372.374C206.163 372.071 202.085 378.157 204.289 380.833Z" fill="#063B01"/>
<path d="M164.258 375.149C164.493 376.209 168.918 377.076 172.307 375.207C174.622 373.924 176.511 371.336 175.888 370.539C174.685 369.011 163.862 373.384 164.258 375.149Z" fill="#063B01"/>
<path d="M248.489 372.204C244.93 373.597 238.776 368.028 239.434 366.692C239.872 365.801 243.398 366.682 247.353 367.68C249.521 368.224 250.337 368.612 250.544 369.274C250.876 370.286 249.743 371.712 248.489 372.204Z" fill="#063B01"/>
<path d="M201.407 338.348C200.562 337.633 197.323 338.503 197.045 339.707C196.982 339.961 197.165 340.338 197.521 341.09C198.116 342.337 198.409 342.95 198.714 343.01C199.858 343.209 202.525 339.29 201.407 338.348Z" fill="#063B01"/>
<path d="M171.381 342.041C169.614 341.831 167.798 342.846 167.855 343.569C167.973 344.835 174.059 346.039 174.643 344.955C175.002 344.286 173.537 342.291 171.381 342.041Z" fill="#063B01"/>
<path d="M255.53 347.496C255.657 346.675 252.653 344.954 249.661 345.473C247.608 345.831 245.509 347.243 245.737 347.968C246.191 349.368 255.331 348.871 255.53 347.496Z" fill="#063B01"/>
<path d="M155.965 347.995C155.736 347.28 156.928 346.093 158.219 345.706C161.47 344.747 165.623 348.796 165.206 349.599C165.112 349.778 164.817 349.72 160.549 349.115C156.936 348.595 156.122 348.499 155.965 347.995Z" fill="#A2C71E"/>
<path d="M224.891 338.676C226.097 337.461 228.195 337.149 228.642 337.741C229.435 338.782 225.626 343.339 224.419 342.85C223.68 342.562 223.417 340.158 224.891 338.676Z" fill="#063B01"/>
<path d="M245.708 340.432C245.774 339.694 244.336 338.731 242.973 338.584C239.563 338.212 236.421 342.916 237.004 343.627C237.135 343.786 237.412 343.67 241.458 342.33C244.883 341.192 245.661 340.95 245.708 340.432Z" fill="#A2C71E"/>
<path d="M181.885 378.488C182.58 379.889 187.411 380.275 189.898 377.895C192.259 375.63 191.972 371.398 190.591 370.775C189.791 370.409 188.638 371.288 186.872 372.621C185.059 373.999 181.143 376.98 181.885 378.488Z" fill="#A2C71E"/>
<path d="M151.269 367.069C151.059 367.838 151.826 368.684 152.4 369.081C155.474 371.185 162.55 366.941 162.168 365.691C161.761 364.318 151.923 364.673 151.269 367.069Z" fill="#A2C71E"/>
<path d="M215.611 338.459C215.261 337.818 213.771 337.332 212.76 337.504C210.233 337.942 210.586 342.596 211.373 343.061C211.551 343.165 211.672 343.009 213.73 340.987C215.455 339.275 215.856 338.904 215.611 338.459Z" fill="#A2C71E"/>
<path d="M229.492 376.383C229.225 377.588 225.881 378.566 223.52 377.412C220.619 375.986 219.976 371.698 221.059 370.971C221.7 370.54 222.991 371.313 225.189 372.637C227.641 374.095 229.718 375.343 229.492 376.383Z" fill="#A2C71E"/>
<path d="M185.806 339.135C184.951 338.963 183.486 338.985 183.17 339.629C182.593 340.815 185.927 344.102 187.367 343.573C188.183 343.275 188.578 341.703 187.991 340.558C187.407 339.464 186.141 339.198 185.806 339.135Z" fill="#A2C71E"/>
<path d="M257.196 354.781C257.696 355.431 257.309 356.469 256.924 357.025C254.886 359.987 246.602 358.316 246.468 357.018C246.307 355.615 255.644 352.754 257.196 354.781Z" fill="#A2C71E"/>
<path d="M194.916 288.514C108.257 290.633 38.3696 307.176 38.8249 325.445C38.8388 326.145 38.9744 326.842 39.2002 327.532C40.9365 335.099 42.6747 342.677 44.4111 350.245C46.6284 359.919 53.9338 367.627 63.486 370.333C97.6375 379.992 145.547 389.259 202.929 387.514C257.647 385.85 303.179 374.714 336.408 363.496C348.531 359.407 356.107 347.339 354.594 334.634C353.941 329.128 353.29 323.631 352.627 318.126C352.633 318.003 352.64 317.879 352.637 317.757C352.18 299.479 281.572 286.385 194.916 288.514Z" fill="url(#paint3_linear_2267_614)"/>
<path d="M295.688 341.382C339.281 332.905 350.722 322.847 350.609 318.233C350.488 313.418 338.994 305.7 306.983 299.822C277.212 294.353 237.699 291.91 195.703 292.935C159.832 293.818 124.836 297.26 97.1541 302.643C53.5605 311.119 42.12 321.178 42.2326 325.791C42.354 330.606 53.8484 338.324 85.8589 344.203C115.63 349.671 155.143 352.114 197.139 351.09C233.01 350.207 268.006 346.764 295.688 341.382Z" fill="url(#paint4_radial_2267_614)"/>
<path d="M220.097 311.245C222.494 312.256 233.045 316.694 232.632 321.226C231.747 330.974 180.742 334.29 162.912 326.001C160.862 325.045 155.476 322.547 155.723 319.575C155.908 317.328 159.233 315.775 161.692 314.747C177.968 307.976 196.049 308.229 202.675 308.459C212.706 308.811 216.614 309.783 220.097 311.245Z" fill="#FFE6CC"/>
<path d="M252.207 316.065C250.947 314.456 241.74 318.029 241.984 319.285C242.196 320.375 249.803 321.147 251.85 317.948C251.943 317.797 252.669 316.658 252.207 316.065Z" fill="#063B01"/>
<path d="M194.47 344.222C193.675 345.324 191.818 346.042 190.615 345.512C187.829 344.281 188.596 336.44 190.366 336.005C192.059 335.594 196.501 341.413 194.47 344.222Z" fill="#063B01"/>
<path d="M234.075 336.033C233.906 337.105 229.545 338.248 226.045 336.596C223.654 335.461 221.606 332.997 222.178 332.162C223.282 330.562 234.359 334.246 234.075 336.033Z" fill="#063B01"/>
<path d="M149.815 338.388C153.455 339.555 159.247 333.611 158.506 332.318C158.013 331.456 154.549 332.558 150.666 333.802C148.536 334.481 147.745 334.92 147.581 335.594C147.322 336.622 148.533 337.976 149.815 338.388Z" fill="#063B01"/>
<path d="M194.676 301.641C195.474 300.874 198.761 301.539 199.114 302.723C199.193 302.973 199.034 303.36 198.726 304.133C198.211 305.415 197.957 306.045 197.656 306.124C196.537 306.393 193.619 302.651 194.676 301.641Z" fill="#063B01"/>
<path d="M224.884 303.438C226.635 303.118 228.511 304.016 228.499 304.742C228.461 306.013 222.463 307.596 221.811 306.552C221.401 305.908 222.748 303.823 224.884 303.438Z" fill="#063B01"/>
<path d="M141.236 314.171C141.058 313.36 143.947 311.453 146.965 311.783C149.037 312.012 151.221 313.289 151.039 314.027C150.684 315.451 141.531 315.53 141.236 314.171Z" fill="#063B01"/>
<path d="M240.644 308.411C240.828 307.683 239.563 306.574 238.251 306.268C234.946 305.515 231.056 309.817 231.523 310.592C231.628 310.765 231.918 310.688 236.139 309.817C239.703 309.073 240.51 308.926 240.644 308.411Z" fill="#A2C71E"/>
<path d="M171.27 303.441C169.989 302.305 167.876 302.125 167.467 302.744C166.741 303.833 170.829 308.142 172.003 307.577C172.713 307.246 172.833 304.828 171.27 303.441Z" fill="#063B01"/>
<path d="M150.605 306.502C150.493 305.77 151.868 304.718 153.218 304.486C156.598 303.9 160.03 308.398 159.492 309.144C159.372 309.31 159.088 309.212 154.966 308.129C151.466 307.21 150.675 307.018 150.605 306.502Z" fill="#A2C71E"/>
<path d="M216.683 340.474C216.077 341.916 211.281 342.604 208.649 340.386C206.152 338.284 206.171 334.032 207.51 333.323C208.285 332.908 209.491 333.712 211.337 334.932C213.243 336.192 217.339 338.92 216.683 340.474Z" fill="#A2C71E"/>
<path d="M246.519 327.154C246.778 327.909 246.065 328.801 245.517 329.234C242.581 331.526 235.253 327.735 235.556 326.464C235.875 325.067 245.716 324.804 246.519 327.154Z" fill="#A2C71E"/>
<path d="M180.516 302.642C180.826 301.98 182.282 301.402 183.301 301.509C185.851 301.788 185.791 306.455 185.035 306.969C184.864 307.083 184.734 306.936 182.553 305.047C180.724 303.447 180.3 303.101 180.516 302.642Z" fill="#A2C71E"/>
<path d="M169.036 341.364C169.379 342.551 172.778 343.316 175.062 342.016C177.867 340.411 178.239 336.091 177.113 335.434C176.446 335.044 175.206 335.896 173.096 337.356C170.74 338.965 168.746 340.341 169.036 341.364Z" fill="#A2C71E"/>
<path d="M210.307 301.444C211.149 301.219 212.612 301.148 212.968 301.772C213.619 302.919 210.498 306.409 209.027 305.971C208.195 305.725 207.701 304.181 208.215 303.002C208.72 301.875 209.977 301.528 210.307 301.444Z" fill="#A2C71E"/>
<path d="M140.04 321.545C139.581 322.225 140.033 323.237 140.451 323.767C142.672 326.595 150.834 324.407 150.886 323.103C150.949 321.695 141.461 319.424 140.04 321.545Z" fill="#A2C71E"/>
<path d="M199.766 252.594C286.387 249.264 357.175 261.383 357.879 279.646C357.909 280.346 357.817 281.05 357.635 281.752C356.378 289.414 355.119 297.086 353.862 304.748C352.257 314.543 345.45 322.694 336.087 325.995C302.61 337.781 255.378 350.039 197.999 351.904C143.285 353.681 97.1431 345.429 63.2742 336.321C50.9189 333.001 42.5996 321.433 43.311 308.659C43.6168 303.122 43.9212 297.595 44.2369 292.06C44.2226 291.937 44.2083 291.814 44.2039 291.692C43.4918 273.418 113.147 255.915 199.766 252.594Z" fill="url(#paint5_linear_2267_614)"/>
<path d="M371.249 292.777L350.756 296.448C350.581 296.476 350.457 296.651 350.495 296.828C350.525 296.983 350.652 297.09 350.803 297.09L371.614 297.574C372.961 297.608 374.086 296.554 374.119 295.217C374.151 293.88 373.085 292.774 371.738 292.74C371.577 292.739 371.403 292.757 371.249 292.777Z" fill="#F3C344"/>
<path d="M364.941 318.902L348.133 306.857C347.792 306.611 347.318 306.691 347.073 307.022C346.852 307.326 346.89 307.734 347.149 307.99L361.774 322.555C362.721 323.495 364.273 323.505 365.223 322.559C366.181 321.625 366.188 320.093 365.242 319.153C365.153 319.061 365.043 318.976 364.941 318.902Z" fill="#F3C344"/>
<path d="M103.862 310.786C59.8222 305.065 47.7722 295.746 47.5947 291.134C47.4132 286.321 58.4 277.896 89.9778 270.018C119.346 262.69 158.628 257.768 200.605 256.152C236.461 254.779 271.604 256.016 299.57 259.649C343.61 265.369 355.659 274.689 355.837 279.3C356.018 284.113 345.032 292.538 313.454 300.417C284.085 307.745 244.804 312.666 202.826 314.282C166.971 315.655 131.817 314.417 103.862 310.786Z" fill="url(#paint6_radial_2267_614)"/>
<path d="M177.4 275.958C175.071 277.118 164.82 282.21 165.517 286.707C167.013 296.38 218.125 296.485 235.399 287.092C237.385 286.008 242.604 283.177 242.17 280.227C241.845 277.996 238.429 276.655 235.91 275.783C219.24 270.048 201.211 271.437 194.613 272.083C184.623 273.064 180.785 274.28 177.4 275.958Z" fill="#FFE6CC"/>
<path d="M145.665 282.798C146.822 281.112 156.235 284.1 156.071 285.369C155.928 286.47 148.384 287.719 146.14 284.654C146.039 284.5 145.243 283.408 145.665 282.798Z" fill="#063B01"/>
<path d="M205.049 307.26C205.911 308.31 207.799 308.908 208.977 308.305C211.68 306.901 210.421 299.125 208.628 298.801C206.923 298.499 202.845 304.584 205.049 307.26Z" fill="#063B01"/>
<path d="M165.016 301.586C165.252 302.646 169.677 303.513 173.066 301.644C175.38 300.361 177.27 297.773 176.647 296.976C175.444 295.448 164.62 299.821 165.016 301.586Z" fill="#063B01"/>
<path d="M249.248 298.632C245.689 300.025 239.535 294.456 240.193 293.119C240.631 292.228 244.157 293.11 248.111 294.107C250.279 294.651 251.096 295.04 251.303 295.702C251.635 296.713 250.501 298.149 249.248 298.632Z" fill="#063B01"/>
<path d="M202.167 264.785C201.322 264.07 198.083 264.94 197.805 266.144C197.742 266.398 197.925 266.775 198.281 267.527C198.875 268.774 199.169 269.387 199.474 269.447C200.618 269.646 203.286 265.717 202.167 264.785Z" fill="#063B01"/>
<path d="M172.141 268.468C170.373 268.259 168.558 269.273 168.615 269.997C168.733 271.262 174.818 272.466 175.403 271.383C175.762 270.713 174.297 268.718 172.141 268.468Z" fill="#063B01"/>
<path d="M256.29 273.923C256.416 273.102 253.413 271.381 250.421 271.9C248.368 272.259 246.269 273.67 246.497 274.395C246.951 275.795 256.091 275.299 256.29 273.923Z" fill="#063B01"/>
<path d="M156.726 274.422C156.496 273.706 157.689 272.52 158.98 272.133C162.23 271.174 166.383 275.223 165.967 276.026C165.873 276.205 165.578 276.146 161.31 275.542C157.697 275.022 156.882 274.926 156.726 274.422Z" fill="#A2C71E"/>
<path d="M225.639 265.111C226.846 263.897 228.943 263.584 229.391 264.177C230.183 265.218 226.375 269.775 225.168 269.285C224.44 268.989 224.177 266.585 225.639 265.111Z" fill="#063B01"/>
<path d="M246.468 266.859C246.533 266.121 245.096 265.158 243.733 265.011C240.323 264.639 237.181 269.343 237.764 270.054C237.895 270.212 238.172 270.097 242.218 268.757C245.643 267.619 246.421 267.377 246.468 266.859Z" fill="#A2C71E"/>
<path d="M182.645 304.915C183.34 306.316 188.17 306.701 190.658 304.322C193.019 302.057 192.732 297.825 191.351 297.202C190.551 296.836 189.398 297.715 187.632 299.048C185.818 300.436 181.903 303.407 182.645 304.915Z" fill="#A2C71E"/>
<path d="M152.03 293.496C151.819 294.266 152.587 295.112 153.16 295.509C156.235 297.612 163.311 293.368 162.929 292.119C162.522 290.745 152.683 291.111 152.03 293.496Z" fill="#A2C71E"/>
<path d="M216.372 264.885C216.021 264.245 214.532 263.759 213.521 263.93C210.994 264.368 211.347 269.023 212.134 269.488C212.312 269.592 212.433 269.436 214.49 267.414C216.214 265.712 216.616 265.331 216.372 264.885Z" fill="#A2C71E"/>
<path d="M230.252 302.809C229.984 304.015 226.641 304.992 224.28 303.839C221.379 302.413 220.736 298.125 221.819 297.398C222.459 296.967 223.751 297.74 225.948 299.064C228.401 300.522 230.478 301.77 230.252 302.809Z" fill="#A2C71E"/>
<path d="M186.566 265.562C185.711 265.391 184.246 265.412 183.93 266.057C183.353 267.242 186.687 270.529 188.127 270C188.942 269.703 189.338 268.131 188.751 266.985C188.167 265.891 186.899 265.636 186.566 265.562Z" fill="#A2C71E"/>
<path d="M257.955 281.208C258.455 281.858 258.068 282.897 257.684 283.452C255.645 286.414 247.361 284.743 247.227 283.445C247.067 282.042 256.402 279.191 257.955 281.208Z" fill="#A2C71E"/>
<path d="M356.776 274.224C353.66 260.915 350.531 247.599 347.415 234.29C329.525 155.858 254.411 86.8645 170.948 103.94C166.836 104.748 164.786 105.152 160.674 105.96C80.7531 121.044 37.5768 205.859 45.274 282.576L45.4466 282.572C45.4464 282.623 45.4462 282.674 45.4461 282.725C45.567 287.797 57.2592 295.791 89.7822 301.605C119.718 306.96 159.444 309.237 201.652 308.02C237.476 306.989 272.485 303.417 300.224 297.962C340.914 289.96 355.819 280.293 356.38 274.231L356.776 274.224Z" fill="url(#paint7_linear_2267_614)"/>
<path d="M30.1033 276.845L50.8992 275.732C51.0816 275.726 51.2302 275.86 51.2453 276.041C51.2566 276.201 51.1502 276.334 51.005 276.373L30.8663 281.658C29.5571 281.997 28.2221 281.22 27.8831 279.911C27.5441 278.602 28.3211 277.267 29.6303 276.928C29.7736 276.879 29.9424 276.856 30.1033 276.845Z" fill="#F3C344"/>
<path d="M37.9229 250.889L53.4578 264.742C53.6201 264.893 53.6388 265.144 53.4873 265.306C53.3535 265.455 53.1435 265.476 52.983 265.385L35.0469 254.817C33.8822 254.129 33.4968 252.636 34.185 251.471C34.8732 250.306 36.3669 249.921 37.5316 250.609C37.6705 250.694 37.8016 250.79 37.9229 250.889Z" fill="#F3C344"/>
<path d="M203.545 81.8352L201.256 102.536C201.24 102.712 201.073 102.847 200.894 102.821C200.738 102.801 200.622 102.681 200.603 102.532L198.676 81.7939C198.554 80.4521 199.543 79.259 200.883 79.128C202.225 79.0068 203.418 79.9952 203.549 81.3351C203.572 81.5038 203.565 81.6783 203.545 81.8352Z" fill="#F3C344"/>
<path d="M227.887 93.7731L211.685 106.845C211.508 106.982 211.259 106.959 211.122 106.782C211.001 106.633 211.01 106.417 211.124 106.272L224.472 90.2967C225.339 89.2601 226.881 89.1199 227.917 89.9862C228.954 90.8525 229.094 92.3944 228.228 93.431C228.131 93.5621 228.001 93.6794 227.887 93.7731Z" fill="#F3C344"/>
<path d="M177.615 89.8997L190.942 105.848C191.21 106.172 191.171 106.649 190.847 106.916C190.557 107.157 190.138 107.147 189.856 106.907L174.148 93.3127C173.129 92.4328 173.018 90.8851 173.898 89.8661C174.778 88.8472 176.326 88.7365 177.345 89.6164C177.433 89.701 177.534 89.8034 177.615 89.8997Z" fill="#F3C344"/>
<path d="M169.641 266.07C163.247 265.84 157.871 270.841 157.64 277.236C157.41 283.63 162.411 289.006 168.806 289.237C175.2 289.467 180.576 284.466 180.807 278.071C181.045 271.665 176.046 266.299 169.641 266.07ZM159.785 277.313C159.973 272.099 164.357 268.016 169.572 268.204C174.786 268.391 178.869 272.776 178.681 277.99L159.785 277.313Z" fill="#C4CF4D"/>
<path d="M237.411 268.489C231.016 268.258 225.64 273.259 225.41 279.654C225.179 286.049 230.18 291.425 236.575 291.655C242.97 291.886 248.346 286.884 248.576 280.49C248.805 274.085 243.805 268.719 237.411 268.489ZM227.545 279.733C227.733 274.519 232.117 270.437 237.331 270.624C242.545 270.812 246.628 275.196 246.441 280.41L227.545 279.733Z" fill="#C4CF4D"/>
<path d="M197.326 286.818C197.319 283.569 200.769 277.428 203.906 279.338C206.302 280.793 208.556 286.913 208.209 289.866C207.559 295.426 197.326 292.414 197.326 286.818Z" fill="#C4CF4D"/>
<defs>
<linearGradient id="paint0_linear_2267_614" x1="187.202" y1="471.044" x2="227.533" y2="160.549" gradientUnits="userSpaceOnUse">
<stop stop-color="#6A4727"/>
<stop offset="0.1931" stop-color="#734D2A"/>
<stop offset="0.5059" stop-color="#8B5E31"/>
<stop offset="0.8973" stop-color="#B27A3D"/>
<stop offset="1" stop-color="#BD8240"/>
</linearGradient>
<linearGradient id="paint1_linear_2267_614" x1="46.1204" y1="338.674" x2="355.775" y2="378.895" gradientUnits="userSpaceOnUse">
<stop stop-color="#6A4727"/>
<stop offset="0.1931" stop-color="#734D2A"/>
<stop offset="0.5059" stop-color="#8B5E31"/>
<stop offset="0.8973" stop-color="#B27A3D"/>
<stop offset="1" stop-color="#BD8240"/>
</linearGradient>
<radialGradient id="paint2_radial_2267_614" cx="0" cy="0" r="1" gradientUnits="userSpaceOnUse" gradientTransform="translate(200.905 358.808) rotate(-2.28858) scale(152.776 30.4246)">
<stop stop-color="#C4CF4D"/>
<stop offset="0.2634" stop-color="#C6D24D"/>
<stop offset="0.4274" stop-color="#CCDA4E"/>
<stop offset="0.5637" stop-color="#D5E950"/>
<stop offset="0.6193" stop-color="#DBF151"/>
<stop offset="1" stop-color="#C4CF4D"/>
</radialGradient>
<linearGradient id="paint3_linear_2267_614" x1="46.6098" y1="365.996" x2="350.619" y2="306.884" gradientUnits="userSpaceOnUse">
<stop stop-color="#6A4727"/>
<stop offset="0.1931" stop-color="#734D2A"/>
<stop offset="0.5059" stop-color="#8B5E31"/>
<stop offset="0.8973" stop-color="#B27A3D"/>
<stop offset="1" stop-color="#BD8240"/>
</linearGradient>
<radialGradient id="paint4_radial_2267_614" cx="0" cy="0" r="1" gradientUnits="userSpaceOnUse" gradientTransform="translate(196.78 322.315) rotate(178.686) scale(152.776 30.4246)">
<stop stop-color="#C4CF4D"/>
<stop offset="0.2634" stop-color="#C6D24D"/>
<stop offset="0.4274" stop-color="#CCDA4E"/>
<stop offset="0.5637" stop-color="#D5E950"/>
<stop offset="0.6193" stop-color="#DBF151"/>
<stop offset="1" stop-color="#C4CF4D"/>
</radialGradient>
<linearGradient id="paint5_linear_2267_614" x1="352.644" y1="320.605" x2="45.5214" y2="280.712" gradientUnits="userSpaceOnUse">
<stop stop-color="#6A4727"/>
<stop offset="0.1931" stop-color="#734D2A"/>
<stop offset="0.5059" stop-color="#8B5E31"/>
<stop offset="0.8973" stop-color="#B27A3D"/>
<stop offset="1" stop-color="#BD8240"/>
</linearGradient>
<radialGradient id="paint6_radial_2267_614" cx="0" cy="0" r="1" gradientUnits="userSpaceOnUse" gradientTransform="translate(201.672 285.239) rotate(-2.28858) scale(152.776 30.4246)">
<stop stop-color="#C4CF4D"/>
<stop offset="0.2634" stop-color="#C6D24D"/>
<stop offset="0.4274" stop-color="#CCDA4E"/>
<stop offset="0.5637" stop-color="#D5E950"/>
<stop offset="0.6193" stop-color="#DBF151"/>
<stop offset="1" stop-color="#C4CF4D"/>
</radialGradient>
<linearGradient id="paint7_linear_2267_614" x1="242.491" y1="489.261" x2="178.393" y2="163.301" gradientUnits="userSpaceOnUse">
<stop stop-color="#6A4727"/>
<stop offset="0.1931" stop-color="#734D2A"/>
<stop offset="0.5059" stop-color="#8B5E31"/>
<stop offset="0.8973" stop-color="#B27A3D"/>
<stop offset="1" stop-color="#BD8240"/>
</linearGradient>
</defs>
</svg>
