<svg width="344" height="597" viewBox="0 0 344 597" fill="none" xmlns="http://www.w3.org/2000/svg">
<path d="M325.948 455.861C327.198 495.241 315.008 534.881 284.918 561.371C255.128 587.601 213.548 597.531 174.748 596.971C170.088 596.931 167.758 596.931 163.098 596.971C124.148 597.181 82.908 587.761 52.928 561.371C26.998 538.541 13.878 505.341 11.998 471.311L324.598 418.501C325.048 430.961 325.498 443.411 325.948 455.861Z" fill="url(#paint0_linear_2267_615)"/>
<path d="M324.218 418.972C327.268 436.992 259.878 463.422 173.708 478.002C87.5382 492.572 15.2082 489.782 12.1582 471.752C9.10817 453.732 76.4982 427.302 162.668 412.722C248.838 398.142 321.168 400.942 324.218 418.972Z" fill="url(#paint1_linear_2267_615)"/>
<path d="M74.449 483.321C30.039 483.321 16.8889 475.631 16.1189 471.081C15.3189 466.331 25.1289 456.561 55.4289 444.681C83.6089 433.631 121.929 423.691 163.349 416.681C198.729 410.701 233.739 407.401 261.939 407.401C306.349 407.401 319.499 415.091 320.269 419.641C321.069 424.391 311.259 434.161 280.959 446.041C252.779 457.091 214.459 467.031 173.039 474.041C137.659 480.021 102.639 483.321 74.449 483.321Z" fill="url(#paint2_radial_2267_615)"/>
<path d="M142.887 439.311C140.727 440.761 131.217 447.131 132.487 451.501C135.217 460.901 185.917 454.421 201.837 442.881C203.667 441.551 208.477 438.071 207.667 435.201C207.057 433.031 203.497 432.141 200.887 431.601C183.617 428.061 165.917 431.761 159.457 433.251C149.677 435.511 146.027 437.211 142.887 439.311Z" fill="#FFE6CC"/>
<path d="M112.299 450.171C113.229 448.351 122.949 450.101 122.949 451.381C122.949 452.491 115.629 454.701 113.009 451.951C112.889 451.821 111.959 450.841 112.299 450.171Z" fill="#063B01"/>
<path d="M174.338 466.792C175.328 467.722 177.278 468.072 178.368 467.322C180.868 465.582 178.618 458.032 176.798 457.942C175.068 457.862 171.808 464.422 174.338 466.792Z" fill="#063B01"/>
<path d="M133.908 466.311C134.278 467.331 138.778 467.621 141.898 465.331C144.028 463.761 145.568 460.951 144.848 460.241C143.458 458.881 133.288 464.611 133.908 466.311Z" fill="#063B01"/>
<path d="M217.058 452.541C213.708 454.381 206.888 449.651 207.368 448.241C207.688 447.301 211.298 447.721 215.348 448.201C217.568 448.461 218.428 448.741 218.718 449.371C219.178 450.331 218.238 451.891 217.058 452.541Z" fill="#063B01"/>
<path d="M166.008 425.032C165.078 424.432 161.978 425.712 161.858 426.942C161.828 427.202 162.058 427.552 162.508 428.252C163.258 429.412 163.628 429.982 163.938 430.002C165.098 430.052 167.238 425.822 166.008 425.032Z" fill="#063B01"/>
<path d="M136.708 432.561C134.928 432.581 133.258 433.821 133.408 434.531C133.688 435.771 139.878 436.181 140.318 435.031C140.588 434.321 138.878 432.531 136.708 432.561Z" fill="#063B01"/>
<path d="M220.857 427.131C220.877 426.301 217.677 424.981 214.777 425.881C212.787 426.501 210.887 428.171 211.207 428.861C211.837 430.191 220.837 428.521 220.857 427.131Z" fill="#063B01"/>
<path d="M122.188 440.451C121.868 439.771 122.898 438.441 124.128 437.891C127.228 436.521 131.868 440.001 131.558 440.851C131.488 441.041 131.188 441.021 126.878 440.971C123.228 440.921 122.408 440.931 122.188 440.451Z" fill="#A2C71E"/>
<path d="M189.338 422.332C190.378 420.972 192.418 420.392 192.938 420.922C193.858 421.852 190.668 426.862 189.408 426.532C188.638 426.342 188.068 423.992 189.338 422.332Z" fill="#063B01"/>
<path d="M210.208 421.392C210.178 420.652 208.628 419.881 207.258 419.911C203.828 419.981 201.318 425.051 201.988 425.681C202.138 425.821 202.398 425.671 206.238 423.821C209.488 422.251 210.228 421.912 210.208 421.392Z" fill="#A2C71E"/>
<path d="M151.819 467.351C152.689 468.651 157.529 468.411 159.689 465.731C161.739 463.181 160.909 459.021 159.459 458.581C158.619 458.321 157.589 459.341 156.009 460.891C154.389 462.491 150.889 465.951 151.819 467.351Z" fill="#A2C71E"/>
<path d="M119.988 459.972C119.878 460.762 120.748 461.502 121.368 461.822C124.688 463.512 131.158 458.392 130.618 457.202C130.038 455.892 120.328 457.512 119.988 459.972Z" fill="#A2C71E"/>
<path d="M180.108 423.311C179.678 422.721 178.138 422.432 177.158 422.732C174.708 423.492 175.658 428.062 176.498 428.422C176.688 428.502 176.788 428.331 178.568 426.061C180.058 424.141 180.408 423.721 180.108 423.311Z" fill="#A2C71E"/>
<path d="M198.759 459.132C198.649 460.362 195.459 461.762 192.969 460.922C189.909 459.882 188.719 455.712 189.699 454.852C190.279 454.342 191.659 454.942 194.009 455.972C196.629 457.102 198.849 458.072 198.759 459.132Z" fill="#A2C71E"/>
<path d="M150.637 427.822C149.767 427.762 148.317 427.972 148.087 428.652C147.667 429.902 151.397 432.732 152.757 432.022C153.527 431.622 153.717 430.012 152.987 428.952C152.267 427.942 150.977 427.842 150.637 427.822Z" fill="#A2C71E"/>
<path d="M223.449 434.142C224.029 434.722 223.779 435.802 223.469 436.402C221.829 439.602 213.399 439.012 213.099 437.742C212.759 436.372 221.649 432.332 223.449 434.142Z" fill="#A2C71E"/>
<path d="M175.649 320.662C90.1793 306.202 18.4193 309.102 15.3793 327.122C15.2593 327.812 15.2593 328.522 15.3493 329.242C15.6093 337.002 15.8693 344.772 16.1293 352.532C16.4593 362.452 22.1593 371.412 31.0193 375.892C62.6993 391.892 107.959 410.132 164.619 419.372C218.649 428.182 265.469 425.942 300.229 421.272C312.909 419.572 322.649 409.172 323.589 396.412C323.999 390.882 324.409 385.362 324.809 379.832C324.839 379.712 324.869 379.592 324.889 379.472C327.929 361.442 261.119 335.112 175.649 320.662Z" fill="url(#paint3_linear_2267_615)"/>
<path d="M264.478 391.792C308.888 391.792 322.038 384.102 322.808 379.552C323.608 374.802 313.798 365.032 283.498 353.152C255.318 342.102 216.998 332.162 175.578 325.152C140.198 319.172 105.188 315.872 76.988 315.872C32.578 315.872 19.428 323.562 18.658 328.112C17.858 332.862 27.668 342.632 57.968 354.512C86.148 365.562 124.468 375.502 165.888 382.512C201.268 388.492 236.278 391.792 264.478 391.792Z" fill="url(#paint4_radial_2267_615)"/>
<path d="M196.027 347.782C198.187 349.232 207.697 355.602 206.427 359.972C203.697 369.372 152.997 362.892 137.077 351.352C135.247 350.022 130.437 346.542 131.247 343.672C131.857 341.502 135.417 340.612 138.027 340.072C155.297 336.532 172.997 340.232 179.457 341.722C189.237 343.982 192.887 345.682 196.027 347.782Z" fill="#FFE6CC"/>
<path d="M226.629 358.642C225.699 356.822 215.979 358.572 215.979 359.852C215.979 360.962 223.298 363.172 225.918 360.422C226.038 360.292 226.969 359.312 226.629 358.642Z" fill="#063B01"/>
<path d="M164.578 375.262C163.588 376.192 161.628 376.542 160.548 375.792C158.048 374.052 160.298 366.502 162.118 366.412C163.858 366.332 167.108 372.892 164.578 375.262Z" fill="#063B01"/>
<path d="M205.018 374.782C204.648 375.802 200.148 376.092 197.028 373.802C194.898 372.232 193.358 369.422 194.078 368.712C195.468 367.352 205.638 373.082 205.018 374.782Z" fill="#063B01"/>
<path d="M121.858 361.012C125.208 362.852 132.028 358.122 131.548 356.712C131.228 355.772 127.618 356.192 123.568 356.672C121.348 356.932 120.488 357.212 120.198 357.842C119.748 358.802 120.678 360.362 121.858 361.012Z" fill="#063B01"/>
<path d="M172.907 333.502C173.837 332.902 176.937 334.182 177.057 335.412C177.087 335.672 176.857 336.022 176.407 336.722C175.657 337.882 175.287 338.452 174.977 338.472C173.827 338.522 171.677 334.292 172.907 333.502Z" fill="#063B01"/>
<path d="M202.218 341.032C203.998 341.052 205.668 342.292 205.518 343.002C205.238 344.242 199.048 344.652 198.608 343.502C198.328 342.792 200.048 341.002 202.218 341.032Z" fill="#063B01"/>
<path d="M118.059 335.602C118.039 334.772 121.239 333.452 124.139 334.352C126.129 334.972 128.029 336.642 127.709 337.332C127.089 338.662 118.089 336.992 118.059 335.602Z" fill="#063B01"/>
<path d="M216.738 348.922C217.058 348.242 216.028 346.912 214.798 346.362C211.698 344.992 207.058 348.472 207.368 349.322C207.438 349.512 207.738 349.492 212.048 349.442C215.688 349.392 216.508 349.402 216.738 348.922Z" fill="#A2C71E"/>
<path d="M149.588 330.802C148.548 329.442 146.508 328.862 145.988 329.392C145.068 330.322 148.258 335.332 149.518 335.002C150.278 334.812 150.858 332.462 149.588 330.802Z" fill="#063B01"/>
<path d="M128.72 329.862C128.75 329.122 130.3 328.352 131.67 328.382C135.1 328.452 137.61 333.522 136.94 334.152C136.79 334.292 136.53 334.142 132.69 332.292C129.43 330.722 128.69 330.382 128.72 329.862Z" fill="#A2C71E"/>
<path d="M187.099 375.822C186.229 377.122 181.389 376.882 179.229 374.202C177.179 371.662 178.009 367.492 179.459 367.052C180.299 366.792 181.329 367.812 182.909 369.362C184.539 370.962 188.039 374.422 187.099 375.822Z" fill="#A2C71E"/>
<path d="M218.927 368.442C219.037 369.232 218.167 369.972 217.547 370.292C214.227 371.982 207.757 366.862 208.297 365.672C208.877 364.362 218.587 365.982 218.927 368.442Z" fill="#A2C71E"/>
<path d="M158.817 331.782C159.247 331.192 160.787 330.902 161.767 331.202C164.217 331.962 163.267 336.532 162.427 336.892C162.237 336.972 162.137 336.802 160.357 334.532C158.867 332.612 158.517 332.192 158.817 331.782Z" fill="#A2C71E"/>
<path d="M140.159 367.602C140.269 368.832 143.459 370.232 145.949 369.392C149.009 368.352 150.199 364.182 149.219 363.322C148.639 362.812 147.259 363.412 144.909 364.442C142.289 365.572 140.069 366.542 140.159 367.602Z" fill="#A2C71E"/>
<path d="M188.289 336.291C189.159 336.231 190.609 336.441 190.839 337.121C191.259 338.371 187.529 341.201 186.169 340.491C185.399 340.091 185.209 338.481 185.939 337.421C186.649 336.411 187.949 336.311 188.289 336.291Z" fill="#A2C71E"/>
<path d="M115.478 342.612C114.898 343.192 115.148 344.272 115.458 344.872C117.098 348.072 125.528 347.482 125.828 346.212C126.158 344.842 117.278 340.802 115.478 342.612Z" fill="#A2C71E"/>
<path d="M164.618 220.282C250.088 205.822 321.848 208.722 324.898 226.742C325.018 227.432 325.018 228.142 324.928 228.862C324.668 236.622 324.408 244.392 324.148 252.152C323.818 262.072 318.118 271.032 309.258 275.512C277.578 291.512 232.318 309.752 175.658 318.992C121.628 327.802 74.8081 325.562 40.0481 320.892C27.3681 319.192 17.6281 308.792 16.6881 296.032C16.2781 290.502 15.8682 284.982 15.4682 279.452C15.4382 279.332 15.4082 279.212 15.3882 279.092C12.3282 261.062 79.1481 234.732 164.618 220.282Z" fill="url(#paint5_linear_2267_615)"/>
<path d="M339.849 238.041L319.999 244.321C319.829 244.371 319.729 244.561 319.789 244.731C319.839 244.881 319.979 244.971 320.129 244.951L340.829 242.751C342.169 242.611 343.149 241.421 343.009 240.091C342.869 238.761 341.669 237.801 340.329 237.941C340.169 237.961 339.999 238.001 339.849 238.041Z" fill="#F3C344"/>
<path d="M336.958 264.762L318.738 254.982C318.368 254.782 317.908 254.922 317.708 255.282C317.528 255.612 317.618 256.012 317.908 256.232L334.288 268.792C335.348 269.602 336.888 269.412 337.708 268.352C338.538 267.302 338.348 265.782 337.288 264.972C337.188 264.892 337.068 264.822 336.958 264.762Z" fill="#F3C344"/>
<path d="M77.0076 290.341C32.5976 290.341 19.4475 282.651 18.6775 278.101C17.8775 273.351 27.6875 263.581 57.9875 251.701C86.1675 240.651 124.488 230.711 165.908 223.701C201.288 217.721 236.298 214.421 264.498 214.421C308.908 214.421 322.058 222.111 322.828 226.661C323.628 231.411 313.818 241.181 283.518 253.061C255.338 264.111 217.018 274.051 175.598 281.061C140.218 287.041 105.198 290.341 77.0076 290.341Z" fill="url(#paint6_radial_2267_615)"/>
<path d="M145.448 246.331C143.288 247.781 133.778 254.151 135.048 258.521C137.778 267.921 188.478 261.441 204.398 249.901C206.228 248.571 211.038 245.091 210.228 242.221C209.618 240.051 206.058 239.161 203.448 238.621C186.178 235.081 168.478 238.781 162.018 240.271C152.238 242.531 148.588 244.231 145.448 246.331Z" fill="#FFE6CC"/>
<path d="M114.859 257.202C115.789 255.382 125.509 257.132 125.509 258.412C125.509 259.522 118.189 261.732 115.569 258.982C115.449 258.842 114.519 257.862 114.859 257.202Z" fill="#063B01"/>
<path d="M176.899 273.812C177.889 274.742 179.839 275.092 180.929 274.342C183.429 272.602 181.179 265.052 179.359 264.962C177.629 264.882 174.369 271.442 176.899 273.812Z" fill="#063B01"/>
<path d="M136.469 273.341C136.839 274.361 141.339 274.651 144.459 272.361C146.589 270.791 148.129 267.981 147.409 267.271C146.019 265.911 135.849 271.641 136.469 273.341Z" fill="#063B01"/>
<path d="M219.618 259.561C216.268 261.401 209.448 256.671 209.928 255.261C210.248 254.321 213.858 254.741 217.908 255.221C220.128 255.481 220.988 255.761 221.278 256.391C221.738 257.351 220.798 258.921 219.618 259.561Z" fill="#063B01"/>
<path d="M168.569 232.062C167.639 231.462 164.539 232.742 164.419 233.972C164.389 234.232 164.619 234.582 165.069 235.282C165.819 236.442 166.189 237.012 166.499 237.032C167.659 237.082 169.799 232.842 168.569 232.062Z" fill="#063B01"/>
<path d="M139.268 239.581C137.488 239.601 135.818 240.841 135.968 241.551C136.248 242.791 142.438 243.201 142.878 242.051C143.148 241.341 141.438 239.551 139.268 239.581Z" fill="#063B01"/>
<path d="M223.418 234.151C223.438 233.321 220.238 232.001 217.338 232.901C215.348 233.521 213.448 235.192 213.768 235.882C214.398 237.212 223.398 235.541 223.418 234.151Z" fill="#063B01"/>
<path d="M124.748 247.471C124.428 246.791 125.458 245.461 126.688 244.911C129.788 243.541 134.428 247.021 134.118 247.871C134.048 248.061 133.748 248.041 129.438 247.991C125.788 247.941 124.968 247.951 124.748 247.471Z" fill="#A2C71E"/>
<path d="M191.889 229.361C192.929 228.001 194.969 227.421 195.489 227.951C196.409 228.881 193.219 233.891 191.959 233.561C191.199 233.361 190.629 231.011 191.889 229.361Z" fill="#063B01"/>
<path d="M212.768 228.412C212.738 227.672 211.188 226.902 209.818 226.932C206.388 227.002 203.878 232.072 204.548 232.702C204.698 232.842 204.958 232.692 208.798 230.842C212.048 229.272 212.788 228.932 212.768 228.412Z" fill="#A2C71E"/>
<path d="M154.377 274.371C155.247 275.671 160.087 275.431 162.247 272.751C164.297 270.201 163.467 266.041 162.017 265.601C161.177 265.341 160.147 266.361 158.567 267.911C156.947 269.521 153.447 272.971 154.377 274.371Z" fill="#A2C71E"/>
<path d="M122.549 266.991C122.439 267.781 123.309 268.521 123.929 268.841C127.249 270.531 133.719 265.411 133.179 264.221C132.599 262.911 122.889 264.541 122.549 266.991Z" fill="#A2C71E"/>
<path d="M182.668 230.332C182.238 229.742 180.698 229.452 179.718 229.752C177.268 230.512 178.218 235.082 179.058 235.442C179.248 235.522 179.348 235.352 181.128 233.082C182.618 231.172 182.968 230.742 182.668 230.332Z" fill="#A2C71E"/>
<path d="M201.317 266.152C201.207 267.382 198.017 268.782 195.527 267.942C192.467 266.902 191.277 262.732 192.257 261.872C192.837 261.362 194.217 261.962 196.567 262.992C199.187 264.122 201.407 265.092 201.317 266.152Z" fill="#A2C71E"/>
<path d="M153.198 234.842C152.328 234.782 150.878 234.992 150.648 235.672C150.228 236.922 153.958 239.752 155.318 239.042C156.088 238.642 156.278 237.032 155.548 235.972C154.828 234.962 153.538 234.872 153.198 234.842Z" fill="#A2C71E"/>
<path d="M226.008 241.161C226.588 241.741 226.338 242.821 226.028 243.421C224.388 246.621 215.958 246.031 215.658 244.761C215.318 243.391 224.208 239.361 226.008 241.161Z" fill="#A2C71E"/>
<path d="M323.819 221.521C323.329 207.861 322.829 194.191 322.339 180.531C319.919 100.121 259.529 17.9315 174.339 18.5815C170.149 18.5815 168.059 18.5815 163.869 18.5815C82.5386 17.9615 23.8086 92.8515 16.5586 169.611L16.7286 169.641C16.7186 169.691 16.7086 169.741 16.6986 169.791C15.8386 174.791 25.7686 184.891 56.5586 196.871C84.8986 207.901 123.439 217.801 165.089 224.751C200.439 230.651 235.479 233.901 263.749 233.901C305.219 233.901 321.709 227.291 323.429 221.451L323.819 221.521Z" fill="url(#paint7_linear_2267_615)"/>
<path d="M2.77833 161.061L23.3983 163.981C23.5783 164.011 23.6983 164.171 23.6783 164.351C23.6583 164.511 23.5283 164.621 23.3783 164.631L2.59833 165.931C1.24833 166.011 0.0883077 164.991 0.00830772 163.641C-0.0716923 162.291 0.948286 161.131 2.29829 161.051C2.44829 161.031 2.61833 161.041 2.77833 161.061Z" fill="#F3C344"/>
<path d="M15.459 137.102L28.029 153.692C28.159 153.872 28.129 154.122 27.949 154.252C27.789 154.372 27.579 154.352 27.439 154.232L11.879 140.402C10.869 139.502 10.779 137.962 11.679 136.952C12.579 135.942 14.119 135.852 15.129 136.752C15.249 136.862 15.359 136.982 15.459 137.102Z" fill="#F3C344"/>
<path d="M210.588 3.18157L204.348 23.0516C204.298 23.2216 204.108 23.3216 203.938 23.2616C203.788 23.2116 203.698 23.0716 203.708 22.9216L205.818 2.20157C205.958 0.861574 207.158 -0.118426 208.498 0.0115742C209.838 0.151574 210.818 1.35157 210.688 2.69157C210.678 2.86157 210.638 3.03157 210.588 3.18157Z" fill="#F3C344"/>
<path d="M232.169 19.5914L213.749 29.2914C213.549 29.3914 213.309 29.3214 213.209 29.1214C213.119 28.9514 213.169 28.7414 213.309 28.6214L229.489 15.5214C230.539 14.6714 232.079 14.8314 232.929 15.8814C233.779 16.9314 233.619 18.4714 232.569 19.3214C232.449 19.4314 232.299 19.5214 232.169 19.5914Z" fill="#F3C344"/>
<path d="M183.589 6.09135L193.589 24.3113C193.789 24.6813 193.659 25.1413 193.289 25.3413C192.959 25.5213 192.549 25.4313 192.319 25.1413L179.529 8.77135C178.699 7.71135 178.889 6.17135 179.949 5.34135C181.009 4.51135 182.549 4.70135 183.379 5.76135C183.449 5.86135 183.529 5.98135 183.589 6.09135Z" fill="#F3C344"/>
<path d="M139.769 117.291C133.539 115.831 127.299 119.701 125.839 125.931C124.379 132.161 128.249 138.401 134.479 139.861C140.709 141.321 146.949 137.451 148.409 131.221C149.879 124.981 146.009 118.751 139.769 117.291ZM127.929 126.421C129.119 121.341 134.209 118.181 139.289 119.371C144.369 120.561 147.529 125.651 146.339 130.731L127.929 126.421Z" fill="#C4CF4D"/>
<path d="M205.799 132.742C199.569 131.282 193.329 135.152 191.869 141.382C190.409 147.612 194.279 153.852 200.509 155.312C206.739 156.772 212.979 152.902 214.439 146.672C215.899 140.432 212.029 134.202 205.799 132.742ZM193.949 141.872C195.139 136.792 200.229 133.632 205.309 134.822C210.389 136.012 213.549 141.102 212.359 146.182L193.949 141.872Z" fill="#C4CF4D"/>
<path d="M162.929 142.992C163.549 139.802 168.119 134.442 170.829 136.922C172.899 138.812 173.929 145.252 173.019 148.082C171.309 153.412 161.849 148.482 162.929 142.992Z" fill="#C4CF4D"/>
<defs>
<linearGradient id="paint0_linear_2267_615" x1="169.014" y1="558.452" x2="169.014" y2="245.349" gradientUnits="userSpaceOnUse">
<stop stop-color="#6A4727"/>
<stop offset="0.1931" stop-color="#734D2A"/>
<stop offset="0.5059" stop-color="#8B5E31"/>
<stop offset="0.8973" stop-color="#B27A3D"/>
<stop offset="1" stop-color="#BD8240"/>
</linearGradient>
<linearGradient id="paint1_linear_2267_615" x1="12.0573" y1="445.357" x2="324.313" y2="445.357" gradientUnits="userSpaceOnUse">
<stop stop-color="#6A4727"/>
<stop offset="0.1931" stop-color="#734D2A"/>
<stop offset="0.5059" stop-color="#8B5E31"/>
<stop offset="0.8973" stop-color="#B27A3D"/>
<stop offset="1" stop-color="#BD8240"/>
</linearGradient>
<radialGradient id="paint2_radial_2267_615" cx="0" cy="0" r="1" gradientUnits="userSpaceOnUse" gradientTransform="translate(168.145 445.386) rotate(-9.68934) scale(152.776 30.4246)">
<stop stop-color="#C4CF4D"/>
<stop offset="0.2634" stop-color="#C6D24D"/>
<stop offset="0.4274" stop-color="#CCDA4E"/>
<stop offset="0.5637" stop-color="#D5E950"/>
<stop offset="0.6193" stop-color="#DBF151"/>
<stop offset="1" stop-color="#C4CF4D"/>
</radialGradient>
<linearGradient id="paint3_linear_2267_615" x1="15.2812" y1="368.413" x2="324.984" y2="368.413" gradientUnits="userSpaceOnUse">
<stop stop-color="#6A4727"/>
<stop offset="0.1931" stop-color="#734D2A"/>
<stop offset="0.5059" stop-color="#8B5E31"/>
<stop offset="0.8973" stop-color="#B27A3D"/>
<stop offset="1" stop-color="#BD8240"/>
</linearGradient>
<radialGradient id="paint4_radial_2267_615" cx="0" cy="0" r="1" gradientUnits="userSpaceOnUse" gradientTransform="translate(171.027 354.197) rotate(-170.311) scale(152.776 30.4246)">
<stop stop-color="#C4CF4D"/>
<stop offset="0.2634" stop-color="#C6D24D"/>
<stop offset="0.4274" stop-color="#CCDA4E"/>
<stop offset="0.5637" stop-color="#D5E950"/>
<stop offset="0.6193" stop-color="#DBF151"/>
<stop offset="1" stop-color="#C4CF4D"/>
</radialGradient>
<linearGradient id="paint5_linear_2267_615" x1="324.983" y1="268.033" x2="15.2804" y2="268.033" gradientUnits="userSpaceOnUse">
<stop stop-color="#6A4727"/>
<stop offset="0.1931" stop-color="#734D2A"/>
<stop offset="0.5059" stop-color="#8B5E31"/>
<stop offset="0.8973" stop-color="#B27A3D"/>
<stop offset="1" stop-color="#BD8240"/>
</linearGradient>
<radialGradient id="paint6_radial_2267_615" cx="0" cy="0" r="1" gradientUnits="userSpaceOnUse" gradientTransform="translate(170.712 252.408) rotate(-9.68934) scale(152.776 30.4246)">
<stop stop-color="#C4CF4D"/>
<stop offset="0.2634" stop-color="#C6D24D"/>
<stop offset="0.4274" stop-color="#CCDA4E"/>
<stop offset="0.5637" stop-color="#D5E950"/>
<stop offset="0.6193" stop-color="#DBF151"/>
<stop offset="1" stop-color="#C4CF4D"/>
</radialGradient>
<linearGradient id="paint7_linear_2267_615" x1="170.19" y1="410.467" x2="170.19" y2="78.264" gradientUnits="userSpaceOnUse">
<stop stop-color="#6A4727"/>
<stop offset="0.1931" stop-color="#734D2A"/>
<stop offset="0.5059" stop-color="#8B5E31"/>
<stop offset="0.8973" stop-color="#B27A3D"/>
<stop offset="1" stop-color="#BD8240"/>
</linearGradient>
</defs>
</svg>
