<svg width="529" height="386" viewBox="0 0 529 386" fill="none" xmlns="http://www.w3.org/2000/svg">
<path d="M374.314 263.709C374.526 261.567 374.732 259.433 374.945 257.291C375.1 256.812 375.313 256.342 375.424 255.853C379.1 238.515 392.979 225.095 410.427 221.933C417.912 220.573 425.248 221.084 432.553 223.1C438.217 224.664 443.04 222.877 447.074 218.834C458.787 207.11 472.814 202.677 489.055 205.801C507.794 209.413 521.68 224.259 524.415 243.161C524.809 245.856 524.536 248.566 524.853 251.263C524.738 252.392 524.63 253.513 524.516 254.641C524.353 255.178 524.11 255.702 524.026 256.251C523.151 262.176 520.789 267.569 517.757 272.614C511.682 282.72 503.641 291.073 493.991 297.87C477.476 309.509 459.016 314.848 438.917 314.29C423.982 313.878 409.846 310.088 396.876 302.561C383.777 294.956 376.315 283.535 374.626 268.433C374.473 266.871 374.425 265.29 374.314 263.709Z" fill="#FFE24B"/>
<path d="M193.077 214.173C194.388 212.472 195.7 210.77 197.011 209.068C197.405 208.744 197.831 208.465 198.18 208.103C210.492 195.353 229.373 191.343 245.851 197.912C252.917 200.729 258.864 205.045 263.991 210.632C267.964 214.96 272.994 216 278.562 214.715C294.708 210.986 308.947 214.664 321.067 225.93C335.046 238.935 338.945 258.881 331.232 276.358C330.134 278.851 328.46 281.003 327.307 283.457C326.614 284.353 325.921 285.249 325.238 286.146C324.817 286.517 324.334 286.838 323.976 287.259C320.095 291.816 315.228 295.14 309.986 297.811C299.48 303.158 288.227 305.974 276.445 306.616C256.267 307.727 237.79 302.462 221.046 291.331C208.601 283.06 198.621 272.354 191.62 259.087C184.549 245.688 184.281 232.052 190.862 218.347C191.543 216.934 192.338 215.568 193.077 214.173Z" fill="#FFE24B"/>
<path d="M81.439 101.364C82.97 99.8507 84.5016 98.3476 86.0227 96.835C86.4505 96.5647 86.9107 96.343 87.3067 96.0342C101.22 85.0531 120.463 83.6037 135.906 92.3227C142.528 96.0578 147.851 101.145 152.176 107.36C155.535 112.189 160.38 113.894 166.071 113.368C182.578 111.836 196.192 117.397 206.68 130.182C218.782 144.943 219.97 165.23 209.989 181.523C208.566 183.852 206.623 185.755 205.148 188.036C204.344 188.835 203.54 189.623 202.736 190.421C202.27 190.724 201.751 190.978 201.338 191.348C196.879 195.34 191.607 197.989 186.061 199.92C174.931 203.813 163.408 205.092 151.641 204.15C131.494 202.539 113.886 194.852 98.7901 181.572C87.5679 171.714 79.1208 159.756 73.958 145.671C68.7488 131.449 70.3079 117.891 78.6648 105.197C79.545 103.895 80.5179 102.648 81.439 101.364Z" fill="#FFE24B"/>
<path d="M137.397 115.879C134.077 115.323 130.938 117.552 130.382 120.872C129.827 124.191 132.055 127.331 135.375 127.886C138.695 128.442 141.834 126.213 142.39 122.894C142.945 119.574 140.706 116.435 137.397 115.879ZM135.553 126.777C132.849 126.323 131.027 123.755 131.482 121.051C131.936 118.346 134.504 116.525 137.208 116.979L135.553 126.777Z" fill="#6D6600"/>
<path d="M172.511 121.797C169.192 121.242 166.052 123.471 165.496 126.79C164.941 130.11 167.17 133.249 170.489 133.805C173.809 134.361 176.948 132.132 177.504 128.812C178.06 125.503 175.831 122.353 172.511 121.797ZM170.678 132.695C167.973 132.241 166.152 129.673 166.606 126.969C167.06 124.264 169.628 122.443 172.332 122.897L170.678 132.695Z" fill="#6D6600"/>
<path d="M152.551 131.7C149.05 131.113 147.363 127.367 147.171 126.886C146.833 126.081 147.21 125.152 148.015 124.814C148.82 124.476 149.749 124.853 150.087 125.658C150.143 125.786 151.403 128.77 153.688 128.603C155.135 128.506 156.535 127.199 157.361 126.019C157.859 125.305 158.841 125.119 159.565 125.626C160.279 126.123 160.456 127.116 159.959 127.83C159.179 128.938 157.039 131.55 153.906 131.767C153.427 131.799 152.975 131.77 152.551 131.7Z" fill="#6D6600"/>
<path d="M285.599 222.029C288.832 221.985 291.492 224.576 291.535 227.809C291.578 231.043 288.988 233.703 285.754 233.746C282.521 233.789 279.861 231.199 279.818 227.965C279.776 224.722 282.367 222.062 285.599 222.029ZM285.738 232.661C288.373 232.628 290.493 230.463 290.462 227.818C290.428 225.183 288.263 223.062 285.618 223.094L285.738 232.661Z" fill="#6D6600"/>
<path d="M251.323 222.457C254.557 222.414 257.217 225.005 257.26 228.238C257.303 231.472 254.712 234.131 251.479 234.175C248.245 234.218 245.585 231.627 245.542 228.394C245.499 225.16 248.09 222.5 251.323 222.457ZM251.461 233.1C254.096 233.066 256.216 230.901 256.185 228.256C256.151 225.621 253.986 223.501 251.341 223.532L251.461 233.1Z" fill="#6D6600"/>
<path d="M268.848 234.831C272.264 234.786 274.418 231.472 274.673 231.056C275.116 230.345 274.895 229.401 274.174 228.957C273.453 228.513 272.519 228.735 272.075 229.456C272.007 229.567 270.359 232.219 268.21 231.719C266.85 231.411 265.706 229.962 265.097 228.716C264.726 227.961 263.824 227.642 263.06 228.011C262.305 228.381 261.994 229.295 262.355 230.048C262.925 231.217 264.581 234.019 267.534 234.692C267.994 234.792 268.432 234.839 268.848 234.831Z" fill="#6D6600"/>
<path d="M446.568 241.352C447.227 243.131 453.186 244.202 456.636 240.741C459.218 238.147 459.717 233.692 458.25 232.675C455.67 230.888 445.552 238.631 446.568 241.352Z" fill="#6D6600"/>
<path d="M438.421 239.299C435.253 238.606 432.132 240.61 431.439 243.777C430.745 246.944 432.749 250.066 435.917 250.759C439.084 251.452 442.205 249.448 442.899 246.281C443.584 243.107 441.58 239.986 438.421 239.299ZM441.842 246.045C441.278 248.623 438.73 250.267 436.145 249.697L438.185 240.355C440.769 240.912 442.407 243.468 441.842 246.045Z" fill="#6D6600"/>
<path d="M467.291 220.759C464.123 220.066 461.002 222.07 460.309 225.237C459.615 228.404 461.62 231.526 464.787 232.219C467.954 232.912 471.076 230.908 471.769 227.741C472.456 224.581 470.458 221.452 467.291 220.759ZM470.714 227.519C470.15 230.097 467.602 231.741 465.016 231.171L467.056 221.829C469.64 222.386 471.277 224.928 470.714 227.519Z" fill="#6D6600"/>
<path d="M528.042 354.777C527.782 351.917 525.282 349.797 522.422 350.007C509.072 350.977 494.382 351.317 478.572 350.597C446.542 349.137 418.832 343.717 396.572 337.597C383.872 335.407 365.772 330.667 346.572 319.597C325.892 307.677 311.422 292.727 301.712 280.027C292.952 268.557 281.392 259.517 268.212 253.647C259.282 249.667 249.532 244.457 239.562 237.597C225.072 227.637 213.722 216.697 204.982 206.527C192.352 191.827 176.372 180.387 158.542 172.807C153.132 170.507 147.432 167.797 141.562 164.607C101.922 143.047 80.4024 112.837 55.5624 79.6067C42.2924 61.8467 25.6224 36.5867 10.4924 3.78668C9.28237 1.16668 6.48237 -0.343315 3.62237 0.0666849H3.57237L3.52237 0.0766849C0.972375 0.446685 -0.607625 3.03668 0.222375 5.46668C2.33237 11.6467 4.66237 17.9867 7.25237 24.4467C14.9724 43.7167 23.6724 60.9167 32.5524 76.0767C36.4524 82.7267 36.4924 91.0167 32.5124 97.6167C15.0224 126.647 16.7224 162.947 36.5724 187.597C54.2824 209.597 84.2124 219.557 113.572 213.597C113.012 217.807 108.132 259.977 140.572 290.597C176.072 324.107 222.922 312.317 225.572 311.597C226.812 316.477 239.252 362.077 283.572 379.597C316.342 392.547 354.622 385.437 383.042 361.757C390.842 355.257 401.162 352.617 411.052 354.957C431.442 359.777 455.902 363.487 483.572 363.607C497.742 363.667 510.892 362.777 522.852 361.347C526.042 360.967 528.342 358.097 528.052 354.897L528.042 354.777Z" fill="url(#paint0_linear_4822_2699)"/>
<defs>
<linearGradient id="paint0_linear_4822_2699" x1="265.999" y1="177.365" x2="177.311" y2="302.693" gradientUnits="userSpaceOnUse">
<stop stop-color="#E5D545"/>
<stop offset="0.2731" stop-color="#E3D444"/>
<stop offset="0.3735" stop-color="#DCCF42"/>
<stop offset="0.4453" stop-color="#D0C83D"/>
<stop offset="0.5033" stop-color="#C0BD37"/>
<stop offset="0.5178" stop-color="#BAB935"/>
<stop offset="0.8493" stop-color="#A9A72C"/>
<stop offset="1" stop-color="#9F9D27"/>
</linearGradient>
</defs>
</svg>
