<svg width="188" height="195" viewBox="0 0 188 195" fill="none" xmlns="http://www.w3.org/2000/svg">
<path d="M186.308 91.7301C182.419 73.764 165.389 67.6692 164.537 67.3841C173.814 57.6553 174.823 42.8957 167.43 32.7725C161.065 24.0507 149.476 20.1601 138.513 23.2099C130.073 8.66879 118.996 -1.19786 110.594 0.749816C99.2993 3.36256 95.4964 26.6824 96.4435 42.4159C97.1444 54.0592 100.355 61.3416 104.102 67.5029C104.068 67.4982 104.035 67.4982 104.002 67.4934C104.087 67.6027 104.296 67.8687 104.57 68.263C104.793 68.6193 105.016 68.9755 105.243 69.3271C106.498 71.479 108.037 75.2081 106.716 79.0512C106.389 79.9966 105.939 80.8089 105.451 81.4977C105.091 82.006 104.348 82.0297 103.955 81.5452C101.615 78.6427 99.2709 75.7402 96.9313 72.8424C95.0086 70.4577 91.3714 70.5004 89.5007 72.9279C87.4263 75.6214 85.3473 78.3196 83.273 81.0131C82.4631 82.063 80.8197 81.8112 80.3604 80.5666C79.991 79.569 79.6926 78.3767 79.6074 77.0133C79.4653 74.7283 79.9815 72.7521 80.6587 71.1892C85.3331 64.1539 89.8275 56.4487 90.6704 42.4111C91.6176 26.6777 87.8147 3.36256 76.5195 0.745066C68.1086 -1.20261 57.0312 8.65929 48.5966 23.2051C37.6282 20.1601 26.0441 24.0459 19.6791 32.7677C12.2863 42.8909 13.2951 57.6553 22.5727 67.3794C21.7203 67.6692 4.69464 73.7592 0.801714 91.7254C-1.71306 103.34 2.22249 115.473 11.0834 123.435C-1.21105 137.154 -2.35241 156.583 7.10048 169.153C17.3679 182.805 35.3834 182.05 36.9462 181.96C46.3139 192.078 58.3005 196.776 67.7439 193.432C79.3895 189.304 82.8657 174.468 84.0923 169.219C86.0861 160.711 85.5509 153.761 83.8176 147.486C83.6376 146.84 83.5618 146.165 83.6802 145.505C83.7939 144.849 84.0165 144.45 84.348 144.313C85.2099 143.952 86.8012 145.344 89.1265 148.484C91.1725 151.253 95.2927 151.263 97.4239 148.564C99.986 145.315 101.729 143.899 102.652 144.313C103.041 144.488 103.282 144.997 103.377 145.833C103.457 146.541 103.363 147.253 103.183 147.942C101.549 154.099 101.085 160.915 103.031 169.219C104.263 174.468 107.739 189.304 119.38 193.432C128.823 196.776 140.81 192.078 150.177 181.96C151.735 182.05 169.756 182.805 180.023 169.153C189.476 156.583 188.335 137.154 176.04 123.435C184.887 115.478 188.822 103.345 186.308 91.7301Z" fill="url(#paint0_radial_4373_2318)"/>
<path d="M51.8449 168.084C46.0765 166.635 43.8222 161.566 36.9457 161.566C36.5526 161.566 36.1595 161.576 35.7664 161.6C35.7664 161.6 35.6433 161.6 35.5012 161.6C34.6203 161.6 26.7919 161.467 23.3347 156.873C20.0006 152.441 20.1616 143.823 26.2094 137.073C29.8181 133.045 31.6841 127.743 31.3904 122.337C31.1016 116.931 28.6768 111.863 24.656 108.247C21.2414 105.179 19.7164 100.509 20.6778 96.0626C22.0607 89.6828 28.6484 86.8943 29.3303 86.6235C35.7901 84.3386 40.6823 78.9421 42.3209 72.2582C43.9832 65.4841 42.0794 58.3252 37.2677 53.285C34.6914 50.5867 34.6488 46.7911 36.0885 44.8197C37.0972 43.4373 39.0153 42.5775 41.0896 42.5775C41.7858 42.5775 42.4867 42.6725 43.1734 42.8625C44.9778 43.3613 46.8011 43.6036 48.6008 43.6036C53.9476 43.6036 61.1273 32.0363 66.1757 33.4662C69.3015 34.3545 70.2013 40.074 70.3718 41.1809C70.6086 42.7058 70.5659 45.3755 68.5437 50.9953C67.2034 54.7196 65.1954 57.7076 62.5907 61.5887C57.5611 69.0754 50.6751 79.3316 49.0838 96.2527C47.1989 116.309 54.1513 130.622 59.2282 141.073C62.6333 148.08 64.6887 152.564 64.9965 157.429C65.2238 160.996 65.3612 162.93 64.3003 164.554C62.0697 167.97 56.3393 169.215 51.8449 168.084Z" fill="url(#paint1_radial_4373_2318)"/>
<path d="M122.813 164.559C121.742 162.877 121.894 160.925 122.117 157.433C122.424 152.564 124.485 148.08 127.885 141.073C132.962 130.622 139.919 116.309 138.029 96.2527C136.438 79.3316 129.552 69.0754 124.522 61.5887C121.913 57.7029 119.905 54.7149 118.569 50.9953C116.547 45.3755 116.5 42.7058 116.741 41.1809C116.917 40.074 117.812 34.3545 120.937 33.4662C125.986 32.0363 133.165 43.6036 138.512 43.6036C140.317 43.6036 142.14 43.3613 143.94 42.8625C144.626 42.6725 145.327 42.5775 146.024 42.5775C148.098 42.5775 150.016 43.4373 151.025 44.8245C152.46 46.7911 152.417 50.5867 149.841 53.2897C145.034 58.3299 143.125 65.4888 144.787 72.263C146.426 78.9468 151.318 84.3433 157.778 86.6283C158.46 86.8991 165.052 89.6876 166.431 96.0674C167.392 100.514 165.867 105.183 162.452 108.257C158.432 111.872 156.007 116.941 155.718 122.347C155.429 127.753 157.29 133.054 160.899 137.083C166.947 143.828 167.108 152.446 163.774 156.878C160.317 161.476 152.488 161.609 151.607 161.609C151.465 161.609 151.356 161.609 151.285 161.604C150.892 161.581 150.499 161.571 150.106 161.571C148.557 161.571 147.032 161.747 145.55 162.094C142.083 162.901 139.407 166.749 135.264 168.093C130.888 169.504 125.058 168.074 122.813 164.559Z" fill="url(#paint2_radial_4373_2318)"/>
<path d="M93.3945 114.936C89.7905 114.936 87.4794 111.463 87.2 111.022C86.7264 110.271 86.949 109.278 87.6972 108.798C88.4503 108.323 89.4401 108.547 89.9137 109.297C89.9894 109.411 91.7559 112.195 94.0149 111.639C95.4452 111.297 96.6244 109.753 97.2543 108.423C97.6332 107.62 98.5851 107.273 99.3902 107.654C100.191 108.034 100.532 108.993 100.157 109.796C99.5702 111.041 97.87 114.019 94.768 114.77C94.2896 114.884 93.8302 114.936 93.3945 114.936Z" fill="#DCE7EA"/>
<path d="M75.5732 114.257C78.9831 114.257 81.7441 111.482 81.7441 108.067H69.4023C69.4023 111.482 72.1634 114.257 75.5732 114.257Z" fill="#DCE7EA"/>
<path d="M111.685 114.257C115.094 114.257 117.855 111.482 117.855 108.067H105.514C105.514 111.482 108.275 114.257 111.685 114.257Z" fill="#DCE7EA"/>
<defs>
<radialGradient id="paint0_radial_4373_2318" cx="0" cy="0" r="1" gradientUnits="userSpaceOnUse" gradientTransform="translate(93.5546 97.5049) scale(95.1172 169.083)">
<stop stop-color="#A26336"/>
<stop offset="0.4822" stop-color="#B77340"/>
<stop offset="0.6354" stop-color="#AF6E3E"/>
<stop offset="0.876" stop-color="#985F3A"/>
<stop offset="1" stop-color="#8A5637"/>
</radialGradient>
<radialGradient id="paint1_radial_4373_2318" cx="0" cy="0" r="1" gradientUnits="userSpaceOnUse" gradientTransform="translate(45.4267 100.916) scale(50.8197 50.9755)">
<stop stop-color="#C9B57F"/>
<stop offset="0.4268" stop-color="#CAB077"/>
<stop offset="1" stop-color="#CDA464"/>
</radialGradient>
<radialGradient id="paint2_radial_4373_2318" cx="0" cy="0" r="1" gradientUnits="userSpaceOnUse" gradientTransform="translate(141.682 100.985) scale(50.8653 51.0213)">
<stop stop-color="#C9B57F"/>
<stop offset="0.4268" stop-color="#CAB077"/>
<stop offset="1" stop-color="#CDA464"/>
</radialGradient>
</defs>
</svg>
