<svg width="265" height="356" viewBox="0 0 265 356" fill="none" xmlns="http://www.w3.org/2000/svg">
<path d="M127.015 317.714C104.555 317.714 87.405 313.014 73.025 302.914C15.865 262.774 3.84497 201.374 41.665 142.684C52.055 126.564 56.175 118.884 75.105 91.7738C85.205 77.3138 98.445 57.7538 113.555 33.6438C119.775 23.7138 134.255 23.7138 140.475 33.6438C155.575 57.7538 168.825 77.3138 178.925 91.7738C197.855 118.874 201.975 126.554 212.365 142.684C250.185 201.374 238.165 262.764 181.005 302.914C166.625 313.014 149.475 317.714 127.015 317.714Z" fill="url(#paint0_radial_1890_95)"/>
<path d="M236.318 144.342C207.968 100.352 179.618 59.5325 151.268 13.8525C142.288 -0.6175 122.448 -0.6175 113.468 13.8525C85.1183 59.5325 56.7683 100.352 28.4183 144.342C-16.5117 214.062 -0.521698 288.183 65.6683 334.663C85.5683 348.633 108.298 353.483 132.378 353.483C156.458 353.483 179.188 348.633 199.088 334.663C265.268 288.183 281.248 214.062 236.318 144.342Z" stroke="url(#paint1_linear_1890_95)" stroke-width="5" stroke-miterlimit="10"/>
<path d="M55.1296 159.555C48.8996 159.555 43.8496 164.605 43.8496 170.835C43.8496 177.065 48.8996 182.115 55.1296 182.115C61.3596 182.115 66.4096 177.065 66.4096 170.835C66.3996 164.605 61.3496 159.555 55.1296 159.555ZM45.9296 170.825C45.9296 165.745 50.0496 161.625 55.1296 161.625C60.2096 161.625 64.3296 165.745 64.3296 170.825H45.9296Z" fill="white"/>
<path d="M121.091 159.555C114.861 159.555 109.811 164.605 109.811 170.835C109.811 177.065 114.861 182.115 121.091 182.115C127.321 182.115 132.371 177.065 132.371 170.835C132.371 164.605 127.321 159.555 121.091 159.555ZM111.901 170.825C111.901 165.745 116.021 161.625 121.101 161.625C126.181 161.625 130.301 165.745 130.301 170.825H111.901Z" fill="white"/>
<path d="M82.7602 178.765C82.6402 175.605 85.7802 169.515 88.9002 171.265C91.2802 172.595 93.6802 178.475 93.4502 181.355C93.0002 186.775 82.9602 184.205 82.7602 178.765Z" fill="white"/>
<defs>
<radialGradient id="paint0_radial_1890_95" cx="0" cy="0" r="1" gradientUnits="userSpaceOnUse" gradientTransform="translate(127.015 171.96) scale(127.912 170.302)">
<stop stop-color="#605E5D"/>
<stop offset="0.346" stop-color="#706C69"/>
<stop offset="1" stop-color="#998E87"/>
</radialGradient>
<linearGradient id="paint1_linear_1890_95" x1="0.495205" y1="178.244" x2="264.241" y2="178.244" gradientUnits="userSpaceOnUse">
<stop stop-color="#9EA1A2"/>
<stop offset="0.3097" stop-color="#8E9497"/>
<stop offset="0.9148" stop-color="#63727C"/>
<stop offset="1" stop-color="#5D6D78"/>
</linearGradient>
</defs>
</svg>
