<svg width="265" height="356" viewBox="0 0 265 356" fill="none" xmlns="http://www.w3.org/2000/svg">
<path d="M141.783 323.414C119.323 323.414 102.173 318.714 87.7925 308.613C30.6325 268.473 18.6126 207.074 56.4326 148.384C66.8226 132.264 70.9426 124.584 89.8726 97.4735C99.9726 83.0135 113.213 63.4535 128.323 39.3435C134.543 29.4135 149.023 29.4135 155.243 39.3435C170.343 63.4535 183.593 83.0135 193.693 97.4735C212.623 124.574 216.743 132.254 227.133 148.384C264.953 207.074 252.933 268.464 195.773 308.613C181.393 318.714 164.243 323.414 141.783 323.414Z" fill="url(#paint0_radial_1890_96)"/>
<path d="M236.318 144.342C207.968 100.352 179.618 59.5325 151.268 13.8525C142.288 -0.6175 122.448 -0.6175 113.468 13.8525C85.1183 59.5325 56.7683 100.352 28.4183 144.342C-16.5117 214.062 -0.521698 288.183 65.6683 334.663C85.5683 348.633 108.298 353.483 132.378 353.483C156.458 353.483 179.188 348.633 199.088 334.663C265.268 288.183 281.248 214.062 236.318 144.342Z" stroke="url(#paint1_linear_1890_96)" stroke-width="5" stroke-miterlimit="10"/>
<path d="M130.503 159.555C124.273 159.555 119.223 164.605 119.223 170.835C119.223 177.065 124.273 182.115 130.503 182.115C136.733 182.115 141.783 177.065 141.783 170.835C141.773 164.605 136.723 159.555 130.503 159.555ZM121.303 170.825C121.303 165.745 125.423 161.625 130.503 161.625C135.583 161.625 139.703 165.745 139.703 170.825H121.303Z" fill="white"/>
<path d="M196.464 159.555C190.234 159.555 185.184 164.605 185.184 170.835C185.184 177.065 190.234 182.115 196.464 182.115C202.694 182.115 207.744 177.065 207.744 170.835C207.744 164.605 202.694 159.555 196.464 159.555ZM187.274 170.825C187.274 165.745 191.394 161.625 196.474 161.625C201.554 161.625 205.674 165.745 205.674 170.825H187.274Z" fill="white"/>
<path d="M158.133 178.765C158.013 175.605 161.153 169.515 164.273 171.265C166.653 172.595 169.053 178.475 168.823 181.355C168.373 186.775 158.333 184.205 158.133 178.765Z" fill="white"/>
<defs>
<radialGradient id="paint0_radial_1890_96" cx="0" cy="0" r="1" gradientUnits="userSpaceOnUse" gradientTransform="translate(141.782 177.659) scale(127.912 170.302)">
<stop stop-color="#605E5D"/>
<stop offset="0.346" stop-color="#706C69"/>
<stop offset="1" stop-color="#998E87"/>
</radialGradient>
<linearGradient id="paint1_linear_1890_96" x1="0.495205" y1="178.244" x2="264.241" y2="178.244" gradientUnits="userSpaceOnUse">
<stop stop-color="#9EA1A2"/>
<stop offset="0.3097" stop-color="#8E9497"/>
<stop offset="0.9148" stop-color="#63727C"/>
<stop offset="1" stop-color="#5D6D78"/>
</linearGradient>
</defs>
</svg>
