<svg width="252" height="183" viewBox="0 0 252 183" fill="none" xmlns="http://www.w3.org/2000/svg">
<path d="M95.1807 102.424C95.675 101.533 96.1693 100.642 96.6636 99.7504C96.8252 99.5702 97.0059 99.409 97.1437 99.2147C102.016 92.3591 110.6 89.1304 118.813 91.0316C122.335 91.847 125.439 93.4448 128.248 95.6968C130.425 97.4415 132.863 97.5695 135.387 96.5691C142.707 93.6676 149.661 94.374 156.163 98.788C163.663 103.885 166.924 112.954 164.552 121.697C164.215 122.944 163.582 124.072 163.216 125.305C162.955 125.774 162.694 126.243 162.437 126.713C162.266 126.917 162.061 127.102 161.924 127.324C160.426 129.738 158.378 131.644 156.106 133.27C151.552 136.527 146.467 138.651 140.977 139.793C131.575 141.756 122.516 140.609 113.851 136.588C107.41 133.602 101.954 129.297 97.7141 123.579C93.4315 117.804 92.3288 111.432 94.4392 104.539C94.6578 103.828 94.9335 103.131 95.1807 102.424Z" fill="#FFE24B"/>
<path d="M34.1552 45.6692C34.9157 44.9865 35.6762 44.3085 36.4319 43.6258C36.641 43.5073 36.8644 43.4124 37.0593 43.2749C43.9085 38.3822 53.0772 38.1214 60.2164 42.5922C63.2774 44.5076 65.6919 47.0346 67.6074 50.0736C69.0952 52.4347 71.3576 53.3497 74.0717 53.2264C81.9428 52.8661 88.2834 55.8008 92.9795 62.0875C98.398 69.3461 98.5121 78.9799 93.412 86.4755C92.6848 87.547 91.7199 88.4051 90.9689 89.4529C90.5696 89.8132 90.1704 90.1688 89.7711 90.5291C89.543 90.6619 89.2911 90.7709 89.0867 90.9369C86.8812 92.729 84.3193 93.8668 81.6433 94.6586C76.2723 96.2563 70.773 96.6072 65.2071 95.9007C55.6772 94.6918 47.4876 90.6619 40.6146 84.0386C35.505 79.1221 31.7596 73.2717 29.6207 66.4872C27.4628 59.6364 28.5037 53.2501 32.753 47.4234C33.1998 46.826 33.6894 46.2571 34.1552 45.6692Z" fill="#FFE24B"/>
<path d="M190.129 78.3919C190.984 77.8325 191.835 77.273 192.691 76.7136C192.914 76.6282 193.152 76.5666 193.366 76.4623C200.876 72.6552 209.983 73.7788 216.361 79.2737C219.099 81.63 221.1 84.4889 222.535 87.7839C223.648 90.3394 225.749 91.5863 228.448 91.8707C236.281 92.7004 242.109 96.5549 245.802 103.477C250.061 111.466 248.715 121.009 242.541 127.647C241.662 128.595 240.578 129.301 239.675 130.221C239.224 130.515 238.777 130.809 238.325 131.103C238.078 131.203 237.812 131.269 237.584 131.402C235.131 132.843 232.431 133.578 229.66 133.962C224.109 134.73 218.619 134.251 213.224 132.715C203.989 130.088 196.503 124.869 190.709 117.288C186.402 111.655 183.584 105.312 182.495 98.2854C181.397 91.188 183.394 85.0341 188.475 79.9138C189.007 79.3923 189.577 78.9039 190.129 78.3919Z" fill="#FFE24B"/>
<path d="M60.4018 53.781C58.8381 53.4444 57.298 54.4305 56.9606 55.9903C56.6231 57.5501 57.6118 59.0862 59.1755 59.4228C60.7393 59.7594 62.2793 58.7733 62.6168 57.2135C62.9542 55.6537 61.9608 54.1176 60.4018 53.781ZM59.2848 58.9013C58.011 58.6263 57.203 57.37 57.4787 56.0993C57.7543 54.8287 59.0139 54.0228 60.2877 54.2977L59.2848 58.9013Z" fill="#6D6600"/>
<path d="M76.9428 57.3606C75.3791 57.0239 73.8391 58.0101 73.5016 59.5699C73.1641 61.1297 74.1528 62.6658 75.7165 63.0024C77.2803 63.339 78.8203 62.3529 79.1578 60.7931C79.4952 59.238 78.5066 57.6972 76.9428 57.3606ZM75.8306 62.4809C74.5568 62.2059 73.7488 60.9495 74.0244 59.6789C74.3001 58.4083 75.5597 57.6024 76.8335 57.8773L75.8306 62.4809Z" fill="#6D6600"/>
<path d="M67.2458 61.6085C65.5965 61.2529 64.8788 59.4418 64.798 59.2095C64.6554 58.8208 64.855 58.3893 65.2448 58.2471C65.6345 58.1049 66.0671 58.304 66.2097 58.6928C66.2334 58.7544 66.7658 60.1957 67.8542 60.1672C68.5434 60.153 69.2374 59.5651 69.6557 59.0246C69.9076 58.6975 70.3781 58.6311 70.7108 58.8871C71.0388 59.1384 71.1006 59.6125 70.8487 59.9397C70.4542 60.4469 69.38 61.637 67.8875 61.6701C67.6594 61.6749 67.4455 61.6512 67.2458 61.6085Z" fill="#6D6600"/>
<path d="M139.218 99.4945C140.734 99.2432 142.169 100.267 142.421 101.78C142.673 103.292 141.647 104.724 140.13 104.975C138.614 105.226 137.179 104.202 136.927 102.69C136.675 101.173 137.701 99.741 139.218 99.4945ZM140.045 104.468C141.281 104.264 142.122 103.098 141.917 101.86C141.713 100.628 140.544 99.7884 139.303 99.9923L140.045 104.468Z" fill="#6D6600"/>
<path d="M123.143 102.145C124.66 101.893 126.095 102.917 126.347 104.43C126.599 105.942 125.572 107.374 124.056 107.625C122.54 107.877 121.104 106.852 120.852 105.34C120.601 103.828 121.627 102.396 123.143 102.145ZM123.97 107.123C125.206 106.919 126.048 105.753 125.843 104.515C125.639 103.282 124.47 102.443 123.229 102.647L123.97 107.123Z" fill="#6D6600"/>
<path d="M132.264 106.691C133.866 106.426 134.64 104.719 134.731 104.506C134.888 104.141 134.716 103.714 134.346 103.558C133.975 103.401 133.552 103.572 133.395 103.942C133.371 103.998 132.787 105.359 131.741 105.279C131.08 105.231 130.439 104.634 130.063 104.093C129.835 103.766 129.388 103.681 129.056 103.908C128.728 104.136 128.647 104.586 128.87 104.913C129.222 105.421 130.201 106.616 131.636 106.72C131.86 106.734 132.069 106.725 132.264 106.691Z" fill="#6D6600"/>
<path d="M219.967 98.3896C219.506 99.1624 220.889 101.68 223.199 101.922C224.929 102.102 226.726 100.959 226.664 100.115C226.555 98.6314 220.671 97.2043 219.967 98.3896Z" fill="#6D6600"/>
<path d="M218.295 94.7722C217.606 93.3973 215.933 92.8426 214.555 93.5301C213.176 94.2175 212.62 95.8864 213.309 97.2613C213.999 98.6362 215.672 99.1909 217.05 98.5035C218.428 97.8113 218.985 96.1424 218.295 94.7722ZM216.822 98.0436C215.7 98.603 214.331 98.1526 213.77 97.029L217.834 94.9998C218.4 96.1187 217.944 97.4841 216.822 98.0436Z" fill="#6D6600"/>
<path d="M233.77 99.9021C233.081 98.5272 231.408 97.9725 230.029 98.66C228.651 99.3474 228.095 101.016 228.784 102.391C229.473 103.766 231.146 104.321 232.525 103.633C233.898 102.946 234.459 101.277 233.77 99.9021ZM232.292 103.178C231.17 103.738 229.801 103.287 229.24 102.164L233.304 100.134C233.87 101.253 233.418 102.614 232.292 103.178Z" fill="#6D6600"/>
<path d="M251.538 168.202C251.415 166.846 250.226 165.841 248.867 165.94C242.522 166.4 235.539 166.561 228.025 166.22C212.801 165.528 199.63 162.958 189.049 160.057C183.013 159.018 174.41 156.771 165.284 151.523C155.454 145.871 148.577 138.784 143.961 132.762C139.798 127.324 134.303 123.039 128.039 120.256C123.794 118.369 119.16 115.898 114.421 112.646C107.534 107.924 102.139 102.737 97.9847 97.9156C91.9816 90.9463 84.3861 85.5225 75.9114 81.9287C73.34 80.8383 70.6307 79.5535 67.8406 78.0411C48.9994 67.8193 38.7707 53.4966 26.964 37.742C20.6567 29.3219 12.7332 17.346 5.54181 1.79529C4.96669 0.553133 3.63582 -0.162768 2.27644 0.0316157H2.25267L2.22891 0.0363568C1.01687 0.211776 0.265877 1.43971 0.660384 2.59179C1.66329 5.52177 2.77076 8.5276 4.00181 11.5903C7.6712 20.7264 11.8064 28.881 16.0271 36.0684C17.8808 39.2212 17.8999 43.1516 16.0081 46.2807C7.69496 60.044 8.50299 77.2541 17.9379 88.9408C26.3556 99.3711 40.5816 104.093 54.5367 101.268C54.2705 103.264 51.951 123.257 67.3701 137.774C84.2436 153.661 106.512 148.071 107.771 147.73C108.361 150.044 114.274 171.663 135.339 179.969C150.915 186.109 169.11 182.738 182.618 171.511C186.326 168.429 191.231 167.178 195.932 168.287C205.623 170.572 217.249 172.331 230.401 172.388C237.136 172.417 243.387 171.995 249.071 171.317C250.588 171.137 251.681 169.776 251.543 168.259L251.538 168.202Z" fill="url(#paint0_linear_4373_2477)"/>
<defs>
<linearGradient id="paint0_linear_4373_2477" x1="126.987" y1="84.09" x2="84.9745" y2="143.609" gradientUnits="userSpaceOnUse">
<stop stop-color="#E5D545"/>
<stop offset="0.2731" stop-color="#E3D444"/>
<stop offset="0.3735" stop-color="#DCCF42"/>
<stop offset="0.4453" stop-color="#D0C83D"/>
<stop offset="0.5033" stop-color="#C0BD37"/>
<stop offset="0.5178" stop-color="#BAB935"/>
<stop offset="0.8493" stop-color="#A9A72C"/>
<stop offset="1" stop-color="#9F9D27"/>
</linearGradient>
</defs>
</svg>
