<svg width="292" height="208" viewBox="0 0 292 208" fill="none" xmlns="http://www.w3.org/2000/svg">
<path d="M28.3084 191.735C45.0385 177.889 61.4315 163.629 77.4303 148.927C85.4274 141.577 93.3342 134.126 101.146 126.576C108.944 119.012 116.651 111.352 124.268 103.598C131.871 95.8296 139.369 87.9661 146.787 80.0218C154.186 72.0586 161.489 64.0051 168.679 55.8519C183.063 39.5455 197.02 22.864 210.54 5.82159C210.754 5.55093 211.148 5.50818 211.419 5.72187C211.685 5.93555 211.732 6.32019 211.528 6.59085C198.25 23.8469 184.521 40.7611 170.355 57.3097C163.275 65.5816 156.076 73.7585 148.782 81.85C141.468 89.9224 134.07 97.9189 126.566 105.816C119.044 113.698 111.432 121.495 103.725 129.197C96.003 136.885 88.1817 144.478 80.2701 151.971C64.4375 166.958 48.2013 181.516 31.6089 195.667C30.5309 196.588 28.9115 196.46 27.9902 195.382C27.069 194.304 27.1972 192.685 28.2752 191.764C28.2799 191.759 28.2894 191.754 28.2942 191.749L28.3084 191.735Z" fill="url(#paint0_radial_4373_2424)"/>
<path d="M210.018 9.33556C212.596 9.33556 214.686 7.24571 214.686 4.66776C214.686 2.08982 212.596 0 210.018 0C207.44 0 205.35 2.08982 205.35 4.66776C205.35 7.24571 207.44 9.33556 210.018 9.33556Z" fill="url(#paint1_radial_4373_2424)"/>
<path d="M207.404 26.7435C209.983 26.7435 212.073 24.6537 212.073 22.0758C212.073 19.4978 209.983 17.408 207.404 17.408C204.826 17.408 202.736 19.4978 202.736 22.0758C202.736 24.6537 204.826 26.7435 207.404 26.7435Z" fill="url(#paint2_radial_4373_2424)"/>
<path d="M185.063 34.3888C187.641 34.3888 189.731 32.2989 189.731 29.721C189.731 27.143 187.641 25.0532 185.063 25.0532C182.485 25.0532 180.395 27.143 180.395 29.721C180.395 32.2989 182.485 34.3888 185.063 34.3888Z" fill="url(#paint3_radial_4373_2424)"/>
<path d="M170.707 53.7389C173.285 53.7389 175.375 51.649 175.375 49.0711C175.375 46.4931 173.285 44.4033 170.707 44.4033C168.129 44.4033 166.039 46.4931 166.039 49.0711C166.039 51.649 168.129 53.7389 170.707 53.7389Z" fill="url(#paint4_radial_4373_2424)"/>
<path d="M165.283 75.829C167.861 75.829 169.951 73.7391 169.951 71.1612C169.951 68.5833 167.861 66.4934 165.283 66.4934C162.705 66.4934 160.615 68.5833 160.615 71.1612C160.615 73.7391 162.705 75.829 165.283 75.829Z" fill="url(#paint5_radial_4373_2424)"/>
<path d="M140.053 87.1447C142.631 87.1447 144.721 85.0548 144.721 82.4768C144.721 79.8989 142.631 77.8091 140.053 77.8091C137.475 77.8091 135.385 79.8989 135.385 82.4768C135.385 85.0548 137.475 87.1447 140.053 87.1447Z" fill="url(#paint6_radial_4373_2424)"/>
<path d="M150.106 69.504C151.59 69.504 152.794 68.3007 152.794 66.8163C152.794 65.332 151.59 64.1287 150.106 64.1287C148.621 64.1287 147.418 65.332 147.418 66.8163C147.418 68.3007 148.621 69.504 150.106 69.504Z" fill="url(#paint7_radial_4373_2424)"/>
<path d="M155.543 55.2774C157.028 55.2774 158.231 54.0741 158.231 52.5898C158.231 51.1054 157.028 49.9021 155.543 49.9021C154.059 49.9021 152.855 51.1054 152.855 52.5898C152.855 54.0741 154.059 55.2774 155.543 55.2774Z" fill="url(#paint8_radial_4373_2424)"/>
<path d="M179.891 63.6111C181.375 63.6111 182.579 62.4078 182.579 60.9235C182.579 59.4391 181.375 58.2358 179.891 58.2358C178.407 58.2358 177.203 59.4391 177.203 60.9235C177.203 62.4078 178.407 63.6111 179.891 63.6111Z" fill="url(#paint9_radial_4373_2424)"/>
<path d="M174.61 36.929C176.094 36.929 177.298 35.7257 177.298 34.2414C177.298 32.757 176.094 31.5537 174.61 31.5537C173.125 31.5537 171.922 32.757 171.922 34.2414C171.922 35.7257 173.125 36.929 174.61 36.929Z" fill="url(#paint10_radial_4373_2424)"/>
<path d="M199.02 38.4156C200.504 38.4156 201.708 37.2123 201.708 35.728C201.708 34.2436 200.504 33.0403 199.02 33.0403C197.535 33.0403 196.332 34.2436 196.332 35.728C196.332 37.2123 197.535 38.4156 199.02 38.4156Z" fill="url(#paint11_radial_4373_2424)"/>
<path d="M170.797 68.6397C167.169 58.8577 163.313 52.1481 155.601 38.7241C138.325 8.65174 131.895 7.40764 128.87 7.51211C128.756 7.51686 128.647 7.52635 128.533 7.53585C128.419 7.52635 128.31 7.51686 128.196 7.51211C125.171 7.40764 118.741 8.647 101.464 38.7241C93.7524 52.1481 89.8963 58.8577 86.2682 68.6397C81.3627 81.8643 76.8561 94.0109 77.7203 109.952C78.1857 118.489 79.3777 140.513 96.7157 155.062C101.821 159.346 113.08 166.972 128.319 166.573C128.39 166.573 128.462 166.568 128.533 166.563C128.604 166.563 128.675 166.568 128.747 166.573C143.986 166.972 155.245 159.346 160.35 155.062C177.688 140.513 178.88 118.489 179.345 109.952C180.21 94.0157 175.703 81.869 170.797 68.6397Z" fill="url(#paint12_radial_4373_2424)"/>
<path d="M120.796 75.9524C120.369 77.9277 125.089 82.3201 130.175 81.1995C133.979 80.359 136.995 76.6551 136.263 74.8934C134.981 71.8069 121.452 72.9276 120.796 75.9524Z" fill="white"/>
<path d="M114.675 69.4231C112.234 66.9823 108.279 66.9823 105.842 69.4231C103.401 71.8638 103.401 75.8193 105.842 78.2553C108.283 80.696 112.239 80.696 114.675 78.2553C117.116 75.8145 117.116 71.8591 114.675 69.4231ZM113.863 77.4433C111.873 79.4329 108.649 79.4329 106.654 77.4433L113.858 70.2351C115.853 72.2247 115.853 75.4537 113.863 77.4433Z" fill="white"/>
<path d="M151.222 69.4231C148.781 66.9823 144.825 66.9823 142.389 69.4231C139.948 71.8638 139.948 75.8193 142.389 78.2553C144.83 80.696 148.786 80.696 151.222 78.2553C153.663 75.8145 153.663 71.8591 151.222 69.4231ZM150.41 77.4433C148.42 79.4329 145.196 79.4329 143.201 77.4433L150.405 70.2351C152.4 72.2247 152.4 75.4537 150.41 77.4433Z" fill="white"/>
<path d="M2.51708 201.864C27.382 191.431 51.9952 180.386 76.2949 168.676C88.4424 162.817 100.519 156.81 112.524 150.651C124.515 144.469 136.429 138.139 148.268 131.671C160.098 125.18 171.837 118.528 183.509 111.756C195.163 104.956 206.741 98.0139 218.223 90.9149C241.184 76.7169 263.774 61.911 285.97 46.5306C286.321 46.2884 286.806 46.3739 287.048 46.7253C287.29 47.0719 287.205 47.5515 286.863 47.7985C264.876 63.5255 242.476 78.6828 219.691 93.2512C208.298 100.535 196.801 107.658 185.224 114.648C173.627 121.609 161.959 128.447 150.196 135.133C138.424 141.795 126.571 148.32 114.637 154.697C102.694 161.055 90.6696 167.257 78.5696 173.321C54.3648 185.429 29.8276 196.887 5.01971 207.733C3.40511 208.436 1.52932 207.705 0.821748 206.09C0.118921 204.476 0.850241 202.6 2.46484 201.892C2.47434 201.888 2.48384 201.883 2.49334 201.878L2.51708 201.864Z" fill="url(#paint13_radial_4373_2424)"/>
<path d="M285.76 50.7568C288.96 50.7568 291.554 48.1631 291.554 44.9636C291.554 41.7641 288.96 39.1704 285.76 39.1704C282.561 39.1704 279.967 41.7641 279.967 44.9636C279.967 48.1631 282.561 50.7568 285.76 50.7568Z" fill="url(#paint14_radial_4373_2424)"/>
<path d="M276.391 70.5011C279.591 70.5011 282.185 67.9074 282.185 64.708C282.185 61.5085 279.591 58.9148 276.391 58.9148C273.192 58.9148 270.598 61.5085 270.598 64.708C270.598 67.9074 273.192 70.5011 276.391 70.5011Z" fill="url(#paint15_radial_4373_2424)"/>
<path d="M247.087 71.5505C250.286 71.5505 252.88 68.9568 252.88 65.7573C252.88 62.5578 250.286 59.9641 247.087 59.9641C243.887 59.9641 241.293 62.5578 241.293 65.7573C241.293 68.9568 243.887 71.5505 247.087 71.5505Z" fill="url(#paint16_radial_4373_2424)"/>
<path d="M223.071 89.3764C226.271 89.3764 228.864 86.7827 228.864 83.5833C228.864 80.3838 226.271 77.79 223.071 77.79C219.871 77.79 217.277 80.3838 217.277 83.5833C217.277 86.7827 219.871 89.3764 223.071 89.3764Z" fill="url(#paint17_radial_4373_2424)"/>
<path d="M208.672 113.675C211.872 113.675 214.466 111.081 214.466 107.881C214.466 104.682 211.872 102.088 208.672 102.088C205.473 102.088 202.879 104.682 202.879 107.881C202.879 111.081 205.473 113.675 208.672 113.675Z" fill="url(#paint18_radial_4373_2424)"/>
<path d="M174.62 118.039C177.819 118.039 180.413 115.445 180.413 112.245C180.413 109.046 177.819 106.452 174.62 106.452C171.42 106.452 168.826 109.046 168.826 112.245C168.826 115.445 171.42 118.039 174.62 118.039Z" fill="url(#paint19_radial_4373_2424)"/>
<path d="M192.204 100.597C194.047 100.597 195.542 99.1027 195.542 97.2591C195.542 95.4154 194.047 93.9209 192.204 93.9209C190.36 93.9209 188.865 95.4154 188.865 97.2591C188.865 99.1027 190.36 100.597 192.204 100.597Z" fill="url(#paint20_radial_4373_2424)"/>
<path d="M203.782 85.644C205.626 85.644 207.12 84.1494 207.12 82.3057C207.12 80.4621 205.626 78.9675 203.782 78.9675C201.938 78.9675 200.443 80.4621 200.443 82.3057C200.443 84.1494 201.938 85.644 203.782 85.644Z" fill="url(#paint21_radial_4373_2424)"/>
<path d="M229.715 104.306C231.559 104.306 233.054 102.811 233.054 100.968C233.054 99.124 231.559 97.6294 229.715 97.6294C227.872 97.6294 226.377 99.124 226.377 100.968C226.377 102.811 227.872 104.306 229.715 104.306Z" fill="url(#paint22_radial_4373_2424)"/>
<path d="M233.04 70.7052C234.883 70.7052 236.378 69.2107 236.378 67.367C236.378 65.5234 234.883 64.0288 233.04 64.0288C231.196 64.0288 229.701 65.5234 229.701 67.367C229.701 69.2107 231.196 70.7052 233.04 70.7052Z" fill="url(#paint23_radial_4373_2424)"/>
<path d="M261.508 81.2518C263.352 81.2518 264.847 79.7573 264.847 77.9136C264.847 76.07 263.352 74.5754 261.508 74.5754C259.665 74.5754 258.17 76.07 258.17 77.9136C258.17 79.7573 259.665 81.2518 261.508 81.2518Z" fill="url(#paint24_radial_4373_2424)"/>
<defs>
<radialGradient id="paint0_radial_4373_2424" cx="0" cy="0" r="1" gradientUnits="userSpaceOnUse" gradientTransform="translate(120.498 99.9403) rotate(-37.763) scale(94.2228 125.451)">
<stop stop-color="#E1BD38"/>
<stop offset="0.4305" stop-color="#D1AE3F"/>
<stop offset="1" stop-color="#B5954C"/>
</radialGradient>
<radialGradient id="paint1_radial_4373_2424" cx="0" cy="0" r="1" gradientUnits="userSpaceOnUse" gradientTransform="translate(210.023 4.64539) rotate(-37.763) scale(4.66709 6.21391)">
<stop stop-color="#E1BD38"/>
<stop offset="0.4305" stop-color="#D1AE3F"/>
<stop offset="1" stop-color="#B5954C"/>
</radialGradient>
<radialGradient id="paint2_radial_4373_2424" cx="0" cy="0" r="1" gradientUnits="userSpaceOnUse" gradientTransform="translate(207.409 22.0548) rotate(-37.7631) scale(4.6671 6.21392)">
<stop stop-color="#E1BD38"/>
<stop offset="0.4305" stop-color="#D1AE3F"/>
<stop offset="1" stop-color="#B5954C"/>
</radialGradient>
<radialGradient id="paint3_radial_4373_2424" cx="0" cy="0" r="1" gradientUnits="userSpaceOnUse" gradientTransform="translate(185.067 29.7022) rotate(-37.763) scale(4.66709 6.2139)">
<stop stop-color="#E1BD38"/>
<stop offset="0.4305" stop-color="#D1AE3F"/>
<stop offset="1" stop-color="#B5954C"/>
</radialGradient>
<radialGradient id="paint4_radial_4373_2424" cx="0" cy="0" r="1" gradientUnits="userSpaceOnUse" gradientTransform="translate(170.716 49.0488) rotate(-37.763) scale(4.66709 6.21391)">
<stop stop-color="#E1BD38"/>
<stop offset="0.4305" stop-color="#D1AE3F"/>
<stop offset="1" stop-color="#B5954C"/>
</radialGradient>
<radialGradient id="paint5_radial_4373_2424" cx="0" cy="0" r="1" gradientUnits="userSpaceOnUse" gradientTransform="translate(165.29 71.1414) rotate(-37.7631) scale(4.6671 6.21392)">
<stop stop-color="#E1BD38"/>
<stop offset="0.4305" stop-color="#D1AE3F"/>
<stop offset="1" stop-color="#B5954C"/>
</radialGradient>
<radialGradient id="paint6_radial_4373_2424" cx="0" cy="0" r="1" gradientUnits="userSpaceOnUse" gradientTransform="translate(140.062 82.4545) rotate(-37.7631) scale(4.66709 6.21391)">
<stop stop-color="#E1BD38"/>
<stop offset="0.4305" stop-color="#D1AE3F"/>
<stop offset="1" stop-color="#B5954C"/>
</radialGradient>
<radialGradient id="paint7_radial_4373_2424" cx="0" cy="0" r="1" gradientUnits="userSpaceOnUse" gradientTransform="translate(150.115 66.7959) rotate(-37.7631) scale(2.6871 3.57768)">
<stop stop-color="#E1BD38"/>
<stop offset="0.4305" stop-color="#D1AE3F"/>
<stop offset="1" stop-color="#B5954C"/>
</radialGradient>
<radialGradient id="paint8_radial_4373_2424" cx="0" cy="0" r="1" gradientUnits="userSpaceOnUse" gradientTransform="translate(155.55 52.5671) rotate(-37.763) scale(2.6871 3.57769)">
<stop stop-color="#E1BD38"/>
<stop offset="0.4305" stop-color="#D1AE3F"/>
<stop offset="1" stop-color="#B5954C"/>
</radialGradient>
<radialGradient id="paint9_radial_4373_2424" cx="0" cy="0" r="1" gradientUnits="userSpaceOnUse" gradientTransform="translate(179.897 60.8994) rotate(-37.763) scale(2.68709 3.57767)">
<stop stop-color="#E1BD38"/>
<stop offset="0.4305" stop-color="#D1AE3F"/>
<stop offset="1" stop-color="#B5954C"/>
</radialGradient>
<radialGradient id="paint10_radial_4373_2424" cx="0" cy="0" r="1" gradientUnits="userSpaceOnUse" gradientTransform="translate(174.613 34.2216) rotate(-37.7629) scale(2.68709 3.57768)">
<stop stop-color="#E1BD38"/>
<stop offset="0.4305" stop-color="#D1AE3F"/>
<stop offset="1" stop-color="#B5954C"/>
</radialGradient>
<radialGradient id="paint11_radial_4373_2424" cx="0" cy="0" r="1" gradientUnits="userSpaceOnUse" gradientTransform="translate(199.024 35.7075) rotate(-37.7631) scale(2.6871 3.57768)">
<stop stop-color="#E1BD38"/>
<stop offset="0.4305" stop-color="#D1AE3F"/>
<stop offset="1" stop-color="#B5954C"/>
</radialGradient>
<radialGradient id="paint12_radial_4373_2424" cx="0" cy="0" r="1" gradientUnits="userSpaceOnUse" gradientTransform="translate(183.277 87.0408) scale(67.5817 89.9721)">
<stop stop-color="#E18929"/>
<stop offset="0.4305" stop-color="#D17F31"/>
<stop offset="1" stop-color="#B56E40"/>
</radialGradient>
<radialGradient id="paint13_radial_4373_2424" cx="0" cy="0" r="1" gradientUnits="userSpaceOnUse" gradientTransform="translate(145.092 125.973) rotate(-20.9149) scale(116.99 155.756)">
<stop stop-color="#E1BD38"/>
<stop offset="0.4305" stop-color="#D1AE3F"/>
<stop offset="1" stop-color="#B5954C"/>
</radialGradient>
<radialGradient id="paint14_radial_4373_2424" cx="0" cy="0" r="1" gradientUnits="userSpaceOnUse" gradientTransform="translate(285.763 44.9589) rotate(-20.9149) scale(5.79479 7.71498)">
<stop stop-color="#E1BD38"/>
<stop offset="0.4305" stop-color="#D1AE3F"/>
<stop offset="1" stop-color="#B5954C"/>
</radialGradient>
<radialGradient id="paint15_radial_4373_2424" cx="0" cy="0" r="1" gradientUnits="userSpaceOnUse" gradientTransform="translate(276.392 64.7067) rotate(-20.9149) scale(5.79477 7.71496)">
<stop stop-color="#E1BD38"/>
<stop offset="0.4305" stop-color="#D1AE3F"/>
<stop offset="1" stop-color="#B5954C"/>
</radialGradient>
<radialGradient id="paint16_radial_4373_2424" cx="0" cy="0" r="1" gradientUnits="userSpaceOnUse" gradientTransform="translate(247.09 65.7537) rotate(-20.9149) scale(5.79479 7.71498)">
<stop stop-color="#E1BD38"/>
<stop offset="0.4305" stop-color="#D1AE3F"/>
<stop offset="1" stop-color="#B5954C"/>
</radialGradient>
<radialGradient id="paint17_radial_4373_2424" cx="0" cy="0" r="1" gradientUnits="userSpaceOnUse" gradientTransform="translate(223.072 83.5792) rotate(-20.9149) scale(5.79478 7.71498)">
<stop stop-color="#E1BD38"/>
<stop offset="0.4305" stop-color="#D1AE3F"/>
<stop offset="1" stop-color="#B5954C"/>
</radialGradient>
<radialGradient id="paint18_radial_4373_2424" cx="0" cy="0" r="1" gradientUnits="userSpaceOnUse" gradientTransform="translate(208.673 107.88) rotate(-20.9149) scale(5.79479 7.71498)">
<stop stop-color="#E1BD38"/>
<stop offset="0.4305" stop-color="#D1AE3F"/>
<stop offset="1" stop-color="#B5954C"/>
</radialGradient>
<radialGradient id="paint19_radial_4373_2424" cx="0" cy="0" r="1" gradientUnits="userSpaceOnUse" gradientTransform="translate(174.625 112.245) rotate(-20.9149) scale(5.79478 7.71498)">
<stop stop-color="#E1BD38"/>
<stop offset="0.4305" stop-color="#D1AE3F"/>
<stop offset="1" stop-color="#B5954C"/>
</radialGradient>
<radialGradient id="paint20_radial_4373_2424" cx="0" cy="0" r="1" gradientUnits="userSpaceOnUse" gradientTransform="translate(192.206 97.2553) rotate(-20.9148) scale(3.33639 4.44194)">
<stop stop-color="#E1BD38"/>
<stop offset="0.4305" stop-color="#D1AE3F"/>
<stop offset="1" stop-color="#B5954C"/>
</radialGradient>
<radialGradient id="paint21_radial_4373_2424" cx="0" cy="0" r="1" gradientUnits="userSpaceOnUse" gradientTransform="translate(203.786 82.3026) rotate(-20.9149) scale(3.33639 4.44197)">
<stop stop-color="#E1BD38"/>
<stop offset="0.4305" stop-color="#D1AE3F"/>
<stop offset="1" stop-color="#B5954C"/>
</radialGradient>
<radialGradient id="paint22_radial_4373_2424" cx="0" cy="0" r="1" gradientUnits="userSpaceOnUse" gradientTransform="translate(229.718 100.966) rotate(-20.9149) scale(3.33639 4.44197)">
<stop stop-color="#E1BD38"/>
<stop offset="0.4305" stop-color="#D1AE3F"/>
<stop offset="1" stop-color="#B5954C"/>
</radialGradient>
<radialGradient id="paint23_radial_4373_2424" cx="0" cy="0" r="1" gradientUnits="userSpaceOnUse" gradientTransform="translate(233.042 67.3627) rotate(-20.9149) scale(3.33639 4.44196)">
<stop stop-color="#E1BD38"/>
<stop offset="0.4305" stop-color="#D1AE3F"/>
<stop offset="1" stop-color="#B5954C"/>
</radialGradient>
<radialGradient id="paint24_radial_4373_2424" cx="0" cy="0" r="1" gradientUnits="userSpaceOnUse" gradientTransform="translate(261.512 77.9122) rotate(-20.9149) scale(3.33639 4.44196)">
<stop stop-color="#E1BD38"/>
<stop offset="0.4305" stop-color="#D1AE3F"/>
<stop offset="1" stop-color="#B5954C"/>
</radialGradient>
</defs>
</svg>
