<svg width="480" height="486" viewBox="0 0 480 486" fill="none" xmlns="http://www.w3.org/2000/svg">
<path d="M467.983 258.048C466.466 219.377 433.28 200.497 431.611 199.594C454.46 182.827 461.953 152.598 450.281 128.902C440.233 108.487 417.557 96.1719 393.644 98.4744C381.41 65.235 361.982 40.7189 343.799 41.6761C319.357 42.951 302.924 89.9008 299.143 122.865C296.344 147.26 300.359 163.534 305.897 177.681C305.829 177.659 305.76 177.646 305.693 177.624C305.831 177.882 306.167 178.51 306.594 179.428C306.926 180.248 307.259 181.069 307.603 181.881C309.426 186.802 311.264 195.097 307.111 202.58C306.086 204.42 304.854 205.939 303.588 207.188C302.653 208.11 301.099 207.886 300.458 206.738C296.654 199.863 292.84 192.986 289.035 186.121C285.908 180.472 278.329 179.227 273.552 183.573C268.254 188.397 262.944 193.228 257.646 198.051C255.578 199.931 252.253 198.806 251.753 196.058C251.349 193.854 251.165 191.273 251.486 188.415C252.026 183.626 253.822 179.719 255.801 176.727C268.093 163.856 280.255 149.53 287.14 120.738C294.86 88.4688 295.475 38.7401 272.944 29.1723C256.166 22.0506 229.526 38.4335 206.67 65.4957C184.975 55.1614 159.466 58.9697 143.042 74.7169C123.969 92.9925 120.669 123.97 136.407 147.531C134.529 147.819 96.8985 154.202 82.236 190.02C72.761 213.176 76.5098 239.771 92.0252 259.526C61.4446 283.459 51.969 323.319 67.031 352.843C83.391 384.911 121.129 389.951 124.412 390.337C140.193 414.748 163.401 428.883 184.261 425.412C209.986 421.124 222.637 391.643 227.107 381.211C234.363 364.304 235.791 349.7 234.48 336.055C234.342 334.65 234.431 333.224 234.919 331.898C235.395 330.581 236.003 329.835 236.743 329.671C238.667 329.239 241.468 332.708 245.155 340.07C248.397 346.562 256.962 348.092 262.379 343.28C268.895 337.483 273.037 335.187 274.806 336.383C275.549 336.89 275.866 338.032 275.757 339.8C275.666 341.297 275.208 342.739 274.582 344.101C268.934 356.265 265.477 370.227 266.489 388.155C267.131 399.489 268.937 431.519 291.634 444.345C310.049 454.741 336.692 449.396 359.87 431.854C363.077 432.613 400.273 440.786 426.614 416.247C450.865 393.655 455.594 352.958 435.044 320.009C456.348 306.757 468.967 283.048 467.983 258.048Z" fill="url(#paint0_radial_4822_2784)"/>
<path d="M160.466 367.034C149.001 361.915 146.166 350.58 131.867 348.059C131.049 347.915 130.229 347.791 129.402 347.696C129.402 347.696 129.146 347.65 128.851 347.598C127.019 347.275 110.789 344.129 105.279 333.339C99.9661 322.928 103.451 305.122 118.494 293.346C127.471 286.318 133.289 276.012 134.655 264.697C136.03 253.384 132.841 241.987 125.801 233.018C119.823 225.404 118.358 215.164 121.983 206.299C127.191 193.58 141.909 190.215 143.426 189.904C157.694 187.535 169.84 178.142 175.69 164.886C181.623 151.452 180.281 135.913 172.118 123.7C167.747 117.162 169.046 109.277 172.76 105.718C175.363 103.223 179.666 102.143 183.979 102.904C185.427 103.159 186.85 103.613 188.208 104.259C191.778 105.954 195.481 107.125 199.223 107.785C210.342 109.746 229.5 88.398 239.475 93.2134C245.65 96.2011 245.431 108.388 245.38 110.745C245.315 113.993 244.251 119.512 237.992 130.421C233.843 137.651 228.575 143.109 221.74 150.199C208.545 163.876 190.477 182.613 180.982 217.108C169.731 257.996 178.956 290.217 185.693 313.745C190.213 329.519 192.847 339.569 191.709 349.767C190.878 357.246 190.457 361.304 187.657 364.283C181.77 370.546 169.399 371.025 160.466 367.034Z" fill="url(#paint1_radial_4822_2784)"/>
<path d="M309.329 385.747C307.718 381.869 308.747 377.877 310.486 370.72C312.906 360.739 318.829 352.197 328.461 338.918C342.839 319.114 362.538 291.993 365.94 249.721C368.816 214.059 358.246 190.272 350.524 172.907C346.518 163.895 343.435 156.964 342.017 148.763C339.867 136.372 340.744 130.82 341.804 127.747C342.573 125.517 346.525 113.988 353.349 113.292C364.37 112.179 375.071 138.792 386.19 140.752C389.942 141.414 393.822 141.58 397.746 141.206C399.244 141.064 400.736 141.124 402.184 141.379C406.497 142.139 410.171 144.625 411.762 147.871C414.027 152.474 412.551 160.327 406.206 164.986C394.367 173.672 387.782 187.813 388.762 202.466C389.726 216.923 397.927 229.905 410.524 237.01C411.843 237.821 424.533 246.019 425.066 259.751C425.44 269.321 420.562 278.443 412.338 283.562C402.656 289.582 395.761 299.201 393.184 310.302C390.607 321.404 392.539 333.076 398.571 342.751C408.681 358.953 405.866 376.876 397.313 384.842C388.443 393.107 372.115 390.512 370.284 390.189C369.988 390.137 369.762 390.097 369.616 390.062C368.807 389.868 367.993 389.704 367.176 389.56C363.955 388.992 360.72 388.798 357.511 388.973C350.007 389.376 343.036 396.372 333.928 397.64C324.312 398.96 312.712 393.858 309.329 385.747Z" fill="url(#paint2_radial_4822_2784)"/>
<path d="M266.292 272.088C258.797 270.766 255.261 262.72 254.841 261.701C254.131 259.972 254.956 257.995 256.688 257.275C258.427 256.566 260.404 257.392 261.114 259.122C261.23 259.386 263.886 265.804 268.787 265.48C271.886 265.296 274.902 262.528 276.698 260.001C277.78 258.476 279.886 258.106 281.421 259.189C282.947 260.27 283.305 262.384 282.233 263.912C280.557 266.276 275.933 271.828 269.208 272.246C268.172 272.307 267.198 272.247 266.292 272.088Z" fill="#DCE7EA"/>
<path d="M229.482 264.145C236.572 265.395 243.328 260.656 244.576 253.576L218.912 249.05C217.664 256.131 222.391 262.895 229.482 264.145Z" fill="#DCE7EA"/>
<path d="M304.573 277.385C311.664 278.635 318.419 273.897 319.668 266.816L294.004 262.291C292.755 269.371 297.483 276.135 304.573 277.385Z" fill="#DCE7EA"/>
<defs>
<radialGradient id="paint0_radial_4822_2784" cx="0" cy="0" r="1" gradientUnits="userSpaceOnUse" gradientTransform="translate(272.998 236.01) rotate(10) scale(200.842 355.933)">
<stop stop-color="#A26336"/>
<stop offset="0.4822" stop-color="#B77340"/>
<stop offset="0.6354" stop-color="#AF6E3E"/>
<stop offset="0.876" stop-color="#985F3A"/>
<stop offset="1" stop-color="#8A5637"/>
</radialGradient>
<radialGradient id="paint1_radial_4822_2784" cx="0" cy="0" r="1" gradientUnits="userSpaceOnUse" gradientTransform="translate(171.673 225.434) rotate(10) scale(107.307 107.307)">
<stop stop-color="#C9B57F"/>
<stop offset="0.4268" stop-color="#CAB077"/>
<stop offset="1" stop-color="#CDA464"/>
</radialGradient>
<radialGradient id="paint2_radial_4822_2784" cx="0" cy="0" r="1" gradientUnits="userSpaceOnUse" gradientTransform="translate(371.805 260.87) rotate(10) scale(107.403 107.403)">
<stop stop-color="#C9B57F"/>
<stop offset="0.4268" stop-color="#CAB077"/>
<stop offset="1" stop-color="#CDA464"/>
</radialGradient>
</defs>
</svg>
