<svg width="614" height="613" viewBox="0 0 614 613" fill="none" xmlns="http://www.w3.org/2000/svg">
<path d="M58.4633 491.75C93.7059 462.592 128.238 432.565 161.94 401.607C178.786 386.128 195.442 370.439 211.898 354.54C228.324 338.611 244.559 322.483 260.605 306.154C276.621 289.795 292.416 273.236 308.042 256.508C323.627 239.739 339.013 222.78 354.158 205.611C384.459 171.274 413.859 136.146 442.34 100.259C442.79 99.6891 443.62 99.5991 444.19 100.049C444.75 100.499 444.851 101.309 444.42 101.879C416.45 138.216 387.53 173.834 357.69 208.681C342.774 226.1 327.609 243.318 312.243 260.357C296.838 277.356 281.252 294.195 265.447 310.824C249.601 327.422 233.566 343.841 217.33 360.06C201.064 376.249 184.588 392.238 167.922 408.016C134.57 439.574 100.368 470.232 65.4158 500.03C63.145 501.969 59.7338 501.699 57.7931 499.43C55.8524 497.16 56.1225 493.75 58.3933 491.81C58.4033 491.8 58.4233 491.79 58.4333 491.78L58.4633 491.75Z" fill="url(#paint0_radial_2569_1899)"/>
<path d="M441.239 107.659C446.67 107.659 451.072 103.258 451.072 97.8292C451.072 92.4007 446.67 88 441.239 88C435.808 88 431.405 92.4007 431.405 97.8292C431.405 103.258 435.808 107.659 441.239 107.659Z" fill="url(#paint1_radial_2569_1899)"/>
<path d="M435.737 144.316C441.168 144.316 445.57 139.915 445.57 134.487C445.57 129.058 441.168 124.657 435.737 124.657C430.306 124.657 425.903 129.058 425.903 134.487C425.903 139.915 430.306 144.316 435.737 144.316Z" fill="url(#paint2_radial_2569_1899)"/>
<path d="M388.67 160.415C394.101 160.415 398.504 156.014 398.504 150.585C398.504 145.157 394.101 140.756 388.67 140.756C383.24 140.756 378.837 145.157 378.837 150.585C378.837 156.014 383.24 160.415 388.67 160.415Z" fill="url(#paint3_radial_2569_1899)"/>
<path d="M358.429 201.162C363.86 201.162 368.263 196.761 368.263 191.332C368.263 185.904 363.86 181.503 358.429 181.503C352.998 181.503 348.596 185.904 348.596 191.332C348.596 196.761 352.998 201.162 358.429 201.162Z" fill="url(#paint4_radial_2569_1899)"/>
<path d="M347.005 247.678C352.436 247.678 356.839 243.278 356.839 237.849C356.839 232.421 352.436 228.02 347.005 228.02C341.574 228.02 337.172 232.421 337.172 237.849C337.172 243.278 341.574 247.678 347.005 247.678Z" fill="url(#paint5_radial_2569_1899)"/>
<path d="M293.857 271.506C299.288 271.506 303.69 267.106 303.69 261.677C303.69 256.248 299.288 251.848 293.857 251.848C288.426 251.848 284.023 256.248 284.023 261.677C284.023 267.106 288.426 271.506 293.857 271.506Z" fill="url(#paint6_radial_2569_1899)"/>
<path d="M315.034 234.359C318.161 234.359 320.696 231.825 320.696 228.7C320.696 225.574 318.161 223.04 315.034 223.04C311.907 223.04 309.372 225.574 309.372 228.7C309.372 231.825 311.907 234.359 315.034 234.359Z" fill="url(#paint7_radial_2569_1899)"/>
<path d="M326.488 204.401C329.615 204.401 332.15 201.867 332.15 198.742C332.15 195.616 329.615 193.082 326.488 193.082C323.361 193.082 320.826 195.616 320.826 198.742C320.826 201.867 323.361 204.401 326.488 204.401Z" fill="url(#paint8_radial_2569_1899)"/>
<path d="M377.776 221.95C380.903 221.95 383.438 219.416 383.438 216.291C383.438 213.165 380.903 210.631 377.776 210.631C374.649 210.631 372.114 213.165 372.114 216.291C372.114 219.416 374.649 221.95 377.776 221.95Z" fill="url(#paint9_radial_2569_1899)"/>
<path d="M366.652 165.764C369.779 165.764 372.314 163.23 372.314 160.105C372.314 156.979 369.779 154.445 366.652 154.445C363.525 154.445 360.99 156.979 360.99 160.105C360.99 163.23 363.525 165.764 366.652 165.764Z" fill="url(#paint10_radial_2569_1899)"/>
<path d="M418.07 168.894C421.197 168.894 423.732 166.36 423.732 163.235C423.732 160.109 421.197 157.575 418.07 157.575C414.943 157.575 412.408 160.109 412.408 163.235C412.408 166.36 414.943 168.894 418.07 168.894Z" fill="url(#paint11_radial_2569_1899)"/>
<path d="M401.139 249.4C391.555 223.574 381.37 205.86 360.999 170.418C315.365 91.0221 298.381 87.7375 290.391 88.0133C290.09 88.0258 289.801 88.0509 289.5 88.076C289.199 88.0509 288.91 88.0258 288.609 88.0133C280.619 87.7375 263.635 91.0096 218.001 170.418C197.63 205.86 187.445 223.574 177.861 249.4C164.904 284.315 153 316.384 155.283 358.471C156.512 381.012 159.661 439.158 205.457 477.571C218.942 488.879 248.683 509.013 288.936 507.96C289.124 507.96 289.312 507.948 289.5 507.935C289.688 507.935 289.876 507.948 290.064 507.96C330.317 509.013 360.058 488.879 373.543 477.571C419.339 439.158 422.488 381.012 423.717 358.471C426 316.397 414.096 284.328 401.139 249.4Z" fill="url(#paint12_radial_2569_1899)"/>
<path d="M269.071 268.649C267.948 273.872 280.351 285.487 293.715 282.523C303.709 280.301 311.633 270.507 309.711 265.849C306.342 257.687 270.793 260.65 269.071 268.649Z" fill="white"/>
<path d="M253.165 251.835C246.718 245.388 236.27 245.388 229.835 251.835C223.388 258.282 223.388 268.73 229.835 275.165C236.282 281.612 246.73 281.612 253.165 275.165C259.612 268.718 259.612 258.27 253.165 251.835ZM251.02 273.02C245.765 278.275 237.248 278.275 231.98 273.02L251.007 253.98C256.275 259.235 256.275 267.765 251.02 273.02Z" fill="white"/>
<path d="M349.165 251.835C342.718 245.388 332.27 245.388 325.835 251.835C319.388 258.282 319.388 268.73 325.835 275.165C332.282 281.612 342.73 281.612 349.165 275.165C355.612 268.718 355.612 258.27 349.165 251.835ZM347.02 273.02C341.765 278.275 333.248 278.275 327.98 273.02L347.007 253.98C352.275 259.235 352.275 267.765 347.02 273.02Z" fill="white"/>
<path d="M4.13384 513.079C56.5124 491.11 108.361 467.852 159.549 443.194C185.138 430.855 210.577 418.206 235.866 405.237C261.125 392.217 286.224 378.888 311.163 365.269C336.082 351.6 360.81 337.591 385.399 323.333C409.948 309.014 434.337 294.395 458.525 279.446C506.892 249.548 554.479 218.37 601.236 185.983C601.976 185.473 602.996 185.653 603.507 186.393C604.017 187.123 603.837 188.132 603.117 188.652C556.8 221.77 509.613 253.688 461.616 284.365C437.618 299.704 413.399 314.703 389.01 329.422C364.582 344.081 340.003 358.48 315.224 372.559C290.425 386.588 265.457 400.327 240.318 413.756C215.159 427.145 189.83 440.204 164.341 452.973C113.353 478.471 61.6643 502.599 9.40571 525.438C6.0045 526.918 2.0531 525.378 0.562572 521.978C-0.917954 518.578 0.622593 514.628 4.0238 513.139C4.04381 513.129 4.06381 513.119 4.08382 513.109L4.13384 513.079Z" fill="url(#paint13_radial_2569_1899)"/>
<path d="M600.796 194.882C607.536 194.882 613 189.42 613 182.683C613 175.946 607.536 170.484 600.796 170.484C594.056 170.484 588.592 175.946 588.592 182.683C588.592 189.42 594.056 194.882 600.796 194.882Z" fill="url(#paint14_radial_2569_1899)"/>
<path d="M581.059 236.459C587.799 236.459 593.263 230.997 593.263 224.26C593.263 217.523 587.799 212.061 581.059 212.061C574.319 212.061 568.854 217.523 568.854 224.26C568.854 230.997 574.319 236.459 581.059 236.459Z" fill="url(#paint15_radial_2569_1899)"/>
<path d="M519.326 238.669C526.067 238.669 531.531 233.207 531.531 226.47C531.531 219.732 526.067 214.271 519.326 214.271C512.586 214.271 507.122 219.732 507.122 226.47C507.122 233.207 512.586 238.669 519.326 238.669Z" fill="url(#paint16_radial_2569_1899)"/>
<path d="M468.74 276.206C475.48 276.206 480.944 270.744 480.944 264.007C480.944 257.27 475.48 251.808 468.74 251.808C461.999 251.808 456.535 257.27 456.535 264.007C456.535 270.744 461.999 276.206 468.74 276.206Z" fill="url(#paint17_radial_2569_1899)"/>
<path d="M438.407 327.372C445.148 327.372 450.612 321.911 450.612 315.173C450.612 308.436 445.148 302.974 438.407 302.974C431.667 302.974 426.203 308.436 426.203 315.173C426.203 321.911 431.667 327.372 438.407 327.372Z" fill="url(#paint18_radial_2569_1899)"/>
<path d="M366.672 336.562C373.412 336.562 378.876 331.1 378.876 324.363C378.876 317.625 373.412 312.163 366.672 312.163C359.932 312.163 354.468 317.625 354.468 324.363C354.468 331.1 359.932 336.562 366.672 336.562Z" fill="url(#paint19_radial_2569_1899)"/>
<path d="M403.716 299.834C407.6 299.834 410.749 296.687 410.749 292.805C410.749 288.923 407.6 285.776 403.716 285.776C399.832 285.776 396.684 288.923 396.684 292.805C396.684 296.687 399.832 299.834 403.716 299.834Z" fill="url(#paint20_radial_2569_1899)"/>
<path d="M428.105 268.347C431.989 268.347 435.137 265.199 435.137 261.317C435.137 257.435 431.989 254.288 428.105 254.288C424.221 254.288 421.072 257.435 421.072 261.317C421.072 265.199 424.221 268.347 428.105 268.347Z" fill="url(#paint21_radial_2569_1899)"/>
<path d="M482.734 307.644C486.618 307.644 489.766 304.497 489.766 300.614C489.766 296.732 486.618 293.585 482.734 293.585C478.85 293.585 475.701 296.732 475.701 300.614C475.701 304.497 478.85 307.644 482.734 307.644Z" fill="url(#paint22_radial_2569_1899)"/>
<path d="M489.737 236.889C493.621 236.889 496.769 233.742 496.769 229.859C496.769 225.977 493.621 222.83 489.737 222.83C485.853 222.83 482.704 225.977 482.704 229.859C482.704 233.742 485.853 236.889 489.737 236.889Z" fill="url(#paint23_radial_2569_1899)"/>
<path d="M549.707 259.097C553.591 259.097 556.74 255.95 556.74 252.068C556.74 248.186 553.591 245.038 549.707 245.038C545.823 245.038 542.675 248.186 542.675 252.068C542.675 255.95 545.823 259.097 549.707 259.097Z" fill="url(#paint24_radial_2569_1899)"/>
<defs>
<radialGradient id="paint0_radial_2569_1899" cx="0" cy="0" r="1" gradientUnits="userSpaceOnUse" gradientTransform="translate(252.663 298.451) rotate(-37.753) scale(198.456 264.207)">
<stop stop-color="#E1BD38"/>
<stop offset="0.4305" stop-color="#D1AE3F"/>
<stop offset="1" stop-color="#B5954C"/>
</radialGradient>
<radialGradient id="paint1_radial_2569_1899" cx="0" cy="0" r="1" gradientUnits="userSpaceOnUse" gradientTransform="translate(441.25 97.7821) rotate(-37.753) scale(9.83003 13.0868)">
<stop stop-color="#E1BD38"/>
<stop offset="0.4305" stop-color="#D1AE3F"/>
<stop offset="1" stop-color="#B5954C"/>
</radialGradient>
<radialGradient id="paint2_radial_2569_1899" cx="0" cy="0" r="1" gradientUnits="userSpaceOnUse" gradientTransform="translate(435.745 134.442) rotate(-37.7531) scale(9.83004 13.0868)">
<stop stop-color="#E1BD38"/>
<stop offset="0.4305" stop-color="#D1AE3F"/>
<stop offset="1" stop-color="#B5954C"/>
</radialGradient>
<radialGradient id="paint3_radial_2569_1899" cx="0" cy="0" r="1" gradientUnits="userSpaceOnUse" gradientTransform="translate(388.68 150.546) rotate(-37.753) scale(9.83002 13.0868)">
<stop stop-color="#E1BD38"/>
<stop offset="0.4305" stop-color="#D1AE3F"/>
<stop offset="1" stop-color="#B5954C"/>
</radialGradient>
<radialGradient id="paint4_radial_2569_1899" cx="0" cy="0" r="1" gradientUnits="userSpaceOnUse" gradientTransform="translate(358.448 191.285) rotate(-37.753) scale(9.83003 13.0868)">
<stop stop-color="#E1BD38"/>
<stop offset="0.4305" stop-color="#D1AE3F"/>
<stop offset="1" stop-color="#B5954C"/>
</radialGradient>
<radialGradient id="paint5_radial_2569_1899" cx="0" cy="0" r="1" gradientUnits="userSpaceOnUse" gradientTransform="translate(347.019 237.807) rotate(-37.7531) scale(9.83004 13.0868)">
<stop stop-color="#E1BD38"/>
<stop offset="0.4305" stop-color="#D1AE3F"/>
<stop offset="1" stop-color="#B5954C"/>
</radialGradient>
<radialGradient id="paint6_radial_2569_1899" cx="0" cy="0" r="1" gradientUnits="userSpaceOnUse" gradientTransform="translate(293.877 261.63) rotate(-37.7531) scale(9.83004 13.0868)">
<stop stop-color="#E1BD38"/>
<stop offset="0.4305" stop-color="#D1AE3F"/>
<stop offset="1" stop-color="#B5954C"/>
</radialGradient>
<radialGradient id="paint7_radial_2569_1899" cx="0" cy="0" r="1" gradientUnits="userSpaceOnUse" gradientTransform="translate(315.053 228.657) rotate(-37.7531) scale(5.65968 7.5348)">
<stop stop-color="#E1BD38"/>
<stop offset="0.4305" stop-color="#D1AE3F"/>
<stop offset="1" stop-color="#B5954C"/>
</radialGradient>
<radialGradient id="paint8_radial_2569_1899" cx="0" cy="0" r="1" gradientUnits="userSpaceOnUse" gradientTransform="translate(326.502 198.694) rotate(-37.753) scale(5.65969 7.5348)">
<stop stop-color="#E1BD38"/>
<stop offset="0.4305" stop-color="#D1AE3F"/>
<stop offset="1" stop-color="#B5954C"/>
</radialGradient>
<radialGradient id="paint9_radial_2569_1899" cx="0" cy="0" r="1" gradientUnits="userSpaceOnUse" gradientTransform="translate(377.79 216.24) rotate(-37.753) scale(5.65967 7.53477)">
<stop stop-color="#E1BD38"/>
<stop offset="0.4305" stop-color="#D1AE3F"/>
<stop offset="1" stop-color="#B5954C"/>
</radialGradient>
<radialGradient id="paint10_radial_2569_1899" cx="0" cy="0" r="1" gradientUnits="userSpaceOnUse" gradientTransform="translate(366.66 160.063) rotate(-37.7529) scale(5.65968 7.53478)">
<stop stop-color="#E1BD38"/>
<stop offset="0.4305" stop-color="#D1AE3F"/>
<stop offset="1" stop-color="#B5954C"/>
</radialGradient>
<radialGradient id="paint11_radial_2569_1899" cx="0" cy="0" r="1" gradientUnits="userSpaceOnUse" gradientTransform="translate(418.079 163.192) rotate(-37.7531) scale(5.65968 7.5348)">
<stop stop-color="#E1BD38"/>
<stop offset="0.4305" stop-color="#D1AE3F"/>
<stop offset="1" stop-color="#B5954C"/>
</radialGradient>
<radialGradient id="paint12_radial_2569_1899" cx="0" cy="0" r="1" gradientUnits="userSpaceOnUse" gradientTransform="translate(434.103 297.982) scale(178.512 237.541)">
<stop stop-color="#E18929"/>
<stop offset="0.4305" stop-color="#D17F31"/>
<stop offset="1" stop-color="#B56E40"/>
</radialGradient>
<radialGradient id="paint13_radial_2569_1899" cx="0" cy="0" r="1" gradientUnits="userSpaceOnUse" gradientTransform="translate(304.472 353.27) rotate(-20.908) scale(246.431 328.001)">
<stop stop-color="#E1BD38"/>
<stop offset="0.4305" stop-color="#D1AE3F"/>
<stop offset="1" stop-color="#B5954C"/>
</radialGradient>
<radialGradient id="paint14_radial_2569_1899" cx="0" cy="0" r="1" gradientUnits="userSpaceOnUse" gradientTransform="translate(600.802 182.673) rotate(-20.908) scale(12.2063 16.2467)">
<stop stop-color="#E1BD38"/>
<stop offset="0.4305" stop-color="#D1AE3F"/>
<stop offset="1" stop-color="#B5954C"/>
</radialGradient>
<radialGradient id="paint15_radial_2569_1899" cx="0" cy="0" r="1" gradientUnits="userSpaceOnUse" gradientTransform="translate(581.061 224.257) rotate(-20.908) scale(12.2063 16.2467)">
<stop stop-color="#E1BD38"/>
<stop offset="0.4305" stop-color="#D1AE3F"/>
<stop offset="1" stop-color="#B5954C"/>
</radialGradient>
<radialGradient id="paint16_radial_2569_1899" cx="0" cy="0" r="1" gradientUnits="userSpaceOnUse" gradientTransform="translate(519.335 226.462) rotate(-20.908) scale(12.2063 16.2467)">
<stop stop-color="#E1BD38"/>
<stop offset="0.4305" stop-color="#D1AE3F"/>
<stop offset="1" stop-color="#B5954C"/>
</radialGradient>
<radialGradient id="paint17_radial_2569_1899" cx="0" cy="0" r="1" gradientUnits="userSpaceOnUse" gradientTransform="translate(468.742 263.998) rotate(-20.908) scale(12.2063 16.2467)">
<stop stop-color="#E1BD38"/>
<stop offset="0.4305" stop-color="#D1AE3F"/>
<stop offset="1" stop-color="#B5954C"/>
</radialGradient>
<radialGradient id="paint18_radial_2569_1899" cx="0" cy="0" r="1" gradientUnits="userSpaceOnUse" gradientTransform="translate(438.409 315.17) rotate(-20.908) scale(12.2063 16.2467)">
<stop stop-color="#E1BD38"/>
<stop offset="0.4305" stop-color="#D1AE3F"/>
<stop offset="1" stop-color="#B5954C"/>
</radialGradient>
<radialGradient id="paint19_radial_2569_1899" cx="0" cy="0" r="1" gradientUnits="userSpaceOnUse" gradientTransform="translate(366.684 324.362) rotate(-20.908) scale(12.2063 16.2467)">
<stop stop-color="#E1BD38"/>
<stop offset="0.4305" stop-color="#D1AE3F"/>
<stop offset="1" stop-color="#B5954C"/>
</radialGradient>
<radialGradient id="paint20_radial_2569_1899" cx="0" cy="0" r="1" gradientUnits="userSpaceOnUse" gradientTransform="translate(403.72 292.797) rotate(-20.9079) scale(7.02788 9.35413)">
<stop stop-color="#E1BD38"/>
<stop offset="0.4305" stop-color="#D1AE3F"/>
<stop offset="1" stop-color="#B5954C"/>
</radialGradient>
<radialGradient id="paint21_radial_2569_1899" cx="0" cy="0" r="1" gradientUnits="userSpaceOnUse" gradientTransform="translate(428.114 261.311) rotate(-20.9081) scale(7.02789 9.3542)">
<stop stop-color="#E1BD38"/>
<stop offset="0.4305" stop-color="#D1AE3F"/>
<stop offset="1" stop-color="#B5954C"/>
</radialGradient>
<radialGradient id="paint22_radial_2569_1899" cx="0" cy="0" r="1" gradientUnits="userSpaceOnUse" gradientTransform="translate(482.74 300.61) rotate(-20.9081) scale(7.02789 9.3542)">
<stop stop-color="#E1BD38"/>
<stop offset="0.4305" stop-color="#D1AE3F"/>
<stop offset="1" stop-color="#B5954C"/>
</radialGradient>
<radialGradient id="paint23_radial_2569_1899" cx="0" cy="0" r="1" gradientUnits="userSpaceOnUse" gradientTransform="translate(489.742 229.85) rotate(-20.908) scale(7.02788 9.35417)">
<stop stop-color="#E1BD38"/>
<stop offset="0.4305" stop-color="#D1AE3F"/>
<stop offset="1" stop-color="#B5954C"/>
</radialGradient>
<radialGradient id="paint24_radial_2569_1899" cx="0" cy="0" r="1" gradientUnits="userSpaceOnUse" gradientTransform="translate(549.716 252.065) rotate(-20.908) scale(7.02788 9.35417)">
<stop stop-color="#E1BD38"/>
<stop offset="0.4305" stop-color="#D1AE3F"/>
<stop offset="1" stop-color="#B5954C"/>
</radialGradient>
</defs>
</svg>
