<svg width="262" height="159" viewBox="0 0 262 159" fill="none" xmlns="http://www.w3.org/2000/svg">
<path d="M143.981 67.2415C144.399 66.7224 144.822 66.2034 145.241 65.6796C145.364 65.5805 145.497 65.4955 145.611 65.387C149.534 61.5035 155.458 60.3663 160.57 62.4992C162.762 63.4146 164.597 64.7877 166.166 66.5478C167.383 67.9163 168.947 68.2654 170.697 67.8974C175.766 66.8357 180.192 68.0578 183.915 71.6205C188.209 75.7352 189.307 81.9403 186.801 87.3197C186.445 88.0888 185.907 88.7447 185.536 89.4997C185.313 89.7734 185.094 90.0471 184.871 90.3208C184.738 90.434 184.586 90.5284 184.471 90.6558C183.23 92.0431 181.69 93.0482 180.04 93.8457C176.726 95.4453 173.193 96.2522 169.508 96.3843C163.194 96.6108 157.451 94.8744 152.282 91.3259C148.441 88.6881 145.388 85.3095 143.277 81.157C141.147 76.9621 141.137 72.7294 143.277 68.5155C143.486 68.0861 143.743 67.6662 143.981 67.2415Z" fill="#FFE0C5"/>
<path d="M89.3247 47.1397C89.6385 46.5499 89.9523 45.96 90.2661 45.3702C90.3707 45.2522 90.4848 45.1437 90.5751 45.0116C93.6895 40.4627 99.2905 38.2402 104.716 39.3774C107.041 39.8634 109.104 40.8732 110.977 42.3077C112.432 43.4214 114.039 43.4733 115.685 42.789C120.463 40.7977 125.042 41.1705 129.373 43.9734C134.37 47.2105 136.634 53.0995 135.188 58.8516C134.984 59.6727 134.584 60.4182 134.356 61.2298C134.19 61.5413 134.028 61.848 133.862 62.1594C133.752 62.2963 133.619 62.419 133.534 62.5652C132.578 64.1602 131.256 65.4389 129.787 66.529C126.834 68.7185 123.52 70.1718 119.926 70.9929C113.768 72.3991 107.797 71.7668 102.048 69.247C97.7785 67.3783 94.1316 64.632 91.2693 60.9467C88.3785 57.2236 87.5702 53.0712 88.8682 48.5317C89.0013 48.0646 89.1725 47.6021 89.3247 47.1397Z" fill="#FFC8A0"/>
<path d="M220.088 47.5691C220.592 47.1256 221.092 46.682 221.596 46.2384C221.734 46.1629 221.881 46.1016 222.009 46.0119C226.531 42.8362 232.56 42.6947 237.243 45.6439C239.25 46.9085 240.828 48.5695 242.079 50.5655C243.049 52.1133 244.532 52.722 246.32 52.6465C251.498 52.4389 255.658 54.3783 258.725 58.5071C262.267 63.2731 262.305 69.5773 258.929 74.4659C258.449 75.1643 257.812 75.7258 257.313 76.4053C257.046 76.6365 256.785 76.8724 256.519 77.1036C256.367 77.1933 256.2 77.2594 256.067 77.3679C254.612 78.5334 252.924 79.2695 251.16 79.7792C247.623 80.8079 244.004 81.0155 240.348 80.5389C234.086 79.7178 228.713 77.0517 224.215 72.6964C220.873 69.4593 218.429 65.623 217.045 61.1779C215.648 56.6904 216.356 52.5144 219.171 48.7158C219.456 48.3241 219.779 47.9513 220.088 47.5691Z" fill="#FFB892"/>
<path d="M107.369 46.2055C106.328 46.3517 105.6 47.3049 105.747 48.3383C105.895 49.3717 106.855 50.0937 107.897 49.9474C108.938 49.8011 109.665 48.848 109.518 47.8146C109.371 46.7859 108.41 46.0639 107.369 46.2055ZM107.849 49.603C106.998 49.7209 106.218 49.1311 106.099 48.2911C105.98 47.4512 106.575 46.6726 107.421 46.5547L107.849 49.603Z" fill="#534741"/>
<path d="M118.394 44.6813C117.353 44.8276 116.625 45.7808 116.773 46.8142C116.92 47.8476 117.881 48.5695 118.922 48.4233C119.963 48.277 120.691 47.3238 120.543 46.2904C120.396 45.257 119.435 44.535 118.394 44.6813ZM118.87 48.0788C118.019 48.1968 117.239 47.6069 117.12 46.767C117.001 45.927 117.595 45.1485 118.442 45.0305L118.87 48.0788Z" fill="#534741"/>
<path d="M113.374 49.4755C112.275 49.6265 111.419 48.678 111.315 48.5553C111.139 48.3477 111.163 48.041 111.372 47.8617C111.581 47.6871 111.895 47.7107 112.071 47.9183C112.099 47.9513 112.755 48.7158 113.421 48.4515C113.844 48.2864 114.139 47.772 114.272 47.3426C114.353 47.0831 114.629 46.9368 114.89 47.0217C115.152 47.102 115.294 47.3804 115.214 47.6352C115.085 48.0363 114.695 49.0083 113.778 49.367C113.645 49.4189 113.507 49.4566 113.374 49.4755Z" fill="#534741"/>
<path d="M50.5174 15.831C51.1641 15.6516 51.8107 15.4723 52.4573 15.293C52.6142 15.2836 52.7759 15.293 52.9281 15.2694C58.3959 14.3917 63.8733 16.9021 66.7689 21.5972C68.0099 23.6074 68.6898 25.7875 68.9275 28.128C69.113 29.9447 70.178 31.1338 71.8089 31.851C76.5493 33.9273 79.4259 37.4852 80.3435 42.5342C81.4086 48.3619 78.6461 54.0385 73.4445 56.95C72.7028 57.3652 71.8802 57.5917 71.1337 57.9834C70.7914 58.0777 70.4538 58.1721 70.1115 58.2665C69.9355 58.2806 69.7549 58.2712 69.5884 58.309C67.7627 58.7195 65.9226 58.6393 64.1111 58.3278C60.4785 57.705 57.1359 56.3129 54.0692 54.2839C48.8105 50.8109 45.1732 46.0686 43.0669 40.1938C41.5026 35.8289 41.0081 31.3131 41.7403 26.7171C42.4773 22.0738 44.964 18.6386 49.1766 16.4585C49.614 16.2273 50.0705 16.0386 50.5174 15.831Z" fill="#FFE0C5"/>
<path d="M172.85 70.2096C173.863 70.2143 174.676 71.0354 174.671 72.0358C174.666 73.0409 173.839 73.8478 172.831 73.843C171.818 73.8383 171.005 73.0173 171.01 72.0169C171.015 71.0118 171.842 70.2049 172.85 70.2096ZM172.831 73.508C173.658 73.5127 174.329 72.8521 174.333 72.0358C174.338 71.2147 173.672 70.5494 172.85 70.5446L172.831 73.508Z" fill="#534741"/>
<path d="M162.139 70.1483C163.152 70.153 163.965 70.9741 163.96 71.9744C163.955 72.9795 163.128 73.7864 162.12 73.7817C161.107 73.777 160.294 72.9559 160.299 71.9555C160.304 70.9505 161.126 70.1388 162.139 70.1483ZM162.12 73.4467C162.947 73.4514 163.618 72.7908 163.622 71.9744C163.627 71.1581 162.961 70.488 162.139 70.4833L162.12 73.4467Z" fill="#534741"/>
<path d="M167.538 74.0837C168.608 74.0885 169.298 73.0739 169.383 72.9465C169.526 72.7295 169.459 72.4369 169.241 72.2953C169.017 72.1538 168.722 72.2198 168.584 72.4369C168.561 72.4699 168.033 73.2816 167.362 73.1164C166.939 73.0126 166.592 72.5596 166.407 72.1679C166.297 71.932 166.012 71.8282 165.774 71.9367C165.537 72.0453 165.432 72.3284 165.541 72.5643C165.713 72.9324 166.212 73.8101 167.134 74.0318C167.277 74.0696 167.41 74.0837 167.538 74.0837Z" fill="#534741"/>
<path d="M241.423 57.672C241.199 58.2193 242.34 59.7152 243.866 59.6538C245.008 59.6066 246.068 58.6959 245.949 58.1533C245.735 57.2048 241.765 56.8415 241.423 57.672Z" fill="#534741"/>
<path d="M239.986 55.4918C239.406 54.6708 238.265 54.4679 237.432 55.0435C236.605 55.6192 236.401 56.7517 236.981 57.5775C237.561 58.4033 238.702 58.6015 239.534 58.0258C240.366 57.4501 240.566 56.3129 239.986 55.4918ZM239.344 57.7474C238.669 58.2193 237.737 58.0541 237.261 57.384L239.71 55.6806C240.181 56.3554 240.019 57.2802 239.344 57.7474Z" fill="#534741"/>
<path d="M250.546 57.3416C249.966 56.5205 248.825 56.3176 247.993 56.8933C247.166 57.469 246.961 58.6015 247.541 59.4272C248.121 60.2483 249.262 60.4512 250.095 59.8755C250.927 59.2998 251.126 58.1626 250.546 57.3416ZM249.904 59.6018C249.229 60.0737 248.297 59.9085 247.822 59.2385L250.27 57.535C250.746 58.2051 250.58 59.13 249.904 59.6018Z" fill="#534741"/>
<path d="M206.411 145.25C206.421 145.269 206.435 145.283 206.444 145.302C207.305 146.651 208.865 147.401 210.462 147.227C220.048 146.165 227.355 141.923 228.934 136.176C230.907 128.998 223.328 121.755 217.77 116.437C205.222 104.437 198.128 106.863 180.46 95.4954C165.312 85.7465 168.036 83.0049 151.827 73.2843C141.952 67.3623 135.067 63.2334 124.659 60.9165C116.153 59.0243 112.349 59.9114 103.729 56.4337C97.2009 53.8007 97.082 52.3662 87.9198 48.0627C78.3962 43.5894 76.2375 44.0659 69.7236 40.6685C62.1066 36.6953 62.2112 34.1991 53.2724 27.9892C47.291 23.8273 44.5286 22.9119 35.3283 18.0422C29.2043 14.8004 20.5888 10.0014 10.3567 3.46128C9.41052 2.75347 7.56095 1.56907 4.94113 1.11136C3.09631 0.785764 1.53678 0.941482 0.509766 1.13023C2.08832 5.51393 4.06627 12.2476 4.67486 20.6327C5.18837 27.7014 4.47992 32.5239 4.29449 35.1428C3.25797 50.0068 14.2888 63.6864 21.2069 72.2698C28.8429 81.7403 105.36 176.648 162.207 155.989C184.525 147.878 201.794 122.689 215.878 129.286C216.253 129.461 222.135 132.283 221.84 135.326C221.507 138.766 213.453 140.743 207.971 141.715C206.335 142.008 205.517 143.858 206.411 145.25Z" fill="url(#paint0_linear_4373_2163)"/>
<path d="M63.593 28.2035C62.7704 27.5523 61.577 27.6844 60.9208 28.496C60.2647 29.3124 60.3978 30.4968 61.2156 31.1479C62.0382 31.7991 63.2316 31.667 63.8878 30.8554C64.5439 30.0438 64.4155 28.8546 63.593 28.2035ZM61.1919 28.7131C61.7291 28.0477 62.7039 27.9392 63.3743 28.4724C64.0447 29.0056 64.154 29.973 63.6168 30.6383L61.1919 28.7131Z" fill="#534741"/>
<path d="M72.2844 35.1023C71.4618 34.4511 70.2684 34.5832 69.6123 35.3948C68.9561 36.2112 69.0892 37.3956 69.907 38.0468C70.7296 38.6979 71.923 38.5658 72.5792 37.7542C73.2401 36.9426 73.1069 35.7535 72.2844 35.1023ZM69.8833 35.6166C70.4205 34.9513 71.3953 34.8427 72.0657 35.376C72.7361 35.9092 72.8454 36.8765 72.3082 37.5419L69.8833 35.6166Z" fill="#534741"/>
<path d="M65.2092 33.6064C65.5278 33.1817 66.5833 32.7146 66.8115 33.2667C66.9827 33.6913 66.6832 34.7106 66.3456 35.0598C65.7132 35.7251 64.6624 34.3378 65.2092 33.6064Z" fill="#534741"/>
<defs>
<linearGradient id="paint0_linear_4373_2163" x1="118.941" y1="60.6073" x2="84.1081" y2="129.784" gradientUnits="userSpaceOnUse">
<stop stop-color="#9BA8A5"/>
<stop offset="0.0619" stop-color="#A4B49D"/>
<stop offset="0.1703" stop-color="#AFC393"/>
<stop offset="0.2979" stop-color="#B5CC8E"/>
<stop offset="0.4898" stop-color="#B7CF8C"/>
<stop offset="0.5945" stop-color="#ACCA8B"/>
<stop offset="0.8406" stop-color="#96C08A"/>
<stop offset="1" stop-color="#8EBD8A"/>
</linearGradient>
</defs>
</svg>
