<svg width="550" height="336" viewBox="0 0 550 336" fill="none" xmlns="http://www.w3.org/2000/svg">
<path d="M37.9316 98.0513C38.3456 96.7012 38.7597 95.3512 39.1737 94.0012C39.335 93.7126 39.5353 93.4371 39.6659 93.1408C44.3064 82.4554 55.0022 75.6282 66.6655 75.871C71.6604 75.9728 76.3216 77.2622 80.7671 79.5181C84.2188 81.2675 87.5492 80.7417 90.6799 78.6744C99.7648 72.6556 109.378 71.6314 119.427 75.7812C131.033 80.5604 138.025 91.9441 137.316 104.484C137.214 106.272 136.685 107.988 136.536 109.757C136.316 110.471 136.101 111.177 135.881 111.891C135.707 112.219 135.485 112.528 135.363 112.866C134.023 116.568 131.792 119.734 129.18 122.586C123.945 128.305 117.668 132.632 110.567 135.741C98.402 141.08 85.8126 142.097 72.9406 139.107C63.3777 136.885 54.7597 132.596 47.391 126.043C39.9435 119.427 36.6372 111.095 37.5294 101.143C37.6133 100.104 37.7947 99.0801 37.9316 98.0513Z" fill="#FFE0C5"/>
<path d="M74.847 89.0501C72.7516 89.7618 71.6327 92.026 72.336 94.116C73.0477 96.2114 75.3119 97.3303 77.4019 96.627C79.4973 95.9154 80.6162 93.6512 79.9129 91.5611C79.2097 89.4711 76.9425 88.3384 74.847 89.0501ZM73.0309 93.8844C72.4537 92.1721 73.3664 90.3222 75.0786 89.745C76.7909 89.1678 78.6409 90.0805 79.2181 91.7927L73.0309 93.8844Z" fill="#534741"/>
<path d="M97.0199 81.5511C94.9245 82.2627 93.8056 84.5269 94.5089 86.617C95.2205 88.7124 97.4847 89.8313 99.5748 89.128C101.67 88.4163 102.789 86.1521 102.086 84.0621C101.388 81.9637 99.1153 80.8394 97.0199 81.5511ZM95.2121 86.3908C94.6349 84.6785 95.5477 82.8285 97.2599 82.2513C98.9722 81.6741 100.822 82.5868 101.399 84.2991L95.2121 86.3908Z" fill="#534741"/>
<path d="M86.3213 92.3675C85.9252 91.3178 86.2898 88.9145 87.5339 89.1419C88.4858 89.3245 89.9643 91.0206 90.2041 92.0177C90.6733 93.8983 87.0055 94.1722 86.3213 92.3675Z" fill="#534741"/>
<path d="M117.766 173.041C117.811 171.628 117.856 170.215 117.901 168.803C117.989 168.481 118.104 168.169 118.152 167.834C119.811 156.298 128.333 146.9 139.644 144.062C144.49 142.843 149.329 142.863 154.203 143.867C157.988 144.646 161.074 143.263 163.548 140.443C170.729 132.243 179.73 128.73 190.523 130.073C202.976 131.629 212.727 140.758 215.341 153.046C215.717 154.799 215.655 156.587 215.978 158.343C215.953 159.09 215.933 159.823 215.907 160.57C215.828 160.931 215.69 161.288 215.664 161.645C215.34 165.564 214.03 169.219 212.266 172.65C208.72 179.543 203.807 185.368 197.775 190.247C187.444 198.604 175.568 202.908 162.361 203.411C152.554 203.79 143.109 201.923 134.274 197.544C125.349 193.119 119.962 185.956 118.197 176.113C118.015 175.101 117.908 174.062 117.766 173.041Z" fill="#FFC8A0"/>
<path d="M151.005 154.619C149.172 155.858 148.683 158.344 149.922 160.177C151.161 162.009 153.648 162.498 155.48 161.259C157.312 160.02 157.801 157.534 156.562 155.701C155.328 153.878 152.841 153.389 151.005 154.619ZM155.07 160.647C153.571 161.656 151.549 161.252 150.543 159.762C149.538 158.272 149.938 156.241 151.428 155.236L155.07 160.647Z" fill="#534741"/>
<path d="M170.429 141.547C168.596 142.786 168.107 145.272 169.346 147.104C170.585 148.937 173.071 149.426 174.904 148.187C176.736 146.948 177.225 144.462 175.986 142.629C174.747 140.797 172.261 140.308 170.429 141.547ZM174.485 147.579C172.986 148.589 170.964 148.185 169.958 146.694C168.953 145.204 169.353 143.173 170.843 142.168L174.485 147.579Z" fill="#534741"/>
<path d="M165.395 155.309C163.459 156.609 160.96 155.592 160.648 155.455C160.123 155.222 159.883 154.616 160.111 154.081C160.345 153.556 160.96 153.311 161.485 153.544C161.57 153.581 163.521 154.432 164.533 153.315C165.179 152.61 165.259 151.358 165.111 150.418C165.023 149.849 165.408 149.316 165.981 149.236C166.55 149.148 167.079 149.547 167.163 150.107C167.293 150.989 167.459 153.2 166.058 154.729C165.855 154.951 165.629 155.15 165.395 155.309Z" fill="#534741"/>
<path d="M187.154 229.668C187.062 228.262 186.978 226.85 186.88 225.437C186.931 225.106 187.016 224.785 187.038 224.453C187.585 212.813 195.165 202.634 206.153 198.727C210.866 197.053 215.679 196.6 220.63 197.131C224.476 197.548 227.405 195.877 229.598 192.821C235.956 183.973 244.579 179.611 255.452 179.911C268 180.266 278.57 188.423 282.361 200.396C282.906 202.105 283.008 203.894 283.51 205.602C283.554 206.347 283.605 207.085 283.649 207.831C283.604 208.197 283.502 208.56 283.507 208.921C283.56 212.852 282.603 216.61 281.179 220.197C278.315 227.399 273.979 233.67 268.443 239.101C258.956 248.407 247.552 253.831 234.454 255.602C224.717 256.919 215.149 255.957 205.938 252.45C196.636 248.902 190.575 242.29 187.88 232.66C187.592 231.691 187.391 230.67 187.154 229.668Z" fill="#FFE0C5"/>
<path d="M236.247 193.387C237.828 191.958 240.264 192.091 241.685 193.664C243.114 195.244 242.981 197.68 241.408 199.102C239.828 200.53 237.392 200.397 235.97 198.824C234.542 197.244 234.675 194.808 236.247 193.387ZM240.929 198.577C242.222 197.412 242.319 195.427 241.161 194.142C239.995 192.85 238.011 192.752 236.726 193.911L240.929 198.577Z" fill="#534741"/>
<path d="M219.516 208.477C221.096 207.048 223.532 207.181 224.954 208.754C226.382 210.334 226.249 212.77 224.677 214.192C223.096 215.62 220.661 215.487 219.239 213.915C217.811 212.334 217.929 209.898 219.516 208.477ZM224.198 213.667C225.49 212.502 225.588 210.517 224.429 209.233C223.271 207.948 221.279 207.843 219.995 209.001L224.198 213.667Z" fill="#534741"/>
<path d="M233.53 206.981C235.199 205.471 234.82 202.906 234.771 202.585C234.683 202.043 234.162 201.679 233.62 201.768C233.07 201.863 232.707 202.384 232.802 202.92C232.813 203.005 233.152 205.024 231.875 205.716C231.069 206.153 229.883 205.936 229.035 205.586C228.528 205.371 227.937 205.613 227.722 206.12C227.508 206.627 227.75 207.219 228.257 207.433C229.048 207.766 231.078 208.433 232.828 207.472C233.103 207.329 233.33 207.163 233.53 206.981Z" fill="#534741"/>
<path d="M268.388 279.24C267.992 277.88 267.591 276.529 267.195 275.169C267.174 274.838 267.19 274.502 267.133 274.177C265.119 262.702 270.272 251.113 280.135 244.883C284.363 242.216 288.965 240.721 293.913 240.153C297.751 239.712 300.252 237.444 301.716 233.977C305.977 223.946 313.435 217.795 324.103 215.709C336.419 213.296 348.529 218.939 354.856 229.789C355.762 231.335 356.264 233.055 357.116 234.62C357.32 235.336 357.536 236.047 357.74 236.763C357.774 237.133 357.751 237.509 357.839 237.861C358.763 241.683 358.654 245.56 358.043 249.375C356.831 257.032 353.973 264.099 349.77 270.618C342.563 281.777 332.622 289.574 320.232 294.176C311.024 297.595 301.477 298.763 291.717 297.363C281.864 295.952 274.502 290.819 269.758 282.025C269.265 281.127 268.842 280.175 268.388 279.24Z" fill="#FFB892"/>
<path d="M306.936 247.843C307.783 248.764 311.675 247.951 312.931 244.994C313.867 242.782 313.077 239.941 311.93 239.675C309.921 239.222 305.653 246.44 306.936 247.843Z" fill="#534741"/>
<path d="M301.467 248.597C299.373 248.955 297.957 250.94 298.311 253.044C298.669 255.139 300.655 256.554 302.759 256.2C304.862 255.846 306.269 253.857 305.915 251.753C305.56 249.649 303.562 248.239 301.467 248.597ZM305.21 251.862C305.506 253.573 304.352 255.195 302.64 255.492L301.581 249.292C303.297 249.009 304.923 250.155 305.21 251.862Z" fill="#534741"/>
<path d="M314.512 230.199C312.417 230.557 311.002 232.543 311.356 234.646C311.714 236.741 313.7 238.156 315.803 237.802C317.898 237.444 319.313 235.459 318.959 233.355C318.605 231.251 316.607 229.841 314.512 230.199ZM318.264 233.468C318.56 235.18 317.406 236.801 315.694 237.098L314.635 230.899C316.346 230.602 317.968 231.757 318.264 233.468Z" fill="#534741"/>
<path d="M433.331 306.696C433.351 306.736 433.381 306.766 433.401 306.806C435.211 309.666 438.491 311.256 441.851 310.886C462.011 308.636 477.381 299.646 480.701 287.466C484.851 272.256 468.911 256.906 457.221 245.636C430.831 220.206 415.911 225.346 378.751 201.256C346.891 180.596 352.621 174.786 318.531 154.186C297.761 141.636 283.281 132.886 261.391 127.976C243.501 123.966 235.501 125.846 217.371 118.476C203.641 112.896 203.391 109.856 184.121 100.736C164.091 91.2559 159.551 92.2659 145.851 85.0659C129.831 76.6459 130.051 71.3559 111.251 58.1959C98.6712 49.3759 92.8613 47.4359 73.5113 37.1159C60.6313 30.2459 42.5112 20.0759 20.9912 6.21594C19.0012 4.71594 15.1112 2.20594 9.60125 1.23594C5.72125 0.545938 2.44125 0.875938 0.28125 1.27594C3.60125 10.5659 7.76125 24.8359 9.04125 42.6059C10.1213 57.5859 8.63125 67.8059 8.24125 73.3559C6.06125 104.856 29.2612 133.846 43.8112 152.036C59.8712 172.106 220.801 373.236 340.361 329.456C387.301 312.266 423.621 258.886 453.241 272.866C454.031 273.236 466.401 279.216 465.781 285.666C465.081 292.956 448.141 297.146 436.611 299.206C433.171 299.826 431.451 303.746 433.331 306.696Z" fill="url(#paint0_linear_2569_1911)"/>
<defs>
<linearGradient id="paint0_linear_2569_1911" x1="249.365" y1="127.321" x2="175.213" y2="273.469" gradientUnits="userSpaceOnUse">
<stop stop-color="#9BA8A5"/>
<stop offset="0.0619" stop-color="#A4B49D"/>
<stop offset="0.1703" stop-color="#AFC393"/>
<stop offset="0.2979" stop-color="#B5CC8E"/>
<stop offset="0.4898" stop-color="#B7CF8C"/>
<stop offset="0.5945" stop-color="#ACCA8B"/>
<stop offset="0.8406" stop-color="#96C08A"/>
<stop offset="1" stop-color="#8EBD8A"/>
</linearGradient>
</defs>
</svg>
