<svg width="251" height="183" viewBox="0 0 251 183" fill="none" xmlns="http://www.w3.org/2000/svg">
<path d="M94.6697 102.424C95.162 101.533 95.6544 100.642 96.1467 99.7504C96.3077 99.5702 96.4876 99.409 96.6249 99.2147C101.477 92.3591 110.027 89.1304 118.208 91.0316C121.716 91.847 124.807 93.4448 127.605 95.6968C129.773 97.4415 132.202 97.5695 134.716 96.5691C142.007 93.6676 148.933 94.374 155.409 98.788C162.879 103.885 166.127 112.954 163.765 121.697C163.429 122.944 162.799 124.072 162.434 125.305C162.174 125.774 161.914 126.243 161.658 126.713C161.488 126.917 161.284 127.102 161.147 127.324C159.655 129.738 157.615 131.644 155.352 133.27C150.817 136.527 145.751 138.651 140.283 139.793C130.919 141.756 121.896 140.609 113.265 136.588C106.851 133.602 101.416 129.297 97.193 123.579C92.9275 117.804 91.8292 111.432 93.9311 104.539C94.1489 103.828 94.4235 103.131 94.6697 102.424Z" fill="#A5E072"/>
<path d="M33.8886 45.6691C34.6461 44.9864 35.4035 44.3084 36.1563 43.6257C36.3646 43.5071 36.5871 43.4123 36.7812 43.2748C43.6031 38.382 52.7353 38.1213 59.846 42.5921C62.8948 44.5075 65.2998 47.0345 67.2076 50.0735C68.6894 52.4346 70.9429 53.3496 73.6461 53.2263C81.4858 52.866 87.8012 55.8007 92.4785 62.0874C97.8755 69.3459 97.9891 78.9798 92.9094 86.4754C92.185 87.5469 91.224 88.405 90.476 89.4528C90.0783 89.8131 89.6807 90.1687 89.283 90.529C89.0557 90.6618 88.8048 90.7708 88.6013 90.9367C86.4046 92.7289 83.8529 93.8667 81.1876 94.6585C75.838 96.2562 70.3606 96.607 64.8169 95.9006C55.3249 94.6917 47.1679 90.6618 40.3223 84.0385C35.2331 79.122 31.5026 73.2715 29.3722 66.4871C27.2229 59.6362 28.2597 53.25 32.492 47.4233C32.937 46.8259 33.4247 46.257 33.8886 45.6691Z" fill="#96C835"/>
<path d="M189.24 78.3919C190.092 77.8325 190.939 77.273 191.792 76.7136C192.014 76.6282 192.251 76.5666 192.464 76.4623C199.944 72.6552 209.014 73.7788 215.368 79.2737C218.095 81.63 220.088 84.4889 221.517 87.7839C222.625 90.3394 224.718 91.5863 227.407 91.8707C235.209 92.7004 241.013 96.5549 244.691 103.477C248.933 111.466 247.593 121.009 241.443 127.647C240.568 128.595 239.488 129.301 238.589 130.221C238.139 130.515 237.694 130.809 237.244 131.103C236.998 131.203 236.733 131.269 236.506 131.402C234.063 132.843 231.374 133.578 228.614 133.962C223.084 134.73 217.616 134.251 212.243 132.715C203.045 130.088 195.588 124.869 189.817 117.288C185.528 111.655 182.721 105.312 181.637 98.2854C180.543 91.188 182.532 85.0341 187.592 79.9138C188.123 79.3923 188.691 78.9039 189.24 78.3919Z" fill="#6FB829"/>
<path d="M60.0304 53.7811C58.4729 53.4445 56.939 54.4306 56.6029 55.9904C56.2668 57.5502 57.2515 59.0863 58.809 59.423C60.3665 59.7596 61.9004 58.7734 62.2365 57.2136C62.5727 55.6538 61.5832 54.1177 60.0304 53.7811ZM58.9179 58.9014C57.6491 58.6265 56.8443 57.3701 57.1189 56.0995C57.3935 54.8289 58.648 54.0229 59.9168 54.2979L58.9179 58.9014Z" fill="#1D6D00"/>
<path d="M76.505 57.3606C74.9475 57.0239 73.4136 58.0101 73.0775 59.5699C72.7414 61.1297 73.7261 62.6658 75.2836 63.0024C76.8412 63.339 78.375 62.3529 78.7111 60.7931C79.0473 59.238 78.0626 57.6972 76.505 57.3606ZM75.3972 62.4809C74.1285 62.2059 73.3237 60.9495 73.5983 59.6789C73.8728 58.4083 75.1274 57.6024 76.3961 57.8773L75.3972 62.4809Z" fill="#1D6D00"/>
<path d="M66.8472 61.6085C65.2045 61.2529 64.4896 59.4418 64.4091 59.2095C64.2671 58.8208 64.4659 58.3893 64.8542 58.2471C65.2424 58.1049 65.6732 58.304 65.8152 58.6928C65.8389 58.7544 66.3691 60.1957 67.4532 60.1672C68.1397 60.153 68.8308 59.5651 69.2474 59.0246C69.4984 58.6975 69.967 58.6311 70.2984 58.8871C70.6251 59.1384 70.6866 59.6125 70.4357 59.9397C70.0428 60.4469 68.9729 61.637 67.4863 61.6701C67.2591 61.6749 67.0461 61.6512 66.8472 61.6085Z" fill="#1D6D00"/>
<path d="M138.533 99.4945C140.043 99.2432 141.473 100.267 141.723 101.78C141.974 103.292 140.952 104.724 139.442 104.975C137.931 105.226 136.502 104.202 136.251 102.69C136 101.173 137.022 99.741 138.533 99.4945ZM139.356 104.468C140.587 104.264 141.425 103.098 141.222 101.86C141.018 100.628 139.853 99.7884 138.618 99.9923L139.356 104.468Z" fill="#1D6D00"/>
<path d="M122.521 102.145C124.031 101.893 125.461 102.917 125.712 104.43C125.963 105.942 124.94 107.374 123.43 107.625C121.92 107.877 120.49 106.852 120.239 105.34C119.988 103.828 121.011 102.396 122.521 102.145ZM123.345 107.123C124.576 106.919 125.413 105.753 125.21 104.515C125.006 103.282 123.842 102.443 122.606 102.647L123.345 107.123Z" fill="#1D6D00"/>
<path d="M131.607 106.691C133.203 106.426 133.974 104.719 134.064 104.506C134.221 104.141 134.05 103.714 133.681 103.558C133.312 103.401 132.89 103.572 132.734 103.942C132.71 103.998 132.128 105.359 131.087 105.279C130.428 105.231 129.789 104.634 129.415 104.093C129.188 103.766 128.743 103.681 128.412 103.908C128.085 104.136 128.005 104.586 128.227 104.913C128.577 105.421 129.553 106.616 130.982 106.72C131.205 106.734 131.413 106.725 131.607 106.691Z" fill="#1D6D00"/>
<path d="M218.961 98.3897C218.502 99.1625 219.879 101.68 222.18 101.922C223.903 102.102 225.693 100.959 225.631 100.115C225.523 98.6315 219.662 97.2044 218.961 98.3897Z" fill="#1D6D00"/>
<path d="M217.294 94.7722C216.607 93.3973 214.941 92.8426 213.568 93.5301C212.195 94.2175 211.641 95.8864 212.328 97.2613C213.014 98.6362 214.681 99.1909 216.054 98.5035C217.426 97.8113 217.98 96.1424 217.294 94.7722ZM215.826 98.0436C214.709 98.603 213.346 98.1526 212.787 97.029L216.835 94.9998C217.398 96.1187 216.944 97.4841 215.826 98.0436Z" fill="#1D6D00"/>
<path d="M232.71 99.9021C232.023 98.5272 230.357 97.9725 228.984 98.66C227.611 99.3474 227.057 101.016 227.744 102.391C228.43 103.766 230.097 104.321 231.47 103.633C232.838 102.946 233.396 101.277 232.71 99.9021ZM231.238 103.178C230.12 103.738 228.757 103.287 228.198 102.164L232.246 100.134C232.809 101.253 232.36 102.614 231.238 103.178Z" fill="#1D6D00"/>
<path d="M250.405 168.202C250.282 166.846 249.099 165.841 247.745 165.94C241.425 166.4 234.47 166.561 226.986 166.22C211.822 165.528 198.704 162.958 188.166 160.057C182.153 159.018 173.584 156.771 164.495 151.523C154.704 145.871 147.854 138.784 143.257 132.762C139.11 127.324 133.637 123.039 127.398 120.256C123.17 118.369 118.554 115.898 113.834 112.646C106.975 107.924 101.601 102.737 97.4638 97.9156C91.4845 90.9463 83.9193 85.5225 75.4783 81.9287C72.9172 80.8383 70.2187 79.5535 67.4397 78.0411C48.6735 67.8193 38.4856 53.4966 26.726 37.742C20.4438 29.3219 12.5519 17.346 5.38913 1.79529C4.8163 0.553133 3.49073 -0.162768 2.13676 0.0316157H2.11309L2.08942 0.0363568C0.882213 0.211776 0.134216 1.43971 0.527151 2.59179C1.52606 5.52177 2.62912 8.5276 3.85526 11.5903C7.51003 20.7264 11.6288 28.881 15.8327 36.0684C17.679 39.2212 17.6979 43.1516 15.8137 46.2807C7.5337 60.044 8.33851 77.2541 17.7358 88.9408C26.12 99.3711 40.2893 104.093 54.1888 101.268C53.9237 103.264 51.6135 123.257 66.9711 137.774C83.7773 153.661 105.957 148.071 107.211 147.73C107.798 150.044 113.688 171.663 134.67 179.969C150.183 186.109 168.306 182.738 181.76 171.511C185.453 168.429 190.338 167.178 195.021 168.287C204.674 170.572 216.253 172.331 229.353 172.388C236.061 172.417 242.286 171.995 247.948 171.317C249.459 171.137 250.548 169.776 250.41 168.259L250.405 168.202Z" fill="url(#paint0_linear_4373_2111)"/>
<defs>
<linearGradient id="paint0_linear_4373_2111" x1="126.348" y1="84.064" x2="84.2796" y2="143.425" gradientUnits="userSpaceOnUse">
<stop stop-color="#7BBA90"/>
<stop offset="0.2358" stop-color="#7BBA8E"/>
<stop offset="0.3225" stop-color="#7BBA87"/>
<stop offset="0.3846" stop-color="#7BBA7B"/>
<stop offset="0.435" stop-color="#7BBA6A"/>
<stop offset="0.4777" stop-color="#7BBA55"/>
<stop offset="0.5154" stop-color="#7BBA3A"/>
<stop offset="0.5178" stop-color="#7BBA38"/>
<stop offset="0.8598" stop-color="#70A82E"/>
<stop offset="1" stop-color="#6A9F29"/>
</linearGradient>
</defs>
</svg>
