<svg width="529" height="386" viewBox="0 0 529 386" fill="none" xmlns="http://www.w3.org/2000/svg">
<path d="M273.712 249.543C275.512 248.363 277.302 247.183 279.102 246.003C279.572 245.823 280.072 245.693 280.522 245.473C296.322 237.443 315.482 239.813 328.902 251.403C334.662 256.373 338.872 262.403 341.892 269.353C344.232 274.743 348.652 277.373 354.332 277.973C370.812 279.723 383.072 287.853 390.842 302.453C399.802 319.303 396.972 339.433 383.982 353.433C382.132 355.433 379.852 356.923 377.952 358.863C377.002 359.483 376.062 360.103 375.112 360.723C374.592 360.933 374.032 361.073 373.552 361.353C368.392 364.393 362.712 365.943 356.882 366.753C345.202 368.373 333.652 367.363 322.302 364.123C302.872 358.583 287.122 347.573 274.932 331.583C265.872 319.703 259.942 306.323 257.652 291.503C255.342 276.533 259.542 263.553 270.232 252.753C271.352 251.653 272.552 250.623 273.712 249.543Z" fill="#6FB829"/>
<path d="M153.14 177.274C154.827 175.942 156.513 174.611 158.199 173.279C158.659 173.06 159.141 172.894 159.567 172.628C174.612 163.258 193.901 163.963 208.285 174.344C214.453 178.796 219.171 184.43 222.784 191.096C225.585 196.261 230.211 198.494 235.924 198.602C252.492 198.915 265.407 205.947 274.422 219.824C284.816 235.841 283.743 256.135 272.009 271.21C270.337 273.361 268.19 275.041 266.475 277.141C265.584 277.841 264.694 278.541 263.813 279.245C263.315 279.503 262.768 279.696 262.319 280.017C257.445 283.493 251.916 285.533 246.181 286.847C234.689 289.477 223.089 289.47 211.506 287.225C191.664 283.393 175.024 273.789 161.492 258.918C151.434 247.867 144.359 235.054 140.798 220.483C137.2 205.766 140.259 192.474 149.977 180.783C150.981 179.578 152.085 178.446 153.14 177.274Z" fill="#A5E072"/>
<path d="M43.8733 85.948C45.4733 84.508 47.0733 83.078 48.6633 81.638C49.1033 81.388 49.5733 81.188 49.9833 80.898C64.3933 70.578 83.6833 70.028 98.7033 79.458C105.143 83.498 110.223 88.828 114.253 95.238C117.383 100.218 122.143 102.148 127.853 101.888C144.413 101.128 157.753 107.318 167.633 120.578C179.033 135.888 179.273 156.208 168.543 172.018C167.013 174.278 164.983 176.088 163.403 178.298C162.563 179.058 161.723 179.808 160.883 180.568C160.403 180.848 159.873 181.078 159.443 181.428C154.803 185.208 149.413 187.608 143.783 189.278C132.483 192.648 120.913 193.388 109.203 191.898C89.1533 189.348 71.9233 180.848 57.4633 166.878C46.7133 156.508 38.8333 144.168 34.3333 129.858C29.7933 115.408 31.9833 101.938 40.9233 89.648C41.8633 88.388 42.8933 87.188 43.8733 85.948Z" fill="#96C835"/>
<path d="M99.0938 103.058C95.8038 102.348 92.5638 104.428 91.8538 107.718C91.1438 111.008 93.2238 114.248 96.5138 114.958C99.8038 115.668 103.044 113.588 103.754 110.298C104.464 107.008 102.374 103.768 99.0938 103.058ZM96.7438 113.858C94.0638 113.278 92.3638 110.628 92.9438 107.948C93.5238 105.268 96.1738 103.568 98.8538 104.148L96.7438 113.858Z" fill="#1D6D00"/>
<path d="M133.893 110.608C130.603 109.898 127.363 111.978 126.653 115.268C125.943 118.558 128.023 121.798 131.313 122.508C134.603 123.218 137.843 121.138 138.553 117.848C139.263 114.568 137.183 111.318 133.893 110.608ZM131.553 121.408C128.873 120.828 127.173 118.178 127.753 115.498C128.333 112.818 130.983 111.118 133.663 111.698L131.553 121.408Z" fill="#1D6D00"/>
<path d="M113.493 119.568C110.023 118.818 108.513 114.998 108.343 114.508C108.043 113.688 108.463 112.778 109.283 112.478C110.103 112.178 111.013 112.598 111.313 113.418C111.363 113.548 112.483 116.588 114.773 116.528C116.223 116.498 117.683 115.258 118.563 114.118C119.093 113.428 120.083 113.288 120.783 113.828C121.473 114.358 121.603 115.358 121.073 116.048C120.243 117.118 117.983 119.628 114.843 119.698C114.363 119.708 113.913 119.658 113.493 119.568Z" fill="#1D6D00"/>
<path d="M240.97 207.409C244.117 208.154 246.066 211.314 245.321 214.461C244.576 217.608 241.416 219.557 238.27 218.812C235.123 218.067 233.173 214.907 233.918 211.761C234.667 208.605 237.827 206.655 240.97 207.409ZM238.517 217.756C241.081 218.365 243.665 216.781 244.278 214.208C244.887 211.644 243.303 209.06 240.73 208.447L238.517 217.756Z" fill="#1D6D00"/>
<path d="M207.621 199.484C210.767 200.229 212.717 203.389 211.972 206.535C211.227 209.682 208.067 211.632 204.92 210.887C201.773 210.141 199.824 206.982 200.569 203.835C201.314 200.688 204.474 198.739 207.621 199.484ZM205.164 209.839C207.728 210.448 210.312 208.865 210.925 206.291C211.534 203.727 209.95 201.144 207.377 200.531L205.164 209.839Z" fill="#1D6D00"/>
<path d="M221.608 215.75C224.932 216.537 227.828 213.847 228.177 213.506C228.779 212.923 228.795 211.954 228.203 211.348C227.612 210.742 226.652 210.73 226.046 211.322C225.953 211.413 223.709 213.584 221.746 212.576C220.503 211.946 219.745 210.262 219.458 208.905C219.282 208.084 218.485 207.554 217.653 207.726C216.831 207.902 216.307 208.712 216.474 209.53C216.742 210.803 217.667 213.924 220.367 215.295C220.789 215.504 221.203 215.656 221.608 215.75Z" fill="#1D6D00"/>
<path d="M336.492 291.723C335.522 293.353 338.432 298.663 343.292 299.173C346.932 299.553 350.712 297.143 350.582 295.363C350.352 292.233 337.972 289.223 336.492 291.723Z" fill="#1D6D00"/>
<path d="M332.972 284.094C331.522 281.194 328.002 280.024 325.102 281.474C322.202 282.924 321.032 286.444 322.482 289.344C323.932 292.244 327.452 293.414 330.352 291.964C333.252 290.504 334.422 286.984 332.972 284.094ZM329.872 290.994C327.512 292.174 324.632 291.224 323.452 288.854L332.002 284.574C333.192 286.934 332.232 289.814 329.872 290.994Z" fill="#1D6D00"/>
<path d="M365.532 294.913C364.082 292.013 360.562 290.843 357.662 292.293C354.762 293.743 353.592 297.263 355.042 300.163C356.492 303.063 360.012 304.233 362.912 302.783C365.802 301.333 366.982 297.813 365.532 294.913ZM362.422 301.823C360.062 303.003 357.182 302.053 356.002 299.683L364.552 295.403C365.742 297.763 364.792 300.633 362.422 301.823Z" fill="#1D6D00"/>
<path d="M528.042 354.777C527.782 351.917 525.282 349.797 522.422 350.007C509.072 350.977 494.382 351.317 478.572 350.597C446.542 349.137 418.832 343.717 396.572 337.597C383.872 335.407 365.772 330.667 346.572 319.597C325.892 307.677 311.422 292.727 301.712 280.027C292.952 268.557 281.392 259.517 268.212 253.647C259.282 249.667 249.532 244.457 239.562 237.597C225.072 227.637 213.722 216.697 204.982 206.527C192.352 191.827 176.372 180.387 158.542 172.807C153.132 170.507 147.432 167.797 141.562 164.607C101.922 143.047 80.4024 112.837 55.5624 79.6067C42.2924 61.8467 25.6224 36.5867 10.4924 3.78668C9.28237 1.16668 6.48237 -0.343315 3.62237 0.0666849H3.57237L3.52237 0.0766849C0.972375 0.446685 -0.607625 3.03668 0.222375 5.46668C2.33237 11.6467 4.66237 17.9867 7.25237 24.4467C14.9724 43.7167 23.6724 60.9167 32.5524 76.0767C36.4524 82.7267 36.4924 91.0167 32.5124 97.6167C15.0224 126.647 16.7224 162.947 36.5724 187.597C54.2824 209.597 84.2124 219.557 113.572 213.597C113.012 217.807 108.132 259.977 140.572 290.597C176.072 324.107 222.922 312.317 225.572 311.597C226.812 316.477 239.252 362.077 283.572 379.597C316.342 392.547 354.622 385.437 383.042 361.757C390.842 355.257 401.162 352.617 411.052 354.957C431.442 359.777 455.902 363.487 483.572 363.607C497.742 363.667 510.892 362.777 522.852 361.347C526.042 360.967 528.342 358.097 528.052 354.897L528.042 354.777Z" fill="url(#paint0_linear_2045_634)"/>
<defs>
<linearGradient id="paint0_linear_2045_634" x1="265.994" y1="177.31" x2="177.306" y2="302.638" gradientUnits="userSpaceOnUse">
<stop stop-color="#7BBA90"/>
<stop offset="0.2358" stop-color="#7BBA8E"/>
<stop offset="0.3225" stop-color="#7BBA87"/>
<stop offset="0.3846" stop-color="#7BBA7B"/>
<stop offset="0.435" stop-color="#7BBA6A"/>
<stop offset="0.4777" stop-color="#7BBA55"/>
<stop offset="0.5154" stop-color="#7BBA3A"/>
<stop offset="0.5178" stop-color="#7BBA38"/>
<stop offset="0.8598" stop-color="#70A82E"/>
<stop offset="1" stop-color="#6A9F29"/>
</linearGradient>
</defs>
</svg>
