<svg width="632" height="371" viewBox="0 0 632 371" fill="none" xmlns="http://www.w3.org/2000/svg">
<path d="M615.513 31.7382L431.984 1.96822C419.184 -0.11178 405.854 -0.35178 392.374 1.25822C279.344 14.6982 166.314 28.1282 53.2735 41.5682C42.3435 42.8682 32.7435 51.9682 30.9335 62.7582L0.45352 243.708C-0.67648 250.398 2.48352 256.388 8.36352 258.708C99.7535 294.858 191.133 330.998 282.523 367.148C298.053 373.288 316.743 371.768 333.553 362.998C421.003 317.378 508.464 271.748 595.914 226.128C600.994 223.478 604.674 218.538 605.544 213.208C614.164 160.388 622.773 107.558 631.393 54.7382C633.263 43.2682 626.534 33.5282 615.513 31.7382Z" fill="#E5CA9A"/>
<path d="M31.3333 60.3882L0.193265 245.228C-0.716735 250.628 1.64326 255.438 6.08326 257.208C99.6833 294.468 193.283 331.728 286.893 368.978C294.043 371.818 303.023 365.708 304.483 356.998L345.083 115.968C346.123 109.798 342.893 104.528 337.433 103.478L47.1633 47.8982C40.2133 46.5682 32.6533 52.5282 31.3333 60.3882Z" fill="url(#paint0_radial_2569_1895)"/>
<path d="M354.103 115.148L314.023 353.078C312.413 362.618 320.783 368.738 329.343 364.288C418.653 317.958 507.973 271.618 597.283 225.288C601.553 223.078 604.713 218.698 605.463 213.948C614.013 160.148 622.553 106.348 631.103 52.5383C632.393 44.4083 626.342 38.4583 618.693 40.3383L365.193 102.818C359.683 104.178 355.093 109.278 354.103 115.148Z" fill="url(#paint1_radial_2569_1895)"/>
<path d="M392.833 1.16827L53.0332 42.0383L350.593 95.7083C352.043 95.9683 353.583 95.9183 355.113 95.5483L620.873 32.5483L436.873 2.00827C422.643 -0.351731 407.833 -0.631731 392.833 1.16827Z" fill="url(#paint2_radial_2569_1895)"/>
<path d="M147.993 224.828C138.373 221.908 134.033 209.148 133.523 207.528C132.653 204.788 133.773 201.858 136.023 200.968C138.283 200.088 140.803 201.588 141.673 204.328C141.813 204.758 145.063 214.898 151.393 214.988C155.403 215.068 159.363 211.188 161.743 207.528C163.183 205.318 165.903 204.998 167.863 206.858C169.803 208.698 170.203 211.988 168.773 214.198C166.543 217.628 160.433 225.588 151.743 225.408C150.413 225.398 149.163 225.188 147.993 224.828Z" fill="#FF9A00"/>
<path d="M100.753 208.238C109.853 211.008 118.703 204.558 120.503 193.838L87.5333 183.818C85.7333 194.538 91.6533 205.468 100.753 208.238Z" fill="#FF9A00"/>
<path d="M197.203 237.538C206.303 240.308 215.153 233.858 216.952 223.138L183.983 213.118C182.183 223.838 188.102 234.768 197.203 237.538Z" fill="#FF9A00"/>
<defs>
<radialGradient id="paint0_radial_2569_1895" cx="0" cy="0" r="1" gradientUnits="userSpaceOnUse" gradientTransform="translate(167.893 208.69) scale(237.977 237.977)">
<stop stop-color="#F3EBD9"/>
<stop offset="0.4134" stop-color="#F4EAD7"/>
<stop offset="0.6395" stop-color="#F6E7CF"/>
<stop offset="0.8198" stop-color="#F9E2C1"/>
<stop offset="0.9759" stop-color="#FEDAAE"/>
<stop offset="1" stop-color="#FFD9AA"/>
</radialGradient>
<radialGradient id="paint1_radial_2569_1895" cx="0" cy="0" r="1" gradientUnits="userSpaceOnUse" gradientTransform="translate(473.3 202.869) scale(243.728 243.728)">
<stop stop-color="#F3EBD9"/>
<stop offset="0.4134" stop-color="#F4EAD7"/>
<stop offset="0.6395" stop-color="#F6E7CF"/>
<stop offset="0.8198" stop-color="#F9E2C1"/>
<stop offset="0.9759" stop-color="#FEDAAE"/>
<stop offset="1" stop-color="#FFD9AA"/>
</radialGradient>
<radialGradient id="paint2_radial_2569_1895" cx="0" cy="0" r="1" gradientUnits="userSpaceOnUse" gradientTransform="translate(335.142 47.935) scale(291.204 291.204)">
<stop stop-color="#F3EBDA"/>
<stop offset="0.416" stop-color="#F4EAD8"/>
<stop offset="0.6436" stop-color="#F6E7D0"/>
<stop offset="0.825" stop-color="#F9E2C2"/>
<stop offset="0.9821" stop-color="#FEDBAF"/>
<stop offset="1" stop-color="#FFDAAC"/>
</radialGradient>
</defs>
</svg>
