<svg width="623" height="371" viewBox="0 0 623 371" fill="none" xmlns="http://www.w3.org/2000/svg">
<path d="M575.411 31.7372L382.632 1.96722C369.191 -0.11278 355.781 -0.352741 342.801 1.25726C233.951 14.6973 125.091 28.1273 16.2415 41.5673C5.7115 42.8673 -1.0485 51.9673 0.4915 62.7573L26.3115 243.717C27.2615 250.407 32.2815 256.397 38.8915 258.717C141.521 294.867 244.152 331.007 346.792 367.157C364.232 373.297 382.452 371.777 396.531 363.007C469.792 317.387 543.052 271.757 616.312 226.137C620.562 223.487 622.711 218.547 621.922 213.217C614.102 160.397 606.282 107.567 598.462 54.7472C596.742 43.2673 586.992 33.5272 575.411 31.7372Z" fill="#E5CA9A"/>
<path d="M0.14094 60.3875L26.5109 245.237C27.2809 250.637 31.1409 255.447 36.1209 257.217C141.311 294.477 246.511 331.737 351.701 368.987C359.731 371.827 366.811 365.717 365.571 357.007L331.181 115.977C330.301 109.807 325.431 104.537 319.651 103.487L12.0909 47.8975C4.72094 46.5675 -0.97906 52.5275 0.14094 60.3875Z" fill="url(#paint0_radial_2569_1900)"/>
<path d="M339.951 115.147L373.901 353.077C375.261 362.617 385.531 368.737 392.711 364.287C467.611 317.957 542.511 271.617 617.401 225.287C620.981 223.077 622.771 218.697 622.051 213.947C613.861 160.147 605.671 106.347 597.471 52.5373C596.231 44.4073 588.331 38.4573 581.271 40.3373L347.211 102.817C342.111 104.177 339.111 109.277 339.951 115.147Z" fill="url(#paint1_radial_2569_1900)"/>
<path d="M343.221 1.16745L16.1309 42.0475L330.391 95.7174C331.921 95.9774 333.441 95.9275 334.871 95.5575L581.031 32.5575L387.531 2.01748C372.551 -0.352518 357.661 -0.632554 343.221 1.16745Z" fill="url(#paint2_radial_2569_1900)"/>
<path d="M167.961 224.828C157.431 221.908 149.121 209.148 148.111 207.528C146.391 204.788 146.591 201.858 148.571 200.968C150.551 200.088 153.551 201.588 155.271 204.328C155.541 204.758 161.951 214.898 168.301 214.988C172.331 215.068 175.091 211.188 176.331 207.528C177.081 205.318 179.711 204.998 182.241 206.858C184.751 208.698 186.181 211.988 185.441 214.198C184.281 217.628 180.641 225.588 171.901 225.408C170.561 225.398 169.241 225.188 167.961 224.828Z" fill="#FF9A00"/>
<path d="M115.56 208.237C125.53 211.007 132.36 204.557 130.83 193.837L94.7402 183.817C96.2802 194.537 105.6 205.467 115.56 208.237Z" fill="#FF9A00"/>
<path d="M221.131 237.537C231.101 240.307 237.931 233.857 236.401 223.137L200.311 213.117C201.851 223.837 211.171 234.767 221.131 237.537Z" fill="#FF9A00"/>
<defs>
<radialGradient id="paint0_radial_2569_1900" cx="0" cy="0" r="1" gradientUnits="userSpaceOnUse" gradientTransform="translate(182.816 208.657) scale(237.977 237.977)">
<stop stop-color="#F3EBD9"/>
<stop offset="0.4134" stop-color="#F4EAD7"/>
<stop offset="0.6395" stop-color="#F6E7CF"/>
<stop offset="0.8198" stop-color="#F9E2C1"/>
<stop offset="0.9759" stop-color="#FEDAAE"/>
<stop offset="1" stop-color="#FFD9AA"/>
</radialGradient>
<radialGradient id="paint1_radial_2569_1900" cx="0" cy="0" r="1" gradientUnits="userSpaceOnUse" gradientTransform="translate(486.412 202.835) scale(243.728 243.728)">
<stop stop-color="#F3EBD9"/>
<stop offset="0.4134" stop-color="#F4EAD7"/>
<stop offset="0.6395" stop-color="#F6E7CF"/>
<stop offset="0.8198" stop-color="#F9E2C1"/>
<stop offset="0.9759" stop-color="#FEDAAE"/>
<stop offset="1" stop-color="#FFD9AA"/>
</radialGradient>
<radialGradient id="paint2_radial_2569_1900" cx="0" cy="0" r="1" gradientUnits="userSpaceOnUse" gradientTransform="translate(300.049 47.9018) scale(291.204 291.204)">
<stop stop-color="#F3EBDA"/>
<stop offset="0.416" stop-color="#F4EAD8"/>
<stop offset="0.6436" stop-color="#F6E7D0"/>
<stop offset="0.825" stop-color="#F9E2C2"/>
<stop offset="0.9821" stop-color="#FEDBAF"/>
<stop offset="1" stop-color="#FFDAAC"/>
</radialGradient>
</defs>
</svg>
