<svg width="1328" height="468" viewBox="0 0 1328 468" fill="none" xmlns="http://www.w3.org/2000/svg">
<path d="M44.5 468C34.8333 468 26.3333 467.333 19 466C11.6667 465 5.33333 463.833 -4.76837e-07 462.5V399.5C5.33333 400.833 11 402 17 403C22.6667 404 28.8333 404.5 35.5 404.5C44.1667 404.5 52 402.833 59 399.5C66.3333 396.167 72 389.833 76 380.5C80 371.167 82 357.833 82 340.5V5.99998H157.5V340C157.5 370.667 152.667 395.333 143 414C133.667 433 120.5 446.667 103.5 455C86.5 463.667 66.8333 468 44.5 468ZM511.027 363L485.027 278H355.027L329.027 363H247.527L373.527 4.5H466.027L592.527 363H511.027ZM441.027 131.5C439.361 125.833 437.194 118.667 434.527 110C431.861 101.333 429.194 92.5 426.527 83.5C423.861 74.5 421.694 66.6667 420.027 60C418.361 66.6667 416.027 75 413.027 85C410.361 94.6667 407.694 104 405.027 113C402.694 121.667 400.861 127.833 399.527 131.5L374.027 214.5H467.027L441.027 131.5ZM893.242 264C893.242 285 888.076 303.333 877.742 319C867.409 334.667 852.409 346.833 832.742 355.5C813.409 363.833 789.742 368 761.742 368C749.409 368 737.242 367.167 725.242 365.5C713.576 363.833 702.242 361.5 691.242 358.5C680.576 355.167 670.409 351.167 660.742 346.5V276C677.742 283.333 695.242 290.167 713.242 296.5C731.576 302.5 749.742 305.5 767.742 305.5C780.076 305.5 789.909 303.833 797.242 300.5C804.909 297.167 810.409 292.667 813.742 287C817.409 281.333 819.242 274.833 819.242 267.5C819.242 258.5 816.076 250.833 809.742 244.5C803.742 238.167 795.576 232.333 785.242 227C774.909 221.333 763.076 215.333 749.742 209C741.409 205 732.409 200.333 722.742 195C713.076 189.333 703.742 182.5 694.742 174.5C686.076 166.167 678.909 156.167 673.242 144.5C667.576 132.833 664.742 118.833 664.742 102.5C664.742 81.1666 669.576 63 679.242 48C689.242 32.6666 703.242 21 721.242 13C739.576 4.99998 761.076 0.999982 785.742 0.999982C804.409 0.999982 822.076 3.16665 838.742 7.49999C855.742 11.8333 873.409 18 891.742 26L867.242 85C850.909 78.3333 836.242 73.1667 823.242 69.5C810.242 65.8333 796.909 64 783.242 64C773.909 64 765.909 65.5 759.242 68.5C752.576 71.5 747.409 75.6667 743.742 81C740.409 86.3333 738.742 92.6667 738.742 100C738.742 108.333 741.242 115.5 746.242 121.5C751.242 127.167 758.742 132.667 768.742 138C778.742 143.333 791.242 149.667 806.242 157C824.576 165.667 840.076 174.667 852.742 184C865.742 193.333 875.742 204.333 882.742 217C889.742 229.667 893.242 245.333 893.242 264ZM1327.13 184C1327.13 211.667 1323.63 236.833 1316.63 259.5C1309.97 281.833 1299.63 301.167 1285.63 317.5C1271.97 333.833 1254.3 346.333 1232.63 355C1211.3 363.667 1186.13 368 1157.13 368C1128.13 368 1102.8 363.667 1081.13 355C1059.8 346 1042.13 333.5 1028.13 317.5C1014.47 301.167 1004.13 281.667 997.133 259C990.466 236.333 987.133 211.167 987.133 183.5C987.133 146.5 993.133 114.333 1005.13 87C1017.47 59.6667 1036.13 38.5 1061.13 23.5C1086.47 8.16666 1118.63 0.499988 1157.63 0.499988C1196.3 0.499988 1228.13 8.16666 1253.13 23.5C1278.13 38.5 1296.63 59.8333 1308.63 87.5C1320.97 114.833 1327.13 147 1327.13 184ZM1066.63 184C1066.63 209 1069.8 230.5 1076.13 248.5C1082.47 266.5 1092.3 280.333 1105.63 290C1118.97 299.667 1136.13 304.5 1157.13 304.5C1178.8 304.5 1196.13 299.667 1209.13 290C1222.47 280.333 1232.13 266.5 1238.13 248.5C1244.47 230.5 1247.63 209 1247.63 184C1247.63 146.333 1240.63 116.833 1226.63 95.5C1212.63 74.1667 1189.63 63.5 1157.63 63.5C1136.3 63.5 1118.97 68.3333 1105.63 78C1092.3 87.6667 1082.47 101.5 1076.13 119.5C1069.8 137.5 1066.63 159 1066.63 184Z" fill="#F2F2F2"/>
</svg>
