<svg width="219" height="242" viewBox="0 0 219 242" fill="none" xmlns="http://www.w3.org/2000/svg">
<g clip-path="url(#clip0_1404_594)">
<path d="M54.9952 0H9.65795V19.9918H54.9952V29.7742C54.9952 43.0783 54.9952 56.3825 54.9952 69.6688V74.1687C54.9952 90.461 48.7522 96.1348 36.2306 96.1348C28.4047 96.1348 20.4186 91.6349 13.8377 83.0975L0 97.8245C9.62237 111.609 24.2783 116.767 36.9954 116.767C68.0858 116.767 78.8821 98.3759 78.8821 76.143V31.7129V23.887C78.8821 10.6895 68.1926 0 54.9952 0Z" fill="#AAA6A8"/>
<path d="M204.933 165.163C187.361 147.59 158.849 147.59 141.276 165.163C123.703 182.736 123.703 211.247 141.276 228.82C158.849 246.393 187.361 246.393 204.933 228.82C222.506 211.247 222.506 182.736 204.933 165.163ZM199.064 222.951C184.728 237.287 161.482 237.287 147.128 222.951L199.064 171.015C213.4 185.368 213.4 208.615 199.064 222.951Z" fill="#AAA6A8"/>
<path d="M117.727 146.844C123.686 146.844 129.751 149.476 135.211 154.509C140.547 149.743 146.559 146.185 152.909 143.767C143.286 131.049 129.235 126.229 116.963 126.229C85.8721 126.229 75.0759 144.62 75.0759 166.853C75.147 177.703 75.2004 188.57 75.2715 199.42C75.2715 215.712 69.0285 221.386 56.507 221.386C48.681 221.386 40.695 216.886 34.1141 208.348L20.2764 223.075C29.8987 236.86 44.5546 242.018 57.2718 242.018C88.3622 242.018 99.1585 223.627 99.1585 201.394C99.0873 190.544 99.034 179.677 98.9628 168.827C98.9806 152.517 105.224 146.844 117.727 146.844Z" fill="#AAA6A8"/>
<path d="M117.958 55.831C122.352 51.4378 128.114 49.2323 133.877 49.2323V26.7327C122.352 26.7327 110.844 31.1259 102.04 39.9123C93.2533 48.6987 88.8601 60.2242 88.8601 71.7319H111.36C111.36 65.987 113.565 60.2242 117.958 55.831Z" fill="#AAA6A8"/>
<path d="M117.958 87.6506C113.565 83.2574 111.36 77.4947 111.36 71.7319H88.8601C88.8601 83.2574 93.2533 94.7652 102.04 103.569C110.826 112.356 122.352 116.749 133.877 116.749V94.2494C128.114 94.2494 122.352 92.0439 117.958 87.6506Z" fill="#AAA6A8"/>
<path d="M156.377 71.7498C156.377 77.5125 154.171 83.2753 149.778 87.6685C145.385 92.0617 139.622 94.2672 133.859 94.2672V116.767C145.385 116.767 156.893 112.374 165.697 103.587C174.483 94.8008 178.876 83.2753 178.876 71.7498H156.377Z" fill="#AAA6A8"/>
<path d="M190.722 26.7327H143.055V49.2323H190.722V26.7327Z" fill="#3DCE94"/>
<path d="M178.879 62.1282V14.4609L156.38 14.4609V62.1282L178.879 62.1282Z" fill="#3DCE94"/>
<path d="M178.884 98.6124V71.7373H156.384V98.6124H178.884Z" fill="#AAA6A8"/>
<path d="M178.886 116.755V71.738H164.888V116.755H178.886Z" fill="#AAA6A8"/>
</g>
<defs>
<clipPath id="clip0_1404_594">
<rect width="218.113" height="242" fill="white"/>
</clipPath>
</defs>
</svg>
